<svg width="1440" height="2700" viewBox="0 0 1440 2700" fill="none" xmlns="http://www.w3.org/2000/svg">
<path opacity="0.02" d="M625 0H1440V2700H1067L625 0Z" fill="black"/>
<path opacity="0.02" d="M384 0H1435L1199 2700H137.5L384 0Z" fill="black"/>
<path d="M0 722C725.468 889.146 102.654 1072.5 220.827 1241C339 1409.5 198.079 1688 0 1506V722Z" fill="#B84D4D"/>
<path d="M1307.67 0H1440V635.594C1440 635.594 1406.92 494.204 1307.67 635.594C1208.41 776.984 910.602 269.532 1307.67 0Z" fill="#B84D4D"/>
<path opacity="0.1" d="M1294 560.937C1294 567.012 1246.09 571.937 1187 571.937C1127.91 571.937 1080 567.012 1080 560.937C1080 554.862 1127.91 549.937 1187 549.937C1246.09 549.937 1294 554.862 1294 560.937Z" fill="black"/>
<path fill-rule="evenodd" clip-rule="evenodd" d="M1211.66 318.568L1167.89 447.341L1137.36 542.195L1118.15 542.842L1157.02 320.408L1211.66 318.568Z" fill="black"/>
<path fill-rule="evenodd" clip-rule="evenodd" d="M1223.54 318.168C1225.53 361.78 1227.13 420.533 1228.44 423.212C1229.75 425.89 1306.24 482.636 1306.24 482.636L1296.9 499.803C1296.9 499.803 1206.54 445.746 1201.76 438.3C1196.98 430.853 1171.91 361.693 1158.69 320.352L1223.54 318.168Z" fill="black"/>
<path fill-rule="evenodd" clip-rule="evenodd" d="M1324.03 493.377L1306.88 481.215L1293.94 497.747C1292.99 515.98 1283.27 538.932 1283.27 538.932L1286.42 541.399L1309.85 511.484L1316.29 500.016L1317.87 501.25L1324.03 493.377Z" fill="#191847"/>
<path d="M1293 504.437L1291 515.937L1305 517.937L1307.5 514.937L1310 510.937L1293 504.437Z" fill="black"/>
<path d="M1293 504.437L1291 515.937L1305 517.937L1307.5 514.937L1310 510.937L1293 504.437Z" fill="url(#paint0_linear)"/>
<path fill-rule="evenodd" clip-rule="evenodd" d="M1139.75 560.125L1138.04 539.171L1117.05 539.877C1102.48 550.874 1078.65 558.18 1078.65 558.18L1078.78 562.178L1116.76 560.899L1129.68 558.463L1129.75 560.462L1139.75 560.125Z" fill="#191847"/>
<path d="M1114 541.937L1104 547.937L1114 560.937H1117L1122 559.937L1114 541.937Z" fill="black"/>
<path d="M1114 541.937L1104 547.937L1114 560.937H1117L1122 559.937L1114 541.937Z" fill="url(#paint1_linear)"/>
<path fill-rule="evenodd" clip-rule="evenodd" d="M1144.88 169.967C1140.24 181.312 1143.78 208.49 1151.43 209.63C1154.48 210.084 1160.61 207.546 1166.64 202.99L1165.59 232.013L1189.46 229.513L1177.24 192.073C1181.26 186.214 1183.67 179.297 1182.38 171.964C1178.65 150.836 1149.51 158.621 1144.88 169.967Z" fill="#B28B67"/>
<path d="M1147.45 212.797C1147.61 214.289 1149.68 212.869 1150.78 210.941C1158.61 204.088 1152.74 207.876 1152.8 206.205C1149.82 206.527 1147.22 205.783 1146.83 206.83C1146.44 207.876 1147.3 211.305 1147.45 212.797Z" fill="#1C231F"/>
<path d="M1154.14 168.324C1157.09 169.492 1159.5 171.782 1162.08 174.846C1162.09 174.957 1163.64 180.814 1164.48 186.883C1165.52 191.504 1167.27 195.48 1166.04 198.282C1160.36 204.674 1154 206.68 1147.82 206.725C1147.99 209.153 1149.56 210.063 1153.16 209.686C1157.33 209.249 1167.34 205.173 1168.75 198.834C1169.94 193.457 1166.37 181.729 1166.06 177.292C1166.31 177.235 1166.57 177.192 1166.83 177.165C1170.41 176.791 1173.6 179.353 1173.97 182.889C1174.16 184.684 1173.59 186.384 1172.51 187.673C1174.22 189.607 1176.13 191.615 1178.29 193.668C1185.06 188.624 1189.11 175.511 1180.78 164.194C1178.21 158.491 1173.46 155.799 1168.09 154.88C1163.68 153.573 1159.27 153.836 1155.68 155.272C1148.48 156.649 1148.54 157.073 1146.84 158.566C1140.88 162.003 1139.6 168.091 1154.14 168.324Z" fill="#1C231F"/>
<path d="M1159.62 161.174C1175.02 154.849 1183.36 154.767 1197.67 161.27C1201.36 162.637 1204.84 169.752 1197.38 166.189C1189.93 162.626 1158.95 157.421 1162.04 164.041L1159.62 161.174Z" fill="url(#paint2_linear)"/>
<path d="M1173.48 165.423C1188.33 173.124 1193.66 178.752 1197.4 191.311C1198.62 194.413 1195.03 199.877 1193.22 193.259C1191.42 186.641 1176.11 163.329 1172.68 168.312L1173.48 165.423Z" fill="url(#paint3_linear)"/>
<path d="M1171.09 167.901C1184.67 177.662 1189.12 184 1191.02 196.968C1191.78 200.213 1187.44 205.103 1186.61 198.293C1185.77 191.483 1173.98 166.208 1169.87 170.644L1171.09 167.901Z" fill="url(#paint4_linear)"/>
<path d="M1169.07 169.43C1180.97 181.185 1184.39 188.139 1184.24 201.244C1184.48 204.568 1179.44 208.723 1179.67 201.866C1179.91 195.009 1172.2 168.208 1167.45 171.95L1169.07 169.43Z" fill="url(#paint5_linear)"/>
<path d="M1176.57 173.552C1186.04 187.14 1188.5 193.985 1187.38 204.714C1187.34 207.527 1182.63 209.281 1183.35 203.72C1184.08 198.159 1179.38 173.578 1174.96 175.088L1176.57 173.552Z" fill="url(#paint6_linear)"/>
<path d="M1169.31 162.247C1183.72 170.736 1188.73 176.643 1191.79 189.386C1192.84 192.549 1188.97 197.812 1187.52 191.106C1186.07 184.4 1172.04 160.297 1168.35 165.088L1169.31 162.247Z" fill="url(#paint7_linear)"/>
<path d="M1167.4 158.324C1184.08 159.537 1191.2 162.605 1199.6 172.664C1201.94 175.034 1200.8 181.47 1196.53 176.104C1192.25 170.737 1168.98 155.365 1167.8 161.297L1167.4 158.324Z" fill="url(#paint8_linear)"/>
<path d="M1169.66 161.379C1185.97 165.078 1192.55 169.179 1199.35 180.383C1201.31 183.077 1199.22 189.27 1195.8 183.324C1192.37 177.377 1171.67 158.691 1169.61 164.379L1169.66 161.379Z" fill="url(#paint9_linear)"/>
<path d="M1156.44 155.55C1172.75 159.249 1179.32 163.35 1186.12 174.554C1188.08 177.249 1185.99 183.441 1182.57 177.495C1179.15 171.548 1158.45 152.862 1156.39 158.55L1156.44 155.55Z" fill="url(#paint10_linear)"/>
<path d="M1155.25 157.218C1171.94 156.096 1179.41 158.143 1189.13 166.934C1191.78 168.954 1191.55 175.486 1186.57 170.767C1181.59 166.049 1156.41 154.067 1156.06 160.107L1155.25 157.218Z" fill="url(#paint11_linear)"/>
<path d="M1155.97 160.627C1171.41 167.049 1177.19 172.208 1181.98 184.407C1183.46 187.396 1180.35 193.142 1177.99 186.7C1175.63 180.258 1158.41 158.319 1155.41 163.574L1155.97 160.627Z" fill="url(#paint12_linear)"/>
<path d="M1160.56 160.678C1173.16 154.001 1179.72 152.863 1190.5 155.835C1193.3 156.372 1195.49 161.198 1189.9 159.519C1184.3 157.841 1160.32 157.983 1162.24 162.493L1160.56 160.678Z" fill="url(#paint13_linear)"/>
<path d="M1153.02 164.024C1160.14 152.209 1165.16 148.032 1176.08 145.274C1178.79 144.358 1183.36 147.366 1177.61 148.686C1171.86 150.005 1151.31 161.863 1155.47 164.736L1153.02 164.024Z" fill="url(#paint14_linear)"/>
<path d="M1151.29 163.209C1162.44 151.932 1169.8 148.781 1185.05 149.248C1188.85 149.095 1194.73 154.105 1186.72 153.706C1178.71 153.307 1149.21 160.139 1154.55 164.855L1151.29 163.209Z" fill="url(#paint15_linear)"/>
<path d="M1150.9 159.258C1163.74 146.625 1172.22 143.179 1189.85 144.01C1194.25 143.911 1201.07 149.735 1191.81 149.124C1182.55 148.512 1148.49 155.718 1154.68 161.197L1150.9 159.258Z" fill="url(#paint16_linear)"/>
<path d="M1151.51 165.844C1163.55 158.312 1170.02 156.719 1181.01 158.927C1183.84 159.266 1186.42 163.92 1180.7 162.64C1174.98 161.359 1151.05 163.176 1153.33 167.534L1151.51 165.844Z" fill="url(#paint17_linear)"/>
<path d="M1153.78 167.53C1163.21 162.469 1168.62 161.879 1178.5 165.142C1181.02 165.784 1183.91 170.139 1178.75 168.326C1173.59 166.513 1153 165.158 1155.6 169.219L1153.78 167.53Z" fill="url(#paint18_linear)"/>
<path d="M1148.59 166.041C1151.89 159.262 1155.38 156.521 1164.77 153.661C1167.03 152.839 1172.13 153.683 1167.15 155.124C1162.18 156.564 1146.39 165.217 1151.08 166.052L1148.59 166.041Z" fill="url(#paint19_linear)"/>
<path d="M1158.56 165.184C1166.05 164.403 1170.23 165.92 1177.61 172.378C1179.51 173.863 1181.48 178.643 1177.63 175.177C1173.78 171.712 1158.09 162.881 1159.86 167.3L1158.56 165.184Z" fill="url(#paint20_linear)"/>
<path d="M1146.34 165.089C1147.45 151.619 1150.11 145.854 1158.79 138.999C1160.84 137.091 1166.37 137.961 1161.74 141.451C1157.11 144.94 1143.8 163.833 1148.9 164.744L1146.34 165.089Z" fill="url(#paint21_linear)"/>
<path d="M1143.32 163.748C1149.79 150.938 1155.37 146.313 1169.07 142.971C1172.41 141.896 1179.17 144.915 1171.93 146.534C1164.68 148.153 1140.54 161.52 1146.73 164.41L1143.32 163.748Z" fill="url(#paint22_linear)"/>
<path d="M1150.5 165.041C1153.19 149.45 1157.09 142.953 1168.62 135.668C1171.37 133.611 1178.21 135.066 1172.07 138.758C1165.94 142.449 1147.44 163.376 1153.73 164.845L1150.5 165.041Z" fill="url(#paint23_linear)"/>
<path d="M1153.72 166.218C1148.49 153.756 1148.2 147.412 1152.74 137.328C1153.68 134.691 1158.99 132.913 1156.49 138.145C1153.99 143.376 1150.89 166.274 1155.83 164.733L1153.72 166.218Z" fill="url(#paint24_linear)"/>
<path d="M1151.42 164.249C1158.68 166.264 1162.01 169.201 1166.53 177.912C1167.75 179.987 1167.84 185.159 1165.52 180.525C1163.2 175.89 1151.83 161.936 1151.86 166.695L1151.42 164.249Z" fill="url(#paint25_linear)"/>
<path d="M1147.18 167.169C1146.14 160.547 1147.28 156.802 1152.6 150.057C1153.81 148.334 1157.91 146.433 1155.05 149.954C1152.19 153.476 1145.18 167.65 1148.98 165.948L1147.18 167.169Z" fill="url(#paint26_linear)"/>
<path d="M1150.29 166.14C1150.05 159.442 1151.63 155.86 1157.72 149.804C1159.13 148.239 1163.43 146.844 1160.17 149.997C1156.91 153.149 1148.24 166.377 1152.22 165.144L1150.29 166.14Z" fill="url(#paint27_linear)"/>
<path d="M1158.89 168.365C1165.3 170.334 1168.17 172.996 1171.9 180.734C1172.91 182.582 1172.82 187.102 1170.91 182.987C1169 178.873 1159.33 166.356 1159.2 170.514L1158.89 168.365Z" fill="url(#paint28_linear)"/>
<path d="M1151.84 162.502C1159.38 162.469 1163.38 164.392 1170.09 171.551C1171.82 173.216 1173.32 178.169 1169.83 174.338C1166.34 170.507 1151.61 160.164 1152.93 164.737L1151.84 162.502Z" fill="url(#paint29_linear)"/>
<path fill-rule="evenodd" clip-rule="evenodd" d="M1317.29 348.588C1308.82 345.763 1296.2 340.193 1294.02 337.793C1289.57 332.884 1260.12 278.174 1260.12 278.174L1242.93 283.179C1242.93 283.179 1279.76 340.497 1282.3 343.748C1285.59 347.97 1284.31 355.844 1283.43 361.183C1283.3 362.009 1283.17 362.774 1283.08 363.456C1286.55 363.952 1287.55 361.864 1288.61 359.662C1289.8 357.174 1291.07 354.542 1296.04 355.327C1297.96 355.631 1299.83 356.104 1301.66 356.566C1307.97 358.162 1313.77 359.629 1319.34 353.518C1320.22 352.55 1320.68 349.722 1317.29 348.588L1117.57 302.909L1088.28 329.527C1079.92 332.75 1073.03 336.392 1067.62 340.452C1066.39 341.837 1065 344.526 1070.61 343.499C1076.22 342.472 1082.17 341.644 1083.15 343.491C1083.58 344.3 1083.22 345.266 1082.82 346.301C1082.32 347.629 1081.77 349.071 1082.81 350.441C1084.04 352.066 1088.55 347.195 1096.34 335.828L1126.4 319.511L1117.57 302.909L1317.29 348.588Z" fill="#B28B67"/>
<path fill-rule="evenodd" clip-rule="evenodd" d="M1166.23 214.27L1177.32 217.519C1177.5 220.309 1177.92 224.26 1178.41 228.786C1179.94 242.993 1182.08 262.869 1179.14 270.31C1167.62 299.543 1137.29 315.518 1105.37 335.837L1095.66 320.336C1096.52 319.582 1097.37 318.825 1098.21 318.065C1096.9 317.756 1095.75 316.871 1095.15 315.558C1094.12 313.299 1095.11 310.628 1097.37 309.594C1101.96 307.491 1106.33 306.35 1110.44 306.216C1137.62 277.977 1154.61 246.472 1166.23 214.27Z" fill="#1C1C1C"/>
<path d="M1158.5 320.504C1185.97 322.837 1225.88 320.504 1225.88 320.504C1216.92 272.694 1204.31 240.154 1181.45 213.036C1181.45 213.036 1170.56 215.811 1165.9 213.964C1144.5 274.937 1162.5 273.437 1158.5 303.937C1157.42 312.174 1157.03 317.366 1157.01 320.504L1158.5 320.504Z" fill="white"/>
<path fill-rule="evenodd" clip-rule="evenodd" d="M1285.41 314.769C1249.5 238.669 1189.18 209.815 1189.18 209.815L1177.87 210.999C1180.92 227.808 1177.48 253.094 1173.49 282.427C1167.12 329.339 1159.33 386.603 1174.45 436.097C1186.81 437.53 1200.82 434.201 1215.98 430.598C1237.86 425.397 1262.15 419.623 1287.4 426.766C1282.41 393.857 1247.76 358.211 1232.19 324.717C1233.15 323.606 1233.55 322.05 1233.11 320.537L1232.29 317.653C1231.73 315.7 1229.96 314.419 1228.03 314.391C1227.54 312.934 1227.09 311.482 1226.7 310.035C1224.7 302.645 1224.7 295.134 1224.69 287.708C1224.69 283.631 1224.69 279.58 1224.36 275.587C1238.92 286.059 1257.21 305.06 1274.57 339.498L1292.78 332.004C1291.78 329.41 1290.75 326.865 1289.7 324.366C1291.75 322.939 1293.72 316.981 1291.79 316.224C1289.75 315.424 1287.62 314.942 1285.41 314.769Z" fill="#1C1C1C"/>
<path fill-rule="evenodd" clip-rule="evenodd" d="M1185.17 211.239L1191.96 226.481L1182.86 239.392L1193.17 247.71L1174.63 288.759L1198.22 247.26L1188.06 238.847L1196.14 227.434L1185.17 211.239Z" fill="black" fill-opacity="0.1"/>
<path fill-rule="evenodd" clip-rule="evenodd" d="M1186.38 298.588C1186.15 296.393 1184.18 294.797 1181.99 295.027C1179.79 295.257 1178.2 297.226 1178.43 299.421C1178.65 301.617 1180.62 303.213 1182.82 302.983C1185.02 302.753 1186.61 300.784 1186.38 298.588L1183.8 321.984C1183.57 319.788 1181.6 318.192 1179.41 318.422C1177.21 318.652 1175.62 320.621 1175.85 322.817C1176.08 325.013 1178.05 326.609 1180.24 326.379C1182.44 326.149 1184.03 324.18 1183.8 321.984L1185.2 344.963C1184.97 342.767 1183.01 341.171 1180.81 341.401C1178.61 341.631 1177.02 343.601 1177.25 345.796C1177.48 347.992 1179.45 349.588 1181.64 349.358C1183.84 349.128 1185.43 347.159 1185.2 344.963L1186.38 298.588Z" fill="black" fill-opacity="0.4"/>
<path d="M1235.16 1889.79C1301.77 1884.41 1359.59 1926.99 1359.59 1926.99C1359.59 1926.99 1309.41 1978.3 1242.8 1983.67C1176.19 1989.05 1118.37 1946.47 1118.37 1946.47C1118.37 1946.47 1168.55 1895.17 1235.16 1889.79Z" fill="#B84D4D"/>
<path d="M1405.21 1789.13C1393.34 1854.89 1337.36 1899.87 1337.36 1899.87C1337.36 1899.87 1300.63 1838.22 1312.5 1772.46C1324.37 1706.7 1380.34 1661.72 1380.34 1661.72C1380.34 1661.72 1417.08 1723.37 1405.21 1789.13Z" fill="#3F3D56"/>
<path d="M1146 1733.58C1402.3 1900.78 1450.23 2050.81 1467.84 2358.29" stroke="#3F3D56" stroke-width="3"/>
<path d="M1046.2 1712.6C1112.75 1706.54 1171 1748.53 1171 1748.53C1171 1748.53 1121.35 1800.34 1054.8 1806.4C988.251 1812.46 930 1770.47 930 1770.47C930 1770.47 979.648 1718.66 1046.2 1712.6Z" fill="#3F3D56"/>
<path d="M1097.7 1639.73C1152.76 1677.61 1170.72 1747.13 1170.72 1747.13C1170.72 1747.13 1099.42 1755.25 1044.36 1717.37C989.308 1679.49 971.347 1609.97 971.347 1609.97C971.347 1609.97 1042.65 1601.85 1097.7 1639.73Z" fill="#B84D4D"/>
<circle cx="917" cy="1679" r="45" fill="#B84D4D"/>
<path d="M81.7064 1738H79.9554V1713.94H81.7064V1738ZM114.592 1727.83C114.592 1726.93 114.462 1726.12 114.201 1725.4C113.952 1724.68 113.595 1724.07 113.13 1723.57C112.665 1723.07 112.11 1722.69 111.464 1722.43C110.829 1722.16 110.127 1722.02 109.356 1722.02C108.483 1722.02 107.701 1722.16 107.01 1722.43C106.319 1722.7 105.718 1723.09 105.208 1723.6C104.709 1724.11 104.307 1724.72 104.001 1725.44C103.695 1726.15 103.491 1726.95 103.389 1727.83H114.592ZM103.304 1728.87V1729.19C103.304 1730.46 103.451 1731.58 103.746 1732.54C104.041 1733.51 104.46 1734.32 105.004 1734.97C105.548 1735.62 106.205 1736.11 106.976 1736.44C107.747 1736.76 108.608 1736.93 109.56 1736.93C110.41 1736.93 111.147 1736.84 111.77 1736.66C112.393 1736.46 112.915 1736.25 113.334 1736.03C113.765 1735.79 114.105 1735.58 114.354 1735.4C114.603 1735.21 114.785 1735.11 114.898 1735.11C115.045 1735.11 115.159 1735.17 115.238 1735.28L115.68 1735.82C115.408 1736.16 115.045 1736.48 114.592 1736.78C114.15 1737.07 113.651 1737.33 113.096 1737.54C112.552 1737.74 111.963 1737.91 111.328 1738.03C110.705 1738.16 110.076 1738.22 109.441 1738.22C108.285 1738.22 107.231 1738.02 106.279 1737.63C105.327 1737.22 104.511 1736.63 103.831 1735.86C103.151 1735.09 102.624 1734.15 102.25 1733.04C101.887 1731.91 101.706 1730.63 101.706 1729.19C101.706 1727.98 101.876 1726.86 102.216 1725.84C102.567 1724.81 103.066 1723.93 103.712 1723.19C104.369 1722.44 105.168 1721.86 106.109 1721.44C107.061 1721.02 108.138 1720.81 109.339 1720.81C110.291 1720.81 111.175 1720.98 111.991 1721.31C112.807 1721.63 113.515 1722.12 114.116 1722.75C114.717 1723.37 115.187 1724.14 115.527 1725.06C115.878 1725.98 116.054 1727.03 116.054 1728.22C116.054 1728.47 116.02 1728.64 115.952 1728.73C115.884 1728.83 115.771 1728.87 115.612 1728.87H103.304ZM124.724 1724.04C125.506 1723.07 126.407 1722.29 127.427 1721.7C128.458 1721.11 129.603 1720.81 130.861 1720.81C131.79 1720.81 132.606 1720.96 133.309 1721.25C134.023 1721.55 134.612 1721.97 135.077 1722.53C135.541 1723.09 135.893 1723.75 136.131 1724.54C136.369 1725.32 136.488 1726.2 136.488 1727.19V1738H134.856V1727.19C134.856 1725.6 134.493 1724.36 133.768 1723.46C133.042 1722.56 131.937 1722.1 130.453 1722.1C129.353 1722.1 128.322 1722.39 127.359 1722.95C126.407 1723.51 125.557 1724.29 124.809 1725.28V1738H123.177V1721.08H124.078C124.361 1721.08 124.525 1721.23 124.571 1721.51L124.724 1724.04ZM146.392 1721.08V1740.16C146.392 1740.75 146.307 1741.29 146.137 1741.79C145.967 1742.29 145.712 1742.72 145.372 1743.08C145.043 1743.46 144.624 1743.75 144.114 1743.95C143.615 1744.17 143.026 1744.27 142.346 1744.27C142.017 1744.27 141.723 1744.24 141.462 1744.19C141.201 1744.13 140.946 1744.04 140.697 1743.92L140.782 1743.1C140.816 1743 140.861 1742.94 140.918 1742.91C140.975 1742.9 141.054 1742.9 141.156 1742.91C141.247 1742.94 141.366 1742.96 141.513 1742.98C141.66 1743.02 141.847 1743.03 142.074 1743.03C142.992 1743.03 143.672 1742.78 144.114 1742.28C144.556 1741.79 144.777 1741.08 144.777 1740.16V1721.08H146.392ZM147.089 1715.25C147.089 1715.46 147.044 1715.65 146.953 1715.83C146.874 1716 146.76 1716.15 146.613 1716.29C146.477 1716.43 146.318 1716.53 146.137 1716.61C145.956 1716.69 145.763 1716.73 145.559 1716.73C145.355 1716.73 145.162 1716.69 144.981 1716.61C144.8 1716.53 144.641 1716.43 144.505 1716.29C144.369 1716.15 144.261 1716 144.182 1715.83C144.103 1715.65 144.063 1715.46 144.063 1715.25C144.063 1715.05 144.103 1714.86 144.182 1714.68C144.261 1714.48 144.369 1714.32 144.505 1714.18C144.641 1714.05 144.8 1713.94 144.981 1713.86C145.162 1713.78 145.355 1713.74 145.559 1713.74C145.763 1713.74 145.956 1713.78 146.137 1713.86C146.318 1713.94 146.477 1714.05 146.613 1714.18C146.76 1714.32 146.874 1714.48 146.953 1714.68C147.044 1714.86 147.089 1715.05 147.089 1715.25ZM161.578 1720.81C162.791 1720.81 163.873 1721.02 164.825 1721.44C165.789 1721.85 166.599 1722.43 167.256 1723.19C167.914 1723.95 168.412 1724.87 168.752 1725.95C169.104 1727.01 169.279 1728.21 169.279 1729.53C169.279 1730.86 169.104 1732.06 168.752 1733.12C168.412 1734.19 167.914 1735.1 167.256 1735.86C166.599 1736.62 165.789 1737.2 164.825 1737.61C163.873 1738.02 162.791 1738.22 161.578 1738.22C160.366 1738.22 159.278 1738.02 158.314 1737.61C157.362 1737.2 156.552 1736.62 155.883 1735.86C155.226 1735.1 154.722 1734.19 154.37 1733.12C154.03 1732.06 153.86 1730.86 153.86 1729.53C153.86 1728.21 154.03 1727.01 154.37 1725.95C154.722 1724.87 155.226 1723.95 155.883 1723.19C156.552 1722.43 157.362 1721.85 158.314 1721.44C159.278 1721.02 160.366 1720.81 161.578 1720.81ZM161.578 1736.95C162.587 1736.95 163.465 1736.78 164.213 1736.44C164.973 1736.08 165.602 1735.59 166.1 1734.94C166.61 1734.29 166.99 1733.52 167.239 1732.61C167.489 1731.69 167.613 1730.67 167.613 1729.53C167.613 1728.41 167.489 1727.39 167.239 1726.47C166.99 1725.56 166.61 1724.77 166.1 1724.13C165.602 1723.47 164.973 1722.97 164.213 1722.61C163.465 1722.26 162.587 1722.09 161.578 1722.09C160.57 1722.09 159.686 1722.26 158.926 1722.61C158.178 1722.97 157.549 1723.47 157.039 1724.13C156.541 1724.77 156.161 1725.56 155.9 1726.47C155.651 1727.39 155.526 1728.41 155.526 1729.53C155.526 1730.67 155.651 1731.69 155.9 1732.61C156.161 1733.52 156.541 1734.29 157.039 1734.94C157.549 1735.59 158.178 1736.08 158.926 1736.44C159.686 1736.78 160.57 1736.95 161.578 1736.95ZM189.762 1721.08L180.038 1743.44C179.97 1743.6 179.88 1743.73 179.766 1743.83C179.664 1743.93 179.511 1743.98 179.307 1743.98H178.151L181.126 1737.37L173.969 1721.08H175.312C175.482 1721.08 175.618 1721.13 175.72 1721.22C175.822 1721.3 175.89 1721.39 175.924 1721.49L181.619 1734.65C181.687 1734.82 181.744 1735 181.789 1735.18C181.846 1735.35 181.897 1735.52 181.942 1735.7C181.999 1735.52 182.056 1735.35 182.112 1735.18C182.18 1735 182.248 1734.82 182.316 1734.65L187.943 1721.49C188 1721.37 188.079 1721.27 188.181 1721.2C188.283 1721.12 188.397 1721.08 188.521 1721.08H189.762ZM218.374 1723.35C218.317 1723.4 218.261 1723.45 218.204 1723.5C218.159 1723.53 218.091 1723.55 218 1723.55C217.887 1723.55 217.734 1723.48 217.541 1723.33C217.348 1723.17 217.088 1723 216.759 1722.82C216.43 1722.64 216.017 1722.47 215.518 1722.33C215.031 1722.17 214.436 1722.09 213.733 1722.09C212.758 1722.09 211.891 1722.26 211.132 1722.61C210.384 1722.95 209.749 1723.45 209.228 1724.09C208.707 1724.74 208.31 1725.52 208.038 1726.44C207.777 1727.36 207.647 1728.39 207.647 1729.53C207.647 1730.72 207.783 1731.78 208.055 1732.7C208.338 1733.61 208.735 1734.39 209.245 1735.02C209.755 1735.65 210.373 1736.12 211.098 1736.45C211.823 1736.78 212.628 1736.95 213.512 1736.95C214.328 1736.95 215.008 1736.85 215.552 1736.66C216.107 1736.46 216.561 1736.25 216.912 1736.03C217.275 1735.8 217.558 1735.59 217.762 1735.4C217.966 1735.21 218.136 1735.11 218.272 1735.11C218.408 1735.11 218.521 1735.17 218.612 1735.28L219.037 1735.82C218.776 1736.16 218.448 1736.48 218.051 1736.78C217.654 1737.07 217.207 1737.33 216.708 1737.54C216.209 1737.76 215.665 1737.92 215.076 1738.03C214.498 1738.16 213.892 1738.22 213.257 1738.22C212.18 1738.22 211.194 1738.03 210.299 1737.64C209.415 1737.25 208.65 1736.68 208.004 1735.94C207.369 1735.19 206.871 1734.28 206.508 1733.21C206.157 1732.13 205.981 1730.91 205.981 1729.53C205.981 1728.24 206.151 1727.06 206.491 1726C206.831 1724.93 207.33 1724.01 207.987 1723.24C208.644 1722.47 209.443 1721.88 210.384 1721.46C211.336 1721.03 212.424 1720.81 213.648 1720.81C214.747 1720.81 215.722 1720.99 216.572 1721.34C217.422 1721.69 218.164 1722.17 218.799 1722.77L218.374 1723.35ZM227.305 1725.16C227.566 1724.47 227.861 1723.86 228.189 1723.33C228.529 1722.78 228.915 1722.33 229.345 1721.95C229.787 1721.58 230.275 1721.29 230.807 1721.1C231.351 1720.9 231.952 1720.8 232.609 1720.8C232.961 1720.8 233.306 1720.83 233.646 1720.9C233.986 1720.95 234.287 1721.06 234.547 1721.22L234.411 1722.34C234.355 1722.52 234.247 1722.61 234.088 1722.61C233.952 1722.61 233.743 1722.58 233.459 1722.5C233.187 1722.42 232.825 1722.38 232.371 1722.38C231.714 1722.38 231.13 1722.48 230.62 1722.68C230.122 1722.88 229.668 1723.17 229.26 1723.57C228.864 1723.96 228.512 1724.46 228.206 1725.05C227.912 1725.62 227.64 1726.29 227.39 1727.05V1738H225.758V1721.08H226.625C226.818 1721.08 226.954 1721.12 227.033 1721.2C227.113 1721.28 227.164 1721.42 227.186 1721.61L227.305 1725.16ZM251.401 1727.83C251.401 1726.93 251.271 1726.12 251.01 1725.4C250.761 1724.68 250.404 1724.07 249.939 1723.57C249.474 1723.07 248.919 1722.69 248.273 1722.43C247.638 1722.16 246.936 1722.02 246.165 1722.02C245.292 1722.02 244.51 1722.16 243.819 1722.43C243.128 1722.7 242.527 1723.09 242.017 1723.6C241.518 1724.11 241.116 1724.72 240.81 1725.44C240.504 1726.15 240.3 1726.95 240.198 1727.83H251.401ZM240.113 1728.87V1729.19C240.113 1730.46 240.26 1731.58 240.555 1732.54C240.85 1733.51 241.269 1734.32 241.813 1734.97C242.357 1735.62 243.014 1736.11 243.785 1736.44C244.556 1736.76 245.417 1736.93 246.369 1736.93C247.219 1736.93 247.956 1736.84 248.579 1736.66C249.202 1736.46 249.724 1736.25 250.143 1736.03C250.574 1735.79 250.914 1735.58 251.163 1735.4C251.412 1735.21 251.594 1735.11 251.707 1735.11C251.854 1735.11 251.968 1735.17 252.047 1735.28L252.489 1735.82C252.217 1736.16 251.854 1736.48 251.401 1736.78C250.959 1737.07 250.46 1737.33 249.905 1737.54C249.361 1737.74 248.772 1737.91 248.137 1738.03C247.514 1738.16 246.885 1738.22 246.25 1738.22C245.094 1738.22 244.04 1738.02 243.088 1737.63C242.136 1737.22 241.32 1736.63 240.64 1735.86C239.96 1735.09 239.433 1734.15 239.059 1733.04C238.696 1731.91 238.515 1730.63 238.515 1729.19C238.515 1727.98 238.685 1726.86 239.025 1725.84C239.376 1724.81 239.875 1723.93 240.521 1723.19C241.178 1722.44 241.977 1721.86 242.918 1721.44C243.87 1721.02 244.947 1720.81 246.148 1720.81C247.1 1720.81 247.984 1720.98 248.8 1721.31C249.616 1721.63 250.324 1722.12 250.925 1722.75C251.526 1723.37 251.996 1724.14 252.336 1725.06C252.687 1725.98 252.863 1727.03 252.863 1728.22C252.863 1728.47 252.829 1728.64 252.761 1728.73C252.693 1728.83 252.58 1728.87 252.421 1728.87H240.113ZM269.454 1729.82C267.845 1729.88 266.457 1730.01 265.289 1730.21C264.133 1730.41 263.176 1730.67 262.416 1731.01C261.668 1731.35 261.113 1731.76 260.75 1732.24C260.388 1732.7 260.206 1733.23 260.206 1733.83C260.206 1734.4 260.297 1734.89 260.478 1735.31C260.671 1735.72 260.92 1736.06 261.226 1736.33C261.544 1736.59 261.906 1736.79 262.314 1736.91C262.722 1737.04 263.147 1737.1 263.589 1737.1C264.247 1737.1 264.847 1737.03 265.391 1736.89C265.947 1736.75 266.457 1736.55 266.921 1736.3C267.397 1736.04 267.839 1735.73 268.247 1735.38C268.655 1735.03 269.058 1734.65 269.454 1734.24V1729.82ZM259.509 1723.48C260.393 1722.6 261.323 1721.93 262.297 1721.48C263.272 1721.02 264.377 1720.8 265.612 1720.8C266.519 1720.8 267.312 1720.94 267.992 1721.24C268.672 1721.52 269.233 1721.93 269.675 1722.48C270.129 1723.01 270.469 1723.66 270.695 1724.43C270.922 1725.19 271.035 1726.04 271.035 1726.98V1738H270.389C270.049 1738 269.84 1737.84 269.76 1737.52L269.522 1735.35C269.058 1735.8 268.593 1736.21 268.128 1736.57C267.675 1736.93 267.199 1737.24 266.7 1737.49C266.202 1737.74 265.663 1737.93 265.085 1738.07C264.507 1738.2 263.873 1738.27 263.181 1738.27C262.603 1738.27 262.042 1738.19 261.498 1738.02C260.954 1737.85 260.467 1737.59 260.036 1737.23C259.617 1736.88 259.277 1736.44 259.016 1735.89C258.767 1735.34 258.642 1734.67 258.642 1733.9C258.642 1733.19 258.846 1732.53 259.254 1731.91C259.662 1731.3 260.303 1730.77 261.175 1730.32C262.048 1729.86 263.164 1729.5 264.524 1729.23C265.896 1728.96 267.539 1728.8 269.454 1728.75V1726.98C269.454 1725.42 269.114 1724.22 268.434 1723.38C267.766 1722.53 266.768 1722.1 265.442 1722.1C264.626 1722.1 263.929 1722.22 263.351 1722.44C262.785 1722.67 262.303 1722.92 261.906 1723.19C261.51 1723.46 261.187 1723.71 260.937 1723.94C260.688 1724.17 260.478 1724.28 260.308 1724.28C260.184 1724.28 260.082 1724.25 260.002 1724.2C259.923 1724.14 259.855 1724.07 259.798 1723.97L259.509 1723.48ZM293.017 1738H291.385V1722.82H281.593V1734.29C281.593 1734.76 281.65 1735.16 281.763 1735.5C281.888 1735.83 282.052 1736.1 282.256 1736.32C282.471 1736.53 282.721 1736.69 283.004 1736.79C283.287 1736.89 283.593 1736.95 283.922 1736.95C284.33 1736.95 284.681 1736.89 284.976 1736.78C285.271 1736.65 285.526 1736.52 285.741 1736.38C285.956 1736.24 286.132 1736.11 286.268 1735.99C286.404 1735.87 286.512 1735.81 286.591 1735.81C286.682 1735.81 286.772 1735.86 286.863 1735.98L287.305 1736.69C286.874 1737.17 286.325 1737.55 285.656 1737.85C284.999 1738.13 284.313 1738.27 283.599 1738.27C282.454 1738.27 281.559 1737.95 280.913 1737.32C280.278 1736.69 279.961 1735.7 279.961 1734.38V1722.82H277.53C277.405 1722.82 277.303 1722.78 277.224 1722.72C277.145 1722.65 277.105 1722.55 277.105 1722.43V1721.8L279.995 1721.59L280.403 1715.54C280.426 1715.44 280.471 1715.35 280.539 1715.27C280.607 1715.19 280.703 1715.15 280.828 1715.15H281.593V1721.61H293.017V1738ZM293.765 1715.05C293.765 1715.25 293.72 1715.45 293.629 1715.63C293.55 1715.8 293.436 1715.95 293.289 1716.09C293.153 1716.22 292.994 1716.33 292.813 1716.41C292.632 1716.49 292.439 1716.53 292.235 1716.53C292.031 1716.53 291.838 1716.49 291.657 1716.41C291.476 1716.33 291.317 1716.22 291.181 1716.09C291.045 1715.95 290.937 1715.8 290.858 1715.63C290.779 1715.45 290.739 1715.25 290.739 1715.05C290.739 1714.85 290.779 1714.65 290.858 1714.47C290.937 1714.28 291.045 1714.11 291.181 1713.98C291.317 1713.84 291.476 1713.74 291.657 1713.66C291.838 1713.58 292.031 1713.54 292.235 1713.54C292.439 1713.54 292.632 1713.58 292.813 1713.66C292.994 1713.74 293.153 1713.84 293.289 1713.98C293.436 1714.11 293.55 1714.28 293.629 1714.47C293.72 1714.65 293.765 1714.85 293.765 1715.05ZM303.031 1724.04C303.813 1723.07 304.714 1722.29 305.734 1721.7C306.765 1721.11 307.91 1720.81 309.168 1720.81C310.097 1720.81 310.913 1720.96 311.616 1721.25C312.33 1721.55 312.919 1721.97 313.384 1722.53C313.849 1723.09 314.2 1723.75 314.438 1724.54C314.676 1725.32 314.795 1726.2 314.795 1727.19V1738H313.163V1727.19C313.163 1725.6 312.8 1724.36 312.075 1723.46C311.35 1722.56 310.245 1722.1 308.76 1722.1C307.661 1722.1 306.629 1722.39 305.666 1722.95C304.714 1723.51 303.864 1724.29 303.116 1725.28V1738H301.484V1721.08H302.385C302.668 1721.08 302.833 1721.23 302.878 1721.51L303.031 1724.04ZM328.422 1730.52C329.148 1730.52 329.794 1730.42 330.36 1730.21C330.927 1730 331.403 1729.7 331.788 1729.33C332.174 1728.96 332.468 1728.51 332.672 1727.99C332.876 1727.47 332.978 1726.89 332.978 1726.25C332.978 1725.62 332.871 1725.04 332.655 1724.52C332.451 1723.99 332.151 1723.53 331.754 1723.16C331.369 1722.78 330.893 1722.5 330.326 1722.29C329.771 1722.09 329.136 1721.99 328.422 1721.99C327.708 1721.99 327.068 1722.09 326.501 1722.29C325.946 1722.5 325.47 1722.78 325.073 1723.16C324.688 1723.53 324.393 1723.99 324.189 1724.52C323.985 1725.04 323.883 1725.62 323.883 1726.25C323.883 1726.89 323.985 1727.47 324.189 1727.99C324.393 1728.51 324.688 1728.96 325.073 1729.33C325.47 1729.7 325.946 1730 326.501 1730.21C327.068 1730.42 327.708 1730.52 328.422 1730.52ZM334.746 1739.14C334.746 1738.61 334.605 1738.18 334.321 1737.86C334.049 1737.54 333.681 1737.28 333.216 1737.1C332.752 1736.92 332.213 1736.79 331.601 1736.72C331.001 1736.65 330.366 1736.59 329.697 1736.55C329.04 1736.52 328.377 1736.49 327.708 1736.45C327.04 1736.42 326.411 1736.35 325.821 1736.25C325.391 1736.42 324.994 1736.62 324.631 1736.84C324.269 1737.06 323.957 1737.31 323.696 1737.59C323.436 1737.88 323.232 1738.18 323.084 1738.51C322.937 1738.85 322.863 1739.21 322.863 1739.6C322.863 1740.1 322.988 1740.56 323.237 1740.98C323.498 1741.41 323.872 1741.77 324.359 1742.08C324.858 1742.4 325.464 1742.65 326.178 1742.83C326.892 1743.01 327.714 1743.1 328.643 1743.1C329.505 1743.1 330.304 1743 331.04 1742.81C331.788 1742.62 332.434 1742.35 332.978 1742C333.534 1741.64 333.964 1741.22 334.27 1740.74C334.588 1740.25 334.746 1739.72 334.746 1739.14ZM336.514 1721.83V1722.39C336.514 1722.64 336.356 1722.8 336.038 1722.85L333.454 1723.04C333.772 1723.47 334.015 1723.95 334.185 1724.48C334.355 1725.02 334.44 1725.6 334.44 1726.22C334.44 1727.03 334.293 1727.78 333.998 1728.45C333.715 1729.1 333.307 1729.67 332.774 1730.15C332.253 1730.61 331.618 1730.97 330.87 1731.23C330.134 1731.49 329.318 1731.62 328.422 1731.62C327.459 1731.62 326.581 1731.48 325.787 1731.18C325.311 1731.45 324.932 1731.78 324.648 1732.15C324.376 1732.51 324.24 1732.88 324.24 1733.24C324.24 1733.73 324.41 1734.1 324.75 1734.36C325.102 1734.62 325.555 1734.82 326.11 1734.94C326.677 1735.05 327.317 1735.13 328.031 1735.16C328.757 1735.19 329.493 1735.23 330.241 1735.28C330.989 1735.31 331.72 1735.38 332.434 1735.48C333.16 1735.59 333.8 1735.77 334.355 1736.03C334.922 1736.28 335.375 1736.63 335.715 1737.1C336.067 1737.55 336.242 1738.16 336.242 1738.92C336.242 1739.62 336.067 1740.3 335.715 1740.94C335.364 1741.59 334.854 1742.16 334.185 1742.66C333.528 1743.16 332.729 1743.55 331.788 1743.85C330.848 1744.15 329.794 1744.31 328.626 1744.31C327.436 1744.31 326.394 1744.18 325.498 1743.93C324.603 1743.7 323.849 1743.37 323.237 1742.95C322.637 1742.54 322.183 1742.06 321.877 1741.52C321.571 1740.98 321.418 1740.4 321.418 1739.79C321.418 1738.89 321.713 1738.12 322.302 1737.49C322.892 1736.84 323.696 1736.34 324.716 1735.98C324.15 1735.78 323.691 1735.51 323.339 1735.14C322.999 1734.77 322.829 1734.27 322.829 1733.63C322.829 1733.39 322.875 1733.14 322.965 1732.88C323.056 1732.62 323.192 1732.37 323.373 1732.12C323.555 1731.86 323.776 1731.61 324.036 1731.39C324.297 1731.16 324.592 1730.96 324.92 1730.77C324.116 1730.31 323.487 1729.69 323.033 1728.92C322.591 1728.15 322.37 1727.25 322.37 1726.22C322.37 1725.4 322.512 1724.67 322.795 1724.01C323.09 1723.34 323.504 1722.77 324.036 1722.29C324.569 1721.82 325.204 1721.45 325.94 1721.19C326.688 1720.93 327.516 1720.8 328.422 1720.8C329.17 1720.8 329.856 1720.89 330.479 1721.07C331.114 1721.25 331.681 1721.5 332.179 1721.83H336.514ZM356.735 1721.08V1738H355.12V1721.08H356.735ZM357.432 1715.25C357.432 1715.46 357.387 1715.65 357.296 1715.83C357.217 1716 357.109 1716.15 356.973 1716.29C356.837 1716.43 356.678 1716.53 356.497 1716.61C356.316 1716.69 356.123 1716.73 355.919 1716.73C355.715 1716.73 355.522 1716.69 355.341 1716.61C355.16 1716.53 355.001 1716.43 354.865 1716.29C354.729 1716.15 354.621 1716 354.542 1715.83C354.463 1715.65 354.423 1715.46 354.423 1715.25C354.423 1715.05 354.463 1714.86 354.542 1714.68C354.621 1714.48 354.729 1714.32 354.865 1714.18C355.001 1714.05 355.16 1713.94 355.341 1713.86C355.522 1713.78 355.715 1713.74 355.919 1713.74C356.123 1713.74 356.316 1713.78 356.497 1713.86C356.678 1713.94 356.837 1714.05 356.973 1714.18C357.109 1714.32 357.217 1714.48 357.296 1714.68C357.387 1714.86 357.432 1715.05 357.432 1715.25ZM366.77 1724.04C367.552 1723.07 368.453 1722.29 369.473 1721.7C370.505 1721.11 371.649 1720.81 372.907 1720.81C373.837 1720.81 374.653 1720.96 375.355 1721.25C376.069 1721.55 376.659 1721.97 377.123 1722.53C377.588 1723.09 377.939 1723.75 378.177 1724.54C378.415 1725.32 378.534 1726.2 378.534 1727.19V1738H376.902V1727.19C376.902 1725.6 376.54 1724.36 375.814 1723.46C375.089 1722.56 373.984 1722.1 372.499 1722.1C371.4 1722.1 370.369 1722.39 369.405 1722.95C368.453 1723.51 367.603 1724.29 366.855 1725.28V1738H365.223V1721.08H366.124C366.408 1721.08 366.572 1721.23 366.617 1721.51L366.77 1724.04ZM391.028 1738.27C389.884 1738.27 388.988 1737.95 388.342 1737.32C387.708 1736.69 387.39 1735.7 387.39 1734.38V1722.82H384.959C384.835 1722.82 384.733 1722.78 384.653 1722.72C384.574 1722.65 384.534 1722.55 384.534 1722.43V1721.8L387.424 1721.59L387.832 1715.54C387.855 1715.44 387.9 1715.35 387.968 1715.27C388.036 1715.19 388.133 1715.15 388.257 1715.15H389.022V1721.61H394.36V1722.82H389.022V1734.29C389.022 1734.76 389.079 1735.16 389.192 1735.5C389.317 1735.83 389.481 1736.1 389.685 1736.32C389.901 1736.53 390.15 1736.69 390.433 1736.79C390.717 1736.89 391.023 1736.95 391.351 1736.95C391.759 1736.95 392.111 1736.89 392.405 1736.78C392.7 1736.65 392.955 1736.52 393.17 1736.38C393.386 1736.24 393.561 1736.11 393.697 1735.99C393.833 1735.87 393.941 1735.81 394.02 1735.81C394.111 1735.81 394.202 1735.86 394.292 1735.98L394.734 1736.69C394.304 1737.17 393.754 1737.55 393.085 1737.85C392.428 1738.13 391.742 1738.27 391.028 1738.27ZM413.903 1721.08V1738H413.002C412.718 1738 412.554 1737.85 412.509 1737.56L412.356 1735.04C411.574 1736.02 410.667 1736.8 409.636 1737.39C408.616 1737.98 407.477 1738.27 406.219 1738.27C405.278 1738.27 404.456 1738.12 403.754 1737.83C403.051 1737.54 402.467 1737.11 402.003 1736.55C401.538 1736 401.187 1735.33 400.949 1734.55C400.711 1733.77 400.592 1732.88 400.592 1731.9V1721.08H402.224V1731.9C402.224 1733.48 402.586 1734.73 403.312 1735.64C404.037 1736.53 405.142 1736.98 406.627 1736.98C407.726 1736.98 408.752 1736.7 409.704 1736.15C410.667 1735.58 411.523 1734.8 412.271 1733.8V1721.08H413.903ZM423.994 1721.08V1738H422.379V1721.08H423.994ZM424.691 1715.25C424.691 1715.46 424.646 1715.65 424.555 1715.83C424.476 1716 424.368 1716.15 424.232 1716.29C424.096 1716.43 423.937 1716.53 423.756 1716.61C423.575 1716.69 423.382 1716.73 423.178 1716.73C422.974 1716.73 422.781 1716.69 422.6 1716.61C422.419 1716.53 422.26 1716.43 422.124 1716.29C421.988 1716.15 421.88 1716 421.801 1715.83C421.722 1715.65 421.682 1715.46 421.682 1715.25C421.682 1715.05 421.722 1714.86 421.801 1714.68C421.88 1714.48 421.988 1714.32 422.124 1714.18C422.26 1714.05 422.419 1713.94 422.6 1713.86C422.781 1713.78 422.974 1713.74 423.178 1713.74C423.382 1713.74 423.575 1713.78 423.756 1713.86C423.937 1713.94 424.096 1714.05 424.232 1714.18C424.368 1714.32 424.476 1714.48 424.555 1714.68C424.646 1714.86 424.691 1715.05 424.691 1715.25ZM446.524 1738H444.892V1722.82H435.1V1734.29C435.1 1734.76 435.157 1735.16 435.27 1735.5C435.395 1735.83 435.559 1736.1 435.763 1736.32C435.979 1736.53 436.228 1736.69 436.511 1736.79C436.795 1736.89 437.101 1736.95 437.429 1736.95C437.837 1736.95 438.189 1736.89 438.483 1736.78C438.778 1736.65 439.033 1736.52 439.248 1736.38C439.464 1736.24 439.639 1736.11 439.775 1735.99C439.911 1735.87 440.019 1735.81 440.098 1735.81C440.189 1735.81 440.28 1735.86 440.37 1735.98L440.812 1736.69C440.382 1737.17 439.832 1737.55 439.163 1737.85C438.506 1738.13 437.82 1738.27 437.106 1738.27C435.962 1738.27 435.066 1737.95 434.42 1737.32C433.786 1736.69 433.468 1735.7 433.468 1734.38V1722.82H431.037C430.913 1722.82 430.811 1722.78 430.731 1722.72C430.652 1722.65 430.612 1722.55 430.612 1722.43V1721.8L433.502 1721.59L433.91 1715.54C433.933 1715.44 433.978 1715.35 434.046 1715.27C434.114 1715.19 434.211 1715.15 434.335 1715.15H435.1V1721.61H446.524V1738ZM447.272 1715.05C447.272 1715.25 447.227 1715.45 447.136 1715.63C447.057 1715.8 446.944 1715.95 446.796 1716.09C446.66 1716.22 446.502 1716.33 446.32 1716.41C446.139 1716.49 445.946 1716.53 445.742 1716.53C445.538 1716.53 445.346 1716.49 445.164 1716.41C444.983 1716.33 444.824 1716.22 444.688 1716.09C444.552 1715.95 444.445 1715.8 444.365 1715.63C444.286 1715.45 444.246 1715.25 444.246 1715.05C444.246 1714.85 444.286 1714.65 444.365 1714.47C444.445 1714.28 444.552 1714.11 444.688 1713.98C444.824 1713.84 444.983 1713.74 445.164 1713.66C445.346 1713.58 445.538 1713.54 445.742 1713.54C445.946 1713.54 446.139 1713.58 446.32 1713.66C446.502 1713.74 446.66 1713.84 446.796 1713.98C446.944 1714.11 447.057 1714.28 447.136 1714.47C447.227 1714.65 447.272 1714.85 447.272 1715.05ZM468.574 1721.08L461.434 1738H460.006L452.866 1721.08H454.141C454.3 1721.08 454.43 1721.13 454.532 1721.22C454.634 1721.3 454.702 1721.39 454.736 1721.49L460.329 1734.84C460.499 1735.34 460.635 1735.83 460.737 1736.32C460.839 1735.83 460.981 1735.34 461.162 1734.84L466.772 1721.49C466.829 1721.37 466.903 1721.27 466.993 1721.2C467.095 1721.12 467.214 1721.08 467.35 1721.08H468.574ZM486.245 1727.83C486.245 1726.93 486.115 1726.12 485.854 1725.4C485.605 1724.68 485.248 1724.07 484.783 1723.57C484.319 1723.07 483.763 1722.69 483.117 1722.43C482.483 1722.16 481.78 1722.02 481.009 1722.02C480.137 1722.02 479.355 1722.16 478.663 1722.43C477.972 1722.7 477.371 1723.09 476.861 1723.6C476.363 1724.11 475.96 1724.72 475.654 1725.44C475.348 1726.15 475.144 1726.95 475.042 1727.83H486.245ZM474.957 1728.87V1729.19C474.957 1730.46 475.105 1731.58 475.399 1732.54C475.694 1733.51 476.113 1734.32 476.657 1734.97C477.201 1735.62 477.859 1736.11 478.629 1736.44C479.4 1736.76 480.261 1736.93 481.213 1736.93C482.063 1736.93 482.8 1736.84 483.423 1736.66C484.047 1736.46 484.568 1736.25 484.987 1736.03C485.418 1735.79 485.758 1735.58 486.007 1735.4C486.257 1735.21 486.438 1735.11 486.551 1735.11C486.699 1735.11 486.812 1735.17 486.891 1735.28L487.333 1735.82C487.061 1736.16 486.699 1736.48 486.245 1736.78C485.803 1737.07 485.305 1737.33 484.749 1737.54C484.205 1737.74 483.616 1737.91 482.981 1738.03C482.358 1738.16 481.729 1738.22 481.094 1738.22C479.938 1738.22 478.884 1738.02 477.932 1737.63C476.98 1737.22 476.164 1736.63 475.484 1735.86C474.804 1735.09 474.277 1734.15 473.903 1733.04C473.541 1731.91 473.359 1730.63 473.359 1729.19C473.359 1727.98 473.529 1726.86 473.869 1725.84C474.221 1724.81 474.719 1723.93 475.365 1723.19C476.023 1722.44 476.822 1721.86 477.762 1721.44C478.714 1721.02 479.791 1720.81 480.992 1720.81C481.944 1720.81 482.828 1720.98 483.644 1721.31C484.46 1721.63 485.169 1722.12 485.769 1722.75C486.37 1723.37 486.84 1724.14 487.18 1725.06C487.532 1725.98 487.707 1727.03 487.707 1728.22C487.707 1728.47 487.673 1728.64 487.605 1728.73C487.537 1728.83 487.424 1728.87 487.265 1728.87H474.957ZM519.904 1721.08V1738H519.003C518.72 1738 518.556 1737.85 518.51 1737.56L518.357 1735.04C517.575 1736.02 516.669 1736.8 515.637 1737.39C514.617 1737.98 513.478 1738.27 512.22 1738.27C511.28 1738.27 510.458 1738.12 509.755 1737.83C509.053 1737.54 508.469 1737.11 508.004 1736.55C507.54 1736 507.188 1735.33 506.95 1734.55C506.712 1733.77 506.593 1732.88 506.593 1731.9V1721.08H508.225V1731.9C508.225 1733.48 508.588 1734.73 509.313 1735.64C510.039 1736.53 511.144 1736.98 512.628 1736.98C513.728 1736.98 514.753 1736.7 515.705 1736.15C516.669 1735.58 517.524 1734.8 518.272 1733.8V1721.08H519.904ZM537.493 1723.18C537.402 1723.33 537.272 1723.41 537.102 1723.41C536.977 1723.41 536.818 1723.35 536.626 1723.21C536.433 1723.06 536.172 1722.9 535.844 1722.73C535.526 1722.55 535.13 1722.39 534.654 1722.26C534.178 1722.11 533.6 1722.04 532.92 1722.04C532.308 1722.04 531.747 1722.13 531.237 1722.31C530.738 1722.48 530.307 1722.71 529.945 1723.01C529.593 1723.3 529.321 1723.65 529.129 1724.04C528.936 1724.43 528.84 1724.84 528.84 1725.27C528.84 1725.8 528.976 1726.24 529.248 1726.59C529.52 1726.94 529.871 1727.24 530.302 1727.49C530.744 1727.74 531.248 1727.96 531.815 1728.14C532.381 1728.32 532.954 1728.5 533.532 1728.68C534.121 1728.87 534.699 1729.07 535.266 1729.3C535.832 1729.51 536.331 1729.78 536.762 1730.11C537.204 1730.44 537.561 1730.84 537.833 1731.32C538.105 1731.79 538.241 1732.37 538.241 1733.05C538.241 1733.79 538.11 1734.48 537.85 1735.11C537.589 1735.74 537.204 1736.29 536.694 1736.76C536.195 1737.22 535.577 1737.59 534.841 1737.86C534.104 1738.14 533.26 1738.27 532.308 1738.27C531.118 1738.27 530.092 1738.09 529.231 1737.71C528.369 1737.33 527.599 1736.83 526.919 1736.21L527.293 1735.64C527.349 1735.55 527.412 1735.48 527.48 1735.43C527.559 1735.39 527.661 1735.36 527.786 1735.36C527.933 1735.36 528.109 1735.46 528.313 1735.64C528.528 1735.82 528.811 1736.02 529.163 1736.23C529.514 1736.44 529.945 1736.63 530.455 1736.81C530.976 1736.99 531.616 1737.08 532.376 1737.08C533.09 1737.08 533.719 1736.99 534.263 1736.79C534.807 1736.59 535.26 1736.32 535.623 1735.98C535.985 1735.64 536.257 1735.24 536.439 1734.79C536.631 1734.32 536.728 1733.83 536.728 1733.32C536.728 1732.76 536.592 1732.29 536.32 1731.91C536.048 1731.54 535.691 1731.22 535.249 1730.96C534.807 1730.7 534.302 1730.48 533.736 1730.3C533.18 1730.12 532.608 1729.94 532.019 1729.75C531.429 1729.57 530.851 1729.38 530.285 1729.16C529.729 1728.94 529.231 1728.67 528.789 1728.34C528.347 1728.02 527.99 1727.62 527.718 1727.15C527.446 1726.68 527.31 1726.09 527.31 1725.39C527.31 1724.79 527.44 1724.21 527.701 1723.65C527.961 1723.1 528.33 1722.61 528.806 1722.19C529.293 1721.77 529.882 1721.44 530.574 1721.19C531.265 1720.94 532.041 1720.81 532.903 1720.81C533.934 1720.81 534.846 1720.96 535.64 1721.25C536.444 1721.55 537.175 1722 537.833 1722.61L537.493 1723.18ZM557.223 1727.83C557.223 1726.93 557.093 1726.12 556.832 1725.4C556.583 1724.68 556.226 1724.07 555.761 1723.57C555.296 1723.07 554.741 1722.69 554.095 1722.43C553.46 1722.16 552.758 1722.02 551.987 1722.02C551.114 1722.02 550.332 1722.16 549.641 1722.43C548.95 1722.7 548.349 1723.09 547.839 1723.6C547.34 1724.11 546.938 1724.72 546.632 1725.44C546.326 1726.15 546.122 1726.95 546.02 1727.83H557.223ZM545.935 1728.87V1729.19C545.935 1730.46 546.082 1731.58 546.377 1732.54C546.672 1733.51 547.091 1734.32 547.635 1734.97C548.179 1735.62 548.836 1736.11 549.607 1736.44C550.378 1736.76 551.239 1736.93 552.191 1736.93C553.041 1736.93 553.778 1736.84 554.401 1736.66C555.024 1736.46 555.546 1736.25 555.965 1736.03C556.396 1735.79 556.736 1735.58 556.985 1735.4C557.234 1735.21 557.416 1735.11 557.529 1735.11C557.676 1735.11 557.79 1735.17 557.869 1735.28L558.311 1735.82C558.039 1736.16 557.676 1736.48 557.223 1736.78C556.781 1737.07 556.282 1737.33 555.727 1737.54C555.183 1737.74 554.594 1737.91 553.959 1738.03C553.336 1738.16 552.707 1738.22 552.072 1738.22C550.916 1738.22 549.862 1738.02 548.91 1737.63C547.958 1737.22 547.142 1736.63 546.462 1735.86C545.782 1735.09 545.255 1734.15 544.881 1733.04C544.518 1731.91 544.337 1730.63 544.337 1729.19C544.337 1727.98 544.507 1726.86 544.847 1725.84C545.198 1724.81 545.697 1723.93 546.343 1723.19C547 1722.44 547.799 1721.86 548.74 1721.44C549.692 1721.02 550.769 1720.81 551.97 1720.81C552.922 1720.81 553.806 1720.98 554.622 1721.31C555.438 1721.63 556.146 1722.12 556.747 1722.75C557.348 1723.37 557.818 1724.14 558.158 1725.06C558.509 1725.98 558.685 1727.03 558.685 1728.22C558.685 1728.47 558.651 1728.64 558.583 1728.73C558.515 1728.83 558.402 1728.87 558.243 1728.87H545.935ZM567.354 1725.16C567.615 1724.47 567.91 1723.86 568.238 1723.33C568.578 1722.78 568.964 1722.33 569.394 1721.95C569.836 1721.58 570.324 1721.29 570.856 1721.1C571.4 1720.9 572.001 1720.8 572.658 1720.8C573.01 1720.8 573.355 1720.83 573.695 1720.9C574.035 1720.95 574.336 1721.06 574.596 1721.22L574.46 1722.34C574.404 1722.52 574.296 1722.61 574.137 1722.61C574.001 1722.61 573.792 1722.58 573.508 1722.5C573.236 1722.42 572.874 1722.38 572.42 1722.38C571.763 1722.38 571.179 1722.48 570.669 1722.68C570.171 1722.88 569.717 1723.17 569.309 1723.57C568.913 1723.96 568.561 1724.46 568.255 1725.05C567.961 1725.62 567.689 1726.29 567.439 1727.05V1738H565.807V1721.08H566.674C566.867 1721.08 567.003 1721.12 567.082 1721.2C567.162 1721.28 567.213 1721.42 567.235 1721.61L567.354 1725.16ZM593.569 1721.08V1738H591.954V1721.08H593.569ZM594.266 1715.25C594.266 1715.46 594.221 1715.65 594.13 1715.83C594.051 1716 593.943 1716.15 593.807 1716.29C593.671 1716.43 593.512 1716.53 593.331 1716.61C593.15 1716.69 592.957 1716.73 592.753 1716.73C592.549 1716.73 592.356 1716.69 592.175 1716.61C591.994 1716.53 591.835 1716.43 591.699 1716.29C591.563 1716.15 591.455 1716 591.376 1715.83C591.297 1715.65 591.257 1715.46 591.257 1715.25C591.257 1715.05 591.297 1714.86 591.376 1714.68C591.455 1714.48 591.563 1714.32 591.699 1714.18C591.835 1714.05 591.994 1713.94 592.175 1713.86C592.356 1713.78 592.549 1713.74 592.753 1713.74C592.957 1713.74 593.15 1713.78 593.331 1713.86C593.512 1713.94 593.671 1714.05 593.807 1714.18C593.943 1714.32 594.051 1714.48 594.13 1714.68C594.221 1714.86 594.266 1715.05 594.266 1715.25ZM603.604 1724.04C604.386 1723.07 605.287 1722.29 606.307 1721.7C607.339 1721.11 608.483 1720.81 609.741 1720.81C610.671 1720.81 611.487 1720.96 612.189 1721.25C612.903 1721.55 613.493 1721.97 613.957 1722.53C614.422 1723.09 614.773 1723.75 615.011 1724.54C615.249 1725.32 615.368 1726.2 615.368 1727.19V1738H613.736V1727.19C613.736 1725.6 613.374 1724.36 612.648 1723.46C611.923 1722.56 610.818 1722.1 609.333 1722.1C608.234 1722.1 607.203 1722.39 606.239 1722.95C605.287 1723.51 604.437 1724.29 603.689 1725.28V1738H602.057V1721.08H602.958C603.242 1721.08 603.406 1721.23 603.451 1721.51L603.604 1724.04ZM627.862 1738.27C626.718 1738.27 625.822 1737.95 625.176 1737.32C624.542 1736.69 624.224 1735.7 624.224 1734.38V1722.82H621.793C621.669 1722.82 621.567 1722.78 621.487 1722.72C621.408 1722.65 621.368 1722.55 621.368 1722.43V1721.8L624.258 1721.59L624.666 1715.54C624.689 1715.44 624.734 1715.35 624.802 1715.27C624.87 1715.19 624.967 1715.15 625.091 1715.15H625.856V1721.61H631.194V1722.82H625.856V1734.29C625.856 1734.76 625.913 1735.16 626.026 1735.5C626.151 1735.83 626.315 1736.1 626.519 1736.32C626.735 1736.53 626.984 1736.69 627.267 1736.79C627.551 1736.89 627.857 1736.95 628.185 1736.95C628.593 1736.95 628.945 1736.89 629.239 1736.78C629.534 1736.65 629.789 1736.52 630.004 1736.38C630.22 1736.24 630.395 1736.11 630.531 1735.99C630.667 1735.87 630.775 1735.81 630.854 1735.81C630.945 1735.81 631.036 1735.86 631.126 1735.98L631.568 1736.69C631.138 1737.17 630.588 1737.55 629.919 1737.85C629.262 1738.13 628.576 1738.27 627.862 1738.27ZM649.412 1727.83C649.412 1726.93 649.282 1726.12 649.021 1725.4C648.772 1724.68 648.415 1724.07 647.95 1723.57C647.485 1723.07 646.93 1722.69 646.284 1722.43C645.649 1722.16 644.947 1722.02 644.176 1722.02C643.303 1722.02 642.521 1722.16 641.83 1722.43C641.139 1722.7 640.538 1723.09 640.028 1723.6C639.529 1724.11 639.127 1724.72 638.821 1725.44C638.515 1726.15 638.311 1726.95 638.209 1727.83H649.412ZM638.124 1728.87V1729.19C638.124 1730.46 638.271 1731.58 638.566 1732.54C638.861 1733.51 639.28 1734.32 639.824 1734.97C640.368 1735.62 641.025 1736.11 641.796 1736.44C642.567 1736.76 643.428 1736.93 644.38 1736.93C645.23 1736.93 645.967 1736.84 646.59 1736.66C647.213 1736.46 647.735 1736.25 648.154 1736.03C648.585 1735.79 648.925 1735.58 649.174 1735.4C649.423 1735.21 649.605 1735.11 649.718 1735.11C649.865 1735.11 649.979 1735.17 650.058 1735.28L650.5 1735.82C650.228 1736.16 649.865 1736.48 649.412 1736.78C648.97 1737.07 648.471 1737.33 647.916 1737.54C647.372 1737.74 646.783 1737.91 646.148 1738.03C645.525 1738.16 644.896 1738.22 644.261 1738.22C643.105 1738.22 642.051 1738.02 641.099 1737.63C640.147 1737.22 639.331 1736.63 638.651 1735.86C637.971 1735.09 637.444 1734.15 637.07 1733.04C636.707 1731.91 636.526 1730.63 636.526 1729.19C636.526 1727.98 636.696 1726.86 637.036 1725.84C637.387 1724.81 637.886 1723.93 638.532 1723.19C639.189 1722.44 639.988 1721.86 640.929 1721.44C641.881 1721.02 642.958 1720.81 644.159 1720.81C645.111 1720.81 645.995 1720.98 646.811 1721.31C647.627 1721.63 648.335 1722.12 648.936 1722.75C649.537 1723.37 650.007 1724.14 650.347 1725.06C650.698 1725.98 650.874 1727.03 650.874 1728.22C650.874 1728.47 650.84 1728.64 650.772 1728.73C650.704 1728.83 650.591 1728.87 650.432 1728.87H638.124ZM659.543 1725.16C659.804 1724.47 660.099 1723.86 660.427 1723.33C660.767 1722.78 661.153 1722.33 661.583 1721.95C662.025 1721.58 662.513 1721.29 663.045 1721.1C663.589 1720.9 664.19 1720.8 664.847 1720.8C665.199 1720.8 665.544 1720.83 665.884 1720.9C666.224 1720.95 666.525 1721.06 666.785 1721.22L666.649 1722.34C666.593 1722.52 666.485 1722.61 666.326 1722.61C666.19 1722.61 665.981 1722.58 665.697 1722.5C665.425 1722.42 665.063 1722.38 664.609 1722.38C663.952 1722.38 663.368 1722.48 662.858 1722.68C662.36 1722.88 661.906 1723.17 661.498 1723.57C661.102 1723.96 660.75 1724.46 660.444 1725.05C660.15 1725.62 659.878 1726.29 659.628 1727.05V1738H657.996V1721.08H658.863C659.056 1721.08 659.192 1721.12 659.271 1721.2C659.351 1721.28 659.402 1721.42 659.424 1721.61L659.543 1725.16ZM673.739 1738V1722.85L671.359 1722.7C671.042 1722.67 670.883 1722.52 670.883 1722.27V1721.61H673.739V1719.47C673.739 1718.51 673.864 1717.66 674.113 1716.94C674.362 1716.2 674.714 1715.59 675.167 1715.1C675.62 1714.61 676.164 1714.25 676.799 1714.01C677.434 1713.76 678.136 1713.64 678.907 1713.64C679.258 1713.64 679.61 1713.67 679.961 1713.74C680.324 1713.8 680.647 1713.88 680.93 1714L680.879 1714.78C680.856 1714.88 680.805 1714.95 680.726 1714.98C680.658 1715 680.556 1715.02 680.42 1715.02C680.284 1715 680.108 1714.99 679.893 1714.96C679.678 1714.93 679.428 1714.91 679.145 1714.91C678.59 1714.91 678.074 1715 677.598 1715.17C677.133 1715.33 676.731 1715.59 676.391 1715.95C676.051 1716.31 675.785 1716.79 675.592 1717.38C675.411 1717.96 675.32 1718.67 675.32 1719.52V1721.61H680.811V1722.82H675.371V1738H673.739ZM696.347 1729.82C694.738 1729.88 693.349 1730.01 692.182 1730.21C691.026 1730.41 690.068 1730.67 689.309 1731.01C688.561 1731.35 688.006 1731.76 687.643 1732.24C687.28 1732.7 687.099 1733.23 687.099 1733.83C687.099 1734.4 687.19 1734.89 687.371 1735.31C687.564 1735.72 687.813 1736.06 688.119 1736.33C688.436 1736.59 688.799 1736.79 689.207 1736.91C689.615 1737.04 690.04 1737.1 690.482 1737.1C691.139 1737.1 691.74 1737.03 692.284 1736.89C692.839 1736.75 693.349 1736.55 693.814 1736.3C694.29 1736.04 694.732 1735.73 695.14 1735.38C695.548 1735.03 695.95 1734.65 696.347 1734.24V1729.82ZM686.402 1723.48C687.286 1722.6 688.215 1721.93 689.19 1721.48C690.165 1721.02 691.27 1720.8 692.505 1720.8C693.412 1720.8 694.205 1720.94 694.885 1721.24C695.565 1721.52 696.126 1721.93 696.568 1722.48C697.021 1723.01 697.361 1723.66 697.588 1724.43C697.815 1725.19 697.928 1726.04 697.928 1726.98V1738H697.282C696.942 1738 696.732 1737.84 696.653 1737.52L696.415 1735.35C695.95 1735.8 695.486 1736.21 695.021 1736.57C694.568 1736.93 694.092 1737.24 693.593 1737.49C693.094 1737.74 692.556 1737.93 691.978 1738.07C691.4 1738.2 690.765 1738.27 690.074 1738.27C689.496 1738.27 688.935 1738.19 688.391 1738.02C687.847 1737.85 687.36 1737.59 686.929 1737.23C686.51 1736.88 686.17 1736.44 685.909 1735.89C685.66 1735.34 685.535 1734.67 685.535 1733.9C685.535 1733.19 685.739 1732.53 686.147 1731.91C686.555 1731.3 687.195 1730.77 688.068 1730.32C688.941 1729.86 690.057 1729.5 691.417 1729.23C692.788 1728.96 694.432 1728.8 696.347 1728.75V1726.98C696.347 1725.42 696.007 1724.22 695.327 1723.38C694.658 1722.53 693.661 1722.1 692.335 1722.1C691.519 1722.1 690.822 1722.22 690.244 1722.44C689.677 1722.67 689.196 1722.92 688.799 1723.19C688.402 1723.46 688.079 1723.71 687.83 1723.94C687.581 1724.17 687.371 1724.28 687.201 1724.28C687.076 1724.28 686.974 1724.25 686.895 1724.2C686.816 1724.14 686.748 1724.07 686.691 1723.97L686.402 1723.48ZM717.44 1723.35C717.383 1723.4 717.326 1723.45 717.27 1723.5C717.224 1723.53 717.156 1723.55 717.066 1723.55C716.952 1723.55 716.799 1723.48 716.607 1723.33C716.414 1723.17 716.153 1723 715.825 1722.82C715.496 1722.64 715.082 1722.47 714.584 1722.33C714.096 1722.17 713.501 1722.09 712.799 1722.09C711.824 1722.09 710.957 1722.26 710.198 1722.61C709.45 1722.95 708.815 1723.45 708.294 1724.09C707.772 1724.74 707.376 1725.52 707.104 1726.44C706.843 1727.36 706.713 1728.39 706.713 1729.53C706.713 1730.72 706.849 1731.78 707.121 1732.7C707.404 1733.61 707.801 1734.39 708.311 1735.02C708.821 1735.65 709.438 1736.12 710.164 1736.45C710.889 1736.78 711.694 1736.95 712.578 1736.95C713.394 1736.95 714.074 1736.85 714.618 1736.66C715.173 1736.46 715.626 1736.25 715.978 1736.03C716.34 1735.8 716.624 1735.59 716.828 1735.4C717.032 1735.21 717.202 1735.11 717.338 1735.11C717.474 1735.11 717.587 1735.17 717.678 1735.28L718.103 1735.82C717.842 1736.16 717.513 1736.48 717.117 1736.78C716.72 1737.07 716.272 1737.33 715.774 1737.54C715.275 1737.76 714.731 1737.92 714.142 1738.03C713.564 1738.16 712.957 1738.22 712.323 1738.22C711.246 1738.22 710.26 1738.03 709.365 1737.64C708.481 1737.25 707.716 1736.68 707.07 1735.94C706.435 1735.19 705.936 1734.28 705.574 1733.21C705.222 1732.13 705.047 1730.91 705.047 1729.53C705.047 1728.24 705.217 1727.06 705.557 1726C705.897 1724.93 706.395 1724.01 707.053 1723.24C707.71 1722.47 708.509 1721.88 709.45 1721.46C710.402 1721.03 711.49 1720.81 712.714 1720.81C713.813 1720.81 714.788 1720.99 715.638 1721.34C716.488 1721.69 717.23 1722.17 717.865 1722.77L717.44 1723.35ZM736.358 1727.83C736.358 1726.93 736.227 1726.12 735.967 1725.4C735.717 1724.68 735.36 1724.07 734.896 1723.57C734.431 1723.07 733.876 1722.69 733.23 1722.43C732.595 1722.16 731.892 1722.02 731.122 1722.02C730.249 1722.02 729.467 1722.16 728.776 1722.43C728.084 1722.7 727.484 1723.09 726.974 1723.6C726.475 1724.11 726.073 1724.72 725.767 1725.44C725.461 1726.15 725.257 1726.95 725.155 1727.83H736.358ZM725.07 1728.87V1729.19C725.07 1730.46 725.217 1731.58 725.512 1732.54C725.806 1733.51 726.226 1734.32 726.77 1734.97C727.314 1735.62 727.971 1736.11 728.742 1736.44C729.512 1736.76 730.374 1736.93 731.326 1736.93C732.176 1736.93 732.912 1736.84 733.536 1736.66C734.159 1736.46 734.68 1736.25 735.1 1736.03C735.53 1735.79 735.87 1735.58 736.12 1735.4C736.369 1735.21 736.55 1735.11 736.664 1735.11C736.811 1735.11 736.924 1735.17 737.004 1735.28L737.446 1735.82C737.174 1736.16 736.811 1736.48 736.358 1736.78C735.916 1737.07 735.417 1737.33 734.862 1737.54C734.318 1737.74 733.728 1737.91 733.094 1738.03C732.47 1738.16 731.841 1738.22 731.207 1738.22C730.051 1738.22 728.997 1738.02 728.045 1737.63C727.093 1737.22 726.277 1736.63 725.597 1735.86C724.917 1735.09 724.39 1734.15 724.016 1733.04C723.653 1731.91 723.472 1730.63 723.472 1729.19C723.472 1727.98 723.642 1726.86 723.982 1725.84C724.333 1724.81 724.832 1723.93 725.478 1723.19C726.135 1722.44 726.934 1721.86 727.875 1721.44C728.827 1721.02 729.903 1720.81 731.105 1720.81C732.057 1720.81 732.941 1720.98 733.757 1721.31C734.573 1721.63 735.281 1722.12 735.882 1722.75C736.482 1723.37 736.953 1724.14 737.293 1725.06C737.644 1725.98 737.82 1727.03 737.82 1728.22C737.82 1728.47 737.786 1728.64 737.718 1728.73C737.65 1728.83 737.536 1728.87 737.378 1728.87H725.07ZM754.241 1723.18C754.151 1723.33 754.02 1723.41 753.85 1723.41C753.726 1723.41 753.567 1723.35 753.374 1723.21C753.182 1723.06 752.921 1722.9 752.592 1722.73C752.275 1722.55 751.878 1722.39 751.402 1722.26C750.926 1722.11 750.348 1722.04 749.668 1722.04C749.056 1722.04 748.495 1722.13 747.985 1722.31C747.487 1722.48 747.056 1722.71 746.693 1723.01C746.342 1723.3 746.07 1723.65 745.877 1724.04C745.685 1724.43 745.588 1724.84 745.588 1725.27C745.588 1725.8 745.724 1726.24 745.996 1726.59C746.268 1726.94 746.62 1727.24 747.05 1727.49C747.492 1727.74 747.997 1727.96 748.563 1728.14C749.13 1728.32 749.702 1728.5 750.28 1728.68C750.87 1728.87 751.448 1729.07 752.014 1729.3C752.581 1729.51 753.08 1729.78 753.51 1730.11C753.952 1730.44 754.309 1730.84 754.581 1731.32C754.853 1731.79 754.989 1732.37 754.989 1733.05C754.989 1733.79 754.859 1734.48 754.598 1735.11C754.338 1735.74 753.952 1736.29 753.442 1736.76C752.944 1737.22 752.326 1737.59 751.589 1737.86C750.853 1738.14 750.008 1738.27 749.056 1738.27C747.866 1738.27 746.841 1738.09 745.979 1737.71C745.118 1737.33 744.347 1736.83 743.667 1736.21L744.041 1735.64C744.098 1735.55 744.16 1735.48 744.228 1735.43C744.308 1735.39 744.41 1735.36 744.534 1735.36C744.682 1735.36 744.857 1735.46 745.061 1735.64C745.277 1735.82 745.56 1736.02 745.911 1736.23C746.263 1736.44 746.693 1736.63 747.203 1736.81C747.725 1736.99 748.365 1737.08 749.124 1737.08C749.838 1737.08 750.467 1736.99 751.011 1736.79C751.555 1736.59 752.009 1736.32 752.371 1735.98C752.734 1735.64 753.006 1735.24 753.187 1734.79C753.38 1734.32 753.476 1733.83 753.476 1733.32C753.476 1732.76 753.34 1732.29 753.068 1731.91C752.796 1731.54 752.439 1731.22 751.997 1730.96C751.555 1730.7 751.051 1730.48 750.484 1730.3C749.929 1730.12 749.357 1729.94 748.767 1729.75C748.178 1729.57 747.6 1729.38 747.033 1729.16C746.478 1728.94 745.979 1728.67 745.537 1728.34C745.095 1728.02 744.738 1727.62 744.466 1727.15C744.194 1726.68 744.058 1726.09 744.058 1725.39C744.058 1724.79 744.189 1724.21 744.449 1723.65C744.71 1723.1 745.078 1722.61 745.554 1722.19C746.042 1721.77 746.631 1721.44 747.322 1721.19C748.014 1720.94 748.79 1720.81 749.651 1720.81C750.683 1720.81 751.595 1720.96 752.388 1721.25C753.193 1721.55 753.924 1722 754.581 1722.61L754.241 1723.18Z" fill="black"/>
<defs>
<linearGradient id="paint0_linear" x1="1293.3" y1="505.365" x2="1306.87" y2="518.663" gradientUnits="userSpaceOnUse">
<stop/>
<stop offset="1" stop-color="#C4C4C4" stop-opacity="0"/>
</linearGradient>
<linearGradient id="paint1_linear" x1="1113" y1="541.937" x2="1113" y2="560.937" gradientUnits="userSpaceOnUse">
<stop/>
<stop offset="1" stop-color="#C4C4C4" stop-opacity="0"/>
</linearGradient>
<linearGradient id="paint2_linear" x1="1166.65" y1="157.361" x2="1179.75" y2="146.343" gradientUnits="userSpaceOnUse">
<stop offset="0.614583" stop-color="#1C231F"/>
<stop offset="1" stop-color="#A08A45"/>
</linearGradient>
<linearGradient id="paint3_linear" x1="1181.02" y1="168.537" x2="1198.03" y2="173.29" gradientUnits="userSpaceOnUse">
<stop offset="0.614583" stop-color="#1C231F"/>
<stop offset="1" stop-color="#A08A45"/>
</linearGradient>
<linearGradient id="paint4_linear" x1="1178.09" y1="172.068" x2="1194.24" y2="179.226" gradientUnits="userSpaceOnUse">
<stop offset="0.614583" stop-color="#1C231F"/>
<stop offset="1" stop-color="#A08A45"/>
</linearGradient>
<linearGradient id="paint5_linear" x1="1175.34" y1="174.636" x2="1190.19" y2="184.22" gradientUnits="userSpaceOnUse">
<stop offset="0.614583" stop-color="#1C231F"/>
<stop offset="1" stop-color="#A08A45"/>
</linearGradient>
<linearGradient id="paint6_linear" x1="1181.64" y1="179.9" x2="1193.84" y2="192.675" gradientUnits="userSpaceOnUse">
<stop offset="0.614583" stop-color="#1C231F"/>
<stop offset="1" stop-color="#A08A45"/>
</linearGradient>
<linearGradient id="paint7_linear" x1="1176.66" y1="165.761" x2="1193.4" y2="171.425" gradientUnits="userSpaceOnUse">
<stop offset="0.614583" stop-color="#1C231F"/>
<stop offset="1" stop-color="#A08A45"/>
</linearGradient>
<linearGradient id="paint8_linear" x1="1175.55" y1="158.211" x2="1193.06" y2="155.858" gradientUnits="userSpaceOnUse">
<stop offset="0.614583" stop-color="#1C231F"/>
<stop offset="1" stop-color="#A08A45"/>
</linearGradient>
<linearGradient id="paint9_linear" x1="1177.74" y1="162.489" x2="1195.4" y2="162.787" gradientUnits="userSpaceOnUse">
<stop offset="0.614583" stop-color="#1C231F"/>
<stop offset="1" stop-color="#A08A45"/>
</linearGradient>
<linearGradient id="paint10_linear" x1="1164.51" y1="156.66" x2="1182.18" y2="156.958" gradientUnits="userSpaceOnUse">
<stop offset="0.614583" stop-color="#1C231F"/>
<stop offset="1" stop-color="#A08A45"/>
</linearGradient>
<linearGradient id="paint11_linear" x1="1163.3" y1="155.971" x2="1180.32" y2="151.202" gradientUnits="userSpaceOnUse">
<stop offset="0.614583" stop-color="#1C231F"/>
<stop offset="1" stop-color="#A08A45"/>
</linearGradient>
<linearGradient id="paint12_linear" x1="1163.74" y1="163.094" x2="1181.1" y2="166.396" gradientUnits="userSpaceOnUse">
<stop offset="0.614583" stop-color="#1C231F"/>
<stop offset="1" stop-color="#A08A45"/>
</linearGradient>
<linearGradient id="paint13_linear" x1="1166.38" y1="156.943" x2="1177.29" y2="146.834" gradientUnits="userSpaceOnUse">
<stop offset="0.614583" stop-color="#1C231F"/>
<stop offset="1" stop-color="#A08A45"/>
</linearGradient>
<linearGradient id="paint14_linear" x1="1155.95" y1="158.014" x2="1159.96" y2="144.194" gradientUnits="userSpaceOnUse">
<stop offset="0.614583" stop-color="#1C231F"/>
<stop offset="1" stop-color="#A08A45"/>
</linearGradient>
<linearGradient id="paint15_linear" x1="1156.02" y1="157.241" x2="1163.35" y2="142.693" gradientUnits="userSpaceOnUse">
<stop offset="0.614583" stop-color="#1C231F"/>
<stop offset="1" stop-color="#A08A45"/>
</linearGradient>
<linearGradient id="paint16_linear" x1="1156.34" y1="152.55" x2="1164.75" y2="136.126" gradientUnits="userSpaceOnUse">
<stop offset="0.614583" stop-color="#1C231F"/>
<stop offset="1" stop-color="#A08A45"/>
</linearGradient>
<linearGradient id="paint17_linear" x1="1157.02" y1="161.716" x2="1167.08" y2="150.863" gradientUnits="userSpaceOnUse">
<stop offset="0.614583" stop-color="#1C231F"/>
<stop offset="1" stop-color="#A08A45"/>
</linearGradient>
<linearGradient id="paint18_linear" x1="1158" y1="164.623" x2="1165.43" y2="156.606" gradientUnits="userSpaceOnUse">
<stop offset="0.614583" stop-color="#1C231F"/>
<stop offset="1" stop-color="#A08A45"/>
</linearGradient>
<linearGradient id="paint19_linear" x1="1149.63" y1="162.688" x2="1149.66" y2="155.357" gradientUnits="userSpaceOnUse">
<stop offset="0.614583" stop-color="#1C231F"/>
<stop offset="1" stop-color="#A08A45"/>
</linearGradient>
<linearGradient id="paint20_linear" x1="1161.95" y1="164.291" x2="1168.19" y2="160.444" gradientUnits="userSpaceOnUse">
<stop offset="0.614583" stop-color="#1C231F"/>
<stop offset="1" stop-color="#A08A45"/>
</linearGradient>
<linearGradient id="paint21_linear" x1="1146.27" y1="158.514" x2="1144.37" y2="144.391" gradientUnits="userSpaceOnUse">
<stop offset="0.614583" stop-color="#1C231F"/>
<stop offset="1" stop-color="#A08A45"/>
</linearGradient>
<linearGradient id="paint22_linear" x1="1145.7" y1="157.258" x2="1148.55" y2="142.626" gradientUnits="userSpaceOnUse">
<stop offset="0.614583" stop-color="#1C231F"/>
<stop offset="1" stop-color="#A08A45"/>
</linearGradient>
<linearGradient id="paint23_linear" x1="1151.06" y1="157.382" x2="1150.05" y2="140.791" gradientUnits="userSpaceOnUse">
<stop offset="0.614583" stop-color="#1C231F"/>
<stop offset="1" stop-color="#A08A45"/>
</linearGradient>
<linearGradient id="paint24_linear" x1="1150.63" y1="160.415" x2="1142.43" y2="148.76" gradientUnits="userSpaceOnUse">
<stop offset="0.614583" stop-color="#1C231F"/>
<stop offset="1" stop-color="#A08A45"/>
</linearGradient>
<linearGradient id="paint25_linear" x1="1154.91" y1="164.658" x2="1162.12" y2="163.36" gradientUnits="userSpaceOnUse">
<stop offset="0.614583" stop-color="#1C231F"/>
<stop offset="1" stop-color="#A08A45"/>
</linearGradient>
<linearGradient id="paint26_linear" x1="1146.24" y1="164.189" x2="1142.56" y2="158.78" gradientUnits="userSpaceOnUse">
<stop offset="0.614583" stop-color="#1C231F"/>
<stop offset="1" stop-color="#A08A45"/>
</linearGradient>
<linearGradient id="paint27_linear" x1="1149.71" y1="163.068" x2="1146.71" y2="157.256" gradientUnits="userSpaceOnUse">
<stop offset="0.614583" stop-color="#1C231F"/>
<stop offset="1" stop-color="#A08A45"/>
</linearGradient>
<linearGradient id="paint28_linear" x1="1161.98" y1="168.823" x2="1168.46" y2="167.889" gradientUnits="userSpaceOnUse">
<stop offset="0.614583" stop-color="#1C231F"/>
<stop offset="1" stop-color="#A08A45"/>
</linearGradient>
<linearGradient id="paint29_linear" x1="1155.3" y1="161.95" x2="1161.9" y2="158.741" gradientUnits="userSpaceOnUse">
<stop offset="0.614583" stop-color="#1C231F"/>
<stop offset="1" stop-color="#A08A45"/>
</linearGradient>
</defs>
</svg>
