<svg width="271" height="56" viewBox="0 0 271 56" fill="none" xmlns="http://www.w3.org/2000/svg">
<path d="M3.29594 44V9.875H15.2491C19.3897 9.875 22.5303 10.6719 24.6709 12.2656C26.8116 13.8437 27.8819 16.1641 27.8819 19.2266C27.8819 20.8984 27.4522 22.375 26.5928 23.6562C25.7334 24.9219 24.5381 25.8516 23.0069 26.4453C24.7569 26.8828 26.1319 27.7656 27.1319 29.0938C28.1475 30.4219 28.6553 32.0469 28.6553 33.9688C28.6553 37.25 27.6084 39.7344 25.5147 41.4219C23.4209 43.1094 20.4366 43.9688 16.5616 44H3.29594ZM10.3272 29.1406V38.3516H16.3506C18.0069 38.3516 19.2959 37.9609 20.2178 37.1797C21.1553 36.3828 21.6241 35.2891 21.6241 33.8984C21.6241 30.7734 20.0069 29.1875 16.7725 29.1406H10.3272ZM10.3272 24.1719H15.5303C19.0772 24.1094 20.8506 22.6953 20.8506 19.9297C20.8506 18.3828 20.3975 17.2734 19.4913 16.6016C18.6006 15.9141 17.1866 15.5703 15.2491 15.5703H10.3272V24.1719ZM60.8978 36.9688H48.5697L46.2259 44H38.7494L51.4525 9.875H57.9681L70.7416 44H63.265L60.8978 36.9688ZM50.4681 31.2734H58.9994L54.7103 18.5L50.4681 31.2734ZM107.883 32.6328C107.617 36.3047 106.258 39.1953 103.804 41.3047C101.367 43.4141 98.1481 44.4688 94.1481 44.4688C89.7731 44.4688 86.3278 43 83.8122 40.0625C81.3122 37.1094 80.0622 33.0625 80.0622 27.9219V25.8359C80.0622 22.5547 80.6403 19.6641 81.7966 17.1641C82.9528 14.6641 84.6013 12.75 86.7419 11.4219C88.8981 10.0781 91.3981 9.40625 94.2419 9.40625C98.1794 9.40625 101.351 10.4609 103.758 12.5703C106.164 14.6797 107.554 17.6406 107.929 21.4531H100.898C100.726 19.25 100.109 17.6562 99.0466 16.6719C97.9997 15.6719 96.3981 15.1719 94.2419 15.1719C91.8981 15.1719 90.1403 16.0156 88.9684 17.7031C87.8122 19.375 87.2184 21.9766 87.1872 25.5078V28.0859C87.1872 31.7734 87.7419 34.4688 88.8513 36.1719C89.9763 37.875 91.7419 38.7266 94.1481 38.7266C96.32 38.7266 97.9372 38.2344 98.9997 37.25C100.078 36.25 100.695 34.7109 100.851 32.6328H107.883ZM130.867 30.3125L127.211 34.25V44H120.18V9.875H127.211V25.3438L130.305 21.1016L139 9.875H147.648L135.531 25.0391L148 44H139.633L130.867 30.3125ZM178.86 29.2109H165.36V38.3516H181.203V44H158.328V9.875H181.157V15.5703H165.36V23.7031H178.86V29.2109ZM220.758 44H213.727L200.04 21.5469V44H193.008V9.875H200.04L213.751 32.375V9.875H220.758V44ZM234.579 44V9.875H245.079C248.079 9.875 250.759 10.5547 253.118 11.9141C255.493 13.2578 257.345 15.1797 258.673 17.6797C260.001 20.1641 260.665 22.9922 260.665 26.1641V27.7344C260.665 30.9062 260.009 33.7266 258.696 36.1953C257.399 38.6641 255.563 40.5781 253.188 41.9375C250.813 43.2969 248.134 43.9844 245.149 44H234.579ZM241.61 15.5703V38.3516H245.009C247.759 38.3516 249.86 37.4531 251.313 35.6562C252.767 33.8594 253.509 31.2891 253.54 27.9453V26.1406C253.54 22.6719 252.821 20.0469 251.384 18.2656C249.946 16.4688 247.845 15.5703 245.079 15.5703H241.61Z" fill="#6FCF97"/>
<path d="M8.29594 44V9.875H20.2491C24.3897 9.875 27.5303 10.6719 29.6709 12.2656C31.8116 13.8437 32.8819 16.1641 32.8819 19.2266C32.8819 20.8984 32.4522 22.375 31.5928 23.6562C30.7334 24.9219 29.5381 25.8516 28.0069 26.4453C29.7569 26.8828 31.1319 27.7656 32.1319 29.0938C33.1475 30.4219 33.6553 32.0469 33.6553 33.9688C33.6553 37.25 32.6084 39.7344 30.5147 41.4219C28.4209 43.1094 25.4366 43.9688 21.5616 44H8.29594ZM15.3272 29.1406V38.3516H21.3506C23.0069 38.3516 24.2959 37.9609 25.2178 37.1797C26.1553 36.3828 26.6241 35.2891 26.6241 33.8984C26.6241 30.7734 25.0069 29.1875 21.7725 29.1406H15.3272ZM15.3272 24.1719H20.5303C24.0772 24.1094 25.8506 22.6953 25.8506 19.9297C25.8506 18.3828 25.3975 17.2734 24.4913 16.6016C23.6006 15.9141 22.1866 15.5703 20.2491 15.5703H15.3272V24.1719ZM65.8978 36.9688H53.5697L51.2259 44H43.7494L56.4525 9.875H62.9681L75.7416 44H68.265L65.8978 36.9688ZM55.4681 31.2734H63.9994L59.7103 18.5L55.4681 31.2734ZM112.883 32.6328C112.617 36.3047 111.258 39.1953 108.804 41.3047C106.367 43.4141 103.148 44.4688 99.1481 44.4688C94.7731 44.4688 91.3278 43 88.8122 40.0625C86.3122 37.1094 85.0622 33.0625 85.0622 27.9219V25.8359C85.0622 22.5547 85.6403 19.6641 86.7966 17.1641C87.9528 14.6641 89.6013 12.75 91.7419 11.4219C93.8981 10.0781 96.3981 9.40625 99.2419 9.40625C103.179 9.40625 106.351 10.4609 108.758 12.5703C111.164 14.6797 112.554 17.6406 112.929 21.4531H105.898C105.726 19.25 105.109 17.6562 104.047 16.6719C103 15.6719 101.398 15.1719 99.2419 15.1719C96.8981 15.1719 95.1403 16.0156 93.9684 17.7031C92.8122 19.375 92.2184 21.9766 92.1872 25.5078V28.0859C92.1872 31.7734 92.7419 34.4688 93.8513 36.1719C94.9763 37.875 96.7419 38.7266 99.1481 38.7266C101.32 38.7266 102.937 38.2344 104 37.25C105.078 36.25 105.695 34.7109 105.851 32.6328H112.883ZM135.867 30.3125L132.211 34.25V44H125.18V9.875H132.211V25.3438L135.305 21.1016L144 9.875H152.648L140.531 25.0391L153 44H144.633L135.867 30.3125ZM183.86 29.2109H170.36V38.3516H186.203V44H163.328V9.875H186.157V15.5703H170.36V23.7031H183.86V29.2109ZM225.758 44H218.727L205.04 21.5469V44H198.008V9.875H205.04L218.751 32.375V9.875H225.758V44ZM239.579 44V9.875H250.079C253.079 9.875 255.759 10.5547 258.118 11.9141C260.493 13.2578 262.345 15.1797 263.673 17.6797C265.001 20.1641 265.665 22.9922 265.665 26.1641V27.7344C265.665 30.9062 265.009 33.7266 263.696 36.1953C262.399 38.6641 260.563 40.5781 258.188 41.9375C255.813 43.2969 253.134 43.9844 250.149 44H239.579ZM246.61 15.5703V38.3516H250.009C252.759 38.3516 254.86 37.4531 256.313 35.6562C257.767 33.8594 258.509 31.2891 258.54 27.9453V26.1406C258.54 22.6719 257.821 20.0469 256.384 18.2656C254.946 16.4688 252.845 15.5703 250.079 15.5703H246.61Z" fill="#FEC2BE"/>
<path d="M11.2959 44V9.875H23.2491C27.3897 9.875 30.5303 10.6719 32.6709 12.2656C34.8116 13.8437 35.8819 16.1641 35.8819 19.2266C35.8819 20.8984 35.4522 22.375 34.5928 23.6562C33.7334 24.9219 32.5381 25.8516 31.0069 26.4453C32.7569 26.8828 34.1319 27.7656 35.1319 29.0938C36.1475 30.4219 36.6553 32.0469 36.6553 33.9688C36.6553 37.25 35.6084 39.7344 33.5147 41.4219C31.4209 43.1094 28.4366 43.9688 24.5616 44H11.2959ZM18.3272 29.1406V38.3516H24.3506C26.0069 38.3516 27.2959 37.9609 28.2178 37.1797C29.1553 36.3828 29.6241 35.2891 29.6241 33.8984C29.6241 30.7734 28.0069 29.1875 24.7725 29.1406H18.3272ZM18.3272 24.1719H23.5303C27.0772 24.1094 28.8506 22.6953 28.8506 19.9297C28.8506 18.3828 28.3975 17.2734 27.4913 16.6016C26.6006 15.9141 25.1866 15.5703 23.2491 15.5703H18.3272V24.1719ZM68.8978 36.9688H56.5697L54.2259 44H46.7494L59.4525 9.875H65.9681L78.7416 44H71.265L68.8978 36.9688ZM58.4681 31.2734H66.9994L62.7103 18.5L58.4681 31.2734ZM115.883 32.6328C115.617 36.3047 114.258 39.1953 111.804 41.3047C109.367 43.4141 106.148 44.4688 102.148 44.4688C97.7731 44.4688 94.3278 43 91.8122 40.0625C89.3122 37.1094 88.0622 33.0625 88.0622 27.9219V25.8359C88.0622 22.5547 88.6403 19.6641 89.7966 17.1641C90.9528 14.6641 92.6013 12.75 94.7419 11.4219C96.8981 10.0781 99.3981 9.40625 102.242 9.40625C106.179 9.40625 109.351 10.4609 111.758 12.5703C114.164 14.6797 115.554 17.6406 115.929 21.4531H108.898C108.726 19.25 108.109 17.6562 107.047 16.6719C106 15.6719 104.398 15.1719 102.242 15.1719C99.8981 15.1719 98.1403 16.0156 96.9684 17.7031C95.8122 19.375 95.2184 21.9766 95.1872 25.5078V28.0859C95.1872 31.7734 95.7419 34.4688 96.8513 36.1719C97.9763 37.875 99.7419 38.7266 102.148 38.7266C104.32 38.7266 105.937 38.2344 107 37.25C108.078 36.25 108.695 34.7109 108.851 32.6328H115.883ZM138.867 30.3125L135.211 34.25V44H128.18V9.875H135.211V25.3438L138.305 21.1016L147 9.875H155.648L143.531 25.0391L156 44H147.633L138.867 30.3125ZM186.86 29.2109H173.36V38.3516H189.203V44H166.328V9.875H189.157V15.5703H173.36V23.7031H186.86V29.2109ZM228.758 44H221.727L208.04 21.5469V44H201.008V9.875H208.04L221.751 32.375V9.875H228.758V44ZM242.579 44V9.875H253.079C256.079 9.875 258.759 10.5547 261.118 11.9141C263.493 13.2578 265.345 15.1797 266.673 17.6797C268.001 20.1641 268.665 22.9922 268.665 26.1641V27.7344C268.665 30.9062 268.009 33.7266 266.696 36.1953C265.399 38.6641 263.563 40.5781 261.188 41.9375C258.813 43.2969 256.134 43.9844 253.149 44H242.579ZM249.61 15.5703V38.3516H253.009C255.759 38.3516 257.86 37.4531 259.313 35.6562C260.767 33.8594 261.509 31.2891 261.54 27.9453V26.1406C261.54 22.6719 260.821 20.0469 259.384 18.2656C257.946 16.4688 255.845 15.5703 253.079 15.5703H249.61Z" fill="#F2F2F2"/>
</svg>
