<svg width="262" height="105" viewBox="0 0 262 105" fill="none" xmlns="http://www.w3.org/2000/svg">
<path opacity="0.5" d="M12.863 0.5L226.119 30.2881L262 94.6034L38.5891 75.6473L12.863 0.5Z" fill="#6FCF97"/>
<path opacity="0.5" d="M0 9.97803L213.256 39.7661L249.137 104.081L25.7261 85.1253L0 9.97803Z" fill="#6FCF97"/>
<path d="M81.4359 54.5783L82.3943 43.2438L86.3645 43.5795C87.7398 43.6958 88.7606 44.0487 89.4269 44.6381C90.0935 45.2224 90.3839 46.0232 90.2979 47.0404C90.2509 47.5957 90.0667 48.0741 89.7453 48.4755C89.4243 48.8717 89.0012 49.147 88.4759 49.3012C89.0449 49.4956 89.4768 49.8275 89.7716 50.2967C90.0717 50.7664 90.1947 51.3204 90.1407 51.9587C90.0486 53.0486 89.6311 53.8443 88.8883 54.346C88.1454 54.8477 87.13 55.0494 85.8421 54.9509L81.4359 54.5783ZM84.1887 49.8403L83.93 52.8997L85.9307 53.0689C86.4808 53.1154 86.9199 53.0218 87.248 52.7882C87.5818 52.5499 87.7682 52.1998 87.8073 51.7379C87.8951 50.6999 87.4024 50.1277 86.3295 50.0213L84.1887 49.8403ZM84.3282 48.1899L86.0564 48.3361C87.2363 48.4149 87.865 47.9951 87.9427 47.0765C87.9861 46.5627 87.8668 46.1815 87.5847 45.9328C87.3082 45.6795 86.8481 45.5256 86.2046 45.4712L84.5698 45.3329L84.3282 48.1899ZM103.636 54.1033L99.5408 53.7571L98.5648 56.0267L96.0815 55.8167L101.259 44.8389L103.423 45.0219L106.708 56.7152L104.224 56.5052L103.636 54.1033ZM100.331 51.9187L103.165 52.1583L102.099 47.7952L100.331 51.9187ZM122.233 54.2254C122.042 55.4375 121.509 56.3595 120.635 56.9912C119.766 57.6234 118.667 57.8833 117.339 57.7709C115.886 57.6481 114.782 57.0635 114.029 56.0171C113.282 54.966 112.98 53.5868 113.125 51.8793L113.183 51.1865C113.276 50.0966 113.549 49.1528 114.003 48.3549C114.457 47.557 115.059 46.9675 115.807 46.5865C116.561 46.2007 117.41 46.0478 118.355 46.1276C119.662 46.2382 120.686 46.6776 121.426 47.4458C122.166 48.214 122.545 49.2366 122.562 50.5134L120.227 50.3159C120.232 49.5793 120.072 49.0326 119.746 48.6758C119.427 48.3143 118.909 48.1032 118.193 48.0427C117.414 47.9769 116.807 48.2077 116.37 48.7353C115.939 49.2582 115.669 50.1056 115.559 51.2776L115.487 52.1339C115.383 53.3587 115.492 54.2695 115.812 54.8664C116.138 55.4637 116.701 55.7961 117.5 55.8637C118.221 55.9247 118.772 55.8066 119.153 55.5095C119.539 55.2076 119.787 54.7138 119.898 54.0279L122.233 54.2254ZM132.802 54.3429L131.477 55.548L131.203 58.7865L128.868 58.589L129.826 47.2545L132.162 47.4519L131.727 52.5899L132.874 51.2677L136.077 47.783L138.95 48.0259L134.499 52.7223L138.108 59.3704L135.329 59.1354L132.802 54.3429ZM151.643 55.5676L147.159 55.1884L146.903 58.2244L152.165 58.6694L152.007 60.5455L144.409 59.9031L145.367 48.5685L152.949 49.2097L152.789 51.1014L147.543 50.6577L147.314 53.359L151.798 53.7381L151.643 55.5676ZM168.014 61.8991L165.679 61.7016L161.763 53.8594L161.133 61.3172L158.797 61.1197L159.756 49.7852L162.091 49.9827L166.013 57.8411L166.645 50.3677L168.973 50.5645L168.014 61.8991ZM175.475 62.5299L176.433 51.1954L179.921 51.4903C180.917 51.5745 181.788 51.8755 182.534 52.3933C183.285 52.9063 183.846 53.5967 184.217 54.4644C184.588 55.3268 184.729 56.2848 184.64 57.3384L184.596 57.8599C184.507 58.9135 184.21 59.8318 183.704 60.6149C183.204 61.3985 182.541 61.9827 181.714 62.3675C180.887 62.7523 179.977 62.9054 178.986 62.8268L175.475 62.5299ZM178.609 53.2845L177.969 60.8513L179.098 60.9467C180.011 61.024 180.734 60.7846 181.267 60.2285C181.8 59.6725 182.119 58.8396 182.223 57.7299L182.274 57.1305C182.372 55.9783 182.207 55.0863 181.779 54.4543C181.352 53.8171 180.679 53.4596 179.761 53.3819L178.609 53.2845Z" fill="#1C1C1C"/>
</svg>
