<svg width="186" height="37" viewBox="0 0 186 37" fill="none" xmlns="http://www.w3.org/2000/svg">
<rect width="186" height="37" fill="#6FCF97"/>
<g filter="url(#filter0_d)">
<path d="M45.347 24V14.0469H48.2864C49.3528 14.0469 50.1617 14.2679 50.7132 14.71C51.2646 15.1475 51.5403 15.7946 51.5403 16.6514C51.5403 17.1663 51.399 17.6152 51.1165 17.998C50.8385 18.3763 50.4557 18.6475 49.968 18.8115C50.5468 18.9391 51.0117 19.224 51.3626 19.666C51.718 20.1081 51.8958 20.6185 51.8958 21.1973C51.8958 22.0768 51.611 22.765 51.0413 23.2617C50.4762 23.7539 49.6878 24 48.6761 24H45.347ZM46.1878 19.2148V23.2891H48.7102C49.4303 23.2891 49.9999 23.1068 50.4192 22.7422C50.843 22.373 51.055 21.8626 51.055 21.2109C51.055 20.5957 50.8522 20.1104 50.4466 19.7549C50.0455 19.3949 49.4895 19.2148 48.7786 19.2148H46.1878ZM46.1878 18.5107H48.4846C49.1865 18.4971 49.7288 18.333 50.1116 18.0186C50.499 17.6995 50.6927 17.237 50.6927 16.6309C50.6927 15.9928 50.4921 15.5234 50.0911 15.2227C49.6946 14.9173 49.093 14.7646 48.2864 14.7646H46.1878V18.5107ZM64.0659 21.2109H59.5474L58.522 24H57.6402L61.4068 14.0469H62.2066L65.9732 24H65.0982L64.0659 21.2109ZM59.8071 20.4932H63.7993L61.8032 15.0723L59.8071 20.4932ZM79.1687 20.8965C79.0548 21.9447 78.6788 22.7467 78.0408 23.3027C77.4073 23.8587 76.5619 24.1367 75.5047 24.1367C74.7664 24.1367 74.1124 23.9521 73.5427 23.583C72.9776 23.2139 72.5401 22.6921 72.2302 22.0176C71.9203 21.3385 71.7631 20.5638 71.7586 19.6934V18.4014C71.7586 17.5173 71.9135 16.7334 72.2234 16.0498C72.5333 15.3662 72.9776 14.8398 73.5564 14.4707C74.1397 14.097 74.8097 13.9102 75.5662 13.9102C76.6326 13.9102 77.4734 14.1995 78.0886 14.7783C78.7084 15.3525 79.0685 16.1478 79.1687 17.1641H78.3211C78.1114 15.4733 77.1931 14.6279 75.5662 14.6279C74.6638 14.6279 73.9438 14.9652 73.406 15.6396C72.8728 16.3141 72.6062 17.2461 72.6062 18.4355V19.6523C72.6062 20.8008 72.866 21.7168 73.3855 22.4004C73.9096 23.084 74.616 23.4258 75.5047 23.4258C76.3842 23.4258 77.0473 23.2161 77.4939 22.7969C77.9405 22.373 78.2162 21.7396 78.3211 20.8965H79.1687ZM88.2148 19.0576L86.8135 20.4385V24H85.9727V14.0469H86.8135V19.4131L91.9131 14.0469H92.9727L88.8027 18.4766L93.2939 24H92.2686L88.2148 19.0576ZM105.061 19.2285H100.406V23.2891H105.758V24H99.5647V14.0469H105.724V14.7646H100.406V18.5176H105.061V19.2285ZM119.706 24H118.865L113.143 15.4824V24H112.295V14.0469H113.143L118.872 22.5713V14.0469H119.706V24ZM126.995 24V14.0469H129.777C130.593 14.0469 131.324 14.2337 131.971 14.6074C132.619 14.9766 133.122 15.5075 133.482 16.2002C133.847 16.8929 134.029 17.6813 134.029 18.5654V19.4814C134.029 20.3701 133.849 21.1585 133.489 21.8467C133.129 22.5348 132.621 23.0658 131.965 23.4395C131.313 23.8132 130.563 24 129.716 24H126.995ZM127.836 14.7646V23.2891H129.722C130.771 23.2891 131.611 22.9427 132.245 22.25C132.878 21.5527 133.195 20.6117 133.195 19.4268V18.5518C133.195 17.4079 132.883 16.4919 132.259 15.8037C131.634 15.1156 130.812 14.7692 129.791 14.7646H127.836Z" fill="black"/>
</g>
<g opacity="0.79">
<path opacity="0.3" d="M37.5 -60H65.5L42.5 80L27.5 97H10.5L15 23L30 -49L37.5 -60Z" fill="#1A1F1C"/>
<path opacity="0.3" d="M87.5 -60H112L121 -43L91.5 81.5L81.5 97H60.5L87.5 -60Z" fill="#1A1F1C"/>
<path opacity="0.3" d="M132.5 -60H162L168.5 21L140 97H110.5L121.5 18L132.5 -60Z" fill="#1A1F1C"/>
</g>
<defs>
<filter id="filter0_d" x="41.3469" y="13.9102" width="96.6821" height="18.2266" filterUnits="userSpaceOnUse" color-interpolation-filters="sRGB">
<feFlood flood-opacity="0" result="BackgroundImageFix"/>
<feColorMatrix in="SourceAlpha" type="matrix" values="0 0 0 0 0 0 0 0 0 0 0 0 0 0 0 0 0 0 127 0"/>
<feOffset dy="4"/>
<feGaussianBlur stdDeviation="2"/>
<feColorMatrix type="matrix" values="0 0 0 0 0 0 0 0 0 0 0 0 0 0 0 0 0 0 0.25 0"/>
<feBlend mode="normal" in2="BackgroundImageFix" result="effect1_dropShadow"/>
<feBlend mode="normal" in="SourceGraphic" in2="effect1_dropShadow" result="shape"/>
</filter>
</defs>
</svg>
