<svg width="268" height="56" viewBox="0 0 268 56" fill="none" xmlns="http://www.w3.org/2000/svg">
<path d="M3.29594 44V9.875H15.2491C19.3897 9.875 22.5303 10.6719 24.6709 12.2656C26.8116 13.8437 27.8819 16.1641 27.8819 19.2266C27.8819 20.8984 27.4522 22.375 26.5928 23.6562C25.7334 24.9219 24.5381 25.8516 23.0069 26.4453C24.7569 26.8828 26.1319 27.7656 27.1319 29.0938C28.1475 30.4219 28.6553 32.0469 28.6553 33.9688C28.6553 37.25 27.6084 39.7344 25.5147 41.4219C23.4209 43.1094 20.4366 43.9688 16.5616 44H3.29594ZM10.3272 29.1406V38.3516H16.3506C18.0069 38.3516 19.2959 37.9609 20.2178 37.1797C21.1553 36.3828 21.6241 35.2891 21.6241 33.8984C21.6241 30.7734 20.0069 29.1875 16.7725 29.1406H10.3272ZM10.3272 24.1719H15.5303C19.0772 24.1094 20.8506 22.6953 20.8506 19.9297C20.8506 18.3828 20.3975 17.2734 19.4913 16.6016C18.6006 15.9141 17.1866 15.5703 15.2491 15.5703H10.3272V24.1719ZM60.8978 36.9688H48.5697L46.2259 44H38.7494L51.4525 9.875H57.9681L70.7416 44H63.265L60.8978 36.9688ZM50.4681 31.2734H58.9994L54.7103 18.5L50.4681 31.2734ZM107.883 32.6328C107.617 36.3047 106.258 39.1953 103.804 41.3047C101.367 43.4141 98.1481 44.4688 94.1481 44.4688C89.7731 44.4688 86.3278 43 83.8122 40.0625C81.3122 37.1094 80.0622 33.0625 80.0622 27.9219V25.8359C80.0622 22.5547 80.6403 19.6641 81.7966 17.1641C82.9528 14.6641 84.6013 12.75 86.7419 11.4219C88.8981 10.0781 91.3981 9.40625 94.2419 9.40625C98.1794 9.40625 101.351 10.4609 103.758 12.5703C106.164 14.6797 107.554 17.6406 107.929 21.4531H100.898C100.726 19.25 100.109 17.6562 99.0466 16.6719C97.9997 15.6719 96.3981 15.1719 94.2419 15.1719C91.8981 15.1719 90.1403 16.0156 88.9684 17.7031C87.8122 19.375 87.2184 21.9766 87.1872 25.5078V28.0859C87.1872 31.7734 87.7419 34.4688 88.8513 36.1719C89.9763 37.875 91.7419 38.7266 94.1481 38.7266C96.32 38.7266 97.9372 38.2344 98.9997 37.25C100.078 36.25 100.695 34.7109 100.851 32.6328H107.883ZM130.867 30.3125L127.211 34.25V44H120.18V9.875H127.211V25.3438L130.305 21.1016L139 9.875H147.648L135.531 25.0391L148 44H139.633L130.867 30.3125ZM178.86 29.2109H165.36V38.3516H181.203V44H158.328V9.875H181.157V15.5703H165.36V23.7031H178.86V29.2109ZM220.758 44H213.727L200.04 21.5469V44H193.008V9.875H200.04L213.751 32.375V9.875H220.758V44ZM234.579 44V9.875H245.079C248.079 9.875 250.759 10.5547 253.118 11.9141C255.493 13.2578 257.345 15.1797 258.673 17.6797C260.001 20.1641 260.665 22.9922 260.665 26.1641V27.7344C260.665 30.9062 260.009 33.7266 258.696 36.1953C257.399 38.6641 255.563 40.5781 253.188 41.9375C250.813 43.2969 248.134 43.9844 245.149 44H234.579ZM241.61 15.5703V38.3516H245.009C247.759 38.3516 249.86 37.4531 251.313 35.6562C252.767 33.8594 253.509 31.2891 253.54 27.9453V26.1406C253.54 22.6719 252.821 20.0469 251.384 18.2656C249.946 16.4688 247.845 15.5703 245.079 15.5703H241.61Z" fill="#6FCF97"/>
<path d="M5.29594 44V9.875H17.2491C21.3897 9.875 24.5303 10.6719 26.6709 12.2656C28.8116 13.8437 29.8819 16.1641 29.8819 19.2266C29.8819 20.8984 29.4522 22.375 28.5928 23.6562C27.7334 24.9219 26.5381 25.8516 25.0069 26.4453C26.7569 26.8828 28.1319 27.7656 29.1319 29.0938C30.1475 30.4219 30.6553 32.0469 30.6553 33.9688C30.6553 37.25 29.6084 39.7344 27.5147 41.4219C25.4209 43.1094 22.4366 43.9688 18.5616 44H5.29594ZM12.3272 29.1406V38.3516H18.3506C20.0069 38.3516 21.2959 37.9609 22.2178 37.1797C23.1553 36.3828 23.6241 35.2891 23.6241 33.8984C23.6241 30.7734 22.0069 29.1875 18.7725 29.1406H12.3272ZM12.3272 24.1719H17.5303C21.0772 24.1094 22.8506 22.6953 22.8506 19.9297C22.8506 18.3828 22.3975 17.2734 21.4913 16.6016C20.6006 15.9141 19.1866 15.5703 17.2491 15.5703H12.3272V24.1719ZM62.8978 36.9688H50.5697L48.2259 44H40.7494L53.4525 9.875H59.9681L72.7416 44H65.265L62.8978 36.9688ZM52.4681 31.2734H60.9994L56.7103 18.5L52.4681 31.2734ZM109.883 32.6328C109.617 36.3047 108.258 39.1953 105.804 41.3047C103.367 43.4141 100.148 44.4688 96.1481 44.4688C91.7731 44.4688 88.3278 43 85.8122 40.0625C83.3122 37.1094 82.0622 33.0625 82.0622 27.9219V25.8359C82.0622 22.5547 82.6403 19.6641 83.7966 17.1641C84.9528 14.6641 86.6013 12.75 88.7419 11.4219C90.8981 10.0781 93.3981 9.40625 96.2419 9.40625C100.179 9.40625 103.351 10.4609 105.758 12.5703C108.164 14.6797 109.554 17.6406 109.929 21.4531H102.898C102.726 19.25 102.109 17.6562 101.047 16.6719C99.9997 15.6719 98.3981 15.1719 96.2419 15.1719C93.8981 15.1719 92.1403 16.0156 90.9684 17.7031C89.8122 19.375 89.2184 21.9766 89.1872 25.5078V28.0859C89.1872 31.7734 89.7419 34.4688 90.8513 36.1719C91.9763 37.875 93.7419 38.7266 96.1481 38.7266C98.32 38.7266 99.9372 38.2344 101 37.25C102.078 36.25 102.695 34.7109 102.851 32.6328H109.883ZM132.867 30.3125L129.211 34.25V44H122.18V9.875H129.211V25.3438L132.305 21.1016L141 9.875H149.648L137.531 25.0391L150 44H141.633L132.867 30.3125ZM180.86 29.2109H167.36V38.3516H183.203V44H160.328V9.875H183.157V15.5703H167.36V23.7031H180.86V29.2109ZM222.758 44H215.727L202.04 21.5469V44H195.008V9.875H202.04L215.751 32.375V9.875H222.758V44ZM236.579 44V9.875H247.079C250.079 9.875 252.759 10.5547 255.118 11.9141C257.493 13.2578 259.345 15.1797 260.673 17.6797C262.001 20.1641 262.665 22.9922 262.665 26.1641V27.7344C262.665 30.9062 262.009 33.7266 260.696 36.1953C259.399 38.6641 257.563 40.5781 255.188 41.9375C252.813 43.2969 250.134 43.9844 247.149 44H236.579ZM243.61 15.5703V38.3516H247.009C249.759 38.3516 251.86 37.4531 253.313 35.6562C254.767 33.8594 255.509 31.2891 255.54 27.9453V26.1406C255.54 22.6719 254.821 20.0469 253.384 18.2656C251.946 16.4688 249.845 15.5703 247.079 15.5703H243.61Z" fill="#FEC2BE"/>
<path d="M8.29594 44V9.875H20.2491C24.3897 9.875 27.5303 10.6719 29.6709 12.2656C31.8116 13.8437 32.8819 16.1641 32.8819 19.2266C32.8819 20.8984 32.4522 22.375 31.5928 23.6562C30.7334 24.9219 29.5381 25.8516 28.0069 26.4453C29.7569 26.8828 31.1319 27.7656 32.1319 29.0938C33.1475 30.4219 33.6553 32.0469 33.6553 33.9688C33.6553 37.25 32.6084 39.7344 30.5147 41.4219C28.4209 43.1094 25.4366 43.9688 21.5616 44H8.29594ZM15.3272 29.1406V38.3516H21.3506C23.0069 38.3516 24.2959 37.9609 25.2178 37.1797C26.1553 36.3828 26.6241 35.2891 26.6241 33.8984C26.6241 30.7734 25.0069 29.1875 21.7725 29.1406H15.3272ZM15.3272 24.1719H20.5303C24.0772 24.1094 25.8506 22.6953 25.8506 19.9297C25.8506 18.3828 25.3975 17.2734 24.4913 16.6016C23.6006 15.9141 22.1866 15.5703 20.2491 15.5703H15.3272V24.1719ZM65.8978 36.9688H53.5697L51.2259 44H43.7494L56.4525 9.875H62.9681L75.7416 44H68.265L65.8978 36.9688ZM55.4681 31.2734H63.9994L59.7103 18.5L55.4681 31.2734ZM112.883 32.6328C112.617 36.3047 111.258 39.1953 108.804 41.3047C106.367 43.4141 103.148 44.4688 99.1481 44.4688C94.7731 44.4688 91.3278 43 88.8122 40.0625C86.3122 37.1094 85.0622 33.0625 85.0622 27.9219V25.8359C85.0622 22.5547 85.6403 19.6641 86.7966 17.1641C87.9528 14.6641 89.6013 12.75 91.7419 11.4219C93.8981 10.0781 96.3981 9.40625 99.2419 9.40625C103.179 9.40625 106.351 10.4609 108.758 12.5703C111.164 14.6797 112.554 17.6406 112.929 21.4531H105.898C105.726 19.25 105.109 17.6562 104.047 16.6719C103 15.6719 101.398 15.1719 99.2419 15.1719C96.8981 15.1719 95.1403 16.0156 93.9684 17.7031C92.8122 19.375 92.2184 21.9766 92.1872 25.5078V28.0859C92.1872 31.7734 92.7419 34.4688 93.8513 36.1719C94.9763 37.875 96.7419 38.7266 99.1481 38.7266C101.32 38.7266 102.937 38.2344 104 37.25C105.078 36.25 105.695 34.7109 105.851 32.6328H112.883ZM135.867 30.3125L132.211 34.25V44H125.18V9.875H132.211V25.3438L135.305 21.1016L144 9.875H152.648L140.531 25.0391L153 44H144.633L135.867 30.3125ZM183.86 29.2109H170.36V38.3516H186.203V44H163.328V9.875H186.157V15.5703H170.36V23.7031H183.86V29.2109ZM225.758 44H218.727L205.04 21.5469V44H198.008V9.875H205.04L218.751 32.375V9.875H225.758V44ZM239.579 44V9.875H250.079C253.079 9.875 255.759 10.5547 258.118 11.9141C260.493 13.2578 262.345 15.1797 263.673 17.6797C265.001 20.1641 265.665 22.9922 265.665 26.1641V27.7344C265.665 30.9062 265.009 33.7266 263.696 36.1953C262.399 38.6641 260.563 40.5781 258.188 41.9375C255.813 43.2969 253.134 43.9844 250.149 44H239.579ZM246.61 15.5703V38.3516H250.009C252.759 38.3516 254.86 37.4531 256.313 35.6562C257.767 33.8594 258.509 31.2891 258.54 27.9453V26.1406C258.54 22.6719 257.821 20.0469 256.384 18.2656C254.946 16.4688 252.845 15.5703 250.079 15.5703H246.61Z" fill="#F2F2F2"/>
</svg>
