<svg width="1440" height="2700" viewBox="0 0 1440 2700" fill="none" xmlns="http://www.w3.org/2000/svg">
<path opacity="0.02" d="M625 0H1440V2700H1067L625 0Z" fill="black"/>
<path opacity="0.02" d="M384 0H1435L1199 2700H137.5L384 0Z" fill="black"/>
<path d="M0 722C725.468 889.146 102.654 1072.5 220.827 1241C339 1409.5 198.079 1688 0 1506V722Z" fill="#B84D4D"/>
<path d="M1307.67 0H1440V635.594C1440 635.594 1406.92 494.204 1307.67 635.594C1208.41 776.984 910.602 269.532 1307.67 0Z" fill="#B84D4D"/>
<path opacity="0.1" d="M1294 560.937C1294 567.012 1246.09 571.937 1187 571.937C1127.91 571.937 1080 567.012 1080 560.937C1080 554.862 1127.91 549.937 1187 549.937C1246.09 549.937 1294 554.862 1294 560.937Z" fill="black"/>
<path fill-rule="evenodd" clip-rule="evenodd" d="M1211.66 318.568L1167.89 447.341L1137.36 542.195L1118.15 542.842L1157.02 320.408L1211.66 318.568Z" fill="black"/>
<path fill-rule="evenodd" clip-rule="evenodd" d="M1223.54 318.168C1225.53 361.78 1227.13 420.533 1228.44 423.212C1229.75 425.89 1306.24 482.636 1306.24 482.636L1296.9 499.803C1296.9 499.803 1206.54 445.746 1201.76 438.3C1196.98 430.853 1171.91 361.693 1158.69 320.352L1223.54 318.168Z" fill="black"/>
<path fill-rule="evenodd" clip-rule="evenodd" d="M1324.03 493.377L1306.88 481.215L1293.94 497.747C1292.99 515.98 1283.27 538.932 1283.27 538.932L1286.42 541.399L1309.85 511.484L1316.29 500.016L1317.87 501.25L1324.03 493.377Z" fill="#191847"/>
<path d="M1293 504.437L1291 515.937L1305 517.937L1307.5 514.937L1310 510.937L1293 504.437Z" fill="black"/>
<path d="M1293 504.437L1291 515.937L1305 517.937L1307.5 514.937L1310 510.937L1293 504.437Z" fill="url(#paint0_linear)"/>
<path fill-rule="evenodd" clip-rule="evenodd" d="M1139.75 560.125L1138.04 539.171L1117.05 539.877C1102.48 550.874 1078.65 558.18 1078.65 558.18L1078.78 562.178L1116.76 560.899L1129.68 558.463L1129.75 560.462L1139.75 560.125Z" fill="#191847"/>
<path d="M1114 541.937L1104 547.937L1114 560.937H1117L1122 559.937L1114 541.937Z" fill="black"/>
<path d="M1114 541.937L1104 547.937L1114 560.937H1117L1122 559.937L1114 541.937Z" fill="url(#paint1_linear)"/>
<path fill-rule="evenodd" clip-rule="evenodd" d="M1144.88 169.967C1140.24 181.312 1143.78 208.49 1151.43 209.63C1154.48 210.084 1160.61 207.546 1166.64 202.99L1165.59 232.013L1189.46 229.513L1177.24 192.073C1181.26 186.214 1183.67 179.297 1182.38 171.964C1178.65 150.836 1149.51 158.621 1144.88 169.967Z" fill="#B28B67"/>
<path d="M1147.45 212.797C1147.61 214.289 1149.68 212.869 1150.78 210.941C1158.61 204.088 1152.74 207.876 1152.8 206.205C1149.82 206.527 1147.22 205.783 1146.83 206.83C1146.44 207.876 1147.3 211.305 1147.45 212.797Z" fill="#1C231F"/>
<path d="M1154.14 168.324C1157.09 169.492 1159.5 171.782 1162.08 174.846C1162.09 174.957 1163.64 180.814 1164.48 186.883C1165.52 191.504 1167.27 195.48 1166.04 198.282C1160.36 204.674 1154 206.68 1147.82 206.725C1147.99 209.153 1149.56 210.063 1153.16 209.686C1157.33 209.249 1167.34 205.173 1168.75 198.834C1169.94 193.457 1166.37 181.729 1166.06 177.292C1166.31 177.235 1166.57 177.192 1166.83 177.165C1170.41 176.791 1173.6 179.353 1173.97 182.889C1174.16 184.684 1173.59 186.384 1172.51 187.673C1174.22 189.607 1176.13 191.615 1178.29 193.668C1185.06 188.624 1189.11 175.511 1180.78 164.194C1178.21 158.491 1173.46 155.799 1168.09 154.88C1163.68 153.573 1159.27 153.836 1155.68 155.272C1148.48 156.649 1148.54 157.073 1146.84 158.566C1140.88 162.003 1139.6 168.091 1154.14 168.324Z" fill="#1C231F"/>
<path d="M1159.62 161.174C1175.02 154.849 1183.36 154.767 1197.67 161.27C1201.36 162.637 1204.84 169.752 1197.38 166.189C1189.93 162.626 1158.95 157.421 1162.04 164.041L1159.62 161.174Z" fill="url(#paint2_linear)"/>
<path d="M1173.48 165.423C1188.33 173.124 1193.66 178.752 1197.4 191.311C1198.62 194.413 1195.03 199.877 1193.22 193.259C1191.42 186.641 1176.11 163.329 1172.68 168.312L1173.48 165.423Z" fill="url(#paint3_linear)"/>
<path d="M1171.09 167.901C1184.67 177.662 1189.12 184 1191.02 196.968C1191.78 200.213 1187.44 205.103 1186.61 198.293C1185.77 191.483 1173.98 166.208 1169.87 170.644L1171.09 167.901Z" fill="url(#paint4_linear)"/>
<path d="M1169.07 169.43C1180.97 181.185 1184.39 188.139 1184.24 201.244C1184.48 204.568 1179.44 208.723 1179.67 201.866C1179.91 195.009 1172.2 168.208 1167.45 171.95L1169.07 169.43Z" fill="url(#paint5_linear)"/>
<path d="M1176.57 173.552C1186.04 187.14 1188.5 193.985 1187.38 204.714C1187.34 207.527 1182.63 209.281 1183.35 203.72C1184.08 198.159 1179.38 173.578 1174.96 175.088L1176.57 173.552Z" fill="url(#paint6_linear)"/>
<path d="M1169.31 162.247C1183.72 170.736 1188.73 176.643 1191.79 189.386C1192.84 192.549 1188.97 197.812 1187.52 191.106C1186.07 184.4 1172.04 160.297 1168.35 165.088L1169.31 162.247Z" fill="url(#paint7_linear)"/>
<path d="M1167.4 158.324C1184.08 159.537 1191.2 162.605 1199.6 172.664C1201.94 175.034 1200.8 181.47 1196.53 176.104C1192.25 170.737 1168.98 155.365 1167.8 161.297L1167.4 158.324Z" fill="url(#paint8_linear)"/>
<path d="M1169.66 161.379C1185.97 165.078 1192.55 169.179 1199.35 180.383C1201.31 183.077 1199.22 189.27 1195.8 183.324C1192.37 177.377 1171.67 158.691 1169.61 164.379L1169.66 161.379Z" fill="url(#paint9_linear)"/>
<path d="M1156.44 155.55C1172.75 159.249 1179.32 163.35 1186.12 174.554C1188.08 177.249 1185.99 183.441 1182.57 177.495C1179.15 171.548 1158.45 152.862 1156.39 158.55L1156.44 155.55Z" fill="url(#paint10_linear)"/>
<path d="M1155.25 157.218C1171.94 156.096 1179.41 158.143 1189.13 166.934C1191.78 168.954 1191.55 175.486 1186.57 170.767C1181.59 166.049 1156.41 154.067 1156.06 160.107L1155.25 157.218Z" fill="url(#paint11_linear)"/>
<path d="M1155.97 160.627C1171.41 167.049 1177.19 172.208 1181.98 184.407C1183.46 187.396 1180.35 193.142 1177.99 186.7C1175.63 180.258 1158.41 158.319 1155.41 163.574L1155.97 160.627Z" fill="url(#paint12_linear)"/>
<path d="M1160.56 160.678C1173.16 154.001 1179.72 152.863 1190.5 155.835C1193.3 156.372 1195.49 161.198 1189.9 159.519C1184.3 157.841 1160.32 157.983 1162.24 162.493L1160.56 160.678Z" fill="url(#paint13_linear)"/>
<path d="M1153.02 164.024C1160.14 152.209 1165.16 148.032 1176.08 145.274C1178.79 144.358 1183.36 147.366 1177.61 148.686C1171.86 150.005 1151.31 161.863 1155.47 164.736L1153.02 164.024Z" fill="url(#paint14_linear)"/>
<path d="M1151.29 163.209C1162.44 151.932 1169.8 148.781 1185.05 149.248C1188.85 149.095 1194.73 154.105 1186.72 153.706C1178.71 153.307 1149.21 160.139 1154.55 164.855L1151.29 163.209Z" fill="url(#paint15_linear)"/>
<path d="M1150.9 159.258C1163.74 146.625 1172.22 143.179 1189.85 144.01C1194.25 143.911 1201.07 149.735 1191.81 149.124C1182.55 148.512 1148.49 155.718 1154.68 161.197L1150.9 159.258Z" fill="url(#paint16_linear)"/>
<path d="M1151.51 165.844C1163.55 158.312 1170.02 156.719 1181.01 158.927C1183.84 159.266 1186.42 163.92 1180.7 162.64C1174.98 161.359 1151.05 163.176 1153.33 167.534L1151.51 165.844Z" fill="url(#paint17_linear)"/>
<path d="M1153.78 167.53C1163.21 162.469 1168.62 161.879 1178.5 165.142C1181.02 165.784 1183.91 170.139 1178.75 168.326C1173.59 166.513 1153 165.158 1155.6 169.219L1153.78 167.53Z" fill="url(#paint18_linear)"/>
<path d="M1148.59 166.041C1151.89 159.262 1155.38 156.521 1164.77 153.661C1167.03 152.839 1172.13 153.683 1167.15 155.124C1162.18 156.564 1146.39 165.217 1151.08 166.052L1148.59 166.041Z" fill="url(#paint19_linear)"/>
<path d="M1158.56 165.184C1166.05 164.403 1170.23 165.92 1177.61 172.378C1179.51 173.863 1181.48 178.643 1177.63 175.177C1173.78 171.712 1158.09 162.881 1159.86 167.3L1158.56 165.184Z" fill="url(#paint20_linear)"/>
<path d="M1146.34 165.089C1147.45 151.619 1150.11 145.854 1158.79 138.999C1160.84 137.091 1166.37 137.961 1161.74 141.451C1157.11 144.94 1143.8 163.833 1148.9 164.744L1146.34 165.089Z" fill="url(#paint21_linear)"/>
<path d="M1143.32 163.748C1149.79 150.938 1155.37 146.313 1169.07 142.971C1172.41 141.896 1179.17 144.915 1171.93 146.534C1164.68 148.153 1140.54 161.52 1146.73 164.41L1143.32 163.748Z" fill="url(#paint22_linear)"/>
<path d="M1150.5 165.041C1153.19 149.45 1157.09 142.953 1168.62 135.668C1171.37 133.611 1178.21 135.066 1172.07 138.758C1165.94 142.449 1147.44 163.376 1153.73 164.845L1150.5 165.041Z" fill="url(#paint23_linear)"/>
<path d="M1153.72 166.218C1148.49 153.756 1148.2 147.412 1152.74 137.328C1153.68 134.691 1158.99 132.913 1156.49 138.145C1153.99 143.376 1150.89 166.274 1155.83 164.733L1153.72 166.218Z" fill="url(#paint24_linear)"/>
<path d="M1151.42 164.249C1158.68 166.264 1162.01 169.201 1166.53 177.912C1167.75 179.987 1167.84 185.159 1165.52 180.525C1163.2 175.89 1151.83 161.936 1151.86 166.695L1151.42 164.249Z" fill="url(#paint25_linear)"/>
<path d="M1147.18 167.169C1146.14 160.547 1147.28 156.802 1152.6 150.057C1153.81 148.334 1157.91 146.433 1155.05 149.954C1152.19 153.476 1145.18 167.65 1148.98 165.948L1147.18 167.169Z" fill="url(#paint26_linear)"/>
<path d="M1150.29 166.14C1150.05 159.442 1151.63 155.86 1157.72 149.804C1159.13 148.239 1163.43 146.844 1160.17 149.997C1156.91 153.149 1148.24 166.377 1152.22 165.144L1150.29 166.14Z" fill="url(#paint27_linear)"/>
<path d="M1158.89 168.365C1165.3 170.334 1168.17 172.996 1171.9 180.734C1172.91 182.582 1172.82 187.102 1170.91 182.987C1169 178.873 1159.33 166.356 1159.2 170.514L1158.89 168.365Z" fill="url(#paint28_linear)"/>
<path d="M1151.84 162.502C1159.38 162.469 1163.38 164.392 1170.09 171.551C1171.82 173.216 1173.32 178.169 1169.83 174.338C1166.34 170.507 1151.61 160.164 1152.93 164.737L1151.84 162.502Z" fill="url(#paint29_linear)"/>
<path fill-rule="evenodd" clip-rule="evenodd" d="M1317.29 348.588C1308.82 345.763 1296.2 340.193 1294.02 337.793C1289.57 332.884 1260.12 278.174 1260.12 278.174L1242.93 283.179C1242.93 283.179 1279.76 340.497 1282.3 343.748C1285.59 347.97 1284.31 355.844 1283.43 361.183C1283.3 362.009 1283.17 362.774 1283.08 363.456C1286.55 363.952 1287.55 361.864 1288.61 359.662C1289.8 357.174 1291.07 354.542 1296.04 355.327C1297.96 355.631 1299.83 356.104 1301.66 356.566C1307.97 358.162 1313.77 359.629 1319.34 353.518C1320.22 352.55 1320.68 349.722 1317.29 348.588L1117.57 302.909L1088.28 329.527C1079.92 332.75 1073.03 336.392 1067.62 340.452C1066.39 341.837 1065 344.526 1070.61 343.499C1076.22 342.472 1082.17 341.644 1083.15 343.491C1083.58 344.3 1083.22 345.266 1082.82 346.301C1082.32 347.629 1081.77 349.071 1082.81 350.441C1084.04 352.066 1088.55 347.195 1096.34 335.828L1126.4 319.511L1117.57 302.909L1317.29 348.588Z" fill="#B28B67"/>
<path fill-rule="evenodd" clip-rule="evenodd" d="M1166.23 214.27L1177.32 217.519C1177.5 220.309 1177.92 224.26 1178.41 228.786C1179.94 242.993 1182.08 262.869 1179.14 270.31C1167.62 299.543 1137.29 315.518 1105.37 335.837L1095.66 320.336C1096.52 319.582 1097.37 318.825 1098.21 318.065C1096.9 317.756 1095.75 316.871 1095.15 315.558C1094.12 313.299 1095.11 310.628 1097.37 309.594C1101.96 307.491 1106.33 306.35 1110.44 306.216C1137.62 277.977 1154.61 246.472 1166.23 214.27Z" fill="#1C1C1C"/>
<path d="M1158.5 320.504C1185.97 322.837 1225.88 320.504 1225.88 320.504C1216.92 272.694 1204.31 240.154 1181.45 213.036C1181.45 213.036 1170.56 215.811 1165.9 213.964C1144.5 274.937 1162.5 273.437 1158.5 303.937C1157.42 312.174 1157.03 317.366 1157.01 320.504L1158.5 320.504Z" fill="white"/>
<path fill-rule="evenodd" clip-rule="evenodd" d="M1285.41 314.769C1249.5 238.669 1189.18 209.815 1189.18 209.815L1177.87 210.999C1180.92 227.808 1177.48 253.094 1173.49 282.427C1167.12 329.339 1159.33 386.603 1174.45 436.097C1186.81 437.53 1200.82 434.201 1215.98 430.598C1237.86 425.397 1262.15 419.623 1287.4 426.766C1282.41 393.857 1247.76 358.211 1232.19 324.717C1233.15 323.606 1233.55 322.05 1233.11 320.537L1232.29 317.653C1231.73 315.7 1229.96 314.419 1228.03 314.391C1227.54 312.934 1227.09 311.482 1226.7 310.035C1224.7 302.645 1224.7 295.134 1224.69 287.708C1224.69 283.631 1224.69 279.58 1224.36 275.587C1238.92 286.059 1257.21 305.06 1274.57 339.498L1292.78 332.004C1291.78 329.41 1290.75 326.865 1289.7 324.366C1291.75 322.939 1293.72 316.981 1291.79 316.224C1289.75 315.424 1287.62 314.942 1285.41 314.769Z" fill="#1C1C1C"/>
<path fill-rule="evenodd" clip-rule="evenodd" d="M1185.17 211.239L1191.96 226.481L1182.86 239.392L1193.17 247.71L1174.63 288.759L1198.22 247.26L1188.06 238.847L1196.14 227.434L1185.17 211.239Z" fill="black" fill-opacity="0.1"/>
<path fill-rule="evenodd" clip-rule="evenodd" d="M1186.38 298.588C1186.15 296.393 1184.18 294.797 1181.99 295.027C1179.79 295.257 1178.2 297.226 1178.43 299.421C1178.65 301.617 1180.62 303.213 1182.82 302.983C1185.02 302.753 1186.61 300.784 1186.38 298.588L1183.8 321.984C1183.57 319.788 1181.6 318.192 1179.41 318.422C1177.21 318.652 1175.62 320.621 1175.85 322.817C1176.08 325.013 1178.05 326.609 1180.24 326.379C1182.44 326.149 1184.03 324.18 1183.8 321.984L1185.2 344.963C1184.97 342.767 1183.01 341.171 1180.81 341.401C1178.61 341.631 1177.02 343.601 1177.25 345.796C1177.48 347.992 1179.45 349.588 1181.64 349.358C1183.84 349.128 1185.43 347.159 1185.2 344.963L1186.38 298.588Z" fill="black" fill-opacity="0.4"/>
<path d="M1235.16 1889.79C1301.77 1884.41 1359.59 1926.99 1359.59 1926.99C1359.59 1926.99 1309.41 1978.3 1242.8 1983.67C1176.19 1989.05 1118.37 1946.47 1118.37 1946.47C1118.37 1946.47 1168.55 1895.17 1235.16 1889.79Z" fill="#B84D4D"/>
<path d="M1405.21 1789.13C1393.34 1854.89 1337.36 1899.87 1337.36 1899.87C1337.36 1899.87 1300.63 1838.22 1312.5 1772.46C1324.37 1706.7 1380.34 1661.72 1380.34 1661.72C1380.34 1661.72 1417.08 1723.37 1405.21 1789.13Z" fill="#3F3D56"/>
<path d="M1146 1733.58C1402.3 1900.78 1450.23 2050.81 1467.84 2358.29" stroke="#3F3D56" stroke-width="3"/>
<path d="M1046.2 1712.6C1112.75 1706.54 1171 1748.53 1171 1748.53C1171 1748.53 1121.35 1800.34 1054.8 1806.4C988.251 1812.46 930 1770.47 930 1770.47C930 1770.47 979.648 1718.66 1046.2 1712.6Z" fill="#3F3D56"/>
<path d="M1097.7 1639.73C1152.76 1677.61 1170.72 1747.13 1170.72 1747.13C1170.72 1747.13 1099.42 1755.25 1044.36 1717.37C989.308 1679.49 971.347 1609.97 971.347 1609.97C971.347 1609.97 1042.65 1601.85 1097.7 1639.73Z" fill="#B84D4D"/>
<circle cx="917" cy="1679" r="45" fill="#B84D4D"/>
<ellipse opacity="0.06" cx="625" cy="558" rx="333" ry="31" fill="black"/>
<defs>
<linearGradient id="paint0_linear" x1="1293.3" y1="505.365" x2="1306.87" y2="518.663" gradientUnits="userSpaceOnUse">
<stop/>
<stop offset="1" stop-color="#C4C4C4" stop-opacity="0"/>
</linearGradient>
<linearGradient id="paint1_linear" x1="1113" y1="541.937" x2="1113" y2="560.937" gradientUnits="userSpaceOnUse">
<stop/>
<stop offset="1" stop-color="#C4C4C4" stop-opacity="0"/>
</linearGradient>
<linearGradient id="paint2_linear" x1="1166.65" y1="157.361" x2="1179.75" y2="146.343" gradientUnits="userSpaceOnUse">
<stop offset="0.614583" stop-color="#1C231F"/>
<stop offset="1" stop-color="#A08A45"/>
</linearGradient>
<linearGradient id="paint3_linear" x1="1181.02" y1="168.537" x2="1198.03" y2="173.29" gradientUnits="userSpaceOnUse">
<stop offset="0.614583" stop-color="#1C231F"/>
<stop offset="1" stop-color="#A08A45"/>
</linearGradient>
<linearGradient id="paint4_linear" x1="1178.09" y1="172.068" x2="1194.24" y2="179.226" gradientUnits="userSpaceOnUse">
<stop offset="0.614583" stop-color="#1C231F"/>
<stop offset="1" stop-color="#A08A45"/>
</linearGradient>
<linearGradient id="paint5_linear" x1="1175.34" y1="174.636" x2="1190.19" y2="184.22" gradientUnits="userSpaceOnUse">
<stop offset="0.614583" stop-color="#1C231F"/>
<stop offset="1" stop-color="#A08A45"/>
</linearGradient>
<linearGradient id="paint6_linear" x1="1181.64" y1="179.9" x2="1193.84" y2="192.675" gradientUnits="userSpaceOnUse">
<stop offset="0.614583" stop-color="#1C231F"/>
<stop offset="1" stop-color="#A08A45"/>
</linearGradient>
<linearGradient id="paint7_linear" x1="1176.66" y1="165.761" x2="1193.4" y2="171.425" gradientUnits="userSpaceOnUse">
<stop offset="0.614583" stop-color="#1C231F"/>
<stop offset="1" stop-color="#A08A45"/>
</linearGradient>
<linearGradient id="paint8_linear" x1="1175.55" y1="158.211" x2="1193.06" y2="155.858" gradientUnits="userSpaceOnUse">
<stop offset="0.614583" stop-color="#1C231F"/>
<stop offset="1" stop-color="#A08A45"/>
</linearGradient>
<linearGradient id="paint9_linear" x1="1177.74" y1="162.489" x2="1195.4" y2="162.787" gradientUnits="userSpaceOnUse">
<stop offset="0.614583" stop-color="#1C231F"/>
<stop offset="1" stop-color="#A08A45"/>
</linearGradient>
<linearGradient id="paint10_linear" x1="1164.51" y1="156.66" x2="1182.18" y2="156.958" gradientUnits="userSpaceOnUse">
<stop offset="0.614583" stop-color="#1C231F"/>
<stop offset="1" stop-color="#A08A45"/>
</linearGradient>
<linearGradient id="paint11_linear" x1="1163.3" y1="155.971" x2="1180.32" y2="151.202" gradientUnits="userSpaceOnUse">
<stop offset="0.614583" stop-color="#1C231F"/>
<stop offset="1" stop-color="#A08A45"/>
</linearGradient>
<linearGradient id="paint12_linear" x1="1163.74" y1="163.094" x2="1181.1" y2="166.396" gradientUnits="userSpaceOnUse">
<stop offset="0.614583" stop-color="#1C231F"/>
<stop offset="1" stop-color="#A08A45"/>
</linearGradient>
<linearGradient id="paint13_linear" x1="1166.38" y1="156.943" x2="1177.29" y2="146.834" gradientUnits="userSpaceOnUse">
<stop offset="0.614583" stop-color="#1C231F"/>
<stop offset="1" stop-color="#A08A45"/>
</linearGradient>
<linearGradient id="paint14_linear" x1="1155.95" y1="158.014" x2="1159.96" y2="144.194" gradientUnits="userSpaceOnUse">
<stop offset="0.614583" stop-color="#1C231F"/>
<stop offset="1" stop-color="#A08A45"/>
</linearGradient>
<linearGradient id="paint15_linear" x1="1156.02" y1="157.241" x2="1163.35" y2="142.693" gradientUnits="userSpaceOnUse">
<stop offset="0.614583" stop-color="#1C231F"/>
<stop offset="1" stop-color="#A08A45"/>
</linearGradient>
<linearGradient id="paint16_linear" x1="1156.34" y1="152.55" x2="1164.75" y2="136.126" gradientUnits="userSpaceOnUse">
<stop offset="0.614583" stop-color="#1C231F"/>
<stop offset="1" stop-color="#A08A45"/>
</linearGradient>
<linearGradient id="paint17_linear" x1="1157.02" y1="161.716" x2="1167.08" y2="150.863" gradientUnits="userSpaceOnUse">
<stop offset="0.614583" stop-color="#1C231F"/>
<stop offset="1" stop-color="#A08A45"/>
</linearGradient>
<linearGradient id="paint18_linear" x1="1158" y1="164.623" x2="1165.43" y2="156.606" gradientUnits="userSpaceOnUse">
<stop offset="0.614583" stop-color="#1C231F"/>
<stop offset="1" stop-color="#A08A45"/>
</linearGradient>
<linearGradient id="paint19_linear" x1="1149.63" y1="162.688" x2="1149.66" y2="155.357" gradientUnits="userSpaceOnUse">
<stop offset="0.614583" stop-color="#1C231F"/>
<stop offset="1" stop-color="#A08A45"/>
</linearGradient>
<linearGradient id="paint20_linear" x1="1161.95" y1="164.291" x2="1168.19" y2="160.444" gradientUnits="userSpaceOnUse">
<stop offset="0.614583" stop-color="#1C231F"/>
<stop offset="1" stop-color="#A08A45"/>
</linearGradient>
<linearGradient id="paint21_linear" x1="1146.27" y1="158.514" x2="1144.37" y2="144.391" gradientUnits="userSpaceOnUse">
<stop offset="0.614583" stop-color="#1C231F"/>
<stop offset="1" stop-color="#A08A45"/>
</linearGradient>
<linearGradient id="paint22_linear" x1="1145.7" y1="157.258" x2="1148.55" y2="142.626" gradientUnits="userSpaceOnUse">
<stop offset="0.614583" stop-color="#1C231F"/>
<stop offset="1" stop-color="#A08A45"/>
</linearGradient>
<linearGradient id="paint23_linear" x1="1151.06" y1="157.382" x2="1150.05" y2="140.791" gradientUnits="userSpaceOnUse">
<stop offset="0.614583" stop-color="#1C231F"/>
<stop offset="1" stop-color="#A08A45"/>
</linearGradient>
<linearGradient id="paint24_linear" x1="1150.63" y1="160.415" x2="1142.43" y2="148.76" gradientUnits="userSpaceOnUse">
<stop offset="0.614583" stop-color="#1C231F"/>
<stop offset="1" stop-color="#A08A45"/>
</linearGradient>
<linearGradient id="paint25_linear" x1="1154.91" y1="164.658" x2="1162.12" y2="163.36" gradientUnits="userSpaceOnUse">
<stop offset="0.614583" stop-color="#1C231F"/>
<stop offset="1" stop-color="#A08A45"/>
</linearGradient>
<linearGradient id="paint26_linear" x1="1146.24" y1="164.189" x2="1142.56" y2="158.78" gradientUnits="userSpaceOnUse">
<stop offset="0.614583" stop-color="#1C231F"/>
<stop offset="1" stop-color="#A08A45"/>
</linearGradient>
<linearGradient id="paint27_linear" x1="1149.71" y1="163.068" x2="1146.71" y2="157.256" gradientUnits="userSpaceOnUse">
<stop offset="0.614583" stop-color="#1C231F"/>
<stop offset="1" stop-color="#A08A45"/>
</linearGradient>
<linearGradient id="paint28_linear" x1="1161.98" y1="168.823" x2="1168.46" y2="167.889" gradientUnits="userSpaceOnUse">
<stop offset="0.614583" stop-color="#1C231F"/>
<stop offset="1" stop-color="#A08A45"/>
</linearGradient>
<linearGradient id="paint29_linear" x1="1155.3" y1="161.95" x2="1161.9" y2="158.741" gradientUnits="userSpaceOnUse">
<stop offset="0.614583" stop-color="#1C231F"/>
<stop offset="1" stop-color="#A08A45"/>
</linearGradient>
</defs>
</svg>
