<svg width="79" height="78" viewBox="0 0 79 78" fill="none" xmlns="http://www.w3.org/2000/svg">
<g clip-path="url(#clip0)">
<path d="M21.7339 17.2202H43.6577C47.7007 17.2202 50.9487 18.1416 53.388 19.9994C55.8273 21.8567 57.0527 24.6486 57.0527 28.4022C57.0527 30.6766 56.4968 32.6233 55.3854 34.2406C54.2727 35.8576 52.6814 37.1223 50.608 38.0061V38.1312C53.3889 38.726 55.4981 40.0393 56.9259 42.0743C58.3537 44.1216 59.074 46.6736 59.074 49.7577C59.074 51.5266 58.758 53.1824 58.1261 54.711C57.4942 56.2519 56.5083 57.5803 55.1561 58.6908C53.8039 59.8031 52.0862 60.6886 49.9752 61.3449C47.8655 62.0024 45.3626 62.3308 42.4571 62.3308H21.7339V17.2202ZM29.6317 36.1108H42.5207C44.4165 36.1108 45.9954 35.58 47.2592 34.4934C48.5231 33.4067 49.1546 31.8649 49.1546 29.8423C49.1546 27.5683 48.5858 25.9646 47.4497 25.0424C46.3127 24.1192 44.6697 23.6521 42.5216 23.6521H29.6317V36.1108ZM29.6317 55.8869H43.5945C45.9963 55.8869 47.866 55.2665 49.1811 54.0159C50.5072 52.7777 51.1781 51.0083 51.1781 48.7338C51.1781 46.4973 50.5205 44.7916 49.1811 43.5781C47.8417 42.3655 45.9963 41.7839 43.5945 41.7839H29.6317V55.8869Z" fill="#1C1C1C"/>
<rect x="3.5" y="2.5" width="72" height="73" stroke="#1C1C1C" stroke-width="5"/>
</g>
<defs>
<clipPath id="clip0">
<rect width="77.3333" height="77.3333" fill="white" transform="translate(0.719971 0.41333)"/>
</clipPath>
</defs>
</svg>
