<svg width="97" height="144" viewBox="0 0 97 144" fill="none" xmlns="http://www.w3.org/2000/svg">
<path d="M58.8168 0.112359C52.3688 0.517359 47.0758 1.58611 43.2071 3.27361C41.1101 4.19611 39.798 5.05111 38.5645 6.29986L37.7235 7.16611L37.3086 8.78611C35.6601 15.2211 34.7518 18.3599 31.6231 28.4399C24.065 52.6949 21.4297 61.1999 21.0372 62.4486L20.6335 63.7536L19.9831 63.8324C19.6355 63.8661 16.7199 64.1024 13.5239 64.3499C8.0852 64.7774 7.69271 64.7886 7.49086 64.6199C7.30023 64.4399 7.28901 64.4399 7.28901 64.7549C7.28901 64.9349 7.18809 66.8474 7.06474 69.0186C6.94138 71.1786 6.84046 73.1586 6.84046 73.4174V73.8674L8.71318 74.7786C10.956 75.8699 12.6492 76.6124 14.6677 77.3999C16.0919 77.9624 16.1592 77.9961 16.1031 78.2549C16.0583 78.4124 14.6229 83.0474 12.9072 88.5711C2.53433 121.86 -0.0112192 130.072 0.0224224 130.106C0.0448501 130.129 0.59433 130.252 1.24473 130.376C2.72497 130.68 3.75664 130.702 4.21641 130.466C4.64254 130.252 5.19202 129.634 5.48358 129.06C5.59572 128.835 6.89653 124.616 8.35433 119.7C9.82335 114.784 11.0457 110.734 11.0681 110.711C11.1017 110.666 14.9144 111.487 26.2405 113.962C27.9338 114.334 30.8382 114.975 32.6884 115.38C34.5387 115.785 37.6674 116.471 39.641 116.899C41.6147 117.337 45.7526 118.237 48.8364 118.912C60.1736 121.387 61.2838 121.635 61.3175 121.669C61.3399 121.68 60.1624 125.752 58.7158 130.702L56.0694 139.714V141.727V143.741L57.3814 143.876C58.4355 143.977 58.7158 143.977 58.8168 143.865C58.8841 143.786 59.2878 143.325 59.7027 142.852L60.4652 141.975L62.7977 133.852C69.055 112.016 70.782 106.031 70.8044 106.009C70.8156 105.986 73.7088 106.537 86.2235 108.945C88.9597 109.474 91.2361 109.946 91.2809 109.991C91.3258 110.036 91.7071 112.432 92.1108 115.312C93.0864 122.051 93.0864 122.062 93.2322 122.062C93.4116 122.062 96.8094 120.926 96.9215 120.836C96.9664 120.791 96.6075 118.305 96.1141 115.301C95.1385 109.305 93.4116 98.7411 92.7387 94.6124C92.5033 93.1611 91.8416 89.1336 91.2809 85.6686C89.1839 72.8211 87.3337 61.4699 86.6608 57.3411L85.9768 53.0886L86.6496 50.7036C87.0197 49.3874 88.6569 43.7061 90.2717 38.0811C91.8865 32.4449 93.905 25.4249 94.746 22.4774L96.2823 17.1111L95.8226 16.8636C95.5759 16.7286 95.3628 16.6049 95.3404 16.5824C95.3179 16.5711 95.5646 15.6261 95.8898 14.4899C96.2375 13.2749 96.473 12.2511 96.4617 11.9811C96.4057 10.9011 95.6543 9.38236 94.6227 8.25736C94.1629 7.75111 92.7275 6.59236 92.0098 6.13111C87.3337 3.14986 79.0466 0.989859 69.3578 0.224859C67.3393 0.0673586 60.7231 -0.000141386 58.8168 0.112359ZM34.1462 37.0686C35.077 37.2036 35.7947 37.4849 36.1984 37.8449L36.6133 38.2161L39.641 38.2949C55.733 38.6886 61.3735 39.2624 75.4133 41.9061C76.2656 42.0636 78.1831 42.5024 79.6746 42.8736C81.2669 43.2786 82.7472 43.5711 83.2967 43.6161C83.8013 43.6499 84.2162 43.7061 84.2162 43.7286C84.2162 43.8074 79.0578 61.3574 79.013 61.3911C79.0017 61.4136 76.6132 61.1549 73.72 60.8061C68.4495 60.1874 61.8782 59.4224 51.0568 58.1624C47.8608 57.7911 43.6668 57.2961 41.738 57.0711L38.2281 56.6661L37.5328 57.3299C36.1535 58.6686 34.0005 60.2886 33.922 60.0524C33.8995 59.9736 33.294 57.1949 32.5763 53.8874C31.8698 50.5799 31.1521 47.2611 30.9951 46.5186L30.6924 45.1686L31.9035 41.1186C32.5651 38.8911 33.137 37.0349 33.1594 36.9786C33.1819 36.9336 33.3164 36.9224 33.451 36.9449C33.5856 36.9786 33.8995 37.0349 34.1462 37.0686ZM28.4272 54.1349C28.6851 54.5061 29.3916 56.8461 30.0532 59.4786C30.356 60.7161 30.6139 61.7736 30.6139 61.8074C30.6139 62.0436 25.3434 63.3599 25.3434 63.1236C25.3321 62.9099 28.0908 53.8874 28.1692 53.8874C28.2141 53.8874 28.3262 53.9999 28.4272 54.1349ZM84.3171 61.8186C84.3283 62.0211 84.2723 62.0436 83.8798 62.0099C83.5209 61.9761 83.4312 61.9199 83.4761 61.7736C83.5097 61.6724 83.6106 61.2899 83.7116 60.9186C83.8125 60.5474 83.9246 60.1649 83.9583 60.0749C84.0143 59.9174 84.2947 61.2786 84.3171 61.8186ZM84.6423 63.9224C84.6199 63.9899 84.5302 64.0799 84.4629 64.1024C84.3844 64.1249 84.3508 64.0799 84.3956 63.9674C84.4741 63.7649 84.7096 63.7199 84.6423 63.9224ZM87.3561 82.6311C88.0401 87.3336 88.7466 92.1936 88.926 93.4311C90.0923 101.374 90.8324 106.571 90.81 106.594C90.7763 106.627 71.7352 103.05 71.6903 103.005C71.6679 102.994 72.3071 100.699 73.1032 97.9199C77.5664 82.3274 78.3177 79.7399 78.5644 78.9074L78.8448 77.9849L80.1343 77.2761C80.852 76.8824 82.4556 75.8699 83.6891 75.0374C85.9207 73.5411 85.9543 73.5186 86.0328 73.7999C86.0889 73.9574 86.6832 77.9286 87.3561 82.6311ZM22.652 79.9649C25.8143 80.7861 29.2234 81.3936 32.4642 81.7311C34.7294 81.9674 34.9873 82.0011 34.9873 82.1024C34.9873 82.2036 37.3871 93.8136 38.4636 98.8874C38.9009 100.957 39.6635 104.479 40.1681 106.706C40.6615 108.934 41.0988 110.869 41.1325 111.004C41.1661 111.184 41.2558 111.262 41.424 111.262C41.7044 111.251 44.7321 110.632 44.7882 110.576C44.8106 110.554 44.3397 108.315 43.7565 105.604C43.1734 102.904 42.7136 100.665 42.7361 100.642C42.7585 100.609 43.1398 100.665 43.5659 100.755C44.0032 100.834 47.2777 101.464 50.8549 102.15C62.8426 104.445 66.0946 105.086 66.1506 105.131C66.1955 105.187 62.3716 118.35 62.2819 118.451C62.2594 118.485 60.7904 118.192 59.0074 117.81C57.2356 117.427 53.8939 116.719 51.5838 116.224C49.2738 115.729 45.8199 114.986 43.9023 114.581C41.996 114.176 38.8897 113.512 37.0058 113.107C35.1219 112.702 31.7016 111.971 29.414 111.476C27.1151 110.992 23.3249 110.182 21.0036 109.687C13.4454 108.067 12.0661 107.775 12.0213 107.719C11.9876 107.685 12.1558 107.044 12.3801 106.29C12.7838 104.951 20.241 80.0324 20.3644 79.6161C20.4092 79.4699 20.499 79.4249 20.6672 79.4586C20.8017 79.4924 21.6988 79.7174 22.652 79.9649ZM73.6303 79.8411C73.5967 79.9536 72.1276 84.9824 70.3558 91.0124C68.5953 97.0424 67.115 102.015 67.0702 102.06C67.0141 102.127 43.6668 97.8299 42.209 97.4811C42.0072 97.4361 41.8277 96.7274 40.3812 89.9774C39.4953 85.8711 38.7439 82.4624 38.7215 82.3949C38.6879 82.3049 40.2354 82.2486 44.2612 82.2036C47.3338 82.1586 50.5521 82.0799 51.4156 82.0236C52.2791 81.9561 54.0957 81.8549 55.4526 81.7874C58.2336 81.6636 59.5905 81.5286 61.452 81.2249C62.7528 81.0111 64.9956 80.5386 65.7133 80.3249C65.9264 80.2686 66.4871 80.2124 66.958 80.2124C68.1579 80.2124 71.0735 79.9986 72.2734 79.8299C73.6976 79.6161 73.6976 79.6161 73.6303 79.8411Z" fill="#6FCF97"/>
</svg>
