<svg width="171" height="34" viewBox="0 0 171 34" fill="none" xmlns="http://www.w3.org/2000/svg">
<path opacity="0.5" d="M0.75 20.1797C0.75 20.1484 0.75 20.1094 0.75 20.0625C0.765625 20 0.78125 19.9688 0.796875 19.9688L5.74219 13.2188H6.28125C6.28125 13.5938 6.19531 13.9922 6.02344 14.4141C5.86719 14.8359 5.65625 15.2578 5.39062 15.6797C5.14062 16.0859 4.85156 16.4844 4.52344 16.875C4.19531 17.2656 3.875 17.6328 3.5625 17.9766C3.26562 18.3047 2.98438 18.6016 2.71875 18.8672C2.46875 19.1328 2.27344 19.3438 2.13281 19.5V20.3906C2.27344 20.4375 2.46875 20.5234 2.71875 20.6484C2.98438 20.7578 3.28125 20.8906 3.60938 21.0469C3.9375 21.1875 4.27344 21.3359 4.61719 21.4922C4.97656 21.6484 5.32031 21.8047 5.64844 21.9609C5.97656 22.1172 6.26562 22.2578 6.51562 22.3828C6.78125 22.5078 6.96875 22.5938 7.07812 22.6406C7.125 22.6719 7.19531 22.7266 7.28906 22.8047C7.38281 22.8828 7.47656 22.9688 7.57031 23.0625C7.66406 23.1562 7.75 23.25 7.82812 23.3438C7.92188 23.4375 7.97656 23.5078 7.99219 23.5547C7.89844 23.7422 7.80469 23.8672 7.71094 23.9297C7.61719 23.9922 7.49219 24.0234 7.33594 24.0234C7.21094 24.0234 6.96094 23.9375 6.58594 23.7656C6.21094 23.5938 5.78125 23.3828 5.29688 23.1328C4.8125 22.8672 4.30469 22.5859 3.77344 22.2891C3.24219 21.9766 2.75 21.6797 2.29688 21.3984C1.85938 21.1016 1.49219 20.8438 1.19531 20.625C0.898438 20.4062 0.75 20.2578 0.75 20.1797ZM12.1406 11.3906C12.1719 11.2969 12.2109 11.1953 12.2578 11.0859C12.3047 10.9609 12.3594 10.8828 12.4219 10.8516C12.5 10.8047 12.5859 10.8203 12.6797 10.8984C12.7734 10.9609 12.8906 11.125 13.0312 11.3906L9.23438 24.2578L8.53125 23.5547L12.1406 11.3906ZM13.8047 17.9297C13.8047 17.4453 13.8516 16.9062 13.9453 16.3125C14.0547 15.7031 14.2109 15.0938 14.4141 14.4844C14.6172 13.8594 14.8672 13.2578 15.1641 12.6797C15.4766 12.0859 15.8281 11.5625 16.2188 11.1094C16.625 10.6406 17.0781 10.2656 17.5781 9.98438C18.0938 9.70312 18.6562 9.5625 19.2656 9.5625C19.7031 9.5625 20.0703 9.64844 20.3672 9.82031C20.6797 9.99219 20.9297 10.2188 21.1172 10.5C21.3047 10.7812 21.4375 11.1016 21.5156 11.4609C21.6094 11.8047 21.6562 12.1562 21.6562 12.5156C21.3125 12.5156 21.0547 12.4141 20.8828 12.2109C20.7109 11.9922 20.5469 11.7578 20.3906 11.5078C20.25 11.2422 20.0781 11.0078 19.875 10.8047C19.6875 10.5859 19.3984 10.4766 19.0078 10.4766C18.4922 10.4766 18.0312 10.6172 17.625 10.8984C17.2344 11.1797 16.8906 11.5469 16.5938 12C16.2969 12.4375 16.0469 12.9375 15.8438 13.5C15.6562 14.0625 15.5 14.625 15.375 15.1875C15.2656 15.75 15.1875 16.2969 15.1406 16.8281C15.0938 17.3438 15.0703 17.7812 15.0703 18.1406C15.0078 18.6719 15 19.2266 15.0469 19.8047C15.1094 20.3672 15.2422 20.8906 15.4453 21.375C15.6484 21.8438 15.9453 22.2422 16.3359 22.5703C16.7266 22.8828 17.2422 23.0625 17.8828 23.1094C18.2891 23.1094 18.7422 23.0469 19.2422 22.9219C19.7422 22.7812 20.2344 22.625 20.7188 22.4531C21.2188 22.2656 21.6953 22.0703 22.1484 21.8672C22.6016 21.6484 22.9844 21.4609 23.2969 21.3047V22.2188C23.2812 22.2188 23.1797 22.2578 22.9922 22.3359C22.8203 22.3984 22.5859 22.4844 22.2891 22.5938C22.0078 22.7031 21.6797 22.8203 21.3047 22.9453C20.9453 23.0703 20.5859 23.2031 20.2266 23.3438C19.8672 23.4688 19.5156 23.5938 19.1719 23.7188C18.8438 23.8281 18.5625 23.9219 18.3281 24C18.3125 24 18.2812 24 18.2344 24C18.1875 24.0156 18.1484 24.0234 18.1172 24.0234C17.2578 24.0234 16.5469 23.8438 15.9844 23.4844C15.4375 23.1094 15 22.6328 14.6719 22.0547C14.3438 21.4609 14.1172 20.8047 13.9922 20.0859C13.8672 19.3516 13.8047 18.6328 13.8047 17.9297ZM25.125 7.92188L25.7344 15.6094C25.8438 15.5156 25.9844 15.375 26.1562 15.1875C26.3281 15 26.5312 14.8281 26.7656 14.6719C27 14.5 27.2578 14.3594 27.5391 14.25C27.8203 14.125 28.125 14.0703 28.4531 14.0859C29.0938 14.1484 29.6016 14.4062 29.9766 14.8594C30.3672 15.3125 30.6562 15.8672 30.8438 16.5234C31.0469 17.1797 31.1797 17.8984 31.2422 18.6797C31.3047 19.4453 31.3203 20.1797 31.2891 20.8828C31.2734 21.5859 31.2344 22.2109 31.1719 22.7578C31.125 23.3047 31.0859 23.6797 31.0547 23.8828L30.2109 23.7656C30.2109 23.625 30.2109 23.4062 30.2109 23.1094C30.2266 22.7969 30.2422 22.4375 30.2578 22.0312C30.2734 21.6094 30.2812 21.1719 30.2812 20.7188C30.2812 20.2656 30.2812 19.8438 30.2812 19.4531C30.2969 19.0469 30.2969 18.6875 30.2812 18.375C30.2812 18.0625 30.2734 17.8438 30.2578 17.7188C30.2734 17.2812 30.1875 16.8594 30 16.4531C29.8125 16.0469 29.5625 15.7422 29.25 15.5391C28.9375 15.3203 28.5625 15.25 28.125 15.3281C27.6875 15.3906 27.2188 15.6953 26.7188 16.2422C26.2812 16.8984 25.9609 17.5469 25.7578 18.1875C25.5547 18.8125 25.4219 19.4375 25.3594 20.0625C25.2969 20.6719 25.2734 21.3047 25.2891 21.9609C25.3047 22.6016 25.3047 23.2812 25.2891 24L24.375 23.8594C24.4219 23.6875 24.4531 23.375 24.4688 22.9219C24.5 22.4531 24.5234 21.8984 24.5391 21.2578C24.5547 20.6016 24.5625 19.875 24.5625 19.0781C24.5781 18.2812 24.5781 17.4609 24.5625 16.6172C24.5625 15.7578 24.5547 14.8984 24.5391 14.0391C24.5234 13.1797 24.5 12.3594 24.4688 11.5781C24.4531 10.7969 24.4297 10.0781 24.3984 9.42188C24.3828 8.76562 24.3672 8.22656 24.3516 7.80469L25.125 7.92188ZM32.1094 14.8594C32.2969 14.7812 32.4609 14.7656 32.6016 14.8125C32.7422 14.8594 32.8594 14.9453 32.9531 15.0703C33.0469 15.1953 33.1172 15.3438 33.1641 15.5156C33.2109 15.6719 33.25 15.8281 33.2812 15.9844C33.4844 15.6406 33.7734 15.3672 34.1484 15.1641C34.5391 14.9453 34.9531 14.8047 35.3906 14.7422C35.8281 14.6641 36.2656 14.6484 36.7031 14.6953C37.1406 14.7266 37.5078 14.8203 37.8047 14.9766C38.1172 15.1172 38.3359 15.3203 38.4609 15.5859C38.5859 15.8359 38.5547 16.1328 38.3672 16.4766C37.9609 16.2422 37.5312 16.0547 37.0781 15.9141C36.6406 15.7734 36.2109 15.7266 35.7891 15.7734C35.3672 15.8203 34.9766 15.9844 34.6172 16.2656C34.2578 16.5312 33.9609 16.9609 33.7266 17.5547C33.4922 18.1484 33.3438 18.9375 33.2812 19.9219C33.2344 20.8906 33.3047 22.1016 33.4922 23.5547H32.6016C32.6016 23.5547 32.5859 23.4297 32.5547 23.1797C32.5391 22.9141 32.5156 22.5703 32.4844 22.1484C32.4688 21.7266 32.4375 21.2578 32.3906 20.7422C32.3594 20.2266 32.3281 19.7031 32.2969 19.1719C32.2656 18.6406 32.2344 18.1328 32.2031 17.6484C32.1875 17.1484 32.1641 16.7188 32.1328 16.3594C32.1328 16.3125 32.125 16.2188 32.1094 16.0781C32.1094 15.9375 32.1094 15.7891 32.1094 15.6328C32.1094 15.4609 32.1094 15.3047 32.1094 15.1641C32.1094 15.0234 32.1094 14.9219 32.1094 14.8594ZM40.5469 14.9062C40.7344 14.9062 40.8906 14.8984 41.0156 14.8828C41.1562 14.8672 41.2734 14.9453 41.3672 15.1172C41.4141 15.8203 41.4688 16.5391 41.5312 17.2734C41.5938 17.9922 41.6562 18.7188 41.7188 19.4531C41.7812 20.1875 41.8203 20.9297 41.8359 21.6797C41.8672 22.4141 41.875 23.1328 41.8594 23.8359C41.8594 23.9297 41.8359 23.9844 41.7891 24C41.7422 24.0312 41.6719 24.0391 41.5781 24.0234C41.5 24.0234 41.3984 24.0156 41.2734 24C41.1641 24 41.0391 24.0156 40.8984 24.0469L40.5469 14.9062ZM39.1875 10.7109C39.1875 10.6016 39.1953 10.4844 39.2109 10.3594C39.2266 10.2188 39.2578 10.0938 39.3047 9.98438C39.3672 9.875 39.4375 9.78125 39.5156 9.70312C39.6094 9.625 39.7188 9.58594 39.8438 9.58594C40.0312 9.58594 40.2188 9.59375 40.4062 9.60938C40.5938 9.625 40.7734 9.66406 40.9453 9.72656C41.1172 9.77344 41.2578 9.85938 41.3672 9.98438C41.4766 10.0938 41.5312 10.2578 41.5312 10.4766C41.5312 10.8516 41.3906 11.1875 41.1094 11.4844C40.8281 11.7656 40.4844 11.9062 40.0781 11.9062C39.7656 11.9062 39.5391 11.7891 39.3984 11.5547C39.2578 11.3047 39.1875 11.0234 39.1875 10.7109ZM40.5469 10.8281C40.5 10.8281 40.4766 10.8672 40.4766 10.9453C40.4766 11.0234 40.5 11.0625 40.5469 11.0625C40.6094 11.0625 40.6406 11.0234 40.6406 10.9453C40.6406 10.8672 40.6094 10.8281 40.5469 10.8281ZM44.0625 22.1016C44.3438 22.1016 44.6016 22.1562 44.8359 22.2656C45.0859 22.375 45.3281 22.5 45.5625 22.6406C45.7969 22.7656 46.0312 22.8828 46.2656 22.9922C46.5156 23.0859 46.7812 23.1328 47.0625 23.1328C47.3906 23.1328 47.7266 23.0781 48.0703 22.9688C48.4297 22.8438 48.7578 22.6797 49.0547 22.4766C49.3516 22.2578 49.5938 22 49.7812 21.7031C49.9688 21.3906 50.0625 21.0547 50.0625 20.6953C50.0781 20.5859 50.0781 20.4531 50.0625 20.2969C50.0625 20.1406 50.0156 19.9844 49.9219 19.8281C49.8281 19.6562 49.6719 19.5 49.4531 19.3594C49.2344 19.2031 48.9141 19.0859 48.4922 19.0078C48.0859 18.9297 47.5703 18.8906 46.9453 18.8906C46.3203 18.875 45.5469 18.9297 44.625 19.0547C44.3906 19.0547 44.1641 18.9922 43.9453 18.8672C43.7266 18.7266 43.5312 18.5625 43.3594 18.375C43.1875 18.1719 43.0469 17.9609 42.9375 17.7422C42.8281 17.5078 42.7734 17.2891 42.7734 17.0859C42.7734 16.4766 42.8984 15.9844 43.1484 15.6094C43.4141 15.2188 43.75 14.9141 44.1562 14.6953C44.5625 14.4609 45.0156 14.2969 45.5156 14.2031C46.0156 14.1094 46.5234 14.0625 47.0391 14.0625C47.2734 14.0625 47.5391 14.0781 47.8359 14.1094C48.1484 14.125 48.4297 14.1875 48.6797 14.2969C48.9453 14.3906 49.1641 14.5469 49.3359 14.7656C49.5234 14.9844 49.6172 15.2891 49.6172 15.6797C49.5859 15.9453 49.5391 16.1094 49.4766 16.1719C49.4297 16.2188 49.3516 16.2031 49.2422 16.125C49.1484 16.0312 49.0312 15.9062 48.8906 15.75C48.75 15.5938 48.5781 15.4453 48.375 15.3047C48.1875 15.1484 47.9531 15.0312 47.6719 14.9531C47.4062 14.875 47.1016 14.875 46.7578 14.9531C46.3984 14.9531 46.0391 14.9922 45.6797 15.0703C45.3203 15.1328 44.9922 15.25 44.6953 15.4219C44.4141 15.5938 44.1797 15.8281 43.9922 16.125C43.8203 16.4219 43.7344 16.7969 43.7344 17.25C43.7344 17.4844 43.8359 17.6484 44.0391 17.7422C44.2578 17.8203 44.5391 17.8594 44.8828 17.8594C45.2422 17.8594 45.6406 17.8516 46.0781 17.8359C46.5312 17.8047 46.9922 17.7891 47.4609 17.7891C47.9297 17.7891 48.3828 17.8281 48.8203 17.9062C49.2578 17.9688 49.6406 18.1094 49.9688 18.3281C50.3125 18.5312 50.5781 18.8281 50.7656 19.2188C50.9531 19.6094 51.0234 20.1172 50.9766 20.7422C50.9766 21.1953 50.8438 21.625 50.5781 22.0312C50.3281 22.4375 50 22.7969 49.5938 23.1094C49.2031 23.4062 48.7656 23.6406 48.2812 23.8125C47.7969 23.9844 47.3281 24.0469 46.875 24C46.6875 23.9844 46.4297 23.9375 46.1016 23.8594C45.7891 23.7656 45.4766 23.6406 45.1641 23.4844C44.8672 23.3281 44.6094 23.1406 44.3906 22.9219C44.1719 22.6875 44.0625 22.4141 44.0625 22.1016ZM54.9375 15.4922C54.7969 15.4453 54.6016 15.4297 54.3516 15.4453C54.1172 15.4453 53.8594 15.4609 53.5781 15.4922C53.3125 15.5078 53.0547 15.5312 52.8047 15.5625C52.5547 15.5938 52.3438 15.6094 52.1719 15.6094C52.0938 15.6094 52.0391 15.5 52.0078 15.2812C51.9922 15.0469 51.9609 14.7344 51.9141 14.3438L55.2188 14.1094C55.2656 13.5625 55.2969 13.1719 55.3125 12.9375C55.3281 12.7031 55.3281 12.5078 55.3125 12.3516C55.3125 12.1797 55.3047 11.9922 55.2891 11.7891C55.2891 11.5703 55.2891 11.2344 55.2891 10.7812C55.6953 10.7188 56 10.7031 56.2031 10.7344C56.4219 10.75 56.5703 10.8047 56.6484 10.8984C56.7266 10.9922 56.7578 11.1328 56.7422 11.3203C56.7422 11.4922 56.7188 11.7109 56.6719 11.9766C56.6406 12.2422 56.6094 12.5625 56.5781 12.9375C56.5625 13.3125 56.5781 13.7344 56.625 14.2031L59.4375 14.1094V15.2578C59.3125 15.2578 59.1172 15.2656 58.8516 15.2812C58.5859 15.2969 58.2969 15.3125 57.9844 15.3281C57.6875 15.3438 57.4062 15.3594 57.1406 15.375C56.8906 15.3906 56.7031 15.4219 56.5781 15.4688C56.4531 16.0312 56.3203 16.6328 56.1797 17.2734C56.0391 17.9141 55.9453 18.5469 55.8984 19.1719C55.8516 19.7969 55.8672 20.3828 55.9453 20.9297C56.0234 21.4609 56.2188 21.9062 56.5312 22.2656C56.8438 22.6094 57.2891 22.8516 57.8672 22.9922C58.4453 23.1172 59.2109 23.0703 60.1641 22.8516C60.1328 23.0859 60.0391 23.2812 59.8828 23.4375C59.7422 23.5781 59.5703 23.6953 59.3672 23.7891C59.1797 23.8672 58.9766 23.9297 58.7578 23.9766C58.5391 24.0078 58.3438 24.0234 58.1719 24.0234C57.375 24.0234 56.7422 23.8828 56.2734 23.6016C55.8047 23.3047 55.4531 22.9219 55.2188 22.4531C54.9844 21.9844 54.8359 21.4531 54.7734 20.8594C54.7109 20.25 54.6875 19.6328 54.7031 19.0078C54.7344 18.3828 54.7812 17.7656 54.8438 17.1562C54.9062 16.5469 54.9375 15.9922 54.9375 15.4922ZM61.0781 19.7109C61.0781 19.3516 61.1094 18.9375 61.1719 18.4688C61.2344 17.9844 61.3359 17.5 61.4766 17.0156C61.6172 16.5312 61.7891 16.0547 61.9922 15.5859C62.2109 15.1172 62.4688 14.7031 62.7656 14.3438C63.0625 13.9688 63.4062 13.6719 63.7969 13.4531C64.1875 13.2188 64.625 13.1016 65.1094 13.1016C65.6094 13.1016 66.0703 13.2734 66.4922 13.6172C66.9297 13.9609 67.2969 14.4062 67.5938 14.9531C67.9062 15.5 68.1406 16.1094 68.2969 16.7812C68.4531 17.4531 68.5156 18.1094 68.4844 18.75C68.4844 19.6875 68.3047 20.5234 67.9453 21.2578C67.5859 21.9922 67.125 22.5859 66.5625 23.0391C66.0156 23.4922 65.4219 23.7969 64.7812 23.9531C64.1562 24.1094 63.5625 24.0703 63 23.8359C62.4531 23.5859 61.9922 23.125 61.6172 22.4531C61.2578 21.7812 61.0781 20.8672 61.0781 19.7109ZM61.9453 19.8047C61.9922 20.7578 62.1562 21.4922 62.4375 22.0078C62.7188 22.5234 63.0547 22.8672 63.4453 23.0391C63.8516 23.1953 64.2891 23.1953 64.7578 23.0391C65.2266 22.8828 65.6641 22.6094 66.0703 22.2188C66.4766 21.8125 66.8203 21.3125 67.1016 20.7188C67.3984 20.1094 67.5625 19.4297 67.5938 18.6797C67.625 18.1172 67.5781 17.5703 67.4531 17.0391C67.3438 16.5078 67.1797 16.0391 66.9609 15.6328C66.7578 15.2109 66.5 14.8828 66.1875 14.6484C65.8906 14.3984 65.5469 14.2734 65.1562 14.2734C64.7812 14.2734 64.4453 14.3672 64.1484 14.5547C63.8516 14.7422 63.5781 15 63.3281 15.3281C63.0938 15.6406 62.8906 16 62.7188 16.4062C62.5469 16.8125 62.3984 17.2188 62.2734 17.625C62.1641 18.0312 62.0781 18.4297 62.0156 18.8203C61.9688 19.1953 61.9453 19.5234 61.9453 19.8047ZM70.4531 17.9297C70.3906 17.9766 70.3047 17.9922 70.1953 17.9766C70.0859 17.9609 69.9844 17.9375 69.8906 17.9062C69.7969 17.8594 69.7109 17.8047 69.6328 17.7422C69.5703 17.6641 69.5391 17.5781 69.5391 17.4844C69.5391 16.9531 69.7031 16.4688 70.0312 16.0312C70.3594 15.5781 70.7656 15.1953 71.25 14.8828C71.7344 14.5547 72.25 14.3047 72.7969 14.1328C73.3438 13.9453 73.8438 13.8516 74.2969 13.8516C75.0156 13.8516 75.6641 13.9766 76.2422 14.2266C76.8359 14.4609 77.3359 14.7891 77.7422 15.2109C78.1641 15.6328 78.4844 16.125 78.7031 16.6875C78.9375 17.25 79.0547 17.8516 79.0547 18.4922C79.0703 19.3047 78.8828 20.0469 78.4922 20.7188C78.1172 21.3906 77.6172 21.9688 76.9922 22.4531C76.3828 22.9219 75.6953 23.2812 74.9297 23.5312C74.1797 23.7656 73.4375 23.8516 72.7031 23.7891C72.7344 24.3516 72.7266 24.9922 72.6797 25.7109C72.6328 26.4453 72.5703 27.2422 72.4922 28.1016C72.4141 28.9609 72.3125 29.8672 72.1875 30.8203C72.0781 31.7891 71.9609 32.7812 71.8359 33.7969C71.8359 33.8125 71.7891 33.8203 71.6953 33.8203C71.6016 33.8203 71.5 33.8047 71.3906 33.7734C71.2969 33.7578 71.1953 33.7344 71.0859 33.7031C70.9922 33.6875 70.9375 33.6875 70.9219 33.7031C71.0312 32.4062 71.1172 31.0938 71.1797 29.7656C71.2422 28.4375 71.2656 27.1016 71.25 25.7578C71.2344 24.4297 71.1641 23.1094 71.0391 21.7969C70.9141 20.4844 70.7188 19.1953 70.4531 17.9297ZM74.0156 15.1641C73.7188 15.1797 73.3984 15.2266 73.0547 15.3047C72.7109 15.3672 72.4062 15.4688 72.1406 15.6094C71.875 15.75 71.6641 15.9375 71.5078 16.1719C71.3516 16.4062 71.2969 16.6953 71.3438 17.0391C71.375 17.1953 71.4141 17.4219 71.4609 17.7188C71.5234 18.0156 71.5859 18.3516 71.6484 18.7266C71.7266 19.1016 71.7969 19.4922 71.8594 19.8984C71.9375 20.3047 72.0078 20.6953 72.0703 21.0703C72.1484 21.4453 72.2109 21.7891 72.2578 22.1016C72.3203 22.3984 72.3672 22.625 72.3984 22.7812C72.5859 22.75 72.8516 22.7188 73.1953 22.6875C73.5391 22.6562 73.9062 22.5938 74.2969 22.5C74.6875 22.4062 75.0859 22.2812 75.4922 22.125C75.9141 21.9531 76.3047 21.7188 76.6641 21.4219C77.0234 21.125 77.3359 20.7578 77.6016 20.3203C77.8828 19.8672 78.0703 19.3125 78.1641 18.6562C78.1641 18.0469 78.0547 17.5234 77.8359 17.0859C77.6172 16.6484 77.3203 16.2891 76.9453 16.0078C76.5703 15.7109 76.125 15.5 75.6094 15.375C75.1094 15.2344 74.5781 15.1641 74.0156 15.1641ZM81.2578 7.92188L81.8672 15.6094C81.9766 15.5156 82.1172 15.375 82.2891 15.1875C82.4609 15 82.6641 14.8281 82.8984 14.6719C83.1328 14.5 83.3906 14.3594 83.6719 14.25C83.9531 14.125 84.2578 14.0703 84.5859 14.0859C85.2266 14.1484 85.7344 14.4062 86.1094 14.8594C86.5 15.3125 86.7891 15.8672 86.9766 16.5234C87.1797 17.1797 87.3125 17.8984 87.375 18.6797C87.4375 19.4453 87.4531 20.1797 87.4219 20.8828C87.4062 21.5859 87.3672 22.2109 87.3047 22.7578C87.2578 23.3047 87.2188 23.6797 87.1875 23.8828L86.3438 23.7656C86.3438 23.625 86.3438 23.4062 86.3438 23.1094C86.3594 22.7969 86.375 22.4375 86.3906 22.0312C86.4062 21.6094 86.4141 21.1719 86.4141 20.7188C86.4141 20.2656 86.4141 19.8438 86.4141 19.4531C86.4297 19.0469 86.4297 18.6875 86.4141 18.375C86.4141 18.0625 86.4062 17.8438 86.3906 17.7188C86.4062 17.2812 86.3203 16.8594 86.1328 16.4531C85.9453 16.0469 85.6953 15.7422 85.3828 15.5391C85.0703 15.3203 84.6953 15.25 84.2578 15.3281C83.8203 15.3906 83.3516 15.6953 82.8516 16.2422C82.4141 16.8984 82.0938 17.5469 81.8906 18.1875C81.6875 18.8125 81.5547 19.4375 81.4922 20.0625C81.4297 20.6719 81.4062 21.3047 81.4219 21.9609C81.4375 22.6016 81.4375 23.2812 81.4219 24L80.5078 23.8594C80.5547 23.6875 80.5859 23.375 80.6016 22.9219C80.6328 22.4531 80.6562 21.8984 80.6719 21.2578C80.6875 20.6016 80.6953 19.875 80.6953 19.0781C80.7109 18.2812 80.7109 17.4609 80.6953 16.6172C80.6953 15.7578 80.6875 14.8984 80.6719 14.0391C80.6562 13.1797 80.6328 12.3594 80.6016 11.5781C80.5859 10.7969 80.5625 10.0781 80.5312 9.42188C80.5156 8.76562 80.5 8.22656 80.4844 7.80469L81.2578 7.92188ZM88.5469 18.4922C88.5469 18.0234 88.6484 17.5078 88.8516 16.9453C89.0547 16.3672 89.3281 15.8359 89.6719 15.3516C90.0312 14.8516 90.4297 14.4375 90.8672 14.1094C91.3203 13.7656 91.7891 13.5938 92.2734 13.5938C92.5391 13.5938 92.7969 13.6484 93.0469 13.7578C93.3125 13.8672 93.5625 14.0156 93.7969 14.2031C94.0469 14.375 94.2656 14.5781 94.4531 14.8125C94.6562 15.0312 94.8125 15.2656 94.9219 15.5156C95.0312 15.7656 95.0859 16.0078 95.0859 16.2422C95.1016 16.4766 95.0391 16.6797 94.8984 16.8516L89.9531 17.7656C89.8906 17.7812 89.8359 17.8594 89.7891 18C89.7422 18.125 89.7031 18.2891 89.6719 18.4922C89.6406 18.6953 89.6094 18.9219 89.5781 19.1719C89.5625 19.4062 89.5469 19.6406 89.5312 19.875C89.5156 20.0938 89.5078 20.2969 89.5078 20.4844C89.5078 20.6562 89.5078 20.7891 89.5078 20.8828C89.5078 21.3203 89.6094 21.6797 89.8125 21.9609C90.0312 22.2266 90.3047 22.4297 90.6328 22.5703C90.9609 22.7109 91.3281 22.8047 91.7344 22.8516C92.1562 22.8984 92.5703 22.9219 92.9766 22.9219C93.3828 22.9219 93.7656 22.9062 94.125 22.875C94.4844 22.8438 94.7812 22.8281 95.0156 22.8281C95.0156 22.8906 94.9922 22.9609 94.9453 23.0391C94.8984 23.1172 94.8438 23.1953 94.7812 23.2734C94.7188 23.3359 94.6562 23.3984 94.5938 23.4609C94.5312 23.5078 94.4922 23.5391 94.4766 23.5547C94.3516 23.5859 94.1562 23.6328 93.8906 23.6953C93.6406 23.7422 93.3672 23.7891 93.0703 23.8359C92.7891 23.8828 92.5234 23.9219 92.2734 23.9531C92.0234 23.9844 91.8516 24 91.7578 24C91.2734 24.0938 90.8516 24.0859 90.4922 23.9766C90.1328 23.8672 89.8281 23.6797 89.5781 23.4141C89.3281 23.1484 89.125 22.8281 88.9688 22.4531C88.8125 22.0625 88.6953 21.6484 88.6172 21.2109C88.5391 20.7734 88.4922 20.3203 88.4766 19.8516C88.4766 19.3828 88.5 18.9297 88.5469 18.4922ZM91.9453 14.4844C91.8047 14.4844 91.6172 14.5625 91.3828 14.7188C91.1641 14.8594 90.9531 15.0469 90.75 15.2812C90.5625 15.5 90.3984 15.7422 90.2578 16.0078C90.1328 16.2578 90.0938 16.4766 90.1406 16.6641C90.5469 16.7109 90.9688 16.7031 91.4062 16.6406C91.8438 16.5781 92.2422 16.4844 92.6016 16.3594C92.9609 16.2188 93.2578 16.0625 93.4922 15.8906C93.7266 15.7031 93.8359 15.5156 93.8203 15.3281C93.8203 15.1406 93.6719 14.9766 93.375 14.8359C93.0938 14.6797 92.6172 14.5625 91.9453 14.4844ZM96.1406 14.8594C96.3281 14.7812 96.4922 14.7656 96.6328 14.8125C96.7734 14.8594 96.8906 14.9453 96.9844 15.0703C97.0781 15.1953 97.1484 15.3438 97.1953 15.5156C97.2422 15.6719 97.2812 15.8281 97.3125 15.9844C97.5156 15.6406 97.8047 15.3672 98.1797 15.1641C98.5703 14.9453 98.9844 14.8047 99.4219 14.7422C99.8594 14.6641 100.297 14.6484 100.734 14.6953C101.172 14.7266 101.539 14.8203 101.836 14.9766C102.148 15.1172 102.367 15.3203 102.492 15.5859C102.617 15.8359 102.586 16.1328 102.398 16.4766C101.992 16.2422 101.562 16.0547 101.109 15.9141C100.672 15.7734 100.242 15.7266 99.8203 15.7734C99.3984 15.8203 99.0078 15.9844 98.6484 16.2656C98.2891 16.5312 97.9922 16.9609 97.7578 17.5547C97.5234 18.1484 97.375 18.9375 97.3125 19.9219C97.2656 20.8906 97.3359 22.1016 97.5234 23.5547H96.6328C96.6328 23.5547 96.6172 23.4297 96.5859 23.1797C96.5703 22.9141 96.5469 22.5703 96.5156 22.1484C96.5 21.7266 96.4688 21.2578 96.4219 20.7422C96.3906 20.2266 96.3594 19.7031 96.3281 19.1719C96.2969 18.6406 96.2656 18.1328 96.2344 17.6484C96.2188 17.1484 96.1953 16.7188 96.1641 16.3594C96.1641 16.3125 96.1562 16.2188 96.1406 16.0781C96.1406 15.9375 96.1406 15.7891 96.1406 15.6328C96.1406 15.4609 96.1406 15.3047 96.1406 15.1641C96.1406 15.0234 96.1406 14.9219 96.1406 14.8594ZM107.227 9.39844C107.805 9.39844 108.305 9.57031 108.727 9.91406C109.164 10.2422 109.539 10.6875 109.852 11.25C110.18 11.8125 110.453 12.4609 110.672 13.1953C110.891 13.9297 111.07 14.7031 111.211 15.5156C111.352 16.3125 111.461 17.125 111.539 17.9531C111.617 18.7656 111.672 19.5312 111.703 20.25C111.734 20.9688 111.75 21.6172 111.75 22.1953C111.766 22.7734 111.773 23.2266 111.773 23.5547H111.211L110.32 18.6094C110.242 18.5312 110.062 18.4844 109.781 18.4688C109.516 18.4531 109.195 18.4609 108.82 18.4922C108.461 18.5234 108.062 18.5703 107.625 18.6328C107.203 18.6797 106.797 18.7188 106.406 18.75C106.031 18.7656 105.688 18.7734 105.375 18.7734C105.062 18.7578 104.836 18.7031 104.695 18.6094V23.5547H103.5C103.5 23.5078 103.5 23.4219 103.5 23.2969C103.516 23.1562 103.523 23.0156 103.523 22.875C103.523 22.7344 103.531 22.6016 103.547 22.4766C103.562 22.3516 103.57 22.2656 103.57 22.2188C103.664 21.3125 103.734 20.3984 103.781 19.4766C103.844 18.5391 103.914 17.6328 103.992 16.7578C104.07 15.8828 104.172 15.0469 104.297 14.25C104.438 13.4531 104.633 12.7344 104.883 12.0938C105.133 11.4375 105.445 10.8828 105.82 10.4297C106.195 9.96094 106.664 9.61719 107.227 9.39844ZM107.602 10.4766C107.195 10.4766 106.852 10.625 106.57 10.9219C106.305 11.2031 106.086 11.5781 105.914 12.0469C105.742 12.5 105.609 13.0078 105.516 13.5703C105.422 14.1328 105.359 14.6875 105.328 15.2344C105.297 15.7656 105.273 16.2656 105.258 16.7344C105.258 17.1875 105.258 17.5391 105.258 17.7891C106.023 17.7891 106.805 17.7344 107.602 17.625C108.398 17.5 109.148 17.375 109.852 17.25C109.867 17.1875 109.875 17.0859 109.875 16.9453C109.891 16.8047 109.898 16.6484 109.898 16.4766C109.914 16.3047 109.922 16.1406 109.922 15.9844C109.938 15.8281 109.945 15.7266 109.945 15.6797C109.945 15.1641 109.914 14.6719 109.852 14.2031C109.805 13.7344 109.695 13.2812 109.523 12.8438C109.367 12.3906 109.133 11.9688 108.82 11.5781C108.523 11.1875 108.117 10.8203 107.602 10.4766ZM113.648 23.3672C113.633 23.0391 113.594 22.5391 113.531 21.8672C113.484 21.1797 113.43 20.4141 113.367 19.5703C113.305 18.7109 113.242 17.8047 113.18 16.8516C113.117 15.8984 113.055 15 112.992 14.1562C112.945 13.2969 112.898 12.5312 112.852 11.8594C112.805 11.1719 112.773 10.6641 112.758 10.3359C112.742 10.1953 112.727 9.95312 112.711 9.60938C112.711 9.25 112.703 8.875 112.688 8.48438C112.672 8.07812 112.656 7.70312 112.641 7.35938C112.641 7 112.641 6.75 112.641 6.60938C112.859 6.60938 113.055 6.65625 113.227 6.75C113.398 6.82813 113.539 6.96875 113.648 7.17188C113.68 7.5 113.711 7.96875 113.742 8.57812C113.789 9.17188 113.836 9.85938 113.883 10.6406C113.93 11.4219 113.977 12.2578 114.023 13.1484C114.086 14.0391 114.141 14.9219 114.188 15.7969C114.234 15.7188 114.281 15.6484 114.328 15.5859C114.375 15.5234 114.406 15.4844 114.422 15.4688C114.594 15.2812 114.797 15.0625 115.031 14.8125C115.266 14.5625 115.508 14.3047 115.758 14.0391C116.023 13.7734 116.281 13.5156 116.531 13.2656C116.797 13 117.031 12.7656 117.234 12.5625C117.453 12.3438 117.633 12.1719 117.773 12.0469C117.914 11.9219 118 11.8594 118.031 11.8594L118.922 12.3047C118.656 12.5391 118.352 12.8125 118.008 13.125C117.664 13.4375 117.328 13.7734 117 14.1328C116.672 14.4766 116.352 14.8438 116.039 15.2344C115.742 15.6094 115.5 15.9844 115.312 16.3594C115.312 16.375 115.305 16.4141 115.289 16.4766C115.289 16.5234 115.289 16.5625 115.289 16.5938C115.289 16.6094 115.289 16.6484 115.289 16.7109C115.305 16.7578 115.312 16.7891 115.312 16.8047L120.727 23.1094C120.727 23.125 120.727 23.1562 120.727 23.2031C120.742 23.25 120.75 23.2891 120.75 23.3203C120.75 23.6172 120.594 23.8438 120.281 24L114.422 17.25C114.406 17.2344 114.383 17.2109 114.352 17.1797C114.336 17.1328 114.312 17.0859 114.281 17.0391L114.539 21.5859C114.539 21.6641 114.539 21.8125 114.539 22.0312C114.555 22.25 114.562 22.4922 114.562 22.7578C114.578 23.0078 114.586 23.25 114.586 23.4844C114.602 23.7031 114.609 23.8516 114.609 23.9297C114.406 23.9297 114.219 23.8906 114.047 23.8125C113.875 23.7188 113.742 23.5703 113.648 23.3672ZM121.852 21.9844C121.852 21.0938 122.094 20.4453 122.578 20.0391C123.078 19.6328 123.727 19.4297 124.523 19.4297C124.836 19.4297 125.125 19.4375 125.391 19.4531C125.672 19.4688 125.938 19.5078 126.188 19.5703C126.438 19.6328 126.68 19.7266 126.914 19.8516C127.164 19.9766 127.422 20.1562 127.688 20.3906C127.688 20.3438 127.688 20.25 127.688 20.1094C127.703 19.9531 127.711 19.7891 127.711 19.6172C127.711 19.4453 127.711 19.2891 127.711 19.1484C127.711 18.9922 127.711 18.8828 127.711 18.8203C127.695 18.5391 127.688 18.1797 127.688 17.7422C127.688 17.2891 127.648 16.8281 127.57 16.3594C127.508 15.8906 127.367 15.4453 127.148 15.0234C126.945 14.6016 126.609 14.2812 126.141 14.0625C125.812 14.0625 125.508 14.1172 125.227 14.2266C124.945 14.3359 124.664 14.4531 124.383 14.5781C124.102 14.7031 123.82 14.8203 123.539 14.9297C123.258 15.0234 122.953 15.0703 122.625 15.0703C122.625 14.6797 122.742 14.3594 122.977 14.1094C123.227 13.8438 123.523 13.6406 123.867 13.5C124.211 13.3594 124.57 13.2656 124.945 13.2188C125.32 13.1719 125.648 13.1484 125.93 13.1484C126.211 13.1953 126.469 13.25 126.703 13.3125C126.953 13.375 127.18 13.5 127.383 13.6875C127.602 13.875 127.797 14.1641 127.969 14.5547C128.156 14.9297 128.312 15.4609 128.438 16.1484C128.578 16.8359 128.695 17.7109 128.789 18.7734C128.898 19.8203 128.984 21.1094 129.047 22.6406C129.078 22.8438 129.008 23.0234 128.836 23.1797C128.68 23.3203 128.461 23.4453 128.18 23.5547C127.898 23.6484 127.578 23.7344 127.219 23.8125C126.875 23.875 126.523 23.9219 126.164 23.9531C125.805 23.9844 125.461 24.0078 125.133 24.0234C124.805 24.0391 124.531 24.0469 124.312 24.0469C124.031 24.0469 123.742 24 123.445 23.9062C123.164 23.8125 122.898 23.6797 122.648 23.5078C122.414 23.3203 122.219 23.1016 122.062 22.8516C121.922 22.5859 121.852 22.2969 121.852 21.9844ZM124.898 20.3438C124.117 20.5625 123.57 20.8281 123.258 21.1406C122.945 21.4375 122.805 21.7266 122.836 22.0078C122.883 22.2891 123.07 22.5469 123.398 22.7812C123.727 23 124.125 23.1484 124.594 23.2266C125.062 23.2891 125.57 23.25 126.117 23.1094C126.664 22.9531 127.188 22.6562 127.688 22.2188C127.5 21.7656 127.312 21.4219 127.125 21.1875C126.938 20.9375 126.734 20.75 126.516 20.625C126.297 20.5 126.055 20.4219 125.789 20.3906C125.523 20.3594 125.227 20.3438 124.898 20.3438ZM130.312 23.8828C130.281 23.6328 130.25 23.2734 130.219 22.8047C130.203 22.3203 130.18 21.7812 130.148 21.1875C130.133 20.5781 130.117 19.9453 130.102 19.2891C130.086 18.6328 130.07 18.0078 130.055 17.4141C130.039 16.8203 130.016 16.2891 129.984 15.8203C129.969 15.3359 129.938 14.9688 129.891 14.7188C129.891 14.7031 129.883 14.6641 129.867 14.6016C129.867 14.5391 129.859 14.4688 129.844 14.3906C129.844 14.3125 129.844 14.25 129.844 14.2031C129.844 14.1406 129.844 14.0938 129.844 14.0625C130.078 13.875 130.273 13.8125 130.43 13.875C130.602 13.9375 130.742 14.0781 130.852 14.2969C130.961 14.5 131.039 14.7578 131.086 15.0703C131.133 15.3828 131.164 15.6953 131.18 16.0078C131.211 16.3203 131.227 16.6094 131.227 16.875C131.227 17.125 131.227 17.3047 131.227 17.4141C131.258 17.1484 131.305 16.8359 131.367 16.4766C131.43 16.1172 131.523 15.75 131.648 15.375C131.773 15 131.922 14.6328 132.094 14.2734C132.281 13.8984 132.508 13.5703 132.773 13.2891C133.039 13.0078 133.336 12.7891 133.664 12.6328C134.008 12.4766 134.398 12.4141 134.836 12.4453C135.523 12.4766 136.086 12.6641 136.523 13.0078C136.977 13.3516 137.328 13.8125 137.578 14.3906C137.844 14.9688 138.031 15.6328 138.141 16.3828C138.266 17.1328 138.344 17.9297 138.375 18.7734C138.422 19.6172 138.438 20.4766 138.422 21.3516C138.406 22.2109 138.398 23.0391 138.398 23.8359C138.258 23.8672 138.117 23.9219 137.977 24C137.836 24.0625 137.719 24.0859 137.625 24.0703C137.531 24.0703 137.461 24.0078 137.414 23.8828C137.383 23.7422 137.398 23.4766 137.461 23.0859C137.477 22.8047 137.5 22.375 137.531 21.7969C137.578 21.2031 137.594 20.5469 137.578 19.8281C137.578 19.1094 137.539 18.3672 137.461 17.6016C137.383 16.8359 137.234 16.1406 137.016 15.5156C136.812 14.875 136.516 14.3594 136.125 13.9688C135.734 13.5625 135.227 13.3594 134.602 13.3594C133.961 13.625 133.422 14.125 132.984 14.8594C132.562 15.5938 132.219 16.4531 131.953 17.4375C131.703 18.4219 131.516 19.4922 131.391 20.6484C131.281 21.7891 131.219 22.9062 131.203 24C131.172 23.9844 131.109 23.9766 131.016 23.9766C130.938 23.9766 130.844 23.9766 130.734 23.9766C130.641 23.9609 130.547 23.9453 130.453 23.9297C130.375 23.9141 130.328 23.8984 130.312 23.8828ZM139.453 14.8594C139.641 14.8594 139.844 14.9062 140.062 15C140.281 15.0938 140.438 15.2812 140.531 15.5625C140.656 15.0312 140.844 14.6016 141.094 14.2734C141.359 13.9453 141.656 13.7188 141.984 13.5938C142.328 13.4688 142.68 13.4297 143.039 13.4766C143.414 13.5078 143.758 13.6172 144.07 13.8047C144.398 13.9922 144.68 14.2344 144.914 14.5312C145.164 14.8281 145.336 15.1719 145.43 15.5625C145.602 15.0781 145.828 14.6328 146.109 14.2266C146.406 13.8047 146.727 13.4531 147.07 13.1719C147.43 12.8906 147.797 12.6953 148.172 12.5859C148.562 12.4766 148.922 12.4844 149.25 12.6094C149.594 12.7188 149.891 12.9688 150.141 13.3594C150.406 13.7344 150.594 14.2812 150.703 15C150.734 15.2031 150.773 15.5078 150.82 15.9141C150.867 16.3047 150.914 16.75 150.961 17.25C151.023 17.75 151.086 18.2812 151.148 18.8438C151.227 19.3906 151.289 19.9141 151.336 20.4141C151.398 20.9141 151.453 21.3672 151.5 21.7734C151.547 22.1641 151.586 22.4531 151.617 22.6406C151.617 22.7969 151.609 22.9688 151.594 23.1562C151.578 23.3438 151.539 23.5078 151.477 23.6484C151.43 23.7734 151.344 23.8594 151.219 23.9062C151.109 23.9375 150.938 23.8672 150.703 23.6953C150.703 23.5078 150.68 23.2031 150.633 22.7812C150.586 22.3594 150.539 21.875 150.492 21.3281C150.445 20.7656 150.383 20.1797 150.305 19.5703C150.242 18.9453 150.172 18.3594 150.094 17.8125C150.031 17.2656 149.977 16.7812 149.93 16.3594C149.883 15.9375 149.836 15.6406 149.789 15.4688C149.555 14.75 149.305 14.25 149.039 13.9688C148.789 13.6875 148.531 13.5625 148.266 13.5938C148.016 13.625 147.773 13.7891 147.539 14.0859C147.305 14.3828 147.094 14.7578 146.906 15.2109C146.719 15.6641 146.539 16.1719 146.367 16.7344C146.211 17.2812 146.086 17.8281 145.992 18.375C145.914 18.9219 145.859 19.4375 145.828 19.9219C145.812 20.4062 145.844 20.8047 145.922 21.1172L145.008 21.3047C145.055 19.8047 145 18.5781 144.844 17.625C144.703 16.6562 144.5 15.9141 144.234 15.3984C143.984 14.8828 143.695 14.5781 143.367 14.4844C143.039 14.375 142.711 14.4375 142.383 14.6719C142.07 14.9062 141.781 15.2969 141.516 15.8438C141.25 16.3906 141.047 17.0547 140.906 17.8359C140.781 18.6016 140.734 19.4688 140.766 20.4375C140.797 21.4062 140.961 22.4453 141.258 23.5547H140.367C140.367 23.5547 140.344 23.4062 140.297 23.1094C140.266 22.8125 140.219 22.4375 140.156 21.9844C140.109 21.5156 140.055 20.9922 139.992 20.4141C139.93 19.8203 139.867 19.2266 139.805 18.6328C139.742 18.0234 139.68 17.4453 139.617 16.8984C139.555 16.3359 139.5 15.8594 139.453 15.4688C139.453 15.4219 139.453 15.3203 139.453 15.1641C139.453 14.9922 139.453 14.8906 139.453 14.8594ZM152.625 14.9062C152.625 14.8281 152.672 14.75 152.766 14.6719C152.875 14.5938 153 14.5312 153.141 14.4844C153.297 14.4375 153.445 14.4062 153.586 14.3906C153.727 14.375 153.828 14.3984 153.891 14.4609C153.984 16.3984 154.164 17.9453 154.43 19.1016C154.711 20.2422 155.023 21.0781 155.367 21.6094C155.727 22.1406 156.109 22.4141 156.516 22.4297C156.922 22.4297 157.32 22.2578 157.711 21.9141C158.102 21.5547 158.461 21.0703 158.789 20.4609C159.133 19.8516 159.406 19.1953 159.609 18.4922C159.828 17.7891 159.961 17.0859 160.008 16.3828C160.055 15.6797 159.992 15.0547 159.82 14.5078L161.227 14.3438C161.242 14.5781 161.281 14.9688 161.344 15.5156C161.422 16.0469 161.5 16.6562 161.578 17.3438C161.672 18.0156 161.773 18.7188 161.883 19.4531C161.992 20.1875 162.086 20.875 162.164 21.5156C162.242 22.1406 162.312 22.6797 162.375 23.1328C162.438 23.5703 162.469 23.8438 162.469 23.9531H161.461L160.359 19.8984C160.141 20.4453 159.875 20.9688 159.562 21.4688C159.25 21.9688 158.906 22.4062 158.531 22.7812C158.172 23.1562 157.789 23.4531 157.383 23.6719C156.977 23.875 156.57 23.9609 156.164 23.9297C155.773 23.8828 155.391 23.6953 155.016 23.3672C154.641 23.0391 154.289 22.5234 153.961 21.8203C153.648 21.1016 153.375 20.1797 153.141 19.0547C152.906 17.9297 152.734 16.5469 152.625 14.9062ZM168.984 17.7188L163.594 13.2188V11.8594C163.719 11.9688 163.906 12.1328 164.156 12.3516C164.422 12.5547 164.719 12.7891 165.047 13.0547C165.375 13.3203 165.711 13.6016 166.055 13.8984C166.414 14.1953 166.758 14.4766 167.086 14.7422C167.414 14.9922 167.703 15.2266 167.953 15.4453C168.219 15.6484 168.422 15.7969 168.562 15.8906C168.703 16 168.875 16.1016 169.078 16.1953C169.281 16.2734 169.477 16.375 169.664 16.5C169.867 16.6094 170.039 16.7422 170.18 16.8984C170.32 17.0391 170.391 17.2266 170.391 17.4609C170.391 17.4922 170.383 17.5391 170.367 17.6016C170.367 17.6484 170.359 17.6875 170.344 17.7188C170.234 17.8594 170.078 18.0859 169.875 18.3984C169.672 18.6953 169.438 19.0391 169.172 19.4297C168.906 19.8047 168.625 20.2109 168.328 20.6484C168.031 21.0703 167.75 21.4766 167.484 21.8672C167.219 22.2422 166.977 22.5859 166.758 22.8984C166.555 23.1953 166.406 23.4141 166.312 23.5547C166.172 23.7266 166.039 23.8672 165.914 23.9766C165.789 24.0703 165.617 24.1172 165.398 24.1172V23.1094L168.984 17.7188Z" fill="#E0E0E0"/>
</svg>
