<svg width="166" height="34" viewBox="0 0 166 34" fill="none" xmlns="http://www.w3.org/2000/svg">
<path opacity="0.5" d="M0.75 20.1797C0.75 20.1484 0.75 20.1094 0.75 20.0625C0.765625 20 0.78125 19.9688 0.796875 19.9688L5.74219 13.2188H6.28125C6.28125 13.5938 6.19531 13.9922 6.02344 14.4141C5.86719 14.8359 5.65625 15.2578 5.39062 15.6797C5.14062 16.0859 4.85156 16.4844 4.52344 16.875C4.19531 17.2656 3.875 17.6328 3.5625 17.9766C3.26562 18.3047 2.98438 18.6016 2.71875 18.8672C2.46875 19.1328 2.27344 19.3438 2.13281 19.5V20.3906C2.27344 20.4375 2.46875 20.5234 2.71875 20.6484C2.98438 20.7578 3.28125 20.8906 3.60938 21.0469C3.9375 21.1875 4.27344 21.3359 4.61719 21.4922C4.97656 21.6484 5.32031 21.8047 5.64844 21.9609C5.97656 22.1172 6.26562 22.2578 6.51562 22.3828C6.78125 22.5078 6.96875 22.5938 7.07812 22.6406C7.125 22.6719 7.19531 22.7266 7.28906 22.8047C7.38281 22.8828 7.47656 22.9688 7.57031 23.0625C7.66406 23.1562 7.75 23.25 7.82812 23.3438C7.92188 23.4375 7.97656 23.5078 7.99219 23.5547C7.89844 23.7422 7.80469 23.8672 7.71094 23.9297C7.61719 23.9922 7.49219 24.0234 7.33594 24.0234C7.21094 24.0234 6.96094 23.9375 6.58594 23.7656C6.21094 23.5938 5.78125 23.3828 5.29688 23.1328C4.8125 22.8672 4.30469 22.5859 3.77344 22.2891C3.24219 21.9766 2.75 21.6797 2.29688 21.3984C1.85938 21.1016 1.49219 20.8438 1.19531 20.625C0.898438 20.4062 0.75 20.2578 0.75 20.1797ZM8.74219 17.9297C8.74219 17.4453 8.78906 16.9062 8.88281 16.3125C8.99219 15.7031 9.14844 15.0938 9.35156 14.4844C9.55469 13.8594 9.80469 13.2578 10.1016 12.6797C10.4141 12.0859 10.7656 11.5625 11.1562 11.1094C11.5625 10.6406 12.0156 10.2656 12.5156 9.98438C13.0312 9.70312 13.5938 9.5625 14.2031 9.5625C14.6406 9.5625 15.0078 9.64844 15.3047 9.82031C15.6172 9.99219 15.8672 10.2188 16.0547 10.5C16.2422 10.7812 16.375 11.1016 16.4531 11.4609C16.5469 11.8047 16.5938 12.1562 16.5938 12.5156C16.25 12.5156 15.9922 12.4141 15.8203 12.2109C15.6484 11.9922 15.4844 11.7578 15.3281 11.5078C15.1875 11.2422 15.0156 11.0078 14.8125 10.8047C14.625 10.5859 14.3359 10.4766 13.9453 10.4766C13.4297 10.4766 12.9688 10.6172 12.5625 10.8984C12.1719 11.1797 11.8281 11.5469 11.5312 12C11.2344 12.4375 10.9844 12.9375 10.7812 13.5C10.5938 14.0625 10.4375 14.625 10.3125 15.1875C10.2031 15.75 10.125 16.2969 10.0781 16.8281C10.0312 17.3438 10.0078 17.7812 10.0078 18.1406C9.94531 18.6719 9.9375 19.2266 9.98438 19.8047C10.0469 20.3672 10.1797 20.8906 10.3828 21.375C10.5859 21.8438 10.8828 22.2422 11.2734 22.5703C11.6641 22.8828 12.1797 23.0625 12.8203 23.1094C13.2266 23.1094 13.6797 23.0469 14.1797 22.9219C14.6797 22.7812 15.1719 22.625 15.6562 22.4531C16.1562 22.2656 16.6328 22.0703 17.0859 21.8672C17.5391 21.6484 17.9219 21.4609 18.2344 21.3047V22.2188C18.2188 22.2188 18.1172 22.2578 17.9297 22.3359C17.7578 22.3984 17.5234 22.4844 17.2266 22.5938C16.9453 22.7031 16.6172 22.8203 16.2422 22.9453C15.8828 23.0703 15.5234 23.2031 15.1641 23.3438C14.8047 23.4688 14.4531 23.5938 14.1094 23.7188C13.7812 23.8281 13.5 23.9219 13.2656 24C13.25 24 13.2188 24 13.1719 24C13.125 24.0156 13.0859 24.0234 13.0547 24.0234C12.1953 24.0234 11.4844 23.8438 10.9219 23.4844C10.375 23.1094 9.9375 22.6328 9.60938 22.0547C9.28125 21.4609 9.05469 20.8047 8.92969 20.0859C8.80469 19.3516 8.74219 18.6328 8.74219 17.9297ZM20.0625 7.92188L20.6719 15.6094C20.7812 15.5156 20.9219 15.375 21.0938 15.1875C21.2656 15 21.4688 14.8281 21.7031 14.6719C21.9375 14.5 22.1953 14.3594 22.4766 14.25C22.7578 14.125 23.0625 14.0703 23.3906 14.0859C24.0312 14.1484 24.5391 14.4062 24.9141 14.8594C25.3047 15.3125 25.5938 15.8672 25.7812 16.5234C25.9844 17.1797 26.1172 17.8984 26.1797 18.6797C26.2422 19.4453 26.2578 20.1797 26.2266 20.8828C26.2109 21.5859 26.1719 22.2109 26.1094 22.7578C26.0625 23.3047 26.0234 23.6797 25.9922 23.8828L25.1484 23.7656C25.1484 23.625 25.1484 23.4062 25.1484 23.1094C25.1641 22.7969 25.1797 22.4375 25.1953 22.0312C25.2109 21.6094 25.2188 21.1719 25.2188 20.7188C25.2188 20.2656 25.2188 19.8438 25.2188 19.4531C25.2344 19.0469 25.2344 18.6875 25.2188 18.375C25.2188 18.0625 25.2109 17.8438 25.1953 17.7188C25.2109 17.2812 25.125 16.8594 24.9375 16.4531C24.75 16.0469 24.5 15.7422 24.1875 15.5391C23.875 15.3203 23.5 15.25 23.0625 15.3281C22.625 15.3906 22.1562 15.6953 21.6562 16.2422C21.2188 16.8984 20.8984 17.5469 20.6953 18.1875C20.4922 18.8125 20.3594 19.4375 20.2969 20.0625C20.2344 20.6719 20.2109 21.3047 20.2266 21.9609C20.2422 22.6016 20.2422 23.2812 20.2266 24L19.3125 23.8594C19.3594 23.6875 19.3906 23.375 19.4062 22.9219C19.4375 22.4531 19.4609 21.8984 19.4766 21.2578C19.4922 20.6016 19.5 19.875 19.5 19.0781C19.5156 18.2812 19.5156 17.4609 19.5 16.6172C19.5 15.7578 19.4922 14.8984 19.4766 14.0391C19.4609 13.1797 19.4375 12.3594 19.4062 11.5781C19.3906 10.7969 19.3672 10.0781 19.3359 9.42188C19.3203 8.76562 19.3047 8.22656 19.2891 7.80469L20.0625 7.92188ZM27.0469 14.8594C27.2344 14.7812 27.3984 14.7656 27.5391 14.8125C27.6797 14.8594 27.7969 14.9453 27.8906 15.0703C27.9844 15.1953 28.0547 15.3438 28.1016 15.5156C28.1484 15.6719 28.1875 15.8281 28.2188 15.9844C28.4219 15.6406 28.7109 15.3672 29.0859 15.1641C29.4766 14.9453 29.8906 14.8047 30.3281 14.7422C30.7656 14.6641 31.2031 14.6484 31.6406 14.6953C32.0781 14.7266 32.4453 14.8203 32.7422 14.9766C33.0547 15.1172 33.2734 15.3203 33.3984 15.5859C33.5234 15.8359 33.4922 16.1328 33.3047 16.4766C32.8984 16.2422 32.4688 16.0547 32.0156 15.9141C31.5781 15.7734 31.1484 15.7266 30.7266 15.7734C30.3047 15.8203 29.9141 15.9844 29.5547 16.2656C29.1953 16.5312 28.8984 16.9609 28.6641 17.5547C28.4297 18.1484 28.2812 18.9375 28.2188 19.9219C28.1719 20.8906 28.2422 22.1016 28.4297 23.5547H27.5391C27.5391 23.5547 27.5234 23.4297 27.4922 23.1797C27.4766 22.9141 27.4531 22.5703 27.4219 22.1484C27.4062 21.7266 27.375 21.2578 27.3281 20.7422C27.2969 20.2266 27.2656 19.7031 27.2344 19.1719C27.2031 18.6406 27.1719 18.1328 27.1406 17.6484C27.125 17.1484 27.1016 16.7188 27.0703 16.3594C27.0703 16.3125 27.0625 16.2188 27.0469 16.0781C27.0469 15.9375 27.0469 15.7891 27.0469 15.6328C27.0469 15.4609 27.0469 15.3047 27.0469 15.1641C27.0469 15.0234 27.0469 14.9219 27.0469 14.8594ZM35.4844 14.9062C35.6719 14.9062 35.8281 14.8984 35.9531 14.8828C36.0938 14.8672 36.2109 14.9453 36.3047 15.1172C36.3516 15.8203 36.4062 16.5391 36.4688 17.2734C36.5312 17.9922 36.5938 18.7188 36.6562 19.4531C36.7188 20.1875 36.7578 20.9297 36.7734 21.6797C36.8047 22.4141 36.8125 23.1328 36.7969 23.8359C36.7969 23.9297 36.7734 23.9844 36.7266 24C36.6797 24.0312 36.6094 24.0391 36.5156 24.0234C36.4375 24.0234 36.3359 24.0156 36.2109 24C36.1016 24 35.9766 24.0156 35.8359 24.0469L35.4844 14.9062ZM34.125 10.7109C34.125 10.6016 34.1328 10.4844 34.1484 10.3594C34.1641 10.2188 34.1953 10.0938 34.2422 9.98438C34.3047 9.875 34.375 9.78125 34.4531 9.70312C34.5469 9.625 34.6562 9.58594 34.7812 9.58594C34.9688 9.58594 35.1562 9.59375 35.3438 9.60938C35.5312 9.625 35.7109 9.66406 35.8828 9.72656C36.0547 9.77344 36.1953 9.85938 36.3047 9.98438C36.4141 10.0938 36.4688 10.2578 36.4688 10.4766C36.4688 10.8516 36.3281 11.1875 36.0469 11.4844C35.7656 11.7656 35.4219 11.9062 35.0156 11.9062C34.7031 11.9062 34.4766 11.7891 34.3359 11.5547C34.1953 11.3047 34.125 11.0234 34.125 10.7109ZM35.4844 10.8281C35.4375 10.8281 35.4141 10.8672 35.4141 10.9453C35.4141 11.0234 35.4375 11.0625 35.4844 11.0625C35.5469 11.0625 35.5781 11.0234 35.5781 10.9453C35.5781 10.8672 35.5469 10.8281 35.4844 10.8281ZM39 22.1016C39.2812 22.1016 39.5391 22.1562 39.7734 22.2656C40.0234 22.375 40.2656 22.5 40.5 22.6406C40.7344 22.7656 40.9688 22.8828 41.2031 22.9922C41.4531 23.0859 41.7188 23.1328 42 23.1328C42.3281 23.1328 42.6641 23.0781 43.0078 22.9688C43.3672 22.8438 43.6953 22.6797 43.9922 22.4766C44.2891 22.2578 44.5312 22 44.7188 21.7031C44.9062 21.3906 45 21.0547 45 20.6953C45.0156 20.5859 45.0156 20.4531 45 20.2969C45 20.1406 44.9531 19.9844 44.8594 19.8281C44.7656 19.6562 44.6094 19.5 44.3906 19.3594C44.1719 19.2031 43.8516 19.0859 43.4297 19.0078C43.0234 18.9297 42.5078 18.8906 41.8828 18.8906C41.2578 18.875 40.4844 18.9297 39.5625 19.0547C39.3281 19.0547 39.1016 18.9922 38.8828 18.8672C38.6641 18.7266 38.4688 18.5625 38.2969 18.375C38.125 18.1719 37.9844 17.9609 37.875 17.7422C37.7656 17.5078 37.7109 17.2891 37.7109 17.0859C37.7109 16.4766 37.8359 15.9844 38.0859 15.6094C38.3516 15.2188 38.6875 14.9141 39.0938 14.6953C39.5 14.4609 39.9531 14.2969 40.4531 14.2031C40.9531 14.1094 41.4609 14.0625 41.9766 14.0625C42.2109 14.0625 42.4766 14.0781 42.7734 14.1094C43.0859 14.125 43.3672 14.1875 43.6172 14.2969C43.8828 14.3906 44.1016 14.5469 44.2734 14.7656C44.4609 14.9844 44.5547 15.2891 44.5547 15.6797C44.5234 15.9453 44.4766 16.1094 44.4141 16.1719C44.3672 16.2188 44.2891 16.2031 44.1797 16.125C44.0859 16.0312 43.9688 15.9062 43.8281 15.75C43.6875 15.5938 43.5156 15.4453 43.3125 15.3047C43.125 15.1484 42.8906 15.0312 42.6094 14.9531C42.3438 14.875 42.0391 14.875 41.6953 14.9531C41.3359 14.9531 40.9766 14.9922 40.6172 15.0703C40.2578 15.1328 39.9297 15.25 39.6328 15.4219C39.3516 15.5938 39.1172 15.8281 38.9297 16.125C38.7578 16.4219 38.6719 16.7969 38.6719 17.25C38.6719 17.4844 38.7734 17.6484 38.9766 17.7422C39.1953 17.8203 39.4766 17.8594 39.8203 17.8594C40.1797 17.8594 40.5781 17.8516 41.0156 17.8359C41.4688 17.8047 41.9297 17.7891 42.3984 17.7891C42.8672 17.7891 43.3203 17.8281 43.7578 17.9062C44.1953 17.9688 44.5781 18.1094 44.9062 18.3281C45.25 18.5312 45.5156 18.8281 45.7031 19.2188C45.8906 19.6094 45.9609 20.1172 45.9141 20.7422C45.9141 21.1953 45.7812 21.625 45.5156 22.0312C45.2656 22.4375 44.9375 22.7969 44.5312 23.1094C44.1406 23.4062 43.7031 23.6406 43.2188 23.8125C42.7344 23.9844 42.2656 24.0469 41.8125 24C41.625 23.9844 41.3672 23.9375 41.0391 23.8594C40.7266 23.7656 40.4141 23.6406 40.1016 23.4844C39.8047 23.3281 39.5469 23.1406 39.3281 22.9219C39.1094 22.6875 39 22.4141 39 22.1016ZM49.875 15.4922C49.7344 15.4453 49.5391 15.4297 49.2891 15.4453C49.0547 15.4453 48.7969 15.4609 48.5156 15.4922C48.25 15.5078 47.9922 15.5312 47.7422 15.5625C47.4922 15.5938 47.2812 15.6094 47.1094 15.6094C47.0312 15.6094 46.9766 15.5 46.9453 15.2812C46.9297 15.0469 46.8984 14.7344 46.8516 14.3438L50.1562 14.1094C50.2031 13.5625 50.2344 13.1719 50.25 12.9375C50.2656 12.7031 50.2656 12.5078 50.25 12.3516C50.25 12.1797 50.2422 11.9922 50.2266 11.7891C50.2266 11.5703 50.2266 11.2344 50.2266 10.7812C50.6328 10.7188 50.9375 10.7031 51.1406 10.7344C51.3594 10.75 51.5078 10.8047 51.5859 10.8984C51.6641 10.9922 51.6953 11.1328 51.6797 11.3203C51.6797 11.4922 51.6562 11.7109 51.6094 11.9766C51.5781 12.2422 51.5469 12.5625 51.5156 12.9375C51.5 13.3125 51.5156 13.7344 51.5625 14.2031L54.375 14.1094V15.2578C54.25 15.2578 54.0547 15.2656 53.7891 15.2812C53.5234 15.2969 53.2344 15.3125 52.9219 15.3281C52.625 15.3438 52.3438 15.3594 52.0781 15.375C51.8281 15.3906 51.6406 15.4219 51.5156 15.4688C51.3906 16.0312 51.2578 16.6328 51.1172 17.2734C50.9766 17.9141 50.8828 18.5469 50.8359 19.1719C50.7891 19.7969 50.8047 20.3828 50.8828 20.9297C50.9609 21.4609 51.1562 21.9062 51.4688 22.2656C51.7812 22.6094 52.2266 22.8516 52.8047 22.9922C53.3828 23.1172 54.1484 23.0703 55.1016 22.8516C55.0703 23.0859 54.9766 23.2812 54.8203 23.4375C54.6797 23.5781 54.5078 23.6953 54.3047 23.7891C54.1172 23.8672 53.9141 23.9297 53.6953 23.9766C53.4766 24.0078 53.2812 24.0234 53.1094 24.0234C52.3125 24.0234 51.6797 23.8828 51.2109 23.6016C50.7422 23.3047 50.3906 22.9219 50.1562 22.4531C49.9219 21.9844 49.7734 21.4531 49.7109 20.8594C49.6484 20.25 49.625 19.6328 49.6406 19.0078C49.6719 18.3828 49.7188 17.7656 49.7812 17.1562C49.8438 16.5469 49.875 15.9922 49.875 15.4922ZM56.0156 19.7109C56.0156 19.3516 56.0469 18.9375 56.1094 18.4688C56.1719 17.9844 56.2734 17.5 56.4141 17.0156C56.5547 16.5312 56.7266 16.0547 56.9297 15.5859C57.1484 15.1172 57.4062 14.7031 57.7031 14.3438C58 13.9688 58.3438 13.6719 58.7344 13.4531C59.125 13.2188 59.5625 13.1016 60.0469 13.1016C60.5469 13.1016 61.0078 13.2734 61.4297 13.6172C61.8672 13.9609 62.2344 14.4062 62.5312 14.9531C62.8438 15.5 63.0781 16.1094 63.2344 16.7812C63.3906 17.4531 63.4531 18.1094 63.4219 18.75C63.4219 19.6875 63.2422 20.5234 62.8828 21.2578C62.5234 21.9922 62.0625 22.5859 61.5 23.0391C60.9531 23.4922 60.3594 23.7969 59.7188 23.9531C59.0938 24.1094 58.5 24.0703 57.9375 23.8359C57.3906 23.5859 56.9297 23.125 56.5547 22.4531C56.1953 21.7812 56.0156 20.8672 56.0156 19.7109ZM56.8828 19.8047C56.9297 20.7578 57.0938 21.4922 57.375 22.0078C57.6562 22.5234 57.9922 22.8672 58.3828 23.0391C58.7891 23.1953 59.2266 23.1953 59.6953 23.0391C60.1641 22.8828 60.6016 22.6094 61.0078 22.2188C61.4141 21.8125 61.7578 21.3125 62.0391 20.7188C62.3359 20.1094 62.5 19.4297 62.5312 18.6797C62.5625 18.1172 62.5156 17.5703 62.3906 17.0391C62.2812 16.5078 62.1172 16.0391 61.8984 15.6328C61.6953 15.2109 61.4375 14.8828 61.125 14.6484C60.8281 14.3984 60.4844 14.2734 60.0938 14.2734C59.7188 14.2734 59.3828 14.3672 59.0859 14.5547C58.7891 14.7422 58.5156 15 58.2656 15.3281C58.0312 15.6406 57.8281 16 57.6562 16.4062C57.4844 16.8125 57.3359 17.2188 57.2109 17.625C57.1016 18.0312 57.0156 18.4297 56.9531 18.8203C56.9062 19.1953 56.8828 19.5234 56.8828 19.8047ZM65.3906 17.9297C65.3281 17.9766 65.2422 17.9922 65.1328 17.9766C65.0234 17.9609 64.9219 17.9375 64.8281 17.9062C64.7344 17.8594 64.6484 17.8047 64.5703 17.7422C64.5078 17.6641 64.4766 17.5781 64.4766 17.4844C64.4766 16.9531 64.6406 16.4688 64.9688 16.0312C65.2969 15.5781 65.7031 15.1953 66.1875 14.8828C66.6719 14.5547 67.1875 14.3047 67.7344 14.1328C68.2812 13.9453 68.7812 13.8516 69.2344 13.8516C69.9531 13.8516 70.6016 13.9766 71.1797 14.2266C71.7734 14.4609 72.2734 14.7891 72.6797 15.2109C73.1016 15.6328 73.4219 16.125 73.6406 16.6875C73.875 17.25 73.9922 17.8516 73.9922 18.4922C74.0078 19.3047 73.8203 20.0469 73.4297 20.7188C73.0547 21.3906 72.5547 21.9688 71.9297 22.4531C71.3203 22.9219 70.6328 23.2812 69.8672 23.5312C69.1172 23.7656 68.375 23.8516 67.6406 23.7891C67.6719 24.3516 67.6641 24.9922 67.6172 25.7109C67.5703 26.4453 67.5078 27.2422 67.4297 28.1016C67.3516 28.9609 67.25 29.8672 67.125 30.8203C67.0156 31.7891 66.8984 32.7812 66.7734 33.7969C66.7734 33.8125 66.7266 33.8203 66.6328 33.8203C66.5391 33.8203 66.4375 33.8047 66.3281 33.7734C66.2344 33.7578 66.1328 33.7344 66.0234 33.7031C65.9297 33.6875 65.875 33.6875 65.8594 33.7031C65.9688 32.4062 66.0547 31.0938 66.1172 29.7656C66.1797 28.4375 66.2031 27.1016 66.1875 25.7578C66.1719 24.4297 66.1016 23.1094 65.9766 21.7969C65.8516 20.4844 65.6562 19.1953 65.3906 17.9297ZM68.9531 15.1641C68.6562 15.1797 68.3359 15.2266 67.9922 15.3047C67.6484 15.3672 67.3438 15.4688 67.0781 15.6094C66.8125 15.75 66.6016 15.9375 66.4453 16.1719C66.2891 16.4062 66.2344 16.6953 66.2812 17.0391C66.3125 17.1953 66.3516 17.4219 66.3984 17.7188C66.4609 18.0156 66.5234 18.3516 66.5859 18.7266C66.6641 19.1016 66.7344 19.4922 66.7969 19.8984C66.875 20.3047 66.9453 20.6953 67.0078 21.0703C67.0859 21.4453 67.1484 21.7891 67.1953 22.1016C67.2578 22.3984 67.3047 22.625 67.3359 22.7812C67.5234 22.75 67.7891 22.7188 68.1328 22.6875C68.4766 22.6562 68.8438 22.5938 69.2344 22.5C69.625 22.4062 70.0234 22.2812 70.4297 22.125C70.8516 21.9531 71.2422 21.7188 71.6016 21.4219C71.9609 21.125 72.2734 20.7578 72.5391 20.3203C72.8203 19.8672 73.0078 19.3125 73.1016 18.6562C73.1016 18.0469 72.9922 17.5234 72.7734 17.0859C72.5547 16.6484 72.2578 16.2891 71.8828 16.0078C71.5078 15.7109 71.0625 15.5 70.5469 15.375C70.0469 15.2344 69.5156 15.1641 68.9531 15.1641ZM76.1953 7.92188L76.8047 15.6094C76.9141 15.5156 77.0547 15.375 77.2266 15.1875C77.3984 15 77.6016 14.8281 77.8359 14.6719C78.0703 14.5 78.3281 14.3594 78.6094 14.25C78.8906 14.125 79.1953 14.0703 79.5234 14.0859C80.1641 14.1484 80.6719 14.4062 81.0469 14.8594C81.4375 15.3125 81.7266 15.8672 81.9141 16.5234C82.1172 17.1797 82.25 17.8984 82.3125 18.6797C82.375 19.4453 82.3906 20.1797 82.3594 20.8828C82.3438 21.5859 82.3047 22.2109 82.2422 22.7578C82.1953 23.3047 82.1562 23.6797 82.125 23.8828L81.2812 23.7656C81.2812 23.625 81.2812 23.4062 81.2812 23.1094C81.2969 22.7969 81.3125 22.4375 81.3281 22.0312C81.3438 21.6094 81.3516 21.1719 81.3516 20.7188C81.3516 20.2656 81.3516 19.8438 81.3516 19.4531C81.3672 19.0469 81.3672 18.6875 81.3516 18.375C81.3516 18.0625 81.3438 17.8438 81.3281 17.7188C81.3438 17.2812 81.2578 16.8594 81.0703 16.4531C80.8828 16.0469 80.6328 15.7422 80.3203 15.5391C80.0078 15.3203 79.6328 15.25 79.1953 15.3281C78.7578 15.3906 78.2891 15.6953 77.7891 16.2422C77.3516 16.8984 77.0312 17.5469 76.8281 18.1875C76.625 18.8125 76.4922 19.4375 76.4297 20.0625C76.3672 20.6719 76.3438 21.3047 76.3594 21.9609C76.375 22.6016 76.375 23.2812 76.3594 24L75.4453 23.8594C75.4922 23.6875 75.5234 23.375 75.5391 22.9219C75.5703 22.4531 75.5938 21.8984 75.6094 21.2578C75.625 20.6016 75.6328 19.875 75.6328 19.0781C75.6484 18.2812 75.6484 17.4609 75.6328 16.6172C75.6328 15.7578 75.625 14.8984 75.6094 14.0391C75.5938 13.1797 75.5703 12.3594 75.5391 11.5781C75.5234 10.7969 75.5 10.0781 75.4688 9.42188C75.4531 8.76562 75.4375 8.22656 75.4219 7.80469L76.1953 7.92188ZM83.4844 18.4922C83.4844 18.0234 83.5859 17.5078 83.7891 16.9453C83.9922 16.3672 84.2656 15.8359 84.6094 15.3516C84.9688 14.8516 85.3672 14.4375 85.8047 14.1094C86.2578 13.7656 86.7266 13.5938 87.2109 13.5938C87.4766 13.5938 87.7344 13.6484 87.9844 13.7578C88.25 13.8672 88.5 14.0156 88.7344 14.2031C88.9844 14.375 89.2031 14.5781 89.3906 14.8125C89.5938 15.0312 89.75 15.2656 89.8594 15.5156C89.9688 15.7656 90.0234 16.0078 90.0234 16.2422C90.0391 16.4766 89.9766 16.6797 89.8359 16.8516L84.8906 17.7656C84.8281 17.7812 84.7734 17.8594 84.7266 18C84.6797 18.125 84.6406 18.2891 84.6094 18.4922C84.5781 18.6953 84.5469 18.9219 84.5156 19.1719C84.5 19.4062 84.4844 19.6406 84.4688 19.875C84.4531 20.0938 84.4453 20.2969 84.4453 20.4844C84.4453 20.6562 84.4453 20.7891 84.4453 20.8828C84.4453 21.3203 84.5469 21.6797 84.75 21.9609C84.9688 22.2266 85.2422 22.4297 85.5703 22.5703C85.8984 22.7109 86.2656 22.8047 86.6719 22.8516C87.0938 22.8984 87.5078 22.9219 87.9141 22.9219C88.3203 22.9219 88.7031 22.9062 89.0625 22.875C89.4219 22.8438 89.7188 22.8281 89.9531 22.8281C89.9531 22.8906 89.9297 22.9609 89.8828 23.0391C89.8359 23.1172 89.7812 23.1953 89.7188 23.2734C89.6562 23.3359 89.5938 23.3984 89.5312 23.4609C89.4688 23.5078 89.4297 23.5391 89.4141 23.5547C89.2891 23.5859 89.0938 23.6328 88.8281 23.6953C88.5781 23.7422 88.3047 23.7891 88.0078 23.8359C87.7266 23.8828 87.4609 23.9219 87.2109 23.9531C86.9609 23.9844 86.7891 24 86.6953 24C86.2109 24.0938 85.7891 24.0859 85.4297 23.9766C85.0703 23.8672 84.7656 23.6797 84.5156 23.4141C84.2656 23.1484 84.0625 22.8281 83.9062 22.4531C83.75 22.0625 83.6328 21.6484 83.5547 21.2109C83.4766 20.7734 83.4297 20.3203 83.4141 19.8516C83.4141 19.3828 83.4375 18.9297 83.4844 18.4922ZM86.8828 14.4844C86.7422 14.4844 86.5547 14.5625 86.3203 14.7188C86.1016 14.8594 85.8906 15.0469 85.6875 15.2812C85.5 15.5 85.3359 15.7422 85.1953 16.0078C85.0703 16.2578 85.0312 16.4766 85.0781 16.6641C85.4844 16.7109 85.9062 16.7031 86.3438 16.6406C86.7812 16.5781 87.1797 16.4844 87.5391 16.3594C87.8984 16.2188 88.1953 16.0625 88.4297 15.8906C88.6641 15.7031 88.7734 15.5156 88.7578 15.3281C88.7578 15.1406 88.6094 14.9766 88.3125 14.8359C88.0312 14.6797 87.5547 14.5625 86.8828 14.4844ZM91.0781 14.8594C91.2656 14.7812 91.4297 14.7656 91.5703 14.8125C91.7109 14.8594 91.8281 14.9453 91.9219 15.0703C92.0156 15.1953 92.0859 15.3438 92.1328 15.5156C92.1797 15.6719 92.2188 15.8281 92.25 15.9844C92.4531 15.6406 92.7422 15.3672 93.1172 15.1641C93.5078 14.9453 93.9219 14.8047 94.3594 14.7422C94.7969 14.6641 95.2344 14.6484 95.6719 14.6953C96.1094 14.7266 96.4766 14.8203 96.7734 14.9766C97.0859 15.1172 97.3047 15.3203 97.4297 15.5859C97.5547 15.8359 97.5234 16.1328 97.3359 16.4766C96.9297 16.2422 96.5 16.0547 96.0469 15.9141C95.6094 15.7734 95.1797 15.7266 94.7578 15.7734C94.3359 15.8203 93.9453 15.9844 93.5859 16.2656C93.2266 16.5312 92.9297 16.9609 92.6953 17.5547C92.4609 18.1484 92.3125 18.9375 92.25 19.9219C92.2031 20.8906 92.2734 22.1016 92.4609 23.5547H91.5703C91.5703 23.5547 91.5547 23.4297 91.5234 23.1797C91.5078 22.9141 91.4844 22.5703 91.4531 22.1484C91.4375 21.7266 91.4062 21.2578 91.3594 20.7422C91.3281 20.2266 91.2969 19.7031 91.2656 19.1719C91.2344 18.6406 91.2031 18.1328 91.1719 17.6484C91.1562 17.1484 91.1328 16.7188 91.1016 16.3594C91.1016 16.3125 91.0938 16.2188 91.0781 16.0781C91.0781 15.9375 91.0781 15.7891 91.0781 15.6328C91.0781 15.4609 91.0781 15.3047 91.0781 15.1641C91.0781 15.0234 91.0781 14.9219 91.0781 14.8594ZM102.164 9.39844C102.742 9.39844 103.242 9.57031 103.664 9.91406C104.102 10.2422 104.477 10.6875 104.789 11.25C105.117 11.8125 105.391 12.4609 105.609 13.1953C105.828 13.9297 106.008 14.7031 106.148 15.5156C106.289 16.3125 106.398 17.125 106.477 17.9531C106.555 18.7656 106.609 19.5312 106.641 20.25C106.672 20.9688 106.688 21.6172 106.688 22.1953C106.703 22.7734 106.711 23.2266 106.711 23.5547H106.148L105.258 18.6094C105.18 18.5312 105 18.4844 104.719 18.4688C104.453 18.4531 104.133 18.4609 103.758 18.4922C103.398 18.5234 103 18.5703 102.562 18.6328C102.141 18.6797 101.734 18.7188 101.344 18.75C100.969 18.7656 100.625 18.7734 100.312 18.7734C100 18.7578 99.7734 18.7031 99.6328 18.6094V23.5547H98.4375C98.4375 23.5078 98.4375 23.4219 98.4375 23.2969C98.4531 23.1562 98.4609 23.0156 98.4609 22.875C98.4609 22.7344 98.4688 22.6016 98.4844 22.4766C98.5 22.3516 98.5078 22.2656 98.5078 22.2188C98.6016 21.3125 98.6719 20.3984 98.7188 19.4766C98.7812 18.5391 98.8516 17.6328 98.9297 16.7578C99.0078 15.8828 99.1094 15.0469 99.2344 14.25C99.375 13.4531 99.5703 12.7344 99.8203 12.0938C100.07 11.4375 100.383 10.8828 100.758 10.4297C101.133 9.96094 101.602 9.61719 102.164 9.39844ZM102.539 10.4766C102.133 10.4766 101.789 10.625 101.508 10.9219C101.242 11.2031 101.023 11.5781 100.852 12.0469C100.68 12.5 100.547 13.0078 100.453 13.5703C100.359 14.1328 100.297 14.6875 100.266 15.2344C100.234 15.7656 100.211 16.2656 100.195 16.7344C100.195 17.1875 100.195 17.5391 100.195 17.7891C100.961 17.7891 101.742 17.7344 102.539 17.625C103.336 17.5 104.086 17.375 104.789 17.25C104.805 17.1875 104.812 17.0859 104.812 16.9453C104.828 16.8047 104.836 16.6484 104.836 16.4766C104.852 16.3047 104.859 16.1406 104.859 15.9844C104.875 15.8281 104.883 15.7266 104.883 15.6797C104.883 15.1641 104.852 14.6719 104.789 14.2031C104.742 13.7344 104.633 13.2812 104.461 12.8438C104.305 12.3906 104.07 11.9688 103.758 11.5781C103.461 11.1875 103.055 10.8203 102.539 10.4766ZM108.586 23.3672C108.57 23.0391 108.531 22.5391 108.469 21.8672C108.422 21.1797 108.367 20.4141 108.305 19.5703C108.242 18.7109 108.18 17.8047 108.117 16.8516C108.055 15.8984 107.992 15 107.93 14.1562C107.883 13.2969 107.836 12.5312 107.789 11.8594C107.742 11.1719 107.711 10.6641 107.695 10.3359C107.68 10.1953 107.664 9.95312 107.648 9.60938C107.648 9.25 107.641 8.875 107.625 8.48438C107.609 8.07812 107.594 7.70312 107.578 7.35938C107.578 7 107.578 6.75 107.578 6.60938C107.797 6.60938 107.992 6.65625 108.164 6.75C108.336 6.82813 108.477 6.96875 108.586 7.17188C108.617 7.5 108.648 7.96875 108.68 8.57812C108.727 9.17188 108.773 9.85938 108.82 10.6406C108.867 11.4219 108.914 12.2578 108.961 13.1484C109.023 14.0391 109.078 14.9219 109.125 15.7969C109.172 15.7188 109.219 15.6484 109.266 15.5859C109.312 15.5234 109.344 15.4844 109.359 15.4688C109.531 15.2812 109.734 15.0625 109.969 14.8125C110.203 14.5625 110.445 14.3047 110.695 14.0391C110.961 13.7734 111.219 13.5156 111.469 13.2656C111.734 13 111.969 12.7656 112.172 12.5625C112.391 12.3438 112.57 12.1719 112.711 12.0469C112.852 11.9219 112.938 11.8594 112.969 11.8594L113.859 12.3047C113.594 12.5391 113.289 12.8125 112.945 13.125C112.602 13.4375 112.266 13.7734 111.938 14.1328C111.609 14.4766 111.289 14.8438 110.977 15.2344C110.68 15.6094 110.438 15.9844 110.25 16.3594C110.25 16.375 110.242 16.4141 110.227 16.4766C110.227 16.5234 110.227 16.5625 110.227 16.5938C110.227 16.6094 110.227 16.6484 110.227 16.7109C110.242 16.7578 110.25 16.7891 110.25 16.8047L115.664 23.1094C115.664 23.125 115.664 23.1562 115.664 23.2031C115.68 23.25 115.688 23.2891 115.688 23.3203C115.688 23.6172 115.531 23.8438 115.219 24L109.359 17.25C109.344 17.2344 109.32 17.2109 109.289 17.1797C109.273 17.1328 109.25 17.0859 109.219 17.0391L109.477 21.5859C109.477 21.6641 109.477 21.8125 109.477 22.0312C109.492 22.25 109.5 22.4922 109.5 22.7578C109.516 23.0078 109.523 23.25 109.523 23.4844C109.539 23.7031 109.547 23.8516 109.547 23.9297C109.344 23.9297 109.156 23.8906 108.984 23.8125C108.812 23.7188 108.68 23.5703 108.586 23.3672ZM116.789 21.9844C116.789 21.0938 117.031 20.4453 117.516 20.0391C118.016 19.6328 118.664 19.4297 119.461 19.4297C119.773 19.4297 120.062 19.4375 120.328 19.4531C120.609 19.4688 120.875 19.5078 121.125 19.5703C121.375 19.6328 121.617 19.7266 121.852 19.8516C122.102 19.9766 122.359 20.1562 122.625 20.3906C122.625 20.3438 122.625 20.25 122.625 20.1094C122.641 19.9531 122.648 19.7891 122.648 19.6172C122.648 19.4453 122.648 19.2891 122.648 19.1484C122.648 18.9922 122.648 18.8828 122.648 18.8203C122.633 18.5391 122.625 18.1797 122.625 17.7422C122.625 17.2891 122.586 16.8281 122.508 16.3594C122.445 15.8906 122.305 15.4453 122.086 15.0234C121.883 14.6016 121.547 14.2812 121.078 14.0625C120.75 14.0625 120.445 14.1172 120.164 14.2266C119.883 14.3359 119.602 14.4531 119.32 14.5781C119.039 14.7031 118.758 14.8203 118.477 14.9297C118.195 15.0234 117.891 15.0703 117.562 15.0703C117.562 14.6797 117.68 14.3594 117.914 14.1094C118.164 13.8438 118.461 13.6406 118.805 13.5C119.148 13.3594 119.508 13.2656 119.883 13.2188C120.258 13.1719 120.586 13.1484 120.867 13.1484C121.148 13.1953 121.406 13.25 121.641 13.3125C121.891 13.375 122.117 13.5 122.32 13.6875C122.539 13.875 122.734 14.1641 122.906 14.5547C123.094 14.9297 123.25 15.4609 123.375 16.1484C123.516 16.8359 123.633 17.7109 123.727 18.7734C123.836 19.8203 123.922 21.1094 123.984 22.6406C124.016 22.8438 123.945 23.0234 123.773 23.1797C123.617 23.3203 123.398 23.4453 123.117 23.5547C122.836 23.6484 122.516 23.7344 122.156 23.8125C121.812 23.875 121.461 23.9219 121.102 23.9531C120.742 23.9844 120.398 24.0078 120.07 24.0234C119.742 24.0391 119.469 24.0469 119.25 24.0469C118.969 24.0469 118.68 24 118.383 23.9062C118.102 23.8125 117.836 23.6797 117.586 23.5078C117.352 23.3203 117.156 23.1016 117 22.8516C116.859 22.5859 116.789 22.2969 116.789 21.9844ZM119.836 20.3438C119.055 20.5625 118.508 20.8281 118.195 21.1406C117.883 21.4375 117.742 21.7266 117.773 22.0078C117.82 22.2891 118.008 22.5469 118.336 22.7812C118.664 23 119.062 23.1484 119.531 23.2266C120 23.2891 120.508 23.25 121.055 23.1094C121.602 22.9531 122.125 22.6562 122.625 22.2188C122.438 21.7656 122.25 21.4219 122.062 21.1875C121.875 20.9375 121.672 20.75 121.453 20.625C121.234 20.5 120.992 20.4219 120.727 20.3906C120.461 20.3594 120.164 20.3438 119.836 20.3438ZM125.25 23.8828C125.219 23.6328 125.188 23.2734 125.156 22.8047C125.141 22.3203 125.117 21.7812 125.086 21.1875C125.07 20.5781 125.055 19.9453 125.039 19.2891C125.023 18.6328 125.008 18.0078 124.992 17.4141C124.977 16.8203 124.953 16.2891 124.922 15.8203C124.906 15.3359 124.875 14.9688 124.828 14.7188C124.828 14.7031 124.82 14.6641 124.805 14.6016C124.805 14.5391 124.797 14.4688 124.781 14.3906C124.781 14.3125 124.781 14.25 124.781 14.2031C124.781 14.1406 124.781 14.0938 124.781 14.0625C125.016 13.875 125.211 13.8125 125.367 13.875C125.539 13.9375 125.68 14.0781 125.789 14.2969C125.898 14.5 125.977 14.7578 126.023 15.0703C126.07 15.3828 126.102 15.6953 126.117 16.0078C126.148 16.3203 126.164 16.6094 126.164 16.875C126.164 17.125 126.164 17.3047 126.164 17.4141C126.195 17.1484 126.242 16.8359 126.305 16.4766C126.367 16.1172 126.461 15.75 126.586 15.375C126.711 15 126.859 14.6328 127.031 14.2734C127.219 13.8984 127.445 13.5703 127.711 13.2891C127.977 13.0078 128.273 12.7891 128.602 12.6328C128.945 12.4766 129.336 12.4141 129.773 12.4453C130.461 12.4766 131.023 12.6641 131.461 13.0078C131.914 13.3516 132.266 13.8125 132.516 14.3906C132.781 14.9688 132.969 15.6328 133.078 16.3828C133.203 17.1328 133.281 17.9297 133.312 18.7734C133.359 19.6172 133.375 20.4766 133.359 21.3516C133.344 22.2109 133.336 23.0391 133.336 23.8359C133.195 23.8672 133.055 23.9219 132.914 24C132.773 24.0625 132.656 24.0859 132.562 24.0703C132.469 24.0703 132.398 24.0078 132.352 23.8828C132.32 23.7422 132.336 23.4766 132.398 23.0859C132.414 22.8047 132.438 22.375 132.469 21.7969C132.516 21.2031 132.531 20.5469 132.516 19.8281C132.516 19.1094 132.477 18.3672 132.398 17.6016C132.32 16.8359 132.172 16.1406 131.953 15.5156C131.75 14.875 131.453 14.3594 131.062 13.9688C130.672 13.5625 130.164 13.3594 129.539 13.3594C128.898 13.625 128.359 14.125 127.922 14.8594C127.5 15.5938 127.156 16.4531 126.891 17.4375C126.641 18.4219 126.453 19.4922 126.328 20.6484C126.219 21.7891 126.156 22.9062 126.141 24C126.109 23.9844 126.047 23.9766 125.953 23.9766C125.875 23.9766 125.781 23.9766 125.672 23.9766C125.578 23.9609 125.484 23.9453 125.391 23.9297C125.312 23.9141 125.266 23.8984 125.25 23.8828ZM134.391 14.8594C134.578 14.8594 134.781 14.9062 135 15C135.219 15.0938 135.375 15.2812 135.469 15.5625C135.594 15.0312 135.781 14.6016 136.031 14.2734C136.297 13.9453 136.594 13.7188 136.922 13.5938C137.266 13.4688 137.617 13.4297 137.977 13.4766C138.352 13.5078 138.695 13.6172 139.008 13.8047C139.336 13.9922 139.617 14.2344 139.852 14.5312C140.102 14.8281 140.273 15.1719 140.367 15.5625C140.539 15.0781 140.766 14.6328 141.047 14.2266C141.344 13.8047 141.664 13.4531 142.008 13.1719C142.367 12.8906 142.734 12.6953 143.109 12.5859C143.5 12.4766 143.859 12.4844 144.188 12.6094C144.531 12.7188 144.828 12.9688 145.078 13.3594C145.344 13.7344 145.531 14.2812 145.641 15C145.672 15.2031 145.711 15.5078 145.758 15.9141C145.805 16.3047 145.852 16.75 145.898 17.25C145.961 17.75 146.023 18.2812 146.086 18.8438C146.164 19.3906 146.227 19.9141 146.273 20.4141C146.336 20.9141 146.391 21.3672 146.438 21.7734C146.484 22.1641 146.523 22.4531 146.555 22.6406C146.555 22.7969 146.547 22.9688 146.531 23.1562C146.516 23.3438 146.477 23.5078 146.414 23.6484C146.367 23.7734 146.281 23.8594 146.156 23.9062C146.047 23.9375 145.875 23.8672 145.641 23.6953C145.641 23.5078 145.617 23.2031 145.57 22.7812C145.523 22.3594 145.477 21.875 145.43 21.3281C145.383 20.7656 145.32 20.1797 145.242 19.5703C145.18 18.9453 145.109 18.3594 145.031 17.8125C144.969 17.2656 144.914 16.7812 144.867 16.3594C144.82 15.9375 144.773 15.6406 144.727 15.4688C144.492 14.75 144.242 14.25 143.977 13.9688C143.727 13.6875 143.469 13.5625 143.203 13.5938C142.953 13.625 142.711 13.7891 142.477 14.0859C142.242 14.3828 142.031 14.7578 141.844 15.2109C141.656 15.6641 141.477 16.1719 141.305 16.7344C141.148 17.2812 141.023 17.8281 140.93 18.375C140.852 18.9219 140.797 19.4375 140.766 19.9219C140.75 20.4062 140.781 20.8047 140.859 21.1172L139.945 21.3047C139.992 19.8047 139.938 18.5781 139.781 17.625C139.641 16.6562 139.438 15.9141 139.172 15.3984C138.922 14.8828 138.633 14.5781 138.305 14.4844C137.977 14.375 137.648 14.4375 137.32 14.6719C137.008 14.9062 136.719 15.2969 136.453 15.8438C136.188 16.3906 135.984 17.0547 135.844 17.8359C135.719 18.6016 135.672 19.4688 135.703 20.4375C135.734 21.4062 135.898 22.4453 136.195 23.5547H135.305C135.305 23.5547 135.281 23.4062 135.234 23.1094C135.203 22.8125 135.156 22.4375 135.094 21.9844C135.047 21.5156 134.992 20.9922 134.93 20.4141C134.867 19.8203 134.805 19.2266 134.742 18.6328C134.68 18.0234 134.617 17.4453 134.555 16.8984C134.492 16.3359 134.438 15.8594 134.391 15.4688C134.391 15.4219 134.391 15.3203 134.391 15.1641C134.391 14.9922 134.391 14.8906 134.391 14.8594ZM147.562 14.9062C147.562 14.8281 147.609 14.75 147.703 14.6719C147.812 14.5938 147.938 14.5312 148.078 14.4844C148.234 14.4375 148.383 14.4062 148.523 14.3906C148.664 14.375 148.766 14.3984 148.828 14.4609C148.922 16.3984 149.102 17.9453 149.367 19.1016C149.648 20.2422 149.961 21.0781 150.305 21.6094C150.664 22.1406 151.047 22.4141 151.453 22.4297C151.859 22.4297 152.258 22.2578 152.648 21.9141C153.039 21.5547 153.398 21.0703 153.727 20.4609C154.07 19.8516 154.344 19.1953 154.547 18.4922C154.766 17.7891 154.898 17.0859 154.945 16.3828C154.992 15.6797 154.93 15.0547 154.758 14.5078L156.164 14.3438C156.18 14.5781 156.219 14.9688 156.281 15.5156C156.359 16.0469 156.438 16.6562 156.516 17.3438C156.609 18.0156 156.711 18.7188 156.82 19.4531C156.93 20.1875 157.023 20.875 157.102 21.5156C157.18 22.1406 157.25 22.6797 157.312 23.1328C157.375 23.5703 157.406 23.8438 157.406 23.9531H156.398L155.297 19.8984C155.078 20.4453 154.812 20.9688 154.5 21.4688C154.188 21.9688 153.844 22.4062 153.469 22.7812C153.109 23.1562 152.727 23.4531 152.32 23.6719C151.914 23.875 151.508 23.9609 151.102 23.9297C150.711 23.8828 150.328 23.6953 149.953 23.3672C149.578 23.0391 149.227 22.5234 148.898 21.8203C148.586 21.1016 148.312 20.1797 148.078 19.0547C147.844 17.9297 147.672 16.5469 147.562 14.9062ZM163.922 17.7188L158.531 13.2188V11.8594C158.656 11.9688 158.844 12.1328 159.094 12.3516C159.359 12.5547 159.656 12.7891 159.984 13.0547C160.312 13.3203 160.648 13.6016 160.992 13.8984C161.352 14.1953 161.695 14.4766 162.023 14.7422C162.352 14.9922 162.641 15.2266 162.891 15.4453C163.156 15.6484 163.359 15.7969 163.5 15.8906C163.641 16 163.812 16.1016 164.016 16.1953C164.219 16.2734 164.414 16.375 164.602 16.5C164.805 16.6094 164.977 16.7422 165.117 16.8984C165.258 17.0391 165.328 17.2266 165.328 17.4609C165.328 17.4922 165.32 17.5391 165.305 17.6016C165.305 17.6484 165.297 17.6875 165.281 17.7188C165.172 17.8594 165.016 18.0859 164.812 18.3984C164.609 18.6953 164.375 19.0391 164.109 19.4297C163.844 19.8047 163.562 20.2109 163.266 20.6484C162.969 21.0703 162.688 21.4766 162.422 21.8672C162.156 22.2422 161.914 22.5859 161.695 22.8984C161.492 23.1953 161.344 23.4141 161.25 23.5547C161.109 23.7266 160.977 23.8672 160.852 23.9766C160.727 24.0703 160.555 24.1172 160.336 24.1172V23.1094L163.922 17.7188Z" fill="#E0E0E0"/>
</svg>
