<svg width="1096" height="900" viewBox="0 0 1096 900" fill="none" xmlns="http://www.w3.org/2000/svg">
<g filter="url(#filter0_d)">
<path opacity="0.14" d="M883.516 150.276C883.516 174.05 762.263 175.788 714.016 175.788C665.77 175.788 668.016 135.627 668.016 129.189C668.016 126.175 763.824 89.9793 804.785 84.0133C851.333 77.2334 857.853 84.0133 883.516 84.0133C931.763 84.0133 872.209 134.477 883.516 150.276Z" fill="#6FCF97"/>
<path opacity="0.14" d="M610.016 770.587C610.016 794.361 536.263 781.288 488.016 781.288C439.77 781.288 442.016 741.127 442.016 734.689C466.5 698 543.556 765.553 584.516 759.587C631.064 752.807 609.836 674 635.5 674C683.747 674 598.709 754.788 610.016 770.587Z" fill="#6FCF97"/>
<path opacity="0.19" d="M1047.45 748.716C914.432 656.454 900.679 833.94 852.432 833.94C804.186 833.94 831.949 734.067 831.949 727.629C831.949 724.615 873.472 621.406 914.432 615.44C960.98 608.66 1021.79 682.454 1047.45 682.454C1095.7 682.454 1113.92 773.454 1047.45 748.716Z" fill="#6FCF97"/>
<path opacity="0.14" d="M401.762 113.764C401.762 168.604 276.479 123.67 163.533 123.67C50.587 123.67 0 89.8804 0 75.0299C0 68.0786 224.287 -15.4131 320.177 -29.1749C429.146 -44.8138 414.566 9.57541 474.645 9.57541C587.591 9.57541 375.292 77.3215 401.762 113.764Z" fill="#6FCF97"/>
<path opacity="0.19" d="M254.577 886.98C254.577 941.82 237.557 923.151 124.611 923.151C11.6644 923.151 94.5773 863.831 94.5773 848.98C94.5773 842.029 -25.8122 795.242 70.0774 781.48C179.046 765.841 194.499 807.98 254.577 807.98C367.524 807.98 228.107 850.538 254.577 886.98Z" fill="#6FCF97"/>
<path opacity="0.13" d="M944.099 533.34C944.099 575.36 931.967 559.359 819.021 559.359C706.075 559.359 606.521 509.21 606.521 494.36C593.021 483.86 551.632 393.621 647.521 379.86C756.49 364.221 820.943 452.36 881.021 452.36C993.967 452.36 917.629 496.898 944.099 533.34Z" fill="#6FCF97"/>
<path opacity="0.15" d="M415.243 284.026C372.577 284.026 354.243 373.026 318.077 327.026C284.387 327.026 305.577 306.946 305.577 284.026C355.911 274.526 320.553 242.526 354.243 242.526C415.243 220.026 415.243 261.106 415.243 284.026Z" fill="#6FCF97"/>
</g>
<defs>
<filter id="filter0_d" x="0" y="-32" width="1095.74" height="963.214" filterUnits="userSpaceOnUse" color-interpolation-filters="sRGB">
<feFlood flood-opacity="0" result="BackgroundImageFix"/>
<feColorMatrix in="SourceAlpha" type="matrix" values="0 0 0 0 0 0 0 0 0 0 0 0 0 0 0 0 0 0 127 0"/>
<feOffset dx="4" dy="4"/>
<feGaussianBlur stdDeviation="0.5"/>
<feColorMatrix type="matrix" values="0 0 0 0 0 0 0 0 0 0 0 0 0 0 0 0 0 0 0.25 0"/>
<feBlend mode="normal" in2="BackgroundImageFix" result="effect1_dropShadow"/>
<feBlend mode="normal" in="SourceGraphic" in2="effect1_dropShadow" result="shape"/>
</filter>
</defs>
</svg>
