<svg width="116" height="107" viewBox="0 0 116 107" fill="none" xmlns="http://www.w3.org/2000/svg">
<path d="M-0.000244141 10C-0.000244141 4.47715 4.47691 0 9.99976 0H106C111.522 0 116 4.47715 116 10V107H-0.000244141V10Z" fill="#6FCF97" fill-opacity="0.67"/>
<path d="M-0.000244141 86H116V107H-0.000244141V86Z" fill="black" fill-opacity="0.05"/>
<path d="M50.683 97.293C50.5776 98.1953 50.2436 98.8926 49.6811 99.3848C49.1225 99.873 48.3783 100.117 47.4487 100.117C46.4408 100.117 45.6323 99.7559 45.0229 99.0332C44.4174 98.3105 44.1147 97.3438 44.1147 96.1328V95.3125C44.1147 94.5195 44.2553 93.8223 44.5366 93.2207C44.8217 92.6191 45.2241 92.1582 45.7436 91.8379C46.2631 91.5137 46.8647 91.3516 47.5483 91.3516C48.4545 91.3516 49.1811 91.6055 49.728 92.1133C50.2748 92.6172 50.5932 93.3164 50.683 94.2109H49.5522C49.4545 93.5312 49.2416 93.0391 48.9135 92.7344C48.5893 92.4297 48.1342 92.2773 47.5483 92.2773C46.8295 92.2773 46.2651 92.543 45.8549 93.0742C45.4487 93.6055 45.2455 94.3613 45.2455 95.3418V96.168C45.2455 97.0938 45.4389 97.8301 45.8256 98.377C46.2123 98.9238 46.7533 99.1973 47.4487 99.1973C48.0737 99.1973 48.5522 99.0566 48.8842 98.7754C49.2201 98.4902 49.4428 97.9961 49.5522 97.293H50.683ZM54.8577 96.1973C53.8929 95.9199 53.1898 95.5801 52.7483 95.1777C52.3108 94.7715 52.0921 94.2715 52.0921 93.6777C52.0921 93.0059 52.3597 92.4512 52.8948 92.0137C53.4339 91.5723 54.1331 91.3516 54.9925 91.3516C55.5784 91.3516 56.0999 91.4648 56.5569 91.6914C57.0179 91.918 57.3733 92.2305 57.6233 92.6289C57.8773 93.0273 58.0042 93.4629 58.0042 93.9355H56.8733C56.8733 93.4199 56.7093 93.0156 56.3812 92.7227C56.053 92.4258 55.5901 92.2773 54.9925 92.2773C54.4378 92.2773 54.0042 92.4004 53.6917 92.6465C53.3831 92.8887 53.2288 93.2266 53.2288 93.6602C53.2288 94.0078 53.3753 94.3027 53.6683 94.5449C53.9651 94.7832 54.4671 95.002 55.1741 95.2012C55.8851 95.4004 56.4398 95.6211 56.8382 95.8633C57.2405 96.1016 57.5374 96.3809 57.7288 96.7012C57.9241 97.0215 58.0218 97.3984 58.0218 97.832C58.0218 98.5234 57.7523 99.0781 57.2132 99.4961C56.6741 99.9102 55.9534 100.117 55.0511 100.117C54.4651 100.117 53.9183 100.006 53.4105 99.7832C52.9026 99.5566 52.5101 99.248 52.2327 98.8574C51.9593 98.4668 51.8226 98.0234 51.8226 97.5273H52.9534C52.9534 98.043 53.1429 98.4512 53.5218 98.752C53.9046 99.0488 54.4144 99.1973 55.0511 99.1973C55.6448 99.1973 56.0999 99.0762 56.4163 98.834C56.7327 98.5918 56.8909 98.2617 56.8909 97.8438C56.8909 97.4258 56.7444 97.1035 56.4515 96.877C56.1585 96.6465 55.6273 96.4199 54.8577 96.1973ZM62.1027 96.1973C61.1379 95.9199 60.4348 95.5801 59.9933 95.1777C59.5558 94.7715 59.3371 94.2715 59.3371 93.6777C59.3371 93.0059 59.6047 92.4512 60.1398 92.0137C60.6789 91.5723 61.3781 91.3516 62.2375 91.3516C62.8234 91.3516 63.3449 91.4648 63.8019 91.6914C64.2629 91.918 64.6183 92.2305 64.8683 92.6289C65.1223 93.0273 65.2492 93.4629 65.2492 93.9355H64.1183C64.1183 93.4199 63.9543 93.0156 63.6262 92.7227C63.298 92.4258 62.8351 92.2773 62.2375 92.2773C61.6828 92.2773 61.2492 92.4004 60.9367 92.6465C60.6281 92.8887 60.4738 93.2266 60.4738 93.6602C60.4738 94.0078 60.6203 94.3027 60.9133 94.5449C61.2101 94.7832 61.7121 95.002 62.4191 95.2012C63.1301 95.4004 63.6848 95.6211 64.0832 95.8633C64.4855 96.1016 64.7824 96.3809 64.9738 96.7012C65.1691 97.0215 65.2668 97.3984 65.2668 97.832C65.2668 98.5234 64.9973 99.0781 64.4582 99.4961C63.9191 99.9102 63.1984 100.117 62.2961 100.117C61.7101 100.117 61.1633 100.006 60.6555 99.7832C60.1476 99.5566 59.7551 99.248 59.4777 98.8574C59.2043 98.4668 59.0676 98.0234 59.0676 97.5273H60.1984C60.1984 98.043 60.3879 98.4512 60.7668 98.752C61.1496 99.0488 61.6594 99.1973 62.2961 99.1973C62.8898 99.1973 63.3449 99.0762 63.6613 98.834C63.9777 98.5918 64.1359 98.2617 64.1359 97.8438C64.1359 97.4258 63.9894 97.1035 63.6965 96.877C63.4035 96.6465 62.8723 96.4199 62.1027 96.1973ZM68.129 95.207H68.9434C69.4551 95.1992 69.8575 95.0645 70.1505 94.8027C70.4434 94.541 70.5899 94.1875 70.5899 93.7422C70.5899 92.7422 70.0919 92.2422 69.0958 92.2422C68.627 92.2422 68.252 92.377 67.9708 92.6465C67.6934 92.9121 67.5548 93.2656 67.5548 93.707H66.4708C66.4708 93.0312 66.7169 92.4707 67.2091 92.0254C67.7051 91.5762 68.3341 91.3516 69.0958 91.3516C69.9005 91.3516 70.5313 91.5645 70.9883 91.9902C71.4454 92.416 71.6739 93.0078 71.6739 93.7656C71.6739 94.1367 71.5528 94.4961 71.3106 94.8438C71.0723 95.1914 70.7462 95.4512 70.3321 95.623C70.8008 95.7715 71.1622 96.0176 71.4161 96.3613C71.6739 96.7051 71.8028 97.125 71.8028 97.6211C71.8028 98.3867 71.5528 98.9941 71.0528 99.4434C70.5528 99.8926 69.9024 100.117 69.1016 100.117C68.3008 100.117 67.6485 99.9004 67.1446 99.4668C66.6446 99.0332 66.3946 98.4609 66.3946 97.75H67.4844C67.4844 98.1992 67.6309 98.5586 67.9239 98.8281C68.2169 99.0977 68.6094 99.2324 69.1016 99.2324C69.6251 99.2324 70.0255 99.0957 70.3028 98.8223C70.5801 98.5488 70.7188 98.1562 70.7188 97.6445C70.7188 97.1484 70.5665 96.7676 70.2618 96.502C69.9571 96.2363 69.5176 96.0996 68.9434 96.0918H68.129V95.207Z" fill="#1C1C1C"/>
<g clip-path="url(#clip0)">
<path d="M93.1146 4.47217H23.2729L29.4354 74.3138L58.1938 82.5304L86.9521 74.3138L93.1146 4.47217Z" fill="#1C1C1C"/>
<path d="M58.1935 10.6335V76.1614L81.2001 69.5881L86.3356 10.6335H58.1935Z" fill="#1C1C1C"/>
<path d="M76.8864 20.9045H58.1935V29.1212H68.2589L67.6426 37.3379H58.1935V45.5545H67.2318L66.6156 54.7983L58.1935 57.6741V66.3016L74.4214 60.9608L75.8593 37.3379L76.8864 20.9045Z" fill="#549670"/>
<path d="M58.1935 20.9045V29.1212H39.9114L39.2952 20.9045H58.1935ZM48.7443 37.3379L49.1552 45.5545H58.1935V37.3379H48.7443ZM49.566 49.6628H41.3493L41.9656 60.9608L58.1935 66.3016V57.6741L49.7714 54.7983L49.566 49.6628Z" fill="#549670"/>
</g>
<defs>
<clipPath id="clip0">
<rect width="69.9866" height="78.4933" fill="white" transform="translate(23.2002 4.25366)"/>
</clipPath>
</defs>
</svg>
