<svg width="71" height="79" viewBox="0 0 71 79" fill="none" xmlns="http://www.w3.org/2000/svg">
<g clip-path="url(#clip0)">
<path d="M70.1146 0.472168H0.272949L6.43545 70.3138L35.1938 78.5304L63.9521 70.3138L70.1146 0.472168Z" fill="#1C1C1C"/>
<path d="M35.1935 6.63354V72.1614L58.2001 65.5881L63.3356 6.63354H35.1935Z" fill="#1C1C1C"/>
<path d="M53.8864 16.9045H35.1935V25.1212H45.2589L44.6426 33.3379H35.1935V41.5545H44.2318L43.6156 50.7983L35.1935 53.6741V62.3016L51.4214 56.9608L52.8593 33.3379L53.8864 16.9045Z" fill="#6BC691"/>
<path d="M35.1935 16.9045V25.1212H16.9114L16.2952 16.9045H35.1935ZM25.7443 33.3379L26.1552 41.5545H35.1935V33.3379H25.7443ZM26.566 45.6628H18.3493L18.9656 56.9608L35.1935 62.3016V53.6741L26.7714 50.7983L26.566 45.6628Z" fill="#4F8967"/>
</g>
<defs>
<clipPath id="clip0">
<rect width="69.9866" height="78.4933" fill="white" transform="translate(0.200195 0.253662)"/>
</clipPath>
</defs>
</svg>
