<svg width="473" height="290" viewBox="0 0 473 290" fill="none" xmlns="http://www.w3.org/2000/svg">
<ellipse opacity="0.16" cx="235" cy="273" rx="182" ry="17" fill="black"/>
<g filter="url(#filter0_d)">
<path d="M36.3538 130.6H56.3178C58.5258 130.6 59.9058 131.612 60.4578 133.636L80.9738 192.332C81.0351 192.516 81.0658 192.823 81.0658 193.252C81.0658 193.62 80.8511 194.019 80.4218 194.448C80.0538 194.816 79.5938 195 79.0418 195H62.0218C60.1818 195 58.9858 194.233 58.4338 192.7L56.2258 186.628H36.4458L34.2378 192.7C33.6858 194.233 32.4898 195 30.6498 195H13.6298C13.0778 195 12.5871 194.816 12.1578 194.448C11.7898 194.019 11.6058 193.62 11.6058 193.252C11.6058 192.823 11.6365 192.516 11.6978 192.332L32.2138 133.636C32.7658 131.612 34.1458 130.6 36.3538 130.6ZM41.1378 168.688H51.5338L46.2898 151.576L41.1378 168.688ZM152.38 191.964C152.564 192.271 152.656 192.669 152.656 193.16C152.656 193.589 152.441 194.019 152.012 194.448C151.644 194.816 151.184 195 150.632 195H129.656C127.877 195 126.62 194.295 125.884 192.884L114.66 172.828V192.516C114.66 193.191 114.415 193.773 113.924 194.264C113.433 194.755 112.851 195 112.176 195H94.6042C93.9295 195 93.3468 194.755 92.8562 194.264C92.3655 193.773 92.1202 193.191 92.1202 192.516V133.084C92.1202 132.409 92.3655 131.827 92.8562 131.336C93.3468 130.845 93.9295 130.6 94.6042 130.6H112.176C112.851 130.6 113.433 130.845 113.924 131.336C114.415 131.827 114.66 132.409 114.66 133.084V151.3L125.056 132.624C125.731 131.275 126.957 130.6 128.736 130.6H149.068C149.62 130.6 150.08 130.815 150.448 131.244C150.877 131.612 151.092 132.041 151.092 132.532C151.092 132.961 151 133.329 150.816 133.636L134.256 161.42L152.38 191.964ZM183.421 130.6H203.385C205.593 130.6 206.973 131.612 207.525 133.636L228.041 192.332C228.102 192.516 228.133 192.823 228.133 193.252C228.133 193.62 227.918 194.019 227.489 194.448C227.121 194.816 226.661 195 226.109 195H209.089C207.249 195 206.053 194.233 205.501 192.7L203.293 186.628H183.513L181.305 192.7C180.753 194.233 179.557 195 177.717 195H160.697C160.145 195 159.654 194.816 159.225 194.448C158.857 194.019 158.673 193.62 158.673 193.252C158.673 192.823 158.703 192.516 158.765 192.332L179.281 133.636C179.833 131.612 181.213 130.6 183.421 130.6ZM188.205 168.688H198.601L193.357 151.576L188.205 168.688ZM278.011 130.6H294.663C295.338 130.6 295.921 130.845 296.411 131.336C296.902 131.827 297.147 132.409 297.147 133.084V192.516C297.147 193.191 296.902 193.773 296.411 194.264C295.921 194.755 295.338 195 294.663 195H280.127C278.533 195 277.275 194.295 276.355 192.884L260.807 169.424V192.516C260.807 193.191 260.562 193.773 260.071 194.264C259.581 194.755 258.998 195 258.323 195H241.671C240.997 195 240.414 194.755 239.923 194.264C239.433 193.773 239.187 193.191 239.187 192.516V133.084C239.187 132.409 239.433 131.827 239.923 131.336C240.414 130.845 240.997 130.6 241.671 130.6H256.207C257.925 130.6 259.182 131.305 259.979 132.716L275.527 158.2V133.084C275.527 132.409 275.773 131.827 276.263 131.336C276.754 130.845 277.337 130.6 278.011 130.6ZM364.378 130.6H378.914C379.588 130.6 380.171 130.845 380.662 131.336C381.152 131.827 381.398 132.409 381.398 133.084V192.516C381.398 193.191 381.152 193.773 380.662 194.264C380.171 194.755 379.588 195 378.914 195H362.262C361.587 195 361.004 194.755 360.514 194.264C360.023 193.773 359.778 193.191 359.778 192.516V167.308L353.706 177.244C352.724 178.777 351.59 179.544 350.302 179.544H343.862C342.574 179.544 341.439 178.777 340.458 177.244L334.386 167.308V192.516C334.386 193.191 334.14 193.773 333.65 194.264C333.159 194.755 332.576 195 331.902 195H315.25C314.575 195 313.992 194.755 313.502 194.264C313.011 193.773 312.766 193.191 312.766 192.516V133.084C312.766 132.409 313.011 131.827 313.502 131.336C313.992 130.845 314.575 130.6 315.25 130.6H329.786C331.503 130.6 332.822 131.428 333.742 133.084L347.082 155.164L360.422 133.084C361.342 131.428 362.66 130.6 364.378 130.6ZM435.215 130.6H453.247C453.922 130.6 454.505 130.845 454.995 131.336C455.486 131.827 455.731 132.409 455.731 133.084V170.068C455.731 178.655 453.063 185.125 447.727 189.48C442.391 193.773 435.123 195.92 425.923 195.92C416.785 195.92 409.517 193.773 404.119 189.48C398.783 185.187 396.115 178.716 396.115 170.068V133.084C396.115 132.409 396.361 131.827 396.851 131.336C397.342 130.845 397.925 130.6 398.599 130.6H416.631C417.306 130.6 417.889 130.845 418.379 131.336C418.87 131.827 419.115 132.409 419.115 133.084V170.344C419.115 175.067 421.385 177.428 425.923 177.428C430.462 177.428 432.731 175.067 432.731 170.344V133.084C432.731 132.409 432.977 131.827 433.467 131.336C433.958 130.845 434.541 130.6 435.215 130.6Z" fill="#B25FFF"/>
<path d="M41.4832 65.712V87.888C41.4832 95.016 44.7392 98.58 51.2512 98.58C56.2672 98.58 59.5672 96.204 61.1512 91.452C61.5912 89.956 62.1192 88.944 62.7352 88.416C63.4392 87.888 64.5392 87.624 66.0352 87.624H92.9632C93.7552 87.624 94.4152 87.932 94.9432 88.548C95.5592 89.076 95.8672 89.736 95.8672 90.528C95.8672 98.184 93.6672 104.608 89.2672 109.8C81.1712 119.48 68.5432 124.32 51.3832 124.32C37.9192 124.32 27.1832 121.372 19.1752 115.476C11.1672 109.492 7.16321 100.34 7.16321 88.02V65.58C7.16321 53.524 11.2552 44.46 19.4392 38.388C27.6232 32.316 38.2712 29.28 51.3832 29.28C68.5432 29.28 81.1712 34.12 89.2672 43.8C93.6672 48.992 95.8672 55.416 95.8672 63.072C95.8672 63.864 95.5592 64.568 94.9432 65.184C94.4152 65.712 93.7552 65.976 92.9632 65.976H66.0352C64.6272 65.976 63.5712 65.712 62.8672 65.184C62.2512 64.656 61.6792 63.644 61.1512 62.148C59.4792 57.396 56.1792 55.02 51.2512 55.02C44.7392 55.02 41.4832 58.584 41.4832 65.712ZM171.644 30.6H197.516C198.484 30.6 199.32 30.952 200.024 31.656C200.728 32.36 201.08 33.196 201.08 34.164V119.436C201.08 120.404 200.728 121.24 200.024 121.944C199.32 122.648 198.484 123 197.516 123H171.644C170.676 123 169.84 122.648 169.136 121.944C168.432 121.24 168.08 120.404 168.08 119.436V90.924H146.696V119.436C146.696 120.404 146.344 121.24 145.64 121.944C144.936 122.648 144.1 123 143.132 123H117.26C116.292 123 115.456 122.692 114.752 122.076C114.048 121.372 113.696 120.492 113.696 119.436V34.164C113.696 33.196 114.048 32.36 114.752 31.656C115.456 30.952 116.292 30.6 117.26 30.6H143.132C144.1 30.6 144.936 30.952 145.64 31.656C146.344 32.36 146.696 33.196 146.696 34.164V61.884H168.08V34.164C168.08 33.196 168.432 32.36 169.136 31.656C169.84 30.952 170.676 30.6 171.644 30.6ZM308.527 118.644C308.791 119.172 308.923 119.744 308.923 120.36C308.923 120.976 308.615 121.592 307.999 122.208C307.471 122.736 306.811 123 306.019 123H278.959C276.231 123 274.339 121.812 273.283 119.436L261.931 94.224H256.519V119.436C256.519 120.404 256.167 121.24 255.463 121.944C254.759 122.648 253.923 123 252.955 123H227.083C226.115 123 225.279 122.648 224.575 121.944C223.871 121.24 223.519 120.404 223.519 119.436V34.164C223.519 33.196 223.871 32.36 224.575 31.656C225.279 30.952 226.115 30.6 227.083 30.6H266.155C278.827 30.6 288.727 33.46 295.855 39.18C302.983 44.812 306.547 52.952 306.547 63.6C306.547 74.16 301.795 82.476 292.291 88.548L308.527 118.644ZM256.519 55.152V69.144H266.155C268.091 69.144 269.587 68.528 270.643 67.296C271.699 65.976 272.227 64.348 272.227 62.412C272.227 60.476 271.699 58.804 270.643 57.396C269.675 55.9 268.179 55.152 266.155 55.152H256.519ZM357.26 123H330.332C329.364 123 328.528 122.648 327.824 121.944C327.12 121.24 326.768 120.404 326.768 119.436V34.164C326.768 33.196 327.12 32.36 327.824 31.656C328.528 30.952 329.364 30.6 330.332 30.6H357.26C358.228 30.6 359.064 30.952 359.768 31.656C360.472 32.36 360.824 33.196 360.824 34.164V119.436C360.824 120.404 360.472 121.24 359.768 121.944C359.064 122.648 358.228 123 357.26 123ZM380.848 59.64C380.848 50.664 384.544 43.36 391.936 37.728C399.416 32.096 409.184 29.28 421.24 29.28C433.384 29.28 443.284 32.228 450.94 38.124C458.684 44.02 462.556 50.18 462.556 56.604C462.556 57.396 462.248 58.1 461.632 58.716C461.104 59.244 460.488 59.508 459.784 59.508H433.384C431.36 59.508 429.512 58.76 427.84 57.264C426.168 55.768 423.924 55.02 421.108 55.02C416.884 55.02 414.772 56.252 414.772 58.716C414.772 60.036 415.784 61.136 417.808 62.016C419.92 62.896 423.792 63.688 429.424 64.392C442.536 66.064 451.864 69.144 457.408 73.632C463.04 78.032 465.856 84.764 465.856 93.828C465.856 102.804 461.72 110.152 453.448 115.872C445.264 121.504 434.528 124.32 421.24 124.32C407.952 124.32 397.524 121.592 389.956 116.136C382.388 110.68 378.604 104.036 378.604 96.204C378.604 95.412 378.868 94.752 379.396 94.224C380.012 93.608 380.716 93.3 381.508 93.3H406.588C408.436 93.3 410.46 94.18 412.66 95.94C414.948 97.7 418.072 98.58 422.032 98.58C428.632 98.58 431.932 97.348 431.932 94.884C431.932 93.3 430.744 92.112 428.368 91.32C425.992 90.44 421.504 89.56 414.904 88.68C392.2 85.688 380.848 76.008 380.848 59.64Z" fill="url(#paint0_linear)"/>
</g>
<path d="M24.3008 16.7949H18.666V22H17.5039V10.623H25.1211V11.6289H18.666V15.7988H24.3008V16.7949ZM41.2484 10.623V18.2988C41.2484 19.4837 40.8578 20.4245 40.0766 21.1211C39.2953 21.8112 38.2406 22.1562 36.9125 22.1562C35.5909 22.1562 34.5427 21.821 33.768 21.1504C32.9932 20.4733 32.5961 19.5488 32.5766 18.377V10.623H33.7289V18.2988C33.7289 19.1973 34.0121 19.9004 34.5785 20.4082C35.1514 20.916 35.9294 21.1699 36.9125 21.1699C37.8891 21.1699 38.6605 20.9225 39.227 20.4277C39.7934 19.9264 40.0798 19.2266 40.0863 18.3281V10.623H41.2484ZM50.8426 21.0137H56.8191V22H49.6805V10.623H50.8426V21.0137ZM65.5246 21.0137H71.5012V22H64.3625V10.623H65.5246V21.0137ZM85.9195 19.1777C85.9195 18.5983 85.7047 18.1328 85.275 17.7812C84.8453 17.4297 84.0445 17.1074 82.8727 16.8145C81.7073 16.515 80.8479 16.2155 80.2945 15.916C79.7411 15.6165 79.3277 15.2682 79.0543 14.8711C78.7874 14.4674 78.6539 13.9922 78.6539 13.4453C78.6539 12.5664 79.038 11.8503 79.8063 11.2969C80.5745 10.7435 81.5738 10.4668 82.8043 10.4668C84.0413 10.4668 85.0536 10.7891 85.8414 11.4336C86.6292 12.0716 87.023 12.8919 87.023 13.8945H85.8512C85.8512 13.1589 85.5712 12.5697 85.0113 12.127C84.4514 11.6842 83.7125 11.4629 82.7945 11.4629C81.8896 11.4629 81.1669 11.6452 80.6266 12.0098C80.0862 12.3743 79.816 12.8496 79.816 13.4355C79.816 13.9759 80.0536 14.4186 80.5289 14.7637C81.0042 15.1022 81.7919 15.4115 82.8922 15.6914C83.999 15.9714 84.8323 16.2643 85.3922 16.5703C85.9586 16.8763 86.385 17.2441 86.6715 17.6738C86.9579 18.097 87.1012 18.5951 87.1012 19.168C87.1012 20.0794 86.7073 20.8053 85.9195 21.3457C85.1383 21.8861 84.1194 22.1562 82.8629 22.1562C82.0035 22.1562 81.2223 22.0195 80.5191 21.7461C79.816 21.4661 79.2626 21.069 78.859 20.5547C78.4619 20.0339 78.2633 19.4154 78.2633 18.6992H79.4352C79.4352 19.474 79.7411 20.0827 80.3531 20.5254C80.9716 20.9616 81.8082 21.1797 82.8629 21.1797C83.7874 21.1797 84.5263 20.9974 85.0797 20.6328C85.6396 20.2617 85.9195 19.7767 85.9195 19.1777ZM103.268 11.6289H99.1074V22H97.9453V11.6289H93.7949V10.623H103.268V11.6289ZM117.471 18.9629H111.954L110.743 22H109.532L114.161 10.623H115.284L119.873 22H118.672L117.471 18.9629ZM112.344 17.9668H117.071L114.717 12.0195L112.344 17.9668ZM135.835 18.416C135.698 19.6204 135.233 20.5449 134.438 21.1895C133.651 21.834 132.602 22.1562 131.294 22.1562C129.914 22.1562 128.794 21.6908 127.934 20.7598C127.082 19.8288 126.655 18.5462 126.655 16.9121V15.6621C126.655 14.6335 126.847 13.7253 127.231 12.9375C127.622 12.1432 128.172 11.5345 128.882 11.1113C129.591 10.6816 130.415 10.4668 131.352 10.4668C132.654 10.4668 133.693 10.7956 134.468 11.4531C135.242 12.1042 135.698 13.0319 135.835 14.2363H134.663C134.546 13.3509 134.223 12.6706 133.696 12.1953C133.169 11.7135 132.387 11.4727 131.352 11.4727C130.259 11.4727 129.396 11.8438 128.764 12.5859C128.133 13.3281 127.817 14.3633 127.817 15.6914V16.9805C127.817 18.276 128.126 19.2982 128.745 20.0469C129.37 20.7956 130.22 21.1699 131.294 21.1699C132.342 21.1699 133.133 20.9421 133.667 20.4863C134.207 20.0306 134.539 19.3405 134.663 18.416H135.835ZM146.698 16.4922L145.029 18.0449V22H143.866V10.623H145.029V16.6289L146.65 14.9785L151.073 10.623H152.548L147.538 15.6914L152.958 22H151.513L146.698 16.4922ZM177.586 16.5996H171.951V21.0137H178.445V22H170.789V10.623H178.406V11.6289H171.951V15.6035H177.586V16.5996ZM195.334 22H194.172L187.317 12.459V22H186.155V10.623H187.317L194.172 20.1641V10.623H195.334V22ZM212.848 20.6426C212.595 20.9811 212.214 21.2741 211.706 21.5215C210.827 21.9447 209.779 22.1562 208.561 22.1562C207.083 22.1562 205.889 21.6777 204.977 20.7207C204.066 19.7637 203.61 18.4811 203.61 16.873V15.6426C203.61 14.0671 204.04 12.8105 204.899 11.873C205.759 10.9355 206.921 10.4668 208.386 10.4668C209.662 10.4668 210.68 10.7663 211.442 11.3652C212.21 11.9642 212.676 12.8105 212.839 13.9043H211.677C211.533 13.0905 211.179 12.4818 210.612 12.0781C210.046 11.6745 209.307 11.4727 208.395 11.4727C207.276 11.4727 206.393 11.8405 205.749 12.5762C205.104 13.3118 204.782 14.3372 204.782 15.6523V16.9219C204.782 18.2109 205.124 19.2428 205.807 20.0176C206.491 20.7858 207.412 21.1699 208.571 21.1699C209.242 21.1699 209.854 21.0918 210.407 20.9355C210.967 20.7728 211.393 20.5449 211.686 20.252V17.4688H208.473V16.5117H212.848V20.6426ZM222.677 22H221.505V10.623H222.677V22ZM240.689 22H239.527L232.671 12.459V22H231.509V10.623H232.671L239.527 20.1641V10.623H240.689V22ZM256.094 16.5996H250.459V21.0137H256.953V22H249.297V10.623H256.914V11.6289H250.459V15.6035H256.094V16.5996ZM271.459 16.5996H265.825V21.0137H272.319V22H264.663V10.623H272.28V11.6289H265.825V15.6035H271.459V16.5996ZM284.628 17.4297H281.171V22H280.009V10.623H284.042C285.35 10.623 286.373 10.929 287.108 11.541C287.85 12.153 288.221 12.9928 288.221 14.0605C288.221 14.8092 287.994 15.4635 287.538 16.0234C287.082 16.5768 286.48 16.9577 285.731 17.166L288.739 21.9023V22H287.489L284.628 17.4297ZM281.171 16.4336H284.257C285.103 16.4336 285.78 16.2155 286.288 15.7793C286.796 15.3431 287.05 14.7799 287.05 14.0898C287.05 13.3281 286.786 12.7292 286.259 12.293C285.738 11.8568 285.009 11.6354 284.071 11.6289H281.171V16.4336ZM311.697 14.7734H316.023V15.8672H311.697V20.5742H310.515V15.8672H306.277V14.7734H310.515V10.2227H311.697V14.7734ZM334.401 22V10.623H337.858C338.86 10.623 339.759 10.8379 340.553 11.2676C341.347 11.6973 341.966 12.306 342.409 13.0938C342.858 13.875 343.089 14.7572 343.102 15.7402V16.8047C343.102 17.8138 342.884 18.7122 342.448 19.5C342.018 20.2812 341.403 20.89 340.602 21.3262C339.808 21.7624 338.899 21.987 337.877 22H334.401ZM335.563 11.6289V21.0137H337.789C339.052 21.0137 340.058 20.6328 340.807 19.8711C341.562 19.1094 341.94 18.0677 341.94 16.7461V15.8184C341.94 14.5488 341.572 13.5332 340.836 12.7715C340.101 12.0098 339.098 11.6289 337.829 11.6289H335.563ZM358.048 16.5996H352.413V21.0137H358.907V22H351.251V10.623H358.868V11.6289H352.413V15.6035H358.048V16.5996ZM373.491 19.1777C373.491 18.5983 373.277 18.1328 372.847 17.7812C372.417 17.4297 371.616 17.1074 370.445 16.8145C369.279 16.515 368.42 16.2155 367.866 15.916C367.313 15.6165 366.9 15.2682 366.626 14.8711C366.359 14.4674 366.226 13.9922 366.226 13.4453C366.226 12.5664 366.61 11.8503 367.378 11.2969C368.146 10.7435 369.146 10.4668 370.376 10.4668C371.613 10.4668 372.626 10.7891 373.413 11.4336C374.201 12.0716 374.595 12.8919 374.595 13.8945H373.423C373.423 13.1589 373.143 12.5697 372.583 12.127C372.023 11.6842 371.284 11.4629 370.366 11.4629C369.461 11.4629 368.739 11.6452 368.198 12.0098C367.658 12.3743 367.388 12.8496 367.388 13.4355C367.388 13.9759 367.626 14.4186 368.101 14.7637C368.576 15.1022 369.364 15.4115 370.464 15.6914C371.571 15.9714 372.404 16.2643 372.964 16.5703C373.53 16.8763 373.957 17.2441 374.243 17.6738C374.53 18.097 374.673 18.5951 374.673 19.168C374.673 20.0794 374.279 20.8053 373.491 21.3457C372.71 21.8861 371.691 22.1562 370.435 22.1562C369.575 22.1562 368.794 22.0195 368.091 21.7461C367.388 21.4661 366.834 21.069 366.431 20.5547C366.034 20.0339 365.835 19.4154 365.835 18.6992H367.007C367.007 19.474 367.313 20.0827 367.925 20.5254C368.543 20.9616 369.38 21.1797 370.435 21.1797C371.359 21.1797 372.098 20.9974 372.652 20.6328C373.211 20.2617 373.491 19.7767 373.491 19.1777ZM383.847 22H382.675V10.623H383.847V22ZM401.586 20.6426C401.332 20.9811 400.951 21.2741 400.443 21.5215C399.564 21.9447 398.516 22.1562 397.299 22.1562C395.821 22.1562 394.626 21.6777 393.715 20.7207C392.803 19.7637 392.348 18.4811 392.348 16.873V15.6426C392.348 14.0671 392.777 12.8105 393.637 11.873C394.496 10.9355 395.658 10.4668 397.123 10.4668C398.399 10.4668 399.418 10.7663 400.18 11.3652C400.948 11.9642 401.413 12.8105 401.576 13.9043H400.414C400.271 13.0905 399.916 12.4818 399.35 12.0781C398.783 11.6745 398.044 11.4727 397.133 11.4727C396.013 11.4727 395.131 11.8405 394.486 12.5762C393.842 13.3118 393.52 14.3372 393.52 15.6523V16.9219C393.52 18.2109 393.861 19.2428 394.545 20.0176C395.229 20.7858 396.15 21.1699 397.309 21.1699C397.979 21.1699 398.591 21.0918 399.145 20.9355C399.704 20.7728 400.131 20.5449 400.424 20.252V17.4688H397.211V16.5117H401.586V20.6426ZM419.198 22H418.036L411.18 12.459V22H410.018V10.623H411.18L418.036 20.1641V10.623H419.198V22ZM434.602 16.5996H428.968V21.0137H435.462V22H427.805V10.623H435.423V11.6289H428.968V15.6035H434.602V16.5996ZM447.771 17.4297H444.314V22H443.152V10.623H447.185C448.493 10.623 449.515 10.929 450.251 11.541C450.993 12.153 451.364 12.9928 451.364 14.0605C451.364 14.8092 451.137 15.4635 450.681 16.0234C450.225 16.5768 449.623 16.9577 448.874 17.166L451.882 21.9023V22H450.632L447.771 17.4297ZM444.314 16.4336H447.4C448.246 16.4336 448.923 16.2155 449.431 15.7793C449.939 15.3431 450.193 14.7799 450.193 14.0898C450.193 13.3281 449.929 12.7292 449.402 12.293C448.881 11.8568 448.152 11.6354 447.214 11.6289H444.314V16.4336Z" fill="#B25FFF"/>
<defs>
<filter id="filter0_d" x="0.163086" y="27.2798" width="472.693" height="180.64" filterUnits="userSpaceOnUse" color-interpolation-filters="sRGB">
<feFlood flood-opacity="0" result="BackgroundImageFix"/>
<feColorMatrix in="SourceAlpha" type="matrix" values="0 0 0 0 0 0 0 0 0 0 0 0 0 0 0 0 0 0 127 0"/>
<feOffset dy="5"/>
<feGaussianBlur stdDeviation="3.5"/>
<feColorMatrix type="matrix" values="0 0 0 0 0 0 0 0 0 0 0 0 0 0 0 0 0 0 0.2 0"/>
<feBlend mode="normal" in2="BackgroundImageFix" result="effect1_dropShadow"/>
<feBlend mode="normal" in="SourceGraphic" in2="effect1_dropShadow" result="shape"/>
</filter>
<linearGradient id="paint0_linear" x1="235.5" y1="0" x2="235.5" y2="163" gradientUnits="userSpaceOnUse">
<stop stop-color="#793DB0"/>
<stop offset="1" stop-color="#B25FFF"/>
</linearGradient>
</defs>
</svg>
