<svg width="844" height="487" viewBox="0 0 844 487" fill="none" xmlns="http://www.w3.org/2000/svg">
<ellipse opacity="0.16" cx="438" cy="456" rx="333" ry="31" fill="black"/>
<path d="M415.128 124.6H435.092C437.3 124.6 438.68 125.612 439.232 127.636L459.748 186.332C459.809 186.516 459.84 186.823 459.84 187.252C459.84 187.62 459.625 188.019 459.196 188.448C458.828 188.816 458.368 189 457.816 189H440.796C438.956 189 437.76 188.233 437.208 186.7L435 180.628H415.22L413.012 186.7C412.46 188.233 411.264 189 409.424 189H392.404C391.852 189 391.361 188.816 390.932 188.448C390.564 188.019 390.38 187.62 390.38 187.252C390.38 186.823 390.411 186.516 390.472 186.332L410.988 127.636C411.54 125.612 412.92 124.6 415.128 124.6ZM419.912 162.688H430.308L425.064 145.576L419.912 162.688ZM531.154 185.964C531.338 186.271 531.43 186.669 531.43 187.16C531.43 187.589 531.216 188.019 530.786 188.448C530.418 188.816 529.958 189 529.406 189H508.43C506.652 189 505.394 188.295 504.658 186.884L493.434 166.828V186.516C493.434 187.191 493.189 187.773 492.698 188.264C492.208 188.755 491.625 189 490.95 189H473.378C472.704 189 472.121 188.755 471.63 188.264C471.14 187.773 470.894 187.191 470.894 186.516V127.084C470.894 126.409 471.14 125.827 471.63 125.336C472.121 124.845 472.704 124.6 473.378 124.6H490.95C491.625 124.6 492.208 124.845 492.698 125.336C493.189 125.827 493.434 126.409 493.434 127.084V145.3L503.83 126.624C504.505 125.275 505.732 124.6 507.51 124.6H527.842C528.394 124.6 528.854 124.815 529.222 125.244C529.652 125.612 529.866 126.041 529.866 126.532C529.866 126.961 529.774 127.329 529.59 127.636L513.03 155.42L531.154 185.964ZM562.195 124.6H582.159C584.367 124.6 585.747 125.612 586.299 127.636L606.815 186.332C606.876 186.516 606.907 186.823 606.907 187.252C606.907 187.62 606.692 188.019 606.263 188.448C605.895 188.816 605.435 189 604.883 189H587.863C586.023 189 584.827 188.233 584.275 186.7L582.067 180.628H562.287L560.079 186.7C559.527 188.233 558.331 189 556.491 189H539.471C538.919 189 538.428 188.816 537.999 188.448C537.631 188.019 537.447 187.62 537.447 187.252C537.447 186.823 537.478 186.516 537.539 186.332L558.055 127.636C558.607 125.612 559.987 124.6 562.195 124.6ZM566.979 162.688H577.375L572.131 145.576L566.979 162.688ZM656.785 124.6H673.437C674.112 124.6 674.695 124.845 675.185 125.336C675.676 125.827 675.921 126.409 675.921 127.084V186.516C675.921 187.191 675.676 187.773 675.185 188.264C674.695 188.755 674.112 189 673.437 189H658.901C657.307 189 656.049 188.295 655.129 186.884L639.581 163.424V186.516C639.581 187.191 639.336 187.773 638.845 188.264C638.355 188.755 637.772 189 637.097 189H620.445C619.771 189 619.188 188.755 618.697 188.264C618.207 187.773 617.961 187.191 617.961 186.516V127.084C617.961 126.409 618.207 125.827 618.697 125.336C619.188 124.845 619.771 124.6 620.445 124.6H634.981C636.699 124.6 637.956 125.305 638.753 126.716L654.301 152.2V127.084C654.301 126.409 654.547 125.827 655.037 125.336C655.528 124.845 656.111 124.6 656.785 124.6ZM743.152 124.6H757.688C758.363 124.6 758.945 124.845 759.436 125.336C759.927 125.827 760.172 126.409 760.172 127.084V186.516C760.172 187.191 759.927 187.773 759.436 188.264C758.945 188.755 758.363 189 757.688 189H741.036C740.361 189 739.779 188.755 739.288 188.264C738.797 187.773 738.552 187.191 738.552 186.516V161.308L732.48 171.244C731.499 172.777 730.364 173.544 729.076 173.544H722.636C721.348 173.544 720.213 172.777 719.232 171.244L713.16 161.308V186.516C713.16 187.191 712.915 187.773 712.424 188.264C711.933 188.755 711.351 189 710.676 189H694.024C693.349 189 692.767 188.755 692.276 188.264C691.785 187.773 691.54 187.191 691.54 186.516V127.084C691.54 126.409 691.785 125.827 692.276 125.336C692.767 124.845 693.349 124.6 694.024 124.6H708.56C710.277 124.6 711.596 125.428 712.516 127.084L725.856 149.164L739.196 127.084C740.116 125.428 741.435 124.6 743.152 124.6ZM813.99 124.6H832.022C832.696 124.6 833.279 124.845 833.77 125.336C834.26 125.827 834.506 126.409 834.506 127.084V164.068C834.506 172.655 831.838 179.125 826.502 183.48C821.166 187.773 813.898 189.92 804.698 189.92C795.559 189.92 788.291 187.773 782.894 183.48C777.558 179.187 774.89 172.716 774.89 164.068V127.084C774.89 126.409 775.135 125.827 775.626 125.336C776.116 124.845 776.699 124.6 777.374 124.6H795.406C796.08 124.6 796.663 124.845 797.154 125.336C797.644 125.827 797.89 126.409 797.89 127.084V164.344C797.89 169.067 800.159 171.428 804.698 171.428C809.236 171.428 811.506 169.067 811.506 164.344V127.084C811.506 126.409 811.751 125.827 812.242 125.336C812.732 124.845 813.315 124.6 813.99 124.6Z" fill="#B25FFF"/>
<g filter="url(#filter0_d)">
<path d="M34.11 72.732V89.868C34.11 95.376 36.626 98.13 41.658 98.13C45.534 98.13 48.084 96.294 49.308 92.622C49.648 91.466 50.056 90.684 50.532 90.276C51.076 89.868 51.926 89.664 53.082 89.664H73.89C74.502 89.664 75.012 89.902 75.42 90.378C75.896 90.786 76.134 91.296 76.134 91.908C76.134 97.824 74.434 102.788 71.034 106.8C64.778 114.28 55.02 118.02 41.76 118.02C31.356 118.02 23.06 115.742 16.872 111.186C10.684 106.562 7.59 99.49 7.59 89.97V72.63C7.59 63.314 10.752 56.31 17.076 51.618C23.4 46.926 31.628 44.58 41.76 44.58C55.02 44.58 64.778 48.32 71.034 55.8C74.434 59.812 76.134 64.776 76.134 70.692C76.134 71.304 75.896 71.848 75.42 72.324C75.012 72.732 74.502 72.936 73.89 72.936H53.082C51.994 72.936 51.178 72.732 50.634 72.324C50.158 71.916 49.716 71.134 49.308 69.978C48.016 66.306 45.466 64.47 41.658 64.47C36.626 64.47 34.11 67.224 34.11 72.732ZM134.689 45.6H154.681C155.429 45.6 156.075 45.872 156.619 46.416C157.163 46.96 157.435 47.606 157.435 48.354V114.246C157.435 114.994 157.163 115.64 156.619 116.184C156.075 116.728 155.429 117 154.681 117H134.689C133.941 117 133.295 116.728 132.751 116.184C132.207 115.64 131.935 114.994 131.935 114.246V92.214H115.411V114.246C115.411 114.994 115.139 115.64 114.595 116.184C114.051 116.728 113.405 117 112.657 117H92.6652C91.9172 117 91.2712 116.762 90.7272 116.286C90.1832 115.742 89.9112 115.062 89.9112 114.246V48.354C89.9112 47.606 90.1832 46.96 90.7272 46.416C91.2712 45.872 91.9172 45.6 92.6652 45.6H112.657C113.405 45.6 114.051 45.872 114.595 46.416C115.139 46.96 115.411 47.606 115.411 48.354V69.774H131.935V48.354C131.935 47.606 132.207 46.96 132.751 46.416C133.295 45.872 133.941 45.6 134.689 45.6ZM240.462 113.634C240.666 114.042 240.768 114.484 240.768 114.96C240.768 115.436 240.53 115.912 240.054 116.388C239.646 116.796 239.136 117 238.524 117H217.614C215.506 117 214.044 116.082 213.228 114.246L204.456 94.764H200.274V114.246C200.274 114.994 200.002 115.64 199.458 116.184C198.914 116.728 198.268 117 197.52 117H177.528C176.78 117 176.134 116.728 175.59 116.184C175.046 115.64 174.774 114.994 174.774 114.246V48.354C174.774 47.606 175.046 46.96 175.59 46.416C176.134 45.872 176.78 45.6 177.528 45.6H207.72C217.512 45.6 225.162 47.81 230.67 52.23C236.178 56.582 238.932 62.872 238.932 71.1C238.932 79.26 235.26 85.686 227.916 90.378L240.462 113.634ZM200.274 64.572V75.384H207.72C209.216 75.384 210.372 74.908 211.188 73.956C212.004 72.936 212.412 71.678 212.412 70.182C212.412 68.686 212.004 67.394 211.188 66.306C210.44 65.15 209.284 64.572 207.72 64.572H200.274ZM278.12 117H257.312C256.564 117 255.918 116.728 255.374 116.184C254.83 115.64 254.558 114.994 254.558 114.246V48.354C254.558 47.606 254.83 46.96 255.374 46.416C255.918 45.872 256.564 45.6 257.312 45.6H278.12C278.868 45.6 279.514 45.872 280.058 46.416C280.602 46.96 280.874 47.606 280.874 48.354V114.246C280.874 114.994 280.602 115.64 280.058 116.184C279.514 116.728 278.868 117 278.12 117ZM296.346 68.04C296.346 61.104 299.202 55.46 304.914 51.108C310.694 46.756 318.242 44.58 327.558 44.58C336.942 44.58 344.592 46.858 350.508 51.414C356.492 55.97 359.484 60.73 359.484 65.694C359.484 66.306 359.246 66.85 358.77 67.326C358.362 67.734 357.886 67.938 357.342 67.938H336.942C335.378 67.938 333.95 67.36 332.658 66.204C331.366 65.048 329.632 64.47 327.456 64.47C324.192 64.47 322.56 65.422 322.56 67.326C322.56 68.346 323.342 69.196 324.906 69.876C326.538 70.556 329.53 71.168 333.882 71.712C344.014 73.004 351.222 75.384 355.506 78.852C359.858 82.252 362.034 87.454 362.034 94.458C362.034 101.394 358.838 107.072 352.446 111.492C346.122 115.844 337.826 118.02 327.558 118.02C317.29 118.02 309.232 115.912 303.384 111.696C297.536 107.48 294.612 102.346 294.612 96.294C294.612 95.682 294.816 95.172 295.224 94.764C295.7 94.288 296.244 94.05 296.856 94.05H316.236C317.664 94.05 319.228 94.73 320.928 96.09C322.696 97.45 325.11 98.13 328.17 98.13C333.27 98.13 335.82 97.178 335.82 95.274C335.82 94.05 334.902 93.132 333.066 92.52C331.23 91.84 327.762 91.16 322.662 90.48C305.118 88.168 296.346 80.688 296.346 68.04ZM374.958 45.6H434.73C435.478 45.6 436.124 45.872 436.668 46.416C437.212 46.96 437.484 47.606 437.484 48.354V64.776C437.484 65.524 437.212 66.17 436.668 66.714C436.124 67.258 435.478 67.53 434.73 67.53H417.798V114.246C417.798 114.994 417.526 115.64 416.982 116.184C416.438 116.728 415.792 117 415.044 117H394.644C393.896 117 393.25 116.728 392.706 116.184C392.162 115.64 391.89 114.994 391.89 114.246V67.53H374.958C374.21 67.53 373.564 67.258 373.02 66.714C372.476 66.17 372.204 65.524 372.204 64.776V48.354C372.204 47.606 372.476 46.96 373.02 46.416C373.564 45.872 374.21 45.6 374.958 45.6ZM458.516 52.128C464.772 47.096 473.034 44.58 483.302 44.58C493.57 44.58 501.798 47.13 507.986 52.23C514.242 57.262 517.37 64.368 517.37 73.548V89.46C517.37 98.776 514.276 105.882 508.088 110.778C501.968 115.606 493.706 118.02 483.302 118.02C472.898 118.02 464.602 115.606 458.414 110.778C452.294 105.882 449.234 98.776 449.234 89.46V73.548C449.234 64.3 452.328 57.16 458.516 52.128ZM477.794 96.09C479.154 97.45 480.99 98.13 483.302 98.13C485.614 98.13 487.45 97.45 488.81 96.09C490.17 94.73 490.85 92.656 490.85 89.868V72.732C490.85 70.012 490.17 67.972 488.81 66.612C487.45 65.184 485.614 64.47 483.302 64.47C480.99 64.47 479.154 65.184 477.794 66.612C476.434 67.972 475.754 70.012 475.754 72.732V89.868C475.754 92.656 476.434 94.73 477.794 96.09ZM535.405 45.6H565.801C575.593 45.6 583.243 47.708 588.751 51.924C594.259 56.14 597.013 62.362 597.013 70.59C597.013 78.818 594.259 84.904 588.751 88.848C583.311 92.792 575.661 94.764 565.801 94.764H559.171V114.246C559.171 114.994 558.899 115.64 558.355 116.184C557.811 116.728 557.165 117 556.417 117H535.405C534.657 117 534.011 116.728 533.467 116.184C532.923 115.64 532.651 114.994 532.651 114.246V48.354C532.651 47.606 532.923 46.96 533.467 46.416C534.011 45.872 534.657 45.6 535.405 45.6ZM558.661 64.572V75.894H565.801C567.025 75.894 568.113 75.452 569.065 74.568C570.017 73.616 570.493 72.29 570.493 70.59C570.493 68.89 570.119 67.462 569.371 66.306C568.623 65.15 567.433 64.572 565.801 64.572H558.661ZM655.519 45.6H675.511C676.259 45.6 676.905 45.872 677.449 46.416C677.993 46.96 678.265 47.606 678.265 48.354V114.246C678.265 114.994 677.993 115.64 677.449 116.184C676.905 116.728 676.259 117 675.511 117H655.519C654.771 117 654.125 116.728 653.581 116.184C653.037 115.64 652.765 114.994 652.765 114.246V92.214H636.241V114.246C636.241 114.994 635.969 115.64 635.425 116.184C634.881 116.728 634.235 117 633.487 117H613.495C612.747 117 612.101 116.762 611.557 116.286C611.013 115.742 610.741 115.062 610.741 114.246V48.354C610.741 47.606 611.013 46.96 611.557 46.416C612.101 45.872 612.747 45.6 613.495 45.6H633.487C634.235 45.6 634.881 45.872 635.425 46.416C635.969 46.96 636.241 47.606 636.241 48.354V69.774H652.765V48.354C652.765 47.606 653.037 46.96 653.581 46.416C654.125 45.872 654.771 45.6 655.519 45.6ZM720.084 97.11H751.5C752.248 97.11 752.894 97.382 753.438 97.926C753.982 98.47 754.254 99.116 754.254 99.864V114.246C754.254 114.994 753.982 115.64 753.438 116.184C752.894 116.728 752.248 117 751.5 117H698.358C697.61 117 696.964 116.728 696.42 116.184C695.876 115.64 695.604 114.994 695.604 114.246V48.354C695.604 47.606 695.876 46.96 696.42 46.416C696.964 45.872 697.61 45.6 698.358 45.6H750.684C751.432 45.6 752.078 45.872 752.622 46.416C753.166 46.96 753.438 47.606 753.438 48.354V62.736C753.438 63.484 753.166 64.13 752.622 64.674C752.078 65.218 751.432 65.49 750.684 65.49H720.084V71.916H748.44C749.188 71.916 749.834 72.188 750.378 72.732C750.922 73.276 751.194 73.922 751.194 74.67V87.93C751.194 88.678 750.922 89.324 750.378 89.868C749.834 90.412 749.188 90.684 748.44 90.684H720.084V97.11ZM836.294 113.634C836.498 114.042 836.6 114.484 836.6 114.96C836.6 115.436 836.362 115.912 835.886 116.388C835.478 116.796 834.968 117 834.356 117H813.446C811.338 117 809.876 116.082 809.06 114.246L800.288 94.764H796.106V114.246C796.106 114.994 795.834 115.64 795.29 116.184C794.746 116.728 794.1 117 793.352 117H773.36C772.612 117 771.966 116.728 771.422 116.184C770.878 115.64 770.606 114.994 770.606 114.246V48.354C770.606 47.606 770.878 46.96 771.422 46.416C771.966 45.872 772.612 45.6 773.36 45.6H803.552C813.344 45.6 820.994 47.81 826.502 52.23C832.01 56.582 834.764 62.872 834.764 71.1C834.764 79.26 831.092 85.686 823.748 90.378L836.294 113.634ZM796.106 64.572V75.384H803.552C805.048 75.384 806.204 74.908 807.02 73.956C807.836 72.936 808.244 71.678 808.244 70.182C808.244 68.686 807.836 67.394 807.02 66.306C806.272 65.15 805.116 64.572 803.552 64.572H796.106Z" fill="url(#paint0_linear)"/>
</g>
<path d="M21.7715 25.1104H11.0654V35H8.85742V13.3838H23.3301V15.2949H11.0654V23.2178H21.7715V25.1104ZM53.972 13.3838V27.9678C53.972 30.2191 53.2298 32.0065 51.7455 33.3301C50.2611 34.6413 48.2572 35.2969 45.7337 35.2969C43.2227 35.2969 41.2311 34.6598 39.7591 33.3857C38.2871 32.0993 37.5326 30.3428 37.4955 28.1162V13.3838H39.6849V27.9678C39.6849 29.6748 40.223 31.0107 41.2992 31.9756C42.3877 32.9404 43.8659 33.4229 45.7337 33.4229C47.5892 33.4229 49.055 32.9528 50.1312 32.0127C51.2074 31.0602 51.7517 29.7305 51.764 28.0234V13.3838H53.972ZM72.2009 33.126H83.5564V35H69.9929V13.3838H72.2009V33.126ZM100.097 33.126H111.452V35H97.8887V13.3838H100.097V33.126ZM138.847 29.6377C138.847 28.5368 138.439 27.6523 137.622 26.9844C136.806 26.3164 135.285 25.7041 133.058 25.1475C130.844 24.5785 129.211 24.0094 128.16 23.4404C127.108 22.8714 126.323 22.2096 125.803 21.4551C125.296 20.6882 125.042 19.7852 125.042 18.7461C125.042 17.0762 125.772 15.7155 127.232 14.6641C128.692 13.6126 130.59 13.0869 132.928 13.0869C135.278 13.0869 137.202 13.6992 138.699 14.9238C140.195 16.1361 140.944 17.6947 140.944 19.5996H138.717C138.717 18.2018 138.185 17.0824 137.122 16.2412C136.058 15.4001 134.654 14.9795 132.91 14.9795C131.19 14.9795 129.817 15.3258 128.79 16.0186C127.764 16.7113 127.25 17.6143 127.25 18.7275C127.25 19.7542 127.702 20.5954 128.605 21.251C129.508 21.8942 131.005 22.4818 133.095 23.0137C135.198 23.5456 136.781 24.1022 137.845 24.6836C138.921 25.265 139.732 25.9639 140.276 26.7803C140.82 27.5843 141.092 28.5306 141.092 29.6191C141.092 31.3509 140.344 32.7301 138.847 33.7568C137.363 34.7835 135.427 35.2969 133.039 35.2969C131.407 35.2969 129.922 35.0371 128.586 34.5176C127.25 33.9857 126.199 33.2311 125.432 32.2539C124.678 31.2643 124.3 30.0892 124.3 28.7285H126.527C126.527 30.2005 127.108 31.3571 128.271 32.1982C129.446 33.027 131.036 33.4414 133.039 33.4414C134.796 33.4414 136.2 33.0951 137.251 32.4023C138.315 31.6973 138.847 30.7757 138.847 29.6377ZM171.808 15.2949H163.904V35H161.696V15.2949H153.81V13.3838H171.808V15.2949ZM198.795 29.2295H188.312L186.011 35H183.71L192.505 13.3838H194.639L203.36 35H201.077L198.795 29.2295ZM189.054 27.3369H198.034L193.563 16.0371L189.054 27.3369ZM233.686 28.1904C233.426 30.4788 232.542 32.2354 231.033 33.46C229.536 34.6846 227.544 35.2969 225.058 35.2969C222.436 35.2969 220.308 34.4124 218.675 32.6436C217.055 30.8747 216.245 28.4378 216.245 25.333V22.958C216.245 21.0036 216.61 19.278 217.339 17.7812C218.082 16.2721 219.127 15.1156 220.475 14.3115C221.823 13.4951 223.388 13.0869 225.169 13.0869C227.643 13.0869 229.616 13.7116 231.088 14.9609C232.56 16.1979 233.426 17.9606 233.686 20.249H231.459C231.237 18.5667 230.625 17.2741 229.623 16.3711C228.621 15.4557 227.136 14.998 225.169 14.998C223.091 14.998 221.452 15.7031 220.252 17.1133C219.053 18.5234 218.453 20.4902 218.453 23.0137V25.4629C218.453 27.9245 219.04 29.8665 220.215 31.2891C221.403 32.7116 223.017 33.4229 225.058 33.4229C227.05 33.4229 228.553 32.9899 229.567 32.124C230.594 31.2581 231.224 29.9469 231.459 28.1904H233.686ZM254.327 24.5352L251.154 27.4854V35H248.946V13.3838H251.154V24.7949L254.234 21.6592L262.64 13.3838H265.441L255.923 23.0137L266.221 35H263.474L254.327 24.5352ZM313.013 24.7393H302.307V33.126H314.646V35H300.099V13.3838H314.572V15.2949H302.307V22.8467H313.013V24.7393ZM346.735 35H344.527L331.502 16.8721V35H329.294V13.3838H331.502L344.527 31.5117V13.3838H346.735V35ZM380.012 32.4209C379.53 33.0641 378.806 33.6208 377.841 34.0908C376.171 34.8949 374.18 35.2969 371.867 35.2969C369.059 35.2969 366.789 34.3877 365.057 32.5693C363.325 30.751 362.459 28.3141 362.459 25.2588V22.9209C362.459 19.9274 363.276 17.54 364.909 15.7588C366.541 13.9775 368.749 13.0869 371.533 13.0869C373.957 13.0869 375.893 13.6559 377.34 14.7939C378.8 15.932 379.684 17.54 379.993 19.6182H377.785C377.513 18.0719 376.839 16.9154 375.763 16.1484C374.687 15.3815 373.283 14.998 371.551 14.998C369.423 14.998 367.747 15.6969 366.523 17.0947C365.298 18.4925 364.686 20.4408 364.686 22.9395V25.3516C364.686 27.8008 365.335 29.7614 366.634 31.2334C367.933 32.693 369.683 33.4229 371.885 33.4229C373.159 33.4229 374.322 33.2744 375.373 32.9775C376.437 32.6683 377.247 32.2354 377.804 31.6787V26.3906H371.7V24.5723H380.012V32.4209ZM398.686 35H396.46V13.3838H398.686V35ZM432.909 35H430.701L417.676 16.8721V35H415.468V13.3838H417.676L430.701 31.5117V13.3838H432.909V35ZM462.178 24.7393H451.472V33.126H463.811V35H449.264V13.3838H463.737V15.2949H451.472V22.8467H462.178V24.7393ZM491.373 24.7393H480.667V33.126H493.006V35H478.459V13.3838H492.931V15.2949H480.667V22.8467H491.373V24.7393ZM516.393 26.3164H509.824V35H507.616V13.3838H515.279C517.766 13.3838 519.708 13.9652 521.106 15.1279C522.516 16.2907 523.221 17.8864 523.221 19.915C523.221 21.3376 522.788 22.5807 521.922 23.6445C521.056 24.696 519.912 25.4196 518.489 25.8154L524.204 34.8145V35H521.829L516.393 26.3164ZM509.824 24.4238H515.688C517.296 24.4238 518.582 24.0094 519.547 23.1807C520.512 22.3519 520.994 21.2819 520.994 19.9707C520.994 18.5234 520.493 17.3854 519.491 16.5566C518.502 15.7279 517.116 15.3073 515.335 15.2949H509.824V24.4238ZM567.824 21.2695H576.044V23.3477H567.824V32.291H565.579V23.3477H557.526V21.2695H565.579V12.623H567.824V21.2695ZM610.961 35V13.3838H617.53C619.435 13.3838 621.142 13.792 622.651 14.6084C624.16 15.4248 625.335 16.5814 626.176 18.0781C627.03 19.5625 627.469 21.2386 627.494 23.1064V25.1289C627.494 27.0462 627.079 28.7533 626.251 30.25C625.434 31.7344 624.265 32.891 622.744 33.7197C621.235 34.5485 619.509 34.9753 617.567 35H610.961ZM613.169 15.2949V33.126H617.4C619.8 33.126 621.711 32.4023 623.133 30.9551C624.568 29.5078 625.286 27.5286 625.286 25.0176V23.2549C625.286 20.8428 624.587 18.9131 623.189 17.4658C621.791 16.0186 619.886 15.2949 617.474 15.2949H613.169ZM655.891 24.7393H645.185V33.126H657.523V35H642.977V13.3838H657.449V15.2949H645.185V22.8467H655.891V24.7393ZM685.234 29.6377C685.234 28.5368 684.826 27.6523 684.009 26.9844C683.193 26.3164 681.671 25.7041 679.445 25.1475C677.23 24.5785 675.598 24.0094 674.546 23.4404C673.495 22.8714 672.709 22.2096 672.19 21.4551C671.683 20.6882 671.429 19.7852 671.429 18.7461C671.429 17.0762 672.159 15.7155 673.618 14.6641C675.078 13.6126 676.977 13.0869 679.315 13.0869C681.665 13.0869 683.589 13.6992 685.085 14.9238C686.582 16.1361 687.33 17.6947 687.33 19.5996H685.104C685.104 18.2018 684.572 17.0824 683.508 16.2412C682.444 15.4001 681.04 14.9795 679.296 14.9795C677.577 14.9795 676.204 15.3258 675.177 16.0186C674.15 16.7113 673.637 17.6143 673.637 18.7275C673.637 19.7542 674.089 20.5954 674.992 21.251C675.895 21.8942 677.391 22.4818 679.482 23.0137C681.585 23.5456 683.168 24.1022 684.232 24.6836C685.308 25.265 686.118 25.9639 686.662 26.7803C687.207 27.5843 687.479 28.5306 687.479 29.6191C687.479 31.3509 686.73 32.7301 685.234 33.7568C683.749 34.7835 681.813 35.2969 679.426 35.2969C677.793 35.2969 676.309 35.0371 674.973 34.5176C673.637 33.9857 672.586 33.2311 671.819 32.2539C671.064 31.2643 670.687 30.0892 670.687 28.7285H672.913C672.913 30.2005 673.495 31.3571 674.658 32.1982C675.833 33.027 677.422 33.4414 679.426 33.4414C681.183 33.4414 682.587 33.0951 683.638 32.4023C684.702 31.6973 685.234 30.7757 685.234 29.6377ZM704.91 35H702.683V13.3838H704.91V35ZM738.613 32.4209C738.131 33.0641 737.407 33.6208 736.442 34.0908C734.772 34.8949 732.781 35.2969 730.468 35.2969C727.66 35.2969 725.39 34.3877 723.658 32.5693C721.926 30.751 721.061 28.3141 721.061 25.2588V22.9209C721.061 19.9274 721.877 17.54 723.51 15.7588C725.143 13.9775 727.351 13.0869 730.134 13.0869C732.558 13.0869 734.494 13.6559 735.941 14.7939C737.401 15.932 738.285 17.54 738.595 19.6182H736.387C736.115 18.0719 735.44 16.9154 734.364 16.1484C733.288 15.3815 731.884 14.998 730.152 14.998C728.025 14.998 726.349 15.6969 725.124 17.0947C723.899 18.4925 723.287 20.4408 723.287 22.9395V25.3516C723.287 27.8008 723.937 29.7614 725.235 31.2334C726.534 32.693 728.285 33.4229 730.486 33.4229C731.76 33.4229 732.923 33.2744 733.975 32.9775C735.038 32.6683 735.849 32.2354 736.405 31.6787V26.3906H730.301V24.5723H738.613V32.4209ZM772.076 35H769.868L756.842 16.8721V35H754.634V13.3838H756.842L769.868 31.5117V13.3838H772.076V35ZM801.344 24.7393H790.638V33.126H802.977V35H788.43V13.3838H802.903V15.2949H790.638V22.8467H801.344V24.7393ZM826.364 26.3164H819.796V35H817.588V13.3838H825.251C827.737 13.3838 829.679 13.9652 831.077 15.1279C832.487 16.2907 833.192 17.8864 833.192 19.915C833.192 21.3376 832.76 22.5807 831.894 23.6445C831.028 24.696 829.884 25.4196 828.461 25.8154L834.176 34.8145V35H831.801L826.364 26.3164ZM819.796 24.4238H825.659C827.267 24.4238 828.554 24.0094 829.519 23.1807C830.483 22.3519 830.966 21.2819 830.966 19.9707C830.966 18.5234 830.465 17.3854 829.463 16.5566C828.473 15.7279 827.088 15.3073 825.307 15.2949H819.796V24.4238Z" fill="#B25FFF"/>
<defs>
<filter id="filter0_d" x="0.589996" y="42.5801" width="843.01" height="87.44" filterUnits="userSpaceOnUse" color-interpolation-filters="sRGB">
<feFlood flood-opacity="0" result="BackgroundImageFix"/>
<feColorMatrix in="SourceAlpha" type="matrix" values="0 0 0 0 0 0 0 0 0 0 0 0 0 0 0 0 0 0 127 0"/>
<feOffset dy="5"/>
<feGaussianBlur stdDeviation="3.5"/>
<feColorMatrix type="matrix" values="0 0 0 0 0 0 0 0 0 0 0 0 0 0 0 0 0 0 0.2 0"/>
<feBlend mode="normal" in2="BackgroundImageFix" result="effect1_dropShadow"/>
<feBlend mode="normal" in="SourceGraphic" in2="effect1_dropShadow" result="shape"/>
</filter>
<linearGradient id="paint0_linear" x1="421.5" y1="22" x2="421.5" y2="148" gradientUnits="userSpaceOnUse">
<stop stop-color="#793DB0"/>
<stop offset="1" stop-color="#B25FFF"/>
</linearGradient>
</defs>
</svg>
