<svg width="473" height="416" viewBox="0 0 473 416" fill="none" xmlns="http://www.w3.org/2000/svg">
<ellipse opacity="0.16" cx="235" cy="399" rx="182" ry="17" fill="black"/>
<g filter="url(#filter0_d)">
<path d="M36.3538 256.6H56.3178C58.5258 256.6 59.9058 257.612 60.4578 259.636L80.9738 318.332C81.0351 318.516 81.0658 318.823 81.0658 319.252C81.0658 319.62 80.8511 320.019 80.4218 320.448C80.0538 320.816 79.5938 321 79.0418 321H62.0218C60.1818 321 58.9858 320.233 58.4338 318.7L56.2258 312.628H36.4458L34.2378 318.7C33.6858 320.233 32.4898 321 30.6498 321H13.6298C13.0778 321 12.5871 320.816 12.1578 320.448C11.7898 320.019 11.6058 319.62 11.6058 319.252C11.6058 318.823 11.6365 318.516 11.6978 318.332L32.2138 259.636C32.7658 257.612 34.1458 256.6 36.3538 256.6ZM41.1378 294.688H51.5338L46.2898 277.576L41.1378 294.688ZM152.38 317.964C152.564 318.271 152.656 318.669 152.656 319.16C152.656 319.589 152.441 320.019 152.012 320.448C151.644 320.816 151.184 321 150.632 321H129.656C127.877 321 126.62 320.295 125.884 318.884L114.66 298.828V318.516C114.66 319.191 114.415 319.773 113.924 320.264C113.433 320.755 112.851 321 112.176 321H94.6042C93.9295 321 93.3468 320.755 92.8562 320.264C92.3655 319.773 92.1202 319.191 92.1202 318.516V259.084C92.1202 258.409 92.3655 257.827 92.8562 257.336C93.3468 256.845 93.9295 256.6 94.6042 256.6H112.176C112.851 256.6 113.433 256.845 113.924 257.336C114.415 257.827 114.66 258.409 114.66 259.084V277.3L125.056 258.624C125.731 257.275 126.957 256.6 128.736 256.6H149.068C149.62 256.6 150.08 256.815 150.448 257.244C150.877 257.612 151.092 258.041 151.092 258.532C151.092 258.961 151 259.329 150.816 259.636L134.256 287.42L152.38 317.964ZM183.421 256.6H203.385C205.593 256.6 206.973 257.612 207.525 259.636L228.041 318.332C228.102 318.516 228.133 318.823 228.133 319.252C228.133 319.62 227.918 320.019 227.489 320.448C227.121 320.816 226.661 321 226.109 321H209.089C207.249 321 206.053 320.233 205.501 318.7L203.293 312.628H183.513L181.305 318.7C180.753 320.233 179.557 321 177.717 321H160.697C160.145 321 159.654 320.816 159.225 320.448C158.857 320.019 158.673 319.62 158.673 319.252C158.673 318.823 158.703 318.516 158.765 318.332L179.281 259.636C179.833 257.612 181.213 256.6 183.421 256.6ZM188.205 294.688H198.601L193.357 277.576L188.205 294.688ZM278.011 256.6H294.663C295.338 256.6 295.921 256.845 296.411 257.336C296.902 257.827 297.147 258.409 297.147 259.084V318.516C297.147 319.191 296.902 319.773 296.411 320.264C295.921 320.755 295.338 321 294.663 321H280.127C278.533 321 277.275 320.295 276.355 318.884L260.807 295.424V318.516C260.807 319.191 260.562 319.773 260.071 320.264C259.581 320.755 258.998 321 258.323 321H241.671C240.997 321 240.414 320.755 239.923 320.264C239.433 319.773 239.187 319.191 239.187 318.516V259.084C239.187 258.409 239.433 257.827 239.923 257.336C240.414 256.845 240.997 256.6 241.671 256.6H256.207C257.925 256.6 259.182 257.305 259.979 258.716L275.527 284.2V259.084C275.527 258.409 275.773 257.827 276.263 257.336C276.754 256.845 277.337 256.6 278.011 256.6ZM364.378 256.6H378.914C379.588 256.6 380.171 256.845 380.662 257.336C381.152 257.827 381.398 258.409 381.398 259.084V318.516C381.398 319.191 381.152 319.773 380.662 320.264C380.171 320.755 379.588 321 378.914 321H362.262C361.587 321 361.004 320.755 360.514 320.264C360.023 319.773 359.778 319.191 359.778 318.516V293.308L353.706 303.244C352.724 304.777 351.59 305.544 350.302 305.544H343.862C342.574 305.544 341.439 304.777 340.458 303.244L334.386 293.308V318.516C334.386 319.191 334.14 319.773 333.65 320.264C333.159 320.755 332.576 321 331.902 321H315.25C314.575 321 313.992 320.755 313.502 320.264C313.011 319.773 312.766 319.191 312.766 318.516V259.084C312.766 258.409 313.011 257.827 313.502 257.336C313.992 256.845 314.575 256.6 315.25 256.6H329.786C331.503 256.6 332.822 257.428 333.742 259.084L347.082 281.164L360.422 259.084C361.342 257.428 362.66 256.6 364.378 256.6ZM435.215 256.6H453.247C453.922 256.6 454.505 256.845 454.995 257.336C455.486 257.827 455.731 258.409 455.731 259.084V296.068C455.731 304.655 453.063 311.125 447.727 315.48C442.391 319.773 435.123 321.92 425.923 321.92C416.785 321.92 409.517 319.773 404.119 315.48C398.783 311.187 396.115 304.716 396.115 296.068V259.084C396.115 258.409 396.361 257.827 396.851 257.336C397.342 256.845 397.925 256.6 398.599 256.6H416.631C417.306 256.6 417.889 256.845 418.379 257.336C418.87 257.827 419.115 258.409 419.115 259.084V296.344C419.115 301.067 421.385 303.428 425.923 303.428C430.462 303.428 432.731 301.067 432.731 296.344V259.084C432.731 258.409 432.977 257.827 433.467 257.336C433.958 256.845 434.541 256.6 435.215 256.6Z" fill="#B25FFF"/>
<path d="M41.4832 191.712V213.888C41.4832 221.016 44.7392 224.58 51.2512 224.58C56.2672 224.58 59.5672 222.204 61.1512 217.452C61.5912 215.956 62.1192 214.944 62.7352 214.416C63.4392 213.888 64.5392 213.624 66.0352 213.624H92.9632C93.7552 213.624 94.4152 213.932 94.9432 214.548C95.5592 215.076 95.8672 215.736 95.8672 216.528C95.8672 224.184 93.6672 230.608 89.2672 235.8C81.1712 245.48 68.5432 250.32 51.3832 250.32C37.9192 250.32 27.1832 247.372 19.1752 241.476C11.1672 235.492 7.16321 226.34 7.16321 214.02V191.58C7.16321 179.524 11.2552 170.46 19.4392 164.388C27.6232 158.316 38.2712 155.28 51.3832 155.28C68.5432 155.28 81.1712 160.12 89.2672 169.8C93.6672 174.992 95.8672 181.416 95.8672 189.072C95.8672 189.864 95.5592 190.568 94.9432 191.184C94.4152 191.712 93.7552 191.976 92.9632 191.976H66.0352C64.6272 191.976 63.5712 191.712 62.8672 191.184C62.2512 190.656 61.6792 189.644 61.1512 188.148C59.4792 183.396 56.1792 181.02 51.2512 181.02C44.7392 181.02 41.4832 184.584 41.4832 191.712ZM171.644 156.6H197.516C198.484 156.6 199.32 156.952 200.024 157.656C200.728 158.36 201.08 159.196 201.08 160.164V245.436C201.08 246.404 200.728 247.24 200.024 247.944C199.32 248.648 198.484 249 197.516 249H171.644C170.676 249 169.84 248.648 169.136 247.944C168.432 247.24 168.08 246.404 168.08 245.436V216.924H146.696V245.436C146.696 246.404 146.344 247.24 145.64 247.944C144.936 248.648 144.1 249 143.132 249H117.26C116.292 249 115.456 248.692 114.752 248.076C114.048 247.372 113.696 246.492 113.696 245.436V160.164C113.696 159.196 114.048 158.36 114.752 157.656C115.456 156.952 116.292 156.6 117.26 156.6H143.132C144.1 156.6 144.936 156.952 145.64 157.656C146.344 158.36 146.696 159.196 146.696 160.164V187.884H168.08V160.164C168.08 159.196 168.432 158.36 169.136 157.656C169.84 156.952 170.676 156.6 171.644 156.6ZM308.527 244.644C308.791 245.172 308.923 245.744 308.923 246.36C308.923 246.976 308.615 247.592 307.999 248.208C307.471 248.736 306.811 249 306.019 249H278.959C276.231 249 274.339 247.812 273.283 245.436L261.931 220.224H256.519V245.436C256.519 246.404 256.167 247.24 255.463 247.944C254.759 248.648 253.923 249 252.955 249H227.083C226.115 249 225.279 248.648 224.575 247.944C223.871 247.24 223.519 246.404 223.519 245.436V160.164C223.519 159.196 223.871 158.36 224.575 157.656C225.279 156.952 226.115 156.6 227.083 156.6H266.155C278.827 156.6 288.727 159.46 295.855 165.18C302.983 170.812 306.547 178.952 306.547 189.6C306.547 200.16 301.795 208.476 292.291 214.548L308.527 244.644ZM256.519 181.152V195.144H266.155C268.091 195.144 269.587 194.528 270.643 193.296C271.699 191.976 272.227 190.348 272.227 188.412C272.227 186.476 271.699 184.804 270.643 183.396C269.675 181.9 268.179 181.152 266.155 181.152H256.519ZM357.26 249H330.332C329.364 249 328.528 248.648 327.824 247.944C327.12 247.24 326.768 246.404 326.768 245.436V160.164C326.768 159.196 327.12 158.36 327.824 157.656C328.528 156.952 329.364 156.6 330.332 156.6H357.26C358.228 156.6 359.064 156.952 359.768 157.656C360.472 158.36 360.824 159.196 360.824 160.164V245.436C360.824 246.404 360.472 247.24 359.768 247.944C359.064 248.648 358.228 249 357.26 249ZM380.848 185.64C380.848 176.664 384.544 169.36 391.936 163.728C399.416 158.096 409.184 155.28 421.24 155.28C433.384 155.28 443.284 158.228 450.94 164.124C458.684 170.02 462.556 176.18 462.556 182.604C462.556 183.396 462.248 184.1 461.632 184.716C461.104 185.244 460.488 185.508 459.784 185.508H433.384C431.36 185.508 429.512 184.76 427.84 183.264C426.168 181.768 423.924 181.02 421.108 181.02C416.884 181.02 414.772 182.252 414.772 184.716C414.772 186.036 415.784 187.136 417.808 188.016C419.92 188.896 423.792 189.688 429.424 190.392C442.536 192.064 451.864 195.144 457.408 199.632C463.04 204.032 465.856 210.764 465.856 219.828C465.856 228.804 461.72 236.152 453.448 241.872C445.264 247.504 434.528 250.32 421.24 250.32C407.952 250.32 397.524 247.592 389.956 242.136C382.388 236.68 378.604 230.036 378.604 222.204C378.604 221.412 378.868 220.752 379.396 220.224C380.012 219.608 380.716 219.3 381.508 219.3H406.588C408.436 219.3 410.46 220.18 412.66 221.94C414.948 223.7 418.072 224.58 422.032 224.58C428.632 224.58 431.932 223.348 431.932 220.884C431.932 219.3 430.744 218.112 428.368 217.32C425.992 216.44 421.504 215.56 414.904 214.68C392.2 211.688 380.848 202.008 380.848 185.64Z" fill="url(#paint0_linear)"/>
</g>
<path d="M24.3008 142.795H18.666V148H17.5039V136.623H25.1211V137.629H18.666V141.799H24.3008V142.795ZM41.2484 136.623V144.299C41.2484 145.484 40.8578 146.424 40.0766 147.121C39.2953 147.811 38.2406 148.156 36.9125 148.156C35.5909 148.156 34.5427 147.821 33.768 147.15C32.9932 146.473 32.5961 145.549 32.5766 144.377V136.623H33.7289V144.299C33.7289 145.197 34.0121 145.9 34.5785 146.408C35.1514 146.916 35.9294 147.17 36.9125 147.17C37.8891 147.17 38.6605 146.923 39.227 146.428C39.7934 145.926 40.0798 145.227 40.0863 144.328V136.623H41.2484ZM50.8426 147.014H56.8191V148H49.6805V136.623H50.8426V147.014ZM65.5246 147.014H71.5012V148H64.3625V136.623H65.5246V147.014ZM85.9195 145.178C85.9195 144.598 85.7047 144.133 85.275 143.781C84.8453 143.43 84.0445 143.107 82.8727 142.814C81.7073 142.515 80.8479 142.215 80.2945 141.916C79.7411 141.617 79.3277 141.268 79.0543 140.871C78.7874 140.467 78.6539 139.992 78.6539 139.445C78.6539 138.566 79.038 137.85 79.8063 137.297C80.5745 136.743 81.5738 136.467 82.8043 136.467C84.0413 136.467 85.0536 136.789 85.8414 137.434C86.6292 138.072 87.023 138.892 87.023 139.895H85.8512C85.8512 139.159 85.5712 138.57 85.0113 138.127C84.4514 137.684 83.7125 137.463 82.7945 137.463C81.8896 137.463 81.1669 137.645 80.6266 138.01C80.0862 138.374 79.816 138.85 79.816 139.436C79.816 139.976 80.0536 140.419 80.5289 140.764C81.0042 141.102 81.7919 141.411 82.8922 141.691C83.999 141.971 84.8323 142.264 85.3922 142.57C85.9586 142.876 86.385 143.244 86.6715 143.674C86.9579 144.097 87.1012 144.595 87.1012 145.168C87.1012 146.079 86.7073 146.805 85.9195 147.346C85.1383 147.886 84.1194 148.156 82.8629 148.156C82.0035 148.156 81.2223 148.02 80.5191 147.746C79.816 147.466 79.2626 147.069 78.859 146.555C78.4619 146.034 78.2633 145.415 78.2633 144.699H79.4352C79.4352 145.474 79.7411 146.083 80.3531 146.525C80.9716 146.962 81.8082 147.18 82.8629 147.18C83.7874 147.18 84.5263 146.997 85.0797 146.633C85.6396 146.262 85.9195 145.777 85.9195 145.178ZM103.268 137.629H99.1074V148H97.9453V137.629H93.7949V136.623H103.268V137.629ZM117.471 144.963H111.954L110.743 148H109.532L114.161 136.623H115.284L119.873 148H118.672L117.471 144.963ZM112.344 143.967H117.071L114.717 138.02L112.344 143.967ZM135.835 144.416C135.698 145.62 135.233 146.545 134.438 147.189C133.651 147.834 132.602 148.156 131.294 148.156C129.914 148.156 128.794 147.691 127.934 146.76C127.082 145.829 126.655 144.546 126.655 142.912V141.662C126.655 140.633 126.847 139.725 127.231 138.938C127.622 138.143 128.172 137.535 128.882 137.111C129.591 136.682 130.415 136.467 131.352 136.467C132.654 136.467 133.693 136.796 134.468 137.453C135.242 138.104 135.698 139.032 135.835 140.236H134.663C134.546 139.351 134.223 138.671 133.696 138.195C133.169 137.714 132.387 137.473 131.352 137.473C130.259 137.473 129.396 137.844 128.764 138.586C128.133 139.328 127.817 140.363 127.817 141.691V142.98C127.817 144.276 128.126 145.298 128.745 146.047C129.37 146.796 130.22 147.17 131.294 147.17C132.342 147.17 133.133 146.942 133.667 146.486C134.207 146.031 134.539 145.34 134.663 144.416H135.835ZM146.698 142.492L145.029 144.045V148H143.866V136.623H145.029V142.629L146.65 140.979L151.073 136.623H152.548L147.538 141.691L152.958 148H151.513L146.698 142.492ZM177.586 142.6H171.951V147.014H178.445V148H170.789V136.623H178.406V137.629H171.951V141.604H177.586V142.6ZM195.334 148H194.172L187.317 138.459V148H186.155V136.623H187.317L194.172 146.164V136.623H195.334V148ZM212.848 146.643C212.595 146.981 212.214 147.274 211.706 147.521C210.827 147.945 209.779 148.156 208.561 148.156C207.083 148.156 205.889 147.678 204.977 146.721C204.066 145.764 203.61 144.481 203.61 142.873V141.643C203.61 140.067 204.04 138.811 204.899 137.873C205.759 136.936 206.921 136.467 208.386 136.467C209.662 136.467 210.68 136.766 211.442 137.365C212.21 137.964 212.676 138.811 212.839 139.904H211.677C211.533 139.09 211.179 138.482 210.612 138.078C210.046 137.674 209.307 137.473 208.395 137.473C207.276 137.473 206.393 137.84 205.749 138.576C205.104 139.312 204.782 140.337 204.782 141.652V142.922C204.782 144.211 205.124 145.243 205.807 146.018C206.491 146.786 207.412 147.17 208.571 147.17C209.242 147.17 209.854 147.092 210.407 146.936C210.967 146.773 211.393 146.545 211.686 146.252V143.469H208.473V142.512H212.848V146.643ZM222.677 148H221.505V136.623H222.677V148ZM240.689 148H239.527L232.671 138.459V148H231.509V136.623H232.671L239.527 146.164V136.623H240.689V148ZM256.094 142.6H250.459V147.014H256.953V148H249.297V136.623H256.914V137.629H250.459V141.604H256.094V142.6ZM271.459 142.6H265.825V147.014H272.319V148H264.663V136.623H272.28V137.629H265.825V141.604H271.459V142.6ZM284.628 143.43H281.171V148H280.009V136.623H284.042C285.35 136.623 286.373 136.929 287.108 137.541C287.85 138.153 288.221 138.993 288.221 140.061C288.221 140.809 287.994 141.464 287.538 142.023C287.082 142.577 286.48 142.958 285.731 143.166L288.739 147.902V148H287.489L284.628 143.43ZM281.171 142.434H284.257C285.103 142.434 285.78 142.215 286.288 141.779C286.796 141.343 287.05 140.78 287.05 140.09C287.05 139.328 286.786 138.729 286.259 138.293C285.738 137.857 285.009 137.635 284.071 137.629H281.171V142.434ZM311.697 140.773H316.023V141.867H311.697V146.574H310.515V141.867H306.277V140.773H310.515V136.223H311.697V140.773ZM334.401 148V136.623H337.858C338.86 136.623 339.759 136.838 340.553 137.268C341.347 137.697 341.966 138.306 342.409 139.094C342.858 139.875 343.089 140.757 343.102 141.74V142.805C343.102 143.814 342.884 144.712 342.448 145.5C342.018 146.281 341.403 146.89 340.602 147.326C339.808 147.762 338.899 147.987 337.877 148H334.401ZM335.563 137.629V147.014H337.789C339.052 147.014 340.058 146.633 340.807 145.871C341.562 145.109 341.94 144.068 341.94 142.746V141.818C341.94 140.549 341.572 139.533 340.836 138.771C340.101 138.01 339.098 137.629 337.829 137.629H335.563ZM358.048 142.6H352.413V147.014H358.907V148H351.251V136.623H358.868V137.629H352.413V141.604H358.048V142.6ZM373.491 145.178C373.491 144.598 373.277 144.133 372.847 143.781C372.417 143.43 371.616 143.107 370.445 142.814C369.279 142.515 368.42 142.215 367.866 141.916C367.313 141.617 366.9 141.268 366.626 140.871C366.359 140.467 366.226 139.992 366.226 139.445C366.226 138.566 366.61 137.85 367.378 137.297C368.146 136.743 369.146 136.467 370.376 136.467C371.613 136.467 372.626 136.789 373.413 137.434C374.201 138.072 374.595 138.892 374.595 139.895H373.423C373.423 139.159 373.143 138.57 372.583 138.127C372.023 137.684 371.284 137.463 370.366 137.463C369.461 137.463 368.739 137.645 368.198 138.01C367.658 138.374 367.388 138.85 367.388 139.436C367.388 139.976 367.626 140.419 368.101 140.764C368.576 141.102 369.364 141.411 370.464 141.691C371.571 141.971 372.404 142.264 372.964 142.57C373.53 142.876 373.957 143.244 374.243 143.674C374.53 144.097 374.673 144.595 374.673 145.168C374.673 146.079 374.279 146.805 373.491 147.346C372.71 147.886 371.691 148.156 370.435 148.156C369.575 148.156 368.794 148.02 368.091 147.746C367.388 147.466 366.834 147.069 366.431 146.555C366.034 146.034 365.835 145.415 365.835 144.699H367.007C367.007 145.474 367.313 146.083 367.925 146.525C368.543 146.962 369.38 147.18 370.435 147.18C371.359 147.18 372.098 146.997 372.652 146.633C373.211 146.262 373.491 145.777 373.491 145.178ZM383.847 148H382.675V136.623H383.847V148ZM401.586 146.643C401.332 146.981 400.951 147.274 400.443 147.521C399.564 147.945 398.516 148.156 397.299 148.156C395.821 148.156 394.626 147.678 393.715 146.721C392.803 145.764 392.348 144.481 392.348 142.873V141.643C392.348 140.067 392.777 138.811 393.637 137.873C394.496 136.936 395.658 136.467 397.123 136.467C398.399 136.467 399.418 136.766 400.18 137.365C400.948 137.964 401.413 138.811 401.576 139.904H400.414C400.271 139.09 399.916 138.482 399.35 138.078C398.783 137.674 398.044 137.473 397.133 137.473C396.013 137.473 395.131 137.84 394.486 138.576C393.842 139.312 393.52 140.337 393.52 141.652V142.922C393.52 144.211 393.861 145.243 394.545 146.018C395.229 146.786 396.15 147.17 397.309 147.17C397.979 147.17 398.591 147.092 399.145 146.936C399.704 146.773 400.131 146.545 400.424 146.252V143.469H397.211V142.512H401.586V146.643ZM419.198 148H418.036L411.18 138.459V148H410.018V136.623H411.18L418.036 146.164V136.623H419.198V148ZM434.602 142.6H428.968V147.014H435.462V148H427.805V136.623H435.423V137.629H428.968V141.604H434.602V142.6ZM447.771 143.43H444.314V148H443.152V136.623H447.185C448.493 136.623 449.515 136.929 450.251 137.541C450.993 138.153 451.364 138.993 451.364 140.061C451.364 140.809 451.137 141.464 450.681 142.023C450.225 142.577 449.623 142.958 448.874 143.166L451.882 147.902V148H450.632L447.771 143.43ZM444.314 142.434H447.4C448.246 142.434 448.923 142.215 449.431 141.779C449.939 141.343 450.193 140.78 450.193 140.09C450.193 139.328 449.929 138.729 449.402 138.293C448.881 137.857 448.152 137.635 447.214 137.629H444.314V142.434Z" fill="#B25FFF"/>
<g filter="url(#filter1_d)">
<path d="M186.629 54L235.659 4.83239L284.689 54L235.659 103.168L186.629 54Z" stroke="#B25FFF" stroke-width="4"/>
<path d="M225.984 36.4321C227.754 36.4321 229.178 36.9313 230.256 37.9297C231.335 38.9281 231.874 40.2316 231.874 41.8401C231.874 43.1159 231.529 44.4332 230.837 45.7921C230.173 47.1511 229.288 48.3436 228.182 49.3697C227.076 50.3959 225.914 51.0892 224.698 51.4497L224.283 50.7009C225.472 50.174 226.426 49.3281 227.145 48.1633C227.892 46.9985 228.265 45.7644 228.265 44.4609C228.265 42.7969 227.767 41.4657 226.772 40.4673C225.776 39.4412 224.449 38.9281 222.789 38.9281C221.13 38.9281 219.567 39.5244 218.102 40.7169C216.636 41.9095 215.461 43.5041 214.576 45.5009C213.691 47.47 213.248 49.5777 213.248 51.8241C213.248 54.2647 213.621 56.414 214.368 58.2721C215.115 60.1303 216.166 61.5724 217.521 62.5985C218.904 63.5969 220.48 64.0961 222.25 64.0961C223.578 64.0961 224.877 63.8188 226.149 63.2641C227.422 62.6817 228.583 61.8497 229.634 60.7681L230.547 61.6833C227.615 65.3996 224.144 67.2577 220.134 67.2577C217.894 67.2577 215.958 66.7031 214.327 65.5937C212.695 64.4844 211.437 62.9868 210.552 61.1009C209.694 59.1873 209.266 57.0657 209.266 54.7361C209.266 51.3249 210.012 48.2327 211.506 45.4593C213.027 42.6583 215.073 40.4535 217.645 38.8449C220.217 37.2364 222.997 36.4321 225.984 36.4321Z" fill="#B25FFF"/>
<path d="M254.542 38.3873C251.472 38.8033 248.706 39.8711 246.245 41.5905C243.784 43.2823 241.848 45.4316 240.437 48.0385C239.055 50.6177 238.363 53.4188 238.363 56.4417C238.363 58.9655 238.847 60.9623 239.815 62.4321C240.783 63.902 242.055 64.6369 243.632 64.6369C245.18 64.6369 246.66 63.5692 248.07 61.4337C249.508 59.2705 250.656 56.4556 251.514 52.9889C252.399 49.4945 252.841 45.8615 252.841 42.0897L256.74 40.5505V62.3489C256.74 63.1255 256.906 63.7495 257.238 64.2209C257.57 64.6924 258.026 64.9281 258.607 64.9281C259.05 64.9281 259.506 64.7895 259.976 64.5121C260.446 64.2071 260.806 63.8465 261.055 63.4305L261.636 63.9713C261.248 64.8311 260.654 65.5521 259.852 66.1345C259.05 66.7169 258.137 67.0081 257.114 67.0081C255.842 67.0081 254.805 66.5644 254.003 65.6769C253.228 64.7895 252.841 63.5276 252.841 61.8913V53.9457H252.634C250.642 62.8204 247.268 67.2577 242.512 67.2577C240.05 67.2577 238.073 66.398 236.579 64.6785C235.086 62.9313 234.339 60.5463 234.339 57.5233C234.339 54.0567 235.252 50.798 237.077 47.7473C238.902 44.6967 241.364 42.2145 244.461 40.3009C247.559 38.3873 250.919 37.3473 254.542 37.1809V38.3873Z" fill="#B25FFF"/>
</g>
<defs>
<filter id="filter0_d" x="0.163086" y="153.28" width="472.693" height="180.64" filterUnits="userSpaceOnUse" color-interpolation-filters="sRGB">
<feFlood flood-opacity="0" result="BackgroundImageFix"/>
<feColorMatrix in="SourceAlpha" type="matrix" values="0 0 0 0 0 0 0 0 0 0 0 0 0 0 0 0 0 0 127 0"/>
<feOffset dy="5"/>
<feGaussianBlur stdDeviation="3.5"/>
<feColorMatrix type="matrix" values="0 0 0 0 0 0 0 0 0 0 0 0 0 0 0 0 0 0 0.2 0"/>
<feBlend mode="normal" in2="BackgroundImageFix" result="effect1_dropShadow"/>
<feBlend mode="normal" in="SourceGraphic" in2="effect1_dropShadow" result="shape"/>
</filter>
<filter id="filter1_d" x="176" y="0" width="119" height="118" filterUnits="userSpaceOnUse" color-interpolation-filters="sRGB">
<feFlood flood-opacity="0" result="BackgroundImageFix"/>
<feColorMatrix in="SourceAlpha" type="matrix" values="0 0 0 0 0 0 0 0 0 0 0 0 0 0 0 0 0 0 127 0"/>
<feOffset dy="5"/>
<feGaussianBlur stdDeviation="3.5"/>
<feColorMatrix type="matrix" values="0 0 0 0 0 0 0 0 0 0 0 0 0 0 0 0 0 0 0.2 0"/>
<feBlend mode="normal" in2="BackgroundImageFix" result="effect1_dropShadow"/>
<feBlend mode="normal" in="SourceGraphic" in2="effect1_dropShadow" result="shape"/>
</filter>
<linearGradient id="paint0_linear" x1="235.5" y1="126" x2="235.5" y2="289" gradientUnits="userSpaceOnUse">
<stop stop-color="#793DB0"/>
<stop offset="1" stop-color="#B25FFF"/>
</linearGradient>
</defs>
</svg>
