<svg width="8" height="278" viewBox="0 0 8 278" fill="none" xmlns="http://www.w3.org/2000/svg">
<g opacity="0.5">
<path d="M4.35355 0.646538C4.15829 0.451276 3.84171 0.451276 3.64645 0.646538L0.464466 3.82852C0.269204 4.02378 0.269204 4.34036 0.464466 4.53563C0.659728 4.73089 0.976311 4.73089 1.17157 4.53563L4 1.7072L6.82843 4.53563C7.02369 4.73089 7.34027 4.73089 7.53553 4.53563C7.7308 4.34036 7.7308 4.02378 7.53553 3.82852L4.35355 0.646538ZM4.5 156.25L4.5 1.00009H3.5L3.5 156.25H4.5Z" fill="#6FCF97"/>
<path d="M4.35355 0.646538C4.15829 0.451276 3.84171 0.451276 3.64645 0.646538L0.464466 3.82852C0.269204 4.02378 0.269204 4.34036 0.464466 4.53563C0.659728 4.73089 0.976311 4.73089 1.17157 4.53563L4 1.7072L6.82843 4.53563C7.02369 4.73089 7.34027 4.73089 7.53553 4.53563C7.7308 4.34036 7.7308 4.02378 7.53553 3.82852L4.35355 0.646538ZM4.5 156.25L4.5 1.00009H3.5L3.5 156.25H4.5Z" fill="#6FCF97"/>
<path d="M3.64645 277.604C3.84171 277.799 4.15829 277.799 4.35355 277.604L7.53553 274.422C7.7308 274.226 7.7308 273.91 7.53553 273.714C7.34027 273.519 7.02369 273.519 6.82843 273.714L4 276.543L1.17157 273.714C0.976311 273.519 0.659728 273.519 0.464466 273.714C0.269204 273.91 0.269204 274.226 0.464466 274.422L3.64645 277.604ZM3.5 156L3.5 277.25H4.5L4.5 156H3.5Z" fill="#6FCF97"/>
<path d="M3.64645 277.604C3.84171 277.799 4.15829 277.799 4.35355 277.604L7.53553 274.422C7.7308 274.226 7.7308 273.91 7.53553 273.714C7.34027 273.519 7.02369 273.519 6.82843 273.714L4 276.543L1.17157 273.714C0.976311 273.519 0.659728 273.519 0.464466 273.714C0.269204 273.91 0.269204 274.226 0.464466 274.422L3.64645 277.604ZM3.5 156L3.5 277.25H4.5L4.5 156H3.5Z" fill="#6FCF97"/>
</g>
</svg>
