<svg width="1440" height="900" viewBox="0 0 1440 900" fill="none" xmlns="http://www.w3.org/2000/svg">
<g opacity="0.3" clip-path="url(#clip0)">
<g opacity="0.3">
<path opacity="0.3" d="M361.207 714.328L368.409 691.843C370.885 684.012 370.905 675.552 368.465 667.709C366.026 659.866 361.255 653.055 354.857 648.28L354.916 648.243C352.083 646.145 348.976 644.489 345.693 643.327V643.327L345.593 643.29L345.482 643.253C342.295 642.119 338.972 641.461 335.611 641.299C334.422 641.235 333.231 641.235 332.042 641.299C329.979 641.413 327.929 641.711 325.915 642.19C325.331 642.325 324.747 642.479 324.215 642.645C323.683 642.811 323.088 642.989 322.533 643.18C321.423 643.567 320.331 644.003 319.262 644.501C318.724 644.747 318.193 645.005 317.673 645.281C316.101 646.098 314.588 647.034 313.146 648.083C312.661 648.434 312.188 648.796 311.721 649.165C305.947 653.784 301.625 660.121 299.314 667.354L287.994 702.781C286.213 708.337 285.677 714.251 286.429 720.061C286.546 720.952 286.692 721.837 286.861 722.716C287.031 723.595 287.241 724.461 287.445 725.321C287.603 725.893 287.767 726.464 287.948 727.03C288.216 727.872 288.532 728.714 288.83 729.537C289.046 730.084 289.274 730.631 289.513 731.172C289.986 732.247 290.512 733.298 291.078 734.324C291.645 735.35 292.247 736.352 292.924 737.323C293.415 738.048 293.935 738.761 294.472 739.449C295.196 740.371 295.956 741.293 296.762 742.11C300.251 745.81 304.426 748.716 309.028 750.646V750.646L309.227 750.732C309.474 750.27 309.747 749.825 310.045 749.398C311.797 746.872 314.846 745.096 317.749 745.76C317.959 745.809 318.169 745.877 318.38 745.944C319.852 746.491 321.3 747.468 322.72 747.948C323.236 748.192 323.797 748.314 324.363 748.307C324.929 748.3 325.486 748.162 325.997 747.905C328.835 746.313 327.784 741.293 330.22 739.093C330.333 738.991 330.452 738.897 330.576 738.81C330.541 738.765 330.51 738.718 330.482 738.669C332.363 737.44 334.968 738.257 337.135 739.05C339.472 739.916 342.521 740.5 344.145 738.49C345.243 737.114 345.161 735.018 346.207 733.574C347.422 731.915 349.711 731.731 351.691 732.026L351.791 732.057C355.587 733.703 359.735 730.969 359.443 726.661C359.098 720.915 360.815 715.502 361.207 714.328Z" fill="url(#paint0_linear)"/>
</g>
<path opacity="0.2" d="M323.637 669.081C325.737 669.081 327.439 667.29 327.439 665.081C327.439 662.871 325.737 661.08 323.637 661.08C321.537 661.08 319.834 662.871 319.834 665.081C319.834 667.29 321.537 669.081 323.637 669.081Z" fill="black"/>
<path opacity="0.2" d="M345.261 676.732C347.361 676.732 349.063 674.941 349.063 672.732C349.063 670.522 347.361 668.731 345.261 668.731C343.16 668.731 341.458 670.522 341.458 672.732C341.458 674.941 343.16 676.732 345.261 676.732Z" fill="black"/>
<path d="M333.217 685.387C334.221 682.247 333.422 679.131 331.431 678.426C329.441 677.722 327.013 679.695 326.009 682.835C325.005 685.974 325.804 689.09 327.795 689.795C329.785 690.5 332.213 688.526 333.217 685.387Z" fill="#E0E0E0"/>
<path d="M409.606 671.963C412.754 671.963 415.307 669.278 415.307 665.966C415.307 662.653 412.754 659.968 409.606 659.968C406.457 659.968 403.905 662.653 403.905 665.966C403.905 669.278 406.457 671.963 409.606 671.963Z" fill="white"/>
<path d="M427.666 659.532C429.241 659.532 430.517 658.189 430.517 656.533C430.517 654.877 429.241 653.534 427.666 653.534C426.092 653.534 424.816 654.877 424.816 656.533C424.816 658.189 426.092 659.532 427.666 659.532Z" fill="white"/>
<path opacity="0.5" d="M165.075 401.903C164.592 401.682 164.204 401.282 163.983 400.779C163.762 400.276 163.725 399.705 163.877 399.175C163.902 399.093 163.918 399.009 163.924 398.923V398.923C163.939 398.68 163.879 398.438 163.752 398.234C163.626 398.029 163.441 397.874 163.223 397.789C163.006 397.705 162.768 397.697 162.546 397.766C162.324 397.835 162.129 397.978 161.991 398.173C161.944 398.242 161.905 398.316 161.874 398.394C161.664 398.903 161.284 399.313 160.806 399.545C160.327 399.777 159.784 399.816 159.28 399.654C159.202 399.629 159.122 399.613 159.041 399.605C158.81 399.589 158.58 399.653 158.386 399.786C158.192 399.918 158.043 400.114 157.963 400.342C157.883 400.571 157.875 400.821 157.941 401.054C158.007 401.288 158.143 401.493 158.328 401.639V401.639C158.393 401.691 158.463 401.735 158.539 401.768C159.021 401.99 159.41 402.39 159.63 402.893C159.851 403.396 159.889 403.966 159.736 404.497C159.712 404.576 159.696 404.659 159.689 404.742V404.742C159.673 404.986 159.732 405.229 159.858 405.434C159.984 405.64 160.169 405.797 160.387 405.882C160.605 405.967 160.843 405.975 161.066 405.906C161.288 405.837 161.484 405.694 161.623 405.498C161.671 405.428 161.71 405.351 161.739 405.271C161.954 404.768 162.337 404.365 162.815 404.139C163.292 403.912 163.833 403.878 164.333 404.042C164.411 404.067 164.491 404.083 164.572 404.091C164.804 404.107 165.033 404.043 165.228 403.91C165.422 403.778 165.57 403.582 165.65 403.354C165.73 403.125 165.738 402.875 165.672 402.642C165.606 402.408 165.471 402.203 165.285 402.057V402.057C165.222 401.996 165.151 401.944 165.075 401.903V401.903Z" fill="#4D8AF0"/>
<path opacity="0.5" d="M462.386 589.944C461.909 589.717 461.527 589.315 461.311 588.812C461.096 588.31 461.063 587.742 461.218 587.216C461.242 587.134 461.258 587.049 461.264 586.964V586.964C461.279 586.721 461.219 586.479 461.093 586.275C460.967 586.07 460.781 585.914 460.564 585.83C460.346 585.746 460.109 585.738 459.887 585.807C459.665 585.876 459.47 586.019 459.331 586.214C459.284 586.283 459.245 586.357 459.214 586.435C459.005 586.944 458.624 587.354 458.146 587.586C457.668 587.818 457.125 587.857 456.621 587.695C456.543 587.67 456.462 587.654 456.381 587.646V587.646C456.15 587.63 455.92 587.694 455.726 587.826C455.532 587.959 455.384 588.155 455.304 588.383C455.224 588.612 455.216 588.862 455.282 589.095C455.347 589.329 455.483 589.534 455.669 589.68V589.68C455.733 589.732 455.804 589.776 455.879 589.809C456.356 590.036 456.738 590.439 456.953 590.941C457.168 591.443 457.202 592.011 457.047 592.537C457.023 592.617 457.007 592.7 457 592.783V592.783C456.984 593.027 457.043 593.27 457.169 593.475C457.295 593.681 457.48 593.838 457.698 593.923C457.916 594.008 458.154 594.016 458.377 593.947C458.599 593.878 458.795 593.735 458.934 593.539V593.539C458.982 593.469 459.021 593.392 459.051 593.312C459.265 592.809 459.648 592.406 460.126 592.18C460.604 591.953 461.144 591.919 461.644 592.083C461.722 592.108 461.802 592.124 461.884 592.132V592.132C462.115 592.148 462.344 592.084 462.539 591.951C462.733 591.819 462.881 591.623 462.961 591.395C463.041 591.166 463.049 590.916 462.983 590.682C462.917 590.449 462.782 590.244 462.596 590.098C462.533 590.037 462.462 589.985 462.386 589.944V589.944Z" fill="#4D8AF0"/>
<path opacity="0.5" d="M134.117 677.205C133.634 676.984 133.246 676.583 133.025 676.08C132.804 675.578 132.767 675.007 132.919 674.477C132.944 674.395 132.959 674.31 132.966 674.225V674.225C132.981 673.982 132.921 673.74 132.794 673.535C132.668 673.331 132.482 673.175 132.265 673.091C132.048 673.007 131.81 672.999 131.588 673.068C131.366 673.137 131.171 673.28 131.033 673.475V673.475C130.986 673.544 130.947 673.618 130.916 673.696C130.706 674.205 130.326 674.614 129.847 674.847C129.369 675.079 128.826 675.118 128.322 674.956C128.244 674.931 128.164 674.914 128.083 674.907V674.907C127.852 674.891 127.622 674.954 127.428 675.087C127.233 675.22 127.085 675.415 127.005 675.644C126.925 675.873 126.917 676.123 126.983 676.356C127.049 676.59 127.185 676.795 127.37 676.941V676.941C127.435 676.993 127.505 677.037 127.58 677.07C128.063 677.291 128.452 677.692 128.672 678.195C128.893 678.698 128.931 679.268 128.778 679.798C128.754 679.878 128.738 679.961 128.731 680.044V680.044C128.715 680.288 128.774 680.531 128.9 680.736C129.026 680.942 129.211 681.099 129.429 681.184C129.647 681.269 129.885 681.277 130.107 681.208C130.33 681.139 130.526 680.996 130.665 680.8C130.713 680.73 130.752 680.653 130.781 680.573C130.996 680.07 131.379 679.667 131.856 679.44C132.334 679.214 132.874 679.18 133.375 679.344C133.453 679.369 133.533 679.385 133.614 679.393C133.845 679.409 134.075 679.345 134.269 679.212C134.464 679.079 134.612 678.884 134.692 678.655C134.772 678.427 134.78 678.177 134.714 677.943C134.648 677.71 134.512 677.505 134.327 677.359V677.359C134.264 677.298 134.193 677.246 134.117 677.205V677.205Z" fill="#4D8AF0"/>
<path opacity="0.5" d="M101.991 473.801C101.514 473.574 101.132 473.172 100.916 472.67C100.701 472.167 100.668 471.599 100.823 471.073C100.847 470.991 100.863 470.907 100.869 470.821V470.821C100.884 470.578 100.824 470.336 100.698 470.132C100.572 469.928 100.386 469.772 100.169 469.687C99.9512 469.603 99.7138 469.595 99.4917 469.664C99.2696 469.733 99.0747 469.876 98.936 470.071V470.071C98.8892 470.14 98.85 470.214 98.8192 470.293C98.6096 470.801 98.2293 471.211 97.7509 471.443C97.2726 471.675 96.7296 471.714 96.2257 471.552C96.1477 471.527 96.0675 471.511 95.9862 471.503V471.503C95.7551 471.487 95.5253 471.551 95.3311 471.684C95.1369 471.816 94.9887 472.012 94.9086 472.24C94.8285 472.469 94.8208 472.719 94.8865 472.953C94.9523 473.186 95.0881 473.391 95.2736 473.537C95.3381 473.59 95.4088 473.633 95.4839 473.666C95.9665 473.888 96.355 474.288 96.5757 474.791C96.7964 475.294 96.834 475.865 96.6813 476.395C96.6574 476.475 96.6417 476.557 96.6346 476.64V476.64C96.6182 476.884 96.6774 477.127 96.8032 477.332C96.929 477.538 97.1146 477.695 97.3323 477.78C97.55 477.865 97.7881 477.874 98.0108 477.804C98.2336 477.735 98.4291 477.592 98.568 477.396V477.396C98.616 477.326 98.6552 477.25 98.6848 477.169C98.8995 476.666 99.282 476.263 99.7599 476.037C100.238 475.81 100.778 475.776 101.278 475.94C101.356 475.965 101.436 475.982 101.518 475.989C101.749 476.005 101.979 475.941 102.173 475.809C102.367 475.676 102.515 475.48 102.595 475.252C102.675 475.023 102.683 474.773 102.617 474.54C102.552 474.306 102.416 474.101 102.23 473.955V473.955C102.158 473.892 102.078 473.84 101.991 473.801V473.801Z" fill="#4D8AF0"/>
<path opacity="0.5" d="M456.545 370.563C456.068 370.336 455.686 369.934 455.47 369.431C455.255 368.929 455.222 368.361 455.377 367.835C455.401 367.753 455.417 367.668 455.423 367.583V367.583C455.438 367.34 455.378 367.098 455.252 366.894C455.126 366.689 454.94 366.533 454.723 366.449C454.505 366.365 454.268 366.357 454.046 366.426C453.824 366.495 453.629 366.638 453.49 366.833V366.833C453.443 366.902 453.404 366.976 453.373 367.054C453.158 367.557 452.776 367.96 452.298 368.186C451.82 368.413 451.28 368.447 450.78 368.283C450.702 368.258 450.622 368.242 450.54 368.234V368.234C450.288 368.179 450.026 368.22 449.801 368.351C449.576 368.481 449.402 368.692 449.312 368.946C449.223 369.2 449.222 369.479 449.312 369.733C449.401 369.987 449.573 370.198 449.798 370.33V370.33C449.863 370.382 449.934 370.425 450.009 370.459C450.486 370.686 450.868 371.088 451.083 371.591C451.298 372.093 451.332 372.661 451.177 373.187C451.153 373.267 451.137 373.349 451.13 373.433V373.433C451.106 373.686 451.163 373.94 451.292 374.155C451.422 374.37 451.617 374.532 451.845 374.616C452.073 374.7 452.322 374.7 452.55 374.617C452.779 374.534 452.974 374.372 453.104 374.158V374.158C453.152 374.088 453.192 374.011 453.221 373.931C453.436 373.428 453.819 373.025 454.296 372.798C454.774 372.572 455.314 372.538 455.815 372.702C455.893 372.727 455.973 372.743 456.054 372.751V372.751C456.285 372.766 456.515 372.703 456.709 372.57C456.903 372.437 457.052 372.242 457.132 372.013C457.212 371.785 457.22 371.535 457.154 371.301C457.088 371.068 456.952 370.863 456.767 370.717V370.717C456.7 370.655 456.625 370.603 456.545 370.563V370.563Z" fill="#4D8AF0"/>
<g opacity="0.5">
<path opacity="0.5" d="M152.873 524.83H151.12V535.277H152.873V524.83Z" fill="#47E6B1"/>
<path opacity="0.5" d="M156.961 530.976V529.132H147.031V530.976H156.961Z" fill="#47E6B1"/>
</g>
<g opacity="0.5">
<path opacity="0.5" d="M573.431 475.669H571.679V486.116H573.431V475.669Z" fill="#47E6B1"/>
<path opacity="0.5" d="M577.52 481.815V479.971H567.59V481.815H577.52Z" fill="#47E6B1"/>
</g>
<g opacity="0.5">
<path opacity="0.5" d="M515.02 647.119H513.267V657.565H515.02V647.119Z" fill="#47E6B1"/>
<path opacity="0.5" d="M519.109 653.264V651.42H509.179V653.264H519.109Z" fill="#47E6B1"/>
</g>
<path opacity="0.5" d="M509.179 420.363C511.115 420.363 512.684 418.713 512.684 416.676C512.684 414.64 511.115 412.989 509.179 412.989C507.244 412.989 505.675 414.64 505.675 416.676C505.675 418.713 507.244 420.363 509.179 420.363Z" fill="#F55F44"/>
<path opacity="0.5" d="M90.3728 377.962C92.3084 377.962 93.8774 376.311 93.8774 374.275C93.8774 372.239 92.3084 370.588 90.3728 370.588C88.4372 370.588 86.8682 372.239 86.8682 374.275C86.8682 376.311 88.4372 377.962 90.3728 377.962Z" fill="#F55F44"/>
<path opacity="0.5" d="M195.512 589.969C197.448 589.969 199.017 588.318 199.017 586.282C199.017 584.245 197.448 582.595 195.512 582.595C193.577 582.595 192.008 584.245 192.008 586.282C192.008 588.318 193.577 589.969 195.512 589.969Z" fill="#F55F44"/>
<g opacity="0.3">
<path opacity="0.3" d="M209.338 217.187L216.54 194.702C219.017 186.871 219.037 178.411 216.597 170.568C214.157 162.725 209.387 155.914 202.989 151.139L203.048 151.102C200.215 149.004 197.108 147.348 193.824 146.186V146.186L193.725 146.149L193.614 146.112C190.427 144.978 187.104 144.32 183.743 144.158C182.554 144.094 181.363 144.094 180.174 144.158C178.111 144.272 176.061 144.57 174.047 145.049C173.462 145.184 172.878 145.338 172.347 145.504C171.815 145.67 171.22 145.848 170.665 146.038C169.555 146.426 168.462 146.862 167.394 147.36C166.856 147.605 166.325 147.864 165.805 148.14C164.233 148.957 162.72 149.893 161.278 150.942C160.793 151.293 160.32 151.655 159.853 152.024C154.079 156.643 149.757 162.98 147.446 170.213L136.126 205.64C134.345 211.196 133.809 217.11 134.561 222.92C134.678 223.811 134.824 224.696 134.993 225.575C135.162 226.454 135.373 227.32 135.577 228.18C135.735 228.752 135.898 229.323 136.08 229.889C136.348 230.731 136.664 231.573 136.962 232.396C137.178 232.943 137.405 233.49 137.645 234.031C138.118 235.106 138.644 236.157 139.21 237.183C139.777 238.209 140.379 239.211 141.056 240.182C141.547 240.907 142.067 241.62 142.604 242.308C143.328 243.23 144.088 244.152 144.894 244.969C148.383 248.669 152.558 251.575 157.16 253.505V253.505L157.359 253.591C157.606 253.129 157.879 252.684 158.176 252.257C159.929 249.731 162.978 247.956 165.881 248.619C166.091 248.668 166.301 248.736 166.512 248.804C167.984 249.35 169.432 250.328 170.852 250.807C171.368 251.051 171.928 251.173 172.494 251.166C173.06 251.159 173.618 251.021 174.128 250.764C176.967 249.172 175.916 244.152 178.351 241.952C178.465 241.85 178.584 241.756 178.708 241.669C178.673 241.624 178.642 241.577 178.614 241.528C180.495 240.299 183.1 241.116 185.267 241.909C187.604 242.775 190.653 243.359 192.277 241.349C193.375 239.973 193.293 237.877 194.339 236.433C195.553 234.774 197.843 234.59 199.823 234.885L199.923 234.916C203.719 236.562 207.866 233.828 207.574 229.52C207.23 223.774 208.947 218.361 209.338 217.187Z" fill="url(#paint1_linear)"/>
</g>
<path opacity="0.2" d="M171.768 171.94C173.868 171.94 175.571 170.149 175.571 167.94C175.571 165.73 173.868 163.939 171.768 163.939C169.668 163.939 167.966 165.73 167.966 167.94C167.966 170.149 169.668 171.94 171.768 171.94Z" fill="black"/>
<path opacity="0.2" d="M193.392 179.591C195.492 179.591 197.195 177.8 197.195 175.59C197.195 173.381 195.492 171.59 193.392 171.59C191.292 171.59 189.589 173.381 189.589 175.59C189.589 177.8 191.292 179.591 193.392 179.591Z" fill="black"/>
<path d="M181.349 188.246C182.353 185.106 181.554 181.99 179.563 181.285C177.573 180.581 175.145 182.554 174.141 185.694C173.137 188.833 173.936 191.949 175.926 192.654C177.917 193.359 180.345 191.385 181.349 188.246Z" fill="#E0E0E0"/>
<path d="M257.738 174.822C260.886 174.822 263.439 172.137 263.439 168.825C263.439 165.512 260.886 162.827 257.738 162.827C254.589 162.827 252.037 165.512 252.037 168.825C252.037 172.137 254.589 174.822 257.738 174.822Z" fill="white"/>
<path d="M275.798 162.391C277.373 162.391 278.649 161.048 278.649 159.392C278.649 157.736 277.373 156.393 275.798 156.393C274.224 156.393 272.948 157.736 272.948 159.392C272.948 161.048 274.224 162.391 275.798 162.391Z" fill="white"/>
<path opacity="0.5" d="M310.518 92.8033C310.041 92.5763 309.658 92.1738 309.443 91.6714C309.228 91.169 309.195 90.6013 309.35 90.0749C309.374 89.993 309.39 89.9085 309.396 89.8229V89.8229C309.411 89.5797 309.351 89.338 309.225 89.1337C309.098 88.9294 308.913 88.7735 308.695 88.6892C308.478 88.6049 308.241 88.5968 308.019 88.666C307.796 88.7352 307.602 88.878 307.463 89.0732C307.416 89.1421 307.377 89.2163 307.346 89.2944C307.136 89.803 306.756 90.2126 306.278 90.445C305.799 90.6774 305.256 90.7162 304.753 90.5542C304.675 90.5291 304.594 90.5126 304.513 90.505V90.505C304.282 90.4894 304.052 90.5527 303.858 90.6855C303.664 90.8184 303.516 91.0137 303.435 91.2423C303.355 91.471 303.348 91.7208 303.413 91.9544C303.479 92.1881 303.615 92.3932 303.8 92.5391V92.5391C303.865 92.5914 303.936 92.6348 304.011 92.6681C304.488 92.8951 304.87 93.2976 305.085 93.8C305.3 94.3024 305.334 94.8701 305.179 95.3965C305.155 95.4765 305.139 95.5589 305.132 95.6423V95.6423C305.116 95.8861 305.175 96.1288 305.301 96.3342C305.427 96.5396 305.612 96.6966 305.83 96.7818C306.048 96.8669 306.286 96.8755 306.508 96.8063C306.731 96.7372 306.927 96.594 307.066 96.3982V96.3982C307.114 96.328 307.153 96.2515 307.182 96.1708C307.397 95.6678 307.78 95.2651 308.258 95.0386C308.735 94.8121 309.276 94.7777 309.776 94.9418C309.854 94.9669 309.934 94.9834 310.015 94.991V94.991C310.247 95.0066 310.476 94.9433 310.671 94.8105C310.865 94.6776 311.013 94.4823 311.093 94.2536C311.173 94.025 311.181 93.7752 311.115 93.5415C311.049 93.3079 310.914 93.1028 310.728 92.9569C310.665 92.8959 310.594 92.8443 310.518 92.8033V92.8033Z" fill="#4D8AF0"/>
<g opacity="0.5">
<path opacity="0.5" d="M1.00427 27.6895H-0.748047V38.1362H1.00427V27.6895Z" fill="#47E6B1"/>
<path opacity="0.5" d="M5.09302 33.8346V31.991H-4.83682V33.8346H5.09302Z" fill="#47E6B1"/>
</g>
<g opacity="0.5">
<path opacity="0.5" d="M363.152 149.978H361.4V160.424H363.152V149.978Z" fill="#47E6B1"/>
<path opacity="0.5" d="M367.241 156.123V154.279H357.311V156.123H367.241Z" fill="#47E6B1"/>
</g>
<path opacity="0.5" d="M43.6443 92.8279C45.5799 92.8279 47.149 91.1771 47.149 89.1408C47.149 87.1045 45.5799 85.4537 43.6443 85.4537C41.7087 85.4537 40.1396 87.1045 40.1396 89.1408C40.1396 91.1771 41.7087 92.8279 43.6443 92.8279Z" fill="#F55F44"/>
<g opacity="0.3">
<path opacity="0.3" d="M645.084 305.677L652.286 283.192C654.762 275.361 654.782 266.901 652.342 259.058C649.903 251.215 645.132 244.404 638.734 239.629L638.793 239.592C635.96 237.494 632.853 235.838 629.57 234.676V234.676L629.47 234.639L629.359 234.602C626.172 233.468 622.849 232.81 619.488 232.648C618.299 232.583 617.108 232.583 615.919 232.648C613.856 232.762 611.806 233.06 609.792 233.539C609.208 233.674 608.624 233.828 608.092 233.994C607.56 234.16 606.965 234.338 606.41 234.528C605.3 234.916 604.208 235.352 603.139 235.85C602.601 236.095 602.07 236.354 601.55 236.63C599.978 237.447 598.465 238.383 597.023 239.432C596.538 239.783 596.065 240.145 595.598 240.514C589.824 245.133 585.502 251.47 583.191 258.703L571.871 294.13C570.09 299.686 569.554 305.6 570.306 311.41C570.423 312.301 570.569 313.186 570.738 314.065C570.908 314.944 571.118 315.81 571.322 316.67C571.48 317.242 571.644 317.813 571.825 318.379C572.093 319.221 572.409 320.062 572.707 320.886C572.923 321.433 573.151 321.98 573.39 322.521C573.863 323.596 574.389 324.647 574.955 325.673C575.522 326.699 576.124 327.701 576.801 328.672C577.292 329.397 577.812 330.11 578.349 330.798C579.073 331.72 579.833 332.642 580.639 333.459C584.128 337.159 588.303 340.065 592.905 341.994V341.994L593.104 342.081C593.351 341.619 593.624 341.174 593.921 340.747C595.674 338.221 598.723 336.445 601.626 337.109C601.836 337.158 602.046 337.226 602.257 337.293C603.729 337.84 605.177 338.817 606.597 339.297C607.113 339.541 607.674 339.663 608.24 339.656C608.806 339.649 609.363 339.511 609.873 339.254C612.712 337.662 611.661 332.642 614.097 330.442C614.21 330.34 614.329 330.246 614.453 330.159C614.418 330.114 614.387 330.067 614.359 330.018C616.24 328.789 618.845 329.606 621.012 330.399C623.349 331.265 626.398 331.849 628.022 329.839C629.12 328.463 629.038 326.367 630.084 324.923C631.299 323.264 633.588 323.08 635.568 323.375L635.668 323.405C639.464 325.052 643.612 322.318 643.32 318.01C642.975 312.264 644.692 306.85 645.084 305.677Z" fill="url(#paint2_linear)"/>
</g>
<path opacity="0.2" d="M607.514 260.43C609.614 260.43 611.316 258.639 611.316 256.43C611.316 254.22 609.614 252.429 607.514 252.429C605.414 252.429 603.711 254.22 603.711 256.43C603.711 258.639 605.414 260.43 607.514 260.43Z" fill="black"/>
<path opacity="0.2" d="M629.137 268.081C631.237 268.081 632.94 266.29 632.94 264.08C632.94 261.871 631.237 260.08 629.137 260.08C627.037 260.08 625.335 261.871 625.335 264.08C625.335 266.29 627.037 268.081 629.137 268.081Z" fill="black"/>
<path d="M617.094 276.736C618.098 273.596 617.299 270.48 615.308 269.775C613.318 269.071 610.89 271.044 609.886 274.184C608.882 277.323 609.681 280.439 611.672 281.144C613.662 281.849 616.09 279.875 617.094 276.736Z" fill="#E0E0E0"/>
<path d="M693.483 263.312C696.631 263.312 699.184 260.627 699.184 257.315C699.184 254.002 696.631 251.317 693.483 251.317C690.334 251.317 687.782 254.002 687.782 257.315C687.782 260.627 690.334 263.312 693.483 263.312Z" fill="white"/>
<path d="M711.544 250.881C713.118 250.881 714.394 249.538 714.394 247.882C714.394 246.226 713.118 244.883 711.544 244.883C709.969 244.883 708.693 246.226 708.693 247.882C708.693 249.538 709.969 250.881 711.544 250.881Z" fill="white"/>
<path opacity="0.5" d="M746.263 181.293C745.786 181.066 745.404 180.664 745.189 180.161C744.973 179.659 744.94 179.091 745.095 178.565C745.119 178.483 745.135 178.398 745.141 178.313V178.313C745.156 178.07 745.096 177.828 744.97 177.624C744.844 177.419 744.658 177.263 744.441 177.179C744.223 177.095 743.986 177.087 743.764 177.156C743.542 177.225 743.347 177.368 743.208 177.563C743.161 177.632 743.122 177.706 743.091 177.784C742.882 178.293 742.501 178.702 742.023 178.935C741.545 179.167 741.002 179.206 740.498 179.044C740.42 179.019 740.339 179.002 740.258 178.995V178.995C740.027 178.979 739.797 179.042 739.603 179.175C739.409 179.308 739.261 179.504 739.181 179.732C739.1 179.961 739.093 180.211 739.158 180.444C739.224 180.678 739.36 180.883 739.546 181.029V181.029C739.61 181.081 739.681 181.125 739.756 181.158C740.233 181.385 740.615 181.787 740.83 182.29C741.045 182.792 741.079 183.36 740.924 183.886C740.9 183.966 740.884 184.049 740.877 184.132V184.132C740.861 184.376 740.92 184.619 741.046 184.824C741.172 185.029 741.357 185.186 741.575 185.272C741.793 185.357 742.031 185.365 742.254 185.296C742.476 185.227 742.672 185.084 742.811 184.888V184.888C742.859 184.818 742.898 184.741 742.928 184.661C743.142 184.158 743.525 183.755 744.003 183.528C744.481 183.302 745.021 183.268 745.521 183.432C745.599 183.457 745.679 183.473 745.761 183.481V183.481C745.992 183.496 746.222 183.433 746.416 183.3C746.61 183.167 746.758 182.972 746.838 182.743C746.918 182.515 746.926 182.265 746.86 182.031C746.795 181.798 746.659 181.593 746.473 181.447C746.41 181.386 746.339 181.334 746.263 181.293V181.293Z" fill="#4D8AF0"/>
<path opacity="0.5" d="M417.994 268.554C417.511 268.333 417.123 267.932 416.902 267.429C416.681 266.926 416.643 266.356 416.796 265.826C416.821 265.744 416.836 265.659 416.843 265.574V265.574C416.858 265.331 416.798 265.089 416.671 264.884C416.545 264.68 416.359 264.524 416.142 264.44C415.925 264.356 415.687 264.348 415.465 264.417C415.243 264.486 415.048 264.629 414.91 264.824V264.824C414.863 264.893 414.824 264.967 414.793 265.045C414.583 265.554 414.203 265.963 413.724 266.196C413.246 266.428 412.703 266.467 412.199 266.305C412.121 266.28 412.041 266.263 411.96 266.256V266.256C411.729 266.24 411.499 266.303 411.305 266.436C411.11 266.569 410.962 266.764 410.882 266.993C410.802 267.222 410.794 267.472 410.86 267.705C410.926 267.939 411.062 268.144 411.247 268.29V268.29C411.312 268.342 411.382 268.386 411.457 268.419C411.94 268.64 412.329 269.041 412.549 269.544C412.77 270.047 412.808 270.617 412.655 271.147C412.631 271.227 412.615 271.31 412.608 271.393V271.393C412.592 271.637 412.651 271.88 412.777 272.085C412.902 272.29 413.088 272.447 413.306 272.533C413.524 272.618 413.762 272.626 413.984 272.557C414.207 272.488 414.403 272.345 414.542 272.149C414.59 272.079 414.629 272.002 414.658 271.922C414.873 271.419 415.256 271.016 415.733 270.789C416.211 270.563 416.751 270.529 417.252 270.693C417.33 270.718 417.41 270.734 417.491 270.742C417.722 270.757 417.952 270.694 418.146 270.561C418.341 270.428 418.489 270.233 418.569 270.004C418.649 269.776 418.657 269.526 418.591 269.292C418.525 269.059 418.389 268.854 418.204 268.708V268.708C418.141 268.647 418.07 268.595 417.994 268.554V268.554Z" fill="#4D8AF0"/>
<path opacity="0.5" d="M385.868 65.1502C385.39 64.9232 385.008 64.5207 384.793 64.0183C384.578 63.5159 384.545 62.9482 384.699 62.4217C384.724 62.3399 384.74 62.2554 384.746 62.1698V62.1698C384.761 61.9266 384.701 61.6848 384.575 61.4805C384.448 61.2763 384.263 61.1204 384.045 61.0361C383.828 60.9518 383.591 60.9436 383.369 61.0128C383.146 61.082 382.951 61.2249 382.813 61.4201V61.4201C382.766 61.4889 382.727 61.5631 382.696 61.6413C382.486 62.1499 382.106 62.5595 381.628 62.7919C381.149 63.0242 380.606 63.0631 380.103 62.9011C380.025 62.8759 379.944 62.8595 379.863 62.8519V62.8519C379.632 62.8362 379.402 62.8995 379.208 63.0324C379.014 63.1653 378.866 63.3606 378.785 63.5892C378.705 63.8179 378.698 64.0677 378.763 64.3013C378.829 64.535 378.965 64.7401 379.15 64.886C379.215 64.9383 379.286 64.9817 379.361 65.015C379.843 65.2366 380.232 65.6368 380.453 66.1397C380.673 66.6426 380.711 67.2133 380.558 67.7434C380.534 67.8234 380.519 67.9058 380.511 67.9892V67.9892C380.495 68.233 380.554 68.4757 380.68 68.6811C380.806 68.8865 380.991 69.0436 381.209 69.1287C381.427 69.2138 381.665 69.2224 381.888 69.1533C382.11 69.0841 382.306 68.9409 382.445 68.7451V68.7451C382.493 68.6749 382.532 68.5984 382.562 68.5177C382.776 68.0147 383.159 67.612 383.637 67.3855C384.115 67.159 384.655 67.1246 385.155 67.2887C385.233 67.3138 385.313 67.3303 385.395 67.3379C385.626 67.3535 385.856 67.2902 386.05 67.1574C386.244 67.0245 386.392 66.8292 386.472 66.6005C386.552 66.3719 386.56 66.1221 386.494 65.8884C386.429 65.6548 386.293 65.4497 386.107 65.3038V65.3038C386.035 65.2404 385.954 65.1886 385.868 65.1502V65.1502Z" fill="#4D8AF0"/>
<g opacity="0.5">
<path opacity="0.5" d="M436.75 116.179H434.997V126.626H436.75V116.179Z" fill="#47E6B1"/>
<path opacity="0.5" d="M440.838 122.324V120.481H430.908V122.324H440.838Z" fill="#47E6B1"/>
</g>
<g opacity="0.5">
<path opacity="0.5" d="M857.308 67.0183H855.555V77.465H857.308V67.0183Z" fill="#47E6B1"/>
<path opacity="0.5" d="M861.396 73.1634V71.3199H851.467V73.1634H861.396Z" fill="#47E6B1"/>
</g>
<g opacity="0.5">
<path opacity="0.5" d="M798.897 238.467H797.145V248.914H798.897V238.467Z" fill="#47E6B1"/>
<path opacity="0.5" d="M802.986 244.613V242.769H793.056V244.613H802.986Z" fill="#47E6B1"/>
</g>
<path opacity="0.5" d="M793.056 11.7121C794.991 11.7121 796.56 10.0614 796.56 8.02505C796.56 5.98874 794.991 4.33798 793.056 4.33798C791.12 4.33798 789.551 5.98874 789.551 8.02505C789.551 10.0614 791.12 11.7121 793.056 11.7121Z" fill="#F55F44"/>
<path opacity="0.5" d="M479.389 181.318C481.325 181.318 482.894 179.667 482.894 177.631C482.894 175.594 481.325 173.944 479.389 173.944C477.454 173.944 475.885 175.594 475.885 177.631C475.885 179.667 477.454 181.318 479.389 181.318Z" fill="#F55F44"/>
</g>
<g opacity="0.3" clip-path="url(#clip1)">
<g opacity="0.3">
<path opacity="0.3" d="M1277.02 723.63L1284.22 701.145C1286.69 693.314 1286.71 684.854 1284.27 677.011C1281.83 669.168 1277.06 662.357 1270.67 657.582L1270.72 657.545C1267.89 655.447 1264.79 653.791 1261.5 652.629V652.629L1261.4 652.592L1261.29 652.555C1258.1 651.421 1254.78 650.763 1251.42 650.601C1250.23 650.536 1249.04 650.536 1247.85 650.601C1245.79 650.715 1243.74 651.013 1241.72 651.492C1241.14 651.627 1240.56 651.781 1240.02 651.947C1239.49 652.113 1238.9 652.291 1238.34 652.481C1237.23 652.869 1236.14 653.305 1235.07 653.803C1234.53 654.048 1234 654.307 1233.48 654.583C1231.91 655.4 1230.4 656.336 1228.96 657.385C1228.47 657.735 1228 658.098 1227.53 658.467C1221.76 663.086 1217.43 669.423 1215.12 676.656L1203.8 712.083C1202.02 717.639 1201.49 723.553 1202.24 729.363C1202.35 730.254 1202.5 731.139 1202.67 732.018C1202.84 732.897 1203.05 733.763 1203.25 734.623C1203.41 735.195 1203.58 735.766 1203.76 736.332C1204.03 737.174 1204.34 738.015 1204.64 738.839C1204.85 739.386 1205.08 739.933 1205.32 740.473C1205.8 741.549 1206.32 742.6 1206.89 743.626C1207.45 744.652 1208.06 745.654 1208.73 746.625C1209.22 747.35 1209.74 748.063 1210.28 748.751C1211.01 749.673 1211.76 750.595 1212.57 751.412C1216.06 755.112 1220.24 758.018 1224.84 759.947V759.947L1225.04 760.033C1225.28 759.572 1225.56 759.127 1225.85 758.7C1227.61 756.174 1230.65 754.398 1233.56 755.062C1233.77 755.111 1233.98 755.179 1234.19 755.246C1235.66 755.793 1237.11 756.77 1238.53 757.25C1239.05 757.494 1239.61 757.616 1240.17 757.609C1240.74 757.601 1241.3 757.464 1241.81 757.207C1244.64 755.615 1243.59 750.595 1246.03 748.395C1246.14 748.293 1246.26 748.199 1246.38 748.112C1246.35 748.067 1246.32 748.02 1246.29 747.971C1248.17 746.742 1250.78 747.559 1252.94 748.352C1255.28 749.218 1258.33 749.802 1259.95 747.792C1261.05 746.416 1260.97 744.32 1262.02 742.876C1263.23 741.217 1265.52 741.033 1267.5 741.328L1267.6 741.358C1271.4 743.005 1275.54 740.271 1275.25 735.963C1274.91 730.217 1276.62 724.803 1277.02 723.63Z" fill="url(#paint3_linear)"/>
</g>
<path opacity="0.2" d="M1239.45 678.383C1241.55 678.383 1243.25 676.592 1243.25 674.383C1243.25 672.173 1241.55 670.382 1239.45 670.382C1237.35 670.382 1235.64 672.173 1235.64 674.383C1235.64 676.592 1237.35 678.383 1239.45 678.383Z" fill="black"/>
<path opacity="0.2" d="M1261.07 686.034C1263.17 686.034 1264.87 684.243 1264.87 682.033C1264.87 679.824 1263.17 678.033 1261.07 678.033C1258.97 678.033 1257.27 679.824 1257.27 682.033C1257.27 684.243 1258.97 686.034 1261.07 686.034Z" fill="black"/>
<path d="M1249.03 694.689C1250.03 691.549 1249.23 688.433 1247.24 687.728C1245.25 687.023 1242.82 688.997 1241.82 692.137C1240.81 695.276 1241.61 698.392 1243.6 699.097C1245.59 699.802 1248.02 697.828 1249.03 694.689Z" fill="#E0E0E0"/>
<path d="M1325.42 681.265C1328.56 681.265 1331.12 678.58 1331.12 675.268C1331.12 671.955 1328.56 669.27 1325.42 669.27C1322.27 669.27 1319.71 671.955 1319.71 675.268C1319.71 678.58 1322.27 681.265 1325.42 681.265Z" fill="white"/>
<path d="M1343.48 668.834C1345.05 668.834 1346.33 667.491 1346.33 665.835C1346.33 664.179 1345.05 662.836 1343.48 662.836C1341.9 662.836 1340.63 664.179 1340.63 665.835C1340.63 667.491 1341.9 668.834 1343.48 668.834Z" fill="white"/>
<path opacity="0.5" d="M1080.88 411.205C1080.4 410.984 1080.01 410.583 1079.79 410.08C1079.57 409.578 1079.53 409.007 1079.69 408.477C1079.71 408.395 1079.73 408.31 1079.73 408.225V408.225C1079.75 407.982 1079.69 407.74 1079.56 407.536C1079.44 407.331 1079.25 407.175 1079.03 407.091C1078.81 407.007 1078.58 406.999 1078.36 407.068C1078.13 407.137 1077.94 407.28 1077.8 407.475C1077.75 407.544 1077.71 407.618 1077.68 407.696C1077.47 408.205 1077.09 408.615 1076.61 408.847C1076.14 409.079 1075.59 409.118 1075.09 408.956C1075.01 408.931 1074.93 408.914 1074.85 408.907C1074.62 408.891 1074.39 408.955 1074.19 409.087C1074 409.22 1073.85 409.416 1073.77 409.644C1073.69 409.873 1073.68 410.123 1073.75 410.356C1073.82 410.59 1073.95 410.795 1074.14 410.941V410.941C1074.2 410.993 1074.27 411.037 1074.35 411.07C1074.83 411.292 1075.22 411.692 1075.44 412.195C1075.66 412.698 1075.7 413.268 1075.55 413.798C1075.52 413.878 1075.51 413.961 1075.5 414.044V414.044C1075.48 414.288 1075.54 414.531 1075.67 414.736C1075.79 414.941 1075.98 415.098 1076.2 415.184C1076.41 415.269 1076.65 415.277 1076.87 415.208C1077.1 415.139 1077.29 414.996 1077.43 414.8C1077.48 414.73 1077.52 414.653 1077.55 414.573C1077.76 414.07 1078.15 413.667 1078.62 413.44C1079.1 413.214 1079.64 413.18 1080.14 413.344C1080.22 413.369 1080.3 413.385 1080.38 413.393C1080.61 413.408 1080.84 413.345 1081.04 413.212C1081.23 413.079 1081.38 412.884 1081.46 412.655C1081.54 412.427 1081.55 412.177 1081.48 411.943C1081.42 411.71 1081.28 411.505 1081.09 411.359V411.359C1081.03 411.298 1080.96 411.246 1080.88 411.205V411.205Z" fill="#4D8AF0"/>
<path opacity="0.5" d="M1378.2 599.246C1377.72 599.019 1377.34 598.617 1377.12 598.114C1376.91 597.612 1376.87 597.044 1377.03 596.518C1377.05 596.436 1377.07 596.351 1377.07 596.266V596.266C1377.09 596.023 1377.03 595.781 1376.9 595.577C1376.78 595.372 1376.59 595.216 1376.37 595.132C1376.16 595.048 1375.92 595.04 1375.7 595.109C1375.47 595.178 1375.28 595.321 1375.14 595.516C1375.09 595.585 1375.05 595.659 1375.02 595.737C1374.81 596.246 1374.43 596.655 1373.96 596.888C1373.48 597.12 1372.93 597.159 1372.43 596.997C1372.35 596.972 1372.27 596.955 1372.19 596.948V596.948C1371.96 596.932 1371.73 596.995 1371.54 597.128C1371.34 597.261 1371.19 597.457 1371.11 597.685C1371.03 597.914 1371.02 598.164 1371.09 598.397C1371.16 598.631 1371.29 598.836 1371.48 598.982V598.982C1371.54 599.034 1371.61 599.078 1371.69 599.111C1372.17 599.338 1372.55 599.74 1372.76 600.243C1372.98 600.745 1373.01 601.313 1372.86 601.839C1372.83 601.919 1372.82 602.002 1372.81 602.085V602.085C1372.79 602.329 1372.85 602.572 1372.98 602.777C1373.1 602.982 1373.29 603.139 1373.51 603.225C1373.72 603.31 1373.96 603.318 1374.19 603.249C1374.41 603.18 1374.6 603.037 1374.74 602.841V602.841C1374.79 602.771 1374.83 602.694 1374.86 602.614C1375.07 602.111 1375.46 601.708 1375.93 601.481C1376.41 601.255 1376.95 601.221 1377.45 601.385C1377.53 601.41 1377.61 601.426 1377.69 601.434V601.434C1377.92 601.449 1378.15 601.386 1378.35 601.253C1378.54 601.12 1378.69 600.925 1378.77 600.696C1378.85 600.468 1378.86 600.218 1378.79 599.984C1378.73 599.751 1378.59 599.546 1378.41 599.4C1378.34 599.339 1378.27 599.287 1378.2 599.246V599.246Z" fill="#4D8AF0"/>
<path opacity="0.5" d="M1049.93 686.507C1049.44 686.285 1049.05 685.885 1048.83 685.382C1048.61 684.879 1048.58 684.309 1048.73 683.779C1048.75 683.697 1048.77 683.612 1048.78 683.527V683.527C1048.79 683.283 1048.73 683.042 1048.6 682.837C1048.48 682.633 1048.29 682.477 1048.07 682.393C1047.86 682.309 1047.62 682.3 1047.4 682.37C1047.18 682.439 1046.98 682.582 1046.84 682.777V682.777C1046.8 682.846 1046.76 682.92 1046.73 682.998C1046.52 683.507 1046.14 683.916 1045.66 684.149C1045.18 684.381 1044.64 684.42 1044.13 684.258C1044.05 684.233 1043.97 684.216 1043.89 684.209V684.209C1043.66 684.193 1043.43 684.256 1043.24 684.389C1043.04 684.522 1042.89 684.717 1042.81 684.946C1042.73 685.175 1042.73 685.424 1042.79 685.658C1042.86 685.892 1042.99 686.097 1043.18 686.243V686.243C1043.24 686.295 1043.31 686.338 1043.39 686.372C1043.87 686.593 1044.26 686.994 1044.48 687.497C1044.7 687.999 1044.74 688.57 1044.59 689.1C1044.56 689.18 1044.55 689.263 1044.54 689.346V689.346C1044.52 689.59 1044.58 689.833 1044.71 690.038C1044.83 690.243 1045.02 690.4 1045.24 690.486C1045.46 690.571 1045.69 690.579 1045.92 690.51C1046.14 690.441 1046.33 690.298 1046.47 690.102C1046.52 690.032 1046.56 689.955 1046.59 689.875C1046.81 689.372 1047.19 688.969 1047.67 688.742C1048.14 688.516 1048.68 688.481 1049.18 688.646C1049.26 688.671 1049.34 688.687 1049.42 688.695C1049.65 688.71 1049.88 688.647 1050.08 688.514C1050.27 688.381 1050.42 688.186 1050.5 687.957C1050.58 687.729 1050.59 687.479 1050.52 687.245C1050.46 687.012 1050.32 686.807 1050.14 686.661V686.661C1050.07 686.6 1050 686.548 1049.93 686.507V686.507Z" fill="#4D8AF0"/>
<path opacity="0.5" d="M1017.8 483.103C1017.32 482.876 1016.94 482.474 1016.73 481.971C1016.51 481.469 1016.48 480.901 1016.63 480.375C1016.66 480.293 1016.67 480.208 1016.68 480.123V480.123C1016.69 479.88 1016.63 479.638 1016.51 479.434C1016.38 479.229 1016.19 479.073 1015.98 478.989C1015.76 478.905 1015.52 478.897 1015.3 478.966C1015.08 479.035 1014.88 479.178 1014.75 479.373V479.373C1014.7 479.442 1014.66 479.516 1014.63 479.594C1014.42 480.103 1014.04 480.513 1013.56 480.745C1013.08 480.977 1012.54 481.016 1012.03 480.854C1011.96 480.829 1011.88 480.813 1011.8 480.805V480.805C1011.56 480.789 1011.33 480.853 1011.14 480.986C1010.95 481.118 1010.8 481.314 1010.72 481.542C1010.64 481.771 1010.63 482.021 1010.7 482.254C1010.76 482.488 1010.9 482.693 1011.08 482.839C1011.15 482.891 1011.22 482.935 1011.29 482.968C1011.78 483.19 1012.16 483.59 1012.38 484.093C1012.61 484.596 1012.64 485.166 1012.49 485.697C1012.47 485.776 1012.45 485.859 1012.44 485.942V485.942C1012.43 486.186 1012.49 486.429 1012.61 486.634C1012.74 486.84 1012.92 486.997 1013.14 487.082C1013.36 487.167 1013.6 487.176 1013.82 487.106C1014.04 487.037 1014.24 486.894 1014.38 486.698V486.698C1014.43 486.628 1014.46 486.552 1014.49 486.471C1014.71 485.968 1015.09 485.565 1015.57 485.339C1016.05 485.112 1016.59 485.078 1017.09 485.242C1017.17 485.267 1017.25 485.283 1017.33 485.291C1017.56 485.307 1017.79 485.243 1017.98 485.11C1018.18 484.978 1018.32 484.782 1018.4 484.554C1018.48 484.325 1018.49 484.075 1018.43 483.842C1018.36 483.608 1018.22 483.403 1018.04 483.257V483.257C1017.97 483.193 1017.89 483.142 1017.8 483.103V483.103Z" fill="#4D8AF0"/>
<path opacity="0.5" d="M1372.35 379.865C1371.88 379.638 1371.49 379.236 1371.28 378.733C1371.06 378.231 1371.03 377.663 1371.19 377.137C1371.21 377.055 1371.23 376.97 1371.23 376.885V376.885C1371.25 376.641 1371.19 376.4 1371.06 376.195C1370.93 375.991 1370.75 375.835 1370.53 375.751C1370.31 375.667 1370.08 375.658 1369.85 375.728C1369.63 375.797 1369.44 375.94 1369.3 376.135V376.135C1369.25 376.204 1369.21 376.278 1369.18 376.356C1368.97 376.859 1368.59 377.262 1368.11 377.488C1367.63 377.715 1367.09 377.749 1366.59 377.585C1366.51 377.56 1366.43 377.544 1366.35 377.536V377.536C1366.1 377.48 1365.84 377.522 1365.61 377.652C1365.38 377.783 1365.21 377.994 1365.12 378.248C1365.03 378.502 1365.03 378.781 1365.12 379.035C1365.21 379.288 1365.38 379.5 1365.61 379.632V379.632C1365.67 379.684 1365.74 379.727 1365.82 379.761C1366.3 379.988 1366.68 380.39 1366.89 380.892C1367.11 381.395 1367.14 381.963 1366.99 382.489C1366.96 382.569 1366.95 382.651 1366.94 382.735V382.735C1366.91 382.988 1366.97 383.242 1367.1 383.457C1367.23 383.672 1367.43 383.834 1367.65 383.918C1367.88 384.002 1368.13 384.002 1368.36 383.919C1368.59 383.836 1368.78 383.674 1368.91 383.46V383.46C1368.96 383.39 1369 383.313 1369.03 383.233C1369.25 382.73 1369.63 382.327 1370.11 382.1C1370.58 381.874 1371.12 381.839 1371.62 382.004C1371.7 382.029 1371.78 382.045 1371.86 382.053V382.053C1372.09 382.068 1372.32 382.005 1372.52 381.872C1372.71 381.739 1372.86 381.544 1372.94 381.315C1373.02 381.087 1373.03 380.837 1372.96 380.603C1372.9 380.37 1372.76 380.165 1372.58 380.019V380.019C1372.51 379.957 1372.43 379.905 1372.35 379.865V379.865Z" fill="#4D8AF0"/>
<g opacity="0.5">
<path opacity="0.5" d="M1068.68 534.132H1066.93V544.579H1068.68V534.132Z" fill="#47E6B1"/>
<path opacity="0.5" d="M1072.77 540.278V538.434H1062.84V540.278H1072.77Z" fill="#47E6B1"/>
</g>
<g opacity="0.5">
<path opacity="0.5" d="M1430.83 656.421H1429.08V666.867H1430.83V656.421Z" fill="#47E6B1"/>
<path opacity="0.5" d="M1434.92 662.566V660.722H1424.99V662.566H1434.92Z" fill="#47E6B1"/>
</g>
<path opacity="0.5" d="M1424.99 429.665C1426.92 429.665 1428.49 428.014 1428.49 425.978C1428.49 423.942 1426.92 422.291 1424.99 422.291C1423.05 422.291 1421.48 423.942 1421.48 425.978C1421.48 428.014 1423.05 429.665 1424.99 429.665Z" fill="#F55F44"/>
<path opacity="0.5" d="M1006.18 387.264C1008.12 387.264 1009.69 385.613 1009.69 383.577C1009.69 381.54 1008.12 379.89 1006.18 379.89C1004.25 379.89 1002.68 381.54 1002.68 383.577C1002.68 385.613 1004.25 387.264 1006.18 387.264Z" fill="#F55F44"/>
<path opacity="0.5" d="M1111.32 599.271C1113.26 599.271 1114.83 597.62 1114.83 595.584C1114.83 593.547 1113.26 591.896 1111.32 591.896C1109.39 591.896 1107.82 593.547 1107.82 595.584C1107.82 597.62 1109.39 599.271 1111.32 599.271Z" fill="#F55F44"/>
<g opacity="0.3">
<path opacity="0.3" d="M1125.15 226.489L1132.35 204.004C1134.83 196.173 1134.85 187.713 1132.41 179.87C1129.97 172.027 1125.2 165.216 1118.8 160.441L1118.86 160.404C1116.02 158.306 1112.92 156.65 1109.63 155.488V155.488L1109.53 155.451L1109.42 155.414C1106.24 154.28 1102.91 153.622 1099.55 153.46C1098.36 153.395 1097.17 153.395 1095.98 153.46C1093.92 153.574 1091.87 153.872 1089.86 154.351C1089.27 154.486 1088.69 154.64 1088.16 154.806C1087.62 154.972 1087.03 155.15 1086.47 155.34C1085.36 155.728 1084.27 156.164 1083.2 156.662C1082.67 156.907 1082.13 157.165 1081.61 157.442C1080.04 158.259 1078.53 159.195 1077.09 160.244C1076.6 160.594 1076.13 160.957 1075.66 161.326C1069.89 165.945 1065.57 172.282 1063.26 179.515L1051.94 214.942C1050.15 220.498 1049.62 226.412 1050.37 232.222C1050.49 233.113 1050.63 233.998 1050.8 234.877C1050.97 235.756 1051.18 236.622 1051.39 237.482C1051.54 238.054 1051.71 238.625 1051.89 239.191C1052.16 240.033 1052.47 240.874 1052.77 241.698C1052.99 242.245 1053.21 242.792 1053.45 243.333C1053.93 244.408 1054.45 245.459 1055.02 246.485C1055.59 247.511 1056.19 248.513 1056.87 249.484C1057.36 250.209 1057.88 250.922 1058.41 251.61C1059.14 252.532 1059.9 253.454 1060.7 254.271C1064.19 257.971 1068.37 260.877 1072.97 262.806V262.806L1073.17 262.892C1073.41 262.431 1073.69 261.986 1073.99 261.559C1075.74 259.033 1078.79 257.257 1081.69 257.921C1081.9 257.97 1082.11 258.038 1082.32 258.105C1083.79 258.652 1085.24 259.629 1086.66 260.109C1087.18 260.353 1087.74 260.475 1088.3 260.468C1088.87 260.46 1089.43 260.323 1089.94 260.066C1092.78 258.474 1091.72 253.454 1094.16 251.254C1094.27 251.152 1094.39 251.058 1094.52 250.971C1094.48 250.926 1094.45 250.879 1094.42 250.83C1096.3 249.601 1098.91 250.418 1101.08 251.211C1103.41 252.077 1106.46 252.661 1108.09 250.651C1109.18 249.275 1109.1 247.179 1110.15 245.735C1111.36 244.076 1113.65 243.892 1115.63 244.187L1115.73 244.217C1119.53 245.864 1123.68 243.13 1123.38 238.822C1123.04 233.076 1124.76 227.662 1125.15 226.489Z" fill="url(#paint4_linear)"/>
</g>
<path opacity="0.2" d="M1087.58 181.242C1089.68 181.242 1091.38 179.451 1091.38 177.242C1091.38 175.032 1089.68 173.241 1087.58 173.241C1085.48 173.241 1083.77 175.032 1083.77 177.242C1083.77 179.451 1085.48 181.242 1087.58 181.242Z" fill="black"/>
<path opacity="0.2" d="M1109.2 188.893C1111.3 188.893 1113 187.102 1113 184.892C1113 182.683 1111.3 180.892 1109.2 180.892C1107.1 180.892 1105.4 182.683 1105.4 184.892C1105.4 187.102 1107.1 188.893 1109.2 188.893Z" fill="black"/>
<path d="M1097.16 197.548C1098.16 194.408 1097.36 191.292 1095.37 190.587C1093.38 189.883 1090.95 191.856 1089.95 194.996C1088.95 198.135 1089.75 201.251 1091.74 201.956C1093.73 202.661 1096.15 200.687 1097.16 197.548Z" fill="#E0E0E0"/>
<path d="M1173.55 184.124C1176.7 184.124 1179.25 181.439 1179.25 178.127C1179.25 174.814 1176.7 172.129 1173.55 172.129C1170.4 172.129 1167.85 174.814 1167.85 178.127C1167.85 181.439 1170.4 184.124 1173.55 184.124Z" fill="white"/>
<path d="M1191.61 171.693C1193.18 171.693 1194.46 170.35 1194.46 168.694C1194.46 167.038 1193.18 165.695 1191.61 165.695C1190.03 165.695 1188.76 167.038 1188.76 168.694C1188.76 170.35 1190.03 171.693 1191.61 171.693Z" fill="white"/>
<path opacity="0.5" d="M1226.33 102.105C1225.85 101.878 1225.47 101.476 1225.25 100.973C1225.04 100.471 1225 99.9032 1225.16 99.3767C1225.18 99.2949 1225.2 99.2104 1225.21 99.1248V99.1248C1225.22 98.8816 1225.16 98.6399 1225.03 98.4356C1224.91 98.2313 1224.72 98.0754 1224.5 97.9911C1224.29 97.9068 1224.05 97.8987 1223.83 97.9679C1223.61 98.0371 1223.41 98.1799 1223.27 98.3751C1223.23 98.4439 1223.19 98.5182 1223.16 98.5963C1222.95 99.1049 1222.57 99.5145 1222.09 99.7469C1221.61 99.9792 1221.07 100.018 1220.56 99.8561C1220.48 99.8309 1220.4 99.8145 1220.32 99.8069V99.8069C1220.09 99.7912 1219.86 99.8545 1219.67 99.9874C1219.47 100.12 1219.32 100.316 1219.24 100.544C1219.16 100.773 1219.16 101.023 1219.22 101.256C1219.29 101.49 1219.42 101.695 1219.61 101.841V101.841C1219.67 101.893 1219.74 101.937 1219.82 101.97C1220.3 102.197 1220.68 102.599 1220.89 103.102C1221.11 103.604 1221.14 104.172 1220.99 104.698C1220.96 104.778 1220.95 104.861 1220.94 104.944V104.944C1220.93 105.188 1220.98 105.431 1221.11 105.636C1221.24 105.842 1221.42 105.999 1221.64 106.084C1221.86 106.169 1222.09 106.177 1222.32 106.108C1222.54 106.039 1222.74 105.896 1222.87 105.7V105.7C1222.92 105.63 1222.96 105.553 1222.99 105.473C1223.21 104.97 1223.59 104.567 1224.07 104.34C1224.54 104.114 1225.08 104.08 1225.59 104.244C1225.66 104.269 1225.74 104.285 1225.82 104.293V104.293C1226.06 104.309 1226.29 104.245 1226.48 104.112C1226.67 103.979 1226.82 103.784 1226.9 103.556C1226.98 103.327 1226.99 103.077 1226.92 102.843C1226.86 102.61 1226.72 102.405 1226.54 102.259C1226.47 102.198 1226.4 102.146 1226.33 102.105V102.105Z" fill="#4D8AF0"/>
<path opacity="0.5" d="M898.058 189.366C897.575 189.144 897.186 188.744 896.966 188.241C896.745 187.738 896.707 187.168 896.86 186.638C896.885 186.556 896.9 186.471 896.907 186.386V186.386C896.922 186.142 896.862 185.901 896.735 185.696C896.609 185.492 896.423 185.336 896.206 185.252C895.989 185.168 895.751 185.16 895.529 185.229C895.307 185.298 895.112 185.441 894.973 185.636V185.636C894.927 185.705 894.887 185.779 894.857 185.857C894.647 186.366 894.267 186.775 893.788 187.008C893.31 187.24 892.767 187.279 892.263 187.117C892.185 187.092 892.105 187.075 892.024 187.068V187.068C891.793 187.052 891.563 187.115 891.369 187.248C891.174 187.381 891.026 187.576 890.946 187.805C890.866 188.034 890.858 188.284 890.924 188.517C890.99 188.751 891.126 188.956 891.311 189.102V189.102C891.376 189.154 891.446 189.197 891.521 189.231C892.004 189.452 892.392 189.853 892.613 190.356C892.834 190.858 892.871 191.429 892.719 191.959C892.695 192.039 892.679 192.122 892.672 192.205V192.205C892.656 192.449 892.715 192.692 892.841 192.897C892.966 193.102 893.152 193.259 893.37 193.344C893.587 193.43 893.826 193.438 894.048 193.369C894.271 193.3 894.467 193.157 894.605 192.961C894.653 192.891 894.693 192.814 894.722 192.734C894.937 192.231 895.319 191.828 895.797 191.601C896.275 191.375 896.815 191.34 897.316 191.504C897.394 191.53 897.474 191.546 897.555 191.554C897.786 191.569 898.016 191.506 898.21 191.373C898.405 191.24 898.553 191.045 898.633 190.816C898.713 190.588 898.721 190.338 898.655 190.104C898.589 189.871 898.453 189.666 898.268 189.52V189.52C898.205 189.459 898.134 189.407 898.058 189.366V189.366Z" fill="#4D8AF0"/>
<g opacity="0.5">
<path opacity="0.5" d="M916.813 36.9913H915.061V47.438H916.813V36.9913Z" fill="#47E6B1"/>
<path opacity="0.5" d="M920.902 43.1364V41.2929H910.972V43.1364H920.902Z" fill="#47E6B1"/>
</g>
<g opacity="0.5">
<path opacity="0.5" d="M1278.96 159.28H1277.21V169.726H1278.96V159.28Z" fill="#47E6B1"/>
<path opacity="0.5" d="M1283.05 165.425V163.581H1273.12V165.425H1283.05Z" fill="#47E6B1"/>
</g>
<path opacity="0.5" d="M959.453 102.13C961.389 102.13 962.958 100.479 962.958 98.4427C962.958 96.4064 961.389 94.7556 959.453 94.7556C957.518 94.7556 955.949 96.4064 955.949 98.4427C955.949 100.479 957.518 102.13 959.453 102.13Z" fill="#F55F44"/>
<path opacity="0.5" d="M1364.76 2.55408C1364.28 2.33252 1363.89 1.93231 1363.67 1.42938C1363.45 0.92645 1363.41 0.355786 1363.56 -0.174361C1363.59 -0.256232 1363.6 -0.340751 1363.61 -0.426314V-0.426314C1363.62 -0.669506 1363.56 -0.911259 1363.44 -1.11555C1363.31 -1.31984 1363.13 -1.47574 1362.91 -1.56002C1362.69 -1.6443 1362.45 -1.65245 1362.23 -1.58325C1362.01 -1.51406 1361.82 -1.37122 1361.68 -1.17602C1361.63 -1.10717 1361.59 -1.03295 1361.56 -0.954796C1361.35 -0.4462 1360.97 -0.0366195 1360.49 0.195749C1360.01 0.428117 1359.47 0.466996 1358.97 0.30496C1358.89 0.279823 1358.81 0.263345 1358.73 0.255797C1358.5 0.240113 1358.27 0.303416 1358.07 0.436281C1357.88 0.569145 1357.73 0.764459 1357.65 0.993119C1357.57 1.22178 1357.56 1.47155 1357.63 1.70522C1357.69 1.93888 1357.83 2.14394 1358.01 2.28984V2.28984C1358.08 2.3422 1358.15 2.38558 1358.22 2.41889C1358.71 2.64045 1359.1 3.04065 1359.32 3.54358C1359.54 4.04651 1359.57 4.61719 1359.42 5.14733C1359.4 5.22726 1359.38 5.30967 1359.38 5.39314V5.39314C1359.36 5.63687 1359.42 5.87962 1359.54 6.08503C1359.67 6.29043 1359.86 6.44745 1360.07 6.53256C1360.29 6.61767 1360.53 6.62629 1360.75 6.55715C1360.97 6.488 1361.17 6.3448 1361.31 6.14899C1361.36 6.07875 1361.4 6.00234 1361.43 5.92162C1361.64 5.41864 1362.02 5.01585 1362.5 4.78939C1362.98 4.56293 1363.52 4.5285 1364.02 4.69259C1364.1 4.71773 1364.18 4.73421 1364.26 4.74175C1364.49 4.75744 1364.72 4.69413 1364.91 4.56127C1365.11 4.42841 1365.26 4.23309 1365.34 4.00443C1365.42 3.77577 1365.42 3.526 1365.36 3.29233C1365.29 3.05867 1365.16 2.85361 1364.97 2.70771V2.70771C1364.91 2.64672 1364.84 2.59504 1364.76 2.55408V2.55408Z" fill="#4D8AF0"/>
<path opacity="0.5" d="M1333.8 277.856C1333.32 277.634 1332.93 277.234 1332.71 276.731C1332.49 276.228 1332.45 275.658 1332.61 275.128C1332.63 275.046 1332.65 274.961 1332.65 274.876V274.876C1332.67 274.632 1332.61 274.391 1332.48 274.186C1332.35 273.982 1332.17 273.826 1331.95 273.742C1331.73 273.658 1331.5 273.649 1331.27 273.719C1331.05 273.788 1330.86 273.931 1330.72 274.126V274.126C1330.67 274.195 1330.63 274.269 1330.6 274.347C1330.39 274.856 1330.01 275.265 1329.53 275.498C1329.06 275.73 1328.51 275.769 1328.01 275.607C1327.93 275.582 1327.85 275.565 1327.77 275.558V275.558C1327.54 275.542 1327.31 275.605 1327.11 275.738C1326.92 275.871 1326.77 276.066 1326.69 276.295C1326.61 276.524 1326.6 276.773 1326.67 277.007C1326.74 277.241 1326.87 277.446 1327.06 277.592V277.592C1327.12 277.644 1327.19 277.687 1327.27 277.721C1327.75 277.942 1328.14 278.343 1328.36 278.845C1328.58 279.348 1328.62 279.919 1328.46 280.449C1328.44 280.529 1328.42 280.612 1328.42 280.695V280.695C1328.4 280.939 1328.46 281.182 1328.59 281.387C1328.71 281.592 1328.9 281.749 1329.12 281.834C1329.33 281.92 1329.57 281.928 1329.79 281.859C1330.02 281.79 1330.21 281.647 1330.35 281.451C1330.4 281.381 1330.44 281.304 1330.47 281.224C1330.68 280.721 1331.06 280.318 1331.54 280.091C1332.02 279.865 1332.56 279.83 1333.06 279.994C1333.14 280.02 1333.22 280.036 1333.3 280.044C1333.53 280.059 1333.76 279.996 1333.96 279.863C1334.15 279.73 1334.3 279.535 1334.38 279.306C1334.46 279.078 1334.47 278.828 1334.4 278.594C1334.33 278.361 1334.2 278.156 1334.01 278.01V278.01C1333.95 277.949 1333.88 277.897 1333.8 277.856V277.856Z" fill="#4D8AF0"/>
<path opacity="0.5" d="M1301.68 74.4521C1301.2 74.2251 1300.82 73.8226 1300.6 73.3202C1300.39 72.8178 1300.35 72.2501 1300.51 71.7236C1300.53 71.6417 1300.55 71.5572 1300.56 71.4717V71.4717C1300.57 71.2285 1300.51 70.9867 1300.38 70.7824C1300.26 70.5781 1300.07 70.4222 1299.85 70.338C1299.64 70.2537 1299.4 70.2455 1299.18 70.3147C1298.96 70.3839 1298.76 70.5268 1298.62 70.722V70.722C1298.58 70.7908 1298.54 70.865 1298.51 70.9432C1298.3 71.4518 1297.92 71.8614 1297.44 72.0937C1296.96 72.3261 1296.42 72.365 1295.91 72.2029C1295.83 72.1778 1295.75 72.1613 1295.67 72.1538V72.1538C1295.44 72.1381 1295.21 72.2014 1295.02 72.3343C1294.82 72.4671 1294.67 72.6624 1294.59 72.8911C1294.51 73.1198 1294.51 73.3695 1294.57 73.6032C1294.64 73.8369 1294.77 74.0419 1294.96 74.1878C1295.02 74.2402 1295.09 74.2836 1295.17 74.3169C1295.65 74.5384 1296.04 74.9386 1296.26 75.4416C1296.48 75.9445 1296.52 76.5152 1296.37 77.0453C1296.34 77.1252 1296.33 77.2077 1296.32 77.2911V77.2911C1296.3 77.5349 1296.36 77.7776 1296.49 77.983C1296.61 78.1884 1296.8 78.3454 1297.02 78.4305C1297.24 78.5157 1297.47 78.5243 1297.7 78.4551C1297.92 78.386 1298.12 78.2428 1298.25 78.047V78.047C1298.3 77.9767 1298.34 77.9003 1298.37 77.8196C1298.59 77.3166 1298.97 76.9138 1299.45 76.6874C1299.92 76.4609 1300.46 76.4265 1300.96 76.5906C1301.04 76.6157 1301.12 76.6322 1301.2 76.6397C1301.43 76.6554 1301.66 76.5921 1301.86 76.4593C1302.05 76.3264 1302.2 76.1311 1302.28 75.9024C1302.36 75.6737 1302.37 75.424 1302.3 75.1903C1302.24 74.9567 1302.1 74.7516 1301.92 74.6057V74.6057C1301.84 74.5423 1301.76 74.4905 1301.68 74.4521V74.4521Z" fill="#4D8AF0"/>
<g opacity="0.5">
<path opacity="0.5" d="M1352.56 125.481H1350.81V135.928H1352.56V125.481Z" fill="#47E6B1"/>
<path opacity="0.5" d="M1356.65 131.626V129.783H1346.72V131.626H1356.65Z" fill="#47E6B1"/>
</g>
<path opacity="0.5" d="M1395.2 190.62C1397.13 190.62 1398.7 188.969 1398.7 186.933C1398.7 184.896 1397.13 183.245 1395.2 183.245C1393.26 183.245 1391.69 184.896 1391.69 186.933C1391.69 188.969 1393.26 190.62 1395.2 190.62Z" fill="#F55F44"/>
</g>
<defs>
<linearGradient id="paint0_linear" x1="-27423.8" y1="211916" x2="-20662.9" y2="192838" gradientUnits="userSpaceOnUse">
<stop stop-color="#808080" stop-opacity="0.25"/>
<stop offset="0.54" stop-color="#808080" stop-opacity="0.12"/>
<stop offset="1" stop-color="#808080" stop-opacity="0.1"/>
</linearGradient>
<linearGradient id="paint1_linear" x1="-27575.7" y1="211419" x2="-20814.8" y2="192341" gradientUnits="userSpaceOnUse">
<stop stop-color="#808080" stop-opacity="0.25"/>
<stop offset="0.54" stop-color="#808080" stop-opacity="0.12"/>
<stop offset="1" stop-color="#808080" stop-opacity="0.1"/>
</linearGradient>
<linearGradient id="paint2_linear" x1="-27139.9" y1="211508" x2="-20379" y2="192429" gradientUnits="userSpaceOnUse">
<stop stop-color="#808080" stop-opacity="0.25"/>
<stop offset="0.54" stop-color="#808080" stop-opacity="0.12"/>
<stop offset="1" stop-color="#808080" stop-opacity="0.1"/>
</linearGradient>
<linearGradient id="paint3_linear" x1="-26508" y1="211925" x2="-19747.1" y2="192847" gradientUnits="userSpaceOnUse">
<stop stop-color="#808080" stop-opacity="0.25"/>
<stop offset="0.54" stop-color="#808080" stop-opacity="0.12"/>
<stop offset="1" stop-color="#808080" stop-opacity="0.1"/>
</linearGradient>
<linearGradient id="paint4_linear" x1="-26659.9" y1="211428" x2="-19899" y2="192350" gradientUnits="userSpaceOnUse">
<stop stop-color="#808080" stop-opacity="0.25"/>
<stop offset="0.54" stop-color="#808080" stop-opacity="0.12"/>
<stop offset="1" stop-color="#808080" stop-opacity="0.1"/>
</linearGradient>
<clipPath id="clip0">
<rect width="926.397" height="881.826" fill="white" transform="translate(-65 -130.763)"/>
</clipPath>
<clipPath id="clip1">
<rect width="926.397" height="881.826" fill="white" transform="translate(850.809 -121.461)"/>
</clipPath>
</defs>
</svg>
