<svg width="262" height="104" viewBox="0 0 262 104" fill="none" xmlns="http://www.w3.org/2000/svg">
<path opacity="0.5" d="M12.8627 0L226.119 29.7881L262 94.1035L38.5889 75.1474L12.8627 0Z" fill="#6FCF97"/>
<path opacity="0.5" d="M0 9.47778L213.256 39.2659L249.137 103.581L25.7261 84.6252L0 9.47778Z" fill="#6FCF97"/>
<path d="M80.4978 49.335L76.0138 48.9559L75.6221 53.5878L73.2867 53.3903L74.2451 42.0558L81.625 42.6798L81.4651 44.5715L76.4206 44.1449L76.1731 47.072L80.6571 47.4511L80.4978 49.335ZM91.9886 50.7928L90.1281 50.6354L89.7772 54.7847L87.4418 54.5872L88.4002 43.2527L92.6118 43.6088C93.9507 43.722 94.9583 44.1077 95.6344 44.766C96.3105 45.4243 96.6025 46.2983 96.5103 47.3882C96.4449 48.1615 96.2216 48.7934 95.8404 49.2838C95.4648 49.7695 94.9241 50.1367 94.2184 50.3854L96.2789 55.2247L96.2697 55.3337L93.763 55.1217L91.9886 50.7928ZM90.288 48.7438L92.1719 48.9031C92.7584 48.9526 93.225 48.8431 93.5718 48.5745C93.919 48.3007 94.1148 47.9017 94.1591 47.3776C94.2043 46.843 94.0868 46.4097 93.8064 46.0776C93.5313 45.7459 93.0798 45.5536 92.4518 45.5005L90.5757 45.3418L90.288 48.7438ZM112.813 51.2834C112.719 52.3993 112.439 53.3609 111.973 54.1683C111.508 54.9757 110.887 55.5766 110.111 55.9709C109.341 56.3658 108.481 56.523 107.531 56.4427C106.592 56.3633 105.773 56.0667 105.074 55.5528C104.375 55.039 103.859 54.3472 103.525 53.4774C103.191 52.6024 103.068 51.6198 103.155 50.5295L103.202 49.969C103.296 48.8532 103.579 47.8892 104.05 47.0771C104.527 46.2602 105.15 45.6569 105.92 45.2672C106.696 44.8729 107.556 44.7156 108.5 44.7955C109.445 44.8753 110.264 45.1746 110.957 45.6931C111.656 46.207 112.169 46.9063 112.497 47.7913C112.83 48.6714 112.95 49.6668 112.856 50.7774L112.813 51.2834ZM110.49 50.5695C110.59 49.3811 110.454 48.4601 110.081 47.8065C109.707 47.1529 109.126 46.7928 108.337 46.7261C107.554 46.6598 106.923 46.9149 106.446 47.4913C105.969 48.0625 105.678 48.937 105.573 50.1146L105.526 50.6673C105.429 51.8247 105.565 52.7405 105.937 53.4148C106.309 54.0891 106.894 54.4601 107.693 54.5277C108.477 54.5939 109.105 54.3387 109.577 53.7618C110.05 53.1798 110.338 52.2999 110.443 51.1223L110.49 50.5695ZM128.69 58.075L126.355 57.8776L122.439 50.0354L121.809 57.4931L119.473 57.2957L120.432 45.9611L122.767 46.1586L126.689 54.017L127.321 46.5437L129.649 46.7405L128.69 58.075ZM145.247 49.9647L141.775 49.6711L140.977 59.114L138.642 58.9165L139.44 49.4736L136.015 49.184L136.175 47.2923L145.407 48.073L145.247 49.9647ZM158.443 55.6436L153.959 55.2644L153.703 58.3005L158.965 58.7454L158.807 60.6216L151.209 59.9791L152.167 48.6446L159.749 49.2857L159.589 51.1774L154.343 50.7337L154.114 53.435L158.598 53.8142L158.443 55.6436ZM174.814 61.9751L172.479 61.7777L168.563 53.9355L167.933 61.3932L165.597 61.1958L166.556 49.8612L168.891 50.0587L172.813 57.9171L173.445 50.4438L175.773 50.6406L174.814 61.9751ZM182.275 62.6059L183.233 51.2714L186.721 51.5663C187.717 51.6505 188.588 51.9516 189.334 52.4693C190.085 52.9824 190.646 53.6727 191.017 54.5404C191.388 55.4029 191.529 56.3609 191.44 57.4144L191.396 57.936C191.307 58.9895 191.01 59.9078 190.504 60.691C190.004 61.4745 189.341 62.0587 188.514 62.4435C187.687 62.8283 186.777 62.9814 185.786 62.9028L182.275 62.6059ZM185.409 53.3606L184.769 60.9273L185.898 61.0227C186.811 61.1 187.534 60.8606 188.067 60.3046C188.6 59.7486 188.919 58.9157 189.023 57.8059L189.074 57.2065C189.172 56.0544 189.007 55.1623 188.579 54.5303C188.152 53.8931 187.479 53.5356 186.561 53.458L185.409 53.3606Z" fill="#1C1C1C"/>
</svg>
