<svg width="186" height="37" viewBox="0 0 186 37" fill="none" xmlns="http://www.w3.org/2000/svg">
<rect width="186" height="37" fill="#6FCF97"/>
<g filter="url(#filter0_d)">
<path d="M47.3693 18.3516H42.7277V23H41.8869V13.0469H48.0529V13.7646H42.7277V17.6338H47.3693V18.3516ZM58.2406 18.8574H55.349V23H54.5014V13.0469H57.7348C58.7966 13.0469 59.626 13.3044 60.223 13.8193C60.8201 14.3343 61.1186 15.0544 61.1186 15.9795C61.1186 16.6175 60.9317 17.1803 60.558 17.668C60.1843 18.1556 59.683 18.4928 59.0541 18.6797L61.5424 22.9111V23H60.6469L58.2406 18.8574ZM55.349 18.1396H57.9262C58.6326 18.1396 59.1999 17.9391 59.6283 17.5381C60.0567 17.137 60.2709 16.6175 60.2709 15.9795C60.2709 15.2777 60.0476 14.7331 59.601 14.3457C59.1544 13.9583 58.5277 13.7646 57.7211 13.7646H55.349V18.1396ZM75.5241 18.5635C75.5241 19.4795 75.3646 20.2839 75.0455 20.9766C74.7311 21.6693 74.2799 22.2025 73.692 22.5762C73.1041 22.9499 72.4251 23.1367 71.6549 23.1367C70.4928 23.1367 69.554 22.722 68.8385 21.8926C68.123 21.0586 67.7653 19.9352 67.7653 18.5225V17.4971C67.7653 16.5902 67.9248 15.7881 68.2438 15.0908C68.5674 14.389 69.0231 13.8512 69.611 13.4775C70.1989 13.0993 70.8756 12.9102 71.6413 12.9102C72.4069 12.9102 73.0814 13.0947 73.6647 13.4639C74.2526 13.833 74.706 14.3548 75.025 15.0293C75.3441 15.7038 75.5104 16.4854 75.5241 17.374V18.5635ZM74.6832 17.4834C74.6832 16.2848 74.4121 15.346 73.8698 14.667C73.3274 13.988 72.5846 13.6484 71.6413 13.6484C70.7161 13.6484 69.9778 13.9902 69.4264 14.6738C68.8795 15.3529 68.6061 16.3031 68.6061 17.5244V18.5635C68.6061 19.7438 68.8795 20.6803 69.4264 21.373C69.9733 22.0612 70.7161 22.4053 71.6549 22.4053C72.6074 22.4053 73.3502 22.0658 73.8834 21.3867C74.4166 20.7031 74.6832 19.7529 74.6832 18.5361V17.4834ZM89.8134 23H88.9725L83.2509 14.4824V23H82.4032V13.0469H83.2509L88.9794 21.5713V13.0469H89.8134V23ZM103.651 13.7646H100.24V23H99.3995V13.7646H95.9952V13.0469H103.651V13.7646ZM115.521 18.2285H110.866V22.2891H116.218V23H110.025V13.0469H116.184V13.7646H110.866V17.5176H115.521V18.2285ZM130.166 23H129.325L123.603 14.4824V23H122.755V13.0469H123.603L129.332 21.5713V13.0469H130.166V23ZM137.455 23V13.0469H140.237C141.053 13.0469 141.784 13.2337 142.431 13.6074C143.079 13.9766 143.582 14.5075 143.942 15.2002C144.307 15.8929 144.489 16.6813 144.489 17.5654V18.4814C144.489 19.3701 144.309 20.1585 143.949 20.8467C143.589 21.5348 143.081 22.0658 142.425 22.4395C141.773 22.8132 141.023 23 140.176 23H137.455ZM138.296 13.7646V22.2891H140.182C141.231 22.2891 142.071 21.9427 142.705 21.25C143.338 20.5527 143.655 19.6117 143.655 18.4268V17.5518C143.655 16.4079 143.343 15.4919 142.719 14.8037C142.094 14.1156 141.272 13.7692 140.251 13.7646H138.296Z" fill="black"/>
</g>
<g opacity="0.79">
<path opacity="0.3" d="M37.5 0H65.5L42.5 140L27.5 157H10.5L15 83L30 11L37.5 0Z" fill="#1A1F1C"/>
<path opacity="0.3" d="M87.5 0H112L121 17L91.5 141.5L81.5 157H60.5L87.5 0Z" fill="#1A1F1C"/>
<path opacity="0.3" d="M132.5 0H162L168.5 81L140 157H110.5L121.5 78L132.5 0Z" fill="#1A1F1C"/>
</g>
<defs>
<filter id="filter0_d" x="37.887" y="12.9102" width="110.602" height="18.2266" filterUnits="userSpaceOnUse" color-interpolation-filters="sRGB">
<feFlood flood-opacity="0" result="BackgroundImageFix"/>
<feColorMatrix in="SourceAlpha" type="matrix" values="0 0 0 0 0 0 0 0 0 0 0 0 0 0 0 0 0 0 127 0"/>
<feOffset dy="4"/>
<feGaussianBlur stdDeviation="2"/>
<feColorMatrix type="matrix" values="0 0 0 0 0 0 0 0 0 0 0 0 0 0 0 0 0 0 0.25 0"/>
<feBlend mode="normal" in2="BackgroundImageFix" result="effect1_dropShadow"/>
<feBlend mode="normal" in="SourceGraphic" in2="effect1_dropShadow" result="shape"/>
</filter>
</defs>
</svg>
