<svg width="304" height="56" viewBox="0 0 304 56" fill="none" xmlns="http://www.w3.org/2000/svg">
<path d="M23.6434 30.0547H10.1434V44H3.11218V9.875H25.3309V15.5703H10.1434V24.3828H23.6434V30.0547ZM49.7219 31.5078H44.1203V44H37.0891V9.875H49.7687C53.8 9.875 56.9094 10.7734 59.0969 12.5703C61.2844 14.3672 62.3781 16.9062 62.3781 20.1875C62.3781 22.5156 61.8703 24.4609 60.8547 26.0234C59.8547 27.5703 58.3312 28.8047 56.2844 29.7266L63.6672 43.6719V44H56.1203L49.7219 31.5078ZM44.1203 25.8125H49.7922C51.5578 25.8125 52.925 25.3672 53.8937 24.4766C54.8625 23.5703 55.3469 22.3281 55.3469 20.75C55.3469 19.1406 54.8859 17.875 53.9641 16.9531C53.0578 16.0312 51.6594 15.5703 49.7687 15.5703H44.1203V25.8125ZM103.457 27.7109C103.457 31.0703 102.863 34.0156 101.675 36.5469C100.488 39.0781 98.7847 41.0312 96.5659 42.4062C94.3628 43.7812 91.8316 44.4688 88.9722 44.4688C86.1441 44.4688 83.6206 43.7891 81.4019 42.4297C79.1831 41.0703 77.4644 39.1328 76.2456 36.6172C75.0269 34.0859 74.4097 31.1797 74.3941 27.8984V26.2109C74.3941 22.8516 74.9956 19.8984 76.1987 17.3516C77.4175 14.7891 79.1284 12.8281 81.3316 11.4688C83.5503 10.0937 86.0816 9.40625 88.9253 9.40625C91.7691 9.40625 94.2925 10.0937 96.4956 11.4688C98.7144 12.8281 100.425 14.7891 101.628 17.3516C102.847 19.8984 103.457 22.8438 103.457 26.1875V27.7109ZM96.3316 26.1641C96.3316 22.5859 95.6909 19.8672 94.4097 18.0078C93.1284 16.1484 91.3003 15.2188 88.9253 15.2188C86.5659 15.2188 84.7456 16.1406 83.4644 17.9844C82.1831 19.8125 81.5347 22.5 81.5191 26.0469V27.7109C81.5191 31.1953 82.1597 33.8984 83.4409 35.8203C84.7222 37.7422 86.5659 38.7031 88.9722 38.7031C91.3316 38.7031 93.1441 37.7812 94.4097 35.9375C95.6753 34.0781 96.3159 31.375 96.3316 27.8281V26.1641ZM143.996 44H136.965L123.277 21.5469V44H116.246V9.875H123.277L136.988 32.375V9.875H143.996V44ZM182.801 15.5703H172.348V44H165.317V15.5703H155.004V9.875H182.801V15.5703ZM215.043 29.2109H201.543V38.3516H217.387V44H194.512V9.875H217.34V15.5703H201.543V23.7031H215.043V29.2109ZM256.942 44H249.911L236.223 21.5469V44H229.192V9.875H236.223L249.934 32.375V9.875H256.942V44ZM270.763 44V9.875H281.263C284.263 9.875 286.943 10.5547 289.302 11.9141C291.677 13.2578 293.528 15.1797 294.857 17.6797C296.185 20.1641 296.849 22.9922 296.849 26.1641V27.7344C296.849 30.9062 296.193 33.7266 294.88 36.1953C293.583 38.6641 291.747 40.5781 289.372 41.9375C286.997 43.2969 284.318 43.9844 281.333 44H270.763ZM277.794 15.5703V38.3516H281.193C283.943 38.3516 286.044 37.4531 287.497 35.6562C288.95 33.8594 289.693 31.2891 289.724 27.9453V26.1406C289.724 22.6719 289.005 20.0469 287.568 18.2656C286.13 16.4688 284.028 15.5703 281.263 15.5703H277.794Z" fill="#6FCF97"/>
<path d="M25.6434 30.0547H12.1434V44H5.11218V9.875H27.3309V15.5703H12.1434V24.3828H25.6434V30.0547ZM51.7219 31.5078H46.1203V44H39.0891V9.875H51.7687C55.8 9.875 58.9094 10.7734 61.0969 12.5703C63.2844 14.3672 64.3781 16.9062 64.3781 20.1875C64.3781 22.5156 63.8703 24.4609 62.8547 26.0234C61.8547 27.5703 60.3312 28.8047 58.2844 29.7266L65.6672 43.6719V44H58.1203L51.7219 31.5078ZM46.1203 25.8125H51.7922C53.5578 25.8125 54.925 25.3672 55.8937 24.4766C56.8625 23.5703 57.3469 22.3281 57.3469 20.75C57.3469 19.1406 56.8859 17.875 55.9641 16.9531C55.0578 16.0312 53.6594 15.5703 51.7687 15.5703H46.1203V25.8125ZM105.457 27.7109C105.457 31.0703 104.863 34.0156 103.675 36.5469C102.488 39.0781 100.785 41.0312 98.5659 42.4062C96.3628 43.7812 93.8316 44.4688 90.9722 44.4688C88.1441 44.4688 85.6206 43.7891 83.4019 42.4297C81.1831 41.0703 79.4644 39.1328 78.2456 36.6172C77.0269 34.0859 76.4097 31.1797 76.3941 27.8984V26.2109C76.3941 22.8516 76.9956 19.8984 78.1987 17.3516C79.4175 14.7891 81.1284 12.8281 83.3316 11.4688C85.5503 10.0937 88.0816 9.40625 90.9253 9.40625C93.7691 9.40625 96.2925 10.0937 98.4956 11.4688C100.714 12.8281 102.425 14.7891 103.628 17.3516C104.847 19.8984 105.457 22.8438 105.457 26.1875V27.7109ZM98.3316 26.1641C98.3316 22.5859 97.6909 19.8672 96.4097 18.0078C95.1284 16.1484 93.3003 15.2188 90.9253 15.2188C88.5659 15.2188 86.7456 16.1406 85.4644 17.9844C84.1831 19.8125 83.5347 22.5 83.5191 26.0469V27.7109C83.5191 31.1953 84.1597 33.8984 85.4409 35.8203C86.7222 37.7422 88.5659 38.7031 90.9722 38.7031C93.3316 38.7031 95.1441 37.7812 96.4097 35.9375C97.6753 34.0781 98.3159 31.375 98.3316 27.8281V26.1641ZM145.996 44H138.965L125.277 21.5469V44H118.246V9.875H125.277L138.988 32.375V9.875H145.996V44ZM184.801 15.5703H174.348V44H167.317V15.5703H157.004V9.875H184.801V15.5703ZM217.043 29.2109H203.543V38.3516H219.387V44H196.512V9.875H219.34V15.5703H203.543V23.7031H217.043V29.2109ZM258.942 44H251.911L238.223 21.5469V44H231.192V9.875H238.223L251.934 32.375V9.875H258.942V44ZM272.763 44V9.875H283.263C286.263 9.875 288.943 10.5547 291.302 11.9141C293.677 13.2578 295.528 15.1797 296.857 17.6797C298.185 20.1641 298.849 22.9922 298.849 26.1641V27.7344C298.849 30.9062 298.193 33.7266 296.88 36.1953C295.583 38.6641 293.747 40.5781 291.372 41.9375C288.997 43.2969 286.318 43.9844 283.333 44H272.763ZM279.794 15.5703V38.3516H283.193C285.943 38.3516 288.044 37.4531 289.497 35.6562C290.95 33.8594 291.693 31.2891 291.724 27.9453V26.1406C291.724 22.6719 291.005 20.0469 289.568 18.2656C288.13 16.4688 286.028 15.5703 283.263 15.5703H279.794Z" fill="#FEC2BE"/>
<path d="M28.6434 30.0547H15.1434V44H8.11218V9.875H30.3309V15.5703H15.1434V24.3828H28.6434V30.0547ZM54.7219 31.5078H49.1203V44H42.0891V9.875H54.7687C58.8 9.875 61.9094 10.7734 64.0969 12.5703C66.2844 14.3672 67.3781 16.9062 67.3781 20.1875C67.3781 22.5156 66.8703 24.4609 65.8547 26.0234C64.8547 27.5703 63.3312 28.8047 61.2844 29.7266L68.6672 43.6719V44H61.1203L54.7219 31.5078ZM49.1203 25.8125H54.7922C56.5578 25.8125 57.925 25.3672 58.8937 24.4766C59.8625 23.5703 60.3469 22.3281 60.3469 20.75C60.3469 19.1406 59.8859 17.875 58.9641 16.9531C58.0578 16.0312 56.6594 15.5703 54.7687 15.5703H49.1203V25.8125ZM108.457 27.7109C108.457 31.0703 107.863 34.0156 106.675 36.5469C105.488 39.0781 103.785 41.0312 101.566 42.4062C99.3628 43.7812 96.8316 44.4688 93.9722 44.4688C91.1441 44.4688 88.6206 43.7891 86.4019 42.4297C84.1831 41.0703 82.4644 39.1328 81.2456 36.6172C80.0269 34.0859 79.4097 31.1797 79.3941 27.8984V26.2109C79.3941 22.8516 79.9956 19.8984 81.1987 17.3516C82.4175 14.7891 84.1284 12.8281 86.3316 11.4688C88.5503 10.0937 91.0816 9.40625 93.9253 9.40625C96.7691 9.40625 99.2925 10.0937 101.496 11.4688C103.714 12.8281 105.425 14.7891 106.628 17.3516C107.847 19.8984 108.457 22.8438 108.457 26.1875V27.7109ZM101.332 26.1641C101.332 22.5859 100.691 19.8672 99.4097 18.0078C98.1284 16.1484 96.3003 15.2188 93.9253 15.2188C91.5659 15.2188 89.7456 16.1406 88.4644 17.9844C87.1831 19.8125 86.5347 22.5 86.5191 26.0469V27.7109C86.5191 31.1953 87.1597 33.8984 88.4409 35.8203C89.7222 37.7422 91.5659 38.7031 93.9722 38.7031C96.3316 38.7031 98.1441 37.7812 99.4097 35.9375C100.675 34.0781 101.316 31.375 101.332 27.8281V26.1641ZM148.996 44H141.965L128.277 21.5469V44H121.246V9.875H128.277L141.988 32.375V9.875H148.996V44ZM187.801 15.5703H177.348V44H170.317V15.5703H160.004V9.875H187.801V15.5703ZM220.043 29.2109H206.543V38.3516H222.387V44H199.512V9.875H222.34V15.5703H206.543V23.7031H220.043V29.2109ZM261.942 44H254.911L241.223 21.5469V44H234.192V9.875H241.223L254.934 32.375V9.875H261.942V44ZM275.763 44V9.875H286.263C289.263 9.875 291.943 10.5547 294.302 11.9141C296.677 13.2578 298.528 15.1797 299.857 17.6797C301.185 20.1641 301.849 22.9922 301.849 26.1641V27.7344C301.849 30.9062 301.193 33.7266 299.88 36.1953C298.583 38.6641 296.747 40.5781 294.372 41.9375C291.997 43.2969 289.318 43.9844 286.333 44H275.763ZM282.794 15.5703V38.3516H286.193C288.943 38.3516 291.044 37.4531 292.497 35.6562C293.95 33.8594 294.693 31.2891 294.724 27.9453V26.1406C294.724 22.6719 294.005 20.0469 292.568 18.2656C291.13 16.4688 289.028 15.5703 286.263 15.5703H282.794Z" fill="#F2F2F2"/>
</svg>
