<svg width="23" height="23" viewBox="0 0 23 23" fill="none" xmlns="http://www.w3.org/2000/svg">
<path d="M11.5 0C5.1491 0 0 5.1491 0 11.5C0 17.8516 5.1491 23 11.5 23C17.8509 23 23 17.8516 23 11.5C22.9999 5.1491 17.8508 0 11.5 0ZM14.7214 20.2608C14.6552 19.3609 14.5812 18.2461 14.5769 17.7948C14.5481 17.4483 14.5107 16.5672 13.6742 16.0044C16.9955 15.7262 18.576 13.8906 18.6896 11.4648C18.7845 10.0834 18.2353 8.86864 17.26 7.88831C17.3096 6.83968 17.2284 5.59691 17.1609 5.05073C16.4119 4.83512 14.6654 5.75726 14.1773 6.15186C13.148 5.75221 10.6289 5.61207 9.09792 6.15186C8.01258 5.38856 6.77707 4.91707 6.10362 5.0486C5.48188 6.42645 5.88153 7.72883 6.00296 7.88404C5.20224 8.61576 4.08532 9.51636 4.38865 11.403C4.87522 14.1695 6.8216 15.6617 9.95532 16.0267C9.28692 16.1633 9.17402 16.6621 9.11797 16.8785C7.01345 17.7467 6.41192 16.3423 6.14594 15.9764C5.26264 14.8832 4.46981 15.2002 4.42094 15.2174C4.37349 15.2346 4.33757 15.3036 4.34262 15.3367C4.38715 15.5724 4.86804 15.8118 4.89172 15.8312C5.54362 16.317 5.78513 17.1947 5.93388 17.4448C6.86897 18.9822 9.04249 18.3447 9.06334 18.3576C9.06476 18.492 9.04826 19.6233 9.03531 20.5038C5.07221 19.4213 2.15623 15.806 2.15623 11.5C2.15623 6.33937 6.33937 2.15631 11.4999 2.15631C16.6605 2.15631 20.8437 6.33937 20.8437 11.5C20.8437 15.5271 18.2922 18.9476 14.7214 20.2608Z" fill="#6FCF97"/>
</svg>
