<svg width="138" height="261" viewBox="0 0 138 261" fill="none" xmlns="http://www.w3.org/2000/svg">
<g opacity="0.9">
<path d="M43.5594 209.461H94.9366C94.9366 210.859 94.661 212.244 94.1256 213.535C93.5901 214.827 92.8054 216.001 91.816 216.989C90.8267 217.978 89.6522 218.762 88.3596 219.297C87.0669 219.832 85.6815 220.108 84.2824 220.108H54.2137C52.8145 220.108 51.4291 219.832 50.1365 219.297C48.8438 218.762 47.6693 217.978 46.68 216.989C45.6907 216.001 44.9059 214.827 44.3705 213.535C43.835 212.244 43.5594 210.859 43.5594 209.461Z" fill="#ECF2FA"/>
<path d="M95.1543 210.355C95.0411 212.168 94.4655 213.922 93.4823 215.45C92.4991 216.978 91.1409 218.229 89.5371 219.085C88.9035 219.388 88.2405 219.625 87.5585 219.793L87.5948 219.697C87.8243 219.044 87.8962 218.346 87.8046 217.661C87.7129 216.975 87.4604 216.32 87.0675 215.751C86.6747 215.181 86.1526 214.712 85.544 214.383C84.9353 214.053 84.2573 213.872 83.5652 213.854L44.7926 212.747C44.5396 211.963 44.38 211.152 44.3171 210.331C44.6014 210.371 44.8883 210.391 45.1754 210.391H58.7229V211.337H61.5637V210.391H68.817C68.7404 210.556 68.6558 210.721 68.5792 210.886L79.3382 210.878V210.403H94.3766C94.6366 210.404 94.8964 210.388 95.1543 210.355Z" fill="#8BBACC"/>
<path d="M51.373 210.882H50.426V219.399H51.373V210.882Z" fill="#274B5B"/>
<path opacity="0.2" d="M52.0821 210.882H51.1351V218.215H52.0821V210.882Z" fill="#274B5B"/>
<path opacity="0.2" d="M58.0015 210.882H57.0546V218.215H58.0015V210.882Z" fill="#274B5B"/>
<path opacity="0.2" d="M69.8404 210.882H68.8934V218.215H69.8404V210.882Z" fill="#274B5B"/>
<path opacity="0.2" d="M75.7599 210.882H74.813V218.215H75.7599V210.882Z" fill="#274B5B"/>
<path opacity="0.2" d="M81.6794 210.882H80.7324V218.215H81.6794V210.882Z" fill="#274B5B"/>
<path opacity="0.3" d="M79.7854 210.882H78.8385V218.215H79.7854V210.882Z" fill="white"/>
<path opacity="0.3" d="M74.1038 210.882H73.1569V218.215H74.1038V210.882Z" fill="white"/>
<path opacity="0.3" d="M68.1843 210.882H67.2373V218.215H68.1843V210.882Z" fill="white"/>
<path opacity="0.3" d="M62.2648 210.882H61.3179V218.215H62.2648V210.882Z" fill="white"/>
<path opacity="0.3" d="M56.3454 210.882H55.3984V218.215H56.3454V210.882Z" fill="white"/>
<path opacity="0.3" d="M50.426 210.882H49.479V218.215H50.426V210.882Z" fill="white"/>
<path opacity="0.2" d="M63.9209 210.882H62.974V218.215H63.9209V210.882Z" fill="#274B5B"/>
<path d="M57.252 210.882H56.3051V219.399H57.252V210.882Z" fill="#274B5B"/>
<path d="M63.1353 210.882H62.1884V219.399H63.1353V210.882Z" fill="#274B5B"/>
<path d="M69.0143 210.882H68.0674V219.399H69.0143V210.882Z" fill="#274B5B"/>
<path d="M80.7726 210.882H79.8257V219.399H80.7726V210.882Z" fill="#274B5B"/>
<path d="M86.6518 210.882H85.7048V219.399H86.6518V210.882Z" fill="#274B5B"/>
<path d="M74.8895 210.882H73.9425V219.399H74.8895V210.882Z" fill="#274B5B"/>
<path d="M34.5696 199.285C34.5696 199.285 15.2277 223.357 12.6044 257.113C12.5794 257.455 12.436 257.779 12.1988 258.027C11.9616 258.276 11.6454 258.435 11.3041 258.476C10.9628 258.517 10.6177 258.439 10.3279 258.254C10.038 258.07 9.82147 257.79 9.71519 257.463C3.08654 237.301 -10.9888 179.011 32.9175 143.451" fill="#6FCF97"/>
<path d="M12.3182 259.118C12.4168 259.435 12.6199 259.709 12.8945 259.895C12.7041 260.023 12.4866 260.104 12.2592 260.134C12.0318 260.163 11.8007 260.139 11.5842 260.063C11.3676 259.988 11.1716 259.863 11.0116 259.699C10.8516 259.535 10.7319 259.336 10.6621 259.118C4.03344 238.956 -10.0419 180.666 33.8644 145.106L33.9047 146.447C-8.03514 182.115 5.77421 239.21 12.3182 259.118Z" fill="#F6DF9E"/>
<path opacity="0.8" d="M7.99053 251.323C7.8777 241.964 10.2672 232.159 13.3982 223.377C15.0101 218.883 16.7992 214.659 18.5601 210.894C24.0754 199.139 26.645 186.219 26.0471 173.249C25.7005 165.743 25.4184 157.323 25.4184 149.826C28.8879 145.533 27.7072 145.147 32.446 141.309L34.1022 197.143C34.1022 197.143 14.7602 221.215 12.137 254.971C12.1256 255.178 12.0693 255.381 11.9719 255.564C11.8745 255.748 11.7383 255.908 11.5728 256.034" fill="#1B5A6E"/>
<path d="M7.92605 219.632C7.76187 219.632 7.60138 219.584 7.46487 219.492C7.32836 219.401 7.22196 219.272 7.15913 219.12C7.0963 218.969 7.07987 218.802 7.1119 218.641C7.14393 218.48 7.22299 218.332 7.33908 218.216C7.45517 218.1 7.60308 218.021 7.7641 217.989C7.92512 217.957 8.09203 217.974 8.24371 218.036C8.39539 218.099 8.52504 218.206 8.61625 218.342C8.70746 218.478 8.75614 218.639 8.75614 218.803C8.75614 219.023 8.66869 219.234 8.51301 219.389C8.35734 219.545 8.1462 219.632 7.92605 219.632ZM7.92605 218.448C7.85591 218.448 7.78735 218.469 7.72904 218.508C7.67072 218.547 7.62527 218.602 7.59843 218.667C7.57159 218.732 7.56458 218.803 7.57826 218.872C7.59194 218.941 7.62571 219.004 7.6753 219.053C7.72489 219.103 7.78808 219.137 7.85687 219.15C7.92565 219.164 7.99695 219.157 8.06175 219.13C8.12654 219.103 8.18192 219.058 8.22089 219C8.25985 218.941 8.28065 218.873 8.28065 218.803C8.27959 218.71 8.24176 218.62 8.17537 218.555C8.10899 218.489 8.0194 218.452 7.92605 218.452V218.448Z" fill="#274B5B"/>
<path opacity="0.2" d="M7.9259 220.345C7.62145 220.345 7.32384 220.255 7.0707 220.086C6.81757 219.917 6.62027 219.677 6.50377 219.396C6.38726 219.114 6.35678 218.805 6.41617 218.507C6.47557 218.208 6.62217 217.934 6.83745 217.719C7.05272 217.504 7.327 217.358 7.6256 217.298C7.92419 217.239 8.23369 217.269 8.51496 217.386C8.79623 217.502 9.03663 217.699 9.20578 217.952C9.37492 218.205 9.4652 218.503 9.4652 218.807C9.4652 219.215 9.30302 219.606 9.01435 219.895C8.72567 220.183 8.33414 220.345 7.9259 220.345ZM7.9259 218.215C7.80874 218.215 7.69422 218.25 7.59681 218.315C7.4994 218.38 7.42347 218.472 7.37864 218.58C7.3338 218.689 7.32207 218.808 7.34493 218.922C7.36778 219.037 7.4242 219.143 7.50704 219.225C7.58989 219.308 7.69543 219.365 7.81033 219.387C7.92524 219.41 8.04434 219.399 8.15258 219.354C8.26082 219.309 8.35333 219.233 8.41842 219.136C8.4835 219.038 8.51824 218.924 8.51824 218.807C8.51824 218.729 8.50293 218.652 8.47316 218.58C8.44339 218.509 8.39975 218.443 8.34475 218.388C8.28974 218.333 8.22445 218.29 8.15258 218.26C8.08071 218.23 8.00368 218.215 7.9259 218.215Z" fill="#274B5B"/>
<path d="M11.2383 189.114C11.0741 189.114 10.9136 189.065 10.7771 188.974C10.6406 188.883 10.5342 188.753 10.4714 188.602C10.4086 188.45 10.3921 188.283 10.4242 188.122C10.4562 187.962 10.5352 187.814 10.6513 187.698C10.7674 187.582 10.9153 187.503 11.0764 187.471C11.2374 187.439 11.4043 187.455 11.556 187.518C11.7076 187.581 11.8373 187.687 11.9285 187.823C12.0197 187.96 12.0684 188.12 12.0684 188.284C12.0684 188.504 11.9809 188.715 11.8253 188.871C11.6696 189.026 11.4584 189.114 11.2383 189.114ZM11.2383 187.93C11.1682 187.93 11.0996 187.951 11.0413 187.99C10.983 188.029 10.9375 188.084 10.9107 188.149C10.8838 188.213 10.8768 188.285 10.8905 188.353C10.9042 188.422 10.938 188.485 10.9876 188.535C11.0371 188.584 11.1003 188.618 11.1691 188.632C11.2379 188.646 11.3092 188.639 11.374 188.612C11.4388 188.585 11.4942 188.539 11.5331 188.481C11.5721 188.423 11.5929 188.354 11.5929 188.284C11.5929 188.19 11.5555 188.1 11.489 188.034C11.4225 187.967 11.3323 187.93 11.2383 187.93Z" fill="#274B5B"/>
<path opacity="0.2" d="M11.2384 189.823C10.9339 189.823 10.6363 189.732 10.3832 189.563C10.1301 189.394 9.93277 189.154 9.81627 188.873C9.69976 188.592 9.66928 188.283 9.72867 187.984C9.78807 187.686 9.93467 187.412 10.1499 187.197C10.3652 186.982 10.6395 186.835 10.9381 186.776C11.2367 186.717 11.5462 186.747 11.8275 186.863C12.1087 186.98 12.3491 187.177 12.5183 187.43C12.6874 187.683 12.7777 187.98 12.7777 188.285C12.7777 188.692 12.6155 189.084 12.3268 189.372C12.0382 189.661 11.6466 189.823 11.2384 189.823ZM11.2384 187.693C11.1212 187.693 11.0067 187.727 10.9093 187.792C10.8119 187.857 10.736 187.95 10.6911 188.058C10.6463 188.166 10.6346 188.285 10.6574 188.4C10.6803 188.515 10.7367 188.62 10.8195 188.703C10.9024 188.786 11.0079 188.842 11.1228 188.865C11.2377 188.888 11.3568 188.876 11.4651 188.831C11.5733 188.787 11.6658 188.711 11.7309 188.613C11.796 188.516 11.8307 188.402 11.8307 188.285C11.8307 188.207 11.8154 188.13 11.7857 188.058C11.7559 187.986 11.7122 187.921 11.6572 187.866C11.6022 187.811 11.5369 187.767 11.4651 187.738C11.3932 187.708 11.3162 187.693 11.2384 187.693Z" fill="#274B5B"/>
<path d="M127.492 189.114C127.327 189.114 127.167 189.065 127.03 188.974C126.894 188.883 126.788 188.753 126.725 188.602C126.662 188.45 126.645 188.283 126.677 188.122C126.709 187.962 126.789 187.814 126.905 187.698C127.021 187.582 127.169 187.503 127.33 187.471C127.491 187.439 127.658 187.455 127.809 187.518C127.961 187.581 128.091 187.687 128.182 187.823C128.273 187.96 128.322 188.12 128.322 188.284C128.322 188.504 128.234 188.715 128.079 188.871C127.923 189.026 127.712 189.114 127.492 189.114ZM127.492 187.93C127.421 187.93 127.353 187.951 127.295 187.99C127.236 188.029 127.191 188.084 127.164 188.149C127.137 188.213 127.13 188.285 127.144 188.353C127.157 188.422 127.191 188.485 127.241 188.535C127.29 188.584 127.354 188.618 127.422 188.632C127.491 188.646 127.562 188.639 127.627 188.612C127.692 188.585 127.747 188.539 127.786 188.481C127.825 188.423 127.846 188.354 127.846 188.284C127.846 188.19 127.809 188.1 127.742 188.034C127.676 187.967 127.586 187.93 127.492 187.93Z" fill="#274B5B"/>
<path opacity="0.2" d="M127.492 189.823C127.187 189.823 126.89 189.732 126.636 189.563C126.383 189.394 126.186 189.154 126.069 188.873C125.953 188.592 125.922 188.283 125.982 187.984C126.041 187.686 126.188 187.412 126.403 187.197C126.618 186.982 126.893 186.835 127.191 186.776C127.49 186.717 127.799 186.747 128.081 186.863C128.362 186.98 128.602 187.177 128.771 187.43C128.941 187.683 129.031 187.98 129.031 188.285C129.031 188.692 128.869 189.084 128.58 189.372C128.291 189.661 127.9 189.823 127.492 189.823ZM127.492 187.693C127.374 187.693 127.26 187.727 127.162 187.792C127.065 187.857 126.989 187.95 126.944 188.058C126.899 188.166 126.888 188.285 126.911 188.4C126.933 188.515 126.99 188.62 127.073 188.703C127.156 188.786 127.261 188.842 127.376 188.865C127.491 188.888 127.61 188.876 127.718 188.831C127.826 188.787 127.919 188.711 127.984 188.613C128.049 188.516 128.084 188.402 128.084 188.285C128.084 188.207 128.069 188.13 128.039 188.058C128.009 187.986 127.965 187.921 127.91 187.866C127.855 187.811 127.79 187.767 127.718 187.738C127.646 187.708 127.569 187.693 127.492 187.693Z" fill="#274B5B"/>
<path d="M126.782 189.114C126.618 189.114 126.458 189.065 126.321 188.974C126.185 188.883 126.078 188.753 126.015 188.602C125.953 188.45 125.936 188.283 125.968 188.122C126 187.962 126.079 187.814 126.195 187.698C126.311 187.582 126.459 187.503 126.62 187.471C126.781 187.439 126.948 187.455 127.1 187.518C127.252 187.581 127.381 187.687 127.473 187.823C127.564 187.96 127.612 188.12 127.612 188.284C127.612 188.504 127.525 188.715 127.369 188.871C127.214 189.026 127.003 189.114 126.782 189.114ZM126.782 187.93C126.712 187.93 126.644 187.951 126.585 187.99C126.527 188.029 126.482 188.084 126.455 188.149C126.428 188.213 126.421 188.285 126.435 188.353C126.448 188.422 126.482 188.485 126.532 188.535C126.581 188.584 126.644 188.618 126.713 188.632C126.782 188.646 126.853 188.639 126.918 188.612C126.983 188.585 127.038 188.539 127.077 188.481C127.116 188.423 127.137 188.354 127.137 188.284C127.137 188.19 127.1 188.1 127.033 188.034C126.967 187.967 126.876 187.93 126.782 187.93Z" fill="#274B5B"/>
<path opacity="0.2" d="M126.782 189.823C126.478 189.823 126.18 189.732 125.927 189.563C125.674 189.394 125.477 189.154 125.36 188.873C125.244 188.592 125.213 188.283 125.273 187.984C125.332 187.686 125.479 187.412 125.694 187.197C125.909 186.982 126.183 186.835 126.482 186.776C126.781 186.717 127.09 186.747 127.371 186.863C127.653 186.98 127.893 187.177 128.062 187.43C128.231 187.683 128.322 187.98 128.322 188.285C128.322 188.692 128.159 189.084 127.871 189.372C127.582 189.661 127.191 189.823 126.782 189.823ZM126.782 187.693C126.665 187.693 126.551 187.727 126.453 187.792C126.356 187.857 126.28 187.95 126.235 188.058C126.19 188.166 126.179 188.285 126.201 188.4C126.224 188.515 126.281 188.62 126.363 188.703C126.446 188.786 126.552 188.842 126.667 188.865C126.782 188.888 126.901 188.876 127.009 188.831C127.117 188.787 127.21 188.711 127.275 188.613C127.34 188.516 127.375 188.402 127.375 188.285C127.375 188.207 127.359 188.13 127.33 188.058C127.3 187.986 127.256 187.921 127.201 187.866C127.146 187.811 127.081 187.767 127.009 187.738C126.937 187.708 126.86 187.693 126.782 187.693Z" fill="#274B5B"/>
<path d="M16.0981 164.982H15.1511V242.584H16.0981V164.982Z" fill="#274B5B"/>
<path opacity="0.2" d="M17.045 163.089H16.098V242.584H17.045V163.089Z" fill="#274B5B"/>
<path opacity="0.3" d="M15.151 164.982H14.2041V242.584H15.151V164.982Z" fill="white"/>
<path d="M21.5419 154.807H20.595V224.839H21.5419V154.807Z" fill="#274B5B"/>
<path opacity="0.2" d="M22.4889 154.807H21.542V224.839H22.4889V154.807Z" fill="#274B5B"/>
<path opacity="0.3" d="M20.595 154.807H19.6481V224.839H20.595V154.807Z" fill="white"/>
<path d="M125.118 259.831C125.02 260.148 124.816 260.422 124.542 260.608C124.732 260.736 124.95 260.817 125.177 260.846C125.405 260.876 125.636 260.852 125.852 260.776C126.069 260.701 126.265 260.576 126.425 260.412C126.585 260.248 126.704 260.049 126.774 259.831C133.403 239.669 147.478 181.379 103.572 145.819L103.532 147.16C145.472 182.812 131.666 239.919 125.118 259.831Z" fill="white"/>
<path d="M103.064 201.653C103.064 201.653 122.406 225.725 125.029 259.48C125.054 259.823 125.198 260.146 125.435 260.395C125.672 260.644 125.988 260.802 126.33 260.844C126.671 260.885 127.016 260.807 127.306 260.622C127.596 260.437 127.812 260.158 127.919 259.831C134.543 239.669 148.623 181.379 104.724 145.819" fill="#6FCF97"/>
<path opacity="0.8" d="M129.647 253.682C129.76 244.324 127.371 234.519 124.24 225.737C122.628 221.243 120.839 217.019 119.078 213.254C113.56 201.506 110.985 188.593 111.575 175.629C111.921 168.123 112.203 159.703 112.203 152.205C108.734 147.913 109.915 147.526 105.176 143.689L103.516 199.523C103.516 199.523 122.858 223.595 125.481 257.35C125.492 257.558 125.548 257.76 125.646 257.944C125.743 258.128 125.879 258.288 126.045 258.414" fill="#1B5A6E"/>
<path d="M129.623 219.858C129.459 219.858 129.299 219.809 129.162 219.718C129.025 219.627 128.919 219.497 128.856 219.346C128.793 219.194 128.777 219.027 128.809 218.867C128.841 218.706 128.92 218.558 129.036 218.442C129.152 218.326 129.3 218.247 129.461 218.215C129.622 218.183 129.789 218.199 129.941 218.262C130.093 218.325 130.222 218.431 130.313 218.568C130.405 218.704 130.453 218.864 130.453 219.028C130.453 219.248 130.366 219.459 130.21 219.615C130.054 219.77 129.843 219.858 129.623 219.858ZM129.623 218.674C129.553 218.674 129.484 218.695 129.426 218.734C129.368 218.773 129.322 218.828 129.296 218.893C129.269 218.957 129.262 219.029 129.275 219.097C129.289 219.166 129.323 219.229 129.372 219.279C129.422 219.328 129.485 219.362 129.554 219.376C129.623 219.39 129.694 219.383 129.759 219.356C129.824 219.329 129.879 219.283 129.918 219.225C129.957 219.167 129.978 219.098 129.978 219.028C129.975 218.936 129.936 218.849 129.87 218.786C129.804 218.722 129.715 218.686 129.623 218.686V218.674Z" fill="#274B5B"/>
<path opacity="0.2" d="M129.623 220.583C129.319 220.583 129.021 220.492 128.768 220.323C128.515 220.154 128.318 219.914 128.201 219.633C128.085 219.352 128.054 219.043 128.113 218.744C128.173 218.446 128.319 218.172 128.535 217.957C128.75 217.742 129.024 217.595 129.323 217.536C129.621 217.476 129.931 217.507 130.212 217.623C130.494 217.74 130.734 217.937 130.903 218.19C131.072 218.443 131.162 218.74 131.162 219.044C131.162 219.452 131 219.844 130.712 220.132C130.423 220.421 130.031 220.583 129.623 220.583ZM129.623 218.453C129.506 218.453 129.391 218.487 129.294 218.552C129.197 218.617 129.121 218.71 129.076 218.818C129.031 218.926 129.019 219.045 129.042 219.16C129.065 219.275 129.121 219.38 129.204 219.463C129.287 219.546 129.393 219.602 129.508 219.625C129.623 219.648 129.742 219.636 129.85 219.591C129.958 219.546 130.051 219.471 130.116 219.373C130.181 219.276 130.216 219.161 130.216 219.044C130.216 218.887 130.153 218.737 130.042 218.626C129.931 218.515 129.78 218.453 129.623 218.453Z" fill="#274B5B"/>
<path d="M122.402 164.744H121.455V244.715H122.402V164.744Z" fill="#274B5B"/>
<path opacity="0.2" d="M121.455 164.507H120.508V238.087H121.455V164.507Z" fill="#274B5B"/>
<path opacity="0.3" d="M123.349 167.112H122.402V244.715H123.349V167.112Z" fill="white"/>
<path d="M116.958 156.937H116.011V226.969H116.958V156.937Z" fill="#274B5B"/>
<path opacity="0.2" d="M116.011 156.937H115.064V224.601H116.011V156.937Z" fill="#274B5B"/>
<path opacity="0.3" d="M117.905 156.937H116.958V226.969H117.905V156.937Z" fill="white"/>
<path d="M126.524 260.97C126.39 260.97 126.255 260.962 126.122 260.946C125.37 260.863 124.672 260.519 124.149 259.973C123.626 259.428 123.312 258.716 123.261 257.962C120.722 225.133 101.872 201.347 101.682 201.109L104.45 198.887C104.652 199.136 109.467 205.168 114.653 215.453C119.307 224.678 125.102 239.142 126.678 256.239C129.901 246.124 134.576 227.424 133.496 207.037C132.126 181.201 122.052 160.496 103.6 145.541L105.837 142.783C116.047 150.957 124.138 161.467 129.426 173.426C133.838 183.436 136.401 194.679 137.046 206.847C138.206 228.777 132.887 248.765 129.611 258.727C129.403 259.381 128.991 259.951 128.436 260.354C127.88 260.758 127.211 260.974 126.524 260.97Z" fill="#274B5B"/>
<path d="M10.8756 260.733C10.1906 260.734 9.52283 260.518 8.96927 260.115C8.41571 259.711 8.00511 259.142 7.79703 258.49C4.51695 248.528 -0.802095 228.543 0.358423 206.61C1.00316 194.441 3.58209 183.199 7.97836 173.188C13.2658 161.23 21.3568 150.719 31.5675 142.545L33.8039 145.303C15.3364 160.263 5.27451 180.952 3.90445 206.799C2.82453 227.186 7.53107 245.886 10.7225 256.001C12.2981 238.908 18.0926 224.44 22.7468 215.215C27.9369 204.931 32.7482 198.899 32.9496 198.649L35.718 200.872C35.6454 200.965 30.8825 206.952 25.8697 216.906C21.2478 226.087 15.4613 240.619 14.1396 257.725C14.0884 258.479 13.7739 259.19 13.2509 259.736C12.728 260.281 12.0299 260.625 11.2786 260.709C11.1449 260.725 11.0103 260.733 10.8756 260.733Z" fill="#274B5B"/>
<path d="M72.9996 3.82537C72.5054 3.26704 71.8982 2.81998 71.2181 2.51379C70.538 2.20759 69.8006 2.04926 69.0547 2.04926C68.3088 2.04926 67.5713 2.20759 66.8913 2.51379C66.2112 2.81998 65.6039 3.26704 65.1097 3.82537C53.7423 16.6826 21.7152 58.0328 21.7152 115.828C21.7152 172.399 33.9933 197.804 38.7805 205.555C39.804 207.21 42.0323 208.277 44.4622 208.277H93.6512C96.0931 208.277 98.3175 207.218 99.3329 205.555C104.12 197.804 116.41 172.399 116.41 115.828C116.41 58.0328 84.3711 16.6826 72.9996 3.82537Z" fill="#6FCF97"/>
<path d="M69.3691 51.6545H68.4221V207.806H69.3691V51.6545Z" fill="#274B5B"/>
<path opacity="0.2" d="M68.4221 51.6545H67.4751V207.806H68.4221V51.6545Z" fill="#274B5B"/>
<path opacity="0.3" d="M70.316 51.6545H69.369V207.806H70.316V51.6545Z" fill="white"/>
<path d="M100.385 50.2331H36.7173C40.5993 40.8991 45.1554 31.8595 50.3493 23.1857C50.8033 22.4287 51.2533 21.6891 51.6993 20.967C60.7739 7.39302 67.7249 0 67.7249 0C67.7249 0 77.3959 10.2802 88.7955 28.8634L88.9608 29.1372C92.7042 35.3222 96.6008 42.377 100.385 50.2331Z" fill="#F2F2F2"/>
<path d="M99.9091 49.5486L96.4275 49.0493C90.6773 40.6456 74.7726 23.4959 52.8517 21.1322C53.2546 20.3752 54.8665 18.8289 55.2694 18.1082C58.4165 12.9379 61.2816 9.46284 63.6227 6.15289C64.2461 5.26633 65.0711 4.54028 66.03 4.03447C66.9889 3.52866 68.0542 3.25753 69.1384 3.24338C70.2226 3.22923 71.2947 3.47246 72.2664 3.95307C73.2382 4.43368 74.082 5.13794 74.7283 6.00793C79.6755 12.6097 84.1771 19.5335 88.2032 26.7334C88.2515 26.8219 88.7753 26.9146 88.8277 27.0072C92.2327 33.1922 98.4907 37.0095 99.9091 49.5486Z" fill="#8BBACC"/>
<path d="M46.2956 44.185C46.0906 44.1846 45.8891 44.1311 45.711 44.0296C45.5329 43.9281 45.3842 43.7822 45.2794 43.6061C45.1746 43.43 45.1174 43.2297 45.1133 43.0248C45.1092 42.82 45.1583 42.6176 45.256 42.4374C46.4084 40.3193 47.6737 38.1892 48.935 36.1316C50.1439 34.1182 51.385 32.0686 52.4971 30.0392C52.654 29.7764 52.9065 29.5845 53.2018 29.5037C53.4972 29.4229 53.8123 29.4595 54.0812 29.6058C54.3501 29.7522 54.5519 29.9969 54.6442 30.2886C54.7365 30.5803 54.7122 30.8965 54.5764 31.1707C53.4441 33.2485 52.1828 35.3343 50.9498 37.3517C49.7167 39.369 48.4514 41.4911 47.3231 43.5649C47.2227 43.7503 47.0745 43.9056 46.8938 44.0146C46.7132 44.1236 46.5066 44.1824 46.2956 44.185Z" fill="white"/>
<g opacity="0.4">
<path opacity="0.4" d="M80.8734 93.0409C82.3966 90.5766 83.4765 88.4867 83.6417 88.5592C83.8069 88.6317 82.9325 90.8544 81.3852 93.355C79.8378 95.8556 78.2461 97.6354 78.1212 97.5347C77.9963 97.4341 79.3623 95.5133 80.8734 93.0409Z" fill="#426270"/>
<path opacity="0.4" d="M83.6078 95.2649C84.5943 93.6027 85.2777 92.1862 85.1341 92.1011C84.9905 92.0161 84.0744 93.2946 83.088 94.9568C82.1015 96.619 81.4181 98.0355 81.5617 98.1206C81.7053 98.2057 82.6214 96.9271 83.6078 95.2649Z" fill="#426270"/>
<path opacity="0.4" d="M81.4738 94.6799C83.6981 95.5778 85.5557 96.1979 85.5033 96.363C85.4509 96.5281 83.4886 96.1577 81.2401 95.2396C78.9916 94.3215 77.3032 93.2262 77.3837 93.0974C77.4643 92.9685 79.2454 93.79 81.4738 94.6799Z" fill="#426270"/>
<path opacity="0.4" d="M83.5772 94.0759C85.592 95.0221 87.2965 95.6181 87.2482 95.7832C87.1998 95.9483 85.3865 95.5859 83.3234 94.6235C81.2602 93.6611 79.8136 92.4934 79.9063 92.3726C79.999 92.2518 81.5625 93.1457 83.5772 94.0759Z" fill="#426270"/>
</g>
<path d="M53.7987 209.461H45.1633C42.7214 209.461 40.4971 208.398 39.4816 206.735C34.6985 198.963 22.4204 173.498 22.4204 116.79C22.4204 61.2581 51.8363 20.8703 64.328 6.2655C53.1379 19.5133 28.908 54.5859 28.908 109.852L43.1123 89.9363C42.8181 90.7094 14.1316 174.094 53.7987 209.461Z" fill="#242E28"/>
<path d="M48.0042 208.394H45.6348C43.1928 208.394 40.9685 207.331 39.9531 205.668C35.17 197.896 22.8918 172.431 22.8918 115.723C22.8918 60.1911 52.3077 19.8033 64.7753 5.20654C58.4206 12.7324 47.8188 27.3534 39.8725 48.6949C31.7206 66.9721 25.2532 89.6746 25.2532 115.699C25.2532 172.411 37.5313 197.876 42.3144 205.644C43.3419 207.331 45.5663 208.394 48.0042 208.394Z" fill="#F2F2F2"/>
<path opacity="0.8" d="M82.872 208.277H91.5074C93.9494 208.277 96.1737 207.218 97.1891 205.559C101.972 197.812 114.25 172.419 114.25 115.872C114.25 60.5092 84.8345 20.2301 72.3428 5.66553C83.5329 18.8731 110.37 53.8369 110.37 108.954L98.0756 89.0947C98.3537 89.8678 122.543 173.011 82.872 208.277Z" fill="#1B5A6E"/>
<g opacity="0.9">
<path opacity="0.9" d="M38.8852 68.9332C39.2895 67.3522 39.775 65.7932 40.3399 64.2622C40.8066 63.0097 41.3448 61.7849 41.9517 60.5939C42.9954 58.5805 43.898 57.4329 44.2728 57.59C44.6475 57.747 44.4662 59.1644 43.9544 61.3267C43.7006 62.4099 43.3782 63.6944 43.0075 65.0917L41.8107 69.662L40.6542 74.2645C40.3077 75.6859 39.9812 76.9503 39.6911 78.0255C39.1068 80.1717 38.6072 81.5045 38.1881 81.4643C37.769 81.424 37.5232 80.0026 37.5756 77.7194C37.615 76.3864 37.7307 75.0568 37.9221 73.737C38.1602 72.1202 38.4817 70.5168 38.8852 68.9332Z" fill="#F2F2F2"/>
</g>
<g opacity="0.9">
<path opacity="0.9" d="M37.843 87.321C38.1912 85.3929 37.8077 83.7098 36.9865 83.5617C36.1652 83.4136 35.2171 84.8565 34.8689 86.7846C34.5207 88.7127 34.9042 90.3958 35.7255 90.5439C36.5468 90.692 37.4948 89.2491 37.843 87.321Z" fill="#F2F2F2"/>
</g>
<g opacity="0.2">
<path opacity="0.2" d="M61.7489 14.786C63.7113 13.3646 65.5367 12.1284 66.8746 11.2788C68.2124 10.4291 69.0747 9.93788 69.1231 10.0144C69.1714 10.0909 68.3937 10.6868 67.1083 11.6251L62.0955 15.2491L57.0948 18.9255C55.8053 19.8516 54.9913 20.4073 54.939 20.3469C54.8866 20.2865 55.6079 19.61 56.8328 18.5953C58.0578 17.5806 59.7865 16.2155 61.7489 14.786Z" fill="#426270"/>
<path opacity="0.2" d="M62.4744 17.0893C66.7901 15.4344 70.2676 14.0452 70.3361 14.2022C70.3683 14.2787 69.5302 14.7257 68.1641 15.3619C66.7981 15.9981 64.8478 16.8236 62.692 17.6531C60.5362 18.4826 58.5375 19.1631 57.0868 19.602C55.6362 20.0409 54.7174 20.2664 54.6933 20.1899C54.6328 20.0288 58.1627 18.7443 62.4744 17.0893Z" fill="#426270"/>
</g>
<path d="M64.751 78.7421C64.5868 78.7421 64.4263 78.6935 64.2898 78.6023C64.1533 78.5112 64.0469 78.3816 63.9841 78.2301C63.9213 78.0785 63.9048 77.9117 63.9368 77.7508C63.9689 77.5899 64.0479 77.4421 64.164 77.3261C64.2801 77.2101 64.428 77.1311 64.589 77.0991C64.7501 77.0671 64.917 77.0835 65.0687 77.1463C65.2203 77.2091 65.35 77.3154 65.4412 77.4518C65.5324 77.5882 65.5811 77.7486 65.5811 77.9126C65.5811 78.1326 65.4936 78.3436 65.338 78.4992C65.1823 78.6547 64.9711 78.7421 64.751 78.7421ZM64.751 77.5583C64.6809 77.5583 64.6123 77.5791 64.554 77.618C64.4957 77.6569 64.4502 77.7123 64.4234 77.777C64.3966 77.8418 64.3895 77.913 64.4032 77.9818C64.4169 78.0505 64.4507 78.1136 64.5002 78.1632C64.5498 78.2127 64.613 78.2465 64.6818 78.2602C64.7506 78.2738 64.8219 78.2668 64.8867 78.24C64.9515 78.2132 65.0069 78.1678 65.0458 78.1095C65.0848 78.0512 65.1056 77.9827 65.1056 77.9126C65.1056 77.8186 65.0682 77.7285 65.0017 77.6621C64.9352 77.5956 64.845 77.5583 64.751 77.5583Z" fill="#274B5B"/>
<path opacity="0.2" d="M64.7511 79.4509C64.4466 79.4509 64.149 79.3607 63.8959 79.1917C63.6428 79.0227 63.4455 78.7824 63.329 78.5014C63.2125 78.2203 63.182 77.911 63.2414 77.6126C63.3008 77.3142 63.4474 77.0402 63.6626 76.825C63.8779 76.6099 64.1522 76.4634 64.4508 76.4041C64.7494 76.3447 65.0589 76.3752 65.3401 76.4916C65.6214 76.608 65.8618 76.8052 66.031 77.0581C66.2001 77.3111 66.2904 77.6085 66.2904 77.9127C66.2904 78.3207 66.1282 78.7119 65.8395 79.0004C65.5509 79.2888 65.1593 79.4509 64.7511 79.4509ZM64.7511 77.3208C64.6339 77.3208 64.5194 77.3555 64.422 77.4205C64.3246 77.4856 64.2487 77.578 64.2038 77.6862C64.159 77.7944 64.1473 77.9134 64.1701 78.0282C64.193 78.143 64.2494 78.2485 64.3322 78.3313C64.4151 78.414 64.5206 78.4704 64.6355 78.4933C64.7504 78.5161 64.8695 78.5044 64.9778 78.4596C65.086 78.4148 65.1785 78.3389 65.2436 78.2416C65.3087 78.1442 65.3434 78.0298 65.3434 77.9127C65.3445 77.8343 65.33 77.7565 65.3007 77.6837C65.2714 77.611 65.2279 77.5448 65.1728 77.4889C65.1177 77.4331 65.0521 77.3888 64.9797 77.3586C64.9073 77.3283 64.8296 77.3127 64.7511 77.3127V77.3208Z" fill="#274B5B"/>
<path d="M64.751 62.5347C64.5868 62.5347 64.4263 62.4861 64.2898 62.3949C64.1533 62.3038 64.0469 62.1742 63.9841 62.0227C63.9213 61.8711 63.9048 61.7043 63.9368 61.5434C63.9689 61.3825 64.0479 61.2347 64.164 61.1187C64.2801 61.0027 64.428 60.9237 64.589 60.8917C64.7501 60.8597 64.917 60.8761 65.0687 60.9389C65.2203 61.0017 65.35 61.108 65.4412 61.2444C65.5324 61.3808 65.5811 61.5412 65.5811 61.7052C65.5811 61.9252 65.4936 62.1362 65.338 62.2918C65.1823 62.4473 64.9711 62.5347 64.751 62.5347ZM64.751 61.3509C64.6809 61.3509 64.6123 61.3717 64.554 61.4106C64.4957 61.4495 64.4502 61.5049 64.4234 61.5696C64.3966 61.6344 64.3895 61.7056 64.4032 61.7744C64.4169 61.8431 64.4507 61.9062 64.5002 61.9558C64.5498 62.0054 64.613 62.0391 64.6818 62.0528C64.7506 62.0664 64.8219 62.0594 64.8867 62.0326C64.9515 62.0058 65.0069 61.9604 65.0458 61.9021C65.0848 61.8438 65.1056 61.7753 65.1056 61.7052C65.1045 61.612 65.0667 61.5229 65.0003 61.4573C64.9339 61.3917 64.8443 61.3549 64.751 61.3549V61.3509Z" fill="#274B5B"/>
<path opacity="0.2" d="M64.7511 63.2474C64.4466 63.2474 64.149 63.1572 63.8959 62.9882C63.6428 62.8192 63.4455 62.5789 63.329 62.2979C63.2125 62.0168 63.182 61.7075 63.2414 61.4091C63.3008 61.1108 63.4474 60.8367 63.6626 60.6216C63.8779 60.4064 64.1522 60.2599 64.4508 60.2006C64.7494 60.1412 65.0589 60.1717 65.3401 60.2881C65.6214 60.4045 65.8618 60.6017 66.031 60.8546C66.2001 61.1076 66.2904 61.405 66.2904 61.7092C66.2904 62.1172 66.1282 62.5084 65.8395 62.7969C65.5509 63.0854 65.1593 63.2474 64.7511 63.2474ZM64.7511 61.1173C64.6339 61.1173 64.5194 61.152 64.422 61.2171C64.3246 61.2821 64.2487 61.3745 64.2038 61.4827C64.159 61.5909 64.1473 61.7099 64.1701 61.8247C64.193 61.9395 64.2494 62.045 64.3322 62.1278C64.4151 62.2106 64.5206 62.2669 64.6355 62.2898C64.7504 62.3126 64.8695 62.3009 64.9778 62.2561C65.086 62.2113 65.1785 62.1354 65.2436 62.0381C65.3087 61.9407 65.3434 61.8263 65.3434 61.7092C65.3434 61.5522 65.281 61.4017 65.1699 61.2907C65.0589 61.1797 64.9082 61.1173 64.7511 61.1173Z" fill="#274B5B"/>
<path d="M73.0359 67.7413C72.8717 67.7413 72.7112 67.6926 72.5747 67.6015C72.4382 67.5103 72.3318 67.3808 72.269 67.2292C72.2062 67.0776 72.1897 66.9109 72.2218 66.7499C72.2538 66.589 72.3328 66.4412 72.4489 66.3252C72.565 66.2092 72.7129 66.1302 72.874 66.0982C73.035 66.0662 73.2019 66.0826 73.3536 66.1454C73.5052 66.2082 73.6349 66.3145 73.7261 66.4509C73.8173 66.5873 73.866 66.7477 73.866 66.9118C73.866 67.0207 73.8445 67.1286 73.8028 67.2292C73.7611 67.3298 73.7 67.4213 73.6229 67.4983C73.5458 67.5753 73.4543 67.6364 73.3536 67.6781C73.2529 67.7198 73.1449 67.7413 73.0359 67.7413ZM73.0359 66.5574C72.9658 66.5574 72.8972 66.5782 72.8389 66.6171C72.7806 66.6561 72.7351 66.7114 72.7083 66.7762C72.6815 66.8409 72.6744 66.9122 72.6881 66.9809C72.7018 67.0496 72.7356 67.1128 72.7852 67.1623C72.8348 67.2119 72.8979 67.2456 72.9667 67.2593C73.0355 67.273 73.1068 67.266 73.1716 67.2392C73.2364 67.2123 73.2918 67.1669 73.3308 67.1086C73.3697 67.0504 73.3905 66.9819 73.3905 66.9118C73.3905 66.8178 73.3531 66.7277 73.2866 66.6612C73.2201 66.5948 73.1299 66.5574 73.0359 66.5574Z" fill="#274B5B"/>
<path opacity="0.2" d="M73.036 68.454C72.7316 68.454 72.434 68.3638 72.1808 68.1947C71.9277 68.0257 71.7304 67.7855 71.6139 67.5044C71.4974 67.2233 71.4669 66.9141 71.5263 66.6157C71.5857 66.3173 71.7323 66.0432 71.9476 65.8281C72.1628 65.613 72.4371 65.4665 72.7357 65.4071C73.0343 65.3478 73.3438 65.3782 73.6251 65.4947C73.9063 65.6111 74.1467 65.8082 74.3159 66.0612C74.485 66.3141 74.5753 66.6115 74.5753 66.9158C74.5753 67.3237 74.4131 67.715 74.1245 68.0034C73.8358 68.2919 73.4442 68.454 73.036 68.454ZM73.036 66.3238C72.9188 66.3238 72.8043 66.3586 72.7069 66.4236C72.6095 66.4886 72.5336 66.5811 72.4887 66.6892C72.4439 66.7974 72.4322 66.9164 72.455 67.0312C72.4779 67.1461 72.5343 67.2515 72.6172 67.3343C72.7 67.4171 72.8055 67.4735 72.9204 67.4963C73.0353 67.5192 73.1544 67.5074 73.2627 67.4626C73.3709 67.4178 73.4634 67.342 73.5285 67.2446C73.5936 67.1473 73.6283 67.0328 73.6283 66.9158C73.6283 66.7588 73.5659 66.6082 73.4549 66.4972C73.3438 66.3862 73.1931 66.3238 73.036 66.3238Z" fill="#274B5B"/>
<path d="M73.0359 126.652C72.8717 126.652 72.7112 126.603 72.5747 126.512C72.4382 126.421 72.3318 126.291 72.269 126.14C72.2062 125.988 72.1897 125.821 72.2218 125.66C72.2538 125.5 72.3328 125.352 72.4489 125.236C72.565 125.12 72.7129 125.041 72.874 125.009C73.035 124.977 73.2019 124.993 73.3536 125.056C73.5052 125.119 73.6349 125.225 73.7261 125.361C73.8173 125.498 73.866 125.658 73.866 125.822C73.866 126.042 73.7785 126.253 73.6229 126.409C73.4672 126.564 73.2561 126.652 73.0359 126.652ZM73.0359 125.468C72.9658 125.468 72.8972 125.489 72.8389 125.528C72.7806 125.567 72.7351 125.622 72.7083 125.687C72.6815 125.751 72.6744 125.823 72.6881 125.891C72.7018 125.96 72.7356 126.023 72.7852 126.073C72.8348 126.122 72.8979 126.156 72.9667 126.17C73.0355 126.184 73.1068 126.176 73.1716 126.15C73.2364 126.123 73.2918 126.077 73.3308 126.019C73.3697 125.961 73.3905 125.892 73.3905 125.822C73.3894 125.729 73.3516 125.64 73.2852 125.574C73.2189 125.509 73.1293 125.472 73.0359 125.472V125.468Z" fill="#274B5B"/>
<path opacity="0.2" d="M73.036 127.365C72.7316 127.365 72.434 127.274 72.1808 127.105C71.9277 126.936 71.7304 126.696 71.6139 126.415C71.4974 126.134 71.4669 125.825 71.5263 125.526C71.5857 125.228 71.7323 124.954 71.9476 124.739C72.1628 124.524 72.4371 124.377 72.7357 124.318C73.0343 124.258 73.3438 124.289 73.6251 124.405C73.9063 124.522 74.1467 124.719 74.3159 124.972C74.485 125.225 74.5753 125.522 74.5753 125.826C74.5753 126.234 74.4131 126.626 74.1245 126.914C73.8358 127.203 73.4442 127.365 73.036 127.365ZM73.036 125.234C72.9188 125.234 72.8043 125.269 72.7069 125.334C72.6095 125.399 72.5336 125.492 72.4887 125.6C72.4439 125.708 72.4322 125.827 72.455 125.942C72.4779 126.057 72.5343 126.162 72.6172 126.245C72.7 126.328 72.8055 126.384 72.9204 126.407C73.0353 126.43 73.1544 126.418 73.2627 126.373C73.3709 126.328 73.4634 126.253 73.5285 126.155C73.5936 126.058 73.6283 125.943 73.6283 125.826C73.6289 125.748 73.6139 125.671 73.5844 125.599C73.5549 125.526 73.5113 125.461 73.4563 125.405C73.4012 125.35 73.3358 125.306 73.2636 125.276C73.1915 125.246 73.1141 125.23 73.036 125.23V125.234Z" fill="#274B5B"/>
<path d="M73.2938 138.72C73.1297 138.72 72.9692 138.671 72.8327 138.58C72.6962 138.489 72.5898 138.359 72.5269 138.208C72.4641 138.056 72.4477 137.889 72.4797 137.728C72.5117 137.568 72.5908 137.42 72.7069 137.304C72.823 137.188 72.9709 137.109 73.1319 137.077C73.2929 137.045 73.4598 137.061 73.6115 137.124C73.7632 137.187 73.8928 137.293 73.984 137.429C74.0753 137.566 74.1239 137.726 74.1239 137.89C74.1239 138.11 74.0365 138.321 73.8808 138.477C73.7251 138.632 73.514 138.72 73.2938 138.72ZM73.2938 137.536C73.2237 137.536 73.1552 137.557 73.0968 137.596C73.0385 137.635 72.9931 137.69 72.9662 137.755C72.9394 137.819 72.9324 137.891 72.946 137.959C72.9597 138.028 72.9935 138.091 73.0431 138.141C73.0927 138.19 73.1559 138.224 73.2247 138.238C73.2934 138.252 73.3647 138.244 73.4295 138.218C73.4943 138.191 73.5497 138.145 73.5887 138.087C73.6276 138.029 73.6485 137.96 73.6485 137.89C73.6485 137.796 73.6111 137.706 73.5446 137.64C73.4781 137.573 73.3879 137.536 73.2938 137.536Z" fill="#274B5B"/>
<path opacity="0.2" d="M73.2938 139.429C72.9894 139.429 72.6918 139.338 72.4386 139.169C72.1855 139 71.9882 138.76 71.8717 138.479C71.7552 138.198 71.7247 137.889 71.7841 137.59C71.8435 137.292 71.9901 137.018 72.2054 136.803C72.4206 136.588 72.6949 136.441 72.9935 136.382C73.2921 136.322 73.6016 136.353 73.8829 136.469C74.1641 136.586 74.4045 136.783 74.5737 137.036C74.7428 137.289 74.8331 137.586 74.8331 137.89C74.8331 138.298 74.6709 138.69 74.3823 138.978C74.0936 139.267 73.7021 139.429 73.2938 139.429ZM73.2938 137.298C73.1767 137.298 73.0621 137.333 72.9647 137.398C72.8673 137.463 72.7914 137.556 72.7466 137.664C72.7017 137.772 72.69 137.891 72.7129 138.006C72.7357 138.121 72.7921 138.226 72.875 138.309C72.9578 138.392 73.0634 138.448 73.1783 138.471C73.2932 138.494 73.4123 138.482 73.5205 138.437C73.6287 138.392 73.7212 138.317 73.7863 138.219C73.8514 138.122 73.8862 138.007 73.8862 137.89C73.883 137.735 73.8192 137.588 73.7085 137.48C73.5977 137.371 73.4488 137.311 73.2938 137.311V137.298Z" fill="#274B5B"/>
<path d="M64.0258 123.342C63.8616 123.342 63.7011 123.293 63.5646 123.202C63.4281 123.111 63.3217 122.981 63.2589 122.83C63.196 122.678 63.1796 122.511 63.2116 122.35C63.2437 122.19 63.3227 122.042 63.4388 121.926C63.5549 121.81 63.7028 121.731 63.8638 121.699C64.0249 121.667 64.1918 121.683 64.3434 121.746C64.4951 121.809 64.6248 121.915 64.716 122.051C64.8072 122.188 64.8559 122.348 64.8559 122.512C64.8559 122.732 64.7684 122.943 64.6127 123.099C64.4571 123.254 64.2459 123.342 64.0258 123.342ZM64.0258 122.158C63.9556 122.158 63.8871 122.179 63.8288 122.218C63.7705 122.257 63.725 122.312 63.6982 122.377C63.6713 122.441 63.6643 122.513 63.678 122.581C63.6917 122.65 63.7254 122.713 63.775 122.763C63.8246 122.812 63.8878 122.846 63.9566 122.86C64.0254 122.873 64.0967 122.866 64.1615 122.84C64.2263 122.813 64.2817 122.767 64.3206 122.709C64.3596 122.651 64.3804 122.582 64.3804 122.512C64.3804 122.418 64.343 122.328 64.2765 122.262C64.21 122.195 64.1198 122.158 64.0258 122.158Z" fill="#274B5B"/>
<path opacity="0.2" d="M64.0259 124.051C63.7214 124.051 63.4238 123.96 63.1707 123.791C62.9175 123.622 62.7203 123.382 62.6038 123.101C62.4872 122.82 62.4568 122.511 62.5161 122.212C62.5755 121.914 62.7222 121.64 62.9374 121.425C63.1527 121.21 63.427 121.063 63.7256 121.004C64.0242 120.944 64.3337 120.975 64.6149 121.091C64.8962 121.208 65.1366 121.405 65.3057 121.658C65.4749 121.911 65.5652 122.208 65.5652 122.512C65.5652 122.92 65.403 123.312 65.1143 123.6C64.8256 123.888 64.4341 124.051 64.0259 124.051ZM64.0259 121.92C63.9087 121.92 63.7942 121.955 63.6968 122.02C63.5994 122.085 63.5234 122.178 63.4786 122.286C63.4338 122.394 63.4221 122.513 63.4449 122.628C63.4678 122.743 63.5242 122.848 63.607 122.931C63.6899 123.014 63.7954 123.07 63.9103 123.093C64.0252 123.116 64.1443 123.104 64.2525 123.059C64.3608 123.014 64.4533 122.939 64.5184 122.841C64.5835 122.744 64.6182 122.629 64.6182 122.512C64.6182 122.355 64.5558 122.205 64.4447 122.094C64.3336 121.983 64.183 121.92 64.0259 121.92Z" fill="#274B5B"/>
<path d="M64.0258 135.406C63.8616 135.406 63.7011 135.357 63.5646 135.266C63.4281 135.175 63.3217 135.045 63.2589 134.894C63.196 134.742 63.1796 134.575 63.2116 134.414C63.2437 134.254 63.3227 134.106 63.4388 133.99C63.5549 133.874 63.7028 133.795 63.8638 133.763C64.0249 133.731 64.1918 133.747 64.3434 133.81C64.4951 133.873 64.6248 133.979 64.716 134.115C64.8072 134.252 64.8559 134.412 64.8559 134.576C64.8559 134.796 64.7684 135.007 64.6127 135.163C64.4571 135.318 64.2459 135.406 64.0258 135.406ZM64.0258 134.222C63.9556 134.222 63.8871 134.243 63.8288 134.282C63.7705 134.321 63.725 134.376 63.6982 134.441C63.6713 134.505 63.6643 134.577 63.678 134.645C63.6917 134.714 63.7254 134.777 63.775 134.827C63.8246 134.876 63.8878 134.91 63.9566 134.924C64.0254 134.938 64.0967 134.931 64.1615 134.904C64.2263 134.877 64.2817 134.831 64.3206 134.773C64.3596 134.715 64.3804 134.646 64.3804 134.576C64.3793 134.483 64.3415 134.394 64.2751 134.328C64.2087 134.263 64.1191 134.226 64.0258 134.226V134.222Z" fill="#274B5B"/>
<path opacity="0.2" d="M64.0259 136.103C63.7214 136.103 63.4238 136.012 63.1707 135.843C62.9175 135.674 62.7203 135.434 62.6038 135.153C62.4872 134.872 62.4568 134.563 62.5161 134.264C62.5755 133.966 62.7222 133.692 62.9374 133.477C63.1527 133.262 63.427 133.115 63.7256 133.056C64.0242 132.996 64.3337 133.027 64.6149 133.143C64.8962 133.26 65.1366 133.457 65.3057 133.71C65.4749 133.963 65.5652 134.26 65.5652 134.564C65.5652 134.972 65.403 135.364 65.1143 135.652C64.8256 135.94 64.4341 136.103 64.0259 136.103ZM64.0259 133.972C63.9087 133.972 63.7942 134.007 63.6968 134.072C63.5994 134.137 63.5234 134.23 63.4786 134.338C63.4338 134.446 63.4221 134.565 63.4449 134.68C63.4678 134.795 63.5242 134.9 63.607 134.983C63.6899 135.066 63.7954 135.122 63.9103 135.145C64.0252 135.168 64.1443 135.156 64.2525 135.111C64.3608 135.066 64.4533 134.991 64.5184 134.893C64.5835 134.796 64.6182 134.681 64.6182 134.564C64.614 134.41 64.5498 134.264 64.4391 134.156C64.3285 134.049 64.1802 133.988 64.0259 133.989V133.972Z" fill="#274B5B"/>
<path d="M64.751 94.9495C64.5868 94.9495 64.4263 94.9009 64.2898 94.8097C64.1533 94.7186 64.0469 94.589 63.9841 94.4375C63.9213 94.2859 63.9048 94.1191 63.9368 93.9582C63.9689 93.7973 64.0479 93.6495 64.164 93.5335C64.2801 93.4175 64.428 93.3385 64.589 93.3065C64.7501 93.2745 64.917 93.2909 65.0687 93.3537C65.2203 93.4164 65.35 93.5228 65.4412 93.6592C65.5324 93.7956 65.5811 93.956 65.5811 94.12C65.5811 94.34 65.4936 94.551 65.338 94.7066C65.1823 94.8621 64.9711 94.9495 64.751 94.9495ZM64.751 93.7657C64.6809 93.7657 64.6123 93.7865 64.554 93.8254C64.4957 93.8643 64.4502 93.9197 64.4234 93.9844C64.3966 94.0492 64.3895 94.1204 64.4032 94.1892C64.4169 94.2579 64.4507 94.321 64.5002 94.3706C64.5498 94.4201 64.613 94.4539 64.6818 94.4676C64.7506 94.4812 64.8219 94.4742 64.8867 94.4474C64.9515 94.4206 65.0069 94.3752 65.0458 94.3169C65.0848 94.2586 65.1056 94.1901 65.1056 94.12C65.1056 94.026 65.0682 93.9359 65.0017 93.8695C64.9352 93.803 64.845 93.7657 64.751 93.7657Z" fill="#274B5B"/>
<path opacity="0.2" d="M64.7511 95.6583C64.4466 95.6583 64.149 95.5681 63.8959 95.3991C63.6428 95.2301 63.4455 94.9898 63.329 94.7087C63.2125 94.4277 63.182 94.1184 63.2414 93.82C63.3008 93.5216 63.4474 93.2476 63.6626 93.0324C63.8779 92.8173 64.1522 92.6708 64.4508 92.6115C64.7494 92.5521 65.0589 92.5826 65.3401 92.699C65.6214 92.8154 65.8618 93.0126 66.031 93.2655C66.2001 93.5185 66.2904 93.8159 66.2904 94.1201C66.2904 94.5281 66.1282 94.9193 65.8395 95.2078C65.5509 95.4962 65.1593 95.6583 64.7511 95.6583ZM64.7511 93.5282C64.6339 93.5282 64.5194 93.5629 64.422 93.6279C64.3246 93.693 64.2487 93.7854 64.2038 93.8936C64.159 94.0018 64.1473 94.1208 64.1701 94.2356C64.193 94.3504 64.2494 94.4559 64.3322 94.5387C64.4151 94.6214 64.5206 94.6778 64.6355 94.7007C64.7504 94.7235 64.8695 94.7118 64.9778 94.667C65.086 94.6222 65.1785 94.5463 65.2436 94.449C65.3087 94.3516 65.3434 94.2372 65.3434 94.1201C65.3434 93.9631 65.281 93.8126 65.1699 93.7016C65.0589 93.5905 64.9082 93.5282 64.7511 93.5282Z" fill="#274B5B"/>
<path d="M83.6902 45.5018C83.526 45.5018 83.3655 45.4531 83.229 45.362C83.0925 45.2708 82.9861 45.1413 82.9233 44.9897C82.8605 44.8381 82.844 44.6714 82.8761 44.5104C82.9081 44.3495 82.9871 44.2017 83.1032 44.0857C83.2193 43.9697 83.3672 43.8907 83.5283 43.8587C83.6893 43.8267 83.8562 43.8431 84.0079 43.9059C84.1595 43.9687 84.2892 44.075 84.3804 44.2114C84.4716 44.3478 84.5203 44.5082 84.5203 44.6723C84.5203 44.7812 84.4988 44.8891 84.4571 44.9897C84.4154 45.0903 84.3543 45.1818 84.2772 45.2588C84.2001 45.3358 84.1086 45.3969 84.0079 45.4386C83.9071 45.4803 83.7992 45.5018 83.6902 45.5018ZM83.6902 44.3179C83.6201 44.3179 83.5515 44.3387 83.4932 44.3776C83.4349 44.4166 83.3894 44.4719 83.3626 44.5367C83.3358 44.6014 83.3287 44.6727 83.3424 44.7414C83.3561 44.8101 83.3899 44.8733 83.4395 44.9228C83.489 44.9724 83.5522 45.0061 83.621 45.0198C83.6898 45.0335 83.7611 45.0265 83.8259 44.9997C83.8907 44.9728 83.9461 44.9274 83.985 44.8691C84.024 44.8109 84.0448 44.7424 84.0448 44.6723C84.0448 44.5783 84.0074 44.4882 83.9409 44.4217C83.8744 44.3553 83.7842 44.3179 83.6902 44.3179Z" fill="#274B5B"/>
<path opacity="0.2" d="M83.6902 46.2103C83.3857 46.2103 83.0881 46.1201 82.835 45.9511C82.5819 45.7821 82.3846 45.5418 82.2681 45.2608C82.1515 44.9797 82.1211 44.6704 82.1805 44.372C82.2399 44.0736 82.3864 43.7996 82.6017 43.5844C82.817 43.3693 83.0913 43.2228 83.3899 43.1635C83.6885 43.1041 83.998 43.1346 84.2792 43.251C84.5605 43.3674 84.8009 43.5646 84.97 43.8175C85.1392 44.0705 85.2295 44.3679 85.2295 44.6721C85.2295 45.0801 85.0673 45.4713 84.7786 45.7598C84.4899 46.0483 84.0984 46.2103 83.6902 46.2103ZM83.6902 44.0802C83.573 44.0802 83.4585 44.1149 83.3611 44.1799C83.2637 44.245 83.1877 44.3374 83.1429 44.4456C83.0981 44.5538 83.0863 44.6728 83.1092 44.7876C83.1321 44.9024 83.1885 45.0079 83.2713 45.0907C83.3542 45.1734 83.4597 45.2298 83.5746 45.2527C83.6895 45.2755 83.8086 45.2638 83.9168 45.219C84.0251 45.1742 84.1176 45.0983 84.1827 45.001C84.2478 44.9036 84.2825 44.7892 84.2825 44.6721C84.2825 44.5151 84.2201 44.3646 84.109 44.2536C83.9979 44.1425 83.8473 44.0802 83.6902 44.0802Z" fill="#274B5B"/>
<path d="M53.8591 45.5018C53.695 45.5018 53.5345 45.4531 53.398 45.362C53.2615 45.2708 53.1551 45.1413 53.0922 44.9897C53.0294 44.8381 53.013 44.6714 53.045 44.5104C53.077 44.3495 53.1561 44.2017 53.2722 44.0857C53.3883 43.9697 53.5362 43.8907 53.6972 43.8587C53.8582 43.8267 54.0251 43.8431 54.1768 43.9059C54.3285 43.9687 54.4581 44.075 54.5493 44.2114C54.6406 44.3478 54.6892 44.5082 54.6892 44.6723C54.6892 44.7812 54.6678 44.8891 54.6261 44.9897C54.5843 45.0903 54.5232 45.1818 54.4461 45.2588C54.369 45.3358 54.2775 45.3969 54.1768 45.4386C54.0761 45.4803 53.9682 45.5018 53.8591 45.5018ZM53.8591 44.3179C53.789 44.3179 53.7205 44.3387 53.6621 44.3776C53.6038 44.4166 53.5584 44.4719 53.5315 44.5367C53.5047 44.6014 53.4977 44.6727 53.5114 44.7414C53.525 44.8101 53.5588 44.8733 53.6084 44.9228C53.658 44.9724 53.7212 45.0061 53.79 45.0198C53.8588 45.0335 53.9301 45.0265 53.9948 44.9997C54.0596 44.9728 54.115 44.9274 54.154 44.8691C54.193 44.8109 54.2138 44.7424 54.2138 44.6723C54.2138 44.5783 54.1764 44.4882 54.1099 44.4217C54.0434 44.3553 53.9532 44.3179 53.8591 44.3179Z" fill="#274B5B"/>
<path opacity="0.2" d="M53.8591 46.2103C53.5547 46.2103 53.2571 46.1201 53.0039 45.9511C52.7508 45.7821 52.5535 45.5418 52.437 45.2608C52.3205 44.9797 52.29 44.6704 52.3494 44.372C52.4088 44.0736 52.5554 43.7996 52.7707 43.5844C52.9859 43.3693 53.2602 43.2228 53.5588 43.1635C53.8574 43.1041 54.1669 43.1346 54.4482 43.251C54.7295 43.3674 54.9699 43.5646 55.139 43.8175C55.3081 44.0705 55.3984 44.3679 55.3984 44.6721C55.3984 45.0801 55.2362 45.4713 54.9476 45.7598C54.6589 46.0483 54.2674 46.2103 53.8591 46.2103ZM53.8591 44.0802C53.742 44.0802 53.6274 44.1149 53.53 44.1799C53.4326 44.245 53.3567 44.3374 53.3119 44.4456C53.267 44.5538 53.2553 44.6728 53.2782 44.7876C53.301 44.9024 53.3574 45.0079 53.4403 45.0907C53.5231 45.1734 53.6287 45.2298 53.7436 45.2527C53.8585 45.2755 53.9776 45.2638 54.0858 45.219C54.194 45.1742 54.2865 45.0983 54.3516 45.001C54.4167 44.9036 54.4515 44.7892 54.4515 44.6721C54.4515 44.5151 54.3891 44.3646 54.278 44.2536C54.1669 44.1425 54.0162 44.0802 53.8591 44.0802Z" fill="#274B5B"/>
<path d="M68.7766 45.5018C68.6125 45.5018 68.452 45.4531 68.3155 45.362C68.1789 45.2708 68.0725 45.1413 68.0097 44.9897C67.9469 44.8381 67.9305 44.6714 67.9625 44.5104C67.9945 44.3495 68.0736 44.2017 68.1897 44.0857C68.3058 43.9697 68.4537 43.8907 68.6147 43.8587C68.7757 43.8267 68.9426 43.8431 69.0943 43.9059C69.246 43.9687 69.3756 44.075 69.4668 44.2114C69.558 44.3478 69.6067 44.5082 69.6067 44.6723C69.6067 44.7812 69.5853 44.8891 69.5435 44.9897C69.5018 45.0903 69.4407 45.1818 69.3636 45.2588C69.2865 45.3358 69.195 45.3969 69.0943 45.4386C68.9936 45.4803 68.8856 45.5018 68.7766 45.5018ZM68.7766 44.3179C68.7065 44.3179 68.6379 44.3387 68.5796 44.3776C68.5213 44.4166 68.4759 44.4719 68.449 44.5367C68.4222 44.6014 68.4152 44.6727 68.4288 44.7414C68.4425 44.8101 68.4763 44.8733 68.5259 44.9228C68.5755 44.9724 68.6387 45.0061 68.7074 45.0198C68.7762 45.0335 68.8475 45.0265 68.9123 44.9997C68.9771 44.9728 69.0325 44.9274 69.0715 44.8691C69.1104 44.8109 69.1312 44.7424 69.1312 44.6723C69.1312 44.5783 69.0939 44.4882 69.0274 44.4217C68.9609 44.3553 68.8707 44.3179 68.7766 44.3179Z" fill="#274B5B"/>
<path opacity="0.2" d="M68.7766 46.2103C68.4722 46.2103 68.1746 46.1201 67.9214 45.9511C67.6683 45.7821 67.471 45.5418 67.3545 45.2608C67.238 44.9797 67.2075 44.6704 67.2669 44.372C67.3263 44.0736 67.4729 43.7996 67.6882 43.5844C67.9034 43.3693 68.1777 43.2228 68.4763 43.1635C68.7749 43.1041 69.0844 43.1346 69.3657 43.251C69.6469 43.3674 69.8873 43.5646 70.0565 43.8175C70.2256 44.0705 70.3159 44.3679 70.3159 44.6721C70.3159 45.0801 70.1537 45.4713 69.8651 45.7598C69.5764 46.0483 69.1849 46.2103 68.7766 46.2103ZM68.7766 44.0802C68.6595 44.0802 68.5449 44.1149 68.4475 44.1799C68.3501 44.245 68.2742 44.3374 68.2293 44.4456C68.1845 44.5538 68.1728 44.6728 68.1956 44.7876C68.2185 44.9024 68.2749 45.0079 68.3578 45.0907C68.4406 45.1734 68.5461 45.2298 68.661 45.2527C68.7759 45.2755 68.895 45.2638 69.0033 45.219C69.1115 45.1742 69.204 45.0983 69.2691 45.001C69.3342 44.9036 69.369 44.7892 69.369 44.6721C69.369 44.5151 69.3065 44.3646 69.1955 44.2536C69.0844 44.1425 68.9337 44.0802 68.7766 44.0802Z" fill="#274B5B"/>
<path d="M64.751 153.389C64.5868 153.389 64.4263 153.34 64.2898 153.249C64.1533 153.158 64.0469 153.029 63.9841 152.877C63.9213 152.725 63.9048 152.559 63.9368 152.398C63.9689 152.237 64.0479 152.089 64.164 151.973C64.2801 151.857 64.428 151.778 64.589 151.746C64.7501 151.714 64.917 151.73 65.0687 151.793C65.2203 151.856 65.35 151.962 65.4412 152.099C65.5324 152.235 65.5811 152.396 65.5811 152.56C65.5811 152.78 65.4936 152.991 65.338 153.146C65.1823 153.302 64.9711 153.389 64.751 153.389ZM64.751 152.205C64.6809 152.205 64.6123 152.226 64.554 152.265C64.4957 152.304 64.4502 152.359 64.4234 152.424C64.3966 152.489 64.3895 152.56 64.4032 152.629C64.4169 152.697 64.4507 152.761 64.5002 152.81C64.5498 152.86 64.613 152.893 64.6818 152.907C64.7506 152.921 64.8219 152.914 64.8867 152.887C64.9515 152.86 65.0069 152.815 65.0458 152.756C65.0848 152.698 65.1056 152.63 65.1056 152.56C65.1045 152.466 65.0667 152.377 65.0003 152.312C64.9339 152.246 64.8443 152.209 64.751 152.209V152.205Z" fill="#274B5B"/>
<path opacity="0.2" d="M64.7511 154.098C64.4466 154.098 64.149 154.008 63.8959 153.839C63.6428 153.67 63.4455 153.429 63.329 153.148C63.2125 152.867 63.182 152.558 63.2414 152.26C63.3008 151.961 63.4474 151.687 63.6626 151.472C63.8779 151.257 64.1522 151.11 64.4508 151.051C64.7494 150.992 65.0589 151.022 65.3401 151.139C65.6214 151.255 65.8618 151.452 66.031 151.705C66.2001 151.958 66.2904 152.255 66.2904 152.56C66.2904 152.968 66.1282 153.359 65.8395 153.647C65.5509 153.936 65.1593 154.098 64.7511 154.098ZM64.7511 151.968C64.6339 151.968 64.5194 152.002 64.422 152.067C64.3246 152.133 64.2487 152.225 64.2038 152.333C64.159 152.441 64.1473 152.56 64.1701 152.675C64.193 152.79 64.2494 152.895 64.3322 152.978C64.4151 153.061 64.5206 153.117 64.6355 153.14C64.7504 153.163 64.8695 153.151 64.9778 153.107C65.086 153.062 65.1785 152.986 65.2436 152.889C65.3087 152.791 65.3434 152.677 65.3434 152.56C65.3434 152.403 65.281 152.252 65.1699 152.141C65.0589 152.03 64.9082 151.968 64.7511 151.968Z" fill="#274B5B"/>
<path d="M64.751 170.732C64.5868 170.732 64.4263 170.683 64.2898 170.592C64.1533 170.501 64.0469 170.372 63.9841 170.22C63.9213 170.068 63.9048 169.902 63.9368 169.741C63.9689 169.58 64.0479 169.432 64.164 169.316C64.2801 169.2 64.428 169.121 64.589 169.089C64.7501 169.057 64.917 169.073 65.0687 169.136C65.2203 169.199 65.35 169.305 65.4412 169.442C65.5324 169.578 65.5811 169.739 65.5811 169.903C65.5811 170.123 65.4936 170.334 65.338 170.489C65.1823 170.645 64.9711 170.732 64.751 170.732ZM64.751 169.548C64.6809 169.548 64.6123 169.569 64.554 169.608C64.4957 169.647 64.4502 169.702 64.4234 169.767C64.3966 169.832 64.3895 169.903 64.4032 169.972C64.4169 170.04 64.4507 170.104 64.5002 170.153C64.5498 170.203 64.613 170.236 64.6818 170.25C64.7506 170.264 64.8219 170.257 64.8867 170.23C64.9515 170.203 65.0069 170.158 65.0458 170.099C65.0848 170.041 65.1056 169.973 65.1056 169.903C65.1035 169.81 65.0652 169.722 64.9989 169.657C64.9327 169.593 64.8437 169.556 64.751 169.556V169.548Z" fill="#274B5B"/>
<path opacity="0.2" d="M64.7511 171.449C64.4466 171.449 64.149 171.359 63.8959 171.19C63.6428 171.021 63.4455 170.78 63.329 170.499C63.2125 170.218 63.182 169.909 63.2414 169.611C63.3008 169.312 63.4474 169.038 63.6626 168.823C63.8779 168.608 64.1522 168.461 64.4508 168.402C64.7494 168.343 65.0589 168.373 65.3401 168.49C65.6214 168.606 65.8618 168.803 66.031 169.056C66.2001 169.309 66.2904 169.606 66.2904 169.911C66.2904 170.319 66.1282 170.71 65.8395 170.998C65.5509 171.287 65.1593 171.449 64.7511 171.449ZM64.7511 169.319C64.6339 169.319 64.5194 169.353 64.422 169.418C64.3246 169.484 64.2487 169.576 64.2038 169.684C64.159 169.792 64.1473 169.911 64.1701 170.026C64.193 170.141 64.2494 170.246 64.3322 170.329C64.4151 170.412 64.5206 170.468 64.6355 170.491C64.7504 170.514 64.8695 170.502 64.9778 170.458C65.086 170.413 65.1785 170.337 65.2436 170.239C65.3087 170.142 65.3434 170.028 65.3434 169.911C65.3434 169.754 65.281 169.603 65.1699 169.492C65.0589 169.381 64.9082 169.319 64.7511 169.319Z" fill="#274B5B"/>
<path d="M64.751 188.091C64.5868 188.091 64.4263 188.043 64.2898 187.951C64.1533 187.86 64.0469 187.731 63.9841 187.579C63.9213 187.428 63.9048 187.261 63.9368 187.1C63.9689 186.939 64.0479 186.791 64.164 186.675C64.2801 186.559 64.428 186.48 64.589 186.448C64.7501 186.416 64.917 186.433 65.0687 186.495C65.2203 186.558 65.35 186.664 65.4412 186.801C65.5324 186.937 65.5811 187.098 65.5811 187.262C65.5811 187.482 65.4936 187.693 65.338 187.848C65.1823 188.004 64.9711 188.091 64.751 188.091ZM64.751 186.907C64.6809 186.907 64.6123 186.928 64.554 186.967C64.4957 187.006 64.4502 187.061 64.4234 187.126C64.3966 187.191 64.3895 187.262 64.4032 187.331C64.4169 187.4 64.4507 187.463 64.5002 187.512C64.5498 187.562 64.613 187.596 64.6818 187.609C64.7506 187.623 64.8219 187.616 64.8867 187.589C64.9515 187.562 65.0069 187.517 65.0458 187.459C65.0848 187.4 65.1056 187.332 65.1056 187.262C65.1056 187.168 65.0682 187.078 65.0017 187.011C64.9352 186.945 64.845 186.907 64.751 186.907Z" fill="#274B5B"/>
<path opacity="0.2" d="M64.7511 188.8C64.4466 188.8 64.149 188.71 63.8959 188.541C63.6428 188.372 63.4455 188.131 63.329 187.85C63.2125 187.569 63.182 187.26 63.2414 186.961C63.3008 186.663 63.4474 186.389 63.6626 186.174C63.8779 185.959 64.1522 185.812 64.4508 185.753C64.7494 185.694 65.0589 185.724 65.3401 185.84C65.6214 185.957 65.8618 186.154 66.031 186.407C66.2001 186.66 66.2904 186.957 66.2904 187.262C66.2904 187.67 66.1282 188.061 65.8395 188.349C65.5509 188.638 65.1593 188.8 64.7511 188.8ZM64.7511 186.67C64.6339 186.67 64.5194 186.704 64.422 186.769C64.3246 186.834 64.2487 186.927 64.2038 187.035C64.159 187.143 64.1473 187.262 64.1701 187.377C64.193 187.492 64.2494 187.597 64.3322 187.68C64.4151 187.763 64.5206 187.819 64.6355 187.842C64.7504 187.865 64.8695 187.853 64.9778 187.808C65.086 187.764 65.1785 187.688 65.2436 187.59C65.3087 187.493 65.3434 187.379 65.3434 187.262C65.3434 187.105 65.281 186.954 65.1699 186.843C65.0589 186.732 64.9082 186.67 64.7511 186.67Z" fill="#274B5B"/>
<path d="M64.751 205.438C64.5868 205.438 64.4263 205.39 64.2898 205.298C64.1533 205.207 64.0469 205.078 63.9841 204.926C63.9213 204.775 63.9048 204.608 63.9368 204.447C63.9689 204.286 64.0479 204.138 64.164 204.022C64.2801 203.906 64.428 203.827 64.589 203.795C64.7501 203.763 64.917 203.78 65.0687 203.842C65.2203 203.905 65.35 204.011 65.4412 204.148C65.5324 204.284 65.5811 204.445 65.5811 204.609C65.5811 204.829 65.4936 205.04 65.338 205.195C65.1823 205.351 64.9711 205.438 64.751 205.438ZM64.751 204.254C64.6809 204.254 64.6123 204.275 64.554 204.314C64.4957 204.353 64.4502 204.408 64.4234 204.473C64.3966 204.538 64.3895 204.609 64.4032 204.678C64.4169 204.747 64.4507 204.81 64.5002 204.859C64.5498 204.909 64.613 204.943 64.6818 204.956C64.7506 204.97 64.8219 204.963 64.8867 204.936C64.9515 204.909 65.0069 204.864 65.0458 204.806C65.0848 204.747 65.1056 204.679 65.1056 204.609C65.1056 204.515 65.0682 204.425 65.0017 204.358C64.9352 204.292 64.845 204.254 64.751 204.254Z" fill="#274B5B"/>
<path opacity="0.2" d="M64.7511 206.167C64.4466 206.167 64.149 206.077 63.8959 205.908C63.6428 205.739 63.4455 205.499 63.329 205.218C63.2125 204.936 63.182 204.627 63.2414 204.329C63.3008 204.03 63.4474 203.756 63.6626 203.541C63.8779 203.326 64.1522 203.18 64.4508 203.12C64.7494 203.061 65.0589 203.091 65.3401 203.208C65.6214 203.324 65.8618 203.521 66.031 203.774C66.2001 204.027 66.2904 204.325 66.2904 204.629C66.2904 205.037 66.1282 205.428 65.8395 205.717C65.5509 206.005 65.1593 206.167 64.7511 206.167ZM64.7511 204.037C64.6339 204.037 64.5194 204.072 64.422 204.137C64.3246 204.202 64.2487 204.294 64.2038 204.402C64.159 204.511 64.1473 204.63 64.1701 204.744C64.193 204.859 64.2494 204.965 64.3322 205.047C64.4151 205.13 64.5206 205.187 64.6355 205.209C64.7504 205.232 64.8695 205.221 64.9778 205.176C65.086 205.131 65.1785 205.055 65.2436 204.958C65.3087 204.86 65.3434 204.746 65.3434 204.629C65.3456 204.55 65.3319 204.471 65.3031 204.397C65.2743 204.324 65.231 204.257 65.1757 204.2C65.1205 204.143 65.0545 204.098 64.9816 204.067C64.9086 204.037 64.8302 204.021 64.7511 204.021V204.037Z" fill="#274B5B"/>
<path opacity="0.6" d="M70.1951 118.844C81.2446 118.844 90.2019 109.893 90.2019 98.8514C90.2019 87.8099 81.2446 78.8589 70.1951 78.8589C59.1456 78.8589 50.1882 87.8099 50.1882 98.8514C50.1882 109.893 59.1456 118.844 70.1951 118.844Z" fill="#5C7869"/>
<path d="M70.4329 111.511C81.4823 111.511 90.4397 102.56 90.4397 91.5188C90.4397 80.4772 81.4823 71.5262 70.4329 71.5262C59.3834 71.5262 50.426 80.4772 50.426 91.5188C50.426 102.56 59.3834 111.511 70.4329 111.511Z" fill="#C1F1FF"/>
<path opacity="0.2" d="M70.195 110.331C66.7529 110.331 63.388 109.311 60.526 107.4C57.664 105.49 55.4333 102.773 54.1161 99.5955C52.7988 96.4177 52.4541 92.9209 53.1257 89.5473C53.7972 86.1737 55.4547 83.0749 57.8887 80.6426C60.3227 78.2104 63.4237 76.5541 66.7997 75.883C70.1757 75.212 73.675 75.5564 76.8551 76.8727C80.0353 78.189 82.7533 80.4181 84.6657 83.2781C86.578 86.138 87.5988 89.5005 87.5988 92.9401C87.5945 97.5513 85.7595 101.972 82.4966 105.233C79.2337 108.494 74.8095 110.327 70.195 110.331ZM70.195 76.7367C66.9872 76.7367 63.8514 77.6873 61.1842 79.4682C58.517 81.2491 56.4381 83.7803 55.2106 86.7418C53.983 89.7034 53.6618 92.9621 54.2876 96.1061C54.9134 99.25 56.4581 102.138 58.7264 104.405C60.9947 106.671 63.8846 108.215 67.0308 108.84C70.177 109.466 73.4381 109.145 76.4018 107.918C79.3654 106.691 81.8985 104.614 83.6806 101.949C85.4628 99.2832 86.4141 96.1497 86.4141 92.9442C86.4109 88.6463 84.7012 84.5253 81.6603 81.4859C78.6195 78.4464 74.496 76.7369 70.195 76.7327V76.7367Z" fill="#274B5B"/>
<path d="M77.126 73.6886L65.7102 112.003C62.7963 111.221 60.0984 109.788 57.8203 107.811L68.2368 72.8833C71.2228 72.4818 74.2609 72.757 77.126 73.6886Z" fill="#F2F2F2"/>
<path d="M83.4805 77.1557L72.919 112.591C72.2496 112.659 71.5771 112.692 70.9042 112.691C70.0961 112.692 69.2887 112.644 68.4865 112.546L79.7411 74.7638C81.0725 75.42 82.3267 76.2222 83.4805 77.1557Z" fill="#F2F2F2"/>
<path opacity="0.8" d="M56.1076 97.1561C55.9945 97.1555 55.8853 97.1147 55.7996 97.0409C55.7139 96.9671 55.6574 96.8652 55.6401 96.7535C54.9566 92.4223 55.7801 87.9879 57.9733 84.1901C59.2144 82.0641 60.6731 80.7876 62.3131 80.405C62.3756 80.3851 62.4415 80.3782 62.5067 80.3849C62.5719 80.3917 62.6351 80.4118 62.6921 80.444C62.7492 80.4763 62.799 80.52 62.8383 80.5724C62.8777 80.6248 62.9058 80.6848 62.9208 80.7485C62.9359 80.8123 62.9376 80.8785 62.9258 80.943C62.914 81.0074 62.889 81.0687 62.8524 81.1231C62.8157 81.1774 62.7683 81.2236 62.7129 81.2587C62.6576 81.2938 62.5955 81.3171 62.5307 81.3272C61.1566 81.6493 59.8994 82.7768 58.7953 84.6693C56.7119 88.2786 55.9296 92.4926 56.579 96.6085C56.5887 96.6704 56.5859 96.7337 56.5708 96.7946C56.5557 96.8554 56.5286 96.9127 56.4911 96.9629C56.4535 97.0132 56.4063 97.0554 56.3522 97.0872C56.2982 97.119 56.2383 97.1397 56.1761 97.1481L56.1076 97.1561Z" fill="white"/>
<path d="M83.9278 94.2248C83.7636 94.2248 83.6031 94.1761 83.4666 94.085C83.3301 93.9939 83.2237 93.8643 83.1609 93.7127C83.098 93.5612 83.0816 93.3944 83.1136 93.2335C83.1456 93.0726 83.2247 92.9248 83.3408 92.8087C83.4569 92.6927 83.6048 92.6137 83.7658 92.5817C83.9268 92.5497 84.0937 92.5662 84.2454 92.6289C84.3971 92.6917 84.5267 92.798 84.618 92.9345C84.7092 93.0709 84.7579 93.2312 84.7579 93.3953C84.7579 93.6153 84.6704 93.8263 84.5147 93.9818C84.3591 94.1374 84.1479 94.2248 83.9278 94.2248ZM83.9278 93.0409C83.8576 93.0409 83.7891 93.0617 83.7308 93.1007C83.6724 93.1396 83.627 93.1949 83.6002 93.2597C83.5733 93.3244 83.5663 93.3957 83.58 93.4644C83.5937 93.5332 83.6274 93.5963 83.677 93.6459C83.7266 93.6954 83.7898 93.7292 83.8586 93.7428C83.9274 93.7565 83.9987 93.7495 84.0635 93.7227C84.1283 93.6959 84.1836 93.6504 84.2226 93.5922C84.2616 93.5339 84.2824 93.4654 84.2824 93.3953C84.2782 93.3041 84.239 93.2181 84.173 93.1551C84.1069 93.0921 84.0191 93.057 83.9278 93.0571V93.0409Z" fill="#274B5B"/>
<path opacity="0.2" d="M83.9278 94.9496C83.6234 94.9496 83.3258 94.8594 83.0727 94.6903C82.8195 94.5213 82.6222 94.2811 82.5057 94C82.3892 93.7189 82.3587 93.4097 82.4181 93.1113C82.4775 92.8129 82.6241 92.5388 82.8394 92.3237C83.0547 92.1086 83.3289 91.9621 83.6275 91.9027C83.9261 91.8434 84.2356 91.8738 84.5169 91.9903C84.7982 92.1067 85.0386 92.3038 85.2077 92.5568C85.3769 92.8098 85.4671 93.1071 85.4671 93.4114C85.4671 93.8193 85.305 94.2106 85.0163 94.4991C84.7276 94.7875 84.3361 94.9496 83.9278 94.9496ZM83.9278 92.8194C83.8107 92.8194 83.6962 92.8542 83.5987 92.9192C83.5013 92.9842 83.4254 93.0767 83.3806 93.1849C83.3357 93.293 83.324 93.412 83.3469 93.5269C83.3697 93.6417 83.4261 93.7471 83.509 93.8299C83.5918 93.9127 83.6974 93.9691 83.8123 93.9919C83.9272 94.0148 84.0463 94.003 84.1545 93.9582C84.2628 93.9134 84.3553 93.8376 84.4204 93.7402C84.4854 93.6429 84.5202 93.5284 84.5202 93.4114C84.5202 93.3336 84.5049 93.2567 84.4751 93.1849C84.4453 93.113 84.4017 93.0478 84.3467 92.9928C84.2917 92.9379 84.2264 92.8943 84.1545 92.8645C84.0827 92.8348 84.0056 92.8194 83.9278 92.8194Z" fill="#274B5B"/>
<path d="M70.1951 115.413C65.7464 115.413 61.3976 114.095 57.6986 111.625C53.9997 109.155 51.1167 105.645 49.4142 101.538C47.7118 97.4306 47.2663 92.9112 48.1342 88.5511C49.0021 84.191 51.1444 80.186 54.2901 77.0425C57.4358 73.899 61.4437 71.7583 65.8069 70.891C70.1702 70.0237 74.6928 70.4688 78.8029 72.1701C82.9129 73.8713 86.4259 76.7523 88.8975 80.4486C91.369 84.1449 92.6882 88.4906 92.6882 92.9362C92.6818 98.8955 90.31 104.609 86.0931 108.823C81.8762 113.037 76.1587 115.407 70.1951 115.413ZM70.1951 75.4281C66.7299 75.4281 63.3425 76.4549 60.4612 78.3787C57.58 80.3025 55.3343 83.0369 54.0082 86.2361C52.6821 89.4353 52.3352 92.9556 53.0112 96.3518C53.6872 99.748 55.3559 102.868 57.8062 105.316C60.2565 107.765 63.3784 109.432 66.777 110.108C70.1757 110.783 73.6985 110.437 76.9 109.112C80.1014 107.786 82.8378 105.542 84.763 102.663C86.6882 99.7839 87.7157 96.3989 87.7157 92.9362C87.7093 88.2951 85.8612 83.8459 82.5768 80.5646C79.2923 77.2832 74.8396 75.4374 70.1951 75.4321V75.4281Z" fill="#274B5B"/>
<path d="M57.5019 207.331V172.806C57.4871 161.129 61.8902 149.878 69.8283 141.309C77.621 149.854 81.9332 161.003 81.9171 172.564V207.287" fill="#F2F2F2"/>
<path d="M71.5006 145.928C64.4769 154.103 60.6171 164.523 60.6208 175.298V209.227H57.7799V175.298C57.7797 163.784 62.1904 152.707 70.1064 144.341C70.5819 144.862 71.0466 145.391 71.5006 145.928Z" fill="white"/>
<path d="M79.5477 174.63V208.752L69.7478 208.772C78.8667 190.459 75.9735 165.783 74.1239 153.204C77.6841 159.785 79.5481 167.149 79.5477 174.63Z" fill="#8BBACC"/>
<g opacity="0.4">
<path opacity="0.4" d="M47.9639 146.04C49.4871 143.576 50.567 141.486 50.7322 141.559C50.8974 141.631 50.023 143.854 48.4756 146.354C46.9283 148.855 45.3366 150.635 45.2117 150.534C45.0868 150.433 46.4528 148.509 47.9639 146.04Z" fill="#426270"/>
<path opacity="0.4" d="M50.3794 147.602C51.3592 145.936 52.0369 144.517 51.893 144.432C51.7491 144.348 50.8381 145.63 49.8583 147.296C48.8785 148.962 48.2009 150.381 48.3448 150.466C48.4887 150.55 49.3996 149.268 50.3794 147.602Z" fill="#426270"/>
<path opacity="0.4" d="M48.5643 147.675C50.7887 148.573 52.6463 149.193 52.5939 149.358C52.5415 149.523 50.5791 149.153 48.3306 148.235C46.0821 147.317 44.3937 146.222 44.4743 146.093C44.5549 145.964 46.336 146.785 48.5643 147.675Z" fill="#426270"/>
<path opacity="0.4" d="M50.6678 147.075C52.6826 148.022 54.3871 148.617 54.3388 148.783C54.2904 148.948 52.4771 148.585 50.414 147.623C48.3508 146.661 46.9042 145.493 46.9969 145.372C47.0896 145.251 48.653 146.145 50.6678 147.075Z" fill="#426270"/>
</g>
<path d="M64.9889 164.507C64.8247 164.507 64.6642 164.458 64.5277 164.367C64.3912 164.276 64.2848 164.146 64.222 163.995C64.1592 163.843 64.1427 163.676 64.1748 163.515C64.2068 163.355 64.2859 163.207 64.4019 163.091C64.518 162.975 64.6659 162.896 64.827 162.864C64.988 162.832 65.1549 162.848 65.3066 162.911C65.4582 162.974 65.5879 163.08 65.6791 163.216C65.7703 163.353 65.819 163.513 65.819 163.677C65.819 163.897 65.7315 164.108 65.5759 164.264C65.4202 164.419 65.2091 164.507 64.9889 164.507ZM64.9889 163.323C64.9188 163.323 64.8502 163.344 64.7919 163.383C64.7336 163.422 64.6881 163.477 64.6613 163.542C64.6345 163.606 64.6274 163.678 64.6411 163.746C64.6548 163.815 64.6886 163.878 64.7382 163.928C64.7878 163.977 64.8509 164.011 64.9197 164.025C64.9885 164.038 65.0598 164.031 65.1246 164.005C65.1894 163.978 65.2448 163.932 65.2838 163.874C65.3227 163.816 65.3435 163.747 65.3435 163.677C65.3424 163.584 65.3046 163.495 65.2382 163.429C65.1719 163.364 65.0823 163.327 64.9889 163.327V163.323Z" fill="#274B5B"/>
<path opacity="0.2" d="M64.9889 165.22C64.6844 165.22 64.3868 165.129 64.1337 164.96C63.8806 164.791 63.6833 164.551 63.5668 164.27C63.4503 163.989 63.4198 163.68 63.4792 163.381C63.5386 163.083 63.6852 162.809 63.9004 162.594C64.1157 162.379 64.39 162.232 64.6886 162.173C64.9872 162.113 65.2967 162.144 65.5779 162.26C65.8592 162.377 66.0996 162.574 66.2688 162.827C66.4379 163.08 66.5282 163.377 66.5282 163.681C66.5282 164.089 66.366 164.481 66.0773 164.769C65.7887 165.058 65.3971 165.22 64.9889 165.22ZM64.9889 163.089C64.8717 163.089 64.7572 163.124 64.6598 163.189C64.5624 163.254 64.4865 163.347 64.4416 163.455C64.3968 163.563 64.3851 163.682 64.4079 163.797C64.4308 163.912 64.4872 164.017 64.57 164.1C64.6529 164.183 64.7584 164.239 64.8733 164.262C64.9882 164.285 65.1073 164.273 65.2156 164.228C65.3238 164.183 65.4163 164.108 65.4814 164.01C65.5465 163.913 65.5812 163.798 65.5812 163.681C65.5823 163.603 65.5678 163.525 65.5385 163.452C65.5092 163.38 65.4657 163.313 65.4106 163.258C65.3555 163.202 65.2898 163.157 65.2174 163.127C65.145 163.097 65.0674 163.081 64.9889 163.081V163.089Z" fill="#274B5B"/>
<path d="M64.9889 199.052C64.8247 199.052 64.6642 199.003 64.5277 198.912C64.3912 198.821 64.2848 198.691 64.222 198.54C64.1592 198.388 64.1427 198.221 64.1748 198.061C64.2068 197.9 64.2859 197.752 64.4019 197.636C64.518 197.52 64.6659 197.441 64.827 197.409C64.988 197.377 65.1549 197.393 65.3066 197.456C65.4582 197.519 65.5879 197.625 65.6791 197.761C65.7703 197.898 65.819 198.058 65.819 198.222C65.819 198.442 65.7315 198.653 65.5759 198.809C65.4202 198.964 65.2091 199.052 64.9889 199.052ZM64.9889 197.868C64.9188 197.868 64.8502 197.889 64.7919 197.928C64.7336 197.967 64.6881 198.022 64.6613 198.087C64.6345 198.151 64.6274 198.223 64.6411 198.291C64.6548 198.36 64.6886 198.423 64.7382 198.473C64.7878 198.522 64.8509 198.556 64.9197 198.57C64.9885 198.584 65.0598 198.577 65.1246 198.55C65.1894 198.523 65.2448 198.477 65.2838 198.419C65.3227 198.361 65.3435 198.292 65.3435 198.222C65.3435 198.128 65.3062 198.038 65.2397 197.972C65.1732 197.905 65.083 197.868 64.9889 197.868Z" fill="#274B5B"/>
<path opacity="0.2" d="M64.9889 199.761C64.6844 199.761 64.3868 199.67 64.1337 199.501C63.8806 199.332 63.6833 199.092 63.5668 198.811C63.4503 198.53 63.4198 198.221 63.4792 197.922C63.5386 197.624 63.6852 197.35 63.9004 197.135C64.1157 196.92 64.39 196.773 64.6886 196.714C64.9872 196.654 65.2967 196.685 65.5779 196.801C65.8592 196.918 66.0996 197.115 66.2688 197.368C66.4379 197.621 66.5282 197.918 66.5282 198.222C66.5282 198.63 66.366 199.022 66.0773 199.31C65.7887 199.599 65.3971 199.761 64.9889 199.761ZM64.9889 197.63C64.8717 197.63 64.7572 197.665 64.6598 197.73C64.5624 197.795 64.4865 197.888 64.4416 197.996C64.3968 198.104 64.3851 198.223 64.4079 198.338C64.4308 198.453 64.4872 198.558 64.57 198.641C64.6529 198.724 64.7584 198.78 64.8733 198.803C64.9882 198.826 65.1073 198.814 65.2156 198.769C65.3238 198.724 65.4163 198.649 65.4814 198.551C65.5465 198.454 65.5812 198.339 65.5812 198.222C65.5812 198.065 65.5188 197.915 65.4077 197.804C65.2966 197.693 65.146 197.63 64.9889 197.63Z" fill="#274B5B"/>
<path d="M64.9889 181.781C64.8247 181.781 64.6642 181.733 64.5277 181.642C64.3912 181.55 64.2848 181.421 64.222 181.269C64.1592 181.118 64.1427 180.951 64.1748 180.79C64.2068 180.629 64.2859 180.481 64.4019 180.365C64.518 180.249 64.6659 180.17 64.827 180.138C64.988 180.106 65.1549 180.123 65.3066 180.185C65.4582 180.248 65.5879 180.355 65.6791 180.491C65.7703 180.627 65.819 180.788 65.819 180.952C65.819 181.172 65.7315 181.383 65.5759 181.538C65.4202 181.694 65.2091 181.781 64.9889 181.781ZM64.9889 180.597C64.9188 180.597 64.8502 180.618 64.7919 180.657C64.7336 180.696 64.6881 180.751 64.6613 180.816C64.6345 180.881 64.6274 180.952 64.6411 181.021C64.6548 181.09 64.6886 181.153 64.7382 181.202C64.7878 181.252 64.8509 181.286 64.9197 181.299C64.9885 181.313 65.0598 181.306 65.1246 181.279C65.1894 181.252 65.2448 181.207 65.2838 181.149C65.3227 181.09 65.3435 181.022 65.3435 180.952C65.3435 180.858 65.3062 180.768 65.2397 180.701C65.1732 180.635 65.083 180.597 64.9889 180.597Z" fill="#274B5B"/>
<path opacity="0.2" d="M64.9889 182.49C64.6844 182.49 64.3868 182.4 64.1337 182.231C63.8806 182.062 63.6833 181.822 63.5668 181.541C63.4503 181.259 63.4198 180.95 63.4792 180.652C63.5386 180.353 63.6852 180.079 63.9004 179.864C64.1157 179.649 64.39 179.503 64.6886 179.443C64.9872 179.384 65.2967 179.414 65.5779 179.531C65.8592 179.647 66.0996 179.844 66.2688 180.097C66.4379 180.35 66.5282 180.648 66.5282 180.952C66.5282 181.36 66.366 181.751 66.0773 182.04C65.7887 182.328 65.3971 182.49 64.9889 182.49ZM64.9889 180.36C64.8717 180.36 64.7572 180.395 64.6598 180.46C64.5624 180.525 64.4865 180.617 64.4416 180.725C64.3968 180.834 64.3851 180.953 64.4079 181.067C64.4308 181.182 64.4872 181.288 64.57 181.37C64.6529 181.453 64.7584 181.51 64.8733 181.532C64.9882 181.555 65.1073 181.544 65.2156 181.499C65.3238 181.454 65.4163 181.378 65.4814 181.281C65.5465 181.183 65.5812 181.069 65.5812 180.952C65.5812 180.795 65.5188 180.644 65.4077 180.533C65.2966 180.422 65.146 180.36 64.9889 180.36Z" fill="#274B5B"/>
<path d="M72.5644 164.507C72.4002 164.507 72.2397 164.458 72.1032 164.367C71.9667 164.276 71.8603 164.146 71.7974 163.995C71.7346 163.843 71.7182 163.676 71.7502 163.515C71.7822 163.355 71.8613 163.207 71.9774 163.091C72.0935 162.975 72.2414 162.896 72.4024 162.864C72.5634 162.832 72.7303 162.848 72.882 162.911C73.0337 162.974 73.1633 163.08 73.2546 163.216C73.3458 163.353 73.3944 163.513 73.3944 163.677C73.3944 163.897 73.307 164.108 73.1513 164.264C72.9956 164.419 72.7845 164.507 72.5644 164.507ZM72.5644 163.323C72.4942 163.323 72.4257 163.344 72.3673 163.383C72.309 163.422 72.2636 163.477 72.2367 163.542C72.2099 163.606 72.2029 163.678 72.2166 163.746C72.2302 163.815 72.264 163.878 72.3136 163.928C72.3632 163.977 72.4264 164.011 72.4952 164.025C72.564 164.038 72.6353 164.031 72.7001 164.005C72.7648 163.978 72.8202 163.932 72.8592 163.874C72.8982 163.816 72.919 163.747 72.919 163.677C72.9179 163.584 72.8801 163.495 72.8137 163.429C72.7473 163.364 72.6577 163.327 72.5644 163.327V163.323Z" fill="#274B5B"/>
<path opacity="0.2" d="M72.5645 165.22C72.26 165.22 71.9624 165.129 71.7093 164.96C71.4561 164.791 71.2588 164.551 71.1423 164.27C71.0258 163.989 70.9953 163.68 71.0547 163.381C71.1141 163.083 71.2607 162.809 71.476 162.594C71.6913 162.379 71.9656 162.232 72.2642 162.173C72.5627 162.113 72.8722 162.144 73.1535 162.26C73.4348 162.377 73.6752 162.574 73.8443 162.827C74.0135 163.08 74.1038 163.377 74.1038 163.681C74.1038 164.089 73.9416 164.481 73.6529 164.769C73.3642 165.058 72.9727 165.22 72.5645 165.22ZM72.5645 163.089C72.4473 163.089 72.3328 163.124 72.2354 163.189C72.138 163.254 72.062 163.347 72.0172 163.455C71.9724 163.563 71.9606 163.682 71.9835 163.797C72.0063 163.912 72.0628 164.017 72.1456 164.1C72.2284 164.183 72.334 164.239 72.4489 164.262C72.5638 164.285 72.6829 164.273 72.7911 164.228C72.8994 164.183 72.9919 164.108 73.057 164.01C73.1221 163.913 73.1568 163.798 73.1568 163.681C73.1579 163.603 73.1433 163.525 73.114 163.452C73.0848 163.38 73.0413 163.313 72.9862 163.258C72.9311 163.202 72.8654 163.157 72.793 163.127C72.7206 163.097 72.6429 163.081 72.5645 163.081V163.089Z" fill="#274B5B"/>
<path d="M72.5644 199.052C72.4002 199.052 72.2397 199.003 72.1032 198.912C71.9667 198.821 71.8603 198.691 71.7974 198.54C71.7346 198.388 71.7182 198.221 71.7502 198.061C71.7822 197.9 71.8613 197.752 71.9774 197.636C72.0935 197.52 72.2414 197.441 72.4024 197.409C72.5634 197.377 72.7303 197.393 72.882 197.456C73.0337 197.519 73.1633 197.625 73.2546 197.761C73.3458 197.898 73.3944 198.058 73.3944 198.222C73.3944 198.442 73.307 198.653 73.1513 198.809C72.9956 198.964 72.7845 199.052 72.5644 199.052ZM72.5644 197.868C72.4942 197.868 72.4257 197.889 72.3673 197.928C72.309 197.967 72.2636 198.022 72.2367 198.087C72.2099 198.151 72.2029 198.223 72.2166 198.291C72.2302 198.36 72.264 198.423 72.3136 198.473C72.3632 198.522 72.4264 198.556 72.4952 198.57C72.564 198.584 72.6353 198.577 72.7001 198.55C72.7648 198.523 72.8202 198.477 72.8592 198.419C72.8982 198.361 72.919 198.292 72.919 198.222C72.919 198.128 72.8816 198.038 72.8151 197.972C72.7486 197.905 72.6584 197.868 72.5644 197.868Z" fill="#274B5B"/>
<path opacity="0.2" d="M72.5645 199.761C72.26 199.761 71.9624 199.67 71.7093 199.501C71.4561 199.332 71.2588 199.092 71.1423 198.811C71.0258 198.53 70.9953 198.221 71.0547 197.922C71.1141 197.624 71.2607 197.35 71.476 197.135C71.6913 196.92 71.9656 196.773 72.2642 196.714C72.5627 196.654 72.8722 196.685 73.1535 196.801C73.4348 196.918 73.6752 197.115 73.8443 197.368C74.0135 197.621 74.1038 197.918 74.1038 198.222C74.1038 198.63 73.9416 199.022 73.6529 199.31C73.3642 199.599 72.9727 199.761 72.5645 199.761ZM72.5645 197.63C72.4473 197.63 72.3328 197.665 72.2354 197.73C72.138 197.795 72.062 197.888 72.0172 197.996C71.9724 198.104 71.9606 198.223 71.9835 198.338C72.0063 198.453 72.0628 198.558 72.1456 198.641C72.2284 198.724 72.334 198.78 72.4489 198.803C72.5638 198.826 72.6829 198.814 72.7911 198.769C72.8994 198.724 72.9919 198.649 73.057 198.551C73.1221 198.454 73.1568 198.339 73.1568 198.222C73.1568 198.145 73.1415 198.068 73.1117 197.996C73.0819 197.924 73.0383 197.859 72.9833 197.804C72.9283 197.749 72.863 197.705 72.7911 197.676C72.7193 197.646 72.6422 197.63 72.5645 197.63Z" fill="#274B5B"/>
<path d="M72.5644 181.781C72.4002 181.781 72.2397 181.733 72.1032 181.642C71.9667 181.55 71.8603 181.421 71.7974 181.269C71.7346 181.118 71.7182 180.951 71.7502 180.79C71.7822 180.629 71.8613 180.481 71.9774 180.365C72.0935 180.249 72.2414 180.17 72.4024 180.138C72.5634 180.106 72.7303 180.123 72.882 180.185C73.0337 180.248 73.1633 180.355 73.2546 180.491C73.3458 180.627 73.3944 180.788 73.3944 180.952C73.3944 181.172 73.307 181.383 73.1513 181.538C72.9956 181.694 72.7845 181.781 72.5644 181.781ZM72.5644 180.597C72.4942 180.597 72.4257 180.618 72.3673 180.657C72.309 180.696 72.2636 180.751 72.2367 180.816C72.2099 180.881 72.2029 180.952 72.2166 181.021C72.2302 181.09 72.264 181.153 72.3136 181.202C72.3632 181.252 72.4264 181.286 72.4952 181.299C72.564 181.313 72.6353 181.306 72.7001 181.279C72.7648 181.252 72.8202 181.207 72.8592 181.149C72.8982 181.09 72.919 181.022 72.919 180.952C72.919 180.858 72.8816 180.768 72.8151 180.701C72.7486 180.635 72.6584 180.597 72.5644 180.597Z" fill="#274B5B"/>
<path opacity="0.2" d="M72.5645 182.49C72.26 182.49 71.9624 182.4 71.7093 182.231C71.4561 182.062 71.2588 181.822 71.1423 181.541C71.0258 181.259 70.9953 180.95 71.0547 180.652C71.1141 180.353 71.2607 180.079 71.476 179.864C71.6913 179.649 71.9656 179.503 72.2642 179.443C72.5627 179.384 72.8722 179.414 73.1535 179.531C73.4348 179.647 73.6752 179.844 73.8443 180.097C74.0135 180.35 74.1038 180.648 74.1038 180.952C74.1038 181.36 73.9416 181.751 73.6529 182.04C73.3642 182.328 72.9727 182.49 72.5645 182.49ZM72.5645 180.36C72.4473 180.36 72.3328 180.395 72.2354 180.46C72.138 180.525 72.062 180.617 72.0172 180.725C71.9724 180.834 71.9606 180.953 71.9835 181.067C72.0063 181.182 72.0628 181.288 72.1456 181.37C72.2284 181.453 72.334 181.51 72.4489 181.532C72.5638 181.555 72.6829 181.544 72.7911 181.499C72.8994 181.454 72.9919 181.378 73.057 181.281C73.1221 181.183 73.1568 181.069 73.1568 180.952C73.1568 180.874 73.1415 180.797 73.1117 180.725C73.0819 180.654 73.0383 180.588 72.9833 180.533C72.9283 180.478 72.863 180.435 72.7911 180.405C72.7193 180.375 72.6422 180.36 72.5645 180.36Z" fill="#274B5B"/>
<path d="M69.3691 143.689H68.4221V207.806H69.3691V143.689Z" fill="#274B5B"/>
<path opacity="0.2" d="M68.6558 146.052H67.7089V207.093H68.6558V146.052Z" fill="#274B5B"/>
<path opacity="0.8" d="M70.5496 146.052H69.6027V206.856H70.5496V146.052Z" fill="white"/>
<path d="M83.8111 222.117H53.7424C50.4464 222.114 47.2863 220.804 44.9557 218.475C42.6251 216.146 41.3144 212.988 41.3112 209.694V207.919H96.2424V209.694C96.2392 212.988 94.9284 216.146 92.5978 218.475C90.2672 220.804 87.1071 222.114 83.8111 222.117ZM45.0425 211.47C45.4542 213.473 46.5443 215.273 48.129 216.566C49.7138 217.859 51.6964 218.567 53.7424 218.569H83.8111C85.8571 218.567 87.8397 217.859 89.4245 216.566C91.0092 215.273 92.0993 213.473 92.511 211.47H45.0425Z" fill="#274B5B"/>
<path opacity="0.15" d="M94.0341 63.9923C95.6863 63.5947 97.4288 63.8688 98.8788 64.7545C100.329 65.6402 101.368 67.065 101.767 68.7156L103.29 75.0214C103.688 76.6724 103.414 78.4138 102.527 79.8627C101.641 81.3117 100.215 82.3497 98.5633 82.7487C96.9111 83.1463 95.1686 82.8722 93.7186 81.9865C92.2686 81.1008 91.2298 79.676 90.8306 78.0254L89.3074 71.7196C88.9095 70.0686 89.1838 68.3272 90.0701 66.8783C90.9565 65.4293 92.3822 64.3913 94.0341 63.9923Z" fill="white"/>
<path opacity="0.15" d="M88.3443 61.2059C89.7519 60.2536 91.4803 59.899 93.1495 60.2199C94.8187 60.5408 96.292 61.511 97.2456 62.9172C98.1985 64.3238 98.5534 66.051 98.2322 67.719C97.9111 69.387 96.9402 70.8593 95.533 71.8122C94.1254 72.7644 92.397 73.1191 90.7278 72.7981C89.0586 72.4772 87.5852 71.507 86.6317 70.1008C85.6788 68.6942 85.3239 66.967 85.645 65.299C85.9662 63.631 86.9371 62.1587 88.3443 61.2059Z" fill="white"/>
<g opacity="0.4">
<path opacity="0.4" d="M93.6593 109.84C95.1825 107.376 96.2624 105.286 96.4276 105.359C96.5929 105.431 95.7184 107.654 94.1711 110.154C92.6237 112.655 91.032 114.435 90.9071 114.334C90.7822 114.233 92.1482 112.313 93.6593 109.84Z" fill="#426270"/>
<path opacity="0.4" d="M96.0739 111.405C97.0537 109.739 97.7313 108.32 97.5874 108.236C97.4435 108.151 96.5326 109.433 95.5528 111.099C94.573 112.766 93.8953 114.185 94.0392 114.269C94.1831 114.354 95.0941 113.072 96.0739 111.405Z" fill="#426270"/>
<path opacity="0.4" d="M94.2476 111.479C96.4719 112.377 98.3295 112.997 98.2772 113.162C98.2248 113.327 96.2624 112.957 94.0139 112.039C91.7654 111.121 90.077 110.025 90.1576 109.897C90.2381 109.768 92.0313 110.585 94.2476 111.479Z" fill="#426270"/>
<path opacity="0.4" d="M96.3631 110.875C98.3779 111.821 100.082 112.417 100.034 112.582C99.9857 112.748 98.1724 112.385 96.1093 111.423C94.0461 110.46 92.5995 109.293 92.6922 109.172C92.7849 109.051 94.3484 109.929 96.3631 110.875Z" fill="#426270"/>
</g>
<g opacity="0.4">
<path opacity="0.4" d="M74.4825 36.9691C76.0056 34.5048 77.0856 32.4149 77.2508 32.4874C77.416 32.5599 76.5416 34.7826 74.9942 37.2832C73.4469 39.7838 71.8552 41.5636 71.7303 41.4629C71.6053 41.3623 72.9673 39.4415 74.4825 36.9691Z" fill="#426270"/>
<path opacity="0.4" d="M76.8942 38.538C77.874 36.8719 78.5516 35.4527 78.4077 35.3682C78.2638 35.2837 77.3529 36.5659 76.3731 38.232C75.3933 39.8982 74.7157 41.3174 74.8596 41.4019C75.0035 41.4864 75.9144 40.2042 76.8942 38.538Z" fill="#426270"/>
<path opacity="0.4" d="M75.079 38.608C77.3033 39.506 79.1609 40.1261 79.1086 40.2912C79.0562 40.4563 77.0938 40.0858 74.8453 39.1677C72.5968 38.2496 70.9084 37.1544 70.989 37.0255C71.0696 36.8967 72.8547 37.7141 75.079 38.608Z" fill="#426270"/>
<path opacity="0.4" d="M77.1863 38.004C79.2011 38.9502 80.9056 39.5462 80.8572 39.7113C80.8088 39.8764 78.9955 39.514 76.9324 38.5516C74.8693 37.5892 73.4226 36.4215 73.5153 36.3007C73.608 36.1799 75.1715 37.0738 77.1863 38.004Z" fill="#426270"/>
</g>
<path d="M96.7136 48.2238H37.5232V49.4076H96.7136V48.2238Z" fill="#8BBACC"/>
<path d="M101.972 52.5564H35.8469L36.6528 49.0089H101.569L101.972 52.5564Z" fill="#274B5B"/>
<path d="M93.1797 210.053H43.9746C40.9 210.053 38.1438 208.688 36.7818 206.489C31.5715 198.033 19.4546 172.303 19.4546 115.768C19.4546 60.3603 48.665 19.7913 61.2252 4.92069C62.1288 3.8503 63.2555 2.98998 64.5264 2.39982C65.7973 1.80966 67.1818 1.50391 68.5832 1.50391C69.9846 1.50391 71.3691 1.80966 72.64 2.39982C73.9109 2.98998 75.0375 3.8503 75.9412 4.92069C88.4974 19.7913 117.712 60.3603 117.7 115.768C117.7 172.29 105.583 198.041 100.373 206.489C99.0307 208.684 96.2624 210.053 93.1797 210.053ZM68.5711 5.05357C67.1399 5.05262 65.7549 5.55917 64.6624 6.48304C64.4007 6.70383 64.158 6.94629 63.9371 7.20785C51.6308 21.7805 23.0046 61.528 23.0046 115.768C23.0046 140.012 25.2532 161.132 29.6857 178.544C33.3405 192.895 37.5917 201.045 39.804 204.625C40.497 205.748 42.1774 206.501 43.9746 206.501H93.1797C94.989 206.501 96.6613 205.748 97.3463 204.629C99.5586 201.041 103.794 192.887 107.469 178.54C111.901 161.128 114.15 140.008 114.15 115.764C114.15 61.528 85.5396 21.7805 73.2253 7.20785C72.7119 6.59726 72.0826 6.0943 71.3737 5.72801C70.6648 5.36172 69.8903 5.13934 69.0949 5.0737C68.9203 5.06028 68.7457 5.05357 68.5711 5.05357Z" fill="#274B5B"/>
<path d="M58.328 207.85H54.7779V173.921C54.7571 161.949 59.3436 150.427 67.5879 141.74L68.8895 140.367L70.179 141.748C78.2765 150.409 82.7741 161.823 82.7593 173.676V207.798H79.2092V173.684C79.2205 163.394 75.5504 153.44 68.8613 145.618C62.0462 153.471 58.3023 163.522 58.3199 173.917L58.328 207.85Z" fill="#274B5B"/>
<path d="M127.492 188.639C127.327 188.639 127.167 188.59 127.03 188.499C126.894 188.408 126.788 188.278 126.725 188.127C126.662 187.975 126.645 187.808 126.677 187.648C126.709 187.487 126.789 187.339 126.905 187.223C127.021 187.107 127.169 187.028 127.33 186.996C127.491 186.964 127.658 186.98 127.809 187.043C127.961 187.106 128.091 187.212 128.182 187.349C128.273 187.485 128.322 187.645 128.322 187.809C128.322 188.029 128.234 188.24 128.079 188.396C127.923 188.551 127.712 188.639 127.492 188.639ZM127.492 187.455C127.421 187.455 127.353 187.476 127.295 187.515C127.236 187.554 127.191 187.609 127.164 187.674C127.137 187.738 127.13 187.81 127.144 187.878C127.157 187.947 127.191 188.01 127.241 188.06C127.29 188.109 127.354 188.143 127.422 188.157C127.491 188.171 127.562 188.164 127.627 188.137C127.692 188.11 127.747 188.064 127.786 188.006C127.825 187.948 127.846 187.879 127.846 187.809C127.845 187.716 127.807 187.627 127.741 187.561C127.675 187.496 127.585 187.459 127.492 187.459V187.455Z" fill="#274B5B"/>
<path opacity="0.2" d="M127.492 189.352C127.187 189.352 126.89 189.261 126.636 189.092C126.383 188.923 126.186 188.683 126.069 188.402C125.953 188.121 125.922 187.812 125.982 187.513C126.041 187.215 126.188 186.941 126.403 186.726C126.618 186.511 126.893 186.364 127.191 186.305C127.49 186.245 127.799 186.276 128.081 186.392C128.362 186.509 128.602 186.706 128.771 186.959C128.941 187.212 129.031 187.509 129.031 187.813C129.031 188.221 128.869 188.613 128.58 188.901C128.291 189.189 127.9 189.352 127.492 189.352ZM127.492 187.221C127.374 187.221 127.26 187.256 127.162 187.321C127.065 187.386 126.989 187.479 126.944 187.587C126.899 187.695 126.888 187.814 126.911 187.929C126.933 188.044 126.99 188.149 127.073 188.232C127.156 188.315 127.261 188.371 127.376 188.394C127.491 188.417 127.61 188.405 127.718 188.36C127.826 188.315 127.919 188.24 127.984 188.142C128.049 188.045 128.084 187.93 128.084 187.813C128.084 187.656 128.022 187.506 127.91 187.395C127.799 187.284 127.649 187.221 127.492 187.221Z" fill="#274B5B"/>
</g>
</svg>
