<svg width="249" height="204" viewBox="0 0 249 204" fill="none" xmlns="http://www.w3.org/2000/svg">
<g opacity="0.63" clip-path="url(#clip0)">
<path opacity="0.3" d="M235.395 64.8392C242.909 64.8392 249 58.7579 249 51.2563C249 43.7546 242.909 37.6734 235.395 37.6734C227.881 37.6734 221.79 43.7546 221.79 51.2563C221.79 58.7579 227.881 64.8392 235.395 64.8392Z" fill="#CCCCCC"/>
<path class="flicker3" d="M235.395 58.9447C239.648 58.9447 243.096 55.5025 243.096 51.2563C243.096 47.01 239.648 43.5678 235.395 43.5678C231.142 43.5678 227.694 47.01 227.694 51.2563C227.694 55.5025 231.142 58.9447 235.395 58.9447Z" fill="#6FCF97"/>
<path opacity="0.3" d="M226.41 27.1658C233.924 27.1658 240.015 21.0845 240.015 13.5829C240.015 6.08128 233.924 0 226.41 0C218.896 0 212.805 6.08128 212.805 13.5829C212.805 21.0845 218.896 27.1658 226.41 27.1658Z" fill="#CCCCCC"/>
<path class="flicker" d="M226.41 21.2714C230.663 21.2714 234.111 17.8291 234.111 13.5829C234.111 9.33671 230.663 5.89448 226.41 5.89448C222.157 5.89448 218.709 9.33671 218.709 13.5829C218.709 17.8291 222.157 21.2714 226.41 21.2714Z" fill="#6FCF97"/>
<path opacity="0.3" d="M13.6052 78.4221C21.1191 78.4221 27.2103 72.3409 27.2103 64.8392C27.2103 57.3376 21.1191 51.2563 13.6052 51.2563C6.09124 51.2563 0 57.3376 0 64.8392C0 72.3409 6.09124 78.4221 13.6052 78.4221Z" fill="#CCCCCC"/>
<path class="flicker" d="M13.6051 72.5277C17.8583 72.5277 21.3062 69.0855 21.3062 64.8392C21.3062 60.593 17.8583 57.1508 13.6051 57.1508C9.35198 57.1508 5.90411 60.593 5.90411 64.8392C5.90411 69.0855 9.35198 72.5277 13.6051 72.5277Z" fill="#6FCF97"/>
<path opacity="0.3" d="M25.6701 184.01C33.184 184.01 39.2752 177.929 39.2752 170.427C39.2752 162.926 33.184 156.844 25.6701 156.844C18.1562 156.844 12.0649 162.926 12.0649 170.427C12.0649 177.929 18.1562 184.01 25.6701 184.01Z" fill="#CCCCCC"/>
<path class="flicker2" d="M25.6701 178.116C29.9233 178.116 33.3711 174.673 33.3711 170.427C33.3711 166.181 29.9233 162.739 25.6701 162.739C21.417 162.739 17.9691 166.181 17.9691 170.427C17.9691 174.673 21.417 178.116 25.6701 178.116Z" fill="#6FCF97"/>
<path opacity="0.3" d="M44.1526 39.2111C51.6665 39.2111 57.7577 33.1298 57.7577 25.6281C57.7577 18.1265 51.6665 12.0452 44.1526 12.0452C36.6387 12.0452 30.5474 18.1265 30.5474 25.6281C30.5474 33.1298 36.6387 39.2111 44.1526 39.2111Z" fill="#CCCCCC"/>
<path class="flicker2" d="M44.1526 33.3166C48.4057 33.3166 51.8536 29.8743 51.8536 25.6281C51.8536 21.3819 48.4057 17.9397 44.1526 17.9397C39.8994 17.9397 36.4515 21.3819 36.4515 25.6281C36.4515 29.8743 39.8994 33.3166 44.1526 33.3166Z" fill="#6FCF97"/>
<path class="hologram-back" d="M222.816 110.457C222.816 156.163 189.982 194.213 146.576 202.378C146.407 202.411 146.235 202.442 146.063 202.473C143.365 202.967 140.627 203.342 137.848 203.598C137.676 203.616 137.507 203.631 137.335 203.644C134.629 203.88 131.891 203.998 129.121 204C128.949 204 128.779 204 128.607 203.997C125.84 203.985 123.102 203.851 120.393 203.598C120.221 203.585 120.051 203.567 119.879 203.549C117.104 203.28 114.366 202.889 111.665 202.378C111.493 202.347 111.321 202.314 111.152 202.28C68.0001 193.913 35.4247 155.983 35.4247 110.457C35.4247 58.7961 77.3748 16.9146 129.121 16.9146C180.866 16.9146 222.816 58.7961 222.816 110.457Z" fill="#3F3D56"/>
<path class="flicker3" d="M146.833 70.3493H146.32V146.337H146.833V70.3493Z" fill="#6FCF97"/>
<path class="flicker" d="M146.833 37.7765H146.32V60.1938H146.833V37.7765Z" fill="#6FCF97"/>
<path class="flicker2" d="M111.665 35.4373H111.152V146.337H111.665V35.4373Z" fill="#6FCF97"/>
<path class="flicker3" d="M120.393 25.6281H119.879V50.6045H120.393V25.6281Z" fill="#6FCF97"/>
<path class="flicker" d="M120.393 62.5327H119.879V138.555H120.393V62.5327Z" fill="#6FCF97"/>
<path class="flicker2" d="M120.393 150.373V203.598C120.221 203.585 120.051 203.567 119.879 203.549V150.373H120.393Z" fill="#6FCF97"/>
<path class="flicker2" d="M129.121 17.4271H128.607V87.9935H129.121V17.4271Z" fill="#6FCF97"/>
<path class="flicker2" d="M129.121 97.7764V204C128.949 204 128.779 204 128.607 203.997V97.7764H129.121Z" fill="#6FCF97"/>
<path class="flicker" d="M137.848 25.6281H137.335V123.528H137.848V25.6281Z" fill="#6FCF97"/>
<path class="flicker3" d="M137.848 134.035H137.335V188.924H137.848V134.035Z" fill="#6FCF97"/>
<path class="flicker" d="M137.848 200.548V203.598C137.676 203.616 137.507 203.631 137.335 203.644V200.548H137.848Z" fill="#6FCF97"/>
<path class="flicker2" d="M146.576 159.663V202.378C146.407 202.411 146.235 202.442 146.063 202.473V159.663H146.576Z" fill="#6FCF97"/>
<path class="flicker3" d="M111.665 159.663V202.378C111.493 202.347 111.321 202.314 111.152 202.28V159.663H111.665Z" fill="#6FCF97"/>
<path class="flicker2" d="M102.937 45.3618H102.424V61.3562H102.937V45.3618Z" fill="#6FCF97"/>
<path class="flicker" d="M102.937 73.3671H102.424V146.337H102.937V73.3671Z" fill="#6FCF97"/>
<path class="flicker3" d="M94.2093 51.2563H93.6959V146.337H94.2093V51.2563Z" fill="#6FCF97"/>
<path class="flicker" d="M85.4814 58.9447H84.968V89.9305H85.4814V58.9447Z" fill="#6FCF97"/>
<path class="flicker" d="M85.4814 100.198H84.968V146.337H85.4814V100.198Z" fill="#6FCF97"/>
<path class="flicker" d="M76.7536 67.1458H76.2402V118.796H76.7536V67.1458Z" fill="#6FCF97"/>
<path class="flicker4" d="M76.7536 128.397H76.2402V146.337H76.7536V128.397Z" fill="#6FCF97"/>
<path class="flicker2" d="M68.0258 74.8342H67.5124V92.1585H68.0258V74.8342Z" fill="#6FCF97"/>
<path class="flicker3" d="M68.0258 103.491H67.5124V146.337H68.0258V103.491Z" fill="#6FCF97"/>
<path class="flicker2" d="M59.2979 78.9347H58.7846V146.337H59.2979V78.9347Z" fill="#6FCF97"/>
<path class="flicker4" d="M50.5701 97.3869H50.0567V119.667H50.5701V97.3869Z" fill="#6FCF97"/>
<path class="flicker3" d="M50.5701 129.838H50.0567V146.337H50.5701V129.838Z" fill="#6FCF97"/>
<path class="flicker2" d="M151.816 45.3618H151.55V141.98H151.816V45.3618Z" fill="#6FCF97"/>
<path class="flicker" d="M164.032 51.2563H163.519V66.4899H164.032V51.2563Z" fill="#6FCF97"/>
<path class="flicker4" d="M164.032 76.6604H163.519V146.337H164.032V76.6604Z" fill="#6FCF97"/>
<path class="flicker2" d="M172.76 65.8643H172.246V74.8342H172.76V65.8643Z" fill="#6FCF97"/>
<path class="flicker2" d="M172.76 84.8938H172.246V129.45H172.76V84.8938Z" fill="#6FCF97"/>
<path class="flicker4" d="M172.76 138.555H172.246V146.337H172.76V138.555Z" fill="#6FCF97"/>
<path class="flicker2" d="M181.488 67.1458H180.974V146.337H181.488V67.1458Z" fill="#6FCF97"/>
<path class="flicker4" d="M190.215 74.8342H189.702V100.198H190.215V74.8342Z" fill="#6FCF97"/>
<path class="flicker3" d="M190.215 109.787H189.702V146.337H190.215V109.787Z" fill="#6FCF97"/>
<path class="flicker3" d="M198.943 78.9347H198.43V146.337H198.943V78.9347Z" fill="#6FCF97"/>
<path class="flicker" d="M111.408 159.92C110.901 159.92 110.404 159.769 109.982 159.488C109.56 159.206 109.231 158.806 109.037 158.338C108.842 157.869 108.792 157.354 108.891 156.857C108.99 156.36 109.234 155.903 109.593 155.545C109.952 155.186 110.409 154.942 110.907 154.843C111.405 154.744 111.922 154.795 112.391 154.989C112.86 155.183 113.261 155.511 113.543 155.933C113.825 156.354 113.975 156.85 113.975 157.357C113.974 158.036 113.704 158.688 113.223 159.168C112.741 159.649 112.089 159.919 111.408 159.92V159.92ZM111.408 155.307C111.002 155.307 110.605 155.427 110.267 155.652C109.93 155.877 109.666 156.198 109.511 156.572C109.356 156.947 109.315 157.359 109.394 157.757C109.473 158.154 109.669 158.52 109.956 158.807C110.243 159.093 110.609 159.289 111.008 159.368C111.406 159.447 111.819 159.406 112.194 159.251C112.569 159.096 112.89 158.833 113.116 158.496C113.341 158.159 113.462 157.762 113.462 157.357C113.461 156.813 113.245 156.292 112.86 155.908C112.475 155.523 111.953 155.307 111.408 155.307V155.307Z" fill="#6FCF97"/>
<path d="M120.136 146.593C119.628 146.593 119.132 146.443 118.71 146.161C118.288 145.879 117.959 145.479 117.765 145.011C117.57 144.543 117.519 144.027 117.618 143.53C117.718 143.033 117.962 142.576 118.321 142.218C118.68 141.86 119.137 141.615 119.635 141.517C120.133 141.418 120.649 141.468 121.118 141.662C121.588 141.856 121.988 142.185 122.27 142.606C122.553 143.028 122.703 143.523 122.703 144.03C122.702 144.71 122.432 145.361 121.95 145.841C121.469 146.322 120.817 146.592 120.136 146.593V146.593ZM120.136 141.98C119.73 141.98 119.333 142.1 118.995 142.325C118.658 142.551 118.394 142.871 118.239 143.246C118.083 143.62 118.043 144.032 118.122 144.43C118.201 144.828 118.397 145.193 118.684 145.48C118.971 145.767 119.337 145.962 119.735 146.041C120.134 146.12 120.547 146.079 120.922 145.924C121.297 145.769 121.618 145.506 121.844 145.169C122.069 144.832 122.19 144.436 122.19 144.03C122.189 143.487 121.973 142.965 121.588 142.581C121.203 142.197 120.681 141.981 120.136 141.98V141.98Z" fill="#6FCF97"/>
<path d="M146.576 159.92C146.069 159.92 145.572 159.769 145.15 159.488C144.728 159.206 144.399 158.806 144.205 158.338C144.01 157.869 143.96 157.354 144.059 156.857C144.158 156.36 144.402 155.903 144.761 155.545C145.12 155.186 145.578 154.942 146.075 154.843C146.573 154.744 147.09 154.795 147.559 154.989C148.028 155.183 148.429 155.511 148.711 155.933C148.993 156.354 149.143 156.85 149.143 157.357C149.143 158.036 148.872 158.688 148.391 159.168C147.909 159.649 147.257 159.919 146.576 159.92V159.92ZM146.576 155.307C146.17 155.307 145.773 155.427 145.435 155.652C145.098 155.877 144.834 156.198 144.679 156.572C144.524 156.947 144.483 157.359 144.562 157.757C144.641 158.154 144.837 158.52 145.124 158.807C145.411 159.093 145.777 159.289 146.176 159.368C146.574 159.447 146.987 159.406 147.362 159.251C147.737 159.096 148.058 158.833 148.284 158.496C148.509 158.159 148.63 157.762 148.63 157.357C148.629 156.813 148.413 156.292 148.028 155.908C147.643 155.523 147.121 155.307 146.576 155.307V155.307Z" fill="#6FCF97"/>
<path d="M137.592 191.955C137.084 191.955 136.588 192.105 136.166 192.387C135.743 192.668 135.414 193.069 135.22 193.537C135.026 194.005 134.975 194.52 135.074 195.018C135.173 195.515 135.418 195.971 135.777 196.33C136.136 196.688 136.593 196.932 137.091 197.031C137.589 197.13 138.105 197.079 138.574 196.885C139.043 196.691 139.444 196.363 139.726 195.941C140.008 195.52 140.159 195.024 140.159 194.518C140.158 193.838 139.887 193.187 139.406 192.707C138.925 192.226 138.272 191.956 137.592 191.955V191.955ZM137.592 196.568C137.186 196.568 136.789 196.448 136.451 196.222C136.113 195.997 135.85 195.677 135.694 195.302C135.539 194.928 135.498 194.515 135.578 194.118C135.657 193.72 135.852 193.355 136.14 193.068C136.427 192.781 136.793 192.586 137.191 192.507C137.589 192.428 138.002 192.468 138.378 192.623C138.753 192.779 139.074 193.041 139.299 193.379C139.525 193.716 139.645 194.112 139.645 194.518C139.645 195.061 139.428 195.582 139.043 195.967C138.658 196.351 138.136 196.567 137.592 196.568Z" fill="#6FCF97"/>
<path d="M137.592 130.96C137.084 130.96 136.588 130.809 136.166 130.528C135.743 130.246 135.414 129.846 135.22 129.378C135.026 128.909 134.975 128.394 135.074 127.897C135.173 127.4 135.418 126.943 135.777 126.585C136.136 126.226 136.593 125.982 137.091 125.883C137.589 125.785 138.105 125.835 138.574 126.029C139.043 126.223 139.444 126.552 139.726 126.973C140.008 127.395 140.159 127.89 140.159 128.397C140.158 129.076 139.887 129.728 139.406 130.208C138.925 130.689 138.272 130.959 137.592 130.96V130.96ZM137.592 126.347C137.186 126.347 136.789 126.467 136.451 126.692C136.113 126.918 135.85 127.238 135.694 127.612C135.539 127.987 135.498 128.399 135.578 128.797C135.657 129.195 135.852 129.56 136.14 129.847C136.427 130.133 136.793 130.329 137.191 130.408C137.589 130.487 138.002 130.446 138.378 130.291C138.753 130.136 139.074 129.873 139.299 129.536C139.525 129.199 139.645 128.802 139.645 128.397C139.645 127.853 139.428 127.332 139.043 126.948C138.658 126.564 138.136 126.347 137.592 126.347Z" fill="#6FCF97"/>
<path class="flicker" d="M128.864 95.3368C128.356 95.3368 127.86 95.1865 127.438 94.9048C127.016 94.6232 126.687 94.223 126.492 93.7547C126.298 93.2864 126.247 92.7711 126.346 92.2739C126.445 91.7768 126.69 91.3201 127.049 90.9617C127.408 90.6033 127.865 90.3592 128.363 90.2603C128.861 90.1614 129.377 90.2122 129.846 90.4062C130.315 90.6002 130.716 90.9286 130.998 91.3501C131.28 91.7716 131.431 92.267 131.431 92.7739C131.43 93.4534 131.159 94.1048 130.678 94.5853C130.197 95.0657 129.544 95.336 128.864 95.3368V95.3368Z" fill="#6FCF97"/>
<path d="M146.32 67.402C145.812 67.402 145.316 67.2517 144.893 66.9701C144.471 66.6885 144.142 66.2882 143.948 65.82C143.754 65.3517 143.703 64.8364 143.802 64.3392C143.901 63.8421 144.145 63.3854 144.504 63.027C144.863 62.6686 145.321 62.4245 145.819 62.3256C146.317 62.2267 146.833 62.2775 147.302 62.4715C147.771 62.6654 148.172 62.9939 148.454 63.4154C148.736 63.8368 148.887 64.3323 148.887 64.8392C148.886 65.5187 148.615 66.1701 148.134 66.6505C147.653 67.131 147 67.4012 146.32 67.402V67.402ZM146.32 62.7889C145.913 62.7889 145.516 62.9092 145.179 63.1345C144.841 63.3598 144.578 63.68 144.422 64.0546C144.267 64.4292 144.226 64.8415 144.305 65.2392C144.385 65.6369 144.58 66.0022 144.867 66.289C145.155 66.5757 145.521 66.771 145.919 66.8501C146.317 66.9292 146.73 66.8886 147.105 66.7334C147.481 66.5782 147.801 66.3154 148.027 65.9783C148.253 65.6411 148.373 65.2447 148.373 64.8392C148.373 64.2956 148.156 63.7745 147.771 63.3901C147.386 63.0058 146.864 62.7896 146.32 62.7889V62.7889Z" fill="#6FCF97"/>
<path d="M85.2247 97.6433C84.717 97.6433 84.2207 97.493 83.7986 97.2114C83.3764 96.9298 83.0474 96.5295 82.8531 96.0612C82.6588 95.5929 82.608 95.0776 82.707 94.5805C82.8061 94.0833 83.0506 93.6267 83.4096 93.2683C83.7686 92.9098 84.226 92.6658 84.7239 92.5669C85.2219 92.468 85.738 92.5187 86.2071 92.7127C86.6762 92.9067 87.0771 93.2352 87.3591 93.6566C87.6412 94.0781 87.7918 94.5736 87.7918 95.0805C87.791 95.7599 87.5203 96.4113 87.039 96.8918C86.5578 97.3723 85.9053 97.6425 85.2247 97.6433V97.6433ZM85.2247 93.0302C84.8186 93.0302 84.4215 93.1504 84.0838 93.3757C83.7461 93.601 83.4829 93.9212 83.3274 94.2959C83.172 94.6705 83.1313 95.0827 83.2106 95.4805C83.2898 95.8782 83.4854 96.2435 83.7726 96.5302C84.0598 96.817 84.4257 97.0122 84.8241 97.0913C85.2225 97.1704 85.6354 97.1298 86.0106 96.9747C86.3859 96.8195 86.7066 96.5567 86.9323 96.2195C87.1579 95.8824 87.2784 95.486 87.2784 95.0805C87.2777 94.5369 87.0612 94.0158 86.6762 93.6314C86.2912 93.247 85.7692 93.0308 85.2247 93.0302V93.0302Z" fill="#6FCF97"/>
<path d="M67.7691 99.9497C67.2614 99.9497 66.7651 99.7994 66.3429 99.5178C65.9208 99.2362 65.5918 98.836 65.3975 98.3677C65.2032 97.8994 65.1523 97.3841 65.2514 96.887C65.3504 96.3898 65.5949 95.9332 65.9539 95.5748C66.3129 95.2164 66.7703 94.9723 67.2683 94.8734C67.7662 94.7745 68.2824 94.8253 68.7514 95.0193C69.2205 95.2132 69.6214 95.5417 69.9035 95.9631C70.1855 96.3846 70.3361 96.8801 70.3361 97.3869C70.3353 98.0664 70.0646 98.7178 69.5834 99.1982C69.1021 99.6787 68.4497 99.9489 67.7691 99.9497V99.9497ZM67.7691 95.3367C67.3629 95.3367 66.9659 95.457 66.6282 95.6823C66.2904 95.9075 66.0272 96.2277 65.8718 96.6024C65.7164 96.977 65.6757 97.3892 65.7549 97.7869C65.8342 98.1846 66.0297 98.5499 66.317 98.8367C66.6042 99.1234 66.9701 99.3187 67.3684 99.3978C67.7668 99.4769 68.1797 99.4363 68.555 99.2811C68.9302 99.1259 69.2509 98.8631 69.4766 98.526C69.7022 98.1888 69.8227 97.7924 69.8227 97.3869C69.8221 96.8434 69.6055 96.3223 69.2205 95.9379C68.8355 95.5536 68.3135 95.3374 67.7691 95.3367V95.3367Z" fill="#6FCF97"/>
<path class="flicker2" d="M76.4969 126.09C75.9892 126.09 75.4929 125.94 75.0708 125.659C74.6486 125.377 74.3196 124.977 74.1253 124.508C73.931 124.04 73.8802 123.525 73.9792 123.028C74.0783 122.531 74.3228 122.074 74.6818 121.715C75.0408 121.357 75.4982 121.113 75.9961 121.014C76.4941 120.915 77.0102 120.966 77.4793 121.16C77.9483 121.354 78.3492 121.682 78.6313 122.104C78.9134 122.525 79.0639 123.021 79.0639 123.528C79.0632 124.207 78.7925 124.859 78.3112 125.339C77.83 125.819 77.1775 126.09 76.4969 126.09V126.09Z" fill="#6FCF97"/>
<path d="M146.576 37.9296C146.069 37.9296 145.572 37.7793 145.15 37.4977C144.728 37.2161 144.399 36.8158 144.205 36.3475C144.01 35.8792 143.96 35.364 144.059 34.8668C144.158 34.3697 144.402 33.913 144.761 33.5546C145.12 33.1962 145.578 32.9521 146.075 32.8533C146.573 32.7544 147.09 32.8051 147.559 32.9991C148.028 33.1931 148.429 33.5215 148.711 33.943C148.993 34.3644 149.143 34.8599 149.143 35.3668C149.143 36.0462 148.872 36.6976 148.391 37.1781C147.909 37.6585 147.257 37.9288 146.576 37.9296ZM146.576 33.3166C146.17 33.3166 145.773 33.4368 145.435 33.6621C145.098 33.8874 144.834 34.2076 144.679 34.5822C144.524 34.9568 144.483 35.3691 144.562 35.7668C144.641 36.1645 144.837 36.5298 145.124 36.8165C145.411 37.1033 145.777 37.2985 146.176 37.3776C146.574 37.4567 146.987 37.4161 147.362 37.261C147.737 37.1058 148.058 36.843 148.284 36.5058C148.509 36.1687 148.63 35.7723 148.63 35.3668C148.629 34.8232 148.413 34.3021 148.028 33.9178C147.643 33.5334 147.121 33.3172 146.576 33.3166V33.3166Z" fill="#6FCF97"/>
<path d="M102.68 69.7086C102.173 69.7086 101.676 69.5583 101.254 69.2767C100.832 68.9951 100.503 68.5948 100.309 68.1265C100.115 67.6582 100.064 67.1429 100.163 66.6458C100.262 66.1486 100.506 65.692 100.865 65.3336C101.224 64.9751 101.682 64.731 102.18 64.6322C102.678 64.5333 103.194 64.584 103.663 64.778C104.132 64.972 104.533 65.3005 104.815 65.7219C105.097 66.1434 105.247 66.6389 105.247 67.1458C105.247 67.8252 104.976 68.4766 104.495 68.9571C104.013 69.4376 103.361 69.7078 102.68 69.7086ZM102.68 65.0955C102.274 65.0955 101.877 65.2157 101.539 65.441C101.202 65.6663 100.939 65.9865 100.783 66.3612C100.628 66.7358 100.587 67.148 100.666 67.5457C100.746 67.9435 100.941 68.3088 101.228 68.5955C101.515 68.8823 101.881 69.0775 102.28 69.1566C102.678 69.2357 103.091 69.1951 103.466 69.04C103.842 68.8848 104.162 68.622 104.388 68.2848C104.614 67.9477 104.734 67.5513 104.734 67.1458C104.733 66.6022 104.517 66.081 104.132 65.6967C103.747 65.3123 103.225 65.0961 102.68 65.0955V65.0955Z" fill="#6FCF97"/>
<path d="M93.9526 51.5126C93.4449 51.5126 92.9486 51.3623 92.5264 51.0807C92.1043 50.799 91.7753 50.3988 91.581 49.9305C91.3867 49.4622 91.3358 48.9469 91.4349 48.4498C91.5339 47.9526 91.7784 47.496 92.1374 47.1375C92.4964 46.7791 92.9538 46.5351 93.4518 46.4362C93.9497 46.3373 94.4659 46.388 94.9349 46.582C95.404 46.776 95.8049 47.1045 96.087 47.5259C96.369 47.9474 96.5196 48.4429 96.5196 48.9497C96.5188 49.6292 96.2481 50.2806 95.7669 50.7611C95.2856 51.2415 94.6332 51.5118 93.9526 51.5126V51.5126ZM93.9526 46.8995C93.5464 46.8995 93.1494 47.0197 92.8117 47.245C92.4739 47.4703 92.2107 47.7905 92.0553 48.1651C91.8999 48.5398 91.8592 48.952 91.9384 49.3497C92.0177 49.7474 92.2132 50.1128 92.5005 50.3995C92.7877 50.6862 93.1536 50.8815 93.5519 50.9606C93.9503 51.0397 94.3632 50.9991 94.7385 50.8439C95.1137 50.6888 95.4344 50.426 95.6601 50.0888C95.8857 49.7516 96.0062 49.3552 96.0062 48.9497C96.0056 48.4062 95.789 47.885 95.404 47.5007C95.019 47.1163 94.497 46.9001 93.9526 46.8995V46.8995Z" fill="#6FCF97"/>
<path d="M50.3134 127.372C49.8057 127.372 49.3094 127.222 48.8872 126.94C48.4651 126.658 48.1361 126.258 47.9418 125.79C47.7475 125.321 47.6966 124.806 47.7957 124.309C47.8947 123.812 48.1392 123.355 48.4982 122.997C48.8572 122.638 49.3146 122.394 49.8126 122.295C50.3105 122.197 50.8267 122.247 51.2957 122.441C51.7648 122.635 52.1657 122.964 52.4478 123.385C52.7298 123.807 52.8804 124.302 52.8804 124.809C52.8796 125.488 52.6089 126.14 52.1277 126.62C51.6464 127.101 50.994 127.371 50.3134 127.372V127.372ZM50.3134 122.759C49.9072 122.759 49.5102 122.879 49.1725 123.104C48.8347 123.33 48.5715 123.65 48.4161 124.024C48.2607 124.399 48.22 124.811 48.2992 125.209C48.3785 125.607 48.5741 125.972 48.8613 126.259C49.1485 126.546 49.5144 126.741 49.9127 126.82C50.3111 126.899 50.724 126.858 51.0993 126.703C51.4745 126.548 51.7952 126.285 52.0209 125.948C52.2466 125.611 52.367 125.215 52.367 124.809C52.3664 124.265 52.1498 123.744 51.7648 123.36C51.3798 122.976 50.8578 122.759 50.3134 122.759V122.759Z" fill="#6FCF97"/>
<path d="M206.901 97.3869H206.388V119.667H206.901V97.3869Z" fill="#6FCF97"/>
<path d="M206.901 129.838H206.388V146.337H206.901V129.838Z" fill="#6FCF97"/>
<path d="M206.644 127.372C206.137 127.372 205.64 127.222 205.218 126.94C204.796 126.658 204.467 126.258 204.273 125.79C204.078 125.321 204.028 124.806 204.127 124.309C204.226 123.812 204.47 123.355 204.829 122.997C205.188 122.638 205.646 122.394 206.144 122.295C206.642 122.197 207.158 122.247 207.627 122.441C208.096 122.635 208.497 122.964 208.779 123.385C209.061 123.807 209.211 124.302 209.211 124.809C209.211 125.488 208.94 126.14 208.459 126.62C207.977 127.101 207.325 127.371 206.644 127.372V127.372ZM206.644 122.759C206.238 122.759 205.841 122.879 205.503 123.104C205.166 123.33 204.902 123.65 204.747 124.024C204.592 124.399 204.551 124.811 204.63 125.209C204.709 125.607 204.905 125.972 205.192 126.259C205.479 126.546 205.845 126.741 206.244 126.82C206.642 126.899 207.055 126.858 207.43 126.703C207.806 126.548 208.126 126.285 208.352 125.948C208.578 125.611 208.698 125.215 208.698 124.809C208.697 124.265 208.481 123.744 208.096 123.36C207.711 122.976 207.189 122.759 206.644 122.759V122.759Z" fill="#6FCF97"/>
<path d="M189.959 107.126C189.451 107.126 188.955 106.975 188.533 106.694C188.111 106.412 187.782 106.012 187.587 105.544C187.393 105.075 187.342 104.56 187.441 104.063C187.54 103.566 187.785 103.109 188.144 102.751C188.503 102.392 188.96 102.148 189.458 102.049C189.956 101.95 190.472 102.001 190.941 102.195C191.41 102.389 191.811 102.718 192.093 103.139C192.375 103.56 192.526 104.056 192.526 104.563C192.525 105.242 192.254 105.894 191.773 106.374C191.292 106.855 190.639 107.125 189.959 107.126V107.126ZM189.959 102.513C189.553 102.513 189.156 102.633 188.818 102.858C188.48 103.083 188.217 103.404 188.062 103.778C187.906 104.153 187.865 104.565 187.945 104.963C188.024 105.361 188.219 105.726 188.507 106.013C188.794 106.299 189.16 106.495 189.558 106.574C189.957 106.653 190.369 106.612 190.745 106.457C191.12 106.302 191.441 106.039 191.666 105.702C191.892 105.365 192.012 104.968 192.012 104.563C192.012 104.019 191.795 103.498 191.41 103.114C191.025 102.729 190.503 102.513 189.959 102.513V102.513Z" fill="#6FCF97"/>
<path d="M172.503 136.598C171.995 136.598 171.499 136.448 171.077 136.166C170.655 135.884 170.326 135.484 170.131 135.016C169.937 134.548 169.886 134.032 169.985 133.535C170.084 133.038 170.329 132.581 170.688 132.223C171.047 131.865 171.504 131.62 172.002 131.522C172.5 131.423 173.016 131.473 173.485 131.667C173.954 131.861 174.355 132.19 174.637 132.611C174.92 133.033 175.07 133.528 175.07 134.035C175.069 134.715 174.799 135.366 174.317 135.846C173.836 136.327 173.184 136.597 172.503 136.598V136.598ZM172.503 131.985C172.097 131.985 171.7 132.105 171.362 132.33C171.024 132.556 170.761 132.876 170.606 133.251C170.45 133.625 170.41 134.037 170.489 134.435C170.568 134.833 170.764 135.198 171.051 135.485C171.338 135.772 171.704 135.967 172.102 136.046C172.501 136.125 172.914 136.085 173.289 135.929C173.664 135.774 173.985 135.511 174.211 135.174C174.436 134.837 174.557 134.441 174.557 134.035C174.556 133.492 174.339 132.97 173.954 132.586C173.57 132.202 173.048 131.986 172.503 131.985V131.985Z" fill="#6FCF97"/>
<path class="flicker2" d="M120.136 59.201C119.628 59.201 119.132 59.0507 118.71 58.7691C118.288 58.4875 117.959 58.0872 117.765 57.6189C117.57 57.1506 117.519 56.6354 117.618 56.1382C117.718 55.6411 117.962 55.1844 118.321 54.826C118.68 54.4676 119.137 54.2235 119.635 54.1246C120.133 54.0257 120.649 54.0765 121.118 54.2705C121.588 54.4644 121.988 54.7929 122.27 55.2144C122.553 55.6358 122.703 56.1313 122.703 56.6382C122.702 57.3177 122.432 57.9691 121.95 58.4495C121.469 58.93 120.817 59.2002 120.136 59.201V59.201Z" fill="#6FCF97"/>
<path d="M172.503 82.5226C171.995 82.5226 171.499 82.3722 171.077 82.0906C170.655 81.809 170.326 81.4088 170.131 80.9405C169.937 80.4722 169.886 79.9569 169.985 79.4598C170.084 78.9627 170.329 78.506 170.688 78.1476C171.047 77.7892 171.504 77.5451 172.002 77.4462C172.5 77.3473 173.016 77.3981 173.485 77.5921C173.954 77.786 174.355 78.1145 174.637 78.536C174.92 78.9574 175.07 79.4529 175.07 79.9598C175.069 80.6392 174.799 81.2906 174.317 81.7711C173.836 82.2515 173.184 82.5218 172.503 82.5226V82.5226ZM172.503 77.9095C172.097 77.9095 171.7 78.0298 171.362 78.2551C171.024 78.4803 170.761 78.8006 170.606 79.1752C170.45 79.5498 170.41 79.962 170.489 80.3597C170.568 80.7575 170.764 81.1228 171.051 81.4095C171.338 81.6962 171.704 81.8915 172.102 81.9706C172.501 82.0497 172.914 82.0091 173.289 81.8539C173.664 81.6988 173.985 81.436 174.211 81.0988C174.436 80.7617 174.557 80.3653 174.557 79.9598C174.556 79.4162 174.339 78.8951 173.954 78.5107C173.57 78.1264 173.048 77.9102 172.503 77.9095V77.9095Z" fill="#6FCF97"/>
<path class="flicker2" d="M189.959 75.0904C189.451 75.0904 188.955 74.9401 188.533 74.6585C188.111 74.3769 187.782 73.9767 187.587 73.5084C187.393 73.0401 187.342 72.5248 187.441 72.0276C187.54 71.5305 187.785 71.0738 188.144 70.7154C188.503 70.357 188.96 70.1129 189.458 70.014C189.956 69.9151 190.472 69.9659 190.941 70.1599C191.41 70.3538 191.811 70.6823 192.093 71.1038C192.375 71.5252 192.526 72.0207 192.526 72.5276C192.525 73.2071 192.254 73.8585 191.773 74.3389C191.292 74.8194 190.639 75.0897 189.959 75.0904V75.0904Z" fill="#6FCF97"/>
<path class="flicker" d="M163.775 73.8091C163.268 73.8091 162.771 73.6588 162.349 73.3771C161.927 73.0955 161.598 72.6953 161.404 72.227C161.209 71.7587 161.158 71.2434 161.258 70.7462C161.357 70.2491 161.601 69.7924 161.96 69.434C162.319 69.0756 162.776 68.8315 163.274 68.7326C163.772 68.6337 164.289 68.6845 164.758 68.8784C165.227 69.0724 165.628 69.4009 165.91 69.8224C166.192 70.2438 166.342 70.7393 166.342 71.2462C166.341 71.9257 166.071 72.5771 165.59 73.0576C165.108 73.538 164.456 73.8083 163.775 73.8091V73.8091Z" fill="#6FCF97"/>
<path d="M235.652 73.8134L189.698 73.0402L189.706 72.5276L235.138 73.2921V51.2563H235.652V73.8134Z" fill="#2F2E41"/>
<path d="M164.012 71.3452L163.538 71.1473L187.734 13.3266H226.41V13.8392H188.076L164.012 71.3452Z" fill="#2F2E41"/>
<path d="M129.121 93.0301H13.3484V65.0955H13.8619V92.5175H129.121V93.0301Z" fill="#2F2E41"/>
<path d="M120.136 56.8945H43.3825V25.6281H43.8959V56.3819H120.136V56.8945Z" fill="#2F2E41"/>
<path d="M76.7536 170.683H25.6701V170.171H76.2402V123.271H76.7536V170.683Z" fill="#2F2E41"/>
</g>
<defs>
<clipPath id="clip0">
<rect width="249" height="204" fill="white"/>
</clipPath>
</defs>
</svg>
