<svg width="116" height="107" viewBox="0 0 116 107" fill="none" xmlns="http://www.w3.org/2000/svg">
<path d="M0 10C0 4.47715 4.47715 0 10 0H106C111.523 0 116 4.47715 116 10V107H0V10Z" fill="#6FCF97" fill-opacity="0.67"/>
<path d="M0 86H116V107H0V86Z" fill="black" fill-opacity="0.05"/>
<path d="M44.1516 102H42.8323V97.3994H37.8147V102H36.5022V92.0469H37.8147V96.3262H42.8323V92.0469H44.1516V102ZM53.2946 93.127H50.0954V102H48.7897V93.127H45.5973V92.0469H53.2946V93.127ZM56.6064 92.0469L59.8604 100.168L63.1143 92.0469H64.8164V102H63.5039V98.124L63.627 93.9404L60.3594 102H59.3545L56.0938 93.9609L56.2236 98.124V102H54.9111V92.0469H56.6064ZM68.5931 100.927H73.3099V102H67.2738V92.0469H68.5931V100.927ZM75.1999 97.0098L75.7058 92.0469H80.8054V93.2158H76.779L76.4782 95.9297C76.9659 95.6426 77.5196 95.499 78.1394 95.499C79.0463 95.499 79.7663 95.7998 80.2995 96.4014C80.8327 96.9984 81.0993 97.8073 81.0993 98.8281C81.0993 99.8535 80.8213 100.662 80.2654 101.255C79.7139 101.843 78.9415 102.137 77.948 102.137C77.0684 102.137 76.3506 101.893 75.7946 101.405C75.2387 100.918 74.9219 100.243 74.8445 99.3818H76.0407C76.1182 99.9515 76.321 100.382 76.6491 100.674C76.9773 100.961 77.4102 101.104 77.948 101.104C78.5359 101.104 78.9961 100.904 79.3288 100.503C79.6661 100.102 79.8347 99.5482 79.8347 98.8418C79.8347 98.1764 79.6524 97.6432 79.2878 97.2422C78.9278 96.8366 78.447 96.6338 77.8454 96.6338C77.294 96.6338 76.8611 96.7546 76.5466 96.9961L76.2116 97.2695L75.1999 97.0098Z" fill="#1C1C1C"/>
<path d="M29.2793 75.5755L23 5.14453H92L85.7138 75.5644L57.4577 83.3981L29.2793 75.5755Z" fill="#1C1C1C"/>
<path d="M57.5 77.4105L80.3321 71.0802L85.7044 10.9036H57.5V77.4105Z" fill="#1C1C1C"/>
<path d="M57.5001 37.0254H46.07L45.2804 28.1799H57.5001V19.5417H35.8398L36.0468 21.8592L38.1698 45.6633H57.5001V37.0254ZM57.5001 59.4592L57.4622 59.4695L47.842 56.8717L47.227 49.9827H38.5559L39.7662 63.5457L57.4606 68.4577L57.5001 68.4466V59.4592Z" fill="#549670"/>
<path d="M57.4701 37.0254V45.6633H68.1071L67.1042 56.8664L57.4701 59.4664V68.4532L75.1786 63.5457L75.3082 62.0859L77.3383 39.3451L77.5491 37.0254H75.2216H57.4701ZM57.4701 19.5417V28.1799H78.3352L78.5082 26.2382L78.9018 21.8592L79.1085 19.5417H57.4701Z" fill="#549670"/>
</svg>
