<svg width="69" height="79" viewBox="0 0 69 79" fill="none" xmlns="http://www.w3.org/2000/svg">
<path d="M6.27931 70.5755L0 0.144531H69L62.7138 70.5644L34.4577 78.3981L6.27931 70.5755Z" fill="#1C1C1C"/>
<path d="M34.5 72.4105L57.3321 66.0802L62.7044 5.90356H34.5V72.4105Z" fill="#1C1C1C"/>
<path d="M34.5001 32.0254H23.07L22.2804 23.1799H34.5001V14.5417H12.8398L13.0468 16.8592L15.1698 40.6633H34.5001V32.0254ZM34.5001 54.4592L34.4622 54.4695L24.842 51.8717L24.227 44.9827H15.5559L16.7662 58.5457L34.4606 63.4577L34.5001 63.4466V54.4592Z" fill="#4F8967"/>
<path d="M34.4701 32.0254V40.6633H45.1071L44.1042 51.8664L34.4701 54.4664V63.4532L52.1786 58.5457L52.3082 57.0859L54.3383 34.3451L54.5491 32.0254H52.2216H34.4701ZM34.4701 14.5417V23.1799H55.3352L55.5082 21.2382L55.9018 16.8592L56.1085 14.5417H34.4701Z" fill="#6BC691"/>
</svg>
