<svg width="283" height="317" viewBox="0 0 283 317" fill="none" xmlns="http://www.w3.org/2000/svg">
<g clip-path="url(#clip0)">
<path d="M281.194 2.2398C279.885 0.813296 278.045 0.00012207 276.109 0.00012207H6.88935C4.95317 0.00012207 3.11344 0.813296 1.80428 2.2398C0.495112 3.6663 -0.145689 5.58208 0.0265695 7.50475L24.2806 279.208C24.5355 282.047 26.5131 284.439 29.2554 285.224L139.57 316.738C140.183 316.911 140.824 317 141.458 317C142.092 317 142.732 316.911 143.346 316.738L253.757 285.224C256.499 284.439 258.477 282.047 258.731 279.208L282.972 7.50475C283.144 5.58208 282.496 3.6663 281.194 2.2398ZM51.9246 186.093L100.157 199.476V62.0219H127.718V241.196L51.9246 220.17V186.093ZM231.446 137.826L224.183 222.245L155.28 241.196V209.489L201.79 196.706L203.512 170.863L155.28 179.174V62.0219H237.964L235.587 89.5871H182.841V144.718L231.446 137.826Z" fill="#1C1C1C"/>
</g>
<defs>
<clipPath id="clip0">
<rect width="283" height="317" fill="white" transform="translate(-0.000976562 0.00012207)"/>
</clipPath>
</defs>
</svg>
