<svg width="65" height="65" viewBox="0 0 65 65" fill="none" xmlns="http://www.w3.org/2000/svg">
<path d="M39.6901 0.0131679C39.5343 0.0362497 39.3785 0.0824133 39.2284 0.151659C37.9587 0.780638 36.5158 2.65026 36.2387 3.01957C36.2214 3.04265 36.2041 3.06574 36.1926 3.08882C34.767 5.22388 34.0051 7.72249 33.9763 10.325C33.959 12.2754 34.3399 14.2085 35.1133 16.0723C36.914 20.3944 40.654 23.9721 45.1039 25.6455C45.254 25.6974 45.3983 25.7494 45.658 25.8417C45.6811 25.8532 45.9004 25.9225 45.935 25.9283L46.0966 25.986C46.3275 26.061 46.5641 26.136 46.795 26.1822C47.9666 26.4188 49.1094 26.5515 50.1829 26.5861C50.3676 26.5861 50.5523 26.5919 50.737 26.5919C58.8345 26.5919 61.9743 20.8791 63.0189 18.9749C63.1228 18.7902 63.1978 18.6402 63.2671 18.5479C63.2671 18.5421 63.2671 18.5421 63.2729 18.5363C63.7288 17.8612 63.5557 16.9437 62.8804 16.482C62.2109 16.0262 61.2932 16.1993 60.8315 16.8744H60.8257C58.6671 20.0539 54.9733 21.0176 49.8539 19.7481C49.473 19.6558 49.0574 19.5115 48.6881 19.373C48.2032 19.1999 47.7184 18.998 47.2682 18.7787C46.3736 18.3344 45.531 17.8035 44.7691 17.2149C40.2673 13.7238 38.507 6.45876 41.1388 2.26364C41.4909 1.70391 41.4274 0.976832 40.983 0.486344C40.6482 0.117035 40.1634 -0.0503075 39.6901 0.0131679ZM26.6002 2.9561C26.2654 2.95033 25.9249 3.05997 25.6479 3.29078C23.4142 5.10848 21.1287 8.08603 21.0306 8.20721C21.019 8.23029 21.0075 8.2476 20.9902 8.27068C16.9501 14.1508 16.6442 22.5179 20.2168 29.5867C20.7766 30.7062 21.4115 31.7737 22.0868 32.7547L22.2888 33.0432C22.8602 33.8799 23.5008 34.8263 24.3204 35.5649C24.6032 35.8881 24.9091 36.1997 25.2092 36.4997L25.3535 36.6498L25.4747 36.7709C25.7806 37.0652 26.0923 37.3653 26.4155 37.6538H26.4212C26.4443 37.6884 26.479 37.7115 26.5078 37.7404C26.8714 38.0635 27.2408 38.3694 27.7314 38.756L27.8641 38.8541C28.2451 39.1599 28.6318 39.4484 29.03 39.7312C29.0704 39.76 29.1108 39.7889 29.1512 39.8177C29.2897 39.9101 29.4282 39.9966 29.5668 40.0947L29.7053 40.187L29.8669 40.2909C30.1612 40.4871 30.4498 40.666 30.8596 40.9026C31.1251 41.0642 31.4079 41.2257 31.5926 41.3181C31.6734 41.3642 31.76 41.4104 31.962 41.52L32.4122 41.7566C32.4352 41.7682 32.5391 41.8143 32.5622 41.8259C32.8566 41.9759 33.1625 42.1202 33.4684 42.2586L33.9359 42.4664C34.2418 42.5991 34.5534 42.726 34.9343 42.8703L35.1075 42.9338C35.119 42.9453 35.2633 42.9973 35.2749 43.003C35.5519 43.1011 35.8347 43.1992 36.1175 43.2916L36.7639 43.5051C37.0872 43.6147 37.4623 43.7416 37.8721 43.8109C39.8864 44.1456 41.8429 44.3187 43.6956 44.3187C43.915 44.3187 44.1343 44.3129 44.3478 44.3129C60.6584 43.9552 64.9005 30.1003 64.9409 29.9618C65.1429 29.2636 64.8139 28.5192 64.1559 28.2076C63.498 27.896 62.713 28.1153 62.3033 28.7154C58.1708 34.7513 50.3561 37.3018 42.397 35.2014C42.0276 35.1091 41.6698 35.0052 41.2254 34.8609C41.1504 34.8378 41.0869 34.8148 40.9657 34.7686C40.7059 34.6878 40.452 34.6013 40.1634 34.4916L39.7536 34.3358C39.517 34.2435 39.2804 34.1512 38.9918 34.0242L38.8013 33.9376C38.4492 33.7876 38.1087 33.6203 37.8028 33.4702L36.9602 33.0317C36.7697 32.9394 36.6023 32.8355 36.3426 32.6797L36.1983 32.5989L36.054 32.5123C35.8405 32.3854 35.6269 32.2527 35.4307 32.1142L35.2922 32.0276C35.2806 32.0219 35.1652 31.9411 35.1537 31.9295C34.9805 31.8199 34.8131 31.7103 34.6515 31.6064C34.2937 31.3525 33.9416 31.087 33.5319 30.7639L33.3702 30.6312C29.561 27.5902 26.7445 23.5278 25.4228 19.1711C24.1934 15.1721 25.1053 9.93834 27.8641 5.17195C28.222 4.55451 28.0892 3.76973 27.5409 3.30809C27.2697 3.07728 26.9349 2.9561 26.6002 2.9561ZM10.3416 7.3878C9.98951 7.3878 9.63167 7.51476 9.34887 7.76866C6.52656 10.3019 4.41415 13.5853 4.18329 13.9603C-1.8538 22.7487 -0.687939 36.4074 3.45607 44.7572C3.53687 44.9304 3.62344 45.0977 3.71002 45.265L3.76773 45.3574C3.84276 45.5247 3.92934 45.6978 3.9582 45.7325C4.00437 45.8421 4.07363 45.9633 4.10248 45.9979C4.17174 46.1422 4.241 46.2691 4.36798 46.4884L4.84125 47.302C4.91051 47.4117 4.97977 47.5271 5.00285 47.5675C5.0952 47.7175 5.19332 47.8733 5.29143 48.0291L5.5223 48.3984C5.59156 48.508 5.66082 48.6061 5.70699 48.6638C5.93785 49.0216 6.16872 49.3794 6.42267 49.7198C6.43421 49.7371 6.44575 49.7487 6.4573 49.7602L6.54964 49.8872C6.75742 50.1872 6.97097 50.4758 7.16143 50.7124L8.00408 51.7799C8.01563 51.7914 8.10797 51.9011 8.11374 51.9126L8.23495 52.0511C8.4889 52.3627 8.76016 52.6743 9.03143 52.9744C9.07183 53.0205 9.11223 53.0609 9.15263 53.1071C9.41235 53.3898 9.67785 53.6726 9.95488 53.9669L10.2204 54.2208C10.4397 54.4516 10.659 54.6767 10.8899 54.8902C10.8899 54.8959 10.9995 54.9998 10.9995 54.9998L11.2304 55.2133C11.5074 55.4787 11.796 55.7442 12.0153 55.9288C12.0269 55.9462 12.2347 56.125 12.252 56.1366C12.5232 56.3789 12.7945 56.6098 13.0715 56.8348L14.4856 57.9543C14.7222 58.1274 14.9646 58.3005 15.2417 58.5025C15.334 58.5717 15.4321 58.641 15.5302 58.7044C15.5706 58.7391 15.6168 58.7737 15.6457 58.791L16.7076 59.5008C17.0943 59.7547 17.481 59.9912 17.9543 60.274L18.2083 60.4183C18.5026 60.5914 18.8027 60.7645 19.0855 60.9145C19.2529 61.0068 19.4203 61.0876 19.5646 61.1626C19.7666 61.2723 19.9859 61.3935 20.3207 61.555C20.3495 61.5723 20.5862 61.6878 20.615 61.6993C20.9498 61.8666 21.2903 62.0224 21.7174 62.2129C21.7174 62.2186 21.8559 62.2821 21.8559 62.2821C22.2484 62.4495 22.6293 62.611 23.1314 62.813C23.2122 62.8476 23.293 62.8765 23.3104 62.8822C23.6682 63.0207 24.0433 63.1592 24.3492 63.2689C24.3781 63.2804 24.5339 63.3439 24.5628 63.3554C24.9726 63.4939 25.3766 63.6266 25.896 63.7882C25.9826 63.8171 26.075 63.8459 26.0865 63.8459L26.3808 63.9382C26.7387 64.0479 27.0965 64.1633 27.4832 64.2383C30.2305 64.7403 32.9143 65 35.4538 65H35.4596C56.624 65 63.3652 47.9714 63.4345 47.7983C63.6942 47.1116 63.4114 46.3384 62.765 45.9806C62.1301 45.6286 61.3221 45.7959 60.8719 46.3787C55.4408 53.5283 45.1962 56.1827 33.4684 53.4879C33.1856 53.4187 32.897 53.3379 32.6142 53.2514L32.0601 53.084C31.6849 52.9686 31.3098 52.8417 30.9462 52.7147C30.9404 52.7147 30.773 52.6512 30.773 52.6512C30.4498 52.5416 30.1266 52.4146 29.8438 52.305L29.5206 52.1781C29.1628 52.0338 28.8049 51.8838 28.4586 51.728L28.2566 51.6414C27.9449 51.4971 27.6448 51.3586 27.3447 51.2086C27.3216 51.1971 27.085 51.0817 27.0619 51.0759C26.8541 50.972 26.6463 50.8624 26.3808 50.7181L25.1746 50.0718C25.0534 49.9911 24.9264 49.916 24.8052 49.8526C24.4416 49.6275 24.0664 49.4025 23.6971 49.1659C23.6105 49.1139 23.5354 49.0562 23.3912 48.9581C23.1372 48.7966 22.889 48.6292 22.5254 48.3753L22.3811 48.2715C22.1329 48.0983 21.8905 47.9137 21.6885 47.7637C21.5616 47.6713 21.4346 47.5675 21.2268 47.4117C21.0421 47.2674 20.8574 47.1289 20.6843 46.9904L20.3611 46.725C20.0898 46.5057 19.8359 46.2749 19.5704 46.0498C19.5357 46.0152 19.5069 45.9921 19.4665 45.9633C19.1721 45.6921 18.872 45.4208 18.5142 45.0804L17.4695 44.0417C17.2155 43.782 16.9616 43.5166 16.673 43.1992C16.4075 42.9049 16.1536 42.6106 15.8131 42.2067L15.1897 41.445C15.1147 41.3354 15.0339 41.2257 14.9358 41.1103C14.7222 40.8218 14.5087 40.539 14.2951 40.239C8.54661 32.3219 7.046 15.7954 11.5248 9.74215C11.9749 9.13625 11.8941 8.28223 11.3285 7.76866C11.0515 7.51476 10.6936 7.3878 10.3416 7.3878Z" fill="#1C1C1C"/>
</svg>
