<svg width="1146" height="461" viewBox="0 0 1146 461" fill="none" xmlns="http://www.w3.org/2000/svg">
<path opacity="0.16" d="M1107 432.937C1107 439.012 1059.09 443.937 1000 443.937C940.906 443.937 893 439.012 893 432.937C893 426.862 940.906 421.937 1000 421.937C1059.09 421.937 1107 426.862 1107 432.937Z" fill="black"/>
<path fill-rule="evenodd" clip-rule="evenodd" d="M1024.66 190.568L980.886 319.341L950.358 414.195L931.152 414.842L970.016 192.408L1024.66 190.568Z" fill="black"/>
<path fill-rule="evenodd" clip-rule="evenodd" d="M1036.54 190.168C1038.53 233.78 1040.13 292.533 1041.44 295.212C1042.75 297.89 1119.24 354.636 1119.24 354.636L1109.9 371.802C1109.9 371.802 1019.54 317.746 1014.76 310.3C1009.98 302.853 984.914 233.693 971.689 192.352L1036.54 190.168Z" fill="black"/>
<path fill-rule="evenodd" clip-rule="evenodd" d="M1137.03 365.377L1119.88 353.215L1106.94 369.747C1105.99 387.98 1096.27 410.932 1096.27 410.932L1099.42 413.399L1122.85 383.484L1129.29 372.016L1130.87 373.249L1137.03 365.377Z" fill="#191847"/>
<path d="M1106 376.437L1104 387.937L1118 389.937L1120.5 386.937L1123 382.937L1106 376.437Z" fill="black"/>
<path d="M1106 376.437L1104 387.937L1118 389.937L1120.5 386.937L1123 382.937L1106 376.437Z" fill="url(#paint0_linear)"/>
<path fill-rule="evenodd" clip-rule="evenodd" d="M952.746 432.125L951.04 411.171L930.052 411.877C915.477 422.874 891.645 430.18 891.645 430.18L891.78 434.178L929.759 432.899L942.685 430.463L942.752 432.462L952.746 432.125Z" fill="#191847"/>
<path d="M927 413.937L917 419.937L927 432.937H930L935 431.937L927 413.937Z" fill="black"/>
<path d="M927 413.937L917 419.937L927 432.937H930L935 431.937L927 413.937Z" fill="url(#paint1_linear)"/>
<path fill-rule="evenodd" clip-rule="evenodd" d="M957.876 41.9666C953.238 53.3125 956.776 80.4898 964.425 81.6298C967.476 82.0845 973.608 79.5463 979.642 74.99L978.594 104.013L1002.46 101.513L990.236 64.0732C994.256 58.214 996.667 51.2967 995.376 43.964C991.654 22.8362 962.515 30.6208 957.876 41.9666Z" fill="#B28B67"/>
<path d="M960.455 84.7968C960.611 86.2886 962.684 84.8683 963.78 82.9405C971.608 76.0879 965.74 79.8761 965.797 78.2046C962.821 78.5263 960.223 77.7828 959.83 78.8294C959.437 79.8761 960.299 83.305 960.455 84.7968Z" fill="#1C231F"/>
<path d="M967.139 40.3235C970.087 41.4916 972.5 43.7822 975.083 46.8457C975.087 46.9571 976.643 52.8142 977.479 58.8832C978.523 63.5038 980.266 67.4801 979.044 70.2821C973.361 76.674 967.004 78.6797 960.824 78.7254C960.99 81.1534 962.56 82.0628 966.162 81.6857C970.332 81.249 980.338 77.1728 981.746 70.8339C982.941 65.4572 979.365 53.7288 979.063 49.2916C979.314 49.2348 979.572 49.1922 979.834 49.1647C983.408 48.7906 986.604 51.3534 986.975 54.8889C987.163 56.6838 986.586 58.3842 985.505 59.6725C987.221 61.6066 989.128 63.615 991.286 65.6674C998.06 60.6236 1002.11 47.5113 993.781 36.1934C991.211 30.4912 986.462 27.7989 981.091 26.8803C976.68 25.5734 972.271 25.8356 968.677 27.2723C961.48 28.6489 961.543 29.0725 959.841 30.5659C953.884 34.0034 952.604 40.0908 967.139 40.3235Z" fill="#1C231F"/>
<path d="M972.622 33.1736C988.018 26.849 996.357 26.7671 1010.67 33.2698C1014.36 34.6371 1017.84 41.7521 1010.38 38.1892C1002.93 34.6262 971.949 29.4208 975.035 36.0411L972.622 33.1736Z" fill="url(#paint2_linear)"/>
<path d="M986.485 37.4231C1001.33 45.1238 1006.66 50.7524 1010.4 63.3112C1011.62 66.4135 1008.03 71.8773 1006.22 65.2591C1004.42 58.641 989.108 35.3296 985.678 40.3125L986.485 37.4231Z" fill="url(#paint3_linear)"/>
<path d="M984.085 39.9014C997.666 49.6622 1002.12 56 1004.02 68.9677C1004.78 72.2129 1000.44 77.1026 999.605 70.2928C998.77 63.483 986.983 38.208 982.87 42.6442L984.085 39.9014Z" fill="url(#paint4_linear)"/>
<path d="M982.073 41.4297C993.969 53.1851 997.386 60.1394 997.241 73.2443C997.483 76.5676 992.439 80.7229 992.673 73.8661C992.908 67.0093 985.198 40.2079 980.445 43.95L982.073 41.4297Z" fill="url(#paint5_linear)"/>
<path d="M989.568 45.552C999.043 59.1402 1001.5 65.9855 1000.38 76.7143C1000.34 79.527 995.633 81.2812 996.355 75.7199C997.077 70.1587 992.383 45.5777 987.96 47.0881L989.568 45.552Z" fill="url(#paint6_linear)"/>
<path d="M982.307 34.2466C996.716 42.736 1001.73 48.6434 1004.79 61.3858C1005.84 64.5491 1001.97 69.8118 1000.52 63.1058C999.069 56.3998 985.039 32.2974 981.345 37.0883L982.307 34.2466Z" fill="url(#paint7_linear)"/>
<path d="M980.4 30.3242C997.08 31.537 1004.2 34.6054 1012.6 44.6644C1014.94 47.0343 1013.8 53.4701 1009.53 48.1038C1005.25 42.7375 981.983 27.365 980.8 33.2975L980.4 30.3242Z" fill="url(#paint8_linear)"/>
<path d="M982.662 33.3792C998.973 37.0784 1005.55 41.1787 1012.35 52.3833C1014.31 55.0775 1012.22 61.2702 1008.8 55.3238C1005.37 49.3774 984.671 30.6907 982.612 36.3787L982.662 33.3792Z" fill="url(#paint9_linear)"/>
<path d="M969.438 27.5503C985.748 31.2496 992.323 35.3499 999.122 46.5545C1001.08 49.2487 998.994 55.4413 995.571 49.4949C992.149 43.5485 971.447 24.8619 969.388 30.5499L969.438 27.5503Z" fill="url(#paint10_linear)"/>
<path d="M968.25 29.218C984.936 28.0956 992.41 30.1432 1002.13 38.934C1004.78 40.9545 1004.55 47.4859 999.569 42.7673C994.589 38.0488 969.406 26.0671 969.059 32.1067L968.25 29.218Z" fill="url(#paint11_linear)"/>
<path d="M968.97 32.6267C984.412 39.0488 990.193 44.2086 994.984 56.407C996.458 59.3956 993.345 65.1423 990.985 58.7001C988.626 52.2579 971.407 30.3196 968.409 35.5739L968.97 32.6267Z" fill="url(#paint12_linear)"/>
<path d="M973.562 32.6785C986.155 26.0006 992.723 24.8627 1003.5 27.8346C1006.3 28.3717 1008.49 33.1976 1002.9 31.5192C997.298 29.8408 973.316 29.9832 975.244 34.4927L973.562 32.6785Z" fill="url(#paint13_linear)"/>
<path d="M966.019 36.0237C973.142 24.2091 978.16 20.0317 989.079 17.2743C991.786 16.3584 996.359 19.3666 990.611 20.686C984.862 22.0054 964.31 33.8633 968.475 36.7357L966.019 36.0237Z" fill="url(#paint14_linear)"/>
<path d="M964.287 35.2095C975.444 23.9317 982.802 20.7808 998.045 21.248C1001.85 21.0953 1007.73 26.105 999.723 25.7061C991.714 25.3072 962.214 32.1387 967.553 36.8549L964.287 35.2095Z" fill="url(#paint15_linear)"/>
<path d="M963.898 31.2578C976.736 18.6251 985.225 15.179 1002.85 16.0105C1007.25 15.9112 1014.07 21.7354 1004.81 21.1237C995.549 20.5119 961.487 27.7179 967.682 33.197L963.898 31.2578Z" fill="url(#paint16_linear)"/>
<path d="M964.509 37.8442C976.55 30.3116 983.016 28.719 994.005 30.927C996.843 31.2664 999.42 35.9205 993.699 34.6396C987.978 33.3587 964.049 35.1763 966.332 39.5341L964.509 37.8442Z" fill="url(#paint17_linear)"/>
<path d="M966.775 39.5298C976.214 34.4689 981.624 33.8794 991.503 37.1422C994.021 37.7845 996.914 42.1391 991.753 40.3264C986.591 38.5137 966.003 37.1583 968.598 41.2196L966.775 39.5298Z" fill="url(#paint18_linear)"/>
<path d="M961.592 38.0413C964.89 31.2626 968.382 28.5209 977.767 25.6616C980.028 24.8387 985.132 25.6835 980.154 27.1239C975.176 28.5643 959.392 37.2173 964.078 38.0518L961.592 38.0413Z" fill="url(#paint19_linear)"/>
<path d="M971.557 37.1838C979.055 36.4033 983.227 37.9202 990.613 44.378C992.506 45.8633 994.485 50.6431 990.632 47.1774C986.78 43.7116 971.094 34.8805 972.861 39.3L971.557 37.1838Z" fill="url(#paint20_linear)"/>
<path d="M959.343 37.0891C960.446 23.6192 963.11 17.8543 971.79 10.9995C973.837 9.09145 979.367 9.96079 974.737 13.4507C970.107 16.9406 956.803 35.8335 961.901 36.7445L959.343 37.0891Z" fill="url(#paint21_linear)"/>
<path d="M956.324 35.7483C962.792 22.9378 968.371 18.3131 982.071 14.9712C985.41 13.8962 992.173 16.9151 984.928 18.5341C977.684 20.1531 953.541 33.5203 959.733 36.4106L956.324 35.7483Z" fill="url(#paint22_linear)"/>
<path d="M963.498 37.041C966.194 21.4497 970.091 14.9525 981.624 7.66834C984.371 5.61112 991.207 7.06597 985.072 10.7576C978.937 14.4493 960.443 35.3761 966.733 36.8447L963.498 37.041Z" fill="url(#paint23_linear)"/>
<path d="M966.721 38.2183C961.491 25.7565 961.197 19.4125 965.74 9.32788C966.677 6.69125 971.985 4.91324 969.485 10.1447C966.985 15.3761 963.889 38.2745 968.833 36.7331L966.721 38.2183Z" fill="url(#paint24_linear)"/>
<path d="M964.421 36.249C971.685 38.2638 975.014 41.2014 979.527 49.9123C980.746 51.9869 980.84 57.1593 978.522 52.5249C976.203 47.8906 964.832 33.936 964.861 38.6956L964.421 36.249Z" fill="url(#paint25_linear)"/>
<path d="M960.18 39.1694C959.141 32.5475 960.276 28.8022 965.596 22.0577C966.81 20.334 970.912 18.4332 968.052 21.9545C965.192 25.4759 958.18 39.6502 961.976 37.9484L960.18 39.1694Z" fill="url(#paint26_linear)"/>
<path d="M963.286 38.1404C963.051 31.4416 964.628 27.8599 970.72 21.8037C972.133 20.2385 976.433 18.8444 973.171 21.9965C969.908 25.1486 961.243 38.3773 965.216 37.144L963.286 38.1404Z" fill="url(#paint27_linear)"/>
<path d="M971.89 40.3647C978.297 42.3344 981.166 44.9962 984.895 52.7346C985.912 54.5817 985.822 59.1019 983.911 54.9873C982 50.8728 972.334 38.3565 972.2 42.5142L971.89 40.3647Z" fill="url(#paint28_linear)"/>
<path d="M964.84 34.5017C972.378 34.4688 976.38 36.3921 983.088 43.5507C984.825 45.2165 986.32 50.169 982.83 46.3382C979.34 42.5074 964.608 32.1639 965.928 36.7368L964.84 34.5017Z" fill="url(#paint29_linear)"/>
<path fill-rule="evenodd" clip-rule="evenodd" d="M1130.29 220.588C1121.82 217.763 1109.2 212.193 1107.02 209.793C1102.57 204.884 1073.12 150.174 1073.12 150.174L1055.93 155.179C1055.93 155.179 1092.76 212.497 1095.3 215.748C1098.59 219.97 1097.31 227.844 1096.43 233.183C1096.3 234.009 1096.17 234.774 1096.08 235.456C1099.55 235.952 1100.55 233.864 1101.61 231.661C1102.8 229.174 1104.07 226.542 1109.04 227.327C1110.96 227.631 1112.83 228.104 1114.66 228.566C1120.97 230.162 1126.77 231.629 1132.34 225.518C1133.22 224.55 1133.68 221.722 1130.29 220.588L930.568 174.909L901.282 201.527C892.921 204.75 886.034 208.392 880.623 212.452C879.389 213.837 878.005 216.526 883.615 215.499C889.225 214.472 895.172 213.644 896.154 215.491C896.584 216.3 896.216 217.266 895.822 218.301C895.315 219.629 894.766 221.071 895.806 222.441C897.039 224.066 901.552 219.195 909.344 207.828L939.396 191.511L930.568 174.909L1130.29 220.588Z" fill="#B28B67"/>
<path fill-rule="evenodd" clip-rule="evenodd" d="M979.227 86.2702L990.321 89.5188C990.5 92.3086 990.925 96.2596 991.412 100.786C992.939 114.993 995.076 134.869 992.144 142.31C980.622 171.543 950.292 187.518 918.372 207.837L908.658 192.336C909.516 191.582 910.366 190.825 911.207 190.065C909.903 189.756 908.751 188.871 908.15 187.558C907.115 185.299 908.108 182.628 910.368 181.594C914.961 179.491 919.33 178.35 923.442 178.216C950.621 149.977 967.609 118.472 979.227 86.2702Z" fill="#1C1C1C"/>
<path d="M971.5 192.504C998.971 194.836 1038.88 192.504 1038.88 192.504C1029.92 144.694 1017.31 112.153 994.446 85.0357C994.446 85.0357 983.561 87.8105 978.897 85.9639C957.5 146.937 975.5 145.437 971.5 175.937C970.42 184.174 970.03 189.366 970.007 192.504L971.5 192.504Z" fill="#4F4F4F"/>
<path fill-rule="evenodd" clip-rule="evenodd" d="M1098.41 186.769C1062.5 110.669 1002.18 81.8146 1002.18 81.8146L990.866 82.9989C993.921 99.8078 990.483 125.094 986.494 154.427C980.115 201.339 972.329 258.603 987.446 308.097C999.811 309.53 1013.82 306.201 1028.98 302.598C1050.86 297.397 1075.15 291.623 1100.4 298.766C1095.41 265.857 1060.76 230.211 1045.19 196.717C1046.15 195.606 1046.55 194.05 1046.11 192.537L1045.29 189.653C1044.73 187.7 1042.96 186.419 1041.03 186.391C1040.54 184.934 1040.09 183.482 1039.7 182.035C1037.7 174.645 1037.7 167.134 1037.69 159.708C1037.69 155.631 1037.69 151.58 1037.36 147.587C1051.92 158.059 1070.21 177.06 1087.57 211.498L1105.78 204.004C1104.78 201.41 1103.75 198.865 1102.7 196.366C1104.75 194.939 1106.72 188.981 1104.79 188.224C1102.75 187.424 1100.62 186.942 1098.41 186.769Z" fill="#1C1C1C"/>
<path fill-rule="evenodd" clip-rule="evenodd" d="M998.173 83.2392L1004.96 98.4811L995.862 111.392L1006.17 119.71L987.632 160.758L1011.22 119.26L1001.06 110.847L1009.14 99.4335L998.173 83.2392Z" fill="black" fill-opacity="0.1"/>
<path fill-rule="evenodd" clip-rule="evenodd" d="M999.382 170.588C999.152 168.393 997.182 166.797 994.987 167.027C992.791 167.257 991.195 169.226 991.425 171.421C991.655 173.617 993.624 175.213 995.82 174.983C998.016 174.753 999.612 172.784 999.382 170.588L996.804 193.984C996.574 191.788 994.605 190.192 992.409 190.422C990.213 190.652 988.618 192.621 988.847 194.817C989.077 197.013 991.047 198.609 993.242 198.379C995.438 198.149 997.034 196.18 996.804 193.984L998.205 216.963C997.975 214.767 996.005 213.171 993.81 213.401C991.614 213.631 990.018 215.601 990.248 217.796C990.478 219.992 992.447 221.588 994.643 221.358C996.838 221.128 998.434 219.159 998.205 216.963L999.382 170.588Z" fill="black" fill-opacity="0.4"/>
<ellipse opacity="0.16" cx="438" cy="430" rx="333" ry="31" fill="black"/>
<path d="M415.128 233.6H435.092C437.3 233.6 438.68 234.612 439.232 236.636L459.748 295.332C459.809 295.516 459.84 295.823 459.84 296.252C459.84 296.62 459.625 297.019 459.196 297.448C458.828 297.816 458.368 298 457.816 298H440.796C438.956 298 437.76 297.233 437.208 295.7L435 289.628H415.22L413.012 295.7C412.46 297.233 411.264 298 409.424 298H392.404C391.852 298 391.361 297.816 390.932 297.448C390.564 297.019 390.38 296.62 390.38 296.252C390.38 295.823 390.411 295.516 390.472 295.332L410.988 236.636C411.54 234.612 412.92 233.6 415.128 233.6ZM419.912 271.688H430.308L425.064 254.576L419.912 271.688ZM531.154 294.964C531.338 295.271 531.43 295.669 531.43 296.16C531.43 296.589 531.216 297.019 530.786 297.448C530.418 297.816 529.958 298 529.406 298H508.43C506.652 298 505.394 297.295 504.658 295.884L493.434 275.828V295.516C493.434 296.191 493.189 296.773 492.698 297.264C492.208 297.755 491.625 298 490.95 298H473.378C472.704 298 472.121 297.755 471.63 297.264C471.14 296.773 470.894 296.191 470.894 295.516V236.084C470.894 235.409 471.14 234.827 471.63 234.336C472.121 233.845 472.704 233.6 473.378 233.6H490.95C491.625 233.6 492.208 233.845 492.698 234.336C493.189 234.827 493.434 235.409 493.434 236.084V254.3L503.83 235.624C504.505 234.275 505.732 233.6 507.51 233.6H527.842C528.394 233.6 528.854 233.815 529.222 234.244C529.652 234.612 529.866 235.041 529.866 235.532C529.866 235.961 529.774 236.329 529.59 236.636L513.03 264.42L531.154 294.964ZM562.195 233.6H582.159C584.367 233.6 585.747 234.612 586.299 236.636L606.815 295.332C606.876 295.516 606.907 295.823 606.907 296.252C606.907 296.62 606.692 297.019 606.263 297.448C605.895 297.816 605.435 298 604.883 298H587.863C586.023 298 584.827 297.233 584.275 295.7L582.067 289.628H562.287L560.079 295.7C559.527 297.233 558.331 298 556.491 298H539.471C538.919 298 538.428 297.816 537.999 297.448C537.631 297.019 537.447 296.62 537.447 296.252C537.447 295.823 537.478 295.516 537.539 295.332L558.055 236.636C558.607 234.612 559.987 233.6 562.195 233.6ZM566.979 271.688H577.375L572.131 254.576L566.979 271.688ZM656.785 233.6H673.437C674.112 233.6 674.695 233.845 675.185 234.336C675.676 234.827 675.921 235.409 675.921 236.084V295.516C675.921 296.191 675.676 296.773 675.185 297.264C674.695 297.755 674.112 298 673.437 298H658.901C657.307 298 656.049 297.295 655.129 295.884L639.581 272.424V295.516C639.581 296.191 639.336 296.773 638.845 297.264C638.355 297.755 637.772 298 637.097 298H620.445C619.771 298 619.188 297.755 618.697 297.264C618.207 296.773 617.961 296.191 617.961 295.516V236.084C617.961 235.409 618.207 234.827 618.697 234.336C619.188 233.845 619.771 233.6 620.445 233.6H634.981C636.699 233.6 637.956 234.305 638.753 235.716L654.301 261.2V236.084C654.301 235.409 654.547 234.827 655.037 234.336C655.528 233.845 656.111 233.6 656.785 233.6ZM743.152 233.6H757.688C758.363 233.6 758.945 233.845 759.436 234.336C759.927 234.827 760.172 235.409 760.172 236.084V295.516C760.172 296.191 759.927 296.773 759.436 297.264C758.945 297.755 758.363 298 757.688 298H741.036C740.361 298 739.779 297.755 739.288 297.264C738.797 296.773 738.552 296.191 738.552 295.516V270.308L732.48 280.244C731.499 281.777 730.364 282.544 729.076 282.544H722.636C721.348 282.544 720.213 281.777 719.232 280.244L713.16 270.308V295.516C713.16 296.191 712.915 296.773 712.424 297.264C711.933 297.755 711.351 298 710.676 298H694.024C693.349 298 692.767 297.755 692.276 297.264C691.785 296.773 691.54 296.191 691.54 295.516V236.084C691.54 235.409 691.785 234.827 692.276 234.336C692.767 233.845 693.349 233.6 694.024 233.6H708.56C710.277 233.6 711.596 234.428 712.516 236.084L725.856 258.164L739.196 236.084C740.116 234.428 741.435 233.6 743.152 233.6ZM813.99 233.6H832.022C832.696 233.6 833.279 233.845 833.77 234.336C834.26 234.827 834.506 235.409 834.506 236.084V273.068C834.506 281.655 831.838 288.125 826.502 292.48C821.166 296.773 813.898 298.92 804.698 298.92C795.559 298.92 788.291 296.773 782.894 292.48C777.558 288.187 774.89 281.716 774.89 273.068V236.084C774.89 235.409 775.135 234.827 775.626 234.336C776.116 233.845 776.699 233.6 777.374 233.6H795.406C796.08 233.6 796.663 233.845 797.154 234.336C797.644 234.827 797.89 235.409 797.89 236.084V273.344C797.89 278.067 800.159 280.428 804.698 280.428C809.236 280.428 811.506 278.067 811.506 273.344V236.084C811.506 235.409 811.751 234.827 812.242 234.336C812.732 233.845 813.315 233.6 813.99 233.6Z" fill="#B25FFF"/>
<g filter="url(#filter0_d)">
<path d="M34.11 181.732V198.868C34.11 204.376 36.626 207.13 41.658 207.13C45.534 207.13 48.084 205.294 49.308 201.622C49.648 200.466 50.056 199.684 50.532 199.276C51.076 198.868 51.926 198.664 53.082 198.664H73.89C74.502 198.664 75.012 198.902 75.42 199.378C75.896 199.786 76.134 200.296 76.134 200.908C76.134 206.824 74.434 211.788 71.034 215.8C64.778 223.28 55.02 227.02 41.76 227.02C31.356 227.02 23.06 224.742 16.872 220.186C10.684 215.562 7.59 208.49 7.59 198.97V181.63C7.59 172.314 10.752 165.31 17.076 160.618C23.4 155.926 31.628 153.58 41.76 153.58C55.02 153.58 64.778 157.32 71.034 164.8C74.434 168.812 76.134 173.776 76.134 179.692C76.134 180.304 75.896 180.848 75.42 181.324C75.012 181.732 74.502 181.936 73.89 181.936H53.082C51.994 181.936 51.178 181.732 50.634 181.324C50.158 180.916 49.716 180.134 49.308 178.978C48.016 175.306 45.466 173.47 41.658 173.47C36.626 173.47 34.11 176.224 34.11 181.732ZM134.689 154.6H154.681C155.429 154.6 156.075 154.872 156.619 155.416C157.163 155.96 157.435 156.606 157.435 157.354V223.246C157.435 223.994 157.163 224.64 156.619 225.184C156.075 225.728 155.429 226 154.681 226H134.689C133.941 226 133.295 225.728 132.751 225.184C132.207 224.64 131.935 223.994 131.935 223.246V201.214H115.411V223.246C115.411 223.994 115.139 224.64 114.595 225.184C114.051 225.728 113.405 226 112.657 226H92.6652C91.9172 226 91.2712 225.762 90.7272 225.286C90.1832 224.742 89.9112 224.062 89.9112 223.246V157.354C89.9112 156.606 90.1832 155.96 90.7272 155.416C91.2712 154.872 91.9172 154.6 92.6652 154.6H112.657C113.405 154.6 114.051 154.872 114.595 155.416C115.139 155.96 115.411 156.606 115.411 157.354V178.774H131.935V157.354C131.935 156.606 132.207 155.96 132.751 155.416C133.295 154.872 133.941 154.6 134.689 154.6ZM240.462 222.634C240.666 223.042 240.768 223.484 240.768 223.96C240.768 224.436 240.53 224.912 240.054 225.388C239.646 225.796 239.136 226 238.524 226H217.614C215.506 226 214.044 225.082 213.228 223.246L204.456 203.764H200.274V223.246C200.274 223.994 200.002 224.64 199.458 225.184C198.914 225.728 198.268 226 197.52 226H177.528C176.78 226 176.134 225.728 175.59 225.184C175.046 224.64 174.774 223.994 174.774 223.246V157.354C174.774 156.606 175.046 155.96 175.59 155.416C176.134 154.872 176.78 154.6 177.528 154.6H207.72C217.512 154.6 225.162 156.81 230.67 161.23C236.178 165.582 238.932 171.872 238.932 180.1C238.932 188.26 235.26 194.686 227.916 199.378L240.462 222.634ZM200.274 173.572V184.384H207.72C209.216 184.384 210.372 183.908 211.188 182.956C212.004 181.936 212.412 180.678 212.412 179.182C212.412 177.686 212.004 176.394 211.188 175.306C210.44 174.15 209.284 173.572 207.72 173.572H200.274ZM278.12 226H257.312C256.564 226 255.918 225.728 255.374 225.184C254.83 224.64 254.558 223.994 254.558 223.246V157.354C254.558 156.606 254.83 155.96 255.374 155.416C255.918 154.872 256.564 154.6 257.312 154.6H278.12C278.868 154.6 279.514 154.872 280.058 155.416C280.602 155.96 280.874 156.606 280.874 157.354V223.246C280.874 223.994 280.602 224.64 280.058 225.184C279.514 225.728 278.868 226 278.12 226ZM296.346 177.04C296.346 170.104 299.202 164.46 304.914 160.108C310.694 155.756 318.242 153.58 327.558 153.58C336.942 153.58 344.592 155.858 350.508 160.414C356.492 164.97 359.484 169.73 359.484 174.694C359.484 175.306 359.246 175.85 358.77 176.326C358.362 176.734 357.886 176.938 357.342 176.938H336.942C335.378 176.938 333.95 176.36 332.658 175.204C331.366 174.048 329.632 173.47 327.456 173.47C324.192 173.47 322.56 174.422 322.56 176.326C322.56 177.346 323.342 178.196 324.906 178.876C326.538 179.556 329.53 180.168 333.882 180.712C344.014 182.004 351.222 184.384 355.506 187.852C359.858 191.252 362.034 196.454 362.034 203.458C362.034 210.394 358.838 216.072 352.446 220.492C346.122 224.844 337.826 227.02 327.558 227.02C317.29 227.02 309.232 224.912 303.384 220.696C297.536 216.48 294.612 211.346 294.612 205.294C294.612 204.682 294.816 204.172 295.224 203.764C295.7 203.288 296.244 203.05 296.856 203.05H316.236C317.664 203.05 319.228 203.73 320.928 205.09C322.696 206.45 325.11 207.13 328.17 207.13C333.27 207.13 335.82 206.178 335.82 204.274C335.82 203.05 334.902 202.132 333.066 201.52C331.23 200.84 327.762 200.16 322.662 199.48C305.118 197.168 296.346 189.688 296.346 177.04ZM374.958 154.6H434.73C435.478 154.6 436.124 154.872 436.668 155.416C437.212 155.96 437.484 156.606 437.484 157.354V173.776C437.484 174.524 437.212 175.17 436.668 175.714C436.124 176.258 435.478 176.53 434.73 176.53H417.798V223.246C417.798 223.994 417.526 224.64 416.982 225.184C416.438 225.728 415.792 226 415.044 226H394.644C393.896 226 393.25 225.728 392.706 225.184C392.162 224.64 391.89 223.994 391.89 223.246V176.53H374.958C374.21 176.53 373.564 176.258 373.02 175.714C372.476 175.17 372.204 174.524 372.204 173.776V157.354C372.204 156.606 372.476 155.96 373.02 155.416C373.564 154.872 374.21 154.6 374.958 154.6ZM458.516 161.128C464.772 156.096 473.034 153.58 483.302 153.58C493.57 153.58 501.798 156.13 507.986 161.23C514.242 166.262 517.37 173.368 517.37 182.548V198.46C517.37 207.776 514.276 214.882 508.088 219.778C501.968 224.606 493.706 227.02 483.302 227.02C472.898 227.02 464.602 224.606 458.414 219.778C452.294 214.882 449.234 207.776 449.234 198.46V182.548C449.234 173.3 452.328 166.16 458.516 161.128ZM477.794 205.09C479.154 206.45 480.99 207.13 483.302 207.13C485.614 207.13 487.45 206.45 488.81 205.09C490.17 203.73 490.85 201.656 490.85 198.868V181.732C490.85 179.012 490.17 176.972 488.81 175.612C487.45 174.184 485.614 173.47 483.302 173.47C480.99 173.47 479.154 174.184 477.794 175.612C476.434 176.972 475.754 179.012 475.754 181.732V198.868C475.754 201.656 476.434 203.73 477.794 205.09ZM535.405 154.6H565.801C575.593 154.6 583.243 156.708 588.751 160.924C594.259 165.14 597.013 171.362 597.013 179.59C597.013 187.818 594.259 193.904 588.751 197.848C583.311 201.792 575.661 203.764 565.801 203.764H559.171V223.246C559.171 223.994 558.899 224.64 558.355 225.184C557.811 225.728 557.165 226 556.417 226H535.405C534.657 226 534.011 225.728 533.467 225.184C532.923 224.64 532.651 223.994 532.651 223.246V157.354C532.651 156.606 532.923 155.96 533.467 155.416C534.011 154.872 534.657 154.6 535.405 154.6ZM558.661 173.572V184.894H565.801C567.025 184.894 568.113 184.452 569.065 183.568C570.017 182.616 570.493 181.29 570.493 179.59C570.493 177.89 570.119 176.462 569.371 175.306C568.623 174.15 567.433 173.572 565.801 173.572H558.661ZM655.519 154.6H675.511C676.259 154.6 676.905 154.872 677.449 155.416C677.993 155.96 678.265 156.606 678.265 157.354V223.246C678.265 223.994 677.993 224.64 677.449 225.184C676.905 225.728 676.259 226 675.511 226H655.519C654.771 226 654.125 225.728 653.581 225.184C653.037 224.64 652.765 223.994 652.765 223.246V201.214H636.241V223.246C636.241 223.994 635.969 224.64 635.425 225.184C634.881 225.728 634.235 226 633.487 226H613.495C612.747 226 612.101 225.762 611.557 225.286C611.013 224.742 610.741 224.062 610.741 223.246V157.354C610.741 156.606 611.013 155.96 611.557 155.416C612.101 154.872 612.747 154.6 613.495 154.6H633.487C634.235 154.6 634.881 154.872 635.425 155.416C635.969 155.96 636.241 156.606 636.241 157.354V178.774H652.765V157.354C652.765 156.606 653.037 155.96 653.581 155.416C654.125 154.872 654.771 154.6 655.519 154.6ZM720.084 206.11H751.5C752.248 206.11 752.894 206.382 753.438 206.926C753.982 207.47 754.254 208.116 754.254 208.864V223.246C754.254 223.994 753.982 224.64 753.438 225.184C752.894 225.728 752.248 226 751.5 226H698.358C697.61 226 696.964 225.728 696.42 225.184C695.876 224.64 695.604 223.994 695.604 223.246V157.354C695.604 156.606 695.876 155.96 696.42 155.416C696.964 154.872 697.61 154.6 698.358 154.6H750.684C751.432 154.6 752.078 154.872 752.622 155.416C753.166 155.96 753.438 156.606 753.438 157.354V171.736C753.438 172.484 753.166 173.13 752.622 173.674C752.078 174.218 751.432 174.49 750.684 174.49H720.084V180.916H748.44C749.188 180.916 749.834 181.188 750.378 181.732C750.922 182.276 751.194 182.922 751.194 183.67V196.93C751.194 197.678 750.922 198.324 750.378 198.868C749.834 199.412 749.188 199.684 748.44 199.684H720.084V206.11ZM836.294 222.634C836.498 223.042 836.6 223.484 836.6 223.96C836.6 224.436 836.362 224.912 835.886 225.388C835.478 225.796 834.968 226 834.356 226H813.446C811.338 226 809.876 225.082 809.06 223.246L800.288 203.764H796.106V223.246C796.106 223.994 795.834 224.64 795.29 225.184C794.746 225.728 794.1 226 793.352 226H773.36C772.612 226 771.966 225.728 771.422 225.184C770.878 224.64 770.606 223.994 770.606 223.246V157.354C770.606 156.606 770.878 155.96 771.422 155.416C771.966 154.872 772.612 154.6 773.36 154.6H803.552C813.344 154.6 820.994 156.81 826.502 161.23C832.01 165.582 834.764 171.872 834.764 180.1C834.764 188.26 831.092 194.686 823.748 199.378L836.294 222.634ZM796.106 173.572V184.384H803.552C805.048 184.384 806.204 183.908 807.02 182.956C807.836 181.936 808.244 180.678 808.244 179.182C808.244 177.686 807.836 176.394 807.02 175.306C806.272 174.15 805.116 173.572 803.552 173.572H796.106Z" fill="url(#paint30_linear)"/>
</g>
<path d="M21.7715 134.11H11.0654V144H8.85742V122.384H23.3301V124.295H11.0654V132.218H21.7715V134.11ZM53.972 122.384V136.968C53.972 139.219 53.2298 141.007 51.7455 142.33C50.2611 143.641 48.2572 144.297 45.7337 144.297C43.2227 144.297 41.2311 143.66 39.7591 142.386C38.2871 141.099 37.5326 139.343 37.4955 137.116V122.384H39.6849V136.968C39.6849 138.675 40.223 140.011 41.2992 140.976C42.3877 141.94 43.8659 142.423 45.7337 142.423C47.5892 142.423 49.055 141.953 50.1312 141.013C51.2074 140.06 51.7517 138.73 51.764 137.023V122.384H53.972ZM72.2009 142.126H83.5564V144H69.9929V122.384H72.2009V142.126ZM100.097 142.126H111.452V144H97.8887V122.384H100.097V142.126ZM138.847 138.638C138.847 137.537 138.439 136.652 137.622 135.984C136.806 135.316 135.285 134.704 133.058 134.147C130.844 133.578 129.211 133.009 128.16 132.44C127.108 131.871 126.323 131.21 125.803 130.455C125.296 129.688 125.042 128.785 125.042 127.746C125.042 126.076 125.772 124.715 127.232 123.664C128.692 122.613 130.59 122.087 132.928 122.087C135.278 122.087 137.202 122.699 138.699 123.924C140.195 125.136 140.944 126.695 140.944 128.6H138.717C138.717 127.202 138.185 126.082 137.122 125.241C136.058 124.4 134.654 123.979 132.91 123.979C131.19 123.979 129.817 124.326 128.79 125.019C127.764 125.711 127.25 126.614 127.25 127.728C127.25 128.754 127.702 129.595 128.605 130.251C129.508 130.894 131.005 131.482 133.095 132.014C135.198 132.546 136.781 133.102 137.845 133.684C138.921 134.265 139.732 134.964 140.276 135.78C140.82 136.584 141.092 137.531 141.092 138.619C141.092 140.351 140.344 141.73 138.847 142.757C137.363 143.784 135.427 144.297 133.039 144.297C131.407 144.297 129.922 144.037 128.586 143.518C127.25 142.986 126.199 142.231 125.432 141.254C124.678 140.264 124.3 139.089 124.3 137.729H126.527C126.527 139.201 127.108 140.357 128.271 141.198C129.446 142.027 131.036 142.441 133.039 142.441C134.796 142.441 136.2 142.095 137.251 141.402C138.315 140.697 138.847 139.776 138.847 138.638ZM171.808 124.295H163.904V144H161.696V124.295H153.81V122.384H171.808V124.295ZM198.795 138.229H188.312L186.011 144H183.71L192.505 122.384H194.639L203.36 144H201.077L198.795 138.229ZM189.054 136.337H198.034L193.563 125.037L189.054 136.337ZM233.686 137.19C233.426 139.479 232.542 141.235 231.033 142.46C229.536 143.685 227.544 144.297 225.058 144.297C222.436 144.297 220.308 143.412 218.675 141.644C217.055 139.875 216.245 137.438 216.245 134.333V131.958C216.245 130.004 216.61 128.278 217.339 126.781C218.082 125.272 219.127 124.116 220.475 123.312C221.823 122.495 223.388 122.087 225.169 122.087C227.643 122.087 229.616 122.712 231.088 123.961C232.56 125.198 233.426 126.961 233.686 129.249H231.459C231.237 127.567 230.625 126.274 229.623 125.371C228.621 124.456 227.136 123.998 225.169 123.998C223.091 123.998 221.452 124.703 220.252 126.113C219.053 127.523 218.453 129.49 218.453 132.014V134.463C218.453 136.924 219.04 138.867 220.215 140.289C221.403 141.712 223.017 142.423 225.058 142.423C227.05 142.423 228.553 141.99 229.567 141.124C230.594 140.258 231.224 138.947 231.459 137.19H233.686ZM254.327 133.535L251.154 136.485V144H248.946V122.384H251.154V133.795L254.234 130.659L262.64 122.384H265.441L255.923 132.014L266.221 144H263.474L254.327 133.535ZM313.013 133.739H302.307V142.126H314.646V144H300.099V122.384H314.572V124.295H302.307V131.847H313.013V133.739ZM346.735 144H344.527L331.502 125.872V144H329.294V122.384H331.502L344.527 140.512V122.384H346.735V144ZM380.012 141.421C379.53 142.064 378.806 142.621 377.841 143.091C376.171 143.895 374.18 144.297 371.867 144.297C369.059 144.297 366.789 143.388 365.057 141.569C363.325 139.751 362.459 137.314 362.459 134.259V131.921C362.459 128.927 363.276 126.54 364.909 124.759C366.541 122.978 368.749 122.087 371.533 122.087C373.957 122.087 375.893 122.656 377.34 123.794C378.8 124.932 379.684 126.54 379.993 128.618H377.785C377.513 127.072 376.839 125.915 375.763 125.148C374.687 124.382 373.283 123.998 371.551 123.998C369.423 123.998 367.747 124.697 366.523 126.095C365.298 127.493 364.686 129.441 364.686 131.939V134.352C364.686 136.801 365.335 138.761 366.634 140.233C367.933 141.693 369.683 142.423 371.885 142.423C373.159 142.423 374.322 142.274 375.373 141.978C376.437 141.668 377.247 141.235 377.804 140.679V135.391H371.7V133.572H380.012V141.421ZM398.686 144H396.46V122.384H398.686V144ZM432.909 144H430.701L417.676 125.872V144H415.468V122.384H417.676L430.701 140.512V122.384H432.909V144ZM462.178 133.739H451.472V142.126H463.811V144H449.264V122.384H463.737V124.295H451.472V131.847H462.178V133.739ZM491.373 133.739H480.667V142.126H493.006V144H478.459V122.384H492.931V124.295H480.667V131.847H491.373V133.739ZM516.393 135.316H509.824V144H507.616V122.384H515.279C517.766 122.384 519.708 122.965 521.106 124.128C522.516 125.291 523.221 126.886 523.221 128.915C523.221 130.338 522.788 131.581 521.922 132.645C521.056 133.696 519.912 134.42 518.489 134.815L524.204 143.814V144H521.829L516.393 135.316ZM509.824 133.424H515.688C517.296 133.424 518.582 133.009 519.547 132.181C520.512 131.352 520.994 130.282 520.994 128.971C520.994 127.523 520.493 126.385 519.491 125.557C518.502 124.728 517.116 124.307 515.335 124.295H509.824V133.424ZM567.824 130.27H576.044V132.348H567.824V141.291H565.579V132.348H557.526V130.27H565.579V121.623H567.824V130.27ZM610.961 144V122.384H617.53C619.435 122.384 621.142 122.792 622.651 123.608C624.16 124.425 625.335 125.581 626.176 127.078C627.03 128.562 627.469 130.239 627.494 132.106V134.129C627.494 136.046 627.079 137.753 626.251 139.25C625.434 140.734 624.265 141.891 622.744 142.72C621.235 143.549 619.509 143.975 617.567 144H610.961ZM613.169 124.295V142.126H617.4C619.8 142.126 621.711 141.402 623.133 139.955C624.568 138.508 625.286 136.529 625.286 134.018V132.255C625.286 129.843 624.587 127.913 623.189 126.466C621.791 125.019 619.886 124.295 617.474 124.295H613.169ZM655.891 133.739H645.185V142.126H657.523V144H642.977V122.384H657.449V124.295H645.185V131.847H655.891V133.739ZM685.234 138.638C685.234 137.537 684.826 136.652 684.009 135.984C683.193 135.316 681.671 134.704 679.445 134.147C677.23 133.578 675.598 133.009 674.546 132.44C673.495 131.871 672.709 131.21 672.19 130.455C671.683 129.688 671.429 128.785 671.429 127.746C671.429 126.076 672.159 124.715 673.618 123.664C675.078 122.613 676.977 122.087 679.315 122.087C681.665 122.087 683.589 122.699 685.085 123.924C686.582 125.136 687.33 126.695 687.33 128.6H685.104C685.104 127.202 684.572 126.082 683.508 125.241C682.444 124.4 681.04 123.979 679.296 123.979C677.577 123.979 676.204 124.326 675.177 125.019C674.15 125.711 673.637 126.614 673.637 127.728C673.637 128.754 674.089 129.595 674.992 130.251C675.895 130.894 677.391 131.482 679.482 132.014C681.585 132.546 683.168 133.102 684.232 133.684C685.308 134.265 686.118 134.964 686.662 135.78C687.207 136.584 687.479 137.531 687.479 138.619C687.479 140.351 686.73 141.73 685.234 142.757C683.749 143.784 681.813 144.297 679.426 144.297C677.793 144.297 676.309 144.037 674.973 143.518C673.637 142.986 672.586 142.231 671.819 141.254C671.064 140.264 670.687 139.089 670.687 137.729H672.913C672.913 139.201 673.495 140.357 674.658 141.198C675.833 142.027 677.422 142.441 679.426 142.441C681.183 142.441 682.587 142.095 683.638 141.402C684.702 140.697 685.234 139.776 685.234 138.638ZM704.91 144H702.683V122.384H704.91V144ZM738.613 141.421C738.131 142.064 737.407 142.621 736.442 143.091C734.772 143.895 732.781 144.297 730.468 144.297C727.66 144.297 725.39 143.388 723.658 141.569C721.926 139.751 721.061 137.314 721.061 134.259V131.921C721.061 128.927 721.877 126.54 723.51 124.759C725.143 122.978 727.351 122.087 730.134 122.087C732.558 122.087 734.494 122.656 735.941 123.794C737.401 124.932 738.285 126.54 738.595 128.618H736.387C736.115 127.072 735.44 125.915 734.364 125.148C733.288 124.382 731.884 123.998 730.152 123.998C728.025 123.998 726.349 124.697 725.124 126.095C723.899 127.493 723.287 129.441 723.287 131.939V134.352C723.287 136.801 723.937 138.761 725.235 140.233C726.534 141.693 728.285 142.423 730.486 142.423C731.76 142.423 732.923 142.274 733.975 141.978C735.038 141.668 735.849 141.235 736.405 140.679V135.391H730.301V133.572H738.613V141.421ZM772.076 144H769.868L756.842 125.872V144H754.634V122.384H756.842L769.868 140.512V122.384H772.076V144ZM801.344 133.739H790.638V142.126H802.977V144H788.43V122.384H802.903V124.295H790.638V131.847H801.344V133.739ZM826.364 135.316H819.796V144H817.588V122.384H825.251C827.737 122.384 829.679 122.965 831.077 124.128C832.487 125.291 833.192 126.886 833.192 128.915C833.192 130.338 832.76 131.581 831.894 132.645C831.028 133.696 829.884 134.42 828.461 134.815L834.176 143.814V144H831.801L826.364 135.316ZM819.796 133.424H825.659C827.267 133.424 828.554 133.009 829.519 132.181C830.483 131.352 830.966 130.282 830.966 128.971C830.966 127.523 830.465 126.385 829.463 125.557C828.473 124.728 827.088 124.307 825.307 124.295H819.796V133.424Z" fill="#B25FFF"/>
<defs>
<filter id="filter0_d" x="0.589996" y="151.58" width="843.01" height="87.44" filterUnits="userSpaceOnUse" color-interpolation-filters="sRGB">
<feFlood flood-opacity="0" result="BackgroundImageFix"/>
<feColorMatrix in="SourceAlpha" type="matrix" values="0 0 0 0 0 0 0 0 0 0 0 0 0 0 0 0 0 0 127 0"/>
<feOffset dy="5"/>
<feGaussianBlur stdDeviation="3.5"/>
<feColorMatrix type="matrix" values="0 0 0 0 0 0 0 0 0 0 0 0 0 0 0 0 0 0 0.2 0"/>
<feBlend mode="normal" in2="BackgroundImageFix" result="effect1_dropShadow"/>
<feBlend mode="normal" in="SourceGraphic" in2="effect1_dropShadow" result="shape"/>
</filter>
<linearGradient id="paint0_linear" x1="1106.3" y1="377.364" x2="1119.87" y2="390.663" gradientUnits="userSpaceOnUse">
<stop/>
<stop offset="1" stop-color="#C4C4C4" stop-opacity="0"/>
</linearGradient>
<linearGradient id="paint1_linear" x1="926" y1="413.937" x2="926" y2="432.937" gradientUnits="userSpaceOnUse">
<stop/>
<stop offset="1" stop-color="#C4C4C4" stop-opacity="0"/>
</linearGradient>
<linearGradient id="paint2_linear" x1="979.653" y1="29.3606" x2="992.745" y2="18.3435" gradientUnits="userSpaceOnUse">
<stop offset="0.614583" stop-color="#1C231F"/>
<stop offset="1" stop-color="#A08A45"/>
</linearGradient>
<linearGradient id="paint3_linear" x1="994.016" y1="40.5367" x2="1011.03" y2="45.2899" gradientUnits="userSpaceOnUse">
<stop offset="0.614583" stop-color="#1C231F"/>
<stop offset="1" stop-color="#A08A45"/>
</linearGradient>
<linearGradient id="paint4_linear" x1="991.089" y1="44.0683" x2="1007.24" y2="51.2258" gradientUnits="userSpaceOnUse">
<stop offset="0.614583" stop-color="#1C231F"/>
<stop offset="1" stop-color="#A08A45"/>
</linearGradient>
<linearGradient id="paint5_linear" x1="988.342" y1="46.6357" x2="1003.19" y2="56.2203" gradientUnits="userSpaceOnUse">
<stop offset="0.614583" stop-color="#1C231F"/>
<stop offset="1" stop-color="#A08A45"/>
</linearGradient>
<linearGradient id="paint6_linear" x1="994.636" y1="51.8997" x2="1006.84" y2="64.6748" gradientUnits="userSpaceOnUse">
<stop offset="0.614583" stop-color="#1C231F"/>
<stop offset="1" stop-color="#A08A45"/>
</linearGradient>
<linearGradient id="paint7_linear" x1="989.659" y1="37.7614" x2="1006.4" y2="43.4247" gradientUnits="userSpaceOnUse">
<stop offset="0.614583" stop-color="#1C231F"/>
<stop offset="1" stop-color="#A08A45"/>
</linearGradient>
<linearGradient id="paint8_linear" x1="988.548" y1="30.2111" x2="1006.06" y2="27.8581" gradientUnits="userSpaceOnUse">
<stop offset="0.614583" stop-color="#1C231F"/>
<stop offset="1" stop-color="#A08A45"/>
</linearGradient>
<linearGradient id="paint9_linear" x1="990.736" y1="34.4887" x2="1008.4" y2="34.7872" gradientUnits="userSpaceOnUse">
<stop offset="0.614583" stop-color="#1C231F"/>
<stop offset="1" stop-color="#A08A45"/>
</linearGradient>
<linearGradient id="paint10_linear" x1="977.512" y1="28.6598" x2="995.179" y2="28.9583" gradientUnits="userSpaceOnUse">
<stop offset="0.614583" stop-color="#1C231F"/>
<stop offset="1" stop-color="#A08A45"/>
</linearGradient>
<linearGradient id="paint11_linear" x1="976.303" y1="27.9711" x2="993.317" y2="23.2017" gradientUnits="userSpaceOnUse">
<stop offset="0.614583" stop-color="#1C231F"/>
<stop offset="1" stop-color="#A08A45"/>
</linearGradient>
<linearGradient id="paint12_linear" x1="976.736" y1="35.0945" x2="994.095" y2="38.3965" gradientUnits="userSpaceOnUse">
<stop offset="0.614583" stop-color="#1C231F"/>
<stop offset="1" stop-color="#A08A45"/>
</linearGradient>
<linearGradient id="paint13_linear" x1="979.383" y1="28.9433" x2="990.286" y2="18.834" gradientUnits="userSpaceOnUse">
<stop offset="0.614583" stop-color="#1C231F"/>
<stop offset="1" stop-color="#A08A45"/>
</linearGradient>
<linearGradient id="paint14_linear" x1="968.951" y1="30.0139" x2="972.959" y2="16.194" gradientUnits="userSpaceOnUse">
<stop offset="0.614583" stop-color="#1C231F"/>
<stop offset="1" stop-color="#A08A45"/>
</linearGradient>
<linearGradient id="paint15_linear" x1="969.018" y1="29.2412" x2="976.347" y2="14.6932" gradientUnits="userSpaceOnUse">
<stop offset="0.614583" stop-color="#1C231F"/>
<stop offset="1" stop-color="#A08A45"/>
</linearGradient>
<linearGradient id="paint16_linear" x1="969.337" y1="24.5496" x2="977.754" y2="8.12567" gradientUnits="userSpaceOnUse">
<stop offset="0.614583" stop-color="#1C231F"/>
<stop offset="1" stop-color="#A08A45"/>
</linearGradient>
<linearGradient id="paint17_linear" x1="970.023" y1="33.7164" x2="980.083" y2="22.8632" gradientUnits="userSpaceOnUse">
<stop offset="0.614583" stop-color="#1C231F"/>
<stop offset="1" stop-color="#A08A45"/>
</linearGradient>
<linearGradient id="paint18_linear" x1="971.003" y1="36.6236" x2="978.435" y2="28.6058" gradientUnits="userSpaceOnUse">
<stop offset="0.614583" stop-color="#1C231F"/>
<stop offset="1" stop-color="#A08A45"/>
</linearGradient>
<linearGradient id="paint19_linear" x1="962.626" y1="34.6885" x2="962.657" y2="27.3567" gradientUnits="userSpaceOnUse">
<stop offset="0.614583" stop-color="#1C231F"/>
<stop offset="1" stop-color="#A08A45"/>
</linearGradient>
<linearGradient id="paint20_linear" x1="974.95" y1="36.2909" x2="981.192" y2="32.4441" gradientUnits="userSpaceOnUse">
<stop offset="0.614583" stop-color="#1C231F"/>
<stop offset="1" stop-color="#A08A45"/>
</linearGradient>
<linearGradient id="paint21_linear" x1="959.275" y1="30.5143" x2="957.372" y2="16.3916" gradientUnits="userSpaceOnUse">
<stop offset="0.614583" stop-color="#1C231F"/>
<stop offset="1" stop-color="#A08A45"/>
</linearGradient>
<linearGradient id="paint22_linear" x1="958.704" y1="29.2582" x2="961.547" y2="14.6265" gradientUnits="userSpaceOnUse">
<stop offset="0.614583" stop-color="#1C231F"/>
<stop offset="1" stop-color="#A08A45"/>
</linearGradient>
<linearGradient id="paint23_linear" x1="964.055" y1="29.3822" x2="963.049" y2="12.7906" gradientUnits="userSpaceOnUse">
<stop offset="0.614583" stop-color="#1C231F"/>
<stop offset="1" stop-color="#A08A45"/>
</linearGradient>
<linearGradient id="paint24_linear" x1="963.63" y1="32.4151" x2="955.431" y2="20.7596" gradientUnits="userSpaceOnUse">
<stop offset="0.614583" stop-color="#1C231F"/>
<stop offset="1" stop-color="#A08A45"/>
</linearGradient>
<linearGradient id="paint25_linear" x1="967.905" y1="36.6586" x2="975.121" y2="35.3601" gradientUnits="userSpaceOnUse">
<stop offset="0.614583" stop-color="#1C231F"/>
<stop offset="1" stop-color="#A08A45"/>
</linearGradient>
<linearGradient id="paint26_linear" x1="959.236" y1="36.1892" x2="955.558" y2="30.7798" gradientUnits="userSpaceOnUse">
<stop offset="0.614583" stop-color="#1C231F"/>
<stop offset="1" stop-color="#A08A45"/>
</linearGradient>
<linearGradient id="paint27_linear" x1="962.707" y1="35.0684" x2="959.707" y2="29.2561" gradientUnits="userSpaceOnUse">
<stop offset="0.614583" stop-color="#1C231F"/>
<stop offset="1" stop-color="#A08A45"/>
</linearGradient>
<linearGradient id="paint28_linear" x1="974.982" y1="40.8231" x2="981.456" y2="39.8891" gradientUnits="userSpaceOnUse">
<stop offset="0.614583" stop-color="#1C231F"/>
<stop offset="1" stop-color="#A08A45"/>
</linearGradient>
<linearGradient id="paint29_linear" x1="968.305" y1="33.9498" x2="974.897" y2="30.7412" gradientUnits="userSpaceOnUse">
<stop offset="0.614583" stop-color="#1C231F"/>
<stop offset="1" stop-color="#A08A45"/>
</linearGradient>
<linearGradient id="paint30_linear" x1="421.5" y1="131" x2="421.5" y2="257" gradientUnits="userSpaceOnUse">
<stop stop-color="#793DB0"/>
<stop offset="1" stop-color="#B25FFF"/>
</linearGradient>
</defs>
</svg>
