<svg width="21" height="21" viewBox="0 0 21 21" fill="none" xmlns="http://www.w3.org/2000/svg">
<path d="M21 12.7695V20.5334H16.499V13.2895C16.499 11.4698 15.848 10.2279 14.2188 10.2279C12.9751 10.2279 12.235 11.0649 11.9094 11.8745C11.7906 12.1639 11.7601 12.5667 11.7601 12.9719V20.5334H7.25758C7.25758 20.5334 7.31822 8.26466 7.25758 6.99353H11.7596V8.91274C11.7505 8.9271 11.7386 8.94258 11.73 8.95649H11.7596V8.91274C12.3578 7.99149 13.426 6.67544 15.817 6.67544C18.7793 6.67539 21 8.61062 21 12.7695ZM2.54778 0.466644C1.00748 0.466644 0 1.47696 0 2.80555C0 4.1052 0.978334 5.14617 2.48802 5.14617H2.51809C4.08822 5.14617 5.0647 4.10539 5.0647 2.80555C5.03511 1.47696 4.08822 0.466644 2.54778 0.466644ZM0.267409 20.5334H4.76819V6.99353H0.267409V20.5334Z" fill="#6FCF97"/>
</svg>
