<svg width="105" class="logo-bar" height="105" viewBox="0 0 105 105" fill="none" xmlns="http://www.w3.org/2000/svg">
<rect x="2.12132" y="52.3259" width="71" height="71" transform="rotate(-45 2.12132 52.3259)" stroke="#6FCF97" stroke-width="3"/>
<path class="logo-text" d="M43.3749 34.9359C45.2096 34.9359 46.6859 35.4519 47.8039 36.4839C48.9219 37.5159 49.4809 38.8632 49.4809 40.5259C49.4809 41.8446 49.1226 43.2062 48.4059 44.6109C47.7179 46.0156 46.8006 47.2482 45.6539 48.3089C44.5073 49.3696 43.3033 50.0862 42.0419 50.4589L41.6119 49.6849C42.8446 49.1402 43.8336 48.2659 44.5789 47.0619C45.3529 45.8579 45.7399 44.5822 45.7399 43.2349C45.7399 41.5149 45.2239 40.1389 44.1919 39.1069C43.1599 38.0462 41.7839 37.5159 40.0639 37.5159C38.3439 37.5159 36.7243 38.1322 35.2049 39.3649C33.6856 40.5976 32.4673 42.2459 31.5499 44.3099C30.6326 46.3452 30.1739 48.5239 30.1739 50.8459C30.1739 53.3686 30.5609 55.5902 31.3349 57.5109C32.1089 59.4316 33.1983 60.9222 34.6029 61.9829C36.0363 63.0149 37.6703 63.5309 39.5049 63.5309C40.8809 63.5309 42.2283 63.2442 43.5469 62.6709C44.8656 62.0689 46.0696 61.2089 47.1589 60.0909L48.1049 61.0369C45.0663 64.8782 41.4686 66.7989 37.3119 66.7989C34.9899 66.7989 32.9833 66.2256 31.2919 65.0789C29.6006 63.9322 28.2963 62.3842 27.3789 60.4349C26.4903 58.4569 26.0459 56.2639 26.0459 53.8559C26.0459 50.3299 26.8199 47.1336 28.3679 44.2669C29.9446 41.3716 32.0659 39.0926 34.7319 37.4299C37.3979 35.7672 40.2789 34.9359 43.3749 34.9359ZM72.9771 36.9569C69.7951 37.3869 66.9284 38.4906 64.3771 40.2679C61.8257 42.0166 59.8191 44.2382 58.3571 46.9329C56.9237 49.5989 56.2071 52.4942 56.2071 55.6189C56.2071 58.2276 56.7087 60.2916 57.7121 61.8109C58.7154 63.3302 60.0341 64.0899 61.6681 64.0899C63.2734 64.0899 64.8071 62.9862 66.2691 60.7789C67.7597 58.5429 68.9494 55.6332 69.8381 52.0499C70.7554 48.4379 71.2141 44.6826 71.2141 40.7839L75.2561 39.1929V61.7249C75.2561 62.5276 75.4281 63.1726 75.7721 63.6599C76.1161 64.1472 76.5891 64.3909 77.1911 64.3909C77.6497 64.3909 78.1227 64.2476 78.6101 63.9609C79.0974 63.6456 79.4701 63.2729 79.7281 62.8429L80.3301 63.4019C79.9287 64.2906 79.3124 65.0359 78.4811 65.6379C77.6497 66.2399 76.7037 66.5409 75.6431 66.5409C74.3244 66.5409 73.2494 66.0822 72.4181 65.1649C71.6154 64.2476 71.2141 62.9432 71.2141 61.2519V53.0389H70.9991C68.9351 62.2122 65.4377 66.7989 60.5071 66.7989C57.9557 66.7989 55.9061 65.9102 54.3581 64.1329C52.8101 62.3269 52.0361 59.8616 52.0361 56.7369C52.0361 53.1536 52.9821 49.7852 54.8741 46.6319C56.7661 43.4786 59.3174 40.9129 62.5281 38.9349C65.7387 36.9569 69.2217 35.8819 72.9771 35.7099V36.9569Z" fill="#6FCF97"/>
</svg>
