<svg width="135" height="130" viewBox="0 0 135 130" fill="none" xmlns="http://www.w3.org/2000/svg">
<rect x="9.82115" y="65" width="83.9239" height="83.9239" transform="rotate(-45 9.82115 65)" stroke="#6FCF97" stroke-width="8"/>
<path d="M57.036 43.04C59.2546 43.04 61.04 43.664 62.392 44.912C63.744 46.16 64.42 47.7893 64.42 49.8C64.42 51.3947 63.9866 53.0413 63.12 54.74C62.288 56.4387 61.1786 57.9293 59.792 59.212C58.4053 60.4947 56.9493 61.3613 55.424 61.812L54.904 60.876C56.3946 60.2173 57.5906 59.16 58.492 57.704C59.428 56.248 59.896 54.7053 59.896 53.076C59.896 50.996 59.272 49.332 58.024 48.084C56.776 46.8013 55.112 46.16 53.032 46.16C50.952 46.16 48.9933 46.9053 47.156 48.396C45.3186 49.8867 43.8453 51.88 42.736 54.376C41.6266 56.8373 41.072 59.472 41.072 62.28C41.072 65.3307 41.54 68.0173 42.476 70.34C43.412 72.6627 44.7293 74.4653 46.428 75.748C48.1613 76.996 50.1373 77.62 52.356 77.62C54.02 77.62 55.6493 77.2733 57.244 76.58C58.8386 75.852 60.2946 74.812 61.612 73.46L62.756 74.604C59.0813 79.2493 54.7306 81.572 49.704 81.572C46.896 81.572 44.4693 80.8787 42.424 79.492C40.3786 78.1053 38.8013 76.2333 37.692 73.876C36.6173 71.484 36.08 68.832 36.08 65.92C36.08 61.656 37.016 57.7907 38.888 54.324C40.7946 50.8227 43.36 48.0667 46.584 46.056C49.808 44.0453 53.292 43.04 57.036 43.04ZM92.8339 45.484C88.9859 46.004 85.5192 47.3387 82.4339 49.488C79.3486 51.6027 76.9219 54.2893 75.1539 57.548C73.4206 60.772 72.5539 64.2733 72.5539 68.052C72.5539 71.2067 73.1606 73.7027 74.3739 75.54C75.5872 77.3773 77.1819 78.296 79.1579 78.296C81.0992 78.296 82.9539 76.9613 84.7219 74.292C86.5246 71.588 87.9632 68.0693 89.0379 63.736C90.1472 59.368 90.7019 54.8267 90.7019 50.112L95.5899 48.188V75.436C95.5899 76.4067 95.7979 77.1867 96.2139 77.776C96.6299 78.3653 97.2019 78.66 97.9299 78.66C98.4846 78.66 99.0566 78.4867 99.6459 78.14C100.235 77.7587 100.686 77.308 100.998 76.788L101.726 77.464C101.241 78.5387 100.495 79.44 99.4899 80.168C98.4846 80.896 97.3406 81.26 96.0579 81.26C94.4632 81.26 93.1632 80.7053 92.1579 79.596C91.1872 78.4867 90.7019 76.9093 90.7019 74.864V64.932H90.4419C87.9459 76.0253 83.7166 81.572 77.7539 81.572C74.6686 81.572 72.1899 80.4973 70.3179 78.348C68.4459 76.164 67.5099 73.1827 67.5099 69.404C67.5099 65.0707 68.6539 60.9973 70.9419 57.184C73.2299 53.3707 76.3152 50.268 80.1979 47.876C84.0806 45.484 88.2926 44.184 92.8339 43.976V45.484Z" fill="#6FCF97"/>
</svg>
