<svg width="41" height="25" viewBox="0 0 41 25" fill="none" xmlns="http://www.w3.org/2000/svg">
<path d="M13.176 0.639999C14.5413 0.639999 15.64 1.024 16.472 1.792C17.304 2.56 17.72 3.56267 17.72 4.8C17.72 5.78133 17.4533 6.79467 16.92 7.84C16.408 8.88533 15.7253 9.80267 14.872 10.592C14.0186 11.3813 13.1226 11.9147 12.184 12.192L11.864 11.616C12.7813 11.2107 13.5173 10.56 14.072 9.664C14.648 8.768 14.936 7.81867 14.936 6.816C14.936 5.536 14.552 4.512 13.784 3.744C13.016 2.95467 11.992 2.56 10.712 2.56C9.43197 2.56 8.22664 3.01867 7.09597 3.936C5.9653 4.85333 5.05864 6.08 4.37597 7.616C3.6933 9.13067 3.35197 10.752 3.35197 12.48C3.35197 14.3573 3.63997 16.0107 4.21597 17.44C4.79197 18.8693 5.60264 19.9787 6.64797 20.768C7.71464 21.536 8.93064 21.92 10.296 21.92C11.32 21.92 12.3226 21.7067 13.304 21.28C14.2853 20.832 15.1813 20.192 15.992 19.36L16.696 20.064C14.4346 22.9227 11.7573 24.352 8.66397 24.352C6.93597 24.352 5.44264 23.9253 4.18397 23.072C2.9253 22.2187 1.95464 21.0667 1.27197 19.616C0.610636 18.144 0.27997 16.512 0.27997 14.72C0.27997 12.096 0.85597 9.71733 2.00797 7.584C3.1813 5.42933 4.75997 3.73333 6.74397 2.496C8.72797 1.25867 10.872 0.639999 13.176 0.639999ZM35.2055 2.144C32.8375 2.464 30.7041 3.28533 28.8055 4.608C26.9068 5.90933 25.4135 7.56267 24.3255 9.568C23.2588 11.552 22.7255 13.7067 22.7255 16.032C22.7255 17.9733 23.0988 19.5093 23.8455 20.64C24.5921 21.7707 25.5735 22.336 26.7895 22.336C27.9841 22.336 29.1255 21.5147 30.2135 19.872C31.3228 18.208 32.2081 16.0427 32.8695 13.376C33.5521 10.688 33.8935 7.89333 33.8935 4.992L36.9015 3.808V20.576C36.9015 21.1733 37.0295 21.6533 37.2855 22.016C37.5415 22.3787 37.8935 22.56 38.3415 22.56C38.6828 22.56 39.0348 22.4533 39.3975 22.24C39.7601 22.0053 40.0375 21.728 40.2295 21.408L40.6775 21.824C40.3788 22.4853 39.9201 23.04 39.3015 23.488C38.6828 23.936 37.9788 24.16 37.1895 24.16C36.2081 24.16 35.4081 23.8187 34.7895 23.136C34.1921 22.4533 33.8935 21.4827 33.8935 20.224V14.112H33.7335C32.1975 20.9387 29.5948 24.352 25.9255 24.352C24.0268 24.352 22.5015 23.6907 21.3495 22.368C20.1975 21.024 19.6215 19.1893 19.6215 16.864C19.6215 14.1973 20.3255 11.6907 21.7335 9.344C23.1415 6.99733 25.0401 5.088 27.4295 3.616C29.8188 2.144 32.4108 1.344 35.2055 1.216V2.144Z" fill="#6FCF97"/>
</svg>
