<svg width="186" height="37" viewBox="0 0 186 37" fill="none" xmlns="http://www.w3.org/2000/svg">
<rect width="186" height="37" fill="#6FCF97"/>
<g filter="url(#filter0_d)">
<path d="M59.8539 19.5635C59.8539 20.4795 59.6944 21.2839 59.3754 21.9766C59.0609 22.6693 58.6098 23.2025 58.0219 23.5762C57.434 23.9499 56.7549 24.1367 55.9848 24.1367C54.8227 24.1367 53.8839 23.722 53.1684 22.8926C52.4529 22.0586 52.0951 20.9352 52.0951 19.5225V18.4971C52.0951 17.5902 52.2546 16.7881 52.5736 16.0908C52.8972 15.389 53.3529 14.8512 53.9408 14.4775C54.5287 14.0993 55.2055 13.9102 55.9711 13.9102C56.7367 13.9102 57.4112 14.0947 57.9945 14.4639C58.5824 14.833 59.0359 15.3548 59.3549 16.0293C59.6739 16.7038 59.8402 17.4854 59.8539 18.374V19.5635ZM59.0131 18.4834C59.0131 17.2848 58.7419 16.346 58.1996 15.667C57.6573 14.988 56.9145 14.6484 55.9711 14.6484C55.046 14.6484 54.3077 14.9902 53.7562 15.6738C53.2094 16.3529 52.9359 17.3031 52.9359 18.5244V19.5635C52.9359 20.7438 53.2094 21.6803 53.7562 22.373C54.3031 23.0612 55.046 23.4053 55.9848 23.4053C56.9372 23.4053 57.6801 23.0658 58.2133 22.3867C58.7465 21.7031 59.0131 20.7529 59.0131 19.5361V18.4834ZM73.2955 14.7646H69.8844V24H69.0436V14.7646H65.6393V14.0469H73.2955V14.7646ZM87.0448 24H86.1971V19.2285H80.5096V24H79.6688V14.0469H80.5096V18.5176H86.1971V14.0469H87.0448V24ZM99.837 19.2285H95.1818V23.2891H100.534V24H94.3409V14.0469H100.5V14.7646H95.1818V18.5176H99.837V19.2285ZM110.79 19.8574H107.899V24H107.051V14.0469H110.285C111.346 14.0469 112.176 14.3044 112.773 14.8193C113.37 15.3343 113.668 16.0544 113.668 16.9795C113.668 17.6175 113.481 18.1803 113.108 18.668C112.734 19.1556 112.233 19.4928 111.604 19.6797L114.092 23.9111V24H113.197L110.79 19.8574ZM107.899 19.1396H110.476C111.182 19.1396 111.75 18.9391 112.178 18.5381C112.606 18.137 112.821 17.6175 112.821 16.9795C112.821 16.2777 112.597 15.7331 112.151 15.3457C111.704 14.9583 111.077 14.7646 110.271 14.7646H107.899V19.1396ZM126.351 21.5527C126.351 21.0013 126.157 20.5661 125.77 20.2471C125.383 19.9235 124.674 19.6182 123.644 19.3311C122.614 19.0394 121.862 18.7227 121.388 18.3809C120.714 17.8978 120.377 17.2643 120.377 16.4805C120.377 15.7194 120.689 15.1019 121.313 14.6279C121.942 14.1494 122.744 13.9102 123.719 13.9102C124.38 13.9102 124.97 14.0378 125.49 14.293C126.014 14.5482 126.42 14.9036 126.707 15.3594C126.994 15.8151 127.137 16.3232 127.137 16.8838H126.29C126.29 16.2048 126.057 15.6602 125.592 15.25C125.128 14.8353 124.503 14.6279 123.719 14.6279C122.958 14.6279 122.352 14.7988 121.901 15.1406C121.45 15.4779 121.224 15.9199 121.224 16.4668C121.224 16.9727 121.427 17.3851 121.833 17.7041C122.238 18.0231 122.888 18.3057 123.781 18.5518C124.674 18.7933 125.351 19.0462 125.811 19.3105C126.271 19.5703 126.618 19.8825 126.85 20.2471C127.083 20.6117 127.199 21.0423 127.199 21.5391C127.199 22.3229 126.884 22.9518 126.255 23.4258C125.631 23.8997 124.806 24.1367 123.781 24.1367C123.079 24.1367 122.434 24.0114 121.846 23.7607C121.263 23.5101 120.819 23.1592 120.513 22.708C120.213 22.2568 120.062 21.7396 120.062 21.1562H120.903C120.903 21.8581 121.165 22.4118 121.689 22.8174C122.213 23.223 122.91 23.4258 123.781 23.4258C124.556 23.4258 125.178 23.2549 125.647 22.9131C126.116 22.5713 126.351 22.1178 126.351 21.5527Z" fill="black"/>
</g>
<g opacity="0.79">
<path opacity="0.3" d="M37.5 -120H65.5L42.5 20L27.5 37H10.5L15 -37L30 -109L37.5 -120Z" fill="#1A1F1C"/>
<path opacity="0.3" d="M87.5 -120H112L121 -103L91.5 21.5L81.5 37H60.5L87.5 -120Z" fill="#1A1F1C"/>
<path opacity="0.3" d="M132.5 -120H162L168.5 -39L140 37H110.5L121.5 -42L132.5 -120Z" fill="#1A1F1C"/>
</g>
<defs>
<filter id="filter0_d" x="48.0952" y="13.9102" width="83.1037" height="18.2266" filterUnits="userSpaceOnUse" color-interpolation-filters="sRGB">
<feFlood flood-opacity="0" result="BackgroundImageFix"/>
<feColorMatrix in="SourceAlpha" type="matrix" values="0 0 0 0 0 0 0 0 0 0 0 0 0 0 0 0 0 0 127 0"/>
<feOffset dy="4"/>
<feGaussianBlur stdDeviation="2"/>
<feColorMatrix type="matrix" values="0 0 0 0 0 0 0 0 0 0 0 0 0 0 0 0 0 0 0.25 0"/>
<feBlend mode="normal" in2="BackgroundImageFix" result="effect1_dropShadow"/>
<feBlend mode="normal" in="SourceGraphic" in2="effect1_dropShadow" result="shape"/>
</filter>
</defs>
</svg>
