<svg width="229" height="56" viewBox="0 0 229 56" fill="none" xmlns="http://www.w3.org/2000/svg">
<path d="M31.3938 27.7109C31.3938 31.0703 30.8 34.0156 29.6125 36.5469C28.425 39.0781 26.7219 41.0312 24.5031 42.4062C22.3 43.7812 19.7688 44.4688 16.9094 44.4688C14.0813 44.4688 11.5578 43.7891 9.33907 42.4297C7.12032 41.0703 5.40157 39.1328 4.18282 36.6172C2.96407 34.0859 2.34688 31.1797 2.33125 27.8984V26.2109C2.33125 22.8516 2.93282 19.8984 4.13594 17.3516C5.35469 14.7891 7.06563 12.8281 9.26875 11.4688C11.4875 10.0937 14.0188 9.40625 16.8625 9.40625C19.7063 9.40625 22.2297 10.0937 24.4328 11.4688C26.6516 12.8281 28.3625 14.7891 29.5656 17.3516C30.7844 19.8984 31.3938 22.8438 31.3938 26.1875V27.7109ZM24.2688 26.1641C24.2688 22.5859 23.6281 19.8672 22.3469 18.0078C21.0656 16.1484 19.2375 15.2188 16.8625 15.2188C14.5031 15.2188 12.6828 16.1406 11.4016 17.9844C10.1203 19.8125 9.47188 22.5 9.45625 26.0469V27.7109C9.45625 31.1953 10.0969 33.8984 11.3781 35.8203C12.6594 37.7422 14.5031 38.7031 16.9094 38.7031C19.2688 38.7031 21.0813 37.7812 22.3469 35.9375C23.6125 34.0781 24.2531 31.375 24.2688 27.8281V26.1641ZM67.855 15.5703H57.4019V44H50.3706V15.5703H40.0581V9.875H67.855V15.5703ZM107.34 44H100.308V29.375H86.5975V44H79.5663V9.875H86.5975V23.7031H100.308V9.875H107.34V44ZM141.715 29.2109H128.215V38.3516H144.059V44H121.184V9.875H144.012V15.5703H128.215V23.7031H141.715V29.2109ZM168.497 31.5078H162.895V44H155.864V9.875H168.543C172.575 9.875 175.684 10.7734 177.872 12.5703C180.059 14.3672 181.153 16.9062 181.153 20.1875C181.153 22.5156 180.645 24.4609 179.629 26.0234C178.629 27.5703 177.106 28.8047 175.059 29.7266L182.442 43.6719V44H174.895L168.497 31.5078ZM162.895 25.8125H168.567C170.333 25.8125 171.7 25.3672 172.668 24.4766C173.637 23.5703 174.122 22.3281 174.122 20.75C174.122 19.1406 173.661 17.875 172.739 16.9531C171.833 16.0312 170.434 15.5703 168.543 15.5703H162.895V25.8125ZM211.895 35.0469C211.895 33.7188 211.427 32.7031 210.489 32C209.552 31.2812 207.864 30.5312 205.427 29.75C202.989 28.9531 201.059 28.1719 199.637 27.4062C195.762 25.3125 193.825 22.4922 193.825 18.9453C193.825 17.1016 194.341 15.4609 195.372 14.0234C196.419 12.5703 197.911 11.4375 199.848 10.625C201.802 9.8125 203.989 9.40625 206.411 9.40625C208.848 9.40625 211.02 9.85156 212.927 10.7422C214.833 11.6172 216.309 12.8594 217.356 14.4688C218.419 16.0781 218.95 17.9062 218.95 19.9531H211.919C211.919 18.3906 211.427 17.1797 210.442 16.3203C209.458 15.4453 208.075 15.0078 206.294 15.0078C204.575 15.0078 203.239 15.375 202.286 16.1094C201.333 16.8281 200.856 17.7812 200.856 18.9688C200.856 20.0781 201.411 21.0078 202.52 21.7578C203.645 22.5078 205.294 23.2109 207.466 23.8672C211.466 25.0703 214.38 26.5625 216.208 28.3438C218.036 30.125 218.95 32.3438 218.95 35C218.95 37.9531 217.833 40.2734 215.598 41.9609C213.364 43.6328 210.356 44.4688 206.575 44.4688C203.95 44.4688 201.559 43.9922 199.403 43.0391C197.247 42.0703 195.598 40.75 194.458 39.0781C193.333 37.4062 192.77 35.4688 192.77 33.2656H199.825C199.825 37.0312 202.075 38.9141 206.575 38.9141C208.247 38.9141 209.552 38.5781 210.489 37.9062C211.427 37.2188 211.895 36.2656 211.895 35.0469Z" fill="#6FCF97"/>
<path d="M36.3938 27.7109C36.3938 31.0703 35.8 34.0156 34.6125 36.5469C33.425 39.0781 31.7219 41.0312 29.5031 42.4062C27.3 43.7812 24.7688 44.4688 21.9094 44.4688C19.0813 44.4688 16.5578 43.7891 14.3391 42.4297C12.1203 41.0703 10.4016 39.1328 9.18282 36.6172C7.96407 34.0859 7.34688 31.1797 7.33125 27.8984V26.2109C7.33125 22.8516 7.93282 19.8984 9.13594 17.3516C10.3547 14.7891 12.0656 12.8281 14.2688 11.4688C16.4875 10.0937 19.0188 9.40625 21.8625 9.40625C24.7063 9.40625 27.2297 10.0937 29.4328 11.4688C31.6516 12.8281 33.3625 14.7891 34.5656 17.3516C35.7844 19.8984 36.3938 22.8438 36.3938 26.1875V27.7109ZM29.2688 26.1641C29.2688 22.5859 28.6281 19.8672 27.3469 18.0078C26.0656 16.1484 24.2375 15.2188 21.8625 15.2188C19.5031 15.2188 17.6828 16.1406 16.4016 17.9844C15.1203 19.8125 14.4719 22.5 14.4563 26.0469V27.7109C14.4563 31.1953 15.0969 33.8984 16.3781 35.8203C17.6594 37.7422 19.5031 38.7031 21.9094 38.7031C24.2688 38.7031 26.0813 37.7812 27.3469 35.9375C28.6125 34.0781 29.2531 31.375 29.2688 27.8281V26.1641ZM72.855 15.5703H62.4019V44H55.3706V15.5703H45.0581V9.875H72.855V15.5703ZM112.34 44H105.308V29.375H91.5975V44H84.5663V9.875H91.5975V23.7031H105.308V9.875H112.34V44ZM146.715 29.2109H133.215V38.3516H149.059V44H126.184V9.875H149.012V15.5703H133.215V23.7031H146.715V29.2109ZM173.497 31.5078H167.895V44H160.864V9.875H173.543C177.575 9.875 180.684 10.7734 182.872 12.5703C185.059 14.3672 186.153 16.9062 186.153 20.1875C186.153 22.5156 185.645 24.4609 184.629 26.0234C183.629 27.5703 182.106 28.8047 180.059 29.7266L187.442 43.6719V44H179.895L173.497 31.5078ZM167.895 25.8125H173.567C175.333 25.8125 176.7 25.3672 177.668 24.4766C178.637 23.5703 179.122 22.3281 179.122 20.75C179.122 19.1406 178.661 17.875 177.739 16.9531C176.833 16.0312 175.434 15.5703 173.543 15.5703H167.895V25.8125ZM216.895 35.0469C216.895 33.7188 216.427 32.7031 215.489 32C214.552 31.2812 212.864 30.5312 210.427 29.75C207.989 28.9531 206.059 28.1719 204.637 27.4062C200.762 25.3125 198.825 22.4922 198.825 18.9453C198.825 17.1016 199.341 15.4609 200.372 14.0234C201.419 12.5703 202.911 11.4375 204.848 10.625C206.802 9.8125 208.989 9.40625 211.411 9.40625C213.848 9.40625 216.02 9.85156 217.927 10.7422C219.833 11.6172 221.309 12.8594 222.356 14.4688C223.419 16.0781 223.95 17.9062 223.95 19.9531H216.919C216.919 18.3906 216.427 17.1797 215.442 16.3203C214.458 15.4453 213.075 15.0078 211.294 15.0078C209.575 15.0078 208.239 15.375 207.286 16.1094C206.333 16.8281 205.856 17.7812 205.856 18.9688C205.856 20.0781 206.411 21.0078 207.52 21.7578C208.645 22.5078 210.294 23.2109 212.466 23.8672C216.466 25.0703 219.38 26.5625 221.208 28.3438C223.036 30.125 223.95 32.3438 223.95 35C223.95 37.9531 222.833 40.2734 220.598 41.9609C218.364 43.6328 215.356 44.4688 211.575 44.4688C208.95 44.4688 206.559 43.9922 204.403 43.0391C202.247 42.0703 200.598 40.75 199.458 39.0781C198.333 37.4062 197.77 35.4688 197.77 33.2656H204.825C204.825 37.0312 207.075 38.9141 211.575 38.9141C213.247 38.9141 214.552 38.5781 215.489 37.9062C216.427 37.2188 216.895 36.2656 216.895 35.0469Z" fill="#FEC2BE"/>
<path d="M39.3938 27.7109C39.3938 31.0703 38.8 34.0156 37.6125 36.5469C36.425 39.0781 34.7219 41.0312 32.5031 42.4062C30.3 43.7812 27.7688 44.4688 24.9094 44.4688C22.0813 44.4688 19.5578 43.7891 17.3391 42.4297C15.1203 41.0703 13.4016 39.1328 12.1828 36.6172C10.9641 34.0859 10.3469 31.1797 10.3313 27.8984V26.2109C10.3313 22.8516 10.9328 19.8984 12.1359 17.3516C13.3547 14.7891 15.0656 12.8281 17.2688 11.4688C19.4875 10.0937 22.0188 9.40625 24.8625 9.40625C27.7063 9.40625 30.2297 10.0937 32.4328 11.4688C34.6516 12.8281 36.3625 14.7891 37.5656 17.3516C38.7844 19.8984 39.3938 22.8438 39.3938 26.1875V27.7109ZM32.2688 26.1641C32.2688 22.5859 31.6281 19.8672 30.3469 18.0078C29.0656 16.1484 27.2375 15.2188 24.8625 15.2188C22.5031 15.2188 20.6828 16.1406 19.4016 17.9844C18.1203 19.8125 17.4719 22.5 17.4563 26.0469V27.7109C17.4563 31.1953 18.0969 33.8984 19.3781 35.8203C20.6594 37.7422 22.5031 38.7031 24.9094 38.7031C27.2688 38.7031 29.0813 37.7812 30.3469 35.9375C31.6125 34.0781 32.2531 31.375 32.2688 27.8281V26.1641ZM75.855 15.5703H65.4019V44H58.3706V15.5703H48.0581V9.875H75.855V15.5703ZM115.34 44H108.308V29.375H94.5975V44H87.5663V9.875H94.5975V23.7031H108.308V9.875H115.34V44ZM149.715 29.2109H136.215V38.3516H152.059V44H129.184V9.875H152.012V15.5703H136.215V23.7031H149.715V29.2109ZM176.497 31.5078H170.895V44H163.864V9.875H176.543C180.575 9.875 183.684 10.7734 185.872 12.5703C188.059 14.3672 189.153 16.9062 189.153 20.1875C189.153 22.5156 188.645 24.4609 187.629 26.0234C186.629 27.5703 185.106 28.8047 183.059 29.7266L190.442 43.6719V44H182.895L176.497 31.5078ZM170.895 25.8125H176.567C178.333 25.8125 179.7 25.3672 180.668 24.4766C181.637 23.5703 182.122 22.3281 182.122 20.75C182.122 19.1406 181.661 17.875 180.739 16.9531C179.833 16.0312 178.434 15.5703 176.543 15.5703H170.895V25.8125ZM219.895 35.0469C219.895 33.7188 219.427 32.7031 218.489 32C217.552 31.2812 215.864 30.5312 213.427 29.75C210.989 28.9531 209.059 28.1719 207.637 27.4062C203.762 25.3125 201.825 22.4922 201.825 18.9453C201.825 17.1016 202.341 15.4609 203.372 14.0234C204.419 12.5703 205.911 11.4375 207.848 10.625C209.802 9.8125 211.989 9.40625 214.411 9.40625C216.848 9.40625 219.02 9.85156 220.927 10.7422C222.833 11.6172 224.309 12.8594 225.356 14.4688C226.419 16.0781 226.95 17.9062 226.95 19.9531H219.919C219.919 18.3906 219.427 17.1797 218.442 16.3203C217.458 15.4453 216.075 15.0078 214.294 15.0078C212.575 15.0078 211.239 15.375 210.286 16.1094C209.333 16.8281 208.856 17.7812 208.856 18.9688C208.856 20.0781 209.411 21.0078 210.52 21.7578C211.645 22.5078 213.294 23.2109 215.466 23.8672C219.466 25.0703 222.38 26.5625 224.208 28.3438C226.036 30.125 226.95 32.3438 226.95 35C226.95 37.9531 225.833 40.2734 223.598 41.9609C221.364 43.6328 218.356 44.4688 214.575 44.4688C211.95 44.4688 209.559 43.9922 207.403 43.0391C205.247 42.0703 203.598 40.75 202.458 39.0781C201.333 37.4062 200.77 35.4688 200.77 33.2656H207.825C207.825 37.0312 210.075 38.9141 214.575 38.9141C216.247 38.9141 217.552 38.5781 218.489 37.9062C219.427 37.2188 219.895 36.2656 219.895 35.0469Z" fill="#F2F2F2"/>
</svg>
