<svg width="262" height="104" viewBox="0 0 262 104" fill="none" xmlns="http://www.w3.org/2000/svg">
<path opacity="0.5" d="M12.863 0L226.119 29.7881L262 94.1034L38.5891 75.1473L12.863 0Z" fill="#6FCF97"/>
<path opacity="0.5" d="M0 9.47803L213.256 39.2661L249.137 103.581L25.7261 84.6253L0 9.47803Z" fill="#6FCF97"/>
<path d="M98.9614 50.1111C98.867 51.2269 98.5871 52.1885 98.1216 52.9959C97.6561 53.8033 97.0355 54.4042 96.2599 54.7986C95.4896 55.1934 94.6295 55.3507 93.6798 55.2704C92.7404 55.191 91.9213 54.8943 91.2226 54.3805C90.5238 53.8667 90.0073 53.1749 89.6732 52.3051C89.3395 51.4301 89.2161 50.4475 89.3031 49.3572L89.3504 48.7967C89.4448 47.6808 89.7275 46.7169 90.1987 45.9047C90.6755 45.0878 91.2988 44.4845 92.0688 44.0949C92.8443 43.7005 93.7044 43.5433 94.6489 43.6231C95.5935 43.703 96.4123 44.0022 97.1055 44.5208C97.8043 45.0346 98.3175 45.734 98.6451 46.6189C98.9784 47.4991 99.0981 48.4945 99.0042 49.6051L98.9614 50.1111ZM96.6383 49.3972C96.7388 48.2087 96.6023 47.2877 96.229 46.6341C95.8556 45.9806 95.2745 45.6204 94.4857 45.5537C93.702 45.4875 93.0715 45.7425 92.5942 46.319C92.1173 46.8902 91.8264 47.7646 91.7216 48.9423L91.6749 49.495C91.577 50.6523 91.7139 51.5681 92.0855 52.2425C92.4571 52.9168 93.0425 53.2878 93.8417 53.3553C94.6254 53.4216 95.2533 53.1663 95.7254 52.5895C96.198 52.0074 96.4867 51.1276 96.5915 49.9499L96.6383 49.3972ZM114.283 47.3453L110.811 47.0517L110.012 56.4946L107.677 56.2971L108.475 46.8542L105.05 46.5646L105.21 44.6729L114.443 45.4536L114.283 47.3453ZM129.469 58.1398L127.133 57.9423L127.544 53.0846L122.99 52.6995L122.579 57.5572L120.244 57.3597L121.202 46.0252L123.538 46.2227L123.149 50.8156L127.703 51.2007L128.092 46.6077L130.427 46.8052L129.469 58.1398ZM144.172 54.4357L139.688 54.0565L139.431 57.0926L144.693 57.5376L144.535 59.4137L136.937 58.7712L137.895 47.4367L145.477 48.0778L145.318 49.9695L140.071 49.5258L139.842 52.2271L144.326 52.6063L144.172 54.4357ZM155.872 56.1934L154.012 56.0361L153.661 60.1854L151.325 59.9879L152.284 48.6533L156.495 49.0094C157.834 49.1227 158.842 49.5084 159.518 50.1667C160.194 50.8249 160.486 51.699 160.394 52.7889C160.329 53.5621 160.105 54.194 159.724 54.6845C159.348 55.1702 158.808 55.5374 158.102 55.7861L160.162 60.6253L160.153 60.7343L157.647 60.5224L155.872 56.1934ZM154.172 54.1444L156.056 54.3037C156.642 54.3533 157.109 54.2438 157.455 53.9752C157.803 53.7014 157.998 53.3024 158.043 52.7782C158.088 52.2437 157.97 51.8103 157.69 51.4782C157.415 51.1466 156.963 50.9542 156.335 50.9011L154.459 50.7425L154.172 54.1444ZM173.057 58.8304C173.095 58.3893 172.968 58.0388 172.676 57.7789C172.385 57.5139 171.845 57.2174 171.058 56.8894C170.27 56.5563 169.651 56.2426 169.201 55.9483C167.972 55.1441 167.408 54.1529 167.508 52.9748C167.559 52.3624 167.777 51.832 168.16 51.3835C168.548 50.9302 169.076 50.5959 169.742 50.3804C170.413 50.1654 171.151 50.0919 171.956 50.1599C172.765 50.2284 173.474 50.4373 174.083 50.7866C174.691 51.1308 175.147 51.5849 175.449 52.1488C175.757 52.7132 175.882 53.3353 175.824 54.0152L173.489 53.8177C173.533 53.2987 173.403 52.8827 173.101 52.5696C172.798 52.2514 172.351 52.0672 171.76 52.0172C171.189 51.9689 170.735 52.0533 170.398 52.2705C170.061 52.4825 169.876 52.7857 169.842 53.1801C169.811 53.5486 169.969 53.8729 170.317 54.1532C170.669 54.4339 171.197 54.7137 171.9 54.9927C173.195 55.5047 174.121 56.0821 174.678 56.7251C175.235 57.3681 175.476 58.1307 175.402 59.013C175.319 59.9939 174.883 60.7332 174.093 61.2309C173.304 61.7235 172.282 61.9167 171.026 61.8105C170.154 61.7367 169.373 61.5113 168.684 61.1342C167.995 60.7518 167.484 60.267 167.152 59.6797C166.826 59.0928 166.693 58.4334 166.755 57.7017L169.098 57.8998C168.993 59.1505 169.687 59.8391 171.182 59.9655C171.737 60.0124 172.18 59.9375 172.51 59.7407C172.841 59.5386 173.023 59.2352 173.057 58.8304Z" fill="#1C1C1C"/>
</svg>
