<svg width="80" height="73" viewBox="0 0 80 73" fill="none" xmlns="http://www.w3.org/2000/svg">
<g clip-path="url(#clip0)">
<path d="M24.2068 72.8795C23.8958 72.8824 23.5899 72.8699 23.2895 72.8434C22.0882 72.7373 20.9751 72.3947 19.9692 71.81C17.4085 70.3218 15.9509 67.4115 15.4716 63.6352C15.0073 59.9773 15.4769 55.4387 16.7255 50.4059C11.7185 48.9869 7.53335 47.137 4.58534 44.9099C1.54149 42.6103 -0.255005 39.8894 -0.255005 36.9217C-0.255005 33.9539 1.5415 31.2332 4.58534 28.9335C7.53335 26.7063 11.7185 24.8549 16.7255 23.4355C15.4768 18.4032 15.0073 13.8662 15.4716 10.2082C15.9509 6.43176 17.4085 3.52157 19.9692 2.0334C21.1979 1.31962 22.5921 0.958801 24.106 0.959885C25.0688 0.959885 26.0809 1.10409 27.136 1.38528C31.1145 2.44631 35.5444 5.49078 39.9999 9.84098C44.4555 5.49078 48.8853 2.44631 52.8638 1.38528C53.9189 1.10409 54.931 0.959885 55.8938 0.959885C57.4064 0.959885 58.8018 1.31884 60.0306 2.0334C62.5913 3.52158 64.047 6.43178 64.5262 10.2082C64.9904 13.8662 64.5225 18.4032 63.2743 23.4355C68.2814 24.8549 72.4665 26.7063 75.4145 28.9335C78.4583 31.2332 80.2548 33.9539 80.2548 36.9217C80.2548 39.8894 78.4583 42.6103 75.4145 44.9099C72.4665 47.137 68.2814 48.9869 63.2743 50.4059C64.523 55.4382 64.9926 59.9752 64.5282 63.6332C64.0489 67.4096 62.5913 70.3218 60.0306 71.81C58.0187 72.9796 55.5754 73.1802 52.8638 72.4581C48.8851 71.398 44.4555 68.3506 39.9999 64.0004C35.5444 68.3506 31.1145 71.3971 27.136 72.4581C26.1191 72.7293 25.1398 72.8708 24.2068 72.8795ZM24.2028 71.8561C25.0355 71.8463 25.9231 71.7168 26.8679 71.4648C30.6613 70.4532 35.1317 67.4402 39.635 62.969C39.7318 62.8727 39.8631 62.8186 39.9999 62.8186C40.1368 62.8186 40.268 62.8727 40.3648 62.969C44.8682 67.4402 49.3387 70.4542 53.132 71.4648C55.6514 72.1358 57.7653 71.9376 59.5105 70.9231C61.7122 69.6435 63.0489 67.0915 63.5041 63.5048C63.9594 59.9181 63.511 55.3397 62.1897 50.1972C62.1564 50.0668 62.1757 49.9287 62.2435 49.8124C62.3114 49.6961 62.4223 49.6109 62.5526 49.5751C67.6922 48.1648 71.9004 46.2738 74.7895 44.0912C77.6786 41.9086 79.2227 39.477 79.2227 36.9217C79.2227 34.3663 77.6786 31.935 74.7895 29.7522C71.9004 27.5695 67.6922 25.6791 62.5526 24.2682C62.4223 24.2325 62.3114 24.1473 62.2435 24.031C62.1757 23.9147 62.1564 23.7765 62.1897 23.6462C63.5106 18.5036 63.9593 13.9233 63.5041 10.3366C63.049 6.74988 61.7122 4.19984 59.5105 2.9203C58.4442 2.29991 57.2459 1.98724 55.8938 1.98724C55.0339 1.98724 54.1123 2.11727 53.132 2.37853V2.37653C49.3385 3.38821 44.8682 6.4032 40.3648 10.8744C40.268 10.9707 40.1368 11.0247 39.9999 11.0247C39.8631 11.0247 39.7318 10.9707 39.635 10.8744C35.1317 6.4032 30.6613 3.38821 26.8679 2.37653V2.37853C25.8875 2.11727 24.966 1.98724 24.106 1.98724C22.7546 1.98627 21.5562 2.30056 20.4893 2.9203C18.2876 4.19986 16.951 6.74989 16.4957 10.3366C16.0404 13.9233 16.4888 18.5016 17.8101 23.6442C17.8441 23.7748 17.825 23.9135 17.7571 24.0302C17.6892 24.147 17.5779 24.2325 17.4472 24.2682C12.3076 25.6791 8.09941 27.5695 5.21029 29.7522C2.32118 31.935 0.777173 34.3663 0.777173 36.9217C0.777173 39.477 2.32119 41.9086 5.21029 44.0912C8.0994 46.2738 12.3077 48.1648 17.4472 49.5751C17.5775 49.6109 17.6885 49.6961 17.7563 49.8124C17.8241 49.9287 17.8435 50.0668 17.8101 50.1972C16.4888 55.3403 16.0404 59.9182 16.4957 63.5048C16.951 67.0913 18.2876 69.6435 20.4893 70.9231C21.362 71.4304 22.3266 71.7333 23.3883 71.826C23.6537 71.8492 23.9252 71.8594 24.2028 71.8561ZM24.1201 69.7974C23.1563 69.7974 22.2793 69.5852 21.5296 69.1493C19.71 68.092 18.7271 65.7436 18.4552 62.5737C18.1833 59.4038 18.6252 55.3496 19.8241 50.6908C19.8575 50.5615 19.9402 50.4503 20.0545 50.3806C20.1689 50.311 20.3061 50.2883 20.4369 50.3176C23.6866 51.0456 27.2401 51.5936 31.0167 51.9329C31.0918 51.9397 31.1645 51.9628 31.2296 52.0006C31.2947 52.0384 31.3508 52.0899 31.3937 52.1516C33.6103 55.3317 35.9154 58.2267 38.2339 60.7578C38.3237 60.8554 38.3721 60.9838 38.3691 61.1161C38.3661 61.2485 38.3119 61.3746 38.2178 61.4681C34.0343 65.6414 29.9276 68.5218 26.3336 69.4803C25.5513 69.6879 24.8126 69.7974 24.1201 69.7974ZM55.8797 69.7974C55.1863 69.7974 54.4492 69.6878 53.6662 69.4803C50.0721 68.5218 45.9655 65.6394 41.782 61.4661C41.6885 61.3727 41.6347 61.247 41.6317 61.1151C41.6287 60.9833 41.6767 60.8553 41.7659 60.7578C44.0845 58.2267 46.3896 55.3326 48.6061 52.1516C48.6491 52.0899 48.7051 52.0384 48.7702 52.0006C48.8354 51.9628 48.908 51.9397 48.9831 51.9329C52.7597 51.5936 56.3122 51.0456 59.5629 50.3176C59.6937 50.2883 59.8309 50.311 59.9453 50.3806C60.0597 50.4503 60.1423 50.5615 60.1758 50.6908C61.3747 55.3496 61.8165 59.4037 61.5446 62.5737C61.2727 65.7437 60.2897 68.0915 58.4702 69.1493C57.7208 69.5856 56.8426 69.7974 55.8797 69.7974ZM24.1201 68.77C24.7034 68.77 25.3553 68.6781 26.0675 68.4891C29.2514 67.64 33.1536 64.9428 37.1413 61.0347C34.9518 58.6103 32.7822 55.9025 30.6922 52.9201C27.1532 52.5929 23.8294 52.071 20.7373 51.4011C19.6535 55.7725 19.2352 59.5944 19.4834 62.4874C19.7407 65.4879 20.6778 67.4652 22.0497 68.2623C22.6253 68.597 23.3065 68.77 24.1201 68.77ZM55.8797 68.77C56.6922 68.77 57.3742 68.5965 57.9481 68.2623C57.9488 68.2623 57.9495 68.2623 57.9501 68.2623C59.3221 67.4647 60.2591 65.486 60.5165 62.4854C60.7646 59.5918 60.3467 55.7713 59.2625 51.3991C56.1697 52.0689 52.8466 52.5929 49.3077 52.9201C47.2175 55.9034 45.048 58.6105 42.8586 61.0347C46.8463 64.9429 50.7485 67.64 53.9323 68.4891C54.6459 68.6782 55.2953 68.77 55.8797 68.77ZM39.9656 59.3752C39.8318 59.3663 39.7067 59.3058 39.6169 59.2067C37.9157 57.3344 36.2188 55.2628 34.5628 53.0244C34.5052 52.9461 34.4711 52.8532 34.4643 52.7564C34.4576 52.6596 34.4785 52.5629 34.5247 52.4775C34.5709 52.392 34.6405 52.3213 34.7254 52.2736C34.8102 52.2259 34.907 52.203 35.0043 52.2078C36.6404 52.2865 38.3041 52.3322 39.9999 52.3322C41.6957 52.3322 43.3597 52.2855 44.9955 52.2058C45.0932 52.2007 45.1903 52.2234 45.2756 52.2713C45.3608 52.3191 45.4306 52.39 45.4769 52.4758C45.5232 52.5616 45.544 52.6588 45.5369 52.7559C45.5299 52.853 45.4952 52.9462 45.437 53.0244C43.781 55.2638 42.0841 57.3344 40.3829 59.2067C40.3307 59.2643 40.266 59.3095 40.1937 59.3387C40.1215 59.3678 40.0435 59.3804 39.9656 59.3752ZM39.9999 58.0489C41.3144 56.5779 42.6213 54.9602 43.9129 53.2612C42.6223 53.3113 41.3295 53.3595 39.9999 53.3595C38.6703 53.3595 37.3774 53.3108 36.0869 53.2612C37.3788 54.96 38.6852 56.5776 39.9999 58.0489ZM39.9999 50.2774C37.4621 50.2774 35.0181 50.1811 32.6739 50.0065C32.5962 50.0007 32.5208 49.9775 32.4534 49.9386C32.3861 49.8997 32.3284 49.8461 32.2848 49.7818C30.9634 47.8266 29.6773 45.7812 28.4524 43.6457C27.1878 41.4391 26.0523 39.268 25.0354 37.1424C25.0021 37.0732 24.9848 36.9974 24.9848 36.9207C24.9848 36.8439 25.0021 36.7682 25.0354 36.699C26.0523 34.5734 27.1878 32.4013 28.4524 30.1957C29.6763 28.061 30.9626 26.0166 32.2828 24.0616C32.3266 23.997 32.3846 23.9433 32.4523 23.9044C32.5201 23.8654 32.5958 23.8423 32.6739 23.8368C35.0181 23.6623 37.4621 23.5659 39.9999 23.5659C42.5377 23.5659 44.9827 23.6623 47.328 23.8368C47.4057 23.8426 47.481 23.8659 47.5484 23.9048C47.6158 23.9437 47.6734 23.9973 47.7171 24.0616C49.0372 26.0166 50.3255 28.061 51.5494 30.1957C52.8141 32.4013 53.9496 34.5734 54.9665 36.699C54.9998 36.7682 55.017 36.8439 55.017 36.9207C55.017 36.9974 54.9998 37.0732 54.9665 37.1424C53.9495 39.2691 52.8141 41.44 51.5494 43.6457C51.5494 43.6464 51.5494 43.647 51.5494 43.6477C50.3246 45.7822 49.0373 47.8267 47.7171 49.7818C47.6732 49.8463 47.6153 49.9001 47.5475 49.939C47.4798 49.9779 47.404 50.001 47.326 50.0065C44.9807 50.1811 42.5377 50.2774 39.9999 50.2774ZM28.783 49.6313C28.7561 49.6321 28.7291 49.6307 28.7024 49.6273C25.9783 49.3038 23.4256 48.8659 21.0599 48.3411C20.9904 48.3257 20.9249 48.2961 20.8674 48.2543C20.81 48.2124 20.7619 48.1592 20.7261 48.0979C20.6903 48.0367 20.6676 47.9688 20.6595 47.8984C20.6514 47.828 20.658 47.7567 20.6788 47.689C21.4015 45.3571 22.2952 42.9067 23.3762 40.363C23.4144 40.2727 23.4777 40.1953 23.5586 40.1396C23.6395 40.084 23.7347 40.0526 23.833 40.049C23.9313 40.0454 24.0285 40.0698 24.1133 40.1194C24.1981 40.169 24.2669 40.2417 24.3116 40.3288C25.0475 41.767 25.8248 43.2144 26.6582 44.665C26.6589 44.665 26.6596 44.665 26.6602 44.665C27.482 46.0978 28.3316 47.4857 29.1983 48.8427C29.2469 48.919 29.2745 49.0066 29.2782 49.0968C29.282 49.187 29.2618 49.2765 29.2197 49.3565C29.1776 49.4364 29.115 49.5039 29.0384 49.5522C28.9617 49.6004 28.8737 49.6277 28.783 49.6313ZM51.245 49.6313C51.2282 49.6315 51.2114 49.6308 51.1946 49.6293C51.1059 49.6221 51.0205 49.5922 50.9469 49.5425C50.8732 49.4928 50.8137 49.425 50.7741 49.3456C50.7346 49.2662 50.7163 49.1781 50.7211 49.0896C50.7259 49.0011 50.7536 48.9154 50.8015 48.8407C51.6675 47.4833 52.52 46.0985 53.3416 44.665C53.3416 44.6644 53.3416 44.6637 53.3416 44.663C54.174 43.2134 54.9513 41.7682 55.6882 40.3288C55.7327 40.2416 55.8014 40.1688 55.886 40.119C55.9707 40.0693 56.0679 40.0447 56.1662 40.048C56.2645 40.0514 56.3597 40.0826 56.4408 40.1381C56.5218 40.1935 56.5852 40.2708 56.6236 40.361C57.7047 42.9057 58.5973 45.3553 59.321 47.6869C59.3422 47.7547 59.3491 47.826 59.3413 47.8965C59.3334 47.967 59.311 48.0352 59.2754 48.0966C59.2398 48.1581 59.1918 48.2115 59.1344 48.2536C59.077 48.2957 59.0115 48.3255 58.942 48.3411C56.5753 48.8658 54.0215 49.3038 51.2974 49.6273C51.28 49.6295 51.2625 49.6309 51.245 49.6313ZM39.9999 49.2501C42.4235 49.2501 44.7499 49.1546 46.9953 48.9932C48.2544 47.1194 49.4841 45.1738 50.6523 43.138C51.8608 41.0303 52.937 38.956 53.9162 36.9217C52.9368 34.8878 51.8611 32.8136 50.6523 30.7053C49.4852 28.6697 48.2544 26.724 46.9953 24.8501C44.7504 24.6889 42.4229 24.5933 39.9999 24.5933C37.5763 24.5933 35.2491 24.6888 33.0045 24.8501C31.7454 26.724 30.5146 28.6697 29.3475 30.7053C28.1387 32.8136 27.063 34.8878 26.0837 36.9217C27.0628 38.9551 28.139 41.0293 29.3475 43.138C30.5157 45.1748 31.7467 47.1195 33.0065 48.9932C35.2505 49.1545 37.577 49.2501 39.9999 49.2501ZM27.7388 48.4254C27.071 47.359 26.4041 46.2922 25.7631 45.1747C25.1153 44.0471 24.5271 42.9282 23.9407 41.8097C23.1509 43.7443 22.443 45.6353 21.8683 47.4381C23.7051 47.8301 25.6831 48.1519 27.7388 48.4254ZM52.2611 48.4234C54.3165 48.1499 56.2921 47.8281 58.1295 47.4361C57.5543 45.6337 56.8465 43.7441 56.0571 41.8097C55.4707 42.9277 54.8852 44.0468 54.2387 45.1727C53.5978 46.2909 52.9283 47.3577 52.2611 48.4234ZM18.1407 47.6067C18.0992 47.6056 18.0579 47.5996 18.0178 47.5886C13.3664 46.3134 9.61975 44.6814 7.00249 42.8672C4.38524 41.0529 2.84153 39.0261 2.84153 36.9217C2.84153 34.8173 4.38524 32.7905 7.00249 30.9762C9.61975 29.1619 13.3664 27.5301 18.0178 26.2547C18.1471 26.2197 18.2851 26.2361 18.4025 26.3006C18.5198 26.365 18.6075 26.4723 18.6467 26.5999C19.6396 29.8215 20.9451 33.2176 22.5517 36.707C22.5828 36.7743 22.5989 36.8476 22.5989 36.9217C22.5989 36.9958 22.5828 37.0691 22.5517 37.1364C20.9451 40.6258 19.6396 44.0219 18.6467 47.2435C18.6138 47.3507 18.5465 47.4442 18.4551 47.5098C18.3637 47.5754 18.2533 47.6094 18.1407 47.6067ZM61.8289 47.6067C61.7214 47.603 61.6178 47.566 61.5326 47.5009C61.4473 47.4358 61.3845 47.3458 61.3531 47.2435C60.3602 44.0228 59.0547 40.6258 57.4481 37.1364C57.417 37.0691 57.4009 36.9958 57.4009 36.9217C57.4009 36.8476 57.417 36.7743 57.4481 36.707C59.0547 33.2176 60.3602 29.8215 61.3531 26.5999C61.3924 26.4723 61.48 26.365 61.5974 26.3006C61.7148 26.2361 61.8527 26.2197 61.9821 26.2547C66.6335 27.5301 70.3801 29.1619 72.9973 30.9762C75.6146 32.7905 77.1583 34.8173 77.1583 36.9217C77.1583 39.0261 75.6146 41.0529 72.9973 42.8672C70.3801 44.6814 66.6335 46.3133 61.9821 47.5886C61.9322 47.6023 61.8805 47.6083 61.8289 47.6067ZM17.8525 46.4469C18.8183 43.3894 20.03 40.2009 21.5296 36.9217C20.03 33.6425 18.8183 30.454 17.8525 27.3965C13.5099 28.6287 9.97995 30.1645 7.59317 31.819C5.11766 33.535 3.8737 35.3317 3.8737 36.9217C3.8737 38.5117 5.11766 40.3084 7.59317 42.0244C9.97995 43.6789 13.5099 45.2147 17.8525 46.4469ZM62.1474 46.4469C66.4899 45.2147 70.0199 43.6789 72.4067 42.0244C74.8822 40.3084 76.1261 38.5117 76.1261 36.9217C76.1261 35.3317 74.8822 33.535 72.4067 31.819C70.0199 30.1645 66.4899 28.6287 62.1474 27.3965C61.1815 30.454 59.9698 33.6425 58.4702 36.9217C59.9698 40.2009 61.1815 43.3902 62.1474 46.4469ZM39.9999 45.1406C35.4517 45.1406 31.7425 41.4487 31.7425 36.9217C31.7425 32.3947 35.4517 28.7028 39.9999 28.7028C44.5481 28.7028 48.2573 32.3947 48.2573 36.9217C48.2573 41.4487 44.5481 45.1406 39.9999 45.1406ZM39.9999 43.0859C43.4325 43.0859 46.193 40.3382 46.193 36.9217C46.193 33.5051 43.4325 30.7575 39.9999 30.7575C36.5674 30.7575 33.8068 33.5051 33.8068 36.9217C33.8068 40.3382 36.5674 43.0859 39.9999 43.0859ZM23.852 33.7934C23.7506 33.7936 23.6513 33.7639 23.5667 33.7083C23.4821 33.6526 23.4158 33.5733 23.3762 33.4804C22.2951 30.9376 21.4025 28.487 20.6788 26.1564C20.6576 26.0887 20.6507 26.0173 20.6586 25.9468C20.6664 25.8763 20.6888 25.8082 20.7244 25.7467C20.76 25.6853 20.808 25.6318 20.8654 25.5898C20.9228 25.5477 20.9883 25.5179 21.0578 25.5023C23.4236 24.9775 25.9774 24.5396 28.7004 24.2161C28.7974 24.2046 28.8958 24.2208 28.9839 24.2627C29.0721 24.3047 29.1465 24.3707 29.1985 24.4531C29.2504 24.5355 29.2778 24.6309 29.2774 24.7282C29.277 24.8255 29.2489 24.9206 29.1963 25.0026C28.3305 26.3588 27.479 27.7446 26.6562 29.1783C25.8246 30.6283 25.0474 32.0745 24.3116 33.5125C24.2685 33.597 24.2027 33.6679 24.1216 33.7175C24.0405 33.7671 23.9472 33.7934 23.852 33.7934ZM56.1317 33.7934C56.0393 33.7905 55.9494 33.7628 55.8713 33.7134C55.7933 33.664 55.7301 33.5946 55.6882 33.5125C54.9524 32.0743 54.174 30.628 53.3416 29.1783C52.52 27.7459 51.6675 26.3601 50.8015 25.0026C50.7489 24.9206 50.7208 24.8255 50.7204 24.7282C50.72 24.6309 50.7474 24.5355 50.7994 24.4531C50.8513 24.3707 50.9257 24.3047 51.0139 24.2627C51.102 24.2208 51.2004 24.2046 51.2974 24.2161C54.0215 24.5396 56.5743 24.9775 58.94 25.5023C59.0097 25.5177 59.0754 25.5473 59.133 25.5893C59.1906 25.6312 59.2389 25.6847 59.2747 25.7461C59.3105 25.8076 59.3331 25.8758 59.3411 25.9464C59.349 26.0171 59.3422 26.0886 59.321 26.1564C58.5973 28.487 57.7047 30.9366 56.6236 33.4804C56.583 33.5759 56.5142 33.6569 56.4264 33.7128C56.3386 33.7687 56.2359 33.7968 56.1317 33.7934ZM23.9427 32.0317C24.5289 30.914 25.1155 29.7943 25.7611 28.6687C26.4026 27.5509 27.0698 26.4851 27.7368 25.42C25.6825 25.6934 23.7065 26.0154 21.8703 26.4072C22.4455 28.209 23.1534 30.0985 23.9427 32.0317ZM56.0571 32.0317C56.8465 30.098 57.5543 28.2089 58.1295 26.4072C56.2934 26.0154 54.3177 25.6934 52.2631 25.42C52.9301 26.4852 53.5981 27.5517 54.2387 28.6687C54.8852 29.7945 55.4712 30.914 56.0571 32.0317ZM59.6839 23.5399C59.6424 23.5401 59.6012 23.5354 59.5609 23.5258C56.3112 22.7977 52.7597 22.2497 48.9831 21.9105C48.908 21.9037 48.8354 21.8805 48.7702 21.8428C48.7051 21.805 48.6491 21.7534 48.6061 21.6918C46.3895 18.5107 44.0844 15.6167 41.7659 13.0856C41.6761 12.9879 41.6277 12.8596 41.6307 12.7272C41.6337 12.5949 41.6879 12.4688 41.782 12.3753C45.9655 8.20197 50.0722 5.32154 53.6662 4.36303C55.5407 3.86485 57.1814 3.94511 58.4702 4.69411C60.2897 5.75189 61.2728 8.0995 61.5446 11.2697C61.8164 14.4398 61.3732 18.4933 60.1737 23.1526C60.1459 23.2616 60.083 23.3585 59.9945 23.4285C59.906 23.4985 59.7968 23.5376 59.6839 23.5399ZM20.3361 23.5378C20.2196 23.5406 20.1056 23.504 20.0126 23.4341C19.9196 23.3641 19.8532 23.2649 19.8241 23.1526C18.6257 18.4939 18.1835 14.4397 18.4552 11.2697C18.727 8.09966 19.7101 5.7519 21.5296 4.69411C21.5303 4.69344 21.5309 4.69278 21.5316 4.69211C22.8202 3.94558 24.46 3.86586 26.3336 4.36303C29.9276 5.32154 34.0353 8.20298 38.2178 12.3753C38.3113 12.4687 38.3652 12.5944 38.3682 12.7262C38.3712 12.8581 38.3231 12.986 38.2339 13.0836C35.9153 15.6158 33.6103 18.5107 31.3937 21.6918C31.3508 21.7534 31.2947 21.805 31.2296 21.8428C31.1645 21.8805 31.0918 21.9037 31.0167 21.9105C27.2411 22.2497 23.6866 22.7977 20.4369 23.5258C20.4038 23.5331 20.37 23.5371 20.3361 23.5378ZM59.2605 22.4443C60.3452 18.0715 60.7645 14.2497 60.5165 11.3559C60.2592 8.35522 59.3221 6.37867 57.9501 5.58102C56.962 5.00677 55.6374 4.90112 53.9323 5.35428C50.7484 6.20341 46.8462 8.90056 42.8586 12.8087C45.0481 15.233 47.2176 17.9399 49.3077 20.9233C52.8465 21.2505 56.1686 21.7744 59.2605 22.4443ZM20.7373 22.4423C23.8293 21.7724 27.1522 21.2505 30.6902 20.9233C32.7803 17.9399 34.9498 15.2318 37.1393 12.8067C33.1525 8.89954 29.2514 6.20341 26.0675 5.35428C24.3637 4.90217 23.0381 5.00841 22.0497 5.58102C20.6777 6.37865 19.7406 8.35533 19.4834 11.3559C19.2353 14.2491 19.654 18.0708 20.7373 22.4423ZM34.9519 21.6356C34.859 21.6307 34.7691 21.6009 34.6918 21.5494C34.6145 21.4978 34.5527 21.4264 34.5128 21.3427C34.4729 21.259 34.4565 21.1662 34.4653 21.074C34.4742 20.9818 34.5078 20.8936 34.5628 20.8189C36.2188 18.5795 37.9157 16.509 39.6169 14.6367C39.6653 14.5834 39.7244 14.5407 39.7903 14.5116C39.8563 14.4824 39.9277 14.4673 39.9999 14.4673C40.0721 14.4673 40.1435 14.4824 40.2095 14.5116C40.2755 14.5407 40.3346 14.5834 40.3829 14.6367C42.084 16.5099 43.781 18.5806 45.437 20.8189C45.4946 20.8972 45.5287 20.9901 45.5355 21.0869C45.5422 21.1837 45.5213 21.2805 45.4751 21.3659C45.4289 21.4514 45.3593 21.522 45.2745 21.5698C45.1896 21.6175 45.0929 21.6403 44.9955 21.6356C43.3594 21.5569 41.6957 21.5112 39.9999 21.5112C38.3041 21.5112 36.6404 21.5569 35.0043 21.6356C34.9869 21.6365 34.9694 21.6365 34.9519 21.6356ZM36.0869 20.5822C37.3774 20.5327 38.6703 20.4838 39.9999 20.4838C41.3295 20.4838 42.6224 20.5326 43.9129 20.5822C42.621 18.8834 41.3147 17.2665 39.9999 15.7945C38.6852 17.2658 37.3788 18.8828 36.0869 20.5822Z" fill="#1C1C1C"/>
</g>
<defs>
<clipPath id="clip0">
<rect width="79.6533" height="71.92" fill="white" transform="matrix(1 0 0 -1 0.17334 72.8799)"/>
</clipPath>
</defs>
</svg>
