<svg width="116" height="107" viewBox="0 0 116 107" fill="none" xmlns="http://www.w3.org/2000/svg">
<path d="M-0.000488281 10C-0.000488281 4.47715 4.47666 0 9.99951 0H105.999C111.522 0 115.999 4.47715 115.999 10V107H-0.000488281V10Z" fill="#6FCF97" fill-opacity="0.67"/>
<path d="M-0.000488281 86H115.999V107H-0.000488281V86Z" fill="black" fill-opacity="0.05"/>
<path d="M40.1395 96.5488H38.1356V100H37.0047V91.4688H39.829C40.7899 91.4688 41.5282 91.6875 42.0438 92.125C42.5633 92.5625 42.8231 93.1992 42.8231 94.0352C42.8231 94.5664 42.6786 95.0293 42.3895 95.4238C42.1044 95.8184 41.7059 96.1133 41.1942 96.3086L43.1981 99.9297V100H41.9911L40.1395 96.5488ZM38.1356 95.6289H39.8641C40.4227 95.6289 40.8661 95.4844 41.1942 95.1953C41.5262 94.9062 41.6922 94.5195 41.6922 94.0352C41.6922 93.5078 41.534 93.1035 41.2176 92.8223C40.9051 92.541 40.452 92.3984 39.8583 92.3945H38.1356V95.6289ZM46.9861 100.117C46.1267 100.117 45.4275 99.8359 44.8884 99.2734C44.3494 98.707 44.0798 97.9512 44.0798 97.0059V96.8066C44.0798 96.1777 44.199 95.6172 44.4372 95.125C44.6794 94.6289 45.0154 94.2422 45.4451 93.9648C45.8787 93.6836 46.3474 93.543 46.8513 93.543C47.6755 93.543 48.3162 93.8145 48.7732 94.3574C49.2302 94.9004 49.4587 95.6777 49.4587 96.6895V97.1406H45.1638C45.1794 97.7656 45.3611 98.2715 45.7087 98.6582C46.0603 99.041 46.5056 99.2324 47.0447 99.2324C47.4275 99.2324 47.7517 99.1543 48.0173 98.998C48.2829 98.8418 48.5154 98.6348 48.7146 98.377L49.3767 98.8926C48.8454 99.709 48.0486 100.117 46.9861 100.117ZM46.8513 94.4336C46.4138 94.4336 46.0466 94.5938 45.7497 94.9141C45.4529 95.2305 45.2693 95.6758 45.199 96.25H48.3747V96.168C48.3435 95.6172 48.1951 95.1914 47.9294 94.8906C47.6638 94.5859 47.3044 94.4336 46.8513 94.4336ZM54.7526 100C54.6901 99.875 54.6393 99.6523 54.6002 99.332C54.0963 99.8555 53.4947 100.117 52.7955 100.117C52.1705 100.117 51.6569 99.9414 51.2545 99.5898C50.8561 99.2344 50.6569 98.7852 50.6569 98.2422C50.6569 97.582 50.9069 97.0703 51.4069 96.707C51.9108 96.3398 52.6178 96.1562 53.5279 96.1562H54.5826V95.6582C54.5826 95.2793 54.4694 94.9785 54.2428 94.7559C54.0162 94.5293 53.6822 94.416 53.2408 94.416C52.8541 94.416 52.5299 94.5137 52.2682 94.709C52.0065 94.9043 51.8756 95.1406 51.8756 95.418H50.7858C50.7858 95.1016 50.8971 94.7969 51.1197 94.5039C51.3463 94.207 51.651 93.9727 52.0338 93.8008C52.4205 93.6289 52.8444 93.543 53.3053 93.543C54.0358 93.543 54.608 93.7266 55.0221 94.0938C55.4362 94.457 55.651 94.959 55.6666 95.5996V98.5176C55.6666 99.0996 55.7408 99.5625 55.8893 99.9062V100H54.7526ZM52.9537 99.1738C53.2936 99.1738 53.6158 99.0859 53.9205 98.9102C54.2252 98.7344 54.4459 98.5059 54.5826 98.2246V96.9238H53.733C52.4049 96.9238 51.7408 97.3125 51.7408 98.0898C51.7408 98.4297 51.8541 98.6953 52.0807 98.8867C52.3072 99.0781 52.5983 99.1738 52.9537 99.1738ZM60.0288 99.2324C60.4155 99.2324 60.7534 99.1152 61.0425 98.8809C61.3315 98.6465 61.4917 98.3535 61.5229 98.002H62.5483C62.5288 98.3652 62.4038 98.7109 62.1733 99.0391C61.9429 99.3672 61.6343 99.6289 61.2476 99.8242C60.8647 100.02 60.4585 100.117 60.0288 100.117C59.1655 100.117 58.478 99.8301 57.9663 99.2559C57.4585 98.6777 57.2046 97.8887 57.2046 96.8887V96.707C57.2046 96.0898 57.3179 95.541 57.5444 95.0605C57.771 94.5801 58.0952 94.207 58.5171 93.9414C58.9429 93.6758 59.4448 93.543 60.0229 93.543C60.7339 93.543 61.3237 93.7559 61.7925 94.1816C62.2651 94.6074 62.5171 95.1602 62.5483 95.8398H61.5229C61.4917 95.4297 61.3354 95.0938 61.0542 94.832C60.7769 94.5664 60.4331 94.4336 60.0229 94.4336C59.4722 94.4336 59.0444 94.6328 58.7397 95.0312C58.439 95.4258 58.2886 95.998 58.2886 96.748V96.9531C58.2886 97.6836 58.439 98.2461 58.7397 98.6406C59.0405 99.0352 59.4702 99.2324 60.0288 99.2324ZM65.3578 92.125V93.6602H66.5414V94.498H65.3578V98.4297C65.3578 98.6836 65.4105 98.875 65.516 99.0039C65.6215 99.1289 65.8012 99.1914 66.0551 99.1914C66.1801 99.1914 66.3519 99.168 66.5707 99.1211V100C66.2855 100.078 66.0082 100.117 65.7387 100.117C65.2543 100.117 64.889 99.9707 64.6429 99.6777C64.3969 99.3848 64.2738 98.9688 64.2738 98.4297V94.498H63.1195V93.6602H64.2738V92.125H65.3578ZM71.677 91.4688H72.8079V97.5098C72.8079 98.3262 72.5618 98.9648 72.0696 99.4258C71.5813 99.8867 70.929 100.117 70.1126 100.117C69.2649 100.117 68.6047 99.9004 68.1321 99.4668C67.6594 99.0332 67.4231 98.4258 67.4231 97.6445H68.5481C68.5481 98.1328 68.6809 98.5137 68.9465 98.7871C69.2161 99.0605 69.6047 99.1973 70.1126 99.1973C70.5774 99.1973 70.9524 99.0508 71.2376 98.7578C71.5266 98.4648 71.6731 98.0547 71.677 97.5273V91.4688ZM77.3576 96.1973C76.3927 95.9199 75.6896 95.5801 75.2482 95.1777C74.8107 94.7715 74.5919 94.2715 74.5919 93.6777C74.5919 93.0059 74.8595 92.4512 75.3947 92.0137C75.9337 91.5723 76.6329 91.3516 77.4923 91.3516C78.0783 91.3516 78.5997 91.4648 79.0568 91.6914C79.5177 91.918 79.8732 92.2305 80.1232 92.6289C80.3771 93.0273 80.504 93.4629 80.504 93.9355H79.3732C79.3732 93.4199 79.2091 93.0156 78.881 92.7227C78.5529 92.4258 78.09 92.2773 77.4923 92.2773C76.9376 92.2773 76.504 92.4004 76.1915 92.6465C75.8829 92.8887 75.7287 93.2266 75.7287 93.6602C75.7287 94.0078 75.8751 94.3027 76.1681 94.5449C76.465 94.7832 76.9669 95.002 77.674 95.2012C78.3849 95.4004 78.9396 95.6211 79.338 95.8633C79.7404 96.1016 80.0372 96.3809 80.2287 96.7012C80.424 97.0215 80.5216 97.3984 80.5216 97.832C80.5216 98.5234 80.2521 99.0781 79.713 99.4961C79.174 99.9102 78.4533 100.117 77.5509 100.117C76.965 100.117 76.4181 100.006 75.9103 99.7832C75.4025 99.5566 75.0099 99.248 74.7326 98.8574C74.4591 98.4668 74.3224 98.0234 74.3224 97.5273H75.4533C75.4533 98.043 75.6427 98.4512 76.0216 98.752C76.4044 99.0488 76.9142 99.1973 77.5509 99.1973C78.1447 99.1973 78.5997 99.0762 78.9162 98.834C79.2326 98.5918 79.3908 98.2617 79.3908 97.8438C79.3908 97.4258 79.2443 97.1035 78.9513 96.877C78.6583 96.6465 78.1271 96.4199 77.3576 96.1973Z" fill="#1C1C1C"/>
<path fill-rule="evenodd" clip-rule="evenodd" d="M74.7146 6.99669C73.3519 6.95027 71.925 7.18785 70.4954 7.65209C67.6349 8.57921 64.6378 10.387 61.5615 12.8885C60.3572 13.8688 59.1406 14.9898 57.9199 16.1791C56.7266 15.0199 55.5346 13.9289 54.3562 12.9704C51.2827 10.4703 48.2938 8.6625 45.44 7.73811C42.5863 6.81236 39.7463 6.78369 37.4155 8.12998C35.0834 9.47628 33.6879 11.9477 33.0625 14.882C32.4372 17.8162 32.5055 21.3103 33.1349 25.2223C33.352 26.5808 33.6633 28.0063 34.0183 29.4578C32.6857 29.8619 31.3913 30.2866 30.1924 30.7549C26.57 32.1695 23.5743 33.8612 21.391 35.8752C19.209 37.8892 17.7999 40.3333 17.7999 43.0163C17.7999 45.6994 19.209 48.1408 21.391 50.1534C23.5743 52.1674 26.57 53.8632 30.1924 55.2778C31.4746 55.7789 32.8646 56.2308 34.2982 56.6568C33.7821 58.5848 33.3643 60.4541 33.0789 62.2277C32.4508 66.1424 32.3839 69.6365 33.0107 72.5776C33.6388 75.5187 35.0342 78.0038 37.3773 79.3569C39.7203 80.71 42.5727 80.6772 45.4332 79.7501C48.2938 78.8216 51.2868 77.0179 54.363 74.5165C55.5578 73.5443 56.7648 72.437 57.9746 71.26C59.1898 72.4438 60.4023 73.5566 61.6025 74.5342C64.676 77.0329 67.669 78.838 70.5227 79.7638C73.3764 80.6882 76.2165 80.7168 78.5473 79.3705C80.8794 78.0242 82.2708 75.5528 82.8975 72.6186C83.5229 69.6843 83.4532 66.1943 82.8251 62.2824C82.5398 60.5046 82.1219 58.6285 81.6031 56.6937C83.0846 56.2568 84.5182 55.7939 85.8386 55.2778C89.461 53.8632 92.4568 52.1674 94.6401 50.1534C96.822 48.1408 98.2311 45.6994 98.2311 43.0163C98.2311 40.3333 96.822 37.8892 94.6401 35.8752C92.4568 33.8612 89.461 32.1695 85.8386 30.7549C84.622 30.2798 83.3085 29.8496 81.954 29.44C82.3117 27.979 82.6299 26.544 82.8483 25.1772C83.4778 21.2625 83.5447 17.7644 82.9166 14.8233C82.2899 11.8835 80.8917 9.40119 78.5473 8.04806C77.3758 7.37218 76.0772 7.04311 74.7146 6.99669ZM74.5548 10.5536C75.4096 10.5768 76.1387 10.7803 76.7627 11.1407C78.0107 11.8617 78.9337 13.2639 79.4252 15.5715C79.9168 17.8791 79.9004 20.9977 79.3201 24.6146C79.1208 25.8517 78.8313 27.1639 78.5036 28.5088C74.9289 27.6486 71.0115 27.0096 66.8361 26.6355C64.7402 23.7312 62.5869 21.0864 60.4159 18.7393C61.5642 17.6183 62.7044 16.5696 63.8185 15.6643C66.66 13.3527 69.3498 11.7797 71.5946 11.052C72.717 10.6888 73.6987 10.5304 74.5548 10.5536ZM41.3889 10.5632C42.2477 10.5399 43.2322 10.697 44.3573 11.0615C46.6088 11.792 49.3042 13.3636 52.1483 15.6766C53.2393 16.5655 54.3548 17.5937 55.4799 18.6887C53.2925 21.0536 51.1202 23.7217 49.0106 26.6518C44.8529 27.0342 40.9519 27.6759 37.395 28.5402C37.0687 27.2021 36.7792 25.8968 36.5826 24.6652C36.0009 21.0454 35.9859 17.9268 36.4802 15.6125C36.9731 13.2981 37.9029 11.8849 39.1632 11.1585C39.7927 10.7939 40.5286 10.5877 41.3889 10.5645V10.5632ZM57.9746 21.2557C59.3987 22.8041 60.8228 24.4999 62.2347 26.3241C60.8474 26.2668 59.4424 26.2327 58.0155 26.2327C56.56 26.2327 55.129 26.2668 53.7145 26.3282C55.1277 24.5013 56.5504 22.8055 57.9746 21.2557ZM58.0155 29.7623C60.3927 29.7623 62.7085 29.8592 64.9614 30.0244C66.5125 32.2514 68.0281 34.6136 69.4714 37.115C70.7398 39.312 71.8881 41.5048 72.9327 43.6717C71.8772 45.8673 70.7098 48.0902 69.4236 50.3186C68.2916 52.2793 67.1092 54.1404 65.9076 55.9373C63.3625 56.1489 60.7245 56.2677 58.0155 56.2677C55.241 56.2677 52.5443 56.1421 49.9418 55.9195C48.7607 54.1499 47.5988 52.3162 46.4846 50.3869C45.2011 48.164 44.0405 45.9438 42.985 43.7537C44.0446 41.5513 45.2107 39.3188 46.501 37.0836C47.9374 34.5958 49.4489 32.2473 50.9905 30.0312C53.268 29.8619 55.611 29.7623 58.0155 29.7623ZM69.4618 30.4614C72.3428 30.8205 75.0477 31.3202 77.5642 31.9196C76.8173 34.3678 75.8984 36.9252 74.7828 39.5659C74.0592 38.1705 73.3095 36.7696 72.4985 35.3673C71.5181 33.666 70.4954 32.0452 69.4604 30.4614H69.4618ZM46.3822 30.4887C45.3704 32.0425 44.3737 33.6318 43.4124 35.299C42.5918 36.7191 41.8271 38.1391 41.0953 39.5523C39.9893 36.928 39.0745 34.3842 38.3331 31.9497C40.8318 31.3502 43.5216 30.8519 46.3822 30.4887ZM81.0228 32.8481C82.2612 33.2222 83.4587 33.6141 84.5551 34.0428C87.8936 35.3454 90.5356 36.8897 92.2465 38.4695C93.9574 40.0493 94.7015 41.5554 94.7015 43.0163C94.7015 44.4773 93.9574 45.9834 92.2465 47.5632C90.5356 49.143 87.8936 50.6873 84.5551 51.9899C83.3358 52.4664 81.9963 52.8992 80.6036 53.3075C79.6096 50.2339 78.3411 47.0279 76.831 43.7537C78.5664 39.9947 79.9687 36.3299 81.0228 32.8481ZM34.9496 32.8645C35.9914 36.3122 37.3759 39.9414 39.0868 43.6622C37.5684 46.9542 36.2931 50.1793 35.295 53.2706C33.9514 52.8719 32.6557 52.4514 31.4759 51.9912C28.1375 50.6873 25.4954 49.143 23.7845 47.5632C22.0737 45.9834 21.3309 44.4773 21.3309 43.0163C21.3309 41.5554 22.0737 40.0493 23.7845 38.4695C25.4954 36.8897 28.1375 35.3454 31.4759 34.0428C32.556 33.6196 33.733 33.2345 34.9509 32.8645H34.9496ZM58.0155 34.9877C53.2106 34.9877 49.2769 38.9215 49.2769 43.7264C49.2769 48.5313 53.2106 52.465 58.0155 52.465C62.8204 52.465 66.7542 48.5313 66.7542 43.7264C66.7542 38.9215 62.8204 34.9877 58.0155 34.9877ZM41.1349 47.8595C41.8708 49.2809 42.6355 50.705 43.4602 52.1332C44.106 53.2515 44.7642 54.3397 45.4332 55.4075C43.0861 55.0825 40.855 54.6702 38.7604 54.1813C39.4254 52.1414 40.2228 50.0237 41.1362 47.8595H41.1349ZM74.8279 47.8595C75.7427 50.0278 76.5415 52.1496 77.2105 54.195C75.1078 54.6825 72.8699 55.0934 70.5159 55.4171C71.1931 54.337 71.8622 53.2351 72.5162 52.1032C73.3355 50.6859 74.096 49.27 74.8279 47.8595ZM37.7527 57.5758C40.9164 58.324 44.3436 58.9002 47.9797 59.2757C50.4061 62.7848 52.9348 65.9389 55.4799 68.6971C54.3412 69.8058 53.2134 70.8476 52.1101 71.7447C49.2687 74.0563 46.5761 75.6252 44.3313 76.353C42.0852 77.0807 40.4098 76.9852 39.1632 76.2642C37.9152 75.5433 36.9949 74.141 36.5034 71.8334C36.0118 69.5259 36.0255 66.41 36.6058 62.7944C36.8693 61.1545 37.2626 59.3972 37.7527 57.5758ZM78.2196 57.5894C78.7139 59.4218 79.1085 61.1846 79.3747 62.8354C79.955 66.4551 79.97 69.5737 79.4758 71.8881C78.9828 74.2024 78.0598 75.6184 76.7995 76.3461C75.5406 77.0739 73.8489 77.1681 71.5973 76.439C69.3471 75.7085 66.6518 74.1369 63.8076 71.8239C62.6962 70.9186 61.5615 69.87 60.4146 68.7517C62.9761 65.9826 65.5226 62.8135 67.9653 59.2825C71.611 58.9098 75.0491 58.3377 78.2196 57.5894ZM52.5402 59.6335C54.3344 59.7318 56.1531 59.7973 58.0155 59.7973C59.8165 59.7973 61.5752 59.7359 63.3133 59.643C61.5369 62.0407 59.7264 64.2185 57.924 66.1806C56.1217 64.2144 54.3139 62.0325 52.5402 59.6335Z" fill="#1C1C1C"/>
</svg>
