<svg width="88" height="88" viewBox="0 0 88 88" fill="none" xmlns="http://www.w3.org/2000/svg">
<path fill-rule="evenodd" clip-rule="evenodd" d="M60.7146 6.99669C59.3519 6.95027 57.925 7.18785 56.4954 7.65209C53.6349 8.57921 50.6378 10.387 47.5615 12.8885C46.3572 13.8688 45.1406 14.9898 43.9199 16.1791C42.7266 15.0199 41.5346 13.9289 40.3562 12.9704C37.2827 10.4703 34.2938 8.6625 31.44 7.73811C28.5863 6.81236 25.7463 6.78369 23.4155 8.12998C21.0834 9.47628 19.6879 11.9477 19.0625 14.882C18.4372 17.8162 18.5055 21.3103 19.1349 25.2223C19.352 26.5808 19.6633 28.0063 20.0183 29.4578C18.6857 29.8619 17.3913 30.2866 16.1924 30.7549C12.57 32.1695 9.57427 33.8612 7.39097 35.8752C5.20904 37.8892 3.79993 40.3333 3.79993 43.0163C3.79993 45.6994 5.20904 48.1408 7.39097 50.1534C9.57427 52.1674 12.57 53.8632 16.1924 55.2778C17.4746 55.7789 18.8646 56.2308 20.2982 56.6568C19.7821 58.5848 19.3643 60.4541 19.0789 62.2277C18.4508 66.1424 18.3839 69.6365 19.0107 72.5776C19.6388 75.5187 21.0342 78.0038 23.3773 79.3569C25.7203 80.71 28.5727 80.6772 31.4332 79.7501C34.2938 78.8216 37.2868 77.0179 40.363 74.5165C41.5578 73.5443 42.7648 72.437 43.9746 71.26C45.1898 72.4438 46.4023 73.5566 47.6025 74.5342C50.676 77.0329 53.669 78.838 56.5227 79.7638C59.3764 80.6882 62.2165 80.7168 64.5473 79.3705C66.8794 78.0242 68.2708 75.5528 68.8975 72.6186C69.5229 69.6843 69.4532 66.1943 68.8251 62.2824C68.5398 60.5046 68.1219 58.6285 67.6031 56.6937C69.0846 56.2568 70.5182 55.7939 71.8386 55.2778C75.461 53.8632 78.4568 52.1674 80.6401 50.1534C82.822 48.1408 84.2311 45.6994 84.2311 43.0163C84.2311 40.3333 82.822 37.8892 80.6401 35.8752C78.4568 33.8612 75.461 32.1695 71.8386 30.7549C70.622 30.2798 69.3085 29.8496 67.954 29.44C68.3117 27.979 68.6299 26.544 68.8483 25.1772C69.4778 21.2626 69.5447 17.7644 68.9166 14.8233C68.2899 11.8835 66.8917 9.40119 64.5473 8.04806C63.3758 7.37218 62.0772 7.04311 60.7146 6.99669ZM60.5548 10.5536C61.4096 10.5768 62.1387 10.7803 62.7627 11.1407C64.0107 11.8617 64.9337 13.2639 65.4252 15.5715C65.9168 17.8791 65.9004 20.9977 65.3201 24.6146C65.1208 25.8517 64.8313 27.1639 64.5036 28.5088C60.9289 27.6486 57.0115 27.0096 52.8361 26.6355C50.7402 23.7312 48.5869 21.0864 46.4159 18.7393C47.5642 17.6183 48.7044 16.5696 49.8185 15.6643C52.66 13.3527 55.3498 11.7797 57.5946 11.052C58.717 10.6888 59.6987 10.5304 60.5548 10.5536ZM27.3889 10.5632C28.2477 10.5399 29.2322 10.697 30.3573 11.0615C32.6088 11.792 35.3042 13.3636 38.1483 15.6766C39.2393 16.5655 40.3548 17.5937 41.4799 18.6887C39.2925 21.0536 37.1202 23.7217 35.0106 26.6518C30.8529 27.0342 26.9519 27.6759 23.395 28.5402C23.0687 27.2021 22.7792 25.8968 22.5826 24.6652C22.0009 21.0454 21.9859 17.9268 22.4802 15.6125C22.9731 13.2981 23.9029 11.8849 25.1632 11.1585C25.7927 10.7939 26.5286 10.5877 27.3889 10.5645V10.5632ZM43.9746 21.2557C45.3987 22.8041 46.8228 24.5 48.2347 26.3241C46.8474 26.2668 45.4424 26.2327 44.0155 26.2327C42.56 26.2327 41.129 26.2668 39.7145 26.3282C41.1277 24.5013 42.5504 22.8055 43.9746 21.2557ZM44.0155 29.7623C46.3927 29.7623 48.7085 29.8592 50.9614 30.0244C52.5125 32.2514 54.0281 34.6136 55.4714 37.115C56.7398 39.312 57.8881 41.5048 58.9327 43.6717C57.8772 45.8673 56.7098 48.0902 55.4236 50.3186C54.2916 52.2793 53.1092 54.1404 51.9076 55.9373C49.3625 56.1489 46.7245 56.2677 44.0155 56.2677C41.241 56.2677 38.5443 56.1421 35.9418 55.9195C34.7607 54.1499 33.5988 52.3162 32.4846 50.3869C31.2011 48.164 30.0405 45.9438 28.985 43.7537C30.0446 41.5513 31.2106 39.3188 32.501 37.0836C33.9374 34.5958 35.4489 32.2473 36.9905 30.0312C39.268 29.8619 41.611 29.7623 44.0155 29.7623ZM55.4618 30.4614C58.3428 30.8205 61.0477 31.3202 63.5642 31.9196C62.8173 34.3678 61.8984 36.9252 60.7828 39.5659C60.0592 38.1705 59.3095 36.7696 58.4985 35.3673C57.5181 33.666 56.4954 32.0452 55.4604 30.4614H55.4618ZM32.3822 30.4887C31.3704 32.0425 30.3736 33.6318 29.4124 35.299C28.5918 36.7191 27.8272 38.1391 27.0953 39.5523C25.9893 36.928 25.0745 34.3842 24.333 31.9497C26.8318 31.3502 29.5216 30.8519 32.3822 30.4887ZM67.0228 32.8481C68.2612 33.2222 69.4587 33.6141 70.5551 34.0428C73.8935 35.3454 76.5356 36.8897 78.2465 38.4695C79.9574 40.0493 80.7015 41.5554 80.7015 43.0163C80.7015 44.4773 79.9574 45.9834 78.2465 47.5632C76.5356 49.143 73.8935 50.6873 70.5551 51.9899C69.3358 52.4664 67.9963 52.8992 66.6036 53.3075C65.6096 50.2339 64.3411 47.0279 62.831 43.7537C64.5664 39.9947 65.9687 36.3299 67.0228 32.8481ZM20.9496 32.8645C21.9914 36.3122 23.3759 39.9414 25.0868 43.6622C23.5684 46.9542 22.2931 50.1793 21.295 53.2706C19.9514 52.8719 18.6557 52.4514 17.4759 51.9912C14.1375 50.6873 11.4954 49.143 9.78454 47.5632C8.07368 45.9834 7.33089 44.4773 7.33089 43.0163C7.33089 41.5554 8.07368 40.0493 9.78454 38.4695C11.4954 36.8897 14.1375 35.3454 17.4759 34.0428C18.556 33.6196 19.733 33.2345 20.9509 32.8645H20.9496ZM44.0155 34.9877C39.2106 34.9877 35.2769 38.9215 35.2769 43.7264C35.2769 48.5313 39.2106 52.465 44.0155 52.465C48.8204 52.465 52.7542 48.5313 52.7542 43.7264C52.7542 38.9215 48.8204 34.9877 44.0155 34.9877ZM27.1349 47.8595C27.8708 49.2809 28.6355 50.705 29.4602 52.1332C30.106 53.2515 30.7642 54.3397 31.4332 55.4075C29.0861 55.0825 26.855 54.6702 24.7604 54.1814C25.4254 52.1414 26.2228 50.0237 27.1362 47.8595H27.1349ZM60.8279 47.8595C61.7427 50.0278 62.5415 52.1496 63.2105 54.195C61.1078 54.6825 58.8699 55.0934 56.5159 55.417C57.1931 54.337 57.8622 53.2351 58.5162 52.1032C59.3355 50.6859 60.096 49.27 60.8279 47.8595ZM23.7527 57.5758C26.9164 58.324 30.3436 58.9002 33.9797 59.2757C36.4061 62.7848 38.9348 65.9389 41.4799 68.6971C40.3412 69.8058 39.2134 70.8476 38.1101 71.7447C35.2687 74.0563 32.5761 75.6252 30.3313 76.353C28.0852 77.0807 26.4098 76.9852 25.1632 76.2642C23.9152 75.5433 22.9949 74.141 22.5034 71.8334C22.0118 69.5259 22.0255 66.41 22.6058 62.7944C22.8693 61.1545 23.2626 59.3972 23.7527 57.5758ZM64.2196 57.5894C64.7139 59.4218 65.1085 61.1846 65.3747 62.8354C65.955 66.4551 65.97 69.5737 65.4758 71.8881C64.9828 74.2024 64.0598 75.6184 62.7995 76.3461C61.5406 77.0739 59.8489 77.1681 57.5973 76.439C55.3471 75.7085 52.6518 74.1369 49.8076 71.8239C48.6962 70.9186 47.5615 69.87 46.4146 68.7517C48.9761 65.9826 51.5226 62.8135 53.9653 59.2825C57.611 58.9098 61.0491 58.3377 64.2196 57.5894ZM38.5402 59.6335C40.3344 59.7318 42.1531 59.7973 44.0155 59.7973C45.8165 59.7973 47.5752 59.7359 49.3133 59.643C47.5369 62.0407 45.7264 64.2185 43.924 66.1806C42.1217 64.2144 40.3139 62.0325 38.5402 59.6335Z" fill="#1C1C1C"/>
</svg>
