<svg width="78" height="59" viewBox="0 0 78 59" fill="none" xmlns="http://www.w3.org/2000/svg">
<path d="M66.542 34.2509C63.8383 34.2662 61.4972 34.9155 59.5337 35.8823C58.8087 34.4474 58.0837 33.1936 57.963 32.2573C57.827 31.1698 57.6609 30.5051 57.827 29.2063C57.993 27.9072 58.7482 26.0645 58.7482 25.9134C58.733 25.7775 58.5819 25.1129 57.0264 25.0978C55.4708 25.0827 54.1264 25.3999 53.9753 25.8077C53.8243 26.2155 53.5222 27.152 53.3259 28.1187C53.054 29.5384 50.2144 34.5681 48.5983 37.2113C48.0696 36.1843 47.6165 35.278 47.5257 34.5529C47.3899 33.4655 47.2236 32.8008 47.3899 31.502C47.5561 30.2029 48.3113 28.3603 48.3113 28.2093C48.2962 28.0733 48.1451 27.4088 46.5896 27.3937C45.0337 27.3785 43.6896 27.6957 43.5385 28.1035C43.3875 28.5114 43.2213 29.478 42.8891 30.4145C42.5717 31.3509 38.7957 39.7488 37.8139 41.9389C37.3155 43.0567 36.8776 43.9478 36.5603 44.552C36.2431 45.1561 36.5452 44.5973 36.515 44.6577C36.2431 45.1712 36.092 45.4582 36.092 45.4582V45.4735C35.8806 45.8511 35.654 46.2134 35.5481 46.2134C35.4726 46.2134 35.3216 45.2014 35.5784 43.812C36.1372 40.8968 37.4966 36.3506 37.4816 36.1844C37.4816 36.1089 37.7382 35.3082 36.6054 34.9006C35.5028 34.4928 35.1103 35.1724 35.0195 35.1724C34.9289 35.1724 34.8534 35.4141 34.8534 35.4141C34.8534 35.4141 36.0768 30.294 32.5122 30.294C30.2768 30.294 27.1956 32.7257 25.67 34.946C24.7034 35.4747 22.6492 36.5922 20.4742 37.7856C19.6435 38.2387 18.7826 38.7221 17.9669 39.1601L17.8009 38.9785C13.4812 34.3718 5.49108 31.1093 5.82337 24.9166C5.9442 22.6661 6.72962 16.7301 21.1693 9.54055C32.9958 3.64993 42.4661 5.26608 44.1123 8.86087C46.4535 13.9963 39.0525 23.5421 26.7578 24.9166C22.0756 25.4452 19.6134 23.6327 18.9943 22.953C18.3448 22.2431 18.2542 22.2129 18.0126 22.3489C17.6198 22.5603 17.8615 23.1947 18.0126 23.5723C18.3751 24.5239 19.8855 26.2155 22.4532 27.0614C24.7035 27.8015 30.2016 28.2093 36.8474 25.6416C44.2937 22.7567 50.1088 14.7515 48.4021 8.06035C46.6651 1.24837 35.3672 -0.98704 24.6886 2.8041C18.3296 5.06972 11.4421 8.60409 6.48795 13.2411C0.597343 18.739 -0.339113 23.5421 0.0535947 25.5358C1.42822 32.6499 11.2306 37.2869 15.1577 40.7155C14.9614 40.8211 14.7801 40.9268 14.614 41.0176C12.6504 41.9841 5.17389 45.8962 3.30098 50.0346C1.1864 54.7169 3.63327 58.0853 5.26452 58.5384C10.3093 59.9431 15.4749 57.4207 18.2692 53.2671C21.0482 49.1134 20.716 43.7212 19.4322 41.2593L19.3867 41.1686L20.9273 40.2624C21.9244 39.6733 22.9061 39.1296 23.7669 38.6612C23.2837 39.9753 22.9362 41.531 22.7551 43.7966C22.5436 46.4551 23.6311 49.8987 25.066 51.2581C25.7004 51.847 26.4556 51.8622 26.9238 51.8622C28.5853 51.8622 29.3405 50.4876 30.1712 48.8414C31.1983 46.8325 32.1046 44.5065 32.1046 44.5065C32.1046 44.5065 30.9717 50.8049 34.0681 50.8049C35.2009 50.8049 36.3337 49.3398 36.8473 48.5846V48.5997C36.8473 48.5997 36.8775 48.5544 36.9379 48.4487C37.0013 48.355 37.0617 48.2593 37.1191 48.1619V48.1316C37.5723 47.3462 38.5842 45.5488 40.0946 42.5733C42.0429 38.7369 43.916 33.9338 43.916 33.9338C43.916 33.9338 44.0972 35.1119 44.6561 37.0452C44.9882 38.1933 45.7132 39.4468 46.2721 40.6702C45.819 41.3046 45.5471 41.6672 45.5471 41.6672L45.5622 41.6823C45.1998 42.1657 44.7919 42.6794 44.3691 43.1927C42.8285 45.0354 40.9858 47.1351 40.7441 47.7392C40.4571 48.449 40.5176 48.9776 41.0764 49.4007C41.4842 49.7028 42.2092 49.7631 42.9795 49.7028C44.3691 49.612 45.3358 49.2648 45.8191 49.0532C46.5743 48.7813 47.4352 48.3735 48.266 47.7693C49.7764 46.6517 50.6977 45.0658 50.6071 42.9512C50.5618 41.7882 50.1842 40.6403 49.716 39.5528C49.8519 39.3564 49.988 39.1599 50.1238 38.9486C52.5102 35.4594 54.3529 31.6231 54.3529 31.6231C54.3529 31.6231 54.5342 32.8012 55.093 34.7346C55.3799 35.7163 55.954 36.7889 56.4675 37.8462C54.2321 39.6738 52.8274 41.7884 52.3441 43.1779C51.4529 45.7456 52.1477 46.9087 53.4618 47.1805C54.0507 47.3014 54.8967 47.0295 55.5309 46.7576C56.3163 46.5009 57.2679 46.0627 58.1441 45.4134C59.6545 44.2957 61.1045 42.7399 61.029 40.6404C60.9837 39.6738 60.7269 38.7222 60.3795 37.816C62.2826 37.0306 64.7444 36.5774 67.8711 36.955C74.5925 37.7404 75.9216 41.9394 75.665 43.6915C75.4082 45.4437 74.0036 46.4102 73.5352 46.7123C73.0669 46.9993 72.9159 47.1052 72.9612 47.3165C73.0216 47.6338 73.2331 47.6186 73.6409 47.5583C74.1998 47.4675 77.1753 46.1234 77.2961 42.8913C77.4774 38.737 73.5352 34.2058 66.542 34.2509ZM14.7046 51.7264C12.4843 54.1582 9.35774 55.0796 8.02857 54.2941C6.59368 53.4634 7.15238 49.8837 9.88638 47.3009C11.5478 45.7301 13.7077 44.2801 15.1275 43.389C15.4447 43.1926 15.928 42.9058 16.502 42.5582C16.5926 42.498 16.653 42.4676 16.653 42.4676C16.7588 42.4072 16.8796 42.3317 17.0004 42.2561C18.0124 45.9416 17.0457 49.1738 14.7046 51.7264ZM30.9415 40.6853C30.1712 42.5733 28.54 47.4218 27.5582 47.1499C26.7122 46.9233 26.1988 43.253 27.3919 39.628C27.9961 37.8003 29.2799 35.6254 30.0351 34.7794C31.2587 33.4201 32.5877 32.9669 32.9202 33.5258C33.3129 34.2509 31.4249 39.5072 30.9415 40.6853ZM44.3389 47.0895C44.0066 47.2558 43.7045 47.3764 43.5686 47.286C43.4629 47.2256 43.7044 46.999 43.7044 46.999C43.7044 46.999 45.3809 45.2016 46.0455 44.3709C46.4231 43.8877 46.8762 43.3288 47.3596 42.6943V42.8756C47.3597 45.0504 45.2754 46.5004 44.3389 47.0895ZM54.67 44.7332C54.4283 44.552 54.4587 43.9931 55.2741 42.241C55.5915 41.5462 56.3163 40.3832 57.57 39.2806C57.721 39.7337 57.8118 40.1716 57.7965 40.5796C57.7816 43.2983 55.8482 44.3103 54.67 44.7332Z" fill="#1C1C1C"/>
</svg>
