<svg width="116" height="107" viewBox="0 0 116 107" fill="none" xmlns="http://www.w3.org/2000/svg">
<path d="M-0.000732422 10C-0.000732422 4.47715 4.47642 0 9.99927 0H105.999C111.522 0 115.999 4.47715 115.999 10V107H-0.000732422V10Z" fill="#6FCF97" fill-opacity="0.67"/>
<path d="M-0.000732422 86H115.999V107H-0.000732422V86Z" fill="black" fill-opacity="0.05"/>
<path d="M48.8095 96.1973C47.8447 95.9199 47.1415 95.5801 46.7001 95.1777C46.2626 94.7715 46.0439 94.2715 46.0439 93.6777C46.0439 93.0059 46.3115 92.4512 46.8466 92.0137C47.3857 91.5723 48.0849 91.3516 48.9443 91.3516C49.5302 91.3516 50.0517 91.4648 50.5087 91.6914C50.9697 91.918 51.3251 92.2305 51.5751 92.6289C51.829 93.0273 51.956 93.4629 51.956 93.9355H50.8251C50.8251 93.4199 50.6611 93.0156 50.3329 92.7227C50.0048 92.4258 49.5419 92.2773 48.9443 92.2773C48.3896 92.2773 47.956 92.4004 47.6435 92.6465C47.3349 92.8887 47.1806 93.2266 47.1806 93.6602C47.1806 94.0078 47.3271 94.3027 47.62 94.5449C47.9169 94.7832 48.4189 95.002 49.1259 95.2012C49.8368 95.4004 50.3915 95.6211 50.79 95.8633C51.1923 96.1016 51.4892 96.3809 51.6806 96.7012C51.8759 97.0215 51.9736 97.3984 51.9736 97.832C51.9736 98.5234 51.704 99.0781 51.165 99.4961C50.6259 99.9102 49.9052 100.117 49.0029 100.117C48.4169 100.117 47.87 100.006 47.3622 99.7832C46.8544 99.5566 46.4618 99.248 46.1845 98.8574C45.9111 98.4668 45.7743 98.0234 45.7743 97.5273H46.9052C46.9052 98.043 47.0947 98.4512 47.4736 98.752C47.8564 99.0488 48.3661 99.1973 49.0029 99.1973C49.5966 99.1973 50.0517 99.0762 50.3681 98.834C50.6845 98.5918 50.8427 98.2617 50.8427 97.8438C50.8427 97.4258 50.6962 97.1035 50.4033 96.877C50.1103 96.6465 49.579 96.4199 48.8095 96.1973ZM57.285 100C57.2225 99.875 57.1717 99.6523 57.1326 99.332C56.6287 99.8555 56.0272 100.117 55.3279 100.117C54.7029 100.117 54.1893 99.9414 53.7869 99.5898C53.3885 99.2344 53.1893 98.7852 53.1893 98.2422C53.1893 97.582 53.4393 97.0703 53.9393 96.707C54.4432 96.3398 55.1502 96.1562 56.0604 96.1562H57.115V95.6582C57.115 95.2793 57.0018 94.9785 56.7752 94.7559C56.5486 94.5293 56.2147 94.416 55.7733 94.416C55.3865 94.416 55.0623 94.5137 54.8006 94.709C54.5389 94.9043 54.408 95.1406 54.408 95.418H53.3182C53.3182 95.1016 53.4295 94.7969 53.6522 94.5039C53.8787 94.207 54.1834 93.9727 54.5662 93.8008C54.9529 93.6289 55.3768 93.543 55.8377 93.543C56.5682 93.543 57.1404 93.7266 57.5545 94.0938C57.9686 94.457 58.1834 94.959 58.199 95.5996V98.5176C58.199 99.0996 58.2733 99.5625 58.4217 99.9062V100H57.285ZM55.4861 99.1738C55.826 99.1738 56.1483 99.0859 56.4529 98.9102C56.7576 98.7344 56.9783 98.5059 57.115 98.2246V96.9238H56.2654C54.9373 96.9238 54.2733 97.3125 54.2733 98.0898C54.2733 98.4297 54.3865 98.6953 54.6131 98.8867C54.8397 99.0781 55.1307 99.1738 55.4861 99.1738ZM63.7097 98.3184C63.7097 98.0254 63.5983 97.7988 63.3757 97.6387C63.1569 97.4746 62.7722 97.334 62.2214 97.2168C61.6745 97.0996 61.239 96.959 60.9147 96.7949C60.5944 96.6309 60.3561 96.4355 60.1999 96.209C60.0475 95.9824 59.9714 95.7129 59.9714 95.4004C59.9714 94.8809 60.1901 94.4414 60.6276 94.082C61.069 93.7227 61.6315 93.543 62.3151 93.543C63.0339 93.543 63.6159 93.7285 64.0612 94.0996C64.5104 94.4707 64.735 94.9453 64.735 95.5234H63.6452C63.6452 95.2266 63.5183 94.9707 63.2643 94.7559C63.0143 94.541 62.6979 94.4336 62.3151 94.4336C61.9206 94.4336 61.612 94.5195 61.3893 94.6914C61.1667 94.8633 61.0554 95.0879 61.0554 95.3652C61.0554 95.627 61.1589 95.8242 61.3659 95.957C61.5729 96.0898 61.946 96.2168 62.485 96.3379C63.028 96.459 63.4675 96.6035 63.8034 96.7715C64.1393 96.9395 64.3874 97.1426 64.5475 97.3809C64.7116 97.6152 64.7936 97.9023 64.7936 98.2422C64.7936 98.8086 64.5671 99.2637 64.114 99.6074C63.6608 99.9473 63.0729 100.117 62.3503 100.117C61.8425 100.117 61.3933 100.027 61.0026 99.8477C60.612 99.668 60.3054 99.418 60.0827 99.0977C59.864 98.7734 59.7546 98.4238 59.7546 98.0488H60.8386C60.8581 98.4121 61.0026 98.7012 61.2722 98.916C61.5456 99.127 61.905 99.2324 62.3503 99.2324C62.7604 99.2324 63.0886 99.1504 63.3347 98.9863C63.5847 98.8184 63.7097 98.5957 63.7097 98.3184ZM70.0172 98.3184C70.0172 98.0254 69.9058 97.7988 69.6832 97.6387C69.4644 97.4746 69.0797 97.334 68.5289 97.2168C67.982 97.0996 67.5465 96.959 67.2222 96.7949C66.9019 96.6309 66.6636 96.4355 66.5074 96.209C66.355 95.9824 66.2789 95.7129 66.2789 95.4004C66.2789 94.8809 66.4976 94.4414 66.9351 94.082C67.3765 93.7227 67.939 93.543 68.6226 93.543C69.3414 93.543 69.9234 93.7285 70.3687 94.0996C70.8179 94.4707 71.0425 94.9453 71.0425 95.5234H69.9527C69.9527 95.2266 69.8258 94.9707 69.5718 94.7559C69.3218 94.541 69.0054 94.4336 68.6226 94.4336C68.2281 94.4336 67.9195 94.5195 67.6968 94.6914C67.4742 94.8633 67.3629 95.0879 67.3629 95.3652C67.3629 95.627 67.4664 95.8242 67.6734 95.957C67.8804 96.0898 68.2535 96.2168 68.7925 96.3379C69.3355 96.459 69.775 96.6035 70.1109 96.7715C70.4468 96.9395 70.6949 97.1426 70.855 97.3809C71.0191 97.6152 71.1011 97.9023 71.1011 98.2422C71.1011 98.8086 70.8746 99.2637 70.4215 99.6074C69.9683 99.9473 69.3804 100.117 68.6578 100.117C68.15 100.117 67.7008 100.027 67.3101 99.8477C66.9195 99.668 66.6129 99.418 66.3902 99.0977C66.1715 98.7734 66.0621 98.4238 66.0621 98.0488H67.1461C67.1656 98.4121 67.3101 98.7012 67.5797 98.916C67.8531 99.127 68.2125 99.2324 68.6578 99.2324C69.0679 99.2324 69.3961 99.1504 69.6422 98.9863C69.8922 98.8184 70.0172 98.5957 70.0172 98.3184Z" fill="#1C1C1C"/>
<g clip-path="url(#clip0)">
<path d="M85.8723 47.2509C83.1687 47.2662 80.8275 47.9155 78.864 48.8823C78.139 47.4474 77.414 46.1936 77.2933 45.2573C77.1574 44.1698 76.9912 43.5051 77.1574 42.2063C77.3234 40.9072 78.0786 39.0645 78.0786 38.9134C78.0633 38.7775 77.9123 38.1129 76.3567 38.0978C74.8011 38.0827 73.4567 38.3999 73.3057 38.8077C73.1546 39.2155 72.8525 40.152 72.6562 41.1187C72.3843 42.5384 69.5447 47.5681 67.9286 50.2113C67.3999 49.1843 66.9468 48.278 66.856 47.5529C66.7203 46.4655 66.554 45.8008 66.7203 44.502C66.8864 43.2029 67.6416 41.3603 67.6416 41.2093C67.6265 41.0733 67.4755 40.4088 65.9199 40.3937C64.364 40.3785 63.0199 40.6957 62.8689 41.1035C62.7178 41.5114 62.5517 42.478 62.2194 43.4145C61.902 44.3509 58.126 52.7488 57.1442 54.9389C56.6458 56.0567 56.2079 56.9478 55.8906 57.552C55.5734 58.1561 55.8755 57.5973 55.8453 57.6577C55.5734 58.1712 55.4224 58.4582 55.4224 58.4582V58.4735C55.2109 58.8511 54.9843 59.2134 54.8785 59.2134C54.8029 59.2134 54.6519 58.2014 54.9087 56.812C55.4675 53.8968 56.8269 49.3506 56.8119 49.1844C56.8119 49.1089 57.0686 48.3082 55.9358 47.9006C54.8332 47.4928 54.4406 48.1724 54.3498 48.1724C54.2592 48.1724 54.1837 48.4141 54.1837 48.4141C54.1837 48.4141 55.4071 43.294 51.8425 43.294C49.6071 43.294 46.5259 45.7257 45.0004 47.946C44.0337 48.4747 41.9795 49.5922 39.8045 50.7856C38.9738 51.2387 38.1129 51.7221 37.2973 52.1601L37.1313 51.9785C32.8115 47.3718 24.8214 44.1093 25.1537 37.9166C25.2745 35.6661 26.0599 29.7301 40.4996 22.5406C52.3262 16.6499 61.7965 18.2661 63.4427 21.8609C65.7838 26.9963 58.3828 36.5421 46.0882 37.9166C41.4059 38.4452 38.9438 36.6327 38.3246 35.953C37.6752 35.2431 37.5845 35.2129 37.3429 35.3489C36.9502 35.5603 37.1918 36.1947 37.3429 36.5723C37.7054 37.5239 39.2158 39.2155 41.7835 40.0614C44.0339 40.8015 49.5319 41.2093 56.1777 38.6416C63.6241 35.7567 69.4392 27.7515 67.7324 21.0603C65.9954 14.2484 54.6975 12.013 44.0189 15.8041C37.6599 18.0697 30.7724 21.6041 25.8183 26.2411C19.9277 31.739 18.9912 36.5421 19.3839 38.5358C20.7585 45.6499 30.561 50.2869 34.488 53.7155C34.2917 53.8211 34.1104 53.9268 33.9443 54.0176C31.9808 54.9841 24.5042 58.8962 22.6313 63.0346C20.5167 67.7169 22.9636 71.0853 24.5948 71.5384C29.6396 72.9431 34.8052 70.4207 37.5995 66.2671C40.3785 62.1134 40.0464 56.7212 38.7625 54.2593L38.7171 54.1686L40.2577 53.2624C41.2547 52.6733 42.2365 52.1296 43.0972 51.6612C42.6141 52.9753 42.2665 54.531 42.0854 56.7966C41.874 59.4551 42.9615 62.8987 44.3964 64.2581C45.0307 64.847 45.7859 64.8622 46.2542 64.8622C47.9156 64.8622 48.6708 63.4876 49.5015 61.8414C50.5286 59.8325 51.4349 57.5065 51.4349 57.5065C51.4349 57.5065 50.3021 63.8049 53.3984 63.8049C54.5312 63.8049 55.664 62.3398 56.1776 61.5846V61.5997C56.1776 61.5997 56.2078 61.5544 56.2682 61.4487C56.3316 61.355 56.392 61.2593 56.4494 61.1619V61.1317C56.9026 60.3462 57.9145 58.5488 59.425 55.5733C61.3732 51.7369 63.2463 46.9337 63.2463 46.9337C63.2463 46.9337 63.4276 48.1119 63.9864 50.0452C64.3185 51.1933 65.0435 52.4468 65.6024 53.6702C65.1493 54.3046 64.8774 54.6672 64.8774 54.6672L64.8925 54.6823C64.5302 55.1657 64.1222 55.6794 63.6994 56.1927C62.1588 58.0355 60.3161 60.1351 60.0744 60.7392C59.7875 61.449 59.8479 61.9776 60.4067 62.4007C60.8145 62.7028 61.5395 62.7631 62.3099 62.7028C63.6994 62.612 64.6661 62.2648 65.1494 62.0532C65.9046 61.7813 66.7656 61.3735 67.5963 60.7693C69.1067 59.6517 70.0281 58.0658 69.9374 55.9512C69.8921 54.7882 69.5145 53.6403 69.0463 52.5528C69.1822 52.3564 69.3183 52.1599 69.4541 51.9486C71.8406 48.4594 73.6833 44.6231 73.6833 44.6231C73.6833 44.6231 73.8645 45.8012 74.4234 47.7346C74.7102 48.7163 75.2843 49.7889 75.7978 50.8462C73.5624 52.6738 72.1577 54.7884 71.6744 56.1779C70.7833 58.7456 71.4781 59.9087 72.7921 60.1805C73.381 60.3014 74.227 60.0295 74.8612 59.7576C75.6466 59.5009 76.5982 59.0627 77.4744 58.4134C78.9848 57.2956 80.4348 55.7399 80.3593 53.6404C80.314 52.6738 80.0572 51.7222 79.7098 50.816C81.6129 50.0306 84.0747 49.5774 87.2015 49.955C93.9228 50.7404 95.252 54.9394 94.9953 56.6915C94.7386 58.4437 93.3339 59.4102 92.8655 59.7123C92.3973 59.9993 92.2462 60.1052 92.2915 60.3165C92.352 60.6338 92.5634 60.6186 92.9712 60.5583C93.5301 60.4675 96.5056 59.1234 96.6264 55.8913C96.8077 51.737 92.8655 47.2058 85.8723 47.2509V47.2509ZM34.0349 64.7264C31.8146 67.1582 28.6881 68.0796 27.3589 67.2941C25.924 66.4634 26.4827 62.8837 29.2167 60.3009C30.8782 58.7301 33.038 57.2801 34.4578 56.3889C34.775 56.1926 35.2584 55.9058 35.8323 55.5582C35.9229 55.498 35.9834 55.4676 35.9834 55.4676C36.0891 55.4072 36.2099 55.3317 36.3307 55.2561C37.3427 58.9415 36.3761 62.1738 34.0349 64.7264V64.7264ZM50.2719 53.6853C49.5015 55.5733 47.8703 60.4218 46.8885 60.1499C46.0426 59.9233 45.5292 56.253 46.7222 52.628C47.3264 50.8003 48.6103 48.6254 49.3655 47.7794C50.589 46.4201 51.9181 45.9669 52.2505 46.5258C52.6432 47.2509 50.7552 52.5072 50.2719 53.6853ZM63.6692 60.0895C63.3369 60.2558 63.0348 60.3764 62.8989 60.286C62.7932 60.2256 63.0347 59.999 63.0347 59.999C63.0347 59.999 64.7113 58.2016 65.3758 57.3709C65.7534 56.8877 66.2066 56.3288 66.6899 55.6943V55.8756C66.69 58.0504 64.6057 59.5004 63.6692 60.0895ZM74.0003 57.7332C73.7586 57.552 73.789 56.9931 74.6045 55.241C74.9218 54.5462 75.6466 53.3832 76.9003 52.2806C77.0513 52.7337 77.1421 53.1716 77.1268 53.5796C77.1119 56.2983 75.1786 57.3103 74.0003 57.7332Z" fill="#1C1C1C"/>
</g>
<defs>
<clipPath id="clip0">
<rect width="77.3331" height="57.9999" fill="white" transform="translate(19.3303 13.917)"/>
</clipPath>
</defs>
</svg>
