<svg width="46" height="60" viewBox="0 0 46 60" fill="none" xmlns="http://www.w3.org/2000/svg">
<path d="M20.8787 57.1213C22.0503 58.2929 23.9497 58.2929 25.1213 57.1213L44.2132 38.0294C45.3848 36.8579 45.3848 34.9584 44.2132 33.7868C43.0416 32.6152 41.1421 32.6152 39.9706 33.7868L23 50.7574L6.02944 33.7868C4.85786 32.6152 2.95837 32.6152 1.7868 33.7868C0.615223 34.9584 0.615223 36.8579 1.7868 38.0294L20.8787 57.1213ZM20 51V55H26V51H20Z" fill="#FFB8B8"/>
<path d="M20.8787 59.1213C22.0503 60.2929 23.9497 60.2929 25.1213 59.1213L44.2132 40.0294C45.3848 38.8579 45.3848 36.9584 44.2132 35.7868C43.0416 34.6152 41.1421 34.6152 39.9706 35.7868L23 52.7574L6.02944 35.7868C4.85786 34.6152 2.95837 34.6152 1.7868 35.7868C0.615223 36.9584 0.615223 38.8579 1.7868 40.0294L20.8787 59.1213ZM20 53V57H26V53H20Z" fill="#6FCF97"/>
<g opacity="0.8">
<path d="M20.8787 41.1213C22.0503 42.2929 23.9497 42.2929 25.1213 41.1213L44.2132 22.0294C45.3848 20.8579 45.3848 18.9584 44.2132 17.7868C43.0416 16.6152 41.1421 16.6152 39.9706 17.7868L23 34.7574L6.02944 17.7868C4.85786 16.6152 2.95837 16.6152 1.7868 17.7868C0.615223 18.9584 0.615223 20.8579 1.7868 22.0294L20.8787 41.1213ZM20 35V39H26V35H20Z" fill="#FFB8B8"/>
<path d="M20.8787 43.1213C22.0503 44.2929 23.9497 44.2929 25.1213 43.1213L44.2132 24.0294C45.3848 22.8579 45.3848 20.9584 44.2132 19.7868C43.0416 18.6152 41.1421 18.6152 39.9706 19.7868L23 36.7574L6.02944 19.7868C4.85786 18.6152 2.95837 18.6152 1.7868 19.7868C0.615223 20.9584 0.615223 22.8579 1.7868 24.0294L20.8787 43.1213ZM20 37V41H26V37H20Z" fill="#6FCF97"/>
</g>
<g opacity="0.7">
<path d="M20.8787 25.1213C22.0503 26.2929 23.9497 26.2929 25.1213 25.1213L44.2132 6.02944C45.3848 4.85786 45.3848 2.95837 44.2132 1.7868C43.0416 0.615223 41.1421 0.615223 39.9706 1.7868L23 18.7574L6.02944 1.7868C4.85786 0.615223 2.95837 0.615223 1.7868 1.7868C0.615223 2.95837 0.615223 4.85786 1.7868 6.02944L20.8787 25.1213ZM20 19V23H26V19H20Z" fill="#FFB8B8"/>
<path d="M20.8787 27.1213C22.0503 28.2929 23.9497 28.2929 25.1213 27.1213L44.2132 8.02944C45.3848 6.85786 45.3848 4.95837 44.2132 3.7868C43.0416 2.61522 41.1421 2.61522 39.9706 3.7868L23 20.7574L6.02944 3.7868C4.85786 2.61522 2.95837 2.61522 1.7868 3.7868C0.615223 4.95837 0.615223 6.85786 1.7868 8.02944L20.8787 27.1213ZM20 21V25H26V21H20Z" fill="#6FCF97"/>
</g>
</svg>
