<svg width="79" height="78" viewBox="0 0 79 78" fill="none" xmlns="http://www.w3.org/2000/svg">
<path d="M3.59267 39L39.6592 2.8324L75.7257 39L39.6592 75.1676L3.59267 39Z" stroke="white" stroke-width="4"/>
<path d="M32.4025 25.824C33.73 25.824 34.7982 26.1984 35.6071 26.9472C36.416 27.696 36.8205 28.6736 36.8205 29.88C36.8205 30.8368 36.5612 31.8248 36.0427 32.844C35.5449 33.8632 34.8811 34.7576 34.0515 35.5272C33.2218 36.2968 32.3506 36.8168 31.438 37.0872L31.1269 36.5256C32.0188 36.1304 32.7344 35.496 33.2736 34.6224C33.8337 33.7488 34.1137 32.8232 34.1137 31.8456C34.1137 30.5976 33.7403 29.5992 32.9936 28.8504C32.2469 28.0808 31.2513 27.696 30.0068 27.696C28.7623 27.696 27.5904 28.1432 26.4911 29.0376C25.3917 29.932 24.5102 31.128 23.8465 32.6256C23.1827 34.1024 22.8509 35.6832 22.8509 37.368C22.8509 39.1984 23.1309 40.8104 23.6909 42.204C24.2509 43.5976 25.0391 44.6792 26.0555 45.4488C27.0926 46.1976 28.2749 46.572 29.6023 46.572C30.5979 46.572 31.5728 46.364 32.5269 45.948C33.4811 45.5112 34.3522 44.8872 35.1404 44.076L35.8249 44.7624C33.6263 47.5496 31.0231 48.9432 28.0156 48.9432C26.3355 48.9432 24.8836 48.5272 23.6598 47.6952C22.436 46.8632 21.4923 45.74 20.8285 44.3256C20.1855 42.8904 19.864 41.2992 19.864 39.552C19.864 36.9936 20.4241 34.6744 21.5441 32.5944C22.6849 30.4936 24.2198 28.84 26.1488 27.6336C28.0778 26.4272 30.1624 25.824 32.4025 25.824Z" fill="white"/>
<path d="M53.8212 27.2904C51.5189 27.6024 49.4447 28.4032 47.5986 29.6928C45.7526 30.9616 44.3007 32.5736 43.2429 34.5288C42.2058 36.4632 41.6872 38.564 41.6872 40.8312C41.6872 42.724 42.0502 44.2216 42.7762 45.324C43.5021 46.4264 44.4563 46.9776 45.6385 46.9776C46.8001 46.9776 47.9098 46.1768 48.9676 44.5752C50.0462 42.9528 50.907 40.8416 51.55 38.2416C52.2137 35.6208 52.5456 32.896 52.5456 30.0672L55.4702 28.9128V45.2616C55.4702 45.844 55.5946 46.312 55.8435 46.6656C56.0924 47.0192 56.4347 47.196 56.8703 47.196C57.2021 47.196 57.5444 47.092 57.897 46.884C58.2496 46.6552 58.5192 46.3848 58.7059 46.0728L59.1415 46.4784C58.8511 47.1232 58.4052 47.664 57.8036 48.1008C57.2021 48.5376 56.5176 48.756 55.7502 48.756C54.7961 48.756 54.0182 48.4232 53.4167 47.7576C52.836 47.092 52.5456 46.1456 52.5456 44.9184V38.9592H52.39C50.8966 45.6152 48.3661 48.9432 44.7985 48.9432C42.9525 48.9432 41.4694 48.2984 40.3494 47.0088C39.2293 45.6984 38.6693 43.9096 38.6693 41.6424C38.6693 39.0424 39.3538 36.5984 40.7227 34.3104C42.0917 32.0224 43.9377 30.1608 46.2608 28.7256C48.5839 27.2904 51.104 26.5104 53.8212 26.3856V27.2904Z" fill="white"/>
<path d="M39.6591 70.1676L8.57869 39L39.6591 7.83242L70.7396 39L39.6591 70.1676Z" stroke="#B84D4D" stroke-width="4"/>
<path d="M33.3328 27.5133C34.4901 27.5133 35.4214 27.8397 36.1266 28.4925C36.8318 29.1453 37.1844 29.9975 37.1844 31.0493C37.1844 31.8834 36.9584 32.7447 36.5063 33.6333C36.0723 34.5218 35.4937 35.3015 34.7704 35.9725C34.0471 36.6434 33.2876 37.0967 32.492 37.3325L32.2207 36.8429C32.9983 36.4983 33.6222 35.9453 34.0923 35.1837C34.5805 34.4221 34.8246 33.6151 34.8246 32.7629C34.8246 31.6749 34.4992 30.8045 33.8482 30.1517C33.1972 29.4807 32.3292 29.1453 31.2443 29.1453C30.1593 29.1453 29.1377 29.5351 28.1793 30.3149C27.2209 31.0946 26.4524 32.1373 25.8737 33.4429C25.2951 34.7303 25.0058 36.1085 25.0058 37.5773C25.0058 39.173 25.2499 40.5783 25.7381 41.7933C26.2264 43.0082 26.9135 43.9511 27.7995 44.6221C28.7037 45.2749 29.7344 45.6013 30.8917 45.6013C31.7596 45.6013 32.6095 45.4199 33.4413 45.0573C34.2731 44.6765 35.0326 44.1325 35.7197 43.4253L36.3165 44.0237C34.3997 46.4535 32.1303 47.6685 29.5084 47.6685C28.0437 47.6685 26.7779 47.3058 25.711 46.5805C24.6441 45.8551 23.8214 44.8759 23.2427 43.6429C22.6822 42.3917 22.4019 41.0045 22.4019 39.4813C22.4019 37.2509 22.8901 35.229 23.8666 33.4157C24.8611 31.5842 26.1992 30.1426 27.8809 29.0909C29.5626 28.0391 31.3799 27.5133 33.3328 27.5133Z" fill="#B84D4D"/>
<path d="M52.0055 28.7917C49.9984 29.0637 48.1901 29.7618 46.5808 30.8861C44.9714 31.9922 43.7056 33.3975 42.7834 35.1021C41.8793 36.7885 41.4272 38.6199 41.4272 40.5965C41.4272 42.2466 41.7437 43.5522 42.3765 44.5133C43.0094 45.4743 43.8412 45.9549 44.8719 45.9549C45.8846 45.9549 46.852 45.2567 47.7742 43.8605C48.7145 42.4461 49.4649 40.6055 50.0255 38.3389C50.6041 36.0541 50.8935 33.6786 50.8935 31.2125L53.4431 30.2061V44.4589C53.4431 44.9666 53.5516 45.3746 53.7686 45.6829C53.9856 45.9911 54.284 46.1453 54.6637 46.1453C54.953 46.1453 55.2514 46.0546 55.5588 45.8733C55.8662 45.6738 56.1013 45.4381 56.264 45.1661L56.6437 45.5197C56.3906 46.0818 56.0018 46.5533 55.4774 46.9341C54.953 47.3149 54.3563 47.5053 53.6872 47.5053C52.8554 47.5053 52.1773 47.2151 51.6529 46.6349C51.1466 46.0546 50.8935 45.2295 50.8935 44.1597V38.9645H50.7578C49.4559 44.7671 47.2498 47.6685 44.1396 47.6685C42.5302 47.6685 41.2373 47.1063 40.2609 45.9821C39.2844 44.8397 38.7962 43.2802 38.7962 41.3037C38.7962 39.037 39.3929 36.9063 40.5864 34.9117C41.7798 32.917 43.3892 31.2941 45.4144 30.0429C47.4397 28.7917 49.6367 28.1117 52.0055 28.0029V28.7917Z" fill="#B84D4D"/>
</svg>
