<svg width="416" height="169" viewBox="0 0 416 169" fill="none" xmlns="http://www.w3.org/2000/svg">
<g opacity="0.9">
<g opacity="0.8">
<path opacity="0.8" d="M208 159.664C264.723 159.664 310.706 124.055 310.706 80.1298C310.706 36.2044 264.723 0.595825 208 0.595825C151.277 0.595825 105.294 36.2044 105.294 80.1298C105.294 124.055 151.277 159.664 208 159.664Z" fill="url(#paint0_linear)"/>
</g>
<path d="M208 157.897C263.464 157.897 308.427 123.08 308.427 80.1298C308.427 37.18 263.464 2.3623 208 2.3623C152.536 2.3623 107.573 37.18 107.573 80.1298C107.573 123.08 152.536 157.897 208 157.897Z" fill="#6FCF97"/>
<path opacity="0.1" d="M123.807 88.7731C123.807 45.8236 168.765 11.0055 224.227 11.0055C241.447 10.9108 258.494 14.4284 274.269 21.3311C256.618 9.4143 233.526 2.1731 208.252 2.1731C152.79 2.1731 107.825 36.9911 107.825 79.9406C107.825 108.779 128.099 133.952 158.218 147.383C137.131 133.125 123.807 112.158 123.807 88.7731Z" fill="white"/>
<g opacity="0.5">
<g opacity="0.3">
<path opacity="0.3" d="M243.533 108.807L252.179 83.1581C255.153 74.2258 255.176 64.575 252.247 55.6282C249.318 46.6813 243.591 38.9119 235.91 33.4651L235.98 33.423C232.579 31.0296 228.85 29.1407 224.907 27.8151L224.788 27.7731L224.655 27.731C220.828 26.4373 216.839 25.6869 212.804 25.5019C211.376 25.4282 209.946 25.4282 208.519 25.5019C206.042 25.6314 203.581 25.9715 201.163 26.5183C200.461 26.6725 199.76 26.8478 199.122 27.037C198.484 27.2263 197.769 27.4296 197.102 27.6469C195.77 28.0885 194.459 28.5862 193.175 29.154C192.53 29.4344 191.892 29.7288 191.268 30.0443C189.381 30.9757 187.564 32.0441 185.833 33.2408C185.251 33.6403 184.683 34.0539 184.122 34.4745C177.191 39.7438 172.002 46.9723 169.227 55.2237L155.637 95.6357C153.498 101.973 152.855 108.72 153.758 115.347C153.898 116.364 154.073 117.373 154.277 118.376C154.48 119.378 154.732 120.366 154.978 121.348C155.167 122 155.364 122.652 155.581 123.297C155.904 124.257 156.282 125.217 156.64 126.157C156.899 126.781 157.173 127.404 157.46 128.021C158.028 129.248 158.659 130.447 159.34 131.617C160.02 132.788 160.742 133.931 161.556 135.038C162.145 135.865 162.769 136.678 163.414 137.464C164.284 138.515 165.195 139.531 166.163 140.499C170.351 144.72 175.364 148.034 180.889 150.236L181.128 150.334C181.424 149.808 181.752 149.3 182.11 148.813C184.213 145.931 187.874 143.906 191.359 144.663C191.612 144.719 191.864 144.796 192.116 144.873C193.884 145.497 195.623 146.611 197.327 147.158C197.947 147.437 198.62 147.576 199.299 147.568C199.979 147.56 200.648 147.403 201.261 147.109C204.669 145.294 203.407 139.567 206.331 137.057C206.467 136.941 206.61 136.834 206.759 136.735C206.717 136.684 206.68 136.63 206.647 136.573C208.905 135.171 212.032 136.104 214.634 137.008C217.439 137.996 221.099 138.662 223.049 136.37C224.367 134.8 224.269 132.409 225.524 130.762C226.983 128.869 229.732 128.659 232.109 128.996H232.228C236.787 130.874 241.766 127.755 241.415 122.841C241.001 116.322 243.063 110.146 243.533 108.807Z" fill="url(#paint1_linear)"/>
</g>
<path opacity="0.5" d="M182.902 146.654C184.95 143.85 188.463 141.887 191.829 142.651C195.195 143.415 198.386 146.618 201.38 145.013C205.475 142.826 202.572 134.786 209.22 134.19C210.605 134.098 211.993 134.339 213.266 134.891C216.071 136.034 220.461 137.323 222.621 134.751C223.89 133.237 223.799 130.93 225.012 129.36C226.415 127.538 229.087 127.306 231.366 127.657L231.478 127.692C235.875 129.507 240.686 126.493 240.342 121.754C239.9 115.446 241.906 109.501 242.341 108.211L250.671 83.4595C254.215 72.8486 253.412 61.2669 248.439 51.2459C243.465 41.2249 234.725 33.5797 224.129 29.9812C213.515 26.4436 201.931 27.2492 191.91 32.2221C181.888 37.1949 174.243 45.9306 170.644 56.5206L157.509 95.4464C154.096 105.684 154.722 116.838 159.261 126.63C163.799 136.421 171.907 144.11 181.927 148.126C182.223 147.616 182.549 147.125 182.902 146.654Z" fill="white"/>
<path opacity="0.2" d="M198.428 57.1935C200.949 57.1935 202.993 55.1504 202.993 52.6301C202.993 50.1098 200.949 48.0667 198.428 48.0667C195.907 48.0667 193.863 50.1098 193.863 52.6301C193.863 55.1504 195.907 57.1935 198.428 57.1935Z" fill="black"/>
<path opacity="0.2" d="M224.388 65.9208C226.91 65.9208 228.954 63.8777 228.954 61.3574C228.954 58.8371 226.91 56.7939 224.388 56.7939C221.867 56.7939 219.823 58.8371 219.823 61.3574C219.823 63.8777 221.867 65.9208 224.388 65.9208Z" fill="black"/>
</g>
<path opacity="0.1" d="M304.437 57.0814C305.741 62.1183 306.398 67.3004 306.393 72.5031C306.393 115.453 261.436 150.271 205.973 150.271C160.581 150.243 122.229 126.928 109.824 94.9347C119.038 130.524 159.613 157.323 208.287 157.323C263.75 157.323 308.715 122.505 308.715 79.5551C308.7 71.863 307.25 64.2412 304.437 57.0814Z" fill="black"/>
<g opacity="0.8">
<path opacity="0.8" d="M208 168.3C322.709 168.3 415.699 144.005 415.699 114.037C415.699 84.0678 322.709 59.7732 208 59.7732C93.2912 59.7732 0.301392 84.0678 0.301392 114.037C0.301392 144.005 93.2912 168.3 208 168.3Z" fill="url(#paint2_linear)"/>
</g>
<path d="M208 61.5677C97.0751 61.5677 7.14575 85.0578 7.14575 114.044H408.854C408.854 85.0578 318.925 61.5677 208 61.5677Z" fill="white"/>
<path d="M208 166.513C318.925 166.513 408.854 143.023 408.854 114.044H7.14575C7.14575 143.023 97.0751 166.513 208 166.513Z" fill="white"/>
<path opacity="0.05" d="M208 166.513C318.925 166.513 408.854 143.023 408.854 114.044H7.14575C7.14575 143.023 97.0751 166.513 208 166.513Z" fill="black"/>
<path opacity="0.05" d="M291.786 100.346H124.214C117.545 100.346 112.138 105.751 112.138 112.417V115.656C112.138 122.323 117.545 127.727 124.214 127.727H291.786C298.455 127.727 303.862 122.323 303.862 115.656V112.417C303.862 105.751 298.455 100.346 291.786 100.346Z" fill="black"/>
<path opacity="0.05" d="M69.151 100.543C82.319 100.543 92.9938 98.3457 92.9938 95.6357C92.9938 92.9257 82.319 90.7288 69.151 90.7288C55.983 90.7288 45.3082 92.9257 45.3082 95.6357C45.3082 98.3457 55.983 100.543 69.151 100.543Z" fill="black"/>
<path opacity="0.05" d="M69.151 137.695C82.319 137.695 92.9938 135.498 92.9938 132.788C92.9938 130.078 82.319 127.881 69.151 127.881C55.983 127.881 45.3082 130.078 45.3082 132.788C45.3082 135.498 55.983 137.695 69.151 137.695Z" fill="black"/>
<path opacity="0.05" d="M340.538 100.543C353.706 100.543 364.38 98.3457 364.38 95.6357C364.38 92.9257 353.706 90.7288 340.538 90.7288C327.37 90.7288 316.695 92.9257 316.695 95.6357C316.695 98.3457 327.37 100.543 340.538 100.543Z" fill="black"/>
<path opacity="0.05" d="M340.538 137.695C353.706 137.695 364.38 135.498 364.38 132.788C364.38 130.078 353.706 127.881 340.538 127.881C327.37 127.881 316.695 130.078 316.695 132.788C316.695 135.498 327.37 137.695 340.538 137.695Z" fill="black"/>
<path opacity="0.05" d="M208 79.5129C221.168 79.5129 231.843 77.316 231.843 74.606C231.843 71.896 221.168 69.6991 208 69.6991C194.832 69.6991 184.157 71.896 184.157 74.606C184.157 77.316 194.832 79.5129 208 79.5129Z" fill="black"/>
<path opacity="0.05" d="M225.531 28.3409C238.699 28.3409 249.374 26.144 249.374 23.434C249.374 20.724 238.699 18.5271 225.531 18.5271C212.363 18.5271 201.689 20.724 201.689 23.434C201.689 26.144 212.363 28.3409 225.531 28.3409Z" fill="black"/>
<path opacity="0.05" d="M179.95 49.3705C193.118 49.3705 203.792 47.1736 203.792 44.4636C203.792 41.7535 193.118 39.5566 179.95 39.5566C166.782 39.5566 156.107 41.7535 156.107 44.4636C156.107 47.1736 166.782 49.3705 179.95 49.3705Z" fill="black"/>
<path opacity="0.05" d="M267.607 58.4834C280.775 58.4834 291.45 56.2865 291.45 53.5765C291.45 50.8665 280.775 48.6696 267.607 48.6696C254.439 48.6696 243.764 50.8665 243.764 53.5765C243.764 56.2865 254.439 58.4834 267.607 58.4834Z" fill="black"/>
<path opacity="0.05" d="M208 152.416C221.168 152.416 231.843 150.219 231.843 147.509C231.843 144.799 221.168 142.602 208 142.602C194.832 142.602 184.157 144.799 184.157 147.509C184.157 150.219 194.832 152.416 208 152.416Z" fill="black"/>
</g>
<defs>
<linearGradient id="paint0_linear" x1="208" y1="159.671" x2="208" y2="0.595825" gradientUnits="userSpaceOnUse">
<stop stop-color="#808080" stop-opacity="0.25"/>
<stop offset="0.54" stop-color="#808080" stop-opacity="0.12"/>
<stop offset="1" stop-color="#808080" stop-opacity="0.1"/>
</linearGradient>
<linearGradient id="paint1_linear" x1="-28818.3" y1="192710" x2="-21410.1" y2="170709" gradientUnits="userSpaceOnUse">
<stop stop-color="#808080" stop-opacity="0.25"/>
<stop offset="0.54" stop-color="#808080" stop-opacity="0.12"/>
<stop offset="1" stop-color="#808080" stop-opacity="0.1"/>
</linearGradient>
<linearGradient id="paint2_linear" x1="179452" y1="28069.5" x2="179452" y2="11267.3" gradientUnits="userSpaceOnUse">
<stop stop-color="#808080" stop-opacity="0.25"/>
<stop offset="0.54" stop-color="#808080" stop-opacity="0.12"/>
<stop offset="1" stop-color="#808080" stop-opacity="0.1"/>
</linearGradient>
</defs>
</svg>
