<svg width="1018" height="863" viewBox="0 0 1018 863" fill="none" xmlns="http://www.w3.org/2000/svg">
<g filter="url(#filter0_d)">
<path opacity="0.5" d="M90.9812 168.578L895.325 63L1014 646.934L33.999 736L90.9812 168.578Z" fill="#6FCF97"/>
<path opacity="0.5" d="M54.3716 234.863L865.039 0L913.999 855L3.99915 672.107L54.3716 234.863Z" fill="#6FCF97"/>
</g>
<path d="M331.102 560.516H334.91V573.312C334.91 574.489 334.648 575.53 334.123 576.436C333.607 577.333 332.875 578.027 331.927 578.518C330.979 579.008 329.908 579.254 328.715 579.254C326.76 579.254 325.236 578.759 324.145 577.769C323.053 576.77 322.507 575.361 322.507 573.541H326.341C326.341 574.447 326.531 575.115 326.912 575.547C327.293 575.979 327.894 576.194 328.715 576.194C329.443 576.194 330.022 575.945 330.454 575.445C330.886 574.946 331.102 574.235 331.102 573.312V560.516ZM362.629 575.191H355.951L354.682 579H350.632L357.513 560.516H361.042L367.961 579H363.911L362.629 575.191ZM356.98 572.106H361.601L359.278 565.188L356.98 572.106ZM389.828 574.417L394.017 560.516H398.257L391.821 579H387.847L381.436 560.516H385.663L389.828 574.417ZM423.78 575.191H417.102L415.833 579H411.783L418.664 560.516H422.193L429.112 579H425.062L423.78 575.191ZM418.13 572.106H422.752L420.428 565.188L418.13 572.106ZM454.723 574.15C454.723 573.431 454.47 572.881 453.962 572.5C453.454 572.111 452.54 571.704 451.22 571.281C449.899 570.85 448.854 570.426 448.084 570.012C445.985 568.878 444.935 567.35 444.935 565.429C444.935 564.43 445.215 563.541 445.773 562.763C446.34 561.976 447.149 561.362 448.198 560.922C449.256 560.482 450.441 560.262 451.753 560.262C453.073 560.262 454.249 560.503 455.282 560.985C456.315 561.459 457.114 562.132 457.681 563.004C458.257 563.876 458.545 564.866 458.545 565.975H454.736C454.736 565.128 454.47 564.472 453.936 564.007C453.403 563.533 452.654 563.296 451.689 563.296C450.758 563.296 450.035 563.495 449.518 563.893C449.002 564.282 448.744 564.798 448.744 565.441C448.744 566.042 449.044 566.546 449.645 566.952C450.255 567.358 451.148 567.739 452.324 568.095C454.491 568.746 456.069 569.555 457.059 570.52C458.05 571.484 458.545 572.686 458.545 574.125C458.545 575.725 457.94 576.981 456.729 577.896C455.519 578.801 453.89 579.254 451.842 579.254C450.42 579.254 449.125 578.996 447.957 578.479C446.789 577.955 445.896 577.24 445.278 576.334C444.669 575.428 444.364 574.379 444.364 573.186H448.185C448.185 575.225 449.404 576.245 451.842 576.245C452.747 576.245 453.454 576.063 453.962 575.699C454.47 575.327 454.723 574.811 454.723 574.15ZM489.945 572.843C489.801 574.832 489.065 576.397 487.736 577.54C486.416 578.683 484.673 579.254 482.506 579.254C480.136 579.254 478.27 578.458 476.907 576.867C475.553 575.268 474.876 573.076 474.876 570.291V569.161C474.876 567.384 475.189 565.818 475.815 564.464C476.442 563.11 477.335 562.073 478.494 561.354C479.662 560.626 481.016 560.262 482.557 560.262C484.689 560.262 486.408 560.833 487.711 561.976C489.014 563.118 489.768 564.722 489.971 566.787H486.162C486.069 565.594 485.735 564.73 485.159 564.197C484.592 563.656 483.725 563.385 482.557 563.385C481.287 563.385 480.335 563.842 479.7 564.756C479.074 565.661 478.752 567.071 478.735 568.983V570.38C478.735 572.377 479.036 573.837 479.637 574.76C480.246 575.682 481.202 576.144 482.506 576.144C483.682 576.144 484.558 575.877 485.134 575.344C485.718 574.802 486.052 573.968 486.137 572.843H489.945ZM513.589 572.233H510.555V579H506.746V560.516H513.614C515.798 560.516 517.482 561.002 518.667 561.976C519.852 562.949 520.445 564.324 520.445 566.102C520.445 567.363 520.169 568.416 519.619 569.263C519.078 570.101 518.252 570.769 517.144 571.269L521.143 578.822V579H517.055L513.589 572.233ZM510.555 569.148H513.627C514.584 569.148 515.324 568.907 515.849 568.425C516.374 567.934 516.636 567.261 516.636 566.406C516.636 565.535 516.386 564.849 515.887 564.35C515.396 563.85 514.639 563.601 513.614 563.601H510.555V569.148ZM541.702 579H537.893V560.516H541.702V579ZM563.352 572.487V579H559.544V560.516H566.754C568.143 560.516 569.361 560.77 570.411 561.277C571.469 561.785 572.281 562.509 572.848 563.448C573.415 564.379 573.699 565.441 573.699 566.635C573.699 568.446 573.077 569.876 571.833 570.926C570.597 571.967 568.883 572.487 566.691 572.487H563.352ZM563.352 569.402H566.754C567.762 569.402 568.528 569.165 569.052 568.691C569.586 568.217 569.852 567.54 569.852 566.66C569.852 565.755 569.586 565.022 569.052 564.464C568.519 563.905 567.783 563.618 566.843 563.601H563.352V569.402ZM604.541 563.601H598.879V579H595.07V563.601H589.484V560.516H604.541V563.601Z" fill="black"/>
<g clip-path="url(#clip0)">
<path d="M604.194 227.24C602.885 225.813 601.045 225 599.109 225H329.889C327.953 225 326.113 225.813 324.804 227.24C323.495 228.666 322.854 230.582 323.027 232.505L347.281 504.208C347.536 507.047 349.513 509.439 352.255 510.224L462.57 541.738C463.183 541.91 463.824 542 464.458 542C465.092 542 465.732 541.91 466.346 541.738L576.757 510.224C579.499 509.439 581.477 507.047 581.731 504.208L605.972 232.505C606.144 230.582 605.496 228.666 604.194 227.24ZM374.925 411.093L423.157 424.476V287.022H450.718V466.196L374.925 445.17V411.093ZM554.446 362.826L547.183 447.245L478.28 466.196V434.489L524.79 421.705L526.512 395.863L478.28 404.174V287.022H560.964L558.587 314.587H505.841V369.717L554.446 362.826Z" fill="#1C1C1C"/>
</g>
<path d="M348.771 198.446H341.458V206H337.649V187.516H349.685V190.601H341.458V195.374H348.771V198.446ZM380.184 187.516V199.69C380.184 201.713 379.549 203.313 378.279 204.489C377.018 205.666 375.292 206.254 373.1 206.254C370.942 206.254 369.228 205.683 367.958 204.54C366.689 203.398 366.041 201.828 366.016 199.83V187.516H369.824V199.716C369.824 200.926 370.112 201.811 370.688 202.369C371.272 202.919 372.076 203.194 373.1 203.194C375.241 203.194 376.329 202.069 376.362 199.817V187.516H380.184ZM401.415 202.94H409.502V206H397.607V187.516H401.415V202.94ZM429.807 202.94H437.894V206H425.999V187.516H429.807V202.94ZM463.975 201.15C463.975 200.431 463.721 199.881 463.214 199.5C462.706 199.111 461.792 198.704 460.471 198.281C459.151 197.85 458.106 197.426 457.336 197.012C455.237 195.878 454.187 194.35 454.187 192.429C454.187 191.43 454.467 190.541 455.025 189.763C455.592 188.976 456.401 188.362 457.45 187.922C458.508 187.482 459.693 187.262 461.005 187.262C462.325 187.262 463.501 187.503 464.534 187.985C465.567 188.459 466.366 189.132 466.933 190.004C467.509 190.876 467.797 191.866 467.797 192.975H463.988C463.988 192.128 463.721 191.472 463.188 191.007C462.655 190.533 461.906 190.296 460.941 190.296C460.01 190.296 459.287 190.495 458.77 190.893C458.254 191.282 457.996 191.798 457.996 192.441C457.996 193.042 458.296 193.546 458.897 193.952C459.507 194.358 460.4 194.739 461.576 195.095C463.743 195.746 465.321 196.555 466.311 197.52C467.302 198.484 467.797 199.686 467.797 201.125C467.797 202.725 467.192 203.982 465.981 204.896C464.771 205.801 463.142 206.254 461.094 206.254C459.672 206.254 458.377 205.996 457.209 205.48C456.041 204.955 455.148 204.24 454.53 203.334C453.921 202.428 453.616 201.379 453.616 200.186H457.437C457.437 202.225 458.656 203.245 461.094 203.245C461.999 203.245 462.706 203.063 463.214 202.699C463.721 202.327 463.975 201.811 463.975 201.15ZM498.601 190.601H492.938V206H489.13V190.601H483.544V187.516H498.601V190.601ZM523.996 202.191H517.319L516.049 206H511.999L518.88 187.516H522.409L529.328 206H525.279L523.996 202.191ZM518.347 199.107H522.968L520.645 192.188L518.347 199.107ZM559.586 199.843C559.442 201.832 558.706 203.398 557.377 204.54C556.057 205.683 554.314 206.254 552.147 206.254C549.777 206.254 547.911 205.458 546.548 203.867C545.194 202.268 544.517 200.076 544.517 197.291V196.161C544.517 194.384 544.83 192.818 545.456 191.464C546.083 190.11 546.976 189.073 548.135 188.354C549.303 187.626 550.657 187.262 552.198 187.262C554.33 187.262 556.049 187.833 557.352 188.976C558.655 190.118 559.409 191.722 559.612 193.787H555.803C555.71 192.594 555.376 191.731 554.8 191.197C554.233 190.656 553.366 190.385 552.198 190.385C550.928 190.385 549.976 190.842 549.341 191.756C548.715 192.662 548.393 194.071 548.376 195.983V197.38C548.376 199.377 548.677 200.837 549.278 201.76C549.887 202.682 550.843 203.144 552.147 203.144C553.323 203.144 554.199 202.877 554.775 202.344C555.359 201.802 555.693 200.968 555.778 199.843H559.586ZM582.176 198.586L580.196 200.719V206H576.387V187.516H580.196V195.895L581.872 193.597L586.582 187.516H591.266L584.703 195.73L591.457 206H586.924L582.176 198.586Z" fill="black"/>
<defs>
<filter id="filter0_d" x="-0.000854492" y="0" width="1018" height="863" filterUnits="userSpaceOnUse" color-interpolation-filters="sRGB">
<feFlood flood-opacity="0" result="BackgroundImageFix"/>
<feColorMatrix in="SourceAlpha" type="matrix" values="0 0 0 0 0 0 0 0 0 0 0 0 0 0 0 0 0 0 127 0"/>
<feOffset dy="4"/>
<feGaussianBlur stdDeviation="2"/>
<feColorMatrix type="matrix" values="0 0 0 0 0 0 0 0 0 0 0 0 0 0 0 0 0 0 0.25 0"/>
<feBlend mode="normal" in2="BackgroundImageFix" result="effect1_dropShadow"/>
<feBlend mode="normal" in="SourceGraphic" in2="effect1_dropShadow" result="shape"/>
</filter>
<clipPath id="clip0">
<rect width="283" height="317" fill="white" transform="translate(322.999 225)"/>
</clipPath>
</defs>
</svg>
