<svg width="78" height="88" viewBox="0 0 78 88" fill="none" xmlns="http://www.w3.org/2000/svg">
<path d="M70.0683 64.3885L39.8907 81.4586V68.1634L58.6931 57.8203L70.0683 64.3885ZM72.1325 62.5191V26.82L61.0893 33.1933V56.1386L72.1325 62.5191ZM7.06428 64.3885L37.2418 81.4586V68.1634L18.4395 57.8203L7.06428 64.3885ZM5 62.5191V26.82L16.0432 33.1933V56.1386L5 62.5191ZM6.29198 24.5103L37.2418 7V19.8549L17.4146 30.7609L17.263 30.8475L6.29198 24.5103ZM70.8406 24.5103L39.8907 7V19.8549L59.718 30.7609L59.8695 30.8475L70.8406 24.5103Z" fill="#1C231F"/>
<path d="M37.6143 64.99L19.0646 54.7913V34.5816L37.6143 45.2927V64.99ZM40.2632 64.99L58.8129 54.7913V34.5816L40.2632 45.2927V64.99ZM20.3205 32.243L38.9423 22.001L57.5642 32.243L38.9423 42.9975L20.3205 32.243Z" fill="#1C231F"/>
</svg>
