<svg width="168" height="161" viewBox="0 0 168 161" fill="none" xmlns="http://www.w3.org/2000/svg">
<g opacity="0.9">
<g opacity="0.7">
<path opacity="0.7" d="M96.9502 72.4687C96.967 67.3748 95.7501 62.3528 93.4039 57.834C92.2899 55.712 91.274 54.3928 90.4834 53.5837C90.1852 53.2668 89.7958 53.0512 89.3695 52.9668C88.9431 52.8825 88.5011 52.9337 88.1052 53.1133C87.7888 53.2252 87.503 53.41 87.2708 53.6527C86.2132 54.7503 85.2577 56.2012 84.4233 57.7462C81.955 62.3706 80.6739 67.5379 80.6955 72.7823V75.9308H78.6803V39.3442C78.6803 31.6756 76.9677 24.1095 73.6132 17.3922C72.0236 14.2123 70.5738 12.2366 69.4578 11.022C69.1874 10.7132 68.8544 10.4658 68.4809 10.2963C68.1075 10.1268 67.7023 10.0391 67.2924 10.0391C66.8825 10.0391 66.4773 10.1268 66.1039 10.2963C65.7305 10.4658 65.3974 10.7132 65.1271 11.022C63.6167 12.6673 62.2545 14.8416 61.0634 17.1539C57.5358 24.0092 55.7439 31.7885 55.7439 39.685V75.9308H54.002V72.6318C54.0236 67.3874 52.7425 62.2201 50.2742 57.5957C49.4397 56.0528 48.4843 54.6019 47.4267 53.5022C47.1222 53.1808 46.7238 52.9647 46.2889 52.8851C45.8539 52.8054 45.405 52.8663 45.0068 53.059L45.0798 53.0987C44.8244 53.2118 44.5934 53.3737 44.3998 53.5754C43.6175 54.3844 42.6016 55.7037 41.4792 57.8257C39.1331 62.3445 37.9161 67.3664 37.9329 72.4603V127.16H44.1494L43.4715 131.657V145.103H48.5531V131.657L47.8752 127.16H54.002V77.3462H55.7439V126.937H60.7087L59.9953 131.655V145.103H65.0791V131.657L64.3656 126.939H71.0557L70.3423 131.657V145.103H75.426V131.657L74.7126 126.939H78.6762V77.3462H80.6913V127.236H82.3247V127.16H87.7256L87.0476 131.657V145.103H92.1314V131.657L91.4534 127.16H96.9502V72.4687Z" fill="url(#paint0_linear)"/>
</g>
<path d="M49.5648 129.036H44.7523L45.6117 123.18H48.7054L49.5648 129.036Z" fill="#535461"/>
<g opacity="0.1">
<path opacity="0.1" d="M45.3718 125.505H48.9453L48.7054 123.868H45.6117L45.3718 125.505Z" fill="black"/>
</g>
<path d="M90.8192 129.036H86.0066L86.8661 123.18H89.9597L90.8192 129.036Z" fill="#535461"/>
<g opacity="0.1">
<path opacity="0.1" d="M86.6261 125.505H90.1995L89.9596 123.868H86.866L86.6261 125.505Z" fill="black"/>
</g>
<path d="M65.2084 129.036H60.3937L61.2531 123.18H64.3489L65.2084 129.036Z" fill="#535461"/>
<g opacity="0.1">
<path opacity="0.1" d="M61.0132 125.505H64.5888L64.3489 123.868H61.2531L61.0132 125.505Z" fill="black"/>
</g>
<path d="M75.0046 129.036H70.192L71.0515 123.18H74.1451L75.0046 129.036Z" fill="#535461"/>
<g opacity="0.1">
<path opacity="0.1" d="M70.8116 125.505H74.3871L74.1451 123.868H71.0515L70.8116 125.505Z" fill="black"/>
</g>
<path d="M83.9435 74.7705H49.5649V76.1483H83.9435V74.7705Z" fill="#535461"/>
<path d="M89.2588 53.0005C89.0771 52.7995 88.8555 52.6388 88.6081 52.5289C88.3607 52.419 88.0931 52.3622 87.8225 52.3622C87.552 52.3622 87.2844 52.419 87.037 52.5289C86.7896 52.6388 86.568 52.7995 86.3863 53.0005C85.385 54.0688 84.4817 55.4821 83.6911 56.9853C81.3515 61.5057 80.141 66.5276 80.1635 71.6199V124.658H95.3773V71.4004C95.3964 66.4476 94.2447 61.5608 92.0166 57.14C90.9611 55.0744 89.9994 53.7886 89.2588 53.0005Z" fill="#E0E0E0"/>
<path d="M45.6326 53.0005C45.8143 52.7995 46.036 52.6388 46.2833 52.5289C46.5307 52.419 46.7983 52.3622 47.0689 52.3622C47.3395 52.3622 47.6071 52.419 47.8545 52.5289C48.1019 52.6388 48.3235 52.7995 48.5052 53.0005C49.5065 54.0688 50.4098 55.4821 51.2004 56.9853C53.54 61.5057 54.7505 66.5276 54.728 71.6199V124.658H39.51V71.4004C39.4909 66.4476 40.6425 61.5608 42.8707 57.14C43.9241 55.0744 44.8858 53.7886 45.6326 53.0005Z" fill="#E0E0E0"/>
<path d="M39.5955 72.5314L43.2044 72.5482V77.0096H39.5955V72.5314Z" fill="#535461"/>
<path d="M51.1128 72.5314L54.7217 72.5482V77.0096H51.1128V72.5314Z" fill="#535461"/>
<path d="M80.1614 72.5314L83.7725 72.5482V77.0096H80.1614V72.5314Z" fill="#535461"/>
<path d="M91.6786 72.5314L95.2897 72.5482V77.0096H91.6786V72.5314Z" fill="#535461"/>
<g opacity="0.1">
<path opacity="0.1" d="M51.1941 56.9162C50.4055 55.4131 49.5002 53.9998 48.4988 52.9314C48.2159 52.6182 47.8385 52.4064 47.4241 52.3283C47.0098 52.2501 46.5814 52.31 46.2042 52.4987C46.4215 52.6074 46.6179 52.7539 46.7841 52.9314C47.7854 53.9998 48.6887 55.4131 49.4793 56.9162C51.8189 61.4367 53.0294 66.4585 53.0069 71.5509V124.585H54.7258V71.5572C54.748 66.4623 53.5361 61.4382 51.1941 56.9162Z" fill="black"/>
</g>
<g opacity="0.1">
<path opacity="0.1" d="M85.0595 57.0626C85.848 55.5594 86.7534 54.1461 87.7547 53.0778C87.9422 52.8756 88.1686 52.7135 88.4202 52.6011C88.0483 52.4379 87.6346 52.3961 87.2378 52.4817C86.8409 52.5672 86.4809 52.7758 86.2089 53.0778C85.2076 54.1461 84.3043 55.5594 83.5137 57.0626C81.1741 61.5831 79.9636 66.6049 79.9861 71.6973V124.731H81.534V71.7056C81.5095 66.6106 82.7193 61.5858 85.0595 57.0626Z" fill="black"/>
</g>
<path d="M49.5648 129.036H44.7523V142.128H49.5648V129.036Z" fill="url(#paint1_linear)"/>
<path d="M64.8126 129H60V142.092H64.8126V129Z" fill="url(#paint2_linear)"/>
<path d="M74.8126 129H70V142.092H74.8126V129Z" fill="url(#paint3_linear)"/>
<path d="M90.8126 129H86V142.092H90.8126V129Z" fill="url(#paint4_linear)"/>
<path d="M69.3513 11.4171C69.0999 11.1176 68.7862 10.8769 68.4321 10.7117C68.0781 10.5465 67.6923 10.4609 67.3017 10.4609C66.9112 10.4609 66.5254 10.5465 66.1714 10.7117C65.8173 10.8769 65.5036 11.1176 65.2522 11.4171C63.8232 13.0186 62.5403 15.1364 61.4054 17.3901C58.0677 24.0677 56.3696 31.6464 56.3696 39.3317V124.441H78.0836V38.9888C78.0836 31.5209 76.4628 24.1451 73.2857 17.6201C71.7816 14.5238 70.409 12.6004 69.3513 11.4171Z" fill="#EEEEEE"/>
<path d="M70.4466 20.8711H63.7064C62.4391 20.8711 61.4117 21.9007 61.4117 23.1708V23.775C61.4117 25.0451 62.4391 26.0748 63.7064 26.0748H70.4466C71.7139 26.0748 72.7412 25.0451 72.7412 23.775V23.1708C72.7412 21.9007 71.7139 20.8711 70.4466 20.8711Z" fill="#6FCF97"/>
<g opacity="0.7">
<path opacity="0.7" d="M123.201 128.917C124.741 128.917 125.988 127.666 125.988 126.124C125.988 124.581 124.741 123.33 123.201 123.33C121.662 123.33 120.414 124.581 120.414 126.124C120.414 127.666 121.662 128.917 123.201 128.917Z" fill="url(#paint5_linear)"/>
</g>
<g opacity="0.7">
<path opacity="0.7" d="M135.964 156.12C137.643 156.12 139.003 154.757 139.003 153.074C139.003 151.392 137.643 150.028 135.964 150.028C134.285 150.028 132.925 151.392 132.925 153.074C132.925 154.757 134.285 156.12 135.964 156.12Z" fill="url(#paint6_linear)"/>
</g>
<g opacity="0.7">
<path opacity="0.7" d="M5.90952 139.063C7.75405 139.063 9.24933 137.564 9.24933 135.716C9.24933 133.867 7.75405 132.368 5.90952 132.368C4.06499 132.368 2.5697 133.867 2.5697 135.716C2.5697 137.564 4.06499 139.063 5.90952 139.063Z" fill="url(#paint7_linear)"/>
</g>
<g opacity="0.4">
<path opacity="0.4" d="M131.731 3.6524C130.991 2.67201 130.064 1.84904 129.003 1.23141C127.786 0.530568 126.425 0.119287 125.024 0.029306C123.623 -0.0606754 122.221 0.17305 120.924 0.712445C119.628 1.25184 118.473 2.08249 117.548 3.14028C116.623 4.19808 115.952 5.45475 115.589 6.81333C115.225 8.1719 115.178 9.59606 115.45 10.9759C115.723 12.3557 116.308 13.6544 117.161 14.7716C118.014 15.8888 119.111 16.7948 120.368 17.4195C121.626 18.0443 123.01 18.3711 124.413 18.3749C124.607 18.3749 124.801 18.3749 124.993 18.356C126.645 18.2517 128.237 17.701 129.601 16.7624C130.965 15.8239 132.05 14.5327 132.741 13.0258C133.431 11.5189 133.702 9.85271 133.523 8.20416C133.345 6.55561 132.724 4.98628 131.727 3.66286L131.731 3.6524Z" fill="url(#paint8_linear)"/>
</g>
<path opacity="0.25" d="M166.88 107.213C167.467 107.213 167.944 106.736 167.944 106.147C167.944 105.558 167.467 105.081 166.88 105.081C166.292 105.081 165.816 105.558 165.816 106.147C165.816 106.736 166.292 107.213 166.88 107.213Z" fill="#535461"/>
<path opacity="0.25" d="M35.2314 56.6905C35.819 56.6905 36.2953 56.2131 36.2953 55.6242C36.2953 55.0354 35.819 54.558 35.2314 54.558C34.6439 54.558 34.1675 55.0354 34.1675 55.6242C34.1675 56.2131 34.6439 56.6905 35.2314 56.6905Z" fill="#535461"/>
<path opacity="0.25" d="M31.7372 32.1753C32.3248 32.1753 32.8011 31.698 32.8011 31.1091C32.8011 30.5202 32.3248 30.0428 31.7372 30.0428C31.1497 30.0428 30.6733 30.5202 30.6733 31.1091C30.6733 31.698 31.1497 32.1753 31.7372 32.1753Z" fill="#535461"/>
<path opacity="0.25" d="M1.65387 80.7477C2.24144 80.7477 2.71777 80.2703 2.71777 79.6815C2.71777 79.0926 2.24144 78.6152 1.65387 78.6152C1.06629 78.6152 0.589966 79.0926 0.589966 79.6815C0.589966 80.2703 1.06629 80.7477 1.65387 80.7477Z" fill="#535461"/>
<g opacity="0.4">
<path opacity="0.4" d="M31.1073 72.822C30.7548 72.3547 30.313 71.9624 29.8077 71.6679C29.2281 71.3298 28.5786 71.1302 27.9095 71.0844C27.2404 71.0386 26.5699 71.148 25.9498 71.404C25.3298 71.66 24.7769 72.0558 24.3342 72.5606C23.8915 73.0655 23.5709 73.6657 23.3971 74.3149C23.2234 74.964 23.2013 75.6446 23.3325 76.3037C23.4637 76.9628 23.7448 77.5827 24.1537 78.1153C24.5627 78.6479 25.0887 79.0789 25.6908 79.3748C26.2929 79.6707 26.955 79.8236 27.6256 79.8215C27.7174 79.8215 27.8113 79.8215 27.901 79.8215C28.6871 79.7712 29.4449 79.5085 30.0941 79.0614C30.7433 78.6143 31.2596 77.9994 31.5883 77.282C31.917 76.5646 32.0459 75.7714 31.9612 74.9866C31.8765 74.2017 31.5814 73.4545 31.1073 72.8241V72.822Z" fill="url(#paint9_linear)"/>
</g>
<g opacity="0.1">
<path opacity="0.1" d="M77.9668 42.2419H56.4802V43.0782H77.9668V42.2419Z" fill="black"/>
</g>
</g>
<defs>
<linearGradient id="paint0_linear" x1="67.4426" y1="145.103" x2="67.4426" y2="10.0456" gradientUnits="userSpaceOnUse">
<stop stop-color="#808080" stop-opacity="0.25"/>
<stop offset="0.54" stop-color="#808080" stop-opacity="0.12"/>
<stop offset="1" stop-color="#808080" stop-opacity="0.1"/>
</linearGradient>
<linearGradient id="paint1_linear" x1="47.1575" y1="129.036" x2="47.1575" y2="142.13" gradientUnits="userSpaceOnUse">
<stop stop-color="#E0E0E0"/>
<stop offset="0.31" stop-color="#FCCC63"/>
<stop offset="0.77" stop-color="#F55F44"/>
</linearGradient>
<linearGradient id="paint2_linear" x1="62.4053" y1="129" x2="62.4053" y2="142.094" gradientUnits="userSpaceOnUse">
<stop stop-color="#E0E0E0"/>
<stop offset="0.31" stop-color="#FCCC63"/>
<stop offset="0.77" stop-color="#F55F44"/>
</linearGradient>
<linearGradient id="paint3_linear" x1="72.4053" y1="129" x2="72.4053" y2="142.094" gradientUnits="userSpaceOnUse">
<stop stop-color="#E0E0E0"/>
<stop offset="0.31" stop-color="#FCCC63"/>
<stop offset="0.77" stop-color="#F55F44"/>
</linearGradient>
<linearGradient id="paint4_linear" x1="88.4053" y1="129" x2="88.4053" y2="142.094" gradientUnits="userSpaceOnUse">
<stop stop-color="#E0E0E0"/>
<stop offset="0.31" stop-color="#FCCC63"/>
<stop offset="0.77" stop-color="#F55F44"/>
</linearGradient>
<linearGradient id="paint5_linear" x1="4080.34" y1="3567.99" x2="4080.34" y2="3418.73" gradientUnits="userSpaceOnUse">
<stop stop-color="#808080" stop-opacity="0.25"/>
<stop offset="0.54" stop-color="#808080" stop-opacity="0.12"/>
<stop offset="1" stop-color="#808080" stop-opacity="0.1"/>
</linearGradient>
<linearGradient id="paint6_linear" x1="4823.42" y1="4699.39" x2="4823.42" y2="4521.92" gradientUnits="userSpaceOnUse">
<stop stop-color="#808080" stop-opacity="0.25"/>
<stop offset="0.54" stop-color="#808080" stop-opacity="0.12"/>
<stop offset="1" stop-color="#808080" stop-opacity="0.1"/>
</linearGradient>
<linearGradient id="paint7_linear" x1="992.291" y1="4585.15" x2="992.291" y2="4370.8" gradientUnits="userSpaceOnUse">
<stop stop-color="#808080" stop-opacity="0.25"/>
<stop offset="0.54" stop-color="#808080" stop-opacity="0.12"/>
<stop offset="1" stop-color="#808080" stop-opacity="0.1"/>
</linearGradient>
<linearGradient id="paint8_linear" x1="15738.2" y1="2805.9" x2="15738.2" y2="1192.78" gradientUnits="userSpaceOnUse">
<stop stop-color="#808080" stop-opacity="0.25"/>
<stop offset="0.54" stop-color="#808080" stop-opacity="0.12"/>
<stop offset="1" stop-color="#808080" stop-opacity="0.1"/>
</linearGradient>
<linearGradient id="paint9_linear" x1="3428.31" y1="3979.3" x2="3428.31" y2="3613.31" gradientUnits="userSpaceOnUse">
<stop stop-color="#808080" stop-opacity="0.25"/>
<stop offset="0.54" stop-color="#808080" stop-opacity="0.12"/>
<stop offset="1" stop-color="#808080" stop-opacity="0.1"/>
</linearGradient>
</defs>
</svg>
